%TF.GenerationSoftware,KiCad,Pcbnew,(6.0.0)*%
%TF.CreationDate,2022-04-08T13:22:10+02:00*%
%TF.ProjectId,STM32G030F6P6,53544d33-3247-4303-9330-463650362e6b,rev?*%
%TF.SameCoordinates,Original*%
%TF.FileFunction,Soldermask,Bot*%
%TF.FilePolarity,Negative*%
%FSLAX46Y46*%
G04 Gerber Fmt 4.6, Leading zero omitted, Abs format (unit mm)*
G04 Created by KiCad (PCBNEW (6.0.0)) date 2022-04-08 13:22:10*
%MOMM*%
%LPD*%
G01*
G04 APERTURE LIST*
G04 Aperture macros list*
%AMRoundRect*
0 Rectangle with rounded corners*
0 $1 Rounding radius*
0 $2 $3 $4 $5 $6 $7 $8 $9 X,Y pos of 4 corners*
0 Add a 4 corners polygon primitive as box body*
4,1,4,$2,$3,$4,$5,$6,$7,$8,$9,$2,$3,0*
0 Add four circle primitives for the rounded corners*
1,1,$1+$1,$2,$3*
1,1,$1+$1,$4,$5*
1,1,$1+$1,$6,$7*
1,1,$1+$1,$8,$9*
0 Add four rect primitives between the rounded corners*
20,1,$1+$1,$2,$3,$4,$5,0*
20,1,$1+$1,$4,$5,$6,$7,0*
20,1,$1+$1,$6,$7,$8,$9,0*
20,1,$1+$1,$8,$9,$2,$3,0*%
G04 Aperture macros list end*
%ADD10R,1.700000X1.700000*%
%ADD11O,1.700000X1.700000*%
%ADD12C,2.000000*%
%ADD13RoundRect,0.250000X-0.450000X0.350000X-0.450000X-0.350000X0.450000X-0.350000X0.450000X0.350000X0*%
G04 APERTURE END LIST*
D10*
%TO.C,JP1*%
X119380000Y-118110000D03*
D11*
X121920000Y-118110000D03*
%TD*%
D12*
%TO.C,SW1*%
X119670000Y-97865000D03*
X119670000Y-91365000D03*
X124170000Y-97865000D03*
X124170000Y-91365000D03*
%TD*%
D11*
%TO.C,J1*%
X127025000Y-87655000D03*
X129565000Y-87655000D03*
X132105000Y-87655000D03*
X134645000Y-87655000D03*
D10*
X137185000Y-87655000D03*
%TD*%
D13*
%TO.C,R3*%
X135001000Y-106807000D03*
X135001000Y-108807000D03*
%TD*%
%TO.C,R6*%
X124460000Y-101473000D03*
X124460000Y-103473000D03*
%TD*%
%TO.C,R4*%
X137414000Y-106807000D03*
X137414000Y-108807000D03*
%TD*%
D10*
%TO.C,J2*%
X113665000Y-93345000D03*
D11*
X113665000Y-95885000D03*
X113665000Y-98425000D03*
X113665000Y-100965000D03*
X113665000Y-103505000D03*
X113665000Y-106045000D03*
X113665000Y-108585000D03*
X113665000Y-111125000D03*
X113665000Y-113665000D03*
X113665000Y-116205000D03*
X113665000Y-118745000D03*
%TD*%
D13*
%TO.C,R5*%
X122047000Y-101473000D03*
X122047000Y-103473000D03*
%TD*%
D10*
%TO.C,J3*%
X140970000Y-93345000D03*
D11*
X140970000Y-95885000D03*
X140970000Y-98425000D03*
X140970000Y-100965000D03*
X140970000Y-103505000D03*
X140970000Y-106045000D03*
X140970000Y-108585000D03*
X140970000Y-111125000D03*
X140970000Y-113665000D03*
X140970000Y-116205000D03*
X140970000Y-118745000D03*
%TD*%
M02*
