%TF.GenerationSoftware,KiCad,Pcbnew,(6.0.0)*%
%TF.CreationDate,2022-04-08T13:22:10+02:00*%
%TF.ProjectId,STM32G030F6P6,53544d33-3247-4303-9330-463650362e6b,rev?*%
%TF.SameCoordinates,Original*%
%TF.FileFunction,Soldermask,Top*%
%TF.FilePolarity,Negative*%
%FSLAX46Y46*%
G04 Gerber Fmt 4.6, Leading zero omitted, Abs format (unit mm)*
G04 Created by KiCad (PCBNEW (6.0.0)) date 2022-04-08 13:22:10*
%MOMM*%
%LPD*%
G01*
G04 APERTURE LIST*
G04 Aperture macros list*
%AMRoundRect*
0 Rectangle with rounded corners*
0 $1 Rounding radius*
0 $2 $3 $4 $5 $6 $7 $8 $9 X,Y pos of 4 corners*
0 Add a 4 corners polygon primitive as box body*
4,1,4,$2,$3,$4,$5,$6,$7,$8,$9,$2,$3,0*
0 Add four circle primitives for the rounded corners*
1,1,$1+$1,$2,$3*
1,1,$1+$1,$4,$5*
1,1,$1+$1,$6,$7*
1,1,$1+$1,$8,$9*
0 Add four rect primitives between the rounded corners*
20,1,$1+$1,$2,$3,$4,$5,0*
20,1,$1+$1,$4,$5,$6,$7,0*
20,1,$1+$1,$6,$7,$8,$9,0*
20,1,$1+$1,$8,$9,$2,$3,0*%
G04 Aperture macros list end*
%ADD10R,1.100000X1.100000*%
%ADD11RoundRect,0.250000X0.450000X-0.325000X0.450000X0.325000X-0.450000X0.325000X-0.450000X-0.325000X0*%
%ADD12RoundRect,0.250000X0.350000X0.450000X-0.350000X0.450000X-0.350000X-0.450000X0.350000X-0.450000X0*%
%ADD13RoundRect,0.250000X-0.450000X0.350000X-0.450000X-0.350000X0.450000X-0.350000X0.450000X0.350000X0*%
%ADD14RoundRect,0.150000X-0.587500X-0.150000X0.587500X-0.150000X0.587500X0.150000X-0.587500X0.150000X0*%
%ADD15RoundRect,0.250000X-0.337500X-0.475000X0.337500X-0.475000X0.337500X0.475000X-0.337500X0.475000X0*%
%ADD16R,1.700000X1.700000*%
%ADD17O,1.700000X1.700000*%
%ADD18RoundRect,0.250000X-0.475000X0.337500X-0.475000X-0.337500X0.475000X-0.337500X0.475000X0.337500X0*%
%ADD19C,2.000000*%
%ADD20RoundRect,0.250000X0.475000X-0.337500X0.475000X0.337500X-0.475000X0.337500X-0.475000X-0.337500X0*%
%ADD21RoundRect,0.250000X0.325000X0.450000X-0.325000X0.450000X-0.325000X-0.450000X0.325000X-0.450000X0*%
%ADD22RoundRect,0.100000X-0.637500X-0.100000X0.637500X-0.100000X0.637500X0.100000X-0.637500X0.100000X0*%
%ADD23RoundRect,0.250000X0.337500X0.475000X-0.337500X0.475000X-0.337500X-0.475000X0.337500X-0.475000X0*%
G04 APERTURE END LIST*
D10*
%TO.C,D4*%
X126873000Y-94488000D03*
X126873000Y-97288000D03*
%TD*%
D11*
%TO.C,D1*%
X129565000Y-99695000D03*
X129565000Y-97645000D03*
%TD*%
D10*
%TO.C,D3*%
X138173000Y-90678000D03*
X140973000Y-90678000D03*
%TD*%
D12*
%TO.C,R2*%
X127730000Y-115316000D03*
X125730000Y-115316000D03*
%TD*%
D13*
%TO.C,R1*%
X132740000Y-97695000D03*
X132740000Y-99695000D03*
%TD*%
D14*
%TO.C,U1*%
X134010000Y-93345000D03*
X132135000Y-94295000D03*
X132135000Y-92395000D03*
%TD*%
D15*
%TO.C,C2*%
X128524000Y-102108000D03*
X130599000Y-102108000D03*
%TD*%
D16*
%TO.C,JP1*%
X119380000Y-118110000D03*
D17*
X121920000Y-118110000D03*
%TD*%
D18*
%TO.C,C1*%
X136144000Y-93345000D03*
X136144000Y-95420000D03*
%TD*%
D15*
%TO.C,C5*%
X128524000Y-104394000D03*
X130599000Y-104394000D03*
%TD*%
D19*
%TO.C,SW1*%
X119670000Y-97865000D03*
X119670000Y-91365000D03*
X124170000Y-97865000D03*
X124170000Y-91365000D03*
%TD*%
D20*
%TO.C,C4*%
X129565000Y-94382500D03*
X129565000Y-92307500D03*
%TD*%
D21*
%TO.C,D2*%
X127780000Y-118110000D03*
X125730000Y-118110000D03*
%TD*%
D17*
%TO.C,J1*%
X127025000Y-87655000D03*
X129565000Y-87655000D03*
X132105000Y-87655000D03*
X134645000Y-87655000D03*
D16*
X137185000Y-87655000D03*
%TD*%
D22*
%TO.C,U2*%
X126665000Y-106146500D03*
X126665000Y-106796500D03*
X126665000Y-107446500D03*
X126665000Y-108096500D03*
X126665000Y-108746500D03*
X126665000Y-109396500D03*
X126665000Y-110046500D03*
X126665000Y-110696500D03*
X126665000Y-111346500D03*
X126665000Y-111996500D03*
X132390000Y-111996500D03*
X132390000Y-111346500D03*
X132390000Y-110696500D03*
X132390000Y-110046500D03*
X132390000Y-109396500D03*
X132390000Y-108746500D03*
X132390000Y-108096500D03*
X132390000Y-107446500D03*
X132390000Y-106796500D03*
X132390000Y-106146500D03*
%TD*%
D23*
%TO.C,C3*%
X122957500Y-88265000D03*
X120882500Y-88265000D03*
%TD*%
D16*
%TO.C,J2*%
X113665000Y-93345000D03*
D17*
X113665000Y-95885000D03*
X113665000Y-98425000D03*
X113665000Y-100965000D03*
X113665000Y-103505000D03*
X113665000Y-106045000D03*
X113665000Y-108585000D03*
X113665000Y-111125000D03*
X113665000Y-113665000D03*
X113665000Y-116205000D03*
X113665000Y-118745000D03*
%TD*%
D16*
%TO.C,J3*%
X140970000Y-93345000D03*
D17*
X140970000Y-95885000D03*
X140970000Y-98425000D03*
X140970000Y-100965000D03*
X140970000Y-103505000D03*
X140970000Y-106045000D03*
X140970000Y-108585000D03*
X140970000Y-111125000D03*
X140970000Y-113665000D03*
X140970000Y-116205000D03*
X140970000Y-118745000D03*
%TD*%
M02*
