%TF.GenerationSoftware,KiCad,Pcbnew,(6.0.0)*%
%TF.CreationDate,2022-04-08T13:22:10+02:00*%
%TF.ProjectId,STM32G030F6P6,53544d33-3247-4303-9330-463650362e6b,rev?*%
%TF.SameCoordinates,Original*%
%TF.FileFunction,Legend,Bot*%
%TF.FilePolarity,Positive*%
%FSLAX46Y46*%
G04 Gerber Fmt 4.6, Leading zero omitted, Abs format (unit mm)*
G04 Created by KiCad (PCBNEW (6.0.0)) date 2022-04-08 13:22:10*
%MOMM*%
%LPD*%
G01*
G04 APERTURE LIST*
%ADD10C,0.300000*%
%ADD11C,0.150000*%
%ADD12C,0.120000*%
G04 APERTURE END LIST*
D10*
X131377142Y-118534571D02*
X131877142Y-117820285D01*
X132234285Y-118534571D02*
X132234285Y-117034571D01*
X131662857Y-117034571D01*
X131520000Y-117106000D01*
X131448571Y-117177428D01*
X131377142Y-117320285D01*
X131377142Y-117534571D01*
X131448571Y-117677428D01*
X131520000Y-117748857D01*
X131662857Y-117820285D01*
X132234285Y-117820285D01*
X130162857Y-118463142D02*
X130305714Y-118534571D01*
X130591428Y-118534571D01*
X130734285Y-118463142D01*
X130805714Y-118320285D01*
X130805714Y-117748857D01*
X130734285Y-117606000D01*
X130591428Y-117534571D01*
X130305714Y-117534571D01*
X130162857Y-117606000D01*
X130091428Y-117748857D01*
X130091428Y-117891714D01*
X130805714Y-118034571D01*
X129591428Y-117534571D02*
X129234285Y-118534571D01*
X128877142Y-117534571D01*
X126377142Y-118534571D02*
X127234285Y-118534571D01*
X126805714Y-118534571D02*
X126805714Y-117034571D01*
X126948571Y-117248857D01*
X127091428Y-117391714D01*
X127234285Y-117463142D01*
X125734285Y-118391714D02*
X125662857Y-118463142D01*
X125734285Y-118534571D01*
X125805714Y-118463142D01*
X125734285Y-118391714D01*
X125734285Y-118534571D01*
X124734285Y-117034571D02*
X124591428Y-117034571D01*
X124448571Y-117106000D01*
X124377142Y-117177428D01*
X124305714Y-117320285D01*
X124234285Y-117606000D01*
X124234285Y-117963142D01*
X124305714Y-118248857D01*
X124377142Y-118391714D01*
X124448571Y-118463142D01*
X124591428Y-118534571D01*
X124734285Y-118534571D01*
X124877142Y-118463142D01*
X124948571Y-118391714D01*
X125020000Y-118248857D01*
X125091428Y-117963142D01*
X125091428Y-117606000D01*
X125020000Y-117320285D01*
X124948571Y-117177428D01*
X124877142Y-117106000D01*
X124734285Y-117034571D01*
D11*
%TO.C,R3*%
X135167666Y-105735380D02*
X135501000Y-105259190D01*
X135739095Y-105735380D02*
X135739095Y-104735380D01*
X135358142Y-104735380D01*
X135262904Y-104783000D01*
X135215285Y-104830619D01*
X135167666Y-104925857D01*
X135167666Y-105068714D01*
X135215285Y-105163952D01*
X135262904Y-105211571D01*
X135358142Y-105259190D01*
X135739095Y-105259190D01*
X134834333Y-104735380D02*
X134215285Y-104735380D01*
X134548619Y-105116333D01*
X134405761Y-105116333D01*
X134310523Y-105163952D01*
X134262904Y-105211571D01*
X134215285Y-105306809D01*
X134215285Y-105544904D01*
X134262904Y-105640142D01*
X134310523Y-105687761D01*
X134405761Y-105735380D01*
X134691476Y-105735380D01*
X134786714Y-105687761D01*
X134834333Y-105640142D01*
%TO.C,R6*%
X124626666Y-100401380D02*
X124960000Y-99925190D01*
X125198095Y-100401380D02*
X125198095Y-99401380D01*
X124817142Y-99401380D01*
X124721904Y-99449000D01*
X124674285Y-99496619D01*
X124626666Y-99591857D01*
X124626666Y-99734714D01*
X124674285Y-99829952D01*
X124721904Y-99877571D01*
X124817142Y-99925190D01*
X125198095Y-99925190D01*
X123769523Y-99401380D02*
X123960000Y-99401380D01*
X124055238Y-99449000D01*
X124102857Y-99496619D01*
X124198095Y-99639476D01*
X124245714Y-99829952D01*
X124245714Y-100210904D01*
X124198095Y-100306142D01*
X124150476Y-100353761D01*
X124055238Y-100401380D01*
X123864761Y-100401380D01*
X123769523Y-100353761D01*
X123721904Y-100306142D01*
X123674285Y-100210904D01*
X123674285Y-99972809D01*
X123721904Y-99877571D01*
X123769523Y-99829952D01*
X123864761Y-99782333D01*
X124055238Y-99782333D01*
X124150476Y-99829952D01*
X124198095Y-99877571D01*
X124245714Y-99972809D01*
%TO.C,R4*%
X137580666Y-105735380D02*
X137914000Y-105259190D01*
X138152095Y-105735380D02*
X138152095Y-104735380D01*
X137771142Y-104735380D01*
X137675904Y-104783000D01*
X137628285Y-104830619D01*
X137580666Y-104925857D01*
X137580666Y-105068714D01*
X137628285Y-105163952D01*
X137675904Y-105211571D01*
X137771142Y-105259190D01*
X138152095Y-105259190D01*
X136723523Y-105068714D02*
X136723523Y-105735380D01*
X136961619Y-104687761D02*
X137199714Y-105402047D01*
X136580666Y-105402047D01*
%TO.C,J2*%
X113998333Y-90384380D02*
X113998333Y-91098666D01*
X114045952Y-91241523D01*
X114141190Y-91336761D01*
X114284047Y-91384380D01*
X114379285Y-91384380D01*
X113569761Y-90479619D02*
X113522142Y-90432000D01*
X113426904Y-90384380D01*
X113188809Y-90384380D01*
X113093571Y-90432000D01*
X113045952Y-90479619D01*
X112998333Y-90574857D01*
X112998333Y-90670095D01*
X113045952Y-90812952D01*
X113617380Y-91384380D01*
X112998333Y-91384380D01*
%TO.C,R5*%
X122213666Y-100401380D02*
X122547000Y-99925190D01*
X122785095Y-100401380D02*
X122785095Y-99401380D01*
X122404142Y-99401380D01*
X122308904Y-99449000D01*
X122261285Y-99496619D01*
X122213666Y-99591857D01*
X122213666Y-99734714D01*
X122261285Y-99829952D01*
X122308904Y-99877571D01*
X122404142Y-99925190D01*
X122785095Y-99925190D01*
X121308904Y-99401380D02*
X121785095Y-99401380D01*
X121832714Y-99877571D01*
X121785095Y-99829952D01*
X121689857Y-99782333D01*
X121451761Y-99782333D01*
X121356523Y-99829952D01*
X121308904Y-99877571D01*
X121261285Y-99972809D01*
X121261285Y-100210904D01*
X121308904Y-100306142D01*
X121356523Y-100353761D01*
X121451761Y-100401380D01*
X121689857Y-100401380D01*
X121785095Y-100353761D01*
X121832714Y-100306142D01*
%TO.C,J3*%
X141303333Y-90257380D02*
X141303333Y-90971666D01*
X141350952Y-91114523D01*
X141446190Y-91209761D01*
X141589047Y-91257380D01*
X141684285Y-91257380D01*
X140922380Y-90257380D02*
X140303333Y-90257380D01*
X140636666Y-90638333D01*
X140493809Y-90638333D01*
X140398571Y-90685952D01*
X140350952Y-90733571D01*
X140303333Y-90828809D01*
X140303333Y-91066904D01*
X140350952Y-91162142D01*
X140398571Y-91209761D01*
X140493809Y-91257380D01*
X140779523Y-91257380D01*
X140874761Y-91209761D01*
X140922380Y-91162142D01*
%TO.C,G\u002A\u002A\u002A*%
G36*
X124462852Y-106405829D02*
G01*
X124551864Y-106410351D01*
X124622054Y-106416991D01*
X124670691Y-106425604D01*
X124695046Y-106436044D01*
X124703907Y-106452343D01*
X124707105Y-106485606D01*
X124703167Y-106539592D01*
X124701247Y-106557801D01*
X124696036Y-106612169D01*
X124689699Y-106682956D01*
X124682864Y-106763031D01*
X124676163Y-106845260D01*
X124668853Y-106930173D01*
X124661629Y-106995990D01*
X124654318Y-107041349D01*
X124646370Y-107069622D01*
X124637235Y-107084182D01*
X124637204Y-107084209D01*
X124617658Y-107093268D01*
X124580298Y-107100000D01*
X124522049Y-107104777D01*
X124439837Y-107107967D01*
X124398600Y-107109164D01*
X124335295Y-107112004D01*
X124289080Y-107116438D01*
X124253364Y-107123573D01*
X124221554Y-107134515D01*
X124187058Y-107150369D01*
X124179641Y-107154056D01*
X124133972Y-107180743D01*
X124104126Y-107209371D01*
X124081067Y-107248290D01*
X124073294Y-107265714D01*
X124059558Y-107325281D01*
X124070931Y-107378123D01*
X124108016Y-107428270D01*
X124114663Y-107434154D01*
X124154299Y-107459086D01*
X124216555Y-107489343D01*
X124298590Y-107523960D01*
X124397560Y-107561971D01*
X124510624Y-107602411D01*
X124634939Y-107644313D01*
X124767663Y-107686714D01*
X124905953Y-107728646D01*
X125046967Y-107769144D01*
X125187863Y-107807243D01*
X125325798Y-107841977D01*
X125369584Y-107853309D01*
X125424143Y-107869734D01*
X125465385Y-107884913D01*
X125486741Y-107896618D01*
X125487456Y-107897340D01*
X125503322Y-107920760D01*
X125507971Y-107949995D01*
X125500399Y-107988211D01*
X125479603Y-108038579D01*
X125444580Y-108104265D01*
X125394327Y-108188438D01*
X125356476Y-108249997D01*
X125303757Y-108335978D01*
X125245862Y-108430599D01*
X125187541Y-108526096D01*
X125133544Y-108614703D01*
X125123317Y-108631484D01*
X125077229Y-108706506D01*
X125034380Y-108775346D01*
X124997451Y-108833751D01*
X124969125Y-108877474D01*
X124952082Y-108902263D01*
X124935734Y-108921201D01*
X124903930Y-108942910D01*
X124865900Y-108948545D01*
X124818153Y-108937617D01*
X124757200Y-108909638D01*
X124679551Y-108864119D01*
X124538339Y-108771763D01*
X124369507Y-108650754D01*
X124204915Y-108521697D01*
X124047088Y-108387056D01*
X123898548Y-108249291D01*
X123761819Y-108110865D01*
X123639425Y-107974239D01*
X123533889Y-107841877D01*
X123447736Y-107716238D01*
X123383489Y-107599786D01*
X123354075Y-107534361D01*
X123317130Y-107434102D01*
X123294892Y-107339412D01*
X123285441Y-107240940D01*
X123286856Y-107129339D01*
X123293842Y-107044903D01*
X123318662Y-106912768D01*
X123360930Y-106796930D01*
X123422293Y-106693364D01*
X123504400Y-106598049D01*
X123535657Y-106568188D01*
X123593160Y-106520984D01*
X123652981Y-106483883D01*
X123719223Y-106455628D01*
X123795992Y-106434956D01*
X123887392Y-106420609D01*
X123997528Y-106411327D01*
X124130504Y-106405849D01*
X124239284Y-106403725D01*
X124357749Y-106403572D01*
X124462852Y-106405829D01*
G37*
G36*
X126314650Y-105517057D02*
G01*
X126419959Y-105521934D01*
X126514109Y-105529439D01*
X126591462Y-105539573D01*
X126793462Y-105577367D01*
X127189153Y-105671299D01*
X127578037Y-105790629D01*
X127961760Y-105935893D01*
X128341966Y-106107622D01*
X128351618Y-106112349D01*
X128662960Y-106279062D01*
X128957638Y-106464838D01*
X129234710Y-106668674D01*
X129493234Y-106889566D01*
X129732270Y-107126511D01*
X129950877Y-107378506D01*
X130148112Y-107644547D01*
X130323035Y-107923632D01*
X130474704Y-108214755D01*
X130602178Y-108516915D01*
X130608202Y-108533149D01*
X130645337Y-108639695D01*
X130679725Y-108749044D01*
X130710701Y-108858038D01*
X130737604Y-108963519D01*
X130759769Y-109062328D01*
X130776533Y-109151307D01*
X130787231Y-109227298D01*
X130791202Y-109287142D01*
X130787781Y-109327681D01*
X130776305Y-109345757D01*
X130773063Y-109346559D01*
X130746759Y-109349982D01*
X130700521Y-109354288D01*
X130639774Y-109359006D01*
X130569938Y-109363667D01*
X130512691Y-109367188D01*
X130423612Y-109372461D01*
X130356235Y-109375800D01*
X130307093Y-109377023D01*
X130272714Y-109375947D01*
X130249629Y-109372393D01*
X130234368Y-109366179D01*
X130223461Y-109357123D01*
X130213438Y-109345045D01*
X130208924Y-109338697D01*
X130189819Y-109299037D01*
X130177435Y-109253703D01*
X130176114Y-109245737D01*
X130160359Y-109171381D01*
X130136362Y-109079789D01*
X130106212Y-108977751D01*
X130072004Y-108872060D01*
X130035827Y-108769505D01*
X129999773Y-108676879D01*
X129977928Y-108625803D01*
X129918334Y-108499005D01*
X129849576Y-108366699D01*
X129774739Y-108234034D01*
X129696908Y-108106162D01*
X129619169Y-107988235D01*
X129544606Y-107885404D01*
X129476305Y-107802821D01*
X129466027Y-107790961D01*
X129438590Y-107757204D01*
X129408644Y-107718481D01*
X129387791Y-107692890D01*
X129342669Y-107642932D01*
X129283258Y-107581009D01*
X129213165Y-107510590D01*
X129135995Y-107435144D01*
X129055351Y-107358142D01*
X128974840Y-107283052D01*
X128898066Y-107213346D01*
X128828635Y-107152492D01*
X128770151Y-107103960D01*
X128644896Y-107007402D01*
X128351953Y-106804574D01*
X128050493Y-106627091D01*
X127740910Y-106475135D01*
X127423600Y-106348892D01*
X127098959Y-106248543D01*
X126767381Y-106174274D01*
X126573980Y-106142199D01*
X126397697Y-106120421D01*
X126241946Y-106110062D01*
X126104648Y-106111236D01*
X125983719Y-106124059D01*
X125877079Y-106148647D01*
X125782644Y-106185116D01*
X125698334Y-106233580D01*
X125694728Y-106236061D01*
X125602879Y-106315751D01*
X125521180Y-106420077D01*
X125450022Y-106548447D01*
X125389796Y-106700269D01*
X125382208Y-106723208D01*
X125347452Y-106837938D01*
X125321538Y-106945070D01*
X125303505Y-107051474D01*
X125292394Y-107164024D01*
X125287244Y-107289591D01*
X125287094Y-107435047D01*
X125287346Y-107454710D01*
X125288278Y-107547448D01*
X125287721Y-107616874D01*
X125284685Y-107666162D01*
X125278178Y-107698485D01*
X125267211Y-107717015D01*
X125250793Y-107724925D01*
X125227934Y-107725389D01*
X125197642Y-107721579D01*
X125187548Y-107720124D01*
X125102344Y-107706554D01*
X125019599Y-107691303D01*
X124944182Y-107675457D01*
X124880962Y-107660103D01*
X124834808Y-107646328D01*
X124810589Y-107635217D01*
X124802713Y-107627755D01*
X124794881Y-107615012D01*
X124789049Y-107594975D01*
X124784709Y-107563692D01*
X124781353Y-107517208D01*
X124778471Y-107451572D01*
X124775555Y-107362829D01*
X124774160Y-107285774D01*
X124775408Y-107151809D01*
X124780611Y-107012296D01*
X124789326Y-106873747D01*
X124801113Y-106742673D01*
X124815529Y-106625584D01*
X124832133Y-106528993D01*
X124846980Y-106462867D01*
X124901364Y-106279393D01*
X124971294Y-106117537D01*
X125057799Y-105976218D01*
X125161907Y-105854359D01*
X125284647Y-105750881D01*
X125427046Y-105664704D01*
X125590133Y-105594750D01*
X125774937Y-105539940D01*
X125818074Y-105531985D01*
X125894599Y-105523766D01*
X125988157Y-105518161D01*
X126093111Y-105515173D01*
X126203821Y-105514804D01*
X126314650Y-105517057D01*
G37*
G36*
X126703103Y-106586645D02*
G01*
X126824736Y-106587785D01*
X126965552Y-106589483D01*
X127097582Y-106591477D01*
X127218214Y-106593707D01*
X127324836Y-106596114D01*
X127414839Y-106598638D01*
X127485610Y-106601218D01*
X127534540Y-106603795D01*
X127559016Y-106606308D01*
X127578847Y-106610914D01*
X127653875Y-106635687D01*
X127720527Y-106671983D01*
X127781888Y-106722725D01*
X127841043Y-106790833D01*
X127901077Y-106879230D01*
X127965073Y-106990835D01*
X127990661Y-107037935D01*
X128028526Y-107107019D01*
X128069824Y-107181876D01*
X128109259Y-107252880D01*
X128115323Y-107263764D01*
X128146498Y-107320109D01*
X128171817Y-107366513D01*
X128188817Y-107398424D01*
X128195031Y-107411289D01*
X128198424Y-107418951D01*
X128212296Y-107444477D01*
X128233220Y-107480783D01*
X128238641Y-107490061D01*
X128265739Y-107537549D01*
X128298215Y-107595668D01*
X128330186Y-107653915D01*
X128331085Y-107655571D01*
X128353949Y-107697352D01*
X128387485Y-107758250D01*
X128429322Y-107833977D01*
X128477088Y-107920244D01*
X128528411Y-108012763D01*
X128580918Y-108107244D01*
X128586655Y-108117559D01*
X128638072Y-108210039D01*
X128687204Y-108298488D01*
X128731875Y-108378982D01*
X128769910Y-108447600D01*
X128799132Y-108500416D01*
X128817365Y-108533510D01*
X128840043Y-108574820D01*
X128868924Y-108627256D01*
X128891924Y-108668832D01*
X128903677Y-108690006D01*
X128931728Y-108740628D01*
X128959386Y-108790622D01*
X128974119Y-108817129D01*
X129000091Y-108863274D01*
X129020514Y-108898880D01*
X129036362Y-108926643D01*
X129061589Y-108971909D01*
X129088301Y-109020670D01*
X129106955Y-109054890D01*
X129138881Y-109113114D01*
X129175410Y-109179462D01*
X129211746Y-109245215D01*
X129241048Y-109298756D01*
X129267985Y-109351098D01*
X129283446Y-109387681D01*
X129288755Y-109412753D01*
X129285240Y-109430565D01*
X129274227Y-109445363D01*
X129271478Y-109447541D01*
X129241888Y-109454307D01*
X129186670Y-109453666D01*
X129106148Y-109445657D01*
X129000649Y-109430320D01*
X128870499Y-109407694D01*
X128716022Y-109377819D01*
X128632048Y-109360360D01*
X128498224Y-109329029D01*
X128386638Y-109296909D01*
X128294213Y-109262322D01*
X128217871Y-109223588D01*
X128154534Y-109179028D01*
X128101125Y-109126964D01*
X128054566Y-109065716D01*
X128011780Y-108993606D01*
X127969276Y-108914816D01*
X127919687Y-108824284D01*
X127874068Y-108742842D01*
X127872684Y-108740391D01*
X127852119Y-108702841D01*
X127825185Y-108652344D01*
X127797332Y-108599110D01*
X127792525Y-108589931D01*
X127765876Y-108542489D01*
X127741584Y-108504266D01*
X127724391Y-108482821D01*
X127723382Y-108481989D01*
X127708871Y-108474983D01*
X127683037Y-108469236D01*
X127642732Y-108464458D01*
X127584807Y-108460354D01*
X127506116Y-108456633D01*
X127403508Y-108453002D01*
X127363928Y-108451721D01*
X127281200Y-108448901D01*
X127209949Y-108446280D01*
X127154069Y-108444012D01*
X127117453Y-108442251D01*
X127103995Y-108441152D01*
X127103143Y-108427738D01*
X127101910Y-108391493D01*
X127100417Y-108336685D01*
X127098781Y-108267578D01*
X127097116Y-108188438D01*
X127092154Y-107938092D01*
X127241009Y-107927913D01*
X127290356Y-107923814D01*
X127348937Y-107916972D01*
X127394555Y-107909367D01*
X127420176Y-107902017D01*
X127424052Y-107899740D01*
X127451356Y-107871872D01*
X127477513Y-107829205D01*
X127497148Y-107781988D01*
X127504887Y-107740469D01*
X127497931Y-107699312D01*
X127472590Y-107643443D01*
X127434511Y-107592404D01*
X127389863Y-107556084D01*
X127382666Y-107552097D01*
X127370525Y-107546056D01*
X127356780Y-107541019D01*
X127339117Y-107536892D01*
X127315221Y-107533585D01*
X127282777Y-107531005D01*
X127239471Y-107529060D01*
X127182988Y-107527658D01*
X127111013Y-107526707D01*
X127021233Y-107526117D01*
X126911332Y-107525793D01*
X126778995Y-107525645D01*
X126621909Y-107525581D01*
X125908084Y-107525358D01*
X125908084Y-106580156D01*
X126703103Y-106586645D01*
G37*
G36*
X130767446Y-107948008D02*
G01*
X130874768Y-107958374D01*
X130887650Y-107959916D01*
X131118240Y-107996412D01*
X131326210Y-108047238D01*
X131512053Y-108112675D01*
X131676263Y-108193004D01*
X131819334Y-108288503D01*
X131941760Y-108399454D01*
X132044034Y-108526137D01*
X132126650Y-108668832D01*
X132141900Y-108701436D01*
X132185139Y-108813651D01*
X132212183Y-108925817D01*
X132224579Y-109046107D01*
X132223873Y-109182697D01*
X132223561Y-109189205D01*
X132206725Y-109342070D01*
X132171109Y-109479050D01*
X132114670Y-109604737D01*
X132035365Y-109723722D01*
X131931152Y-109840595D01*
X131925541Y-109846183D01*
X131850826Y-109915486D01*
X131775843Y-109974086D01*
X131697246Y-110023170D01*
X131611688Y-110063927D01*
X131515823Y-110097544D01*
X131406305Y-110125207D01*
X131279789Y-110148104D01*
X131132926Y-110167423D01*
X130962373Y-110184351D01*
X130787986Y-110196380D01*
X130480645Y-110203235D01*
X130160297Y-110193473D01*
X129832020Y-110167300D01*
X129500892Y-110124922D01*
X129386913Y-110106016D01*
X129172766Y-110063640D01*
X128940993Y-110010057D01*
X128695476Y-109946392D01*
X128440100Y-109873768D01*
X128178746Y-109793309D01*
X127915299Y-109706139D01*
X127653641Y-109613383D01*
X127397655Y-109516163D01*
X127347238Y-109496618D01*
X127299557Y-109478788D01*
X127266698Y-109467276D01*
X127253813Y-109463952D01*
X127249011Y-109473254D01*
X127234153Y-109503467D01*
X127211185Y-109550717D01*
X127182045Y-109611013D01*
X127148671Y-109680366D01*
X127117954Y-109743689D01*
X127086560Y-109805903D01*
X127062756Y-109848885D01*
X127044633Y-109875741D01*
X127030285Y-109889577D01*
X127017806Y-109893499D01*
X127016710Y-109893489D01*
X127008431Y-109892437D01*
X126998643Y-109888579D01*
X126985793Y-109880379D01*
X126968331Y-109866303D01*
X126944706Y-109844817D01*
X126913365Y-109814386D01*
X126872759Y-109773476D01*
X126821334Y-109720553D01*
X126757542Y-109654083D01*
X126679829Y-109572530D01*
X126586644Y-109474361D01*
X126476438Y-109358042D01*
X126409527Y-109287413D01*
X126324920Y-109198175D01*
X126243217Y-109112068D01*
X126167555Y-109032400D01*
X126101075Y-108962476D01*
X126046916Y-108905600D01*
X126008218Y-108865079D01*
X126000740Y-108857243D01*
X125954742Y-108807788D01*
X125916156Y-108764226D01*
X125888837Y-108731025D01*
X125876642Y-108712651D01*
X125875109Y-108687871D01*
X125884204Y-108653715D01*
X125900194Y-108618620D01*
X126666632Y-108623428D01*
X126807974Y-108624306D01*
X126955432Y-108625308D01*
X127079512Y-108626442D01*
X127182229Y-108627915D01*
X127265599Y-108629937D01*
X127331636Y-108632714D01*
X127382357Y-108636455D01*
X127419777Y-108641367D01*
X127445910Y-108647658D01*
X127462773Y-108655535D01*
X127472380Y-108665207D01*
X127476748Y-108676882D01*
X127477890Y-108690767D01*
X127477823Y-108707070D01*
X127474914Y-108732590D01*
X127463032Y-108786498D01*
X127442379Y-108862993D01*
X127413377Y-108960538D01*
X127376445Y-109077594D01*
X127372808Y-109089039D01*
X127365052Y-109119454D01*
X127367522Y-109134244D01*
X127380736Y-109141096D01*
X127556616Y-109191194D01*
X127945389Y-109294617D01*
X128313332Y-109381858D01*
X128660981Y-109453001D01*
X128988875Y-109508130D01*
X129297551Y-109547330D01*
X129587548Y-109570685D01*
X129859403Y-109578280D01*
X130113654Y-109570199D01*
X130124599Y-109569485D01*
X130316469Y-109554552D01*
X130489298Y-109535875D01*
X130650586Y-109512371D01*
X130807830Y-109482955D01*
X130968529Y-109446541D01*
X131046449Y-109427062D01*
X131104506Y-109410945D01*
X131146666Y-109396368D01*
X131178236Y-109381184D01*
X131204526Y-109363247D01*
X131230842Y-109340407D01*
X131268691Y-109298380D01*
X131301094Y-109232963D01*
X131311311Y-109154896D01*
X131308049Y-109110629D01*
X131282092Y-109025818D01*
X131231084Y-108947632D01*
X131156061Y-108877157D01*
X131058056Y-108815475D01*
X130938103Y-108763672D01*
X130917635Y-108755168D01*
X130875308Y-108730494D01*
X130846288Y-108704122D01*
X130839313Y-108693298D01*
X130819464Y-108656444D01*
X130792842Y-108602222D01*
X130761272Y-108534819D01*
X130726579Y-108458425D01*
X130690589Y-108377225D01*
X130655127Y-108295408D01*
X130622020Y-108217161D01*
X130593092Y-108146672D01*
X130570169Y-108088128D01*
X130555076Y-108045718D01*
X130549640Y-108023628D01*
X130549655Y-108021827D01*
X130557523Y-107988941D01*
X130581190Y-107965526D01*
X130622703Y-107951173D01*
X130684106Y-107945470D01*
X130767446Y-107948008D01*
G37*
G36*
X128746549Y-110054745D02*
G01*
X128791512Y-110067204D01*
X128919296Y-110100773D01*
X129029226Y-110126113D01*
X129127000Y-110144173D01*
X129218315Y-110155900D01*
X129308870Y-110162241D01*
X129404363Y-110164144D01*
X129474031Y-110165011D01*
X129526113Y-110168118D01*
X129558174Y-110173865D01*
X129573829Y-110182647D01*
X129578954Y-110189993D01*
X129580313Y-110203880D01*
X129566641Y-110218731D01*
X129534535Y-110237482D01*
X129480593Y-110263069D01*
X129469759Y-110267932D01*
X129427644Y-110286431D01*
X129369304Y-110311730D01*
X129300604Y-110341320D01*
X129227407Y-110372690D01*
X129155581Y-110403330D01*
X129090988Y-110430730D01*
X129039494Y-110452381D01*
X129006965Y-110465771D01*
X128982354Y-110470569D01*
X128946070Y-110471248D01*
X128940493Y-110470665D01*
X128923005Y-110465151D01*
X128904278Y-110452033D01*
X128882267Y-110428670D01*
X128854927Y-110392420D01*
X128820214Y-110340642D01*
X128776080Y-110270695D01*
X128720483Y-110179938D01*
X128697818Y-110141615D01*
X128672505Y-110092276D01*
X128664274Y-110061072D01*
X128673572Y-110045851D01*
X128700847Y-110044460D01*
X128746549Y-110054745D01*
G37*
G36*
X125487509Y-108676086D02*
G01*
X125504548Y-108683192D01*
X125522591Y-108702104D01*
X125545101Y-108737070D01*
X125575538Y-108792340D01*
X125682400Y-108981516D01*
X125843347Y-109227511D01*
X126020515Y-109455387D01*
X126216985Y-109669012D01*
X126435841Y-109872259D01*
X126526434Y-109948509D01*
X126745998Y-110119063D01*
X126970894Y-110274947D01*
X127193646Y-110410848D01*
X127202324Y-110415803D01*
X127234650Y-110434948D01*
X127254541Y-110447797D01*
X127255379Y-110448398D01*
X127275316Y-110460539D01*
X127311252Y-110480957D01*
X127356033Y-110505580D01*
X127423563Y-110541698D01*
X127643327Y-110651895D01*
X127849134Y-110742765D01*
X128043879Y-110815192D01*
X128230458Y-110870063D01*
X128411766Y-110908264D01*
X128590699Y-110930680D01*
X128770151Y-110938197D01*
X128795390Y-110938117D01*
X128994858Y-110927083D01*
X129177323Y-110896992D01*
X129345503Y-110847059D01*
X129502118Y-110776500D01*
X129649887Y-110684530D01*
X129667923Y-110671221D01*
X129742204Y-110608723D01*
X129816588Y-110535656D01*
X129883259Y-110460107D01*
X129934401Y-110390162D01*
X129951437Y-110364825D01*
X129974954Y-110334822D01*
X129990952Y-110320524D01*
X129991989Y-110320232D01*
X130014043Y-110319675D01*
X130056581Y-110321984D01*
X130113935Y-110326766D01*
X130180437Y-110333630D01*
X130247293Y-110340349D01*
X130330600Y-110347001D01*
X130408457Y-110351571D01*
X130470172Y-110353331D01*
X130488353Y-110353437D01*
X130546099Y-110355842D01*
X130585643Y-110363735D01*
X130607919Y-110380193D01*
X130613863Y-110408295D01*
X130604410Y-110451120D01*
X130580494Y-110511745D01*
X130543052Y-110593248D01*
X130537386Y-110605116D01*
X130439591Y-110779177D01*
X130319834Y-110944225D01*
X130181663Y-111096715D01*
X130028624Y-111233104D01*
X129864264Y-111349848D01*
X129692131Y-111443404D01*
X129669978Y-111453411D01*
X129540919Y-111504739D01*
X129397353Y-111552088D01*
X129248632Y-111592846D01*
X129104109Y-111624403D01*
X128973135Y-111644147D01*
X128950621Y-111645965D01*
X128888997Y-111648174D01*
X128809502Y-111648678D01*
X128717753Y-111647660D01*
X128619366Y-111645301D01*
X128519959Y-111641785D01*
X128425147Y-111637295D01*
X128340549Y-111632012D01*
X128271780Y-111626121D01*
X128224458Y-111619802D01*
X128161725Y-111607608D01*
X127885021Y-111540816D01*
X127619476Y-111454213D01*
X127360968Y-111346118D01*
X127105375Y-111214851D01*
X126848574Y-111058730D01*
X126833421Y-111048786D01*
X126791549Y-111020844D01*
X126760841Y-110999655D01*
X126747082Y-110989184D01*
X126744130Y-110986447D01*
X126723854Y-110970887D01*
X126692953Y-110949012D01*
X126640568Y-110911425D01*
X126535209Y-110828368D01*
X126420267Y-110729748D01*
X126299677Y-110619498D01*
X126177373Y-110501554D01*
X126057290Y-110379848D01*
X125943363Y-110258315D01*
X125839527Y-110140890D01*
X125749716Y-110031505D01*
X125677865Y-109934096D01*
X125670024Y-109922739D01*
X125649706Y-109894506D01*
X125637943Y-109879967D01*
X125634652Y-109876079D01*
X125618344Y-109853904D01*
X125592562Y-109817299D01*
X125561167Y-109771709D01*
X125534805Y-109732431D01*
X125476705Y-109641927D01*
X125418502Y-109546458D01*
X125362048Y-109449484D01*
X125309196Y-109354464D01*
X125261798Y-109264858D01*
X125221708Y-109184127D01*
X125190778Y-109115728D01*
X125170862Y-109063122D01*
X125163811Y-109029769D01*
X125166780Y-109012517D01*
X125185709Y-108970950D01*
X125218618Y-108920068D01*
X125261413Y-108864450D01*
X125310001Y-108808675D01*
X125360288Y-108757323D01*
X125408181Y-108714973D01*
X125449586Y-108686205D01*
X125480409Y-108675598D01*
X125487509Y-108676086D01*
G37*
G36*
X125500554Y-111880049D02*
G01*
X125688486Y-111884127D01*
X125739714Y-112028904D01*
X125765957Y-112101053D01*
X125802478Y-112197942D01*
X125845123Y-112308503D01*
X125891576Y-112426886D01*
X125939524Y-112547242D01*
X125986651Y-112663719D01*
X126030643Y-112770469D01*
X126069185Y-112861641D01*
X126073468Y-112871604D01*
X126098737Y-112930847D01*
X126119280Y-112979792D01*
X126133083Y-113013595D01*
X126138132Y-113027411D01*
X126131683Y-113028350D01*
X126101602Y-113029602D01*
X126049797Y-113030713D01*
X125979411Y-113031645D01*
X125893584Y-113032359D01*
X125795460Y-113032816D01*
X125688180Y-113032977D01*
X125238227Y-113032977D01*
X125192669Y-112921336D01*
X125183736Y-112899432D01*
X125163687Y-112850178D01*
X125148347Y-112812357D01*
X125140481Y-112792780D01*
X125141405Y-112788429D01*
X125154116Y-112783410D01*
X125182802Y-112779830D01*
X125230233Y-112777503D01*
X125299180Y-112776243D01*
X125392411Y-112775865D01*
X125469209Y-112775377D01*
X125543849Y-112773714D01*
X125601192Y-112771026D01*
X125637984Y-112767470D01*
X125650972Y-112763206D01*
X125650787Y-112762039D01*
X125644265Y-112742020D01*
X125629469Y-112701282D01*
X125607837Y-112643542D01*
X125580808Y-112572515D01*
X125549821Y-112491918D01*
X125516316Y-112405466D01*
X125481732Y-112316875D01*
X125447507Y-112229862D01*
X125415081Y-112148141D01*
X125385893Y-112075429D01*
X125361382Y-112015442D01*
X125349653Y-111986800D01*
X125330647Y-111938774D01*
X125317537Y-111903428D01*
X125312644Y-111886886D01*
X125314096Y-111885561D01*
X125334693Y-111882250D01*
X125375872Y-111880109D01*
X125432778Y-111879317D01*
X125500554Y-111880049D01*
G37*
G36*
X130916872Y-111885731D02*
G01*
X131093779Y-111889503D01*
X131141273Y-112018060D01*
X131154972Y-112054809D01*
X131181935Y-112126052D01*
X131214446Y-112211025D01*
X131250981Y-112305826D01*
X131290019Y-112406557D01*
X131330035Y-112509318D01*
X131369505Y-112610207D01*
X131406906Y-112705325D01*
X131440715Y-112790772D01*
X131469408Y-112862647D01*
X131491462Y-112917052D01*
X131505352Y-112950084D01*
X131519433Y-112982464D01*
X131532464Y-113013795D01*
X131537493Y-113027895D01*
X131537107Y-113028233D01*
X131520327Y-113030088D01*
X131482387Y-113031595D01*
X131428337Y-113032607D01*
X131363223Y-113032977D01*
X131188954Y-113032977D01*
X131158069Y-112948401D01*
X131157220Y-112946077D01*
X131138253Y-112895143D01*
X131111869Y-112825514D01*
X131079622Y-112741187D01*
X131043065Y-112646161D01*
X131003751Y-112544433D01*
X130963235Y-112440000D01*
X130923070Y-112336860D01*
X130884809Y-112239010D01*
X130850006Y-112150447D01*
X130820215Y-112075168D01*
X130796989Y-112017172D01*
X130781882Y-111980456D01*
X130739965Y-111881958D01*
X130916872Y-111885731D01*
G37*
G36*
X132194150Y-112028209D02*
G01*
X132196314Y-112034334D01*
X132224635Y-112113000D01*
X132258608Y-112205149D01*
X132296565Y-112306462D01*
X132336842Y-112412618D01*
X132377772Y-112519296D01*
X132417690Y-112622177D01*
X132454928Y-112716938D01*
X132487822Y-112799261D01*
X132514704Y-112864824D01*
X132533910Y-112909306D01*
X132540110Y-112923021D01*
X132560162Y-112969092D01*
X132574192Y-113004025D01*
X132579474Y-113021134D01*
X132578091Y-113022572D01*
X132557675Y-113026662D01*
X132516637Y-113029965D01*
X132459848Y-113032173D01*
X132392176Y-113032977D01*
X132204878Y-113032977D01*
X132124938Y-112810319D01*
X132122969Y-112804838D01*
X132093538Y-112724173D01*
X132070832Y-112665461D01*
X132053142Y-112625177D01*
X132038760Y-112599797D01*
X132025977Y-112585796D01*
X132013083Y-112579651D01*
X132008440Y-112578787D01*
X131976924Y-112576226D01*
X131926010Y-112574455D01*
X131861646Y-112573627D01*
X131789777Y-112573895D01*
X131598388Y-112576150D01*
X131550210Y-112456109D01*
X131502033Y-112336067D01*
X131721243Y-112329301D01*
X131940454Y-112322535D01*
X131902826Y-112227809D01*
X131865198Y-112133084D01*
X131603976Y-112132540D01*
X131342755Y-112131997D01*
X131241737Y-111882737D01*
X132142866Y-111882737D01*
X132194150Y-112028209D01*
G37*
G36*
X124077153Y-113016062D02*
G01*
X124077480Y-113019635D01*
X124067674Y-113025999D01*
X124040541Y-113030110D01*
X123992842Y-113032319D01*
X123921343Y-113032977D01*
X123758558Y-113032977D01*
X123726532Y-112935937D01*
X123690750Y-112978335D01*
X123685776Y-112983865D01*
X123645741Y-113016456D01*
X123600838Y-113039793D01*
X123577828Y-113046907D01*
X123484607Y-113057877D01*
X123382649Y-113043326D01*
X123272121Y-113003274D01*
X123233401Y-112980905D01*
X123173821Y-112934698D01*
X123111009Y-112875555D01*
X123050809Y-112809539D01*
X122999064Y-112742713D01*
X122961617Y-112681139D01*
X122954352Y-112666289D01*
X122908469Y-112553002D01*
X122890923Y-112476654D01*
X123252445Y-112476654D01*
X123253208Y-112532214D01*
X123269115Y-112593586D01*
X123297755Y-112655337D01*
X123336715Y-112712034D01*
X123383584Y-112758245D01*
X123435949Y-112788536D01*
X123469265Y-112797987D01*
X123507609Y-112802929D01*
X123531771Y-112797649D01*
X123567780Y-112774790D01*
X123596118Y-112741795D01*
X123607604Y-112707432D01*
X123603593Y-112679237D01*
X123591806Y-112633762D01*
X123574706Y-112579474D01*
X123554782Y-112523358D01*
X123534524Y-112472397D01*
X123516422Y-112433576D01*
X123502965Y-112413877D01*
X123483513Y-112406178D01*
X123442449Y-112399489D01*
X123390600Y-112396962D01*
X123363081Y-112397273D01*
X123321003Y-112400679D01*
X123294209Y-112409423D01*
X123274779Y-112425453D01*
X123269237Y-112432340D01*
X123252445Y-112476654D01*
X122890923Y-112476654D01*
X122885225Y-112451860D01*
X122884547Y-112363506D01*
X122906363Y-112288586D01*
X122950603Y-112227742D01*
X123017195Y-112181620D01*
X123051156Y-112166567D01*
X123089819Y-112155748D01*
X123136467Y-112150617D01*
X123200588Y-112149514D01*
X123217305Y-112149682D01*
X123276506Y-112151598D01*
X123327803Y-112155111D01*
X123361616Y-112159619D01*
X123405117Y-112169173D01*
X123376951Y-112097000D01*
X123366210Y-112070101D01*
X123340530Y-112008575D01*
X123315614Y-111951721D01*
X123301137Y-111918682D01*
X123289213Y-111888542D01*
X123286019Y-111875849D01*
X123286528Y-111875700D01*
X123304178Y-111875458D01*
X123342889Y-111876416D01*
X123397464Y-111878414D01*
X123462707Y-111881292D01*
X123635818Y-111889503D01*
X123748354Y-112187212D01*
X123771386Y-112247819D01*
X123840819Y-112427444D01*
X123917055Y-112620729D01*
X123951861Y-112707432D01*
X123996897Y-112819620D01*
X124077153Y-113016062D01*
G37*
G36*
X124377599Y-112151460D02*
G01*
X124505699Y-112161718D01*
X124644023Y-112181649D01*
X124731980Y-112196966D01*
X124786553Y-112305507D01*
X124806231Y-112343903D01*
X124822845Y-112377993D01*
X124827745Y-112398031D01*
X124817981Y-112405700D01*
X124790600Y-112402687D01*
X124742649Y-112390675D01*
X124671179Y-112371350D01*
X124638812Y-112363212D01*
X124554395Y-112347019D01*
X124482941Y-112340762D01*
X124427009Y-112344118D01*
X124389157Y-112356760D01*
X124371945Y-112378364D01*
X124377931Y-112408605D01*
X124386526Y-112422509D01*
X124402563Y-112438762D01*
X124427144Y-112452501D01*
X124464795Y-112465545D01*
X124520039Y-112479713D01*
X124597401Y-112496823D01*
X124666393Y-112512330D01*
X124765748Y-112538847D01*
X124845611Y-112566876D01*
X124910742Y-112598197D01*
X124965900Y-112634589D01*
X125023504Y-112688528D01*
X125069905Y-112754988D01*
X125097802Y-112824902D01*
X125105230Y-112893214D01*
X125090225Y-112954865D01*
X125062949Y-112996033D01*
X125021080Y-113025891D01*
X124959191Y-113046476D01*
X124950996Y-113048257D01*
X124886365Y-113055724D01*
X124814609Y-113055784D01*
X124752175Y-113048291D01*
X124743234Y-113045749D01*
X124717401Y-113030182D01*
X124689080Y-112999073D01*
X124653845Y-112947905D01*
X124595016Y-112856067D01*
X124660505Y-112864755D01*
X124692521Y-112867872D01*
X124725825Y-112865068D01*
X124747481Y-112851956D01*
X124760875Y-112828345D01*
X124757730Y-112792395D01*
X124732552Y-112757170D01*
X124727165Y-112753430D01*
X124699900Y-112740160D01*
X124658100Y-112723059D01*
X124608369Y-112704459D01*
X124557311Y-112686692D01*
X124511527Y-112672089D01*
X124477622Y-112662982D01*
X124462199Y-112661704D01*
X124462402Y-112664747D01*
X124469486Y-112687660D01*
X124484413Y-112729135D01*
X124505530Y-112784665D01*
X124531185Y-112849744D01*
X124604872Y-113033755D01*
X124436251Y-113029983D01*
X124267629Y-113026211D01*
X124249549Y-112978848D01*
X124245595Y-112968604D01*
X124231103Y-112931489D01*
X124209186Y-112875652D01*
X124181533Y-112805378D01*
X124149827Y-112724954D01*
X124115754Y-112638665D01*
X124097807Y-112592762D01*
X124066442Y-112510015D01*
X124039546Y-112435786D01*
X124018556Y-112374211D01*
X124004908Y-112329426D01*
X124000039Y-112305567D01*
X124000503Y-112296896D01*
X124016307Y-112249681D01*
X124049105Y-112206980D01*
X124091410Y-112179149D01*
X124092108Y-112178885D01*
X124167058Y-112160026D01*
X124263470Y-112150890D01*
X124377599Y-112151460D01*
G37*
G36*
X130894847Y-112843903D02*
G01*
X130864015Y-112918469D01*
X130811493Y-112976875D01*
X130737340Y-113019056D01*
X130641615Y-113044947D01*
X130635745Y-113045919D01*
X130574583Y-113054737D01*
X130526009Y-113057619D01*
X130477248Y-113054612D01*
X130415525Y-113045761D01*
X130326552Y-113026689D01*
X130195901Y-112978652D01*
X130082146Y-112909927D01*
X129986122Y-112821193D01*
X129908665Y-112713128D01*
X129850608Y-112586413D01*
X129837302Y-112543842D01*
X129831772Y-112509092D01*
X130178949Y-112509092D01*
X130179117Y-112513791D01*
X130193482Y-112587912D01*
X130226768Y-112660006D01*
X130274372Y-112723814D01*
X130331688Y-112773079D01*
X130394112Y-112801541D01*
X130433115Y-112810907D01*
X130460051Y-112814502D01*
X130480484Y-112811027D01*
X130504697Y-112800375D01*
X130516155Y-112793898D01*
X130546696Y-112758439D01*
X130556249Y-112706344D01*
X130544688Y-112638126D01*
X130537585Y-112616134D01*
X130500978Y-112539967D01*
X130451834Y-112477028D01*
X130394126Y-112430724D01*
X130331827Y-112404460D01*
X130268911Y-112401645D01*
X130253765Y-112404556D01*
X130208892Y-112423351D01*
X130185075Y-112456856D01*
X130178949Y-112509092D01*
X129831772Y-112509092D01*
X129821871Y-112446883D01*
X129830252Y-112361684D01*
X129861544Y-112289373D01*
X129914846Y-112231080D01*
X129989258Y-112187933D01*
X130083876Y-112161059D01*
X130197802Y-112151589D01*
X130247099Y-112152584D01*
X130341211Y-112163246D01*
X130431464Y-112187728D01*
X130529341Y-112228702D01*
X130609112Y-112273131D01*
X130707011Y-112349158D01*
X130787973Y-112438788D01*
X130849470Y-112538474D01*
X130888970Y-112644669D01*
X130897430Y-112706344D01*
X130903942Y-112753824D01*
X130894847Y-112843903D01*
G37*
G36*
X128677627Y-112881229D02*
G01*
X128723958Y-112998152D01*
X128769063Y-113110946D01*
X128810973Y-113214621D01*
X128847719Y-113304190D01*
X128877331Y-113374666D01*
X128899071Y-113425412D01*
X128550972Y-113425412D01*
X128465529Y-113194969D01*
X128439173Y-113125103D01*
X128414224Y-113061435D01*
X128393629Y-113011467D01*
X128379005Y-112979118D01*
X128371968Y-112968304D01*
X128357405Y-112975440D01*
X128325393Y-112991324D01*
X128283223Y-113012343D01*
X128256765Y-113025024D01*
X128210708Y-113042248D01*
X128164487Y-113050173D01*
X128104760Y-113051745D01*
X128021077Y-113043479D01*
X127928678Y-113013352D01*
X127840315Y-112959605D01*
X127752589Y-112880586D01*
X127686630Y-112802497D01*
X127628361Y-112711334D01*
X127585664Y-112618023D01*
X127558893Y-112525752D01*
X127556849Y-112508603D01*
X127897619Y-112508603D01*
X127899443Y-112536158D01*
X127920283Y-112613308D01*
X127960485Y-112686558D01*
X128015167Y-112748325D01*
X128079447Y-112791025D01*
X128109316Y-112804097D01*
X128138892Y-112813045D01*
X128164228Y-112811737D01*
X128197051Y-112801187D01*
X128234074Y-112777442D01*
X128254605Y-112737030D01*
X128256747Y-112679647D01*
X128240531Y-112604303D01*
X128205987Y-112510008D01*
X128203502Y-112504104D01*
X128180516Y-112453752D01*
X128158637Y-112422375D01*
X128130828Y-112405479D01*
X128090048Y-112398567D01*
X128029261Y-112397147D01*
X127967184Y-112402604D01*
X127926265Y-112421258D01*
X127904104Y-112455721D01*
X127897619Y-112508603D01*
X127556849Y-112508603D01*
X127548400Y-112437709D01*
X127554539Y-112357084D01*
X127577663Y-112287063D01*
X127618125Y-112230837D01*
X127676279Y-112191594D01*
X127710336Y-112179426D01*
X127779464Y-112163491D01*
X127860070Y-112152205D01*
X127942756Y-112146757D01*
X128018123Y-112148337D01*
X128019214Y-112148424D01*
X128117317Y-112156732D01*
X128207070Y-112165179D01*
X128284743Y-112173348D01*
X128346609Y-112180820D01*
X128388939Y-112187179D01*
X128408003Y-112192006D01*
X128414071Y-112201377D01*
X128428552Y-112232962D01*
X128448780Y-112282394D01*
X128472976Y-112345289D01*
X128499363Y-112417260D01*
X128519423Y-112471980D01*
X128550968Y-112555550D01*
X128589163Y-112654940D01*
X128598774Y-112679647D01*
X128632039Y-112765162D01*
X128677627Y-112881229D01*
G37*
G36*
X129827050Y-112914781D02*
G01*
X129869278Y-113019445D01*
X129880780Y-113047503D01*
X129915325Y-113131821D01*
X129947362Y-113210091D01*
X129974952Y-113277564D01*
X129996151Y-113329495D01*
X130009018Y-113361134D01*
X130035020Y-113425412D01*
X129688560Y-113425412D01*
X129603339Y-113194748D01*
X129576990Y-113124754D01*
X129552020Y-113061082D01*
X129531339Y-113011137D01*
X129516570Y-112978833D01*
X129509337Y-112968083D01*
X129494491Y-112975307D01*
X129462227Y-112991276D01*
X129419931Y-113012343D01*
X129393472Y-113025024D01*
X129347416Y-113042248D01*
X129301195Y-113050173D01*
X129241467Y-113051745D01*
X129216741Y-113051255D01*
X129161165Y-113046168D01*
X129112575Y-113032880D01*
X129056405Y-113007945D01*
X129011220Y-112982622D01*
X128925688Y-112916948D01*
X128849359Y-112835385D01*
X128784765Y-112742534D01*
X128734439Y-112642996D01*
X128700913Y-112541371D01*
X128696221Y-112508603D01*
X129034327Y-112508603D01*
X129036150Y-112536158D01*
X129056990Y-112613308D01*
X129097192Y-112686558D01*
X129151875Y-112748325D01*
X129216155Y-112791025D01*
X129231577Y-112797830D01*
X129273756Y-112812118D01*
X129306716Y-112812705D01*
X129340925Y-112800375D01*
X129347432Y-112796793D01*
X129378105Y-112763478D01*
X129394244Y-112714547D01*
X129393043Y-112657683D01*
X129392649Y-112655613D01*
X129380816Y-112610557D01*
X129362473Y-112557894D01*
X129340545Y-112504308D01*
X129317954Y-112456485D01*
X129297626Y-112421112D01*
X129282484Y-112404875D01*
X129263118Y-112401225D01*
X129223645Y-112398145D01*
X129175011Y-112396962D01*
X129157774Y-112397199D01*
X129098312Y-112404330D01*
X129060236Y-112423435D01*
X129040067Y-112457272D01*
X129034327Y-112508603D01*
X128696221Y-112508603D01*
X128686720Y-112442260D01*
X128694392Y-112350264D01*
X128694571Y-112349469D01*
X128717602Y-112283538D01*
X128754909Y-112232234D01*
X128808743Y-112194428D01*
X128881356Y-112168990D01*
X128974999Y-112154790D01*
X129091922Y-112150697D01*
X129123159Y-112151140D01*
X129194192Y-112153768D01*
X129270666Y-112158299D01*
X129347165Y-112164238D01*
X129418275Y-112171090D01*
X129478584Y-112178359D01*
X129522677Y-112185550D01*
X129545141Y-112192168D01*
X129547047Y-112194447D01*
X129558220Y-112216857D01*
X129576371Y-112259622D01*
X129599950Y-112318875D01*
X129627405Y-112390752D01*
X129657187Y-112471389D01*
X129689077Y-112557733D01*
X129733048Y-112673844D01*
X129748778Y-112714547D01*
X129780340Y-112796220D01*
X129827050Y-112914781D01*
G37*
G36*
X126739429Y-112266617D02*
G01*
X126747719Y-112277906D01*
X126786044Y-112331288D01*
X126832826Y-112397792D01*
X126882903Y-112470037D01*
X126931111Y-112540645D01*
X126935830Y-112547617D01*
X126985261Y-112620383D01*
X127021564Y-112672923D01*
X127046478Y-112707358D01*
X127061740Y-112725809D01*
X127069087Y-112730396D01*
X127070258Y-112723240D01*
X127066991Y-112706462D01*
X127062714Y-112679605D01*
X127057182Y-112632321D01*
X127051133Y-112571382D01*
X127045280Y-112503478D01*
X127040167Y-112439946D01*
X127034077Y-112365524D01*
X127028584Y-112299630D01*
X127024451Y-112251491D01*
X127016973Y-112166914D01*
X127356033Y-112166914D01*
X127357389Y-112488305D01*
X127357616Y-112527910D01*
X127358677Y-112628410D01*
X127360335Y-112725998D01*
X127362455Y-112814635D01*
X127364901Y-112888284D01*
X127367538Y-112940906D01*
X127368287Y-112952002D01*
X127372830Y-113009642D01*
X127378454Y-113048397D01*
X127387348Y-113075314D01*
X127401699Y-113097440D01*
X127423694Y-113121822D01*
X127477639Y-113167817D01*
X127549301Y-113201154D01*
X127625101Y-113208135D01*
X127703617Y-113188420D01*
X127713862Y-113184240D01*
X127742414Y-113173898D01*
X127755097Y-113171505D01*
X127755736Y-113172708D01*
X127761322Y-113193071D01*
X127769035Y-113230697D01*
X127777657Y-113278280D01*
X127785970Y-113328517D01*
X127792757Y-113374104D01*
X127796800Y-113407735D01*
X127796880Y-113422107D01*
X127786288Y-113426004D01*
X127755067Y-113432425D01*
X127711777Y-113438902D01*
X127656191Y-113445678D01*
X127612866Y-113449148D01*
X127577241Y-113448361D01*
X127539395Y-113443050D01*
X127489407Y-113432950D01*
X127402882Y-113409172D01*
X127312747Y-113367262D01*
X127233078Y-113307725D01*
X127229631Y-113304457D01*
X127204374Y-113277038D01*
X127165953Y-113231964D01*
X127116993Y-113172458D01*
X127060118Y-113101740D01*
X126997955Y-113023033D01*
X126933127Y-112939558D01*
X126872488Y-112860934D01*
X126794510Y-112760125D01*
X126715253Y-112657943D01*
X126639155Y-112560098D01*
X126570652Y-112472305D01*
X126514183Y-112400274D01*
X126499539Y-112381639D01*
X126449117Y-112317081D01*
X126405584Y-112260753D01*
X126371421Y-112215901D01*
X126349105Y-112185771D01*
X126341115Y-112173610D01*
X126341123Y-112173544D01*
X126354363Y-112170967D01*
X126389311Y-112168859D01*
X126440736Y-112167436D01*
X126503405Y-112166914D01*
X126665695Y-112166914D01*
X126739429Y-112266617D01*
G37*
D12*
%TO.C,R3*%
X134266000Y-107579936D02*
X134266000Y-108034064D01*
X135736000Y-107579936D02*
X135736000Y-108034064D01*
%TO.C,R6*%
X123725000Y-102245936D02*
X123725000Y-102700064D01*
X125195000Y-102245936D02*
X125195000Y-102700064D01*
%TO.C,R4*%
X138149000Y-107579936D02*
X138149000Y-108034064D01*
X136679000Y-107579936D02*
X136679000Y-108034064D01*
%TO.C,J2*%
X114995000Y-120075000D02*
X112335000Y-120075000D01*
X112335000Y-92015000D02*
X112335000Y-93345000D01*
X114995000Y-94615000D02*
X114995000Y-120075000D01*
X113665000Y-92015000D02*
X112335000Y-92015000D01*
X112335000Y-94615000D02*
X112335000Y-120075000D01*
X114995000Y-94615000D02*
X112335000Y-94615000D01*
%TO.C,R5*%
X122782000Y-102245936D02*
X122782000Y-102700064D01*
X121312000Y-102245936D02*
X121312000Y-102700064D01*
%TO.C,J3*%
X142300000Y-120075000D02*
X139640000Y-120075000D01*
X140970000Y-92015000D02*
X139640000Y-92015000D01*
X142300000Y-94615000D02*
X139640000Y-94615000D01*
X139640000Y-94615000D02*
X139640000Y-120075000D01*
X142300000Y-94615000D02*
X142300000Y-120075000D01*
X139640000Y-92015000D02*
X139640000Y-93345000D01*
%TD*%
M02*
