%TF.GenerationSoftware,KiCad,Pcbnew,(6.0.0)*%
%TF.CreationDate,2022-04-08T13:22:09+02:00*%
%TF.ProjectId,STM32G030F6P6,53544d33-3247-4303-9330-463650362e6b,rev?*%
%TF.SameCoordinates,Original*%
%TF.FileFunction,Copper,L1,Top*%
%TF.FilePolarity,Positive*%
%FSLAX46Y46*%
G04 Gerber Fmt 4.6, Leading zero omitted, Abs format (unit mm)*
G04 Created by KiCad (PCBNEW (6.0.0)) date 2022-04-08 13:22:09*
%MOMM*%
%LPD*%
G01*
G04 APERTURE LIST*
G04 Aperture macros list*
%AMRoundRect*
0 Rectangle with rounded corners*
0 $1 Rounding radius*
0 $2 $3 $4 $5 $6 $7 $8 $9 X,Y pos of 4 corners*
0 Add a 4 corners polygon primitive as box body*
4,1,4,$2,$3,$4,$5,$6,$7,$8,$9,$2,$3,0*
0 Add four circle primitives for the rounded corners*
1,1,$1+$1,$2,$3*
1,1,$1+$1,$4,$5*
1,1,$1+$1,$6,$7*
1,1,$1+$1,$8,$9*
0 Add four rect primitives between the rounded corners*
20,1,$1+$1,$2,$3,$4,$5,0*
20,1,$1+$1,$4,$5,$6,$7,0*
20,1,$1+$1,$6,$7,$8,$9,0*
20,1,$1+$1,$8,$9,$2,$3,0*%
G04 Aperture macros list end*
%TA.AperFunction,SMDPad,CuDef*%
%ADD10R,1.100000X1.100000*%
%TD*%
%TA.AperFunction,SMDPad,CuDef*%
%ADD11RoundRect,0.250000X0.450000X-0.325000X0.450000X0.325000X-0.450000X0.325000X-0.450000X-0.325000X0*%
%TD*%
%TA.AperFunction,SMDPad,CuDef*%
%ADD12RoundRect,0.250000X0.350000X0.450000X-0.350000X0.450000X-0.350000X-0.450000X0.350000X-0.450000X0*%
%TD*%
%TA.AperFunction,SMDPad,CuDef*%
%ADD13RoundRect,0.250000X-0.450000X0.350000X-0.450000X-0.350000X0.450000X-0.350000X0.450000X0.350000X0*%
%TD*%
%TA.AperFunction,SMDPad,CuDef*%
%ADD14RoundRect,0.150000X-0.587500X-0.150000X0.587500X-0.150000X0.587500X0.150000X-0.587500X0.150000X0*%
%TD*%
%TA.AperFunction,SMDPad,CuDef*%
%ADD15RoundRect,0.250000X-0.337500X-0.475000X0.337500X-0.475000X0.337500X0.475000X-0.337500X0.475000X0*%
%TD*%
%TA.AperFunction,ComponentPad*%
%ADD16R,1.700000X1.700000*%
%TD*%
%TA.AperFunction,ComponentPad*%
%ADD17O,1.700000X1.700000*%
%TD*%
%TA.AperFunction,SMDPad,CuDef*%
%ADD18RoundRect,0.250000X-0.475000X0.337500X-0.475000X-0.337500X0.475000X-0.337500X0.475000X0.337500X0*%
%TD*%
%TA.AperFunction,ComponentPad*%
%ADD19C,2.000000*%
%TD*%
%TA.AperFunction,SMDPad,CuDef*%
%ADD20RoundRect,0.250000X0.475000X-0.337500X0.475000X0.337500X-0.475000X0.337500X-0.475000X-0.337500X0*%
%TD*%
%TA.AperFunction,SMDPad,CuDef*%
%ADD21RoundRect,0.250000X0.325000X0.450000X-0.325000X0.450000X-0.325000X-0.450000X0.325000X-0.450000X0*%
%TD*%
%TA.AperFunction,SMDPad,CuDef*%
%ADD22RoundRect,0.100000X-0.637500X-0.100000X0.637500X-0.100000X0.637500X0.100000X-0.637500X0.100000X0*%
%TD*%
%TA.AperFunction,SMDPad,CuDef*%
%ADD23RoundRect,0.250000X0.337500X0.475000X-0.337500X0.475000X-0.337500X-0.475000X0.337500X-0.475000X0*%
%TD*%
%TA.AperFunction,ViaPad*%
%ADD24C,0.800000*%
%TD*%
%TA.AperFunction,ViaPad*%
%ADD25C,4.000000*%
%TD*%
%TA.AperFunction,Conductor*%
%ADD26C,0.300000*%
%TD*%
%TA.AperFunction,Conductor*%
%ADD27C,1.000000*%
%TD*%
G04 APERTURE END LIST*
D10*
%TO.P,D4,1,K*%
%TO.N,VDD*%
X126873000Y-94488000D03*
%TO.P,D4,2,A*%
%TO.N,+3V3*%
X126873000Y-97288000D03*
%TD*%
D11*
%TO.P,D1,1,K*%
%TO.N,Net-(D1-Pad1)*%
X129565000Y-99695000D03*
%TO.P,D1,2,A*%
%TO.N,+3V3*%
X129565000Y-97645000D03*
%TD*%
D10*
%TO.P,D3,1,K*%
%TO.N,Net-(C1-Pad1)*%
X138173000Y-90678000D03*
%TO.P,D3,2,A*%
%TO.N,VIN*%
X140973000Y-90678000D03*
%TD*%
D12*
%TO.P,R2,1*%
%TO.N,Net-(D2-Pad1)*%
X127730000Y-115316000D03*
%TO.P,R2,2*%
%TO.N,GND*%
X125730000Y-115316000D03*
%TD*%
D13*
%TO.P,R1,1*%
%TO.N,GND*%
X132740000Y-97695000D03*
%TO.P,R1,2*%
%TO.N,Net-(D1-Pad1)*%
X132740000Y-99695000D03*
%TD*%
D14*
%TO.P,U1,3,VIN*%
%TO.N,Net-(C1-Pad1)*%
X134010000Y-93345000D03*
%TO.P,U1,2,VOUT*%
%TO.N,+3V3*%
X132135000Y-94295000D03*
%TO.P,U1,1,GND*%
%TO.N,GND*%
X132135000Y-92395000D03*
%TD*%
D15*
%TO.P,C2,1*%
%TO.N,+3V3*%
X128524000Y-102108000D03*
%TO.P,C2,2*%
%TO.N,GND*%
X130599000Y-102108000D03*
%TD*%
D16*
%TO.P,JP1,1,A*%
%TO.N,PC15*%
X119380000Y-118110000D03*
D17*
%TO.P,JP1,2,B*%
%TO.N,Net-(D2-Pad2)*%
X121920000Y-118110000D03*
%TD*%
D18*
%TO.P,C1,1*%
%TO.N,Net-(C1-Pad1)*%
X136144000Y-93345000D03*
%TO.P,C1,2*%
%TO.N,GND*%
X136144000Y-95420000D03*
%TD*%
D15*
%TO.P,C5,1*%
%TO.N,+3V3*%
X128524000Y-104394000D03*
%TO.P,C5,2*%
%TO.N,GND*%
X130599000Y-104394000D03*
%TD*%
D19*
%TO.P,SW1,1,1*%
%TO.N,GND*%
X119670000Y-97865000D03*
X119670000Y-91365000D03*
%TO.P,SW1,2,2*%
%TO.N,NRST*%
X124170000Y-97865000D03*
X124170000Y-91365000D03*
%TD*%
D20*
%TO.P,C4,1*%
%TO.N,+3V3*%
X129565000Y-94382500D03*
%TO.P,C4,2*%
%TO.N,GND*%
X129565000Y-92307500D03*
%TD*%
D21*
%TO.P,D2,1,K*%
%TO.N,Net-(D2-Pad1)*%
X127780000Y-118110000D03*
%TO.P,D2,2,A*%
%TO.N,Net-(D2-Pad2)*%
X125730000Y-118110000D03*
%TD*%
D17*
%TO.P,J1,5,Pin_5*%
%TO.N,NRST*%
X127025000Y-87655000D03*
%TO.P,J1,4,Pin_4*%
%TO.N,PA13{slash}SWDIO*%
X129565000Y-87655000D03*
%TO.P,J1,3,Pin_3*%
%TO.N,GND*%
X132105000Y-87655000D03*
%TO.P,J1,2,Pin_2*%
%TO.N,PA14{slash}SWCLK*%
X134645000Y-87655000D03*
D16*
%TO.P,J1,1,Pin_1*%
%TO.N,+3V3*%
X137185000Y-87655000D03*
%TD*%
D22*
%TO.P,U2,1,PB7*%
%TO.N,PB7*%
X126665000Y-106146500D03*
%TO.P,U2,2,PC14*%
%TO.N,PC14*%
X126665000Y-106796500D03*
%TO.P,U2,3,PC15*%
%TO.N,PC15*%
X126665000Y-107446500D03*
%TO.P,U2,4,VDD/VDDA*%
%TO.N,+3V3*%
X126665000Y-108096500D03*
%TO.P,U2,5,VSS/VSSA*%
%TO.N,GND*%
X126665000Y-108746500D03*
%TO.P,U2,6,NRST*%
%TO.N,NRST*%
X126665000Y-109396500D03*
%TO.P,U2,7,PA0*%
%TO.N,PA0*%
X126665000Y-110046500D03*
%TO.P,U2,8,PA1*%
%TO.N,PA1*%
X126665000Y-110696500D03*
%TO.P,U2,9,PA2*%
%TO.N,PA2*%
X126665000Y-111346500D03*
%TO.P,U2,10,PA3*%
%TO.N,PA3*%
X126665000Y-111996500D03*
%TO.P,U2,11,PA4*%
%TO.N,PA4*%
X132390000Y-111996500D03*
%TO.P,U2,12,PA5*%
%TO.N,PA5*%
X132390000Y-111346500D03*
%TO.P,U2,13,PA6*%
%TO.N,PA6*%
X132390000Y-110696500D03*
%TO.P,U2,14,PA7*%
%TO.N,PA7*%
X132390000Y-110046500D03*
%TO.P,U2,15,PB0*%
%TO.N,PB0*%
X132390000Y-109396500D03*
%TO.P,U2,16,PA11*%
%TO.N,PA11*%
X132390000Y-108746500D03*
%TO.P,U2,17,PA12*%
%TO.N,PA12*%
X132390000Y-108096500D03*
%TO.P,U2,18,PA13/SWDIO*%
%TO.N,PA13{slash}SWDIO*%
X132390000Y-107446500D03*
%TO.P,U2,19,PA14/SWCLK*%
%TO.N,PA14{slash}SWCLK*%
X132390000Y-106796500D03*
%TO.P,U2,20,PB3*%
%TO.N,PB3*%
X132390000Y-106146500D03*
%TD*%
D23*
%TO.P,C3,1*%
%TO.N,NRST*%
X122957500Y-88265000D03*
%TO.P,C3,2*%
%TO.N,GND*%
X120882500Y-88265000D03*
%TD*%
D16*
%TO.P,J2,1,Pin_1*%
%TO.N,VDD*%
X113665000Y-93345000D03*
D17*
%TO.P,J2,2,Pin_2*%
%TO.N,GND*%
X113665000Y-95885000D03*
%TO.P,J2,3,Pin_3*%
%TO.N,NRST*%
X113665000Y-98425000D03*
%TO.P,J2,4,Pin_4*%
%TO.N,PB7*%
X113665000Y-100965000D03*
%TO.P,J2,5,Pin_5*%
%TO.N,PC14*%
X113665000Y-103505000D03*
%TO.P,J2,6,Pin_6*%
%TO.N,PC15*%
X113665000Y-106045000D03*
%TO.P,J2,7,Pin_7*%
%TO.N,PA0*%
X113665000Y-108585000D03*
%TO.P,J2,8,Pin_8*%
%TO.N,PA1*%
X113665000Y-111125000D03*
%TO.P,J2,9,Pin_9*%
%TO.N,PA2*%
X113665000Y-113665000D03*
%TO.P,J2,10,Pin_10*%
%TO.N,PA3*%
X113665000Y-116205000D03*
%TO.P,J2,11,Pin_11*%
%TO.N,PA4*%
X113665000Y-118745000D03*
%TD*%
D16*
%TO.P,J3,1,Pin_1*%
%TO.N,VIN*%
X140970000Y-93345000D03*
D17*
%TO.P,J3,2,Pin_2*%
%TO.N,GND*%
X140970000Y-95885000D03*
%TO.P,J3,3,Pin_3*%
%TO.N,PB3*%
X140970000Y-98425000D03*
%TO.P,J3,4,Pin_4*%
%TO.N,PA14{slash}SWCLK*%
X140970000Y-100965000D03*
%TO.P,J3,5,Pin_5*%
%TO.N,PA13{slash}SWDIO*%
X140970000Y-103505000D03*
%TO.P,J3,6,Pin_6*%
%TO.N,PA12*%
X140970000Y-106045000D03*
%TO.P,J3,7,Pin_7*%
%TO.N,PA11*%
X140970000Y-108585000D03*
%TO.P,J3,8,Pin_8*%
%TO.N,PB0*%
X140970000Y-111125000D03*
%TO.P,J3,9,Pin_9*%
%TO.N,PA7*%
X140970000Y-113665000D03*
%TO.P,J3,10,Pin_10*%
%TO.N,PA6*%
X140970000Y-116205000D03*
%TO.P,J3,11,Pin_11*%
%TO.N,PA5*%
X140970000Y-118745000D03*
%TD*%
D24*
%TO.N,GND*%
X138232511Y-112324511D03*
X138938000Y-104267000D03*
D25*
X135128000Y-117856000D03*
X115443000Y-88773000D03*
D24*
X124206000Y-115316000D03*
X136271000Y-100965000D03*
X127783500Y-92307500D03*
%TO.N,+3V3*%
X125984000Y-101473000D03*
%TD*%
D26*
%TO.N,+3V3*%
X128400500Y-93218000D02*
X129565000Y-94382500D01*
X127492598Y-93218000D02*
X128400500Y-93218000D01*
X128224511Y-89580489D02*
X126746000Y-91059000D01*
X128224511Y-87299123D02*
X128224511Y-89580489D01*
X129068145Y-86455489D02*
X128224511Y-87299123D01*
X135985489Y-86455489D02*
X129068145Y-86455489D01*
X126746000Y-91059000D02*
X126746000Y-92471402D01*
X137185000Y-87655000D02*
X135985489Y-86455489D01*
X126746000Y-92471402D02*
X127492598Y-93218000D01*
D27*
%TO.N,VDD*%
X113665000Y-93345000D02*
X114808000Y-94488000D01*
X114808000Y-94488000D02*
X126873000Y-94488000D01*
%TO.N,+3V3*%
X126873000Y-98171000D02*
X127254000Y-98552000D01*
X126873000Y-97288000D02*
X126873000Y-98171000D01*
X128778000Y-97028000D02*
X128518000Y-97288000D01*
X128518000Y-97288000D02*
X126873000Y-97288000D01*
X127759000Y-98047000D02*
X127254000Y-98552000D01*
%TO.N,VDD*%
X113668000Y-93342000D02*
X113665000Y-93345000D01*
%TO.N,VIN*%
X140970000Y-93345000D02*
X140970000Y-90681000D01*
X140970000Y-90681000D02*
X140973000Y-90678000D01*
%TO.N,GND*%
X130599000Y-102108000D02*
X131318000Y-102108000D01*
X134874000Y-100330000D02*
X134874000Y-98552000D01*
X130958500Y-92307500D02*
X132135000Y-91131000D01*
X133886500Y-96548500D02*
X132740000Y-97695000D01*
D26*
X126665000Y-108746500D02*
X127444645Y-108746500D01*
D27*
X129565000Y-92307500D02*
X130958500Y-92307500D01*
X134874000Y-98552000D02*
X134017000Y-97695000D01*
X125730000Y-115316000D02*
X124206000Y-115316000D01*
X132047500Y-92307500D02*
X132135000Y-92395000D01*
X130599000Y-103081000D02*
X131318000Y-102362000D01*
X129565000Y-92307500D02*
X127783500Y-92307500D01*
X132135000Y-90987000D02*
X132135000Y-87685000D01*
X120882500Y-88265000D02*
X120882500Y-90152500D01*
X137185000Y-95420000D02*
X135015000Y-95420000D01*
X130958500Y-92307500D02*
X132047500Y-92307500D01*
X132135000Y-92395000D02*
X132135000Y-90987000D01*
X130599000Y-102108000D02*
X130599000Y-103081000D01*
X140505000Y-95420000D02*
X140970000Y-95885000D01*
D26*
X130599000Y-105592145D02*
X130599000Y-104394000D01*
D27*
X120882500Y-90152500D02*
X119670000Y-91365000D01*
X134017000Y-97695000D02*
X132740000Y-97695000D01*
X132135000Y-91131000D02*
X132135000Y-90987000D01*
X134017000Y-97695000D02*
X134017000Y-96679000D01*
X130599000Y-103081000D02*
X130599000Y-104394000D01*
X134874000Y-100330000D02*
X135636000Y-100330000D01*
X131318000Y-102362000D02*
X131318000Y-102108000D01*
X132135000Y-87685000D02*
X132105000Y-87655000D01*
X134017000Y-96679000D02*
X133886500Y-96548500D01*
X133096000Y-102108000D02*
X134874000Y-100330000D01*
X135015000Y-95420000D02*
X133886500Y-96548500D01*
X131318000Y-102108000D02*
X133096000Y-102108000D01*
X135636000Y-100330000D02*
X136271000Y-100965000D01*
X137185000Y-95420000D02*
X140505000Y-95420000D01*
D26*
X127444645Y-108746500D02*
X130599000Y-105592145D01*
D27*
%TO.N,+3V3*%
X129565000Y-97645000D02*
X129565000Y-96749000D01*
X127254000Y-98552000D02*
X128161000Y-97645000D01*
X127254000Y-100838000D02*
X127254000Y-98552000D01*
X128524000Y-102108000D02*
X127254000Y-100838000D01*
X127254000Y-100838000D02*
X126619000Y-101473000D01*
X132135000Y-94295000D02*
X130617000Y-94295000D01*
X128524000Y-102108000D02*
X128524000Y-104394000D01*
X130617000Y-94477000D02*
X129565000Y-95529000D01*
X128161000Y-97645000D02*
X128778000Y-97028000D01*
X129565000Y-96037000D02*
X129565000Y-96241000D01*
X126619000Y-101473000D02*
X125984000Y-101473000D01*
X129057000Y-96749000D02*
X129565000Y-96749000D01*
D26*
X126665000Y-108096500D02*
X127388217Y-108096500D01*
D27*
X130617000Y-94295000D02*
X130617000Y-94477000D01*
D26*
X127388217Y-108096500D02*
X128524000Y-106960717D01*
D27*
X128161000Y-97645000D02*
X129565000Y-97645000D01*
X129652500Y-94295000D02*
X129565000Y-94382500D01*
X129565000Y-96037000D02*
X129565000Y-95529000D01*
X129565000Y-96241000D02*
X128778000Y-97028000D01*
X129565000Y-96749000D02*
X129565000Y-96037000D01*
X128778000Y-97028000D02*
X129057000Y-96749000D01*
X129565000Y-95529000D02*
X129565000Y-94382500D01*
X130617000Y-94295000D02*
X129652500Y-94295000D01*
D26*
X128524000Y-106960717D02*
X128524000Y-104394000D01*
%TO.N,NRST*%
X112268000Y-106344366D02*
X112268000Y-99822000D01*
D27*
X115189000Y-98425000D02*
X113665000Y-98425000D01*
X122213000Y-99822000D02*
X116586000Y-99822000D01*
X122957500Y-88265000D02*
X122957500Y-89175500D01*
X122957500Y-90152500D02*
X124170000Y-91365000D01*
X124079000Y-88265000D02*
X126415000Y-88265000D01*
X126415000Y-88265000D02*
X127025000Y-87655000D01*
X122957500Y-88265000D02*
X124079000Y-88265000D01*
D26*
X113168145Y-107244511D02*
X112268000Y-106344366D01*
X126665000Y-109396500D02*
X116313844Y-109396500D01*
X116313844Y-109396500D02*
X114161855Y-107244511D01*
D27*
X124170000Y-97865000D02*
X122213000Y-99822000D01*
X122957500Y-89175500D02*
X122957500Y-90152500D01*
X124079000Y-88265000D02*
X123868000Y-88265000D01*
X116586000Y-99822000D02*
X115189000Y-98425000D01*
D26*
X112268000Y-99822000D02*
X113665000Y-98425000D01*
X114161855Y-107244511D02*
X113168145Y-107244511D01*
D27*
X123868000Y-88265000D02*
X122957500Y-89175500D01*
%TO.N,Net-(D1-Pad1)*%
X132740000Y-99695000D02*
X129565000Y-99695000D01*
%TO.N,Net-(D2-Pad1)*%
X127780000Y-118110000D02*
X127780000Y-115366000D01*
X127780000Y-115366000D02*
X127730000Y-115316000D01*
%TO.N,Net-(D2-Pad2)*%
X125730000Y-118110000D02*
X121920000Y-118110000D01*
D26*
%TO.N,PA14{slash}SWCLK*%
X140970000Y-100965000D02*
X135138500Y-106796500D01*
X135138500Y-106796500D02*
X132390000Y-106796500D01*
%TO.N,PA13{slash}SWDIO*%
X140970000Y-103505000D02*
X137028500Y-107446500D01*
X137028500Y-107446500D02*
X132390000Y-107446500D01*
%TO.N,PB7*%
X121031000Y-100965000D02*
X113665000Y-100965000D01*
X126665000Y-106146500D02*
X126212500Y-106146500D01*
X126212500Y-106146500D02*
X121031000Y-100965000D01*
%TO.N,PC14*%
X122301000Y-103505000D02*
X113665000Y-103505000D01*
X126665000Y-106796500D02*
X125592500Y-106796500D01*
X125592500Y-106796500D02*
X122301000Y-103505000D01*
%TO.N,PC15*%
X126665000Y-107446500D02*
X125226500Y-107446500D01*
X123825000Y-106045000D02*
X113665000Y-106045000D01*
X125226500Y-107446500D02*
X123825000Y-106045000D01*
%TO.N,PA0*%
X115491020Y-110411020D02*
X113665000Y-108585000D01*
X126665000Y-110046500D02*
X125157500Y-110046500D01*
X125157500Y-110046500D02*
X124792980Y-110411020D01*
X124792980Y-110411020D02*
X115491020Y-110411020D01*
%TO.N,PA1*%
X126665000Y-110696500D02*
X125523500Y-110696500D01*
X125523500Y-110696500D02*
X125095000Y-111125000D01*
X125095000Y-111125000D02*
X113665000Y-111125000D01*
%TO.N,PA2*%
X126665000Y-111346500D02*
X125579928Y-111346500D01*
X116840000Y-112014000D02*
X115189000Y-113665000D01*
X124912428Y-112014000D02*
X116840000Y-112014000D01*
X125579928Y-111346500D02*
X124912428Y-112014000D01*
X115189000Y-113665000D02*
X113665000Y-113665000D01*
%TO.N,PA3*%
X126665000Y-111996500D02*
X125877020Y-112784480D01*
X115443000Y-116205000D02*
X113665000Y-116205000D01*
X118863520Y-112784480D02*
X115443000Y-116205000D01*
X125877020Y-112784480D02*
X118863520Y-112784480D01*
%TO.N,PA4*%
X130810000Y-113030000D02*
X131843500Y-111996500D01*
X114808000Y-119888000D02*
X127624849Y-119888000D01*
X127624849Y-119888000D02*
X130810000Y-116702849D01*
X131843500Y-111996500D02*
X132390000Y-111996500D01*
X113665000Y-118745000D02*
X114808000Y-119888000D01*
X130810000Y-116702849D02*
X130810000Y-113030000D01*
%TO.N,PB3*%
X133375500Y-106019500D02*
X140970000Y-98425000D01*
X133375500Y-106146500D02*
X133375500Y-106019500D01*
X132390000Y-106146500D02*
X133375500Y-106146500D01*
%TO.N,PA12*%
X138918500Y-108096500D02*
X132390000Y-108096500D01*
X140970000Y-106045000D02*
X138918500Y-108096500D01*
%TO.N,PA11*%
X140970000Y-108585000D02*
X140808500Y-108746500D01*
X140808500Y-108746500D02*
X132390000Y-108746500D01*
%TO.N,PB0*%
X140970000Y-111125000D02*
X139241500Y-109396500D01*
X139241500Y-109396500D02*
X132390000Y-109396500D01*
%TO.N,PA7*%
X140970000Y-113665000D02*
X137351500Y-110046500D01*
X137351500Y-110046500D02*
X132390000Y-110046500D01*
%TO.N,PA6*%
X135461500Y-110696500D02*
X132390000Y-110696500D01*
X140970000Y-116205000D02*
X135461500Y-110696500D01*
%TO.N,PA5*%
X133571500Y-111346500D02*
X132390000Y-111346500D01*
X140970000Y-118745000D02*
X133571500Y-111346500D01*
D27*
%TO.N,Net-(C1-Pad1)*%
X138173000Y-92357000D02*
X137185000Y-93345000D01*
X138173000Y-90678000D02*
X138173000Y-92357000D01*
X137185000Y-93345000D02*
X134010000Y-93345000D01*
%TD*%
M02*
