M48
; DRILL file {KiCad (6.0.0)} date Fri Apr  8 13:22:17 2022
; FORMAT={-:-/ absolute / inch / decimal}
; #@! TF.CreationDate,2022-04-08T13:22:17+02:00
; #@! TF.GenerationSoftware,Kicad,Pcbnew,(6.0.0)
; #@! TF.FileFunction,Plated,1,2,PTH
FMAT,2
INCH
; #@! TA.AperFunction,Plated,PTH,ViaDrill
T1C0.0157
; #@! TA.AperFunction,Plated,PTH,ViaDrill
T2C0.0197
; #@! TA.AperFunction,Plated,PTH,ComponentDrill
T3C0.0394
; #@! TA.AperFunction,Plated,PTH,ComponentDrill
T4C0.0433
; #@! TA.AperFunction,Plated,PTH,ViaDrill
T5C0.1260
%
G90
G05
T1
X4.89Y-4.54
X4.96Y-3.995
X5.0308Y-3.6342
X5.365Y-3.975
T2
X5.4422Y-4.4222
X5.47Y-4.105
T3
X4.475Y-3.675
X4.475Y-3.775
X4.475Y-3.875
X4.475Y-3.975
X4.475Y-4.075
X4.475Y-4.175
X4.475Y-4.275
X4.475Y-4.375
X4.475Y-4.475
X4.475Y-4.575
X4.475Y-4.675
X4.7Y-4.65
X4.8Y-4.65
X5.001Y-3.451
X5.101Y-3.451
X5.201Y-3.451
X5.301Y-3.451
X5.401Y-3.451
X5.55Y-3.675
X5.55Y-3.775
X5.55Y-3.875
X5.55Y-3.975
X5.55Y-4.075
X5.55Y-4.175
X5.55Y-4.275
X5.55Y-4.375
X5.55Y-4.475
X5.55Y-4.575
X5.55Y-4.675
T4
X4.7114Y-3.597
X4.7114Y-3.853
X4.8886Y-3.597
X4.8886Y-3.853
T5
X4.545Y-3.495
X5.32Y-4.64
T0
M30
