%TF.GenerationSoftware,KiCad,Pcbnew,(6.0.8)*%
%TF.CreationDate,2023-05-03T15:07:47+02:00*%
%TF.ProjectId,Floppy Board v3.1,466c6f70-7079-4204-926f-617264207633,3.0*%
%TF.SameCoordinates,Original*%
%TF.FileFunction,Legend,Top*%
%TF.FilePolarity,Positive*%
%FSLAX46Y46*%
G04 Gerber Fmt 4.6, Leading zero omitted, Abs format (unit mm)*
G04 Created by KiCad (PCBNEW (6.0.8)) date 2023-05-03 15:07:47*
%MOMM*%
%LPD*%
G01*
G04 APERTURE LIST*
%ADD10C,0.150000*%
%ADD11C,0.125000*%
%ADD12C,0.120000*%
G04 APERTURE END LIST*
D10*
X160147000Y-104749600D02*
G75*
G03*
X160147000Y-104749600I-1143000J0D01*
G01*
X166395400Y-104749600D02*
G75*
G03*
X166395400Y-104749600I-1143000J0D01*
G01*
X168228500Y-83978000D02*
X168161833Y-83944666D01*
X168061833Y-83944666D01*
X167961833Y-83978000D01*
X167895166Y-84044666D01*
X167861833Y-84111333D01*
X167828500Y-84244666D01*
X167828500Y-84344666D01*
X167861833Y-84478000D01*
X167895166Y-84544666D01*
X167961833Y-84611333D01*
X168061833Y-84644666D01*
X168128500Y-84644666D01*
X168228500Y-84611333D01*
X168261833Y-84578000D01*
X168261833Y-84344666D01*
X168128500Y-84344666D01*
X168561833Y-84644666D02*
X168561833Y-83944666D01*
X168961833Y-84644666D01*
X168961833Y-83944666D01*
X169295166Y-84644666D02*
X169295166Y-83944666D01*
X169461833Y-83944666D01*
X169561833Y-83978000D01*
X169628500Y-84044666D01*
X169661833Y-84111333D01*
X169695166Y-84244666D01*
X169695166Y-84344666D01*
X169661833Y-84478000D01*
X169628500Y-84544666D01*
X169561833Y-84611333D01*
X169461833Y-84644666D01*
X169295166Y-84644666D01*
X167361833Y-92264666D02*
X167361833Y-91564666D01*
X167628500Y-91564666D01*
X167695166Y-91598000D01*
X167728500Y-91631333D01*
X167761833Y-91698000D01*
X167761833Y-91798000D01*
X167728500Y-91864666D01*
X167695166Y-91898000D01*
X167628500Y-91931333D01*
X167361833Y-91931333D01*
X168028500Y-92064666D02*
X168361833Y-92064666D01*
X167961833Y-92264666D02*
X168195166Y-91564666D01*
X168428500Y-92264666D01*
X169028500Y-92264666D02*
X168628500Y-92264666D01*
X168828500Y-92264666D02*
X168828500Y-91564666D01*
X168761833Y-91664666D01*
X168695166Y-91731333D01*
X168628500Y-91764666D01*
X169261833Y-91564666D02*
X169695166Y-91564666D01*
X169461833Y-91831333D01*
X169561833Y-91831333D01*
X169628500Y-91864666D01*
X169661833Y-91898000D01*
X169695166Y-91964666D01*
X169695166Y-92131333D01*
X169661833Y-92198000D01*
X169628500Y-92231333D01*
X169561833Y-92264666D01*
X169361833Y-92264666D01*
X169295166Y-92231333D01*
X169261833Y-92198000D01*
X154375500Y-81404666D02*
X154808833Y-81404666D01*
X154575500Y-81671333D01*
X154675500Y-81671333D01*
X154742166Y-81704666D01*
X154775500Y-81738000D01*
X154808833Y-81804666D01*
X154808833Y-81971333D01*
X154775500Y-82038000D01*
X154742166Y-82071333D01*
X154675500Y-82104666D01*
X154475500Y-82104666D01*
X154408833Y-82071333D01*
X154375500Y-82038000D01*
X155008833Y-81404666D02*
X155242166Y-82104666D01*
X155475500Y-81404666D01*
X155642166Y-81404666D02*
X156075500Y-81404666D01*
X155842166Y-81671333D01*
X155942166Y-81671333D01*
X156008833Y-81704666D01*
X156042166Y-81738000D01*
X156075500Y-81804666D01*
X156075500Y-81971333D01*
X156042166Y-82038000D01*
X156008833Y-82071333D01*
X155942166Y-82104666D01*
X155742166Y-82104666D01*
X155675500Y-82071333D01*
X155642166Y-82038000D01*
D11*
X168133964Y-90261285D02*
X168205392Y-90285095D01*
X168229202Y-90308904D01*
X168253011Y-90356523D01*
X168253011Y-90427952D01*
X168229202Y-90475571D01*
X168205392Y-90499380D01*
X168157773Y-90523190D01*
X167967297Y-90523190D01*
X167967297Y-90023190D01*
X168133964Y-90023190D01*
X168181583Y-90047000D01*
X168205392Y-90070809D01*
X168229202Y-90118428D01*
X168229202Y-90166047D01*
X168205392Y-90213666D01*
X168181583Y-90237476D01*
X168133964Y-90261285D01*
X167967297Y-90261285D01*
X168562535Y-90023190D02*
X168657773Y-90023190D01*
X168705392Y-90047000D01*
X168753011Y-90094619D01*
X168776821Y-90189857D01*
X168776821Y-90356523D01*
X168753011Y-90451761D01*
X168705392Y-90499380D01*
X168657773Y-90523190D01*
X168562535Y-90523190D01*
X168514916Y-90499380D01*
X168467297Y-90451761D01*
X168443488Y-90356523D01*
X168443488Y-90189857D01*
X168467297Y-90094619D01*
X168514916Y-90047000D01*
X168562535Y-90023190D01*
X169086345Y-90023190D02*
X169181583Y-90023190D01*
X169229202Y-90047000D01*
X169276821Y-90094619D01*
X169300630Y-90189857D01*
X169300630Y-90356523D01*
X169276821Y-90451761D01*
X169229202Y-90499380D01*
X169181583Y-90523190D01*
X169086345Y-90523190D01*
X169038726Y-90499380D01*
X168991107Y-90451761D01*
X168967297Y-90356523D01*
X168967297Y-90189857D01*
X168991107Y-90094619D01*
X169038726Y-90047000D01*
X169086345Y-90023190D01*
X169443488Y-90023190D02*
X169729202Y-90023190D01*
X169586345Y-90523190D02*
X169586345Y-90023190D01*
X169991107Y-90023190D02*
X170038726Y-90023190D01*
X170086345Y-90047000D01*
X170110154Y-90070809D01*
X170133964Y-90118428D01*
X170157773Y-90213666D01*
X170157773Y-90332714D01*
X170133964Y-90427952D01*
X170110154Y-90475571D01*
X170086345Y-90499380D01*
X170038726Y-90523190D01*
X169991107Y-90523190D01*
X169943488Y-90499380D01*
X169919678Y-90475571D01*
X169895869Y-90427952D01*
X169872059Y-90332714D01*
X169872059Y-90213666D01*
X169895869Y-90118428D01*
X169919678Y-90070809D01*
X169943488Y-90047000D01*
X169991107Y-90023190D01*
D10*
X154442166Y-104964666D02*
X154442166Y-104264666D01*
X154708833Y-104264666D01*
X154775500Y-104298000D01*
X154808833Y-104331333D01*
X154842166Y-104398000D01*
X154842166Y-104498000D01*
X154808833Y-104564666D01*
X154775500Y-104598000D01*
X154708833Y-104631333D01*
X154442166Y-104631333D01*
X155108833Y-104764666D02*
X155442166Y-104764666D01*
X155042166Y-104964666D02*
X155275500Y-104264666D01*
X155508833Y-104964666D01*
X155675500Y-104264666D02*
X156108833Y-104264666D01*
X155875500Y-104531333D01*
X155975500Y-104531333D01*
X156042166Y-104564666D01*
X156075500Y-104598000D01*
X156108833Y-104664666D01*
X156108833Y-104831333D01*
X156075500Y-104898000D01*
X156042166Y-104931333D01*
X155975500Y-104964666D01*
X155775500Y-104964666D01*
X155708833Y-104931333D01*
X155675500Y-104898000D01*
X154442166Y-94804666D02*
X154442166Y-94104666D01*
X154708833Y-94104666D01*
X154775500Y-94138000D01*
X154808833Y-94171333D01*
X154842166Y-94238000D01*
X154842166Y-94338000D01*
X154808833Y-94404666D01*
X154775500Y-94438000D01*
X154708833Y-94471333D01*
X154442166Y-94471333D01*
X155542166Y-94738000D02*
X155508833Y-94771333D01*
X155408833Y-94804666D01*
X155342166Y-94804666D01*
X155242166Y-94771333D01*
X155175500Y-94704666D01*
X155142166Y-94638000D01*
X155108833Y-94504666D01*
X155108833Y-94404666D01*
X155142166Y-94271333D01*
X155175500Y-94204666D01*
X155242166Y-94138000D01*
X155342166Y-94104666D01*
X155408833Y-94104666D01*
X155508833Y-94138000D01*
X155542166Y-94171333D01*
X156208833Y-94804666D02*
X155808833Y-94804666D01*
X156008833Y-94804666D02*
X156008833Y-94104666D01*
X155942166Y-94204666D01*
X155875500Y-94271333D01*
X155808833Y-94304666D01*
X156842166Y-94104666D02*
X156508833Y-94104666D01*
X156475500Y-94438000D01*
X156508833Y-94404666D01*
X156575500Y-94371333D01*
X156742166Y-94371333D01*
X156808833Y-94404666D01*
X156842166Y-94438000D01*
X156875500Y-94504666D01*
X156875500Y-94671333D01*
X156842166Y-94738000D01*
X156808833Y-94771333D01*
X156742166Y-94804666D01*
X156575500Y-94804666D01*
X156508833Y-94771333D01*
X156475500Y-94738000D01*
X168228500Y-81404666D02*
X168461833Y-82104666D01*
X168695166Y-81404666D01*
X168928500Y-82104666D02*
X168928500Y-81404666D01*
X169261833Y-82104666D02*
X169261833Y-81404666D01*
X169661833Y-82104666D01*
X169661833Y-81404666D01*
X153934166Y-93407666D02*
X153934166Y-92707666D01*
X154200833Y-92707666D01*
X154267500Y-92741000D01*
X154300833Y-92774333D01*
X154334166Y-92841000D01*
X154334166Y-92941000D01*
X154300833Y-93007666D01*
X154267500Y-93041000D01*
X154200833Y-93074333D01*
X153934166Y-93074333D01*
X155034166Y-93341000D02*
X155000833Y-93374333D01*
X154900833Y-93407666D01*
X154834166Y-93407666D01*
X154734166Y-93374333D01*
X154667500Y-93307666D01*
X154634166Y-93241000D01*
X154600833Y-93107666D01*
X154600833Y-93007666D01*
X154634166Y-92874333D01*
X154667500Y-92807666D01*
X154734166Y-92741000D01*
X154834166Y-92707666D01*
X154900833Y-92707666D01*
X155000833Y-92741000D01*
X155034166Y-92774333D01*
X155700833Y-93407666D02*
X155300833Y-93407666D01*
X155500833Y-93407666D02*
X155500833Y-92707666D01*
X155434166Y-92807666D01*
X155367500Y-92874333D01*
X155300833Y-92907666D01*
X156300833Y-92941000D02*
X156300833Y-93407666D01*
X156134166Y-92674333D02*
X155967500Y-93174333D01*
X156400833Y-93174333D01*
X154442166Y-102424666D02*
X154442166Y-101724666D01*
X154708833Y-101724666D01*
X154775500Y-101758000D01*
X154808833Y-101791333D01*
X154842166Y-101858000D01*
X154842166Y-101958000D01*
X154808833Y-102024666D01*
X154775500Y-102058000D01*
X154708833Y-102091333D01*
X154442166Y-102091333D01*
X155108833Y-102224666D02*
X155442166Y-102224666D01*
X155042166Y-102424666D02*
X155275500Y-101724666D01*
X155508833Y-102424666D01*
X155708833Y-101791333D02*
X155742166Y-101758000D01*
X155808833Y-101724666D01*
X155975500Y-101724666D01*
X156042166Y-101758000D01*
X156075500Y-101791333D01*
X156108833Y-101858000D01*
X156108833Y-101924666D01*
X156075500Y-102024666D01*
X155675500Y-102424666D01*
X156108833Y-102424666D01*
D11*
X154179869Y-102723190D02*
X154465583Y-102723190D01*
X154322726Y-103223190D02*
X154322726Y-102723190D01*
X154584630Y-102723190D02*
X154917964Y-103223190D01*
X154917964Y-102723190D02*
X154584630Y-103223190D01*
X155084630Y-102770809D02*
X155108440Y-102747000D01*
X155156059Y-102723190D01*
X155275107Y-102723190D01*
X155322726Y-102747000D01*
X155346535Y-102770809D01*
X155370345Y-102818428D01*
X155370345Y-102866047D01*
X155346535Y-102937476D01*
X155060821Y-103223190D01*
X155370345Y-103223190D01*
D10*
X168028500Y-104964666D02*
X168028500Y-104264666D01*
X168295166Y-104264666D01*
X168361833Y-104298000D01*
X168395166Y-104331333D01*
X168428500Y-104398000D01*
X168428500Y-104498000D01*
X168395166Y-104564666D01*
X168361833Y-104598000D01*
X168295166Y-104631333D01*
X168028500Y-104631333D01*
X168695166Y-104764666D02*
X169028500Y-104764666D01*
X168628500Y-104964666D02*
X168861833Y-104264666D01*
X169095166Y-104964666D01*
X169628500Y-104264666D02*
X169495166Y-104264666D01*
X169428500Y-104298000D01*
X169395166Y-104331333D01*
X169328500Y-104431333D01*
X169295166Y-104564666D01*
X169295166Y-104831333D01*
X169328500Y-104898000D01*
X169361833Y-104931333D01*
X169428500Y-104964666D01*
X169561833Y-104964666D01*
X169628500Y-104931333D01*
X169661833Y-104898000D01*
X169695166Y-104831333D01*
X169695166Y-104664666D01*
X169661833Y-104598000D01*
X169628500Y-104564666D01*
X169561833Y-104531333D01*
X169428500Y-104531333D01*
X169361833Y-104564666D01*
X169328500Y-104598000D01*
X169295166Y-104664666D01*
X154442166Y-97344666D02*
X154442166Y-96644666D01*
X154708833Y-96644666D01*
X154775500Y-96678000D01*
X154808833Y-96711333D01*
X154842166Y-96778000D01*
X154842166Y-96878000D01*
X154808833Y-96944666D01*
X154775500Y-96978000D01*
X154708833Y-97011333D01*
X154442166Y-97011333D01*
X155108833Y-97144666D02*
X155442166Y-97144666D01*
X155042166Y-97344666D02*
X155275500Y-96644666D01*
X155508833Y-97344666D01*
X155875500Y-96644666D02*
X155942166Y-96644666D01*
X156008833Y-96678000D01*
X156042166Y-96711333D01*
X156075500Y-96778000D01*
X156108833Y-96911333D01*
X156108833Y-97078000D01*
X156075500Y-97211333D01*
X156042166Y-97278000D01*
X156008833Y-97311333D01*
X155942166Y-97344666D01*
X155875500Y-97344666D01*
X155808833Y-97311333D01*
X155775500Y-97278000D01*
X155742166Y-97211333D01*
X155708833Y-97078000D01*
X155708833Y-96911333D01*
X155742166Y-96778000D01*
X155775500Y-96711333D01*
X155808833Y-96678000D01*
X155875500Y-96644666D01*
X168028500Y-102424666D02*
X168028500Y-101724666D01*
X168295166Y-101724666D01*
X168361833Y-101758000D01*
X168395166Y-101791333D01*
X168428500Y-101858000D01*
X168428500Y-101958000D01*
X168395166Y-102024666D01*
X168361833Y-102058000D01*
X168295166Y-102091333D01*
X168028500Y-102091333D01*
X168695166Y-102224666D02*
X169028500Y-102224666D01*
X168628500Y-102424666D02*
X168861833Y-101724666D01*
X169095166Y-102424666D01*
X169261833Y-101724666D02*
X169728500Y-101724666D01*
X169428500Y-102424666D01*
X154061166Y-88708666D02*
X154061166Y-88008666D01*
X154327833Y-88008666D01*
X154394500Y-88042000D01*
X154427833Y-88075333D01*
X154461166Y-88142000D01*
X154461166Y-88242000D01*
X154427833Y-88308666D01*
X154394500Y-88342000D01*
X154327833Y-88375333D01*
X154061166Y-88375333D01*
X154994500Y-88342000D02*
X155094500Y-88375333D01*
X155127833Y-88408666D01*
X155161166Y-88475333D01*
X155161166Y-88575333D01*
X155127833Y-88642000D01*
X155094500Y-88675333D01*
X155027833Y-88708666D01*
X154761166Y-88708666D01*
X154761166Y-88008666D01*
X154994500Y-88008666D01*
X155061166Y-88042000D01*
X155094500Y-88075333D01*
X155127833Y-88142000D01*
X155127833Y-88208666D01*
X155094500Y-88275333D01*
X155061166Y-88308666D01*
X154994500Y-88342000D01*
X154761166Y-88342000D01*
X155394500Y-88008666D02*
X155861166Y-88008666D01*
X155561166Y-88708666D01*
X154442166Y-87184666D02*
X154442166Y-86484666D01*
X154842166Y-87184666D01*
X154842166Y-86484666D01*
X155575500Y-87184666D02*
X155342166Y-86851333D01*
X155175500Y-87184666D02*
X155175500Y-86484666D01*
X155442166Y-86484666D01*
X155508833Y-86518000D01*
X155542166Y-86551333D01*
X155575500Y-86618000D01*
X155575500Y-86718000D01*
X155542166Y-86784666D01*
X155508833Y-86818000D01*
X155442166Y-86851333D01*
X155175500Y-86851333D01*
X155842166Y-87151333D02*
X155942166Y-87184666D01*
X156108833Y-87184666D01*
X156175500Y-87151333D01*
X156208833Y-87118000D01*
X156242166Y-87051333D01*
X156242166Y-86984666D01*
X156208833Y-86918000D01*
X156175500Y-86884666D01*
X156108833Y-86851333D01*
X155975500Y-86818000D01*
X155908833Y-86784666D01*
X155875500Y-86751333D01*
X155842166Y-86684666D01*
X155842166Y-86618000D01*
X155875500Y-86551333D01*
X155908833Y-86518000D01*
X155975500Y-86484666D01*
X156142166Y-86484666D01*
X156242166Y-86518000D01*
X156442166Y-86484666D02*
X156842166Y-86484666D01*
X156642166Y-87184666D02*
X156642166Y-86484666D01*
X167195166Y-78864666D02*
X167428500Y-79564666D01*
X167661833Y-78864666D01*
X167895166Y-78864666D02*
X167895166Y-79431333D01*
X167928500Y-79498000D01*
X167961833Y-79531333D01*
X168028500Y-79564666D01*
X168161833Y-79564666D01*
X168228500Y-79531333D01*
X168261833Y-79498000D01*
X168295166Y-79431333D01*
X168295166Y-78864666D01*
X168595166Y-79531333D02*
X168695166Y-79564666D01*
X168861833Y-79564666D01*
X168928500Y-79531333D01*
X168961833Y-79498000D01*
X168995166Y-79431333D01*
X168995166Y-79364666D01*
X168961833Y-79298000D01*
X168928500Y-79264666D01*
X168861833Y-79231333D01*
X168728500Y-79198000D01*
X168661833Y-79164666D01*
X168628500Y-79131333D01*
X168595166Y-79064666D01*
X168595166Y-78998000D01*
X168628500Y-78931333D01*
X168661833Y-78898000D01*
X168728500Y-78864666D01*
X168895166Y-78864666D01*
X168995166Y-78898000D01*
X169528500Y-79198000D02*
X169628500Y-79231333D01*
X169661833Y-79264666D01*
X169695166Y-79331333D01*
X169695166Y-79431333D01*
X169661833Y-79498000D01*
X169628500Y-79531333D01*
X169561833Y-79564666D01*
X169295166Y-79564666D01*
X169295166Y-78864666D01*
X169528500Y-78864666D01*
X169595166Y-78898000D01*
X169628500Y-78931333D01*
X169661833Y-78998000D01*
X169661833Y-79064666D01*
X169628500Y-79131333D01*
X169595166Y-79164666D01*
X169528500Y-79198000D01*
X169295166Y-79198000D01*
X167928500Y-99884666D02*
X167928500Y-99184666D01*
X168195166Y-99184666D01*
X168261833Y-99218000D01*
X168295166Y-99251333D01*
X168328500Y-99318000D01*
X168328500Y-99418000D01*
X168295166Y-99484666D01*
X168261833Y-99518000D01*
X168195166Y-99551333D01*
X167928500Y-99551333D01*
X168861833Y-99518000D02*
X168961833Y-99551333D01*
X168995166Y-99584666D01*
X169028500Y-99651333D01*
X169028500Y-99751333D01*
X168995166Y-99818000D01*
X168961833Y-99851333D01*
X168895166Y-99884666D01*
X168628500Y-99884666D01*
X168628500Y-99184666D01*
X168861833Y-99184666D01*
X168928500Y-99218000D01*
X168961833Y-99251333D01*
X168995166Y-99318000D01*
X168995166Y-99384666D01*
X168961833Y-99451333D01*
X168928500Y-99484666D01*
X168861833Y-99518000D01*
X168628500Y-99518000D01*
X169461833Y-99184666D02*
X169528500Y-99184666D01*
X169595166Y-99218000D01*
X169628500Y-99251333D01*
X169661833Y-99318000D01*
X169695166Y-99451333D01*
X169695166Y-99618000D01*
X169661833Y-99751333D01*
X169628500Y-99818000D01*
X169595166Y-99851333D01*
X169528500Y-99884666D01*
X169461833Y-99884666D01*
X169395166Y-99851333D01*
X169361833Y-99818000D01*
X169328500Y-99751333D01*
X169295166Y-99618000D01*
X169295166Y-99451333D01*
X169328500Y-99318000D01*
X169361833Y-99251333D01*
X169395166Y-99218000D01*
X169461833Y-99184666D01*
X167361833Y-94804666D02*
X167361833Y-94104666D01*
X167628500Y-94104666D01*
X167695166Y-94138000D01*
X167728500Y-94171333D01*
X167761833Y-94238000D01*
X167761833Y-94338000D01*
X167728500Y-94404666D01*
X167695166Y-94438000D01*
X167628500Y-94471333D01*
X167361833Y-94471333D01*
X168028500Y-94604666D02*
X168361833Y-94604666D01*
X167961833Y-94804666D02*
X168195166Y-94104666D01*
X168428500Y-94804666D01*
X169028500Y-94804666D02*
X168628500Y-94804666D01*
X168828500Y-94804666D02*
X168828500Y-94104666D01*
X168761833Y-94204666D01*
X168695166Y-94271333D01*
X168628500Y-94304666D01*
X169295166Y-94171333D02*
X169328500Y-94138000D01*
X169395166Y-94104666D01*
X169561833Y-94104666D01*
X169628500Y-94138000D01*
X169661833Y-94171333D01*
X169695166Y-94238000D01*
X169695166Y-94304666D01*
X169661833Y-94404666D01*
X169261833Y-94804666D01*
X169695166Y-94804666D01*
X168028500Y-107504666D02*
X168028500Y-106804666D01*
X168295166Y-106804666D01*
X168361833Y-106838000D01*
X168395166Y-106871333D01*
X168428500Y-106938000D01*
X168428500Y-107038000D01*
X168395166Y-107104666D01*
X168361833Y-107138000D01*
X168295166Y-107171333D01*
X168028500Y-107171333D01*
X168695166Y-107304666D02*
X169028500Y-107304666D01*
X168628500Y-107504666D02*
X168861833Y-106804666D01*
X169095166Y-107504666D01*
X169661833Y-106804666D02*
X169328500Y-106804666D01*
X169295166Y-107138000D01*
X169328500Y-107104666D01*
X169395166Y-107071333D01*
X169561833Y-107071333D01*
X169628500Y-107104666D01*
X169661833Y-107138000D01*
X169695166Y-107204666D01*
X169695166Y-107371333D01*
X169661833Y-107438000D01*
X169628500Y-107471333D01*
X169561833Y-107504666D01*
X169395166Y-107504666D01*
X169328500Y-107471333D01*
X169295166Y-107438000D01*
X154808833Y-83978000D02*
X154742166Y-83944666D01*
X154642166Y-83944666D01*
X154542166Y-83978000D01*
X154475500Y-84044666D01*
X154442166Y-84111333D01*
X154408833Y-84244666D01*
X154408833Y-84344666D01*
X154442166Y-84478000D01*
X154475500Y-84544666D01*
X154542166Y-84611333D01*
X154642166Y-84644666D01*
X154708833Y-84644666D01*
X154808833Y-84611333D01*
X154842166Y-84578000D01*
X154842166Y-84344666D01*
X154708833Y-84344666D01*
X155142166Y-84644666D02*
X155142166Y-83944666D01*
X155542166Y-84644666D01*
X155542166Y-83944666D01*
X155875500Y-84644666D02*
X155875500Y-83944666D01*
X156042166Y-83944666D01*
X156142166Y-83978000D01*
X156208833Y-84044666D01*
X156242166Y-84111333D01*
X156275500Y-84244666D01*
X156275500Y-84344666D01*
X156242166Y-84478000D01*
X156208833Y-84544666D01*
X156142166Y-84611333D01*
X156042166Y-84644666D01*
X155875500Y-84644666D01*
X167361833Y-89724666D02*
X167361833Y-89024666D01*
X167628500Y-89024666D01*
X167695166Y-89058000D01*
X167728500Y-89091333D01*
X167761833Y-89158000D01*
X167761833Y-89258000D01*
X167728500Y-89324666D01*
X167695166Y-89358000D01*
X167628500Y-89391333D01*
X167361833Y-89391333D01*
X168028500Y-89524666D02*
X168361833Y-89524666D01*
X167961833Y-89724666D02*
X168195166Y-89024666D01*
X168428500Y-89724666D01*
X169028500Y-89724666D02*
X168628500Y-89724666D01*
X168828500Y-89724666D02*
X168828500Y-89024666D01*
X168761833Y-89124666D01*
X168695166Y-89191333D01*
X168628500Y-89224666D01*
X169628500Y-89258000D02*
X169628500Y-89724666D01*
X169461833Y-88991333D02*
X169295166Y-89491333D01*
X169728500Y-89491333D01*
X154442166Y-107504666D02*
X154442166Y-106804666D01*
X154708833Y-106804666D01*
X154775500Y-106838000D01*
X154808833Y-106871333D01*
X154842166Y-106938000D01*
X154842166Y-107038000D01*
X154808833Y-107104666D01*
X154775500Y-107138000D01*
X154708833Y-107171333D01*
X154442166Y-107171333D01*
X155108833Y-107304666D02*
X155442166Y-107304666D01*
X155042166Y-107504666D02*
X155275500Y-106804666D01*
X155508833Y-107504666D01*
X156042166Y-107038000D02*
X156042166Y-107504666D01*
X155875500Y-106771333D02*
X155708833Y-107271333D01*
X156142166Y-107271333D01*
X154442166Y-99884666D02*
X154442166Y-99184666D01*
X154708833Y-99184666D01*
X154775500Y-99218000D01*
X154808833Y-99251333D01*
X154842166Y-99318000D01*
X154842166Y-99418000D01*
X154808833Y-99484666D01*
X154775500Y-99518000D01*
X154708833Y-99551333D01*
X154442166Y-99551333D01*
X155108833Y-99684666D02*
X155442166Y-99684666D01*
X155042166Y-99884666D02*
X155275500Y-99184666D01*
X155508833Y-99884666D01*
X156108833Y-99884666D02*
X155708833Y-99884666D01*
X155908833Y-99884666D02*
X155908833Y-99184666D01*
X155842166Y-99284666D01*
X155775500Y-99351333D01*
X155708833Y-99384666D01*
D11*
X154537011Y-105763190D02*
X154370345Y-105525095D01*
X154251297Y-105763190D02*
X154251297Y-105263190D01*
X154441773Y-105263190D01*
X154489392Y-105287000D01*
X154513202Y-105310809D01*
X154537011Y-105358428D01*
X154537011Y-105429857D01*
X154513202Y-105477476D01*
X154489392Y-105501285D01*
X154441773Y-105525095D01*
X154251297Y-105525095D01*
X154703678Y-105263190D02*
X155037011Y-105763190D01*
X155037011Y-105263190D02*
X154703678Y-105763190D01*
X155203678Y-105310809D02*
X155227488Y-105287000D01*
X155275107Y-105263190D01*
X155394154Y-105263190D01*
X155441773Y-105287000D01*
X155465583Y-105310809D01*
X155489392Y-105358428D01*
X155489392Y-105406047D01*
X155465583Y-105477476D01*
X155179869Y-105763190D01*
X155489392Y-105763190D01*
X169449992Y-79888590D02*
X169211897Y-79888590D01*
X169188088Y-80126685D01*
X169211897Y-80102876D01*
X169259516Y-80079066D01*
X169378564Y-80079066D01*
X169426183Y-80102876D01*
X169449992Y-80126685D01*
X169473802Y-80174304D01*
X169473802Y-80293352D01*
X169449992Y-80340971D01*
X169426183Y-80364780D01*
X169378564Y-80388590D01*
X169259516Y-80388590D01*
X169211897Y-80364780D01*
X169188088Y-80340971D01*
X169616659Y-79888590D02*
X169783326Y-80388590D01*
X169949992Y-79888590D01*
D10*
X167928500Y-87184666D02*
X167928500Y-86484666D01*
X168195166Y-86484666D01*
X168261833Y-86518000D01*
X168295166Y-86551333D01*
X168328500Y-86618000D01*
X168328500Y-86718000D01*
X168295166Y-86784666D01*
X168261833Y-86818000D01*
X168195166Y-86851333D01*
X167928500Y-86851333D01*
X168861833Y-86818000D02*
X168961833Y-86851333D01*
X168995166Y-86884666D01*
X169028500Y-86951333D01*
X169028500Y-87051333D01*
X168995166Y-87118000D01*
X168961833Y-87151333D01*
X168895166Y-87184666D01*
X168628500Y-87184666D01*
X168628500Y-86484666D01*
X168861833Y-86484666D01*
X168928500Y-86518000D01*
X168961833Y-86551333D01*
X168995166Y-86618000D01*
X168995166Y-86684666D01*
X168961833Y-86751333D01*
X168928500Y-86784666D01*
X168861833Y-86818000D01*
X168628500Y-86818000D01*
X169261833Y-86484666D02*
X169695166Y-86484666D01*
X169461833Y-86751333D01*
X169561833Y-86751333D01*
X169628500Y-86784666D01*
X169661833Y-86818000D01*
X169695166Y-86884666D01*
X169695166Y-87051333D01*
X169661833Y-87118000D01*
X169628500Y-87151333D01*
X169561833Y-87184666D01*
X169361833Y-87184666D01*
X169295166Y-87151333D01*
X169261833Y-87118000D01*
X167361833Y-97344666D02*
X167361833Y-96644666D01*
X167628500Y-96644666D01*
X167695166Y-96678000D01*
X167728500Y-96711333D01*
X167761833Y-96778000D01*
X167761833Y-96878000D01*
X167728500Y-96944666D01*
X167695166Y-96978000D01*
X167628500Y-97011333D01*
X167361833Y-97011333D01*
X168028500Y-97144666D02*
X168361833Y-97144666D01*
X167961833Y-97344666D02*
X168195166Y-96644666D01*
X168428500Y-97344666D01*
X169028500Y-97344666D02*
X168628500Y-97344666D01*
X168828500Y-97344666D02*
X168828500Y-96644666D01*
X168761833Y-96744666D01*
X168695166Y-96811333D01*
X168628500Y-96844666D01*
X169695166Y-97344666D02*
X169295166Y-97344666D01*
X169495166Y-97344666D02*
X169495166Y-96644666D01*
X169428500Y-96744666D01*
X169361833Y-96811333D01*
X169295166Y-96844666D01*
%TO.C,D4*%
X157725333Y-97801866D02*
X157725333Y-97101866D01*
X157892000Y-97101866D01*
X157992000Y-97135200D01*
X158058666Y-97201866D01*
X158092000Y-97268533D01*
X158125333Y-97401866D01*
X158125333Y-97501866D01*
X158092000Y-97635200D01*
X158058666Y-97701866D01*
X157992000Y-97768533D01*
X157892000Y-97801866D01*
X157725333Y-97801866D01*
X158725333Y-97335200D02*
X158725333Y-97801866D01*
X158558666Y-97068533D02*
X158392000Y-97568533D01*
X158825333Y-97568533D01*
%TO.C,C1*%
X155255133Y-90928000D02*
X155221800Y-90961333D01*
X155121800Y-90994666D01*
X155055133Y-90994666D01*
X154955133Y-90961333D01*
X154888466Y-90894666D01*
X154855133Y-90828000D01*
X154821800Y-90694666D01*
X154821800Y-90594666D01*
X154855133Y-90461333D01*
X154888466Y-90394666D01*
X154955133Y-90328000D01*
X155055133Y-90294666D01*
X155121800Y-90294666D01*
X155221800Y-90328000D01*
X155255133Y-90361333D01*
X155921800Y-90994666D02*
X155521800Y-90994666D01*
X155721800Y-90994666D02*
X155721800Y-90294666D01*
X155655133Y-90394666D01*
X155588466Y-90461333D01*
X155521800Y-90494666D01*
%TO.C,R5*%
X160639933Y-100291066D02*
X160406600Y-99957733D01*
X160239933Y-100291066D02*
X160239933Y-99591066D01*
X160506600Y-99591066D01*
X160573266Y-99624400D01*
X160606600Y-99657733D01*
X160639933Y-99724400D01*
X160639933Y-99824400D01*
X160606600Y-99891066D01*
X160573266Y-99924400D01*
X160506600Y-99957733D01*
X160239933Y-99957733D01*
X161273266Y-99591066D02*
X160939933Y-99591066D01*
X160906600Y-99924400D01*
X160939933Y-99891066D01*
X161006600Y-99857733D01*
X161173266Y-99857733D01*
X161239933Y-99891066D01*
X161273266Y-99924400D01*
X161306600Y-99991066D01*
X161306600Y-100157733D01*
X161273266Y-100224400D01*
X161239933Y-100257733D01*
X161173266Y-100291066D01*
X161006600Y-100291066D01*
X160939933Y-100257733D01*
X160906600Y-100224400D01*
%TO.C,C4*%
X165923133Y-87016400D02*
X165889800Y-87049733D01*
X165789800Y-87083066D01*
X165723133Y-87083066D01*
X165623133Y-87049733D01*
X165556466Y-86983066D01*
X165523133Y-86916400D01*
X165489800Y-86783066D01*
X165489800Y-86683066D01*
X165523133Y-86549733D01*
X165556466Y-86483066D01*
X165623133Y-86416400D01*
X165723133Y-86383066D01*
X165789800Y-86383066D01*
X165889800Y-86416400D01*
X165923133Y-86449733D01*
X166523133Y-86616400D02*
X166523133Y-87083066D01*
X166356466Y-86349733D02*
X166189800Y-86849733D01*
X166623133Y-86849733D01*
%TO.C,C6*%
X163357733Y-79980600D02*
X163324400Y-80013933D01*
X163224400Y-80047266D01*
X163157733Y-80047266D01*
X163057733Y-80013933D01*
X162991066Y-79947266D01*
X162957733Y-79880600D01*
X162924400Y-79747266D01*
X162924400Y-79647266D01*
X162957733Y-79513933D01*
X162991066Y-79447266D01*
X163057733Y-79380600D01*
X163157733Y-79347266D01*
X163224400Y-79347266D01*
X163324400Y-79380600D01*
X163357733Y-79413933D01*
X163957733Y-79347266D02*
X163824400Y-79347266D01*
X163757733Y-79380600D01*
X163724400Y-79413933D01*
X163657733Y-79513933D01*
X163624400Y-79647266D01*
X163624400Y-79913933D01*
X163657733Y-79980600D01*
X163691066Y-80013933D01*
X163757733Y-80047266D01*
X163891066Y-80047266D01*
X163957733Y-80013933D01*
X163991066Y-79980600D01*
X164024400Y-79913933D01*
X164024400Y-79747266D01*
X163991066Y-79680600D01*
X163957733Y-79647266D01*
X163891066Y-79613933D01*
X163757733Y-79613933D01*
X163691066Y-79647266D01*
X163657733Y-79680600D01*
X163624400Y-79747266D01*
%TO.C,D2*%
X165345333Y-97878066D02*
X165345333Y-97178066D01*
X165512000Y-97178066D01*
X165612000Y-97211400D01*
X165678666Y-97278066D01*
X165712000Y-97344733D01*
X165745333Y-97478066D01*
X165745333Y-97578066D01*
X165712000Y-97711400D01*
X165678666Y-97778066D01*
X165612000Y-97844733D01*
X165512000Y-97878066D01*
X165345333Y-97878066D01*
X166012000Y-97244733D02*
X166045333Y-97211400D01*
X166112000Y-97178066D01*
X166278666Y-97178066D01*
X166345333Y-97211400D01*
X166378666Y-97244733D01*
X166412000Y-97311400D01*
X166412000Y-97378066D01*
X166378666Y-97478066D01*
X165978666Y-97878066D01*
X166412000Y-97878066D01*
%TO.C,R4*%
X163179933Y-100291066D02*
X162946600Y-99957733D01*
X162779933Y-100291066D02*
X162779933Y-99591066D01*
X163046600Y-99591066D01*
X163113266Y-99624400D01*
X163146600Y-99657733D01*
X163179933Y-99724400D01*
X163179933Y-99824400D01*
X163146600Y-99891066D01*
X163113266Y-99924400D01*
X163046600Y-99957733D01*
X162779933Y-99957733D01*
X163779933Y-99824400D02*
X163779933Y-100291066D01*
X163613266Y-99557733D02*
X163446600Y-100057733D01*
X163879933Y-100057733D01*
%TO.C,C5*%
X159903333Y-81530000D02*
X159870000Y-81563333D01*
X159770000Y-81596666D01*
X159703333Y-81596666D01*
X159603333Y-81563333D01*
X159536666Y-81496666D01*
X159503333Y-81430000D01*
X159470000Y-81296666D01*
X159470000Y-81196666D01*
X159503333Y-81063333D01*
X159536666Y-80996666D01*
X159603333Y-80930000D01*
X159703333Y-80896666D01*
X159770000Y-80896666D01*
X159870000Y-80930000D01*
X159903333Y-80963333D01*
X160536666Y-80896666D02*
X160203333Y-80896666D01*
X160170000Y-81230000D01*
X160203333Y-81196666D01*
X160270000Y-81163333D01*
X160436666Y-81163333D01*
X160503333Y-81196666D01*
X160536666Y-81230000D01*
X160570000Y-81296666D01*
X160570000Y-81463333D01*
X160536666Y-81530000D01*
X160503333Y-81563333D01*
X160436666Y-81596666D01*
X160270000Y-81596666D01*
X160203333Y-81563333D01*
X160170000Y-81530000D01*
%TO.C,F1*%
X157145066Y-79883800D02*
X156911733Y-79883800D01*
X156911733Y-80250466D02*
X156911733Y-79550466D01*
X157245066Y-79550466D01*
X157878400Y-80250466D02*
X157478400Y-80250466D01*
X157678400Y-80250466D02*
X157678400Y-79550466D01*
X157611733Y-79650466D01*
X157545066Y-79717133D01*
X157478400Y-79750466D01*
%TO.C,C2*%
X157363333Y-90953400D02*
X157330000Y-90986733D01*
X157230000Y-91020066D01*
X157163333Y-91020066D01*
X157063333Y-90986733D01*
X156996666Y-90920066D01*
X156963333Y-90853400D01*
X156930000Y-90720066D01*
X156930000Y-90620066D01*
X156963333Y-90486733D01*
X156996666Y-90420066D01*
X157063333Y-90353400D01*
X157163333Y-90320066D01*
X157230000Y-90320066D01*
X157330000Y-90353400D01*
X157363333Y-90386733D01*
X157630000Y-90386733D02*
X157663333Y-90353400D01*
X157730000Y-90320066D01*
X157896666Y-90320066D01*
X157963333Y-90353400D01*
X157996666Y-90386733D01*
X158030000Y-90453400D01*
X158030000Y-90520066D01*
X157996666Y-90620066D01*
X157596666Y-91020066D01*
X158030000Y-91020066D01*
%TO.C,U3*%
X164668266Y-84833666D02*
X164668266Y-85400333D01*
X164701600Y-85467000D01*
X164734933Y-85500333D01*
X164801600Y-85533666D01*
X164934933Y-85533666D01*
X165001600Y-85500333D01*
X165034933Y-85467000D01*
X165068266Y-85400333D01*
X165068266Y-84833666D01*
X165334933Y-84833666D02*
X165768266Y-84833666D01*
X165534933Y-85100333D01*
X165634933Y-85100333D01*
X165701600Y-85133666D01*
X165734933Y-85167000D01*
X165768266Y-85233666D01*
X165768266Y-85400333D01*
X165734933Y-85467000D01*
X165701600Y-85500333D01*
X165634933Y-85533666D01*
X165434933Y-85533666D01*
X165368266Y-85500333D01*
X165334933Y-85467000D01*
%TO.C,C7*%
X165948533Y-80056800D02*
X165915200Y-80090133D01*
X165815200Y-80123466D01*
X165748533Y-80123466D01*
X165648533Y-80090133D01*
X165581866Y-80023466D01*
X165548533Y-79956800D01*
X165515200Y-79823466D01*
X165515200Y-79723466D01*
X165548533Y-79590133D01*
X165581866Y-79523466D01*
X165648533Y-79456800D01*
X165748533Y-79423466D01*
X165815200Y-79423466D01*
X165915200Y-79456800D01*
X165948533Y-79490133D01*
X166181866Y-79423466D02*
X166648533Y-79423466D01*
X166348533Y-80123466D01*
%TO.C,U1*%
X160096266Y-87068866D02*
X160096266Y-87635533D01*
X160129600Y-87702200D01*
X160162933Y-87735533D01*
X160229600Y-87768866D01*
X160362933Y-87768866D01*
X160429600Y-87735533D01*
X160462933Y-87702200D01*
X160496266Y-87635533D01*
X160496266Y-87068866D01*
X161196266Y-87768866D02*
X160796266Y-87768866D01*
X160996266Y-87768866D02*
X160996266Y-87068866D01*
X160929600Y-87168866D01*
X160862933Y-87235533D01*
X160796266Y-87268866D01*
%TO.C,kibuzzard-644D5CBA*%
G36*
X165031568Y-100713537D02*
G01*
X164974336Y-100705048D01*
X164918212Y-100690989D01*
X164863736Y-100671498D01*
X164811433Y-100646760D01*
X164761806Y-100617015D01*
X164715334Y-100582549D01*
X164672463Y-100543693D01*
X164649121Y-100517939D01*
X165662890Y-100517939D01*
X166086585Y-100517939D01*
X166086585Y-100412829D01*
X166147976Y-100412829D01*
X166583764Y-100412829D01*
X166583764Y-100300743D01*
X166287503Y-100300743D01*
X166287503Y-99735661D01*
X166147976Y-99735661D01*
X166147976Y-100412829D01*
X166086585Y-100412829D01*
X165662890Y-100412829D01*
X165662890Y-100517939D01*
X164649121Y-100517939D01*
X164633608Y-100500823D01*
X164599142Y-100454351D01*
X164569397Y-100404724D01*
X164544659Y-100352421D01*
X164525168Y-100297945D01*
X164511109Y-100241821D01*
X164502947Y-100186796D01*
X165089436Y-100186796D01*
X165097963Y-100254751D01*
X165121682Y-100312267D01*
X165160595Y-100359344D01*
X165212529Y-100394226D01*
X165275316Y-100415154D01*
X165348955Y-100422131D01*
X165423602Y-100414948D01*
X165486931Y-100393399D01*
X165538944Y-100357484D01*
X165577572Y-100309218D01*
X165600749Y-100250617D01*
X165608474Y-100181680D01*
X165608474Y-99735661D01*
X165468483Y-99735661D01*
X165468483Y-100186331D01*
X165460315Y-100240456D01*
X165437671Y-100279116D01*
X165400551Y-100302313D01*
X165348955Y-100310045D01*
X165298784Y-100302429D01*
X165260821Y-100279581D01*
X165236927Y-100240107D01*
X165228963Y-100182611D01*
X165228963Y-99735661D01*
X165089436Y-99735661D01*
X165089436Y-100186796D01*
X164502947Y-100186796D01*
X164502620Y-100184589D01*
X164499781Y-100126800D01*
X164502620Y-100069011D01*
X164511109Y-100011779D01*
X164525168Y-99955655D01*
X164544659Y-99901179D01*
X164569397Y-99848876D01*
X164599142Y-99799249D01*
X164633608Y-99752777D01*
X164672463Y-99709907D01*
X164715334Y-99671051D01*
X164761806Y-99636585D01*
X164811433Y-99606840D01*
X164863736Y-99582102D01*
X164918212Y-99562611D01*
X164974336Y-99548552D01*
X165031568Y-99540063D01*
X165089357Y-99537224D01*
X166583843Y-99537224D01*
X166641632Y-99540063D01*
X166698864Y-99548552D01*
X166754988Y-99562611D01*
X166809464Y-99582102D01*
X166861767Y-99606840D01*
X166911394Y-99636585D01*
X166957866Y-99671051D01*
X167000736Y-99709907D01*
X167039592Y-99752777D01*
X167074058Y-99799249D01*
X167103803Y-99848876D01*
X167128541Y-99901179D01*
X167148032Y-99955655D01*
X167162091Y-100011779D01*
X167170580Y-100069011D01*
X167173419Y-100126800D01*
X167170580Y-100184589D01*
X167162091Y-100241821D01*
X167148032Y-100297945D01*
X167128541Y-100352421D01*
X167103803Y-100404724D01*
X167074058Y-100454351D01*
X167039592Y-100500823D01*
X167000736Y-100543693D01*
X166957866Y-100582549D01*
X166911394Y-100617015D01*
X166861767Y-100646760D01*
X166809464Y-100671498D01*
X166754988Y-100690989D01*
X166698864Y-100705048D01*
X166641632Y-100713537D01*
X166583843Y-100716376D01*
X165089357Y-100716376D01*
X165031568Y-100713537D01*
G37*
%TO.C,kibuzzard-644D5C5F*%
G36*
X158505658Y-108512829D02*
G01*
X158537749Y-108544300D01*
X158548446Y-108596131D01*
X158520774Y-108661011D01*
X158487694Y-108678626D01*
X158443802Y-108684498D01*
X158324274Y-108684498D01*
X158324274Y-108501718D01*
X158452173Y-108501718D01*
X158505658Y-108512829D01*
G37*
G36*
X158471881Y-108237490D02*
G01*
X158506356Y-108252664D01*
X158526413Y-108279348D01*
X158533099Y-108318939D01*
X158521368Y-108364879D01*
X158486176Y-108392939D01*
X158427524Y-108403120D01*
X158324274Y-108403120D01*
X158324274Y-108232432D01*
X158421943Y-108232432D01*
X158471881Y-108237490D01*
G37*
G36*
X159636345Y-108228537D02*
G01*
X159665820Y-108257315D01*
X159683086Y-108307137D01*
X159688842Y-108379865D01*
X159688842Y-108540786D01*
X159682680Y-108610084D01*
X159666053Y-108658918D01*
X159637333Y-108687870D01*
X159594894Y-108697520D01*
X159551932Y-108687463D01*
X159522573Y-108657290D01*
X159505655Y-108606421D01*
X159500016Y-108534274D01*
X159500016Y-108369633D01*
X159506702Y-108302254D01*
X159523968Y-108255454D01*
X159552746Y-108228072D01*
X159593964Y-108218945D01*
X159636345Y-108228537D01*
G37*
G36*
X158105373Y-107911677D02*
G01*
X160230421Y-107911677D01*
X159902627Y-109004323D01*
X157777579Y-109004323D01*
X157839901Y-108796584D01*
X158184748Y-108796584D01*
X158447987Y-108796584D01*
X158518991Y-108790486D01*
X158578212Y-108773433D01*
X158625651Y-108745424D01*
X158660274Y-108706667D01*
X158681048Y-108657368D01*
X158687973Y-108597526D01*
X158680473Y-108544739D01*
X158657975Y-108500788D01*
X158622454Y-108467883D01*
X158575887Y-108448233D01*
X158616466Y-108425502D01*
X158647045Y-108392655D01*
X158666230Y-108351786D01*
X158672625Y-108304986D01*
X158665545Y-108249098D01*
X158657870Y-108232432D01*
X158750760Y-108232432D01*
X158955398Y-108232432D01*
X158955398Y-108796584D01*
X159094925Y-108796584D01*
X159094925Y-108523577D01*
X159365606Y-108523577D01*
X159372892Y-108607397D01*
X159392891Y-108677160D01*
X159425602Y-108732867D01*
X159470457Y-108773433D01*
X159526888Y-108797773D01*
X159594894Y-108805886D01*
X159663624Y-108797618D01*
X159720365Y-108772813D01*
X159765116Y-108731472D01*
X159797414Y-108674524D01*
X159816793Y-108602901D01*
X159823252Y-108516601D01*
X159823252Y-108391958D01*
X159815966Y-108308164D01*
X159795967Y-108238479D01*
X159763256Y-108182901D01*
X159718401Y-108142464D01*
X159661970Y-108118202D01*
X159593964Y-108110114D01*
X159525932Y-108118279D01*
X159469424Y-108142774D01*
X159424439Y-108183598D01*
X159391754Y-108240184D01*
X159372143Y-108311962D01*
X159365606Y-108398934D01*
X159365606Y-108523577D01*
X159094925Y-108523577D01*
X159094925Y-108232432D01*
X159302354Y-108232432D01*
X159302354Y-108119416D01*
X158750760Y-108119416D01*
X158750760Y-108232432D01*
X158657870Y-108232432D01*
X158644306Y-108202977D01*
X158608908Y-108166622D01*
X158559815Y-108140397D01*
X158497493Y-108124661D01*
X158421943Y-108119416D01*
X158184748Y-108119416D01*
X158184748Y-108796584D01*
X157839901Y-108796584D01*
X158105373Y-107911677D01*
G37*
%TO.C,kibuzzard-644D5C93*%
G36*
X157394054Y-100670493D02*
G01*
X157341021Y-100662626D01*
X157289014Y-100649599D01*
X157238534Y-100631537D01*
X157190068Y-100608614D01*
X157144082Y-100581051D01*
X157101019Y-100549114D01*
X157061294Y-100513109D01*
X157025290Y-100473384D01*
X156993352Y-100430321D01*
X156965789Y-100384335D01*
X156942866Y-100335869D01*
X156924805Y-100285389D01*
X156923408Y-100279814D01*
X157447683Y-100279814D01*
X157454840Y-100334591D01*
X157476311Y-100381720D01*
X157512097Y-100421201D01*
X157559149Y-100450915D01*
X157614417Y-100468743D01*
X157677901Y-100474686D01*
X157745416Y-100468640D01*
X157803475Y-100450501D01*
X157852076Y-100420270D01*
X157888638Y-100380015D01*
X157910574Y-100331800D01*
X157917886Y-100275628D01*
X157910852Y-100223538D01*
X157889749Y-100178890D01*
X157854344Y-100143078D01*
X157804405Y-100117498D01*
X157846030Y-100092035D01*
X157878819Y-100057502D01*
X157900097Y-100016574D01*
X157907189Y-99971926D01*
X157900420Y-99916089D01*
X157880111Y-99868883D01*
X157846263Y-99830306D01*
X157800478Y-99801755D01*
X157756122Y-99788216D01*
X157967651Y-99788216D01*
X158202520Y-100465384D01*
X158348093Y-100465384D01*
X158412711Y-100279814D01*
X158616914Y-100279814D01*
X158624071Y-100334591D01*
X158645542Y-100381720D01*
X158681328Y-100421201D01*
X158728380Y-100450915D01*
X158783648Y-100468743D01*
X158847132Y-100474686D01*
X158914647Y-100468640D01*
X158972706Y-100450501D01*
X159021307Y-100420270D01*
X159057869Y-100380015D01*
X159079805Y-100331800D01*
X159087117Y-100275628D01*
X159080083Y-100223538D01*
X159058980Y-100178890D01*
X159023575Y-100143078D01*
X158973636Y-100117498D01*
X159015261Y-100092035D01*
X159048050Y-100057502D01*
X159069328Y-100016574D01*
X159076420Y-99971926D01*
X159069651Y-99916089D01*
X159049342Y-99868883D01*
X159015494Y-99830306D01*
X158969709Y-99801755D01*
X158913588Y-99784625D01*
X158847132Y-99778914D01*
X158787891Y-99784844D01*
X158733883Y-99802634D01*
X158688188Y-99830946D01*
X158653888Y-99868444D01*
X158632436Y-99913267D01*
X158625285Y-99963554D01*
X158759695Y-99963554D01*
X158785740Y-99908441D01*
X158850388Y-99887280D01*
X158917593Y-99910069D01*
X158942010Y-99973786D01*
X158917360Y-100041689D01*
X158886083Y-100060874D01*
X158841551Y-100067269D01*
X158769927Y-100067269D01*
X158769927Y-100172379D01*
X158841086Y-100172379D01*
X158903098Y-100183644D01*
X158940305Y-100217440D01*
X158952707Y-100273768D01*
X158925499Y-100340973D01*
X158893118Y-100359983D01*
X158850388Y-100366320D01*
X158779927Y-100342136D01*
X158751324Y-100279814D01*
X158616914Y-100279814D01*
X158412711Y-100279814D01*
X158583892Y-99788216D01*
X158428553Y-99788216D01*
X158275074Y-100297487D01*
X158122525Y-99788216D01*
X157967651Y-99788216D01*
X157756122Y-99788216D01*
X157744357Y-99784625D01*
X157677901Y-99778914D01*
X157618660Y-99784844D01*
X157564652Y-99802634D01*
X157518957Y-99830946D01*
X157484657Y-99868444D01*
X157463205Y-99913267D01*
X157456054Y-99963554D01*
X157590465Y-99963554D01*
X157616509Y-99908441D01*
X157681157Y-99887280D01*
X157748362Y-99910069D01*
X157772779Y-99973786D01*
X157748129Y-100041689D01*
X157716852Y-100060874D01*
X157672320Y-100067269D01*
X157600696Y-100067269D01*
X157600696Y-100172379D01*
X157671855Y-100172379D01*
X157733867Y-100183644D01*
X157771074Y-100217440D01*
X157783476Y-100273768D01*
X157756268Y-100340973D01*
X157723887Y-100359983D01*
X157681157Y-100366320D01*
X157610696Y-100342136D01*
X157582093Y-100279814D01*
X157447683Y-100279814D01*
X156923408Y-100279814D01*
X156911777Y-100233382D01*
X156903911Y-100180349D01*
X156901280Y-100126800D01*
X156903911Y-100073251D01*
X156911777Y-100020218D01*
X156924805Y-99968211D01*
X156942866Y-99917731D01*
X156965789Y-99869265D01*
X156993352Y-99823279D01*
X157025290Y-99780216D01*
X157061294Y-99740491D01*
X157101019Y-99704486D01*
X157144082Y-99672549D01*
X157190068Y-99644986D01*
X157238534Y-99622063D01*
X157289014Y-99604001D01*
X157341021Y-99590974D01*
X157394054Y-99583107D01*
X157447603Y-99580477D01*
X159087197Y-99580477D01*
X159140746Y-99583107D01*
X159193779Y-99590974D01*
X159245786Y-99604001D01*
X159296266Y-99622063D01*
X159344732Y-99644986D01*
X159390718Y-99672549D01*
X159433781Y-99704486D01*
X159473506Y-99740491D01*
X159509510Y-99780216D01*
X159541448Y-99823279D01*
X159569011Y-99869265D01*
X159591934Y-99917731D01*
X159609995Y-99968211D01*
X159623023Y-100020218D01*
X159630889Y-100073251D01*
X159633520Y-100126800D01*
X159630889Y-100180349D01*
X159623023Y-100233382D01*
X159609995Y-100285389D01*
X159591934Y-100335869D01*
X159569011Y-100384335D01*
X159541448Y-100430321D01*
X159509510Y-100473384D01*
X159473506Y-100513109D01*
X159433781Y-100549114D01*
X159390718Y-100581051D01*
X159344732Y-100608614D01*
X159296266Y-100631537D01*
X159245786Y-100649599D01*
X159193779Y-100662626D01*
X159140746Y-100670493D01*
X159087197Y-100673123D01*
X157447603Y-100673123D01*
X157394054Y-100670493D01*
G37*
D12*
%TO.C,D4*%
X159202000Y-99396000D02*
X159202000Y-96536000D01*
X157282000Y-96536000D02*
X157282000Y-99396000D01*
X157282000Y-99396000D02*
X159202000Y-99396000D01*
%TO.C,C1*%
X154586000Y-90416748D02*
X154586000Y-90939252D01*
X156056000Y-90416748D02*
X156056000Y-90939252D01*
%TO.C,kibuzzard-644D5C68*%
G36*
X164219849Y-107911677D02*
G01*
X166409545Y-107911677D01*
X166081751Y-109004323D01*
X163892055Y-109004323D01*
X163954377Y-108796584D01*
X164299224Y-108796584D01*
X164438750Y-108796584D01*
X164438750Y-108548692D01*
X164549906Y-108548692D01*
X164676875Y-108796584D01*
X164826634Y-108796584D01*
X164826634Y-108790073D01*
X164717311Y-108583574D01*
X164878724Y-108583574D01*
X164887153Y-108645198D01*
X164912442Y-108698916D01*
X164953777Y-108743390D01*
X165010343Y-108777283D01*
X165078014Y-108798735D01*
X165152660Y-108805886D01*
X165222579Y-108800331D01*
X165282265Y-108783665D01*
X165331719Y-108755889D01*
X165368668Y-108718346D01*
X165390837Y-108672380D01*
X165398227Y-108617990D01*
X165384623Y-108545437D01*
X165343811Y-108485905D01*
X165300352Y-108452471D01*
X165242526Y-108422860D01*
X165170334Y-108397073D01*
X165113535Y-108376842D01*
X165072433Y-108355216D01*
X165039179Y-108299870D01*
X165067549Y-108242897D01*
X165101617Y-108226677D01*
X165147079Y-108221270D01*
X165194169Y-108227723D01*
X165229400Y-108247083D01*
X165251375Y-108278069D01*
X165258700Y-108319404D01*
X165398227Y-108319404D01*
X165390378Y-108261733D01*
X165376893Y-108232432D01*
X165450782Y-108232432D01*
X165655420Y-108232432D01*
X165655420Y-108796584D01*
X165794947Y-108796584D01*
X165794947Y-108232432D01*
X166002376Y-108232432D01*
X166002376Y-108119416D01*
X165450782Y-108119416D01*
X165450782Y-108232432D01*
X165376893Y-108232432D01*
X165366833Y-108210573D01*
X165329103Y-108168076D01*
X165278699Y-108136392D01*
X165218005Y-108116684D01*
X165149405Y-108110114D01*
X165080862Y-108116160D01*
X165019413Y-108134299D01*
X164968253Y-108163192D01*
X164930581Y-108201504D01*
X164907385Y-108247490D01*
X164899653Y-108299405D01*
X164912468Y-108364982D01*
X164950916Y-108420948D01*
X165014994Y-108467302D01*
X165064875Y-108490265D01*
X165129871Y-108513578D01*
X165191263Y-108536484D01*
X165230330Y-108558226D01*
X165258235Y-108618920D01*
X165230330Y-108675429D01*
X165196960Y-108690602D01*
X165152660Y-108695660D01*
X165094059Y-108688655D01*
X165052201Y-108667638D01*
X165027087Y-108632611D01*
X165018715Y-108583574D01*
X164878724Y-108583574D01*
X164717311Y-108583574D01*
X164680131Y-108513345D01*
X164733325Y-108481196D01*
X164771056Y-108439629D01*
X164793554Y-108387597D01*
X164801054Y-108324055D01*
X164793819Y-108263852D01*
X164772115Y-108213467D01*
X164735942Y-108172901D01*
X164686436Y-108143187D01*
X164624734Y-108125359D01*
X164550837Y-108119416D01*
X164299224Y-108119416D01*
X164299224Y-108796584D01*
X163954377Y-108796584D01*
X164219849Y-107911677D01*
G37*
G36*
X164599845Y-108239292D02*
G01*
X164634320Y-108259873D01*
X164654726Y-108292429D01*
X164661528Y-108335217D01*
X164654319Y-108377133D01*
X164632692Y-108408933D01*
X164597927Y-108428990D01*
X164551302Y-108435676D01*
X164438750Y-108435676D01*
X164438750Y-108232432D01*
X164550837Y-108232432D01*
X164599845Y-108239292D01*
G37*
%TO.C,SW1*%
X167870800Y-106250400D02*
X167380800Y-106740400D01*
X167870800Y-103350400D02*
X167380800Y-102860400D01*
X162430800Y-103350400D02*
X162920800Y-102860400D01*
X162430800Y-103350400D02*
X162430800Y-106250400D01*
X164110800Y-107520400D02*
X166190800Y-107520400D01*
X162430800Y-106250400D02*
X162920800Y-106740400D01*
X164110800Y-102080400D02*
X166190800Y-102080400D01*
X167870800Y-103350400D02*
X167870800Y-106250400D01*
%TO.C,R5*%
X161532000Y-97308936D02*
X161532000Y-97763064D01*
X160062000Y-97308936D02*
X160062000Y-97763064D01*
%TO.C,C4*%
X163735652Y-86031400D02*
X163213148Y-86031400D01*
X163735652Y-87501400D02*
X163213148Y-87501400D01*
%TO.C,kibuzzard-644D5758*%
G36*
X153347848Y-109509031D02*
G01*
X160023823Y-109509031D01*
X160451084Y-110933233D01*
X153775109Y-110933233D01*
X153624266Y-110430422D01*
X153907401Y-110430422D01*
X153921450Y-110533128D01*
X153963599Y-110622658D01*
X154032490Y-110696781D01*
X154126767Y-110753270D01*
X154239551Y-110789024D01*
X154363962Y-110800942D01*
X154480492Y-110791683D01*
X154579969Y-110763907D01*
X154662393Y-110717613D01*
X154723974Y-110655042D01*
X154760923Y-110578431D01*
X154773239Y-110487782D01*
X154750566Y-110366860D01*
X154682547Y-110267641D01*
X154610114Y-110211916D01*
X154513737Y-110162565D01*
X154393417Y-110119588D01*
X154298753Y-110085869D01*
X154230249Y-110049825D01*
X154174826Y-109957582D01*
X154222110Y-109862627D01*
X154278890Y-109835594D01*
X154354660Y-109826582D01*
X154433144Y-109837338D01*
X154491861Y-109869603D01*
X154528487Y-109921247D01*
X154540695Y-109990138D01*
X154773239Y-109990138D01*
X154760159Y-109894020D01*
X154737684Y-109845186D01*
X154860831Y-109845186D01*
X155201895Y-109845186D01*
X155201895Y-110785439D01*
X155434439Y-110785439D01*
X156528171Y-110785439D01*
X157254483Y-110785439D01*
X157402536Y-110785439D01*
X157635080Y-110785439D01*
X157850571Y-110785439D01*
X158083115Y-110785439D01*
X158083115Y-110042848D01*
X158535800Y-110785439D01*
X158768344Y-110785439D01*
X158971433Y-110785439D01*
X159203976Y-110785439D01*
X159203976Y-110462978D01*
X159324899Y-110332753D01*
X159614804Y-110785439D01*
X159891531Y-110785439D01*
X159479154Y-110158345D01*
X159879904Y-109656825D01*
X159593875Y-109656825D01*
X159306296Y-110028121D01*
X159203976Y-110168422D01*
X159203976Y-109656825D01*
X158971433Y-109656825D01*
X158971433Y-110785439D01*
X158768344Y-110785439D01*
X158768344Y-109656825D01*
X158536575Y-109656825D01*
X158536575Y-110400966D01*
X158083115Y-109656825D01*
X157850571Y-109656825D01*
X157850571Y-110785439D01*
X157635080Y-110785439D01*
X157635080Y-109656825D01*
X157402536Y-109656825D01*
X157402536Y-110785439D01*
X157254483Y-110785439D01*
X157254483Y-110598628D01*
X156760715Y-110598628D01*
X156760715Y-109656825D01*
X156528171Y-109656825D01*
X156528171Y-110785439D01*
X155434439Y-110785439D01*
X155434439Y-110392439D01*
X155897202Y-110392439D01*
X156333609Y-110392439D01*
X156333609Y-110211830D01*
X155897202Y-110211830D01*
X155897202Y-110392439D01*
X155434439Y-110392439D01*
X155434439Y-109845186D01*
X155780154Y-109845186D01*
X155780154Y-109656825D01*
X154860831Y-109656825D01*
X154860831Y-109845186D01*
X154737684Y-109845186D01*
X154720917Y-109808754D01*
X154658033Y-109737925D01*
X154574027Y-109685118D01*
X154472870Y-109652271D01*
X154358536Y-109641322D01*
X154244299Y-109651399D01*
X154141882Y-109681630D01*
X154056616Y-109729786D01*
X153993829Y-109793639D01*
X153955169Y-109870281D01*
X153942282Y-109956807D01*
X153963642Y-110066103D01*
X154027721Y-110159379D01*
X154134518Y-110236635D01*
X154217653Y-110274908D01*
X154325980Y-110313762D01*
X154428299Y-110351938D01*
X154493411Y-110388176D01*
X154539920Y-110489333D01*
X154493411Y-110583513D01*
X154437795Y-110608802D01*
X154363962Y-110617232D01*
X154266293Y-110605556D01*
X154196530Y-110570529D01*
X154154672Y-110512151D01*
X154140720Y-110430422D01*
X153907401Y-110430422D01*
X153624266Y-110430422D01*
X153347848Y-109509031D01*
G37*
%TO.C,C6*%
X163731752Y-81888000D02*
X163209248Y-81888000D01*
X163731752Y-80418000D02*
X163209248Y-80418000D01*
%TO.C,D2*%
X164902000Y-99396000D02*
X166822000Y-99396000D01*
X164902000Y-96536000D02*
X164902000Y-99396000D01*
X166822000Y-99396000D02*
X166822000Y-96536000D01*
%TO.C,kibuzzard-644D5750*%
G36*
X158501171Y-111207174D02*
G01*
X158545064Y-111240457D01*
X158564873Y-111274671D01*
X158576759Y-111318143D01*
X158580720Y-111370875D01*
X158580720Y-111400718D01*
X158576285Y-111451749D01*
X158564012Y-111494252D01*
X158543901Y-111528230D01*
X158499814Y-111561658D01*
X158439644Y-111572801D01*
X158383446Y-111572801D01*
X158383446Y-111196079D01*
X158440806Y-111196079D01*
X158501171Y-111207174D01*
G37*
G36*
X153441241Y-111404400D02*
G01*
X153124163Y-110928783D01*
X160858359Y-110928783D01*
X161175437Y-111404400D01*
X160858359Y-111880017D01*
X153124163Y-111880017D01*
X153234406Y-111714652D01*
X155006520Y-111714652D01*
X155089848Y-111714652D01*
X156814162Y-111714652D01*
X156897490Y-111714652D01*
X158727611Y-111714652D01*
X158810939Y-111714652D01*
X158887544Y-111488697D01*
X159055885Y-111488697D01*
X159062910Y-111540051D01*
X159083984Y-111584815D01*
X159118430Y-111621877D01*
X159165568Y-111650121D01*
X159221960Y-111667998D01*
X159284166Y-111673957D01*
X159342431Y-111669328D01*
X159392170Y-111655440D01*
X159433382Y-111632293D01*
X159464172Y-111601007D01*
X159482646Y-111562702D01*
X159488805Y-111517378D01*
X159477468Y-111456916D01*
X159443458Y-111407307D01*
X159407242Y-111379445D01*
X159359054Y-111354769D01*
X159298894Y-111333280D01*
X159251561Y-111316421D01*
X159217309Y-111298399D01*
X159189598Y-111252278D01*
X159213240Y-111204800D01*
X159241630Y-111191283D01*
X159279515Y-111186778D01*
X159318757Y-111192155D01*
X159348115Y-111208288D01*
X159366428Y-111234110D01*
X159372533Y-111268556D01*
X159488805Y-111268556D01*
X159482264Y-111220496D01*
X159462643Y-111177863D01*
X159431201Y-111142449D01*
X159389198Y-111116046D01*
X159345632Y-111101899D01*
X159530662Y-111101899D01*
X159655849Y-111666206D01*
X159772896Y-111666206D01*
X159864751Y-111288709D01*
X159956605Y-111666206D01*
X160073653Y-111666206D01*
X160261626Y-111666206D01*
X160436421Y-111666206D01*
X160484093Y-111662244D01*
X160528405Y-111650875D01*
X160569359Y-111632099D01*
X160605683Y-111606563D01*
X160636107Y-111574911D01*
X160660632Y-111537144D01*
X160678611Y-111494382D01*
X160689399Y-111447744D01*
X160692995Y-111397230D01*
X160692995Y-111371262D01*
X160689334Y-111320684D01*
X160678353Y-111273852D01*
X160660051Y-111230767D01*
X160635225Y-111192699D01*
X160604671Y-111160918D01*
X160568390Y-111135424D01*
X160527501Y-111116799D01*
X160483124Y-111105624D01*
X160435258Y-111101899D01*
X160261626Y-111101899D01*
X160261626Y-111666206D01*
X160073653Y-111666206D01*
X160198839Y-111101899D01*
X160082954Y-111101899D01*
X160006990Y-111503425D01*
X159914360Y-111101899D01*
X159815916Y-111101899D01*
X159722899Y-111502650D01*
X159646547Y-111101899D01*
X159530662Y-111101899D01*
X159345632Y-111101899D01*
X159338620Y-111099622D01*
X159281453Y-111094148D01*
X159224334Y-111099186D01*
X159173126Y-111114301D01*
X159130493Y-111138379D01*
X159099100Y-111170306D01*
X159079769Y-111208627D01*
X159073326Y-111251890D01*
X159084006Y-111306538D01*
X159116045Y-111353176D01*
X159169444Y-111391804D01*
X159211011Y-111410940D01*
X159265175Y-111430367D01*
X159316334Y-111449455D01*
X159348891Y-111467574D01*
X159372145Y-111518153D01*
X159348891Y-111565243D01*
X159321082Y-111577887D01*
X159284166Y-111582102D01*
X159235332Y-111576265D01*
X159200450Y-111558751D01*
X159179521Y-111529562D01*
X159172545Y-111488697D01*
X159055885Y-111488697D01*
X158887544Y-111488697D01*
X159018678Y-111101899D01*
X158935350Y-111101899D01*
X158727611Y-111714652D01*
X156897490Y-111714652D01*
X157002082Y-111406144D01*
X157152125Y-111406144D01*
X157155894Y-111458553D01*
X157166164Y-111506224D01*
X157182938Y-111549159D01*
X157219273Y-111602789D01*
X157268204Y-111641982D01*
X157307026Y-111659746D01*
X157349852Y-111670404D01*
X157396684Y-111673957D01*
X157463347Y-111668773D01*
X157473327Y-111666206D01*
X157706743Y-111666206D01*
X157823015Y-111666206D01*
X157823015Y-111294911D01*
X158049357Y-111666206D01*
X158165629Y-111666206D01*
X158267174Y-111666206D01*
X158441969Y-111666206D01*
X158489641Y-111662244D01*
X158533953Y-111650875D01*
X158574907Y-111632099D01*
X158611231Y-111606563D01*
X158641656Y-111574911D01*
X158666180Y-111537144D01*
X158684159Y-111494382D01*
X158694947Y-111447744D01*
X158698543Y-111397230D01*
X158698543Y-111371262D01*
X158694882Y-111320684D01*
X158683901Y-111273852D01*
X158665599Y-111230767D01*
X158640773Y-111192699D01*
X158610219Y-111160918D01*
X158573938Y-111135424D01*
X158533049Y-111116799D01*
X158488672Y-111105624D01*
X158440806Y-111101899D01*
X158267174Y-111101899D01*
X158267174Y-111666206D01*
X158165629Y-111666206D01*
X158165629Y-111101899D01*
X158049745Y-111101899D01*
X158049745Y-111473969D01*
X157823015Y-111101899D01*
X157706743Y-111101899D01*
X157706743Y-111666206D01*
X157473327Y-111666206D01*
X157523808Y-111653222D01*
X157574677Y-111628272D01*
X157612562Y-111594892D01*
X157612562Y-111369712D01*
X157390483Y-111369712D01*
X157390483Y-111455366D01*
X157496290Y-111455366D01*
X157496290Y-111552647D01*
X157458987Y-111573576D01*
X157402885Y-111580552D01*
X157345621Y-111569216D01*
X157304054Y-111535206D01*
X157285321Y-111500152D01*
X157274082Y-111455452D01*
X157270335Y-111401106D01*
X157270335Y-111365061D01*
X157273996Y-111311232D01*
X157284460Y-111267048D01*
X157301729Y-111232511D01*
X157339808Y-111199083D01*
X157392033Y-111187940D01*
X157433552Y-111193560D01*
X157465091Y-111210420D01*
X157486940Y-111239391D01*
X157499391Y-111281345D01*
X157612562Y-111281345D01*
X157600462Y-111225212D01*
X157578111Y-111178768D01*
X157545512Y-111142013D01*
X157502922Y-111115421D01*
X157450600Y-111099466D01*
X157388545Y-111094148D01*
X157342532Y-111097787D01*
X157300609Y-111108703D01*
X157262778Y-111126898D01*
X157215397Y-111166914D01*
X157180612Y-111221465D01*
X157164786Y-111265197D01*
X157155291Y-111313966D01*
X157152125Y-111367774D01*
X157152125Y-111406144D01*
X157002082Y-111406144D01*
X157105229Y-111101899D01*
X157021901Y-111101899D01*
X156814162Y-111714652D01*
X155089848Y-111714652D01*
X155166453Y-111488697D01*
X155334795Y-111488697D01*
X155341819Y-111540051D01*
X155362894Y-111584815D01*
X155397339Y-111621877D01*
X155444478Y-111650121D01*
X155500870Y-111667998D01*
X155563075Y-111673957D01*
X155621340Y-111669328D01*
X155671079Y-111655440D01*
X155712291Y-111632293D01*
X155743081Y-111601007D01*
X155761556Y-111562702D01*
X155767714Y-111517378D01*
X155756377Y-111456916D01*
X155722368Y-111407307D01*
X155713299Y-111400330D01*
X155829338Y-111400330D01*
X155833226Y-111460683D01*
X155844889Y-111514229D01*
X155864329Y-111560967D01*
X155891543Y-111600900D01*
X155925541Y-111632862D01*
X155965328Y-111655693D01*
X156010904Y-111669391D01*
X156062269Y-111673957D01*
X156124130Y-111668144D01*
X156130052Y-111666206D01*
X156365739Y-111666206D01*
X156482011Y-111666206D01*
X156482011Y-111504975D01*
X156542473Y-111439863D01*
X156687425Y-111666206D01*
X156825789Y-111666206D01*
X156619600Y-111352659D01*
X156819975Y-111101899D01*
X156676961Y-111101899D01*
X156533171Y-111287547D01*
X156482011Y-111357697D01*
X156482011Y-111101899D01*
X156365739Y-111101899D01*
X156365739Y-111666206D01*
X156130052Y-111666206D01*
X156177422Y-111650703D01*
X156222143Y-111621635D01*
X156256573Y-111582447D01*
X156278988Y-111534646D01*
X156289387Y-111478233D01*
X156173115Y-111478233D01*
X156163571Y-111523046D01*
X156142691Y-111554391D01*
X156109311Y-111572849D01*
X156062269Y-111579002D01*
X156010577Y-111568440D01*
X155974872Y-111536756D01*
X155959476Y-111503124D01*
X155950239Y-111458553D01*
X155947160Y-111403043D01*
X155947160Y-111360410D01*
X155950799Y-111307119D01*
X155960682Y-111264034D01*
X155976810Y-111231155D01*
X156012999Y-111199907D01*
X156063820Y-111189491D01*
X156110474Y-111195643D01*
X156143466Y-111214102D01*
X156164153Y-111246222D01*
X156173891Y-111293360D01*
X156290163Y-111293360D01*
X156278363Y-111235009D01*
X156255367Y-111186046D01*
X156221175Y-111146470D01*
X156177163Y-111117402D01*
X156124712Y-111099961D01*
X156063820Y-111094148D01*
X156018711Y-111097830D01*
X155977434Y-111108875D01*
X155939990Y-111127285D01*
X155892852Y-111167641D01*
X155858018Y-111222434D01*
X155842085Y-111265929D01*
X155832525Y-111313729D01*
X155829338Y-111365836D01*
X155829338Y-111400330D01*
X155713299Y-111400330D01*
X155686151Y-111379445D01*
X155637963Y-111354769D01*
X155577803Y-111333280D01*
X155530471Y-111316421D01*
X155496219Y-111298399D01*
X155468507Y-111252278D01*
X155492149Y-111204800D01*
X155520539Y-111191283D01*
X155558424Y-111186778D01*
X155597666Y-111192155D01*
X155627025Y-111208288D01*
X155645338Y-111234110D01*
X155651442Y-111268556D01*
X155767714Y-111268556D01*
X155761174Y-111220496D01*
X155741553Y-111177863D01*
X155710111Y-111142449D01*
X155668107Y-111116046D01*
X155617529Y-111099622D01*
X155560362Y-111094148D01*
X155503244Y-111099186D01*
X155452035Y-111114301D01*
X155409402Y-111138379D01*
X155378009Y-111170306D01*
X155358679Y-111208627D01*
X155352235Y-111251890D01*
X155362915Y-111306538D01*
X155394954Y-111353176D01*
X155448353Y-111391804D01*
X155489921Y-111410940D01*
X155544084Y-111430367D01*
X155595244Y-111449455D01*
X155627800Y-111467574D01*
X155651054Y-111518153D01*
X155627800Y-111565243D01*
X155599991Y-111577887D01*
X155563075Y-111582102D01*
X155514241Y-111576265D01*
X155479359Y-111558751D01*
X155458430Y-111529562D01*
X155451454Y-111488697D01*
X155334795Y-111488697D01*
X155166453Y-111488697D01*
X155297587Y-111101899D01*
X155214259Y-111101899D01*
X155006520Y-111714652D01*
X153234406Y-111714652D01*
X153369798Y-111511564D01*
X153606605Y-111511564D01*
X153612570Y-111557212D01*
X153630463Y-111596486D01*
X153660284Y-111629386D01*
X153699494Y-111654148D01*
X153745550Y-111669005D01*
X153798454Y-111673957D01*
X153854717Y-111668919D01*
X153903099Y-111653803D01*
X153943600Y-111628611D01*
X153974068Y-111595065D01*
X153992348Y-111554886D01*
X153998442Y-111508076D01*
X153992580Y-111464668D01*
X153974994Y-111427461D01*
X153945490Y-111397617D01*
X153903874Y-111376301D01*
X153938562Y-111355081D01*
X153965886Y-111326304D01*
X153983617Y-111292198D01*
X153989528Y-111254991D01*
X153983886Y-111208460D01*
X153966962Y-111169122D01*
X153938756Y-111136974D01*
X153900601Y-111113182D01*
X153863639Y-111101899D01*
X154039912Y-111101899D01*
X154235637Y-111666206D01*
X154356947Y-111666206D01*
X154410796Y-111511564D01*
X154580965Y-111511564D01*
X154586929Y-111557212D01*
X154604822Y-111596486D01*
X154634643Y-111629386D01*
X154673853Y-111654148D01*
X154719910Y-111669005D01*
X154772813Y-111673957D01*
X154829076Y-111668919D01*
X154877458Y-111653803D01*
X154917959Y-111628611D01*
X154948427Y-111595065D01*
X154966708Y-111554886D01*
X154972801Y-111508076D01*
X154966939Y-111464668D01*
X154949353Y-111427461D01*
X154919849Y-111397617D01*
X154878233Y-111376301D01*
X154912921Y-111355081D01*
X154940245Y-111326304D01*
X154957976Y-111292198D01*
X154963887Y-111254991D01*
X154958246Y-111208460D01*
X154941322Y-111169122D01*
X154913115Y-111136974D01*
X154874960Y-111113182D01*
X154828193Y-111098906D01*
X154772813Y-111094148D01*
X154723446Y-111099089D01*
X154678439Y-111113914D01*
X154640360Y-111137507D01*
X154611777Y-111168755D01*
X154593900Y-111206108D01*
X154587941Y-111248014D01*
X154699950Y-111248014D01*
X154721654Y-111202087D01*
X154775526Y-111184452D01*
X154831531Y-111203443D01*
X154851878Y-111256541D01*
X154831337Y-111313127D01*
X154805273Y-111329114D01*
X154768162Y-111334443D01*
X154708476Y-111334443D01*
X154708476Y-111422035D01*
X154767775Y-111422035D01*
X154819451Y-111431422D01*
X154850457Y-111459586D01*
X154860792Y-111506526D01*
X154838119Y-111562530D01*
X154811135Y-111578372D01*
X154775526Y-111583653D01*
X154716809Y-111563499D01*
X154692973Y-111511564D01*
X154580965Y-111511564D01*
X154410796Y-111511564D01*
X154553447Y-111101899D01*
X154423997Y-111101899D01*
X154296098Y-111526292D01*
X154168974Y-111101899D01*
X154039912Y-111101899D01*
X153863639Y-111101899D01*
X153853834Y-111098906D01*
X153798454Y-111094148D01*
X153749087Y-111099089D01*
X153704080Y-111113914D01*
X153666001Y-111137507D01*
X153637417Y-111168755D01*
X153619541Y-111206108D01*
X153613582Y-111248014D01*
X153725590Y-111248014D01*
X153747295Y-111202087D01*
X153801167Y-111184452D01*
X153857172Y-111203443D01*
X153877519Y-111256541D01*
X153856978Y-111313127D01*
X153830913Y-111329114D01*
X153793803Y-111334443D01*
X153734117Y-111334443D01*
X153734117Y-111422035D01*
X153793416Y-111422035D01*
X153845092Y-111431422D01*
X153876098Y-111459586D01*
X153886433Y-111506526D01*
X153863760Y-111562530D01*
X153836775Y-111578372D01*
X153801167Y-111583653D01*
X153742450Y-111563499D01*
X153718614Y-111511564D01*
X153606605Y-111511564D01*
X153369798Y-111511564D01*
X153441241Y-111404400D01*
G37*
G36*
X160495623Y-111207174D02*
G01*
X160539516Y-111240457D01*
X160559325Y-111274671D01*
X160571210Y-111318143D01*
X160575172Y-111370875D01*
X160575172Y-111400718D01*
X160570737Y-111451749D01*
X160558464Y-111494252D01*
X160538353Y-111528230D01*
X160494266Y-111561658D01*
X160434096Y-111572801D01*
X160377898Y-111572801D01*
X160377898Y-111196079D01*
X160435258Y-111196079D01*
X160495623Y-111207174D01*
G37*
%TO.C,J1*%
X164092000Y-112268000D02*
X171772000Y-112268000D01*
X164092000Y-112268000D02*
X164092000Y-109608000D01*
X164092000Y-109608000D02*
X171772000Y-109608000D01*
X171772000Y-112268000D02*
X171772000Y-109608000D01*
X162822000Y-112268000D02*
X161492000Y-112268000D01*
X161492000Y-112268000D02*
X161492000Y-110938000D01*
%TO.C,R4*%
X162572000Y-97763064D02*
X162572000Y-97308936D01*
X164042000Y-97763064D02*
X164042000Y-97308936D01*
%TO.C,SW2*%
X161724000Y-106250400D02*
X161234000Y-106740400D01*
X156284000Y-106250400D02*
X156774000Y-106740400D01*
X161724000Y-106250400D02*
X161724000Y-103350400D01*
X161724000Y-103350400D02*
X161234000Y-102860400D01*
X160044000Y-102080400D02*
X157964000Y-102080400D01*
X160044000Y-107520400D02*
X157964000Y-107520400D01*
X156284000Y-103350400D02*
X156774000Y-102860400D01*
X156284000Y-106250400D02*
X156284000Y-103350400D01*
%TO.C,C5*%
X159285000Y-83928852D02*
X159285000Y-83406348D01*
X160755000Y-83928852D02*
X160755000Y-83406348D01*
%TO.C,F1*%
X156468400Y-82303536D02*
X156468400Y-83507664D01*
X158288400Y-82303536D02*
X158288400Y-83507664D01*
%TO.C,kibuzzard-644D5F43*%
G36*
X156024827Y-75330310D02*
G01*
X155997961Y-75356871D01*
X155968548Y-75414292D01*
X155939270Y-75366430D01*
X155901228Y-75330310D01*
X156284567Y-75330310D01*
X156270396Y-75317440D01*
X156214958Y-75292216D01*
X156150370Y-75283809D01*
X156090476Y-75291897D01*
X156039138Y-75316162D01*
X156024827Y-75330310D01*
X155679191Y-75330310D01*
X155638328Y-75366163D01*
X155605500Y-75418808D01*
X155585802Y-75483337D01*
X155580598Y-75543900D01*
X155707943Y-75543900D01*
X155730041Y-75478732D01*
X155803305Y-75450656D01*
X155881381Y-75478999D01*
X155903440Y-75514962D01*
X155907595Y-75543900D01*
X155580598Y-75543900D01*
X155579236Y-75559749D01*
X155586055Y-75627866D01*
X155606510Y-75689966D01*
X155639064Y-75742507D01*
X155682179Y-75781946D01*
X155733718Y-75806612D01*
X155791540Y-75814834D01*
X155791540Y-75660286D01*
X155728170Y-75630339D01*
X155703838Y-75556006D01*
X155707943Y-75543900D01*
X156035793Y-75543900D01*
X156044604Y-75495399D01*
X156083464Y-75452617D01*
X156148231Y-75438357D01*
X156225505Y-75469641D01*
X156247363Y-75506874D01*
X156252855Y-75543900D01*
X155907595Y-75543900D01*
X155910793Y-75566167D01*
X155910793Y-75648521D01*
X156031651Y-75648521D01*
X156031651Y-75566701D01*
X156035793Y-75543900D01*
X156377832Y-75543900D01*
X156372299Y-75482119D01*
X156351443Y-75415362D01*
X156316683Y-75359478D01*
X156284567Y-75330310D01*
X156610761Y-75330310D01*
X156610761Y-75543900D01*
X156252855Y-75543900D01*
X156254650Y-75556006D01*
X156226842Y-75637023D01*
X156155183Y-75669912D01*
X156155183Y-75824460D01*
X156218167Y-75816230D01*
X156272356Y-75791542D01*
X156317752Y-75750394D01*
X156351918Y-75696294D01*
X156372418Y-75632745D01*
X156379251Y-75559749D01*
X156377832Y-75543900D01*
X156610761Y-75543900D01*
X156610761Y-76047088D01*
X154262622Y-76047088D01*
X154817896Y-76047088D01*
X154817896Y-76004990D01*
X154979493Y-75950586D01*
X154979493Y-75778754D01*
X154262622Y-76047088D01*
X154195208Y-76072322D01*
X154195208Y-76222069D01*
X154979493Y-76514021D01*
X154979493Y-76342190D01*
X154817896Y-76288324D01*
X154817896Y-76286500D01*
X155771753Y-76286500D01*
X155792308Y-76342190D01*
X155916232Y-76342190D01*
X155936462Y-76286500D01*
X155913734Y-76223398D01*
X155854642Y-76198798D01*
X155794748Y-76223665D01*
X155771753Y-76286500D01*
X154817896Y-76286500D01*
X154817896Y-76047088D01*
X156610761Y-76047088D01*
X156610761Y-76286500D01*
X156209729Y-76286500D01*
X156374438Y-76286500D01*
X156351710Y-76223398D01*
X156292618Y-76198798D01*
X156232724Y-76223665D01*
X156209729Y-76286500D01*
X156230284Y-76342190D01*
X155792308Y-76342190D01*
X155794748Y-76348801D01*
X155854642Y-76373668D01*
X155913734Y-76349068D01*
X155916232Y-76342190D01*
X156354208Y-76342190D01*
X156374438Y-76286500D01*
X156610761Y-76286500D01*
X156610761Y-76342190D01*
X156230284Y-76342190D01*
X156232724Y-76348801D01*
X156292618Y-76373668D01*
X156351710Y-76349068D01*
X156354208Y-76342190D01*
X156610761Y-76342190D01*
X156610761Y-76663485D01*
X155981850Y-76663485D01*
X156179782Y-76718059D01*
X155789935Y-76825548D01*
X155789935Y-76898084D01*
X156053658Y-76898084D01*
X156368555Y-76791857D01*
X156368555Y-76663485D01*
X156610761Y-76663485D01*
X156610761Y-76898084D01*
X155789935Y-76898084D01*
X155789935Y-76987048D01*
X156053658Y-76898084D01*
X156610761Y-76898084D01*
X156610761Y-77070437D01*
X156234891Y-77070437D01*
X156189943Y-77110579D01*
X156238473Y-77170607D01*
X156254650Y-77250154D01*
X156246093Y-77302896D01*
X156220424Y-77345610D01*
X156180584Y-77375758D01*
X156129514Y-77390798D01*
X156129514Y-77070437D01*
X156313281Y-77070437D01*
X156274971Y-77034642D01*
X156234891Y-77070437D01*
X155884264Y-77070437D01*
X155854108Y-77090526D01*
X155812515Y-77141596D01*
X155787559Y-77203897D01*
X155779240Y-77277427D01*
X155788532Y-77352228D01*
X155816406Y-77418339D01*
X155861461Y-77473086D01*
X155922291Y-77513795D01*
X155995621Y-77539063D01*
X156078176Y-77547486D01*
X156093149Y-77547486D01*
X156174018Y-77538603D01*
X156243360Y-77511953D01*
X156301175Y-77467538D01*
X156344550Y-77408981D01*
X156370576Y-77339906D01*
X156379251Y-77260315D01*
X156372366Y-77191330D01*
X156351710Y-77128762D01*
X156318755Y-77075552D01*
X156313281Y-77070437D01*
X156610761Y-77070437D01*
X156610761Y-78419166D01*
X152558039Y-79634983D01*
X152558039Y-78187655D01*
X152800401Y-78187655D01*
X153590430Y-78187655D01*
X153590430Y-78024875D01*
X153267582Y-78024875D01*
X153267582Y-77913453D01*
X154195208Y-77913453D01*
X155789935Y-77913453D01*
X155789935Y-77926102D01*
X156368555Y-77926102D01*
X156368555Y-77771554D01*
X155989939Y-77771554D01*
X155945420Y-77729174D01*
X155930580Y-77656579D01*
X155934858Y-77600963D01*
X155786192Y-77598824D01*
X155779240Y-77646953D01*
X155799160Y-77720350D01*
X155858921Y-77775832D01*
X155789935Y-77780110D01*
X155789935Y-77913453D01*
X154979493Y-77913453D01*
X154979493Y-77608573D01*
X154972431Y-77526338D01*
X154952680Y-77457749D01*
X154920241Y-77402806D01*
X154875353Y-77362706D01*
X154818255Y-77338646D01*
X154748948Y-77330626D01*
X154687810Y-77339312D01*
X154636907Y-77365369D01*
X154598797Y-77406509D01*
X154576039Y-77460442D01*
X154549712Y-77413444D01*
X154511669Y-77378028D01*
X154464335Y-77355808D01*
X154410132Y-77348402D01*
X154345404Y-77356601D01*
X154291987Y-77381200D01*
X154249882Y-77422198D01*
X154219507Y-77479056D01*
X154201283Y-77551236D01*
X154195208Y-77638738D01*
X154195208Y-77913453D01*
X153267582Y-77913453D01*
X153267582Y-77712336D01*
X153136272Y-77712336D01*
X153136272Y-78024875D01*
X152932254Y-78024875D01*
X152932254Y-77673268D01*
X152800401Y-77673268D01*
X152800401Y-78187655D01*
X152558039Y-78187655D01*
X152558039Y-77578855D01*
X152800401Y-77578855D01*
X153590430Y-77578855D01*
X153590430Y-77070437D01*
X153459663Y-77070437D01*
X153459663Y-77416075D01*
X152800401Y-77416075D01*
X152800401Y-77578855D01*
X152558039Y-77578855D01*
X152558039Y-76664570D01*
X152789549Y-76664570D01*
X152794824Y-76727964D01*
X152810650Y-76786475D01*
X152837027Y-76840102D01*
X152873261Y-76887429D01*
X152918658Y-76927039D01*
X152973220Y-76958932D01*
X153035469Y-76982294D01*
X153103927Y-76996311D01*
X153178595Y-77000984D01*
X153217663Y-77000984D01*
X153290703Y-76995980D01*
X153357895Y-76981691D01*
X153419239Y-76958118D01*
X153473168Y-76926044D01*
X153503534Y-76899161D01*
X154184435Y-76899161D01*
X154189672Y-76962095D01*
X154205383Y-77020180D01*
X154230101Y-77070437D01*
X154231567Y-77073417D01*
X154267538Y-77120400D01*
X154312605Y-77159722D01*
X154366770Y-77191383D01*
X154428566Y-77214575D01*
X154496527Y-77228490D01*
X154570652Y-77233129D01*
X154609435Y-77233129D01*
X154681945Y-77228161D01*
X154748648Y-77213977D01*
X154809547Y-77190575D01*
X154863083Y-77158734D01*
X154907702Y-77119233D01*
X154943403Y-77072070D01*
X154944200Y-77070437D01*
X156129514Y-77070437D01*
X156129514Y-77022343D01*
X156066411Y-77022343D01*
X155981739Y-77029918D01*
X155910971Y-77052646D01*
X155884264Y-77070437D01*
X154230101Y-77070437D01*
X154944200Y-77070437D01*
X154969438Y-77018743D01*
X154985059Y-76960748D01*
X154990266Y-76898084D01*
X154984999Y-76834852D01*
X154969199Y-76776587D01*
X154942864Y-76723290D01*
X154906834Y-76676397D01*
X154891993Y-76663485D01*
X156368555Y-76663485D01*
X156368555Y-76644261D01*
X155789935Y-76449070D01*
X155789935Y-76610570D01*
X155981850Y-76663485D01*
X154284085Y-76663485D01*
X154891993Y-76663485D01*
X154861946Y-76637344D01*
X154808200Y-76606132D01*
X154746853Y-76583389D01*
X154679162Y-76569743D01*
X154605126Y-76565194D01*
X154570113Y-76565194D01*
X154496287Y-76569832D01*
X154428506Y-76583748D01*
X154366770Y-76606940D01*
X154312605Y-76638601D01*
X154284085Y-76663485D01*
X154267538Y-76677923D01*
X154231567Y-76724906D01*
X154205383Y-76778143D01*
X154189672Y-76836228D01*
X154184435Y-76899161D01*
X153503534Y-76899161D01*
X153518114Y-76886253D01*
X153554076Y-76838746D01*
X153580302Y-76785028D01*
X153596037Y-76726608D01*
X153601283Y-76663485D01*
X153595977Y-76599789D01*
X153580061Y-76541098D01*
X153553534Y-76487410D01*
X153517239Y-76440174D01*
X153472023Y-76400835D01*
X153417883Y-76369394D01*
X153356086Y-76346484D01*
X153287899Y-76332738D01*
X153213322Y-76328157D01*
X153178053Y-76328157D01*
X153103686Y-76332829D01*
X153035408Y-76346846D01*
X152973220Y-76370208D01*
X152918658Y-76402101D01*
X152873261Y-76441711D01*
X152837027Y-76489038D01*
X152810650Y-76542665D01*
X152794824Y-76601176D01*
X152789549Y-76664570D01*
X152558039Y-76664570D01*
X152558039Y-76209869D01*
X152800401Y-76209869D01*
X153590430Y-76209869D01*
X153590430Y-76047088D01*
X153312075Y-76047088D01*
X153312075Y-75904384D01*
X153304630Y-75817477D01*
X153282293Y-75744135D01*
X153258229Y-75705497D01*
X154195208Y-75705497D01*
X154979493Y-75705497D01*
X154979493Y-75543900D01*
X154692389Y-75543900D01*
X154692389Y-75415161D01*
X154858050Y-75330310D01*
X155901228Y-75330310D01*
X155899563Y-75328729D01*
X155852503Y-75304263D01*
X155801166Y-75296108D01*
X155736964Y-75303892D01*
X155682685Y-75327244D01*
X155679191Y-75330310D01*
X154201945Y-75330310D01*
X154858050Y-75330310D01*
X154979493Y-75268107D01*
X154979493Y-75094659D01*
X154971952Y-75094659D01*
X154651451Y-75264337D01*
X154614216Y-75202728D01*
X154566074Y-75159029D01*
X154505811Y-75132971D01*
X154432217Y-75124286D01*
X154362491Y-75132665D01*
X154304136Y-75157802D01*
X154257154Y-75199698D01*
X154222739Y-75257035D01*
X154202091Y-75328497D01*
X154201945Y-75330310D01*
X154195208Y-75414083D01*
X154195208Y-75705497D01*
X153258229Y-75705497D01*
X153245064Y-75684359D01*
X153194934Y-75640197D01*
X153133891Y-75613700D01*
X153061936Y-75604867D01*
X152989566Y-75613956D01*
X152925471Y-75641222D01*
X152872364Y-75685376D01*
X152832957Y-75745130D01*
X152808540Y-75818042D01*
X152800401Y-75901671D01*
X152800401Y-76209869D01*
X152558039Y-76209869D01*
X152558039Y-75493091D01*
X152800401Y-75493091D01*
X153590430Y-75493091D01*
X153590430Y-75330310D01*
X153312075Y-75330310D01*
X153312075Y-75187606D01*
X153304630Y-75100699D01*
X153282293Y-75027357D01*
X153245064Y-74967581D01*
X153194934Y-74923419D01*
X153133891Y-74896922D01*
X153061936Y-74888089D01*
X152989566Y-74897178D01*
X152925471Y-74924444D01*
X152872364Y-74968598D01*
X152832957Y-75028352D01*
X152808540Y-75101264D01*
X152800401Y-75184893D01*
X152800401Y-75493091D01*
X152558039Y-75493091D01*
X152558039Y-74845766D01*
X152800401Y-74845766D01*
X153303936Y-74586402D01*
X153590430Y-74586402D01*
X153590430Y-74420909D01*
X153303936Y-74420909D01*
X152800401Y-74161545D01*
X152800401Y-74339518D01*
X153156348Y-74503927D01*
X152800401Y-74667250D01*
X152800401Y-74845766D01*
X152558039Y-74845766D01*
X152558039Y-73930034D01*
X156610761Y-72714217D01*
X156610761Y-74420909D01*
X154440103Y-74420909D01*
X154736248Y-74420909D01*
X154675870Y-74406944D01*
X154605665Y-74401946D01*
X154569575Y-74401946D01*
X154499280Y-74407033D01*
X154440103Y-74420909D01*
X154434192Y-74422295D01*
X154374312Y-74447732D01*
X154321403Y-74482236D01*
X154277233Y-74524700D01*
X154241802Y-74575124D01*
X154215916Y-74631953D01*
X154200385Y-74693629D01*
X154195208Y-74760153D01*
X154195208Y-75001472D01*
X156260365Y-75001472D01*
X156232724Y-75012948D01*
X156209729Y-75075783D01*
X156232724Y-75138084D01*
X156292618Y-75162951D01*
X156351710Y-75138351D01*
X156374438Y-75075783D01*
X156351710Y-75012681D01*
X156324785Y-75001472D01*
X156292618Y-74988081D01*
X156260365Y-75001472D01*
X154979493Y-75001472D01*
X154979493Y-74758537D01*
X154973987Y-74692282D01*
X154958186Y-74630696D01*
X154932091Y-74573778D01*
X154896600Y-74523294D01*
X154855506Y-74483794D01*
X155588862Y-74483794D01*
X155588862Y-74500372D01*
X155704372Y-74822838D01*
X155830043Y-74822838D01*
X155772823Y-74638342D01*
X156368555Y-74638342D01*
X156368555Y-74483794D01*
X155588862Y-74483794D01*
X154855506Y-74483794D01*
X154852609Y-74481009D01*
X154800120Y-74446924D01*
X154740688Y-74421936D01*
X154736248Y-74420909D01*
X156610761Y-74420909D01*
X156610761Y-75330310D01*
X156024827Y-75330310D01*
G37*
G36*
X154681436Y-74571863D02*
G01*
X154740509Y-74588920D01*
X154787731Y-74616870D01*
X154834190Y-74678143D01*
X154849677Y-74761769D01*
X154849677Y-74839875D01*
X154326102Y-74839875D01*
X154326102Y-74760153D01*
X154341521Y-74676257D01*
X154387778Y-74615254D01*
X154435329Y-74587723D01*
X154495749Y-74571204D01*
X154569036Y-74565698D01*
X154610513Y-74565698D01*
X154681436Y-74571863D01*
G37*
G36*
X154687002Y-76244693D02*
G01*
X154393434Y-76147196D01*
X154687002Y-76048622D01*
X154687002Y-76244693D01*
G37*
G36*
X154479499Y-77523585D02*
G01*
X154511998Y-77564343D01*
X154523789Y-77632274D01*
X154523789Y-77751856D01*
X154326102Y-77751856D01*
X154326102Y-77638738D01*
X154331960Y-77580900D01*
X154349533Y-77540972D01*
X154426292Y-77509999D01*
X154479499Y-77523585D01*
G37*
G36*
X154493691Y-75294232D02*
G01*
X154530522Y-75319280D01*
X154553752Y-75359544D01*
X154561495Y-75413545D01*
X154561495Y-75543900D01*
X154326102Y-75543900D01*
X154326102Y-75414083D01*
X154334047Y-75357322D01*
X154357882Y-75317394D01*
X154395588Y-75293761D01*
X154445145Y-75285883D01*
X154493691Y-75294232D01*
G37*
G36*
X153112940Y-75777754D02*
G01*
X153149837Y-75803189D01*
X153172627Y-75844765D01*
X153180223Y-75901671D01*
X153180223Y-76047088D01*
X152932254Y-76047088D01*
X152932254Y-75897873D01*
X152942020Y-75844155D01*
X152969151Y-75803460D01*
X153010524Y-75777822D01*
X153063021Y-75769276D01*
X153112940Y-75777754D01*
G37*
G36*
X153291607Y-76498293D02*
G01*
X153354097Y-76513124D01*
X153403504Y-76537601D01*
X153451728Y-76591047D01*
X153467802Y-76663485D01*
X153451117Y-76737279D01*
X153401062Y-76791539D01*
X153350540Y-76816258D01*
X153287960Y-76831089D01*
X153213322Y-76836032D01*
X153174797Y-76836032D01*
X153099285Y-76830787D01*
X153036976Y-76815775D01*
X152987870Y-76790996D01*
X152940054Y-76737143D01*
X152924115Y-76664570D01*
X152940257Y-76591590D01*
X152988684Y-76537601D01*
X153038363Y-76512883D01*
X153101304Y-76498051D01*
X153177510Y-76493108D01*
X153216035Y-76493108D01*
X153291607Y-76498293D01*
G37*
G36*
X156024164Y-77389194D02*
G01*
X155973094Y-77376025D01*
X155935393Y-77352562D01*
X155904376Y-77277962D01*
X155932451Y-77202025D01*
X156011865Y-77174217D01*
X156024164Y-77174217D01*
X156024164Y-77389194D01*
G37*
G36*
X154822474Y-77524273D02*
G01*
X154842876Y-77562585D01*
X154849677Y-77613421D01*
X154849677Y-77751856D01*
X154637984Y-77751856D01*
X154637984Y-77603725D01*
X154650852Y-77541780D01*
X154687301Y-77504612D01*
X154747332Y-77492223D01*
X154822474Y-77524273D01*
G37*
G36*
X154682842Y-76734093D02*
G01*
X154744878Y-76748816D01*
X154793926Y-76773116D01*
X154841799Y-76826173D01*
X154857756Y-76898084D01*
X154841193Y-76971341D01*
X154791502Y-77025207D01*
X154741347Y-77049746D01*
X154679221Y-77064469D01*
X154605126Y-77069377D01*
X154566881Y-77069377D01*
X154491918Y-77064170D01*
X154430063Y-77049267D01*
X154381314Y-77024669D01*
X154333845Y-76971207D01*
X154318022Y-76899161D01*
X154334047Y-76826712D01*
X154382122Y-76773116D01*
X154431439Y-76748577D01*
X154493923Y-76733853D01*
X154569575Y-76728946D01*
X154607819Y-76728946D01*
X154682842Y-76734093D01*
G37*
G36*
X153112940Y-75060976D02*
G01*
X153149837Y-75086411D01*
X153172627Y-75127988D01*
X153180223Y-75184893D01*
X153180223Y-75330310D01*
X152932254Y-75330310D01*
X152932254Y-75181095D01*
X152942020Y-75127377D01*
X152969151Y-75086682D01*
X153010524Y-75061044D01*
X153063021Y-75052498D01*
X153112940Y-75060976D01*
G37*
%TO.C,C2*%
X156745000Y-90416748D02*
X156745000Y-90939252D01*
X158215000Y-90416748D02*
X158215000Y-90939252D01*
%TO.C,U3*%
X163576000Y-85532400D02*
X164226000Y-85532400D01*
X163576000Y-82412400D02*
X161901000Y-82412400D01*
X163576000Y-82412400D02*
X164226000Y-82412400D01*
X163576000Y-85532400D02*
X162926000Y-85532400D01*
%TO.C,G\u002A\u002A\u002A*%
G36*
X167873946Y-74183293D02*
G01*
X167885187Y-74185744D01*
X167899054Y-74189995D01*
X167916264Y-74196181D01*
X167937530Y-74204435D01*
X167949585Y-74209250D01*
X167983001Y-74223019D01*
X168011126Y-74235354D01*
X168034069Y-74246310D01*
X168051940Y-74255940D01*
X168064848Y-74264299D01*
X168070637Y-74269084D01*
X168078112Y-74277444D01*
X168083775Y-74287152D01*
X168088400Y-74299779D01*
X168091449Y-74311252D01*
X168092094Y-74314398D01*
X168092680Y-74318415D01*
X168093213Y-74323587D01*
X168093695Y-74330199D01*
X168094132Y-74338535D01*
X168094528Y-74348881D01*
X168094887Y-74361520D01*
X168095213Y-74376738D01*
X168095511Y-74394820D01*
X168095786Y-74416049D01*
X168096041Y-74440712D01*
X168096281Y-74469092D01*
X168096510Y-74501474D01*
X168096733Y-74538144D01*
X168096954Y-74579385D01*
X168097177Y-74625483D01*
X168097407Y-74676723D01*
X168097552Y-74710729D01*
X168099162Y-75091547D01*
X168105841Y-75108120D01*
X168116742Y-75127883D01*
X168131973Y-75144277D01*
X168151035Y-75156771D01*
X168152022Y-75157255D01*
X168157524Y-75159623D01*
X168167708Y-75163707D01*
X168181998Y-75169291D01*
X168199820Y-75176159D01*
X168220599Y-75184098D01*
X168243759Y-75192891D01*
X168268725Y-75202323D01*
X168294923Y-75212180D01*
X168321776Y-75222245D01*
X168348711Y-75232304D01*
X168375151Y-75242141D01*
X168400522Y-75251541D01*
X168424248Y-75260290D01*
X168445755Y-75268171D01*
X168464467Y-75274969D01*
X168479810Y-75280470D01*
X168491207Y-75284457D01*
X168497341Y-75286489D01*
X168521456Y-75292912D01*
X168541504Y-75295826D01*
X168557795Y-75295217D01*
X168570635Y-75291071D01*
X168580332Y-75283377D01*
X168580694Y-75282954D01*
X168583553Y-75279319D01*
X168586116Y-75275370D01*
X168588400Y-75270796D01*
X168590421Y-75265288D01*
X168592194Y-75258536D01*
X168593738Y-75250232D01*
X168595067Y-75240066D01*
X168596198Y-75227729D01*
X168597147Y-75212911D01*
X168597932Y-75195303D01*
X168598567Y-75174595D01*
X168599069Y-75150479D01*
X168599454Y-75122644D01*
X168599740Y-75090782D01*
X168599941Y-75054583D01*
X168600075Y-75013738D01*
X168600158Y-74967937D01*
X168600205Y-74916872D01*
X168600208Y-74912339D01*
X168600386Y-74626725D01*
X168606973Y-74613348D01*
X168615421Y-74601029D01*
X168626092Y-74593814D01*
X168637521Y-74591723D01*
X168646524Y-74592712D01*
X168659465Y-74595448D01*
X168675086Y-74599588D01*
X168692132Y-74604787D01*
X168709343Y-74610704D01*
X168715891Y-74613155D01*
X168741793Y-74623103D01*
X168741985Y-74640315D01*
X168742046Y-74645829D01*
X168742162Y-74656472D01*
X168742329Y-74671775D01*
X168742541Y-74691267D01*
X168742794Y-74714479D01*
X168743082Y-74740939D01*
X168743400Y-74770179D01*
X168743743Y-74801727D01*
X168744106Y-74835113D01*
X168744483Y-74869868D01*
X168744549Y-74875937D01*
X168745093Y-74922682D01*
X168745650Y-74963909D01*
X168746223Y-74999701D01*
X168746814Y-75030138D01*
X168747424Y-75055304D01*
X168748056Y-75075281D01*
X168748712Y-75090150D01*
X168749392Y-75099994D01*
X168750101Y-75104895D01*
X168750110Y-75104924D01*
X168756841Y-75118533D01*
X168767884Y-75130936D01*
X168781953Y-75140758D01*
X168785174Y-75142366D01*
X168803390Y-75147809D01*
X168824476Y-75148572D01*
X168848218Y-75144651D01*
X168852418Y-75143542D01*
X168862008Y-75140998D01*
X168869186Y-75139311D01*
X168872546Y-75138809D01*
X168872625Y-75138842D01*
X168872817Y-75141700D01*
X168873071Y-75149567D01*
X168873375Y-75161853D01*
X168873717Y-75177966D01*
X168874085Y-75197316D01*
X168874466Y-75219313D01*
X168874849Y-75243364D01*
X168875010Y-75254154D01*
X168875501Y-75284722D01*
X168876016Y-75310189D01*
X168876576Y-75331057D01*
X168877204Y-75347824D01*
X168877923Y-75360993D01*
X168878756Y-75371061D01*
X168879725Y-75378531D01*
X168880853Y-75383902D01*
X168880891Y-75384041D01*
X168887388Y-75402889D01*
X168896076Y-75419058D01*
X168907552Y-75433073D01*
X168922414Y-75445461D01*
X168941258Y-75456746D01*
X168964681Y-75467456D01*
X168984004Y-75474849D01*
X169012328Y-75485082D01*
X169035839Y-75493649D01*
X169055006Y-75500741D01*
X169070299Y-75506549D01*
X169082186Y-75511265D01*
X169091138Y-75515081D01*
X169097624Y-75518188D01*
X169102114Y-75520778D01*
X169105076Y-75523043D01*
X169106845Y-75524988D01*
X169109667Y-75530896D01*
X169113260Y-75541862D01*
X169117525Y-75557413D01*
X169122363Y-75577073D01*
X169127675Y-75600368D01*
X169133363Y-75626826D01*
X169139328Y-75655970D01*
X169145472Y-75687328D01*
X169151695Y-75720424D01*
X169157900Y-75754785D01*
X169163988Y-75789937D01*
X169169859Y-75825405D01*
X169171618Y-75836382D01*
X169175419Y-75860816D01*
X169178226Y-75880352D01*
X169180072Y-75895594D01*
X169180986Y-75907151D01*
X169181001Y-75915628D01*
X169180145Y-75921633D01*
X169178452Y-75925772D01*
X169176293Y-75928353D01*
X169168394Y-75931982D01*
X169156525Y-75932649D01*
X169141446Y-75930386D01*
X169126811Y-75926228D01*
X169119212Y-75923536D01*
X169107238Y-75919134D01*
X169091733Y-75913339D01*
X169073542Y-75906470D01*
X169053511Y-75898844D01*
X169032482Y-75890779D01*
X169026006Y-75888283D01*
X168968359Y-75866117D01*
X168907023Y-75842677D01*
X168842580Y-75818180D01*
X168775613Y-75792842D01*
X168706705Y-75766880D01*
X168636438Y-75740510D01*
X168565394Y-75713948D01*
X168494157Y-75687412D01*
X168423309Y-75661117D01*
X168353432Y-75635281D01*
X168285109Y-75610119D01*
X168218923Y-75585848D01*
X168155455Y-75562684D01*
X168095290Y-75540845D01*
X168039008Y-75520546D01*
X167987194Y-75502005D01*
X167973184Y-75497022D01*
X167948294Y-75488102D01*
X167927968Y-75480590D01*
X167911449Y-75474142D01*
X167897980Y-75468414D01*
X167886807Y-75463062D01*
X167877172Y-75457742D01*
X167868321Y-75452110D01*
X167859496Y-75445823D01*
X167857725Y-75444500D01*
X167841613Y-75429083D01*
X167829977Y-75410376D01*
X167822754Y-75388269D01*
X167821102Y-75378561D01*
X167820868Y-75373994D01*
X167820644Y-75364101D01*
X167820429Y-75349153D01*
X167820226Y-75329424D01*
X167820036Y-75305187D01*
X167819858Y-75276715D01*
X167819695Y-75244280D01*
X167819546Y-75208156D01*
X167819414Y-75168617D01*
X167819299Y-75125933D01*
X167819201Y-75080380D01*
X167819123Y-75032230D01*
X167819064Y-74981756D01*
X167819026Y-74929230D01*
X167819010Y-74874927D01*
X167819016Y-74819118D01*
X167819031Y-74786333D01*
X167819062Y-74718630D01*
X167819080Y-74656304D01*
X167819095Y-74599130D01*
X167819115Y-74546882D01*
X167819147Y-74499338D01*
X167819200Y-74456273D01*
X167819282Y-74417463D01*
X167819401Y-74382683D01*
X167819566Y-74351708D01*
X167819785Y-74324316D01*
X167820066Y-74300281D01*
X167820417Y-74279380D01*
X167820847Y-74261387D01*
X167821363Y-74246079D01*
X167821975Y-74233232D01*
X167822689Y-74222620D01*
X167823515Y-74214021D01*
X167824461Y-74207209D01*
X167825534Y-74201961D01*
X167826744Y-74198052D01*
X167828098Y-74195257D01*
X167829605Y-74193353D01*
X167831272Y-74192115D01*
X167833109Y-74191320D01*
X167835122Y-74190742D01*
X167837322Y-74190157D01*
X167839714Y-74189342D01*
X167840958Y-74188791D01*
X167848839Y-74185390D01*
X167856487Y-74183250D01*
X167864618Y-74182506D01*
X167873946Y-74183293D01*
G37*
G36*
X171155621Y-76457882D02*
G01*
X171138706Y-76451547D01*
X171114106Y-76442396D01*
X171092279Y-76434316D01*
X171072192Y-76426935D01*
X171052809Y-76419878D01*
X171033096Y-76412772D01*
X171012018Y-76405243D01*
X170988539Y-76396919D01*
X170961625Y-76387426D01*
X170937170Y-76378825D01*
X170899443Y-76365567D01*
X170897489Y-76354121D01*
X170895855Y-76343500D01*
X170893770Y-76328359D01*
X170891358Y-76309748D01*
X170888744Y-76288718D01*
X170886051Y-76266321D01*
X170883403Y-76243605D01*
X170880924Y-76221624D01*
X170878739Y-76201426D01*
X170876971Y-76184062D01*
X170875744Y-76170584D01*
X170875566Y-76168338D01*
X170873209Y-76126560D01*
X170873034Y-76116551D01*
X171021651Y-76116551D01*
X171022280Y-76142244D01*
X171025864Y-76171275D01*
X171029921Y-76192379D01*
X171033049Y-76206761D01*
X171062776Y-76220997D01*
X171097082Y-76236599D01*
X171128679Y-76249289D01*
X171157187Y-76258944D01*
X171182224Y-76265442D01*
X171203408Y-76268658D01*
X171211538Y-76269003D01*
X171233390Y-76266749D01*
X171251826Y-76260253D01*
X171266561Y-76249917D01*
X171277312Y-76236139D01*
X171283798Y-76219320D01*
X171285734Y-76199860D01*
X171282837Y-76178159D01*
X171280901Y-76170998D01*
X171272349Y-76149586D01*
X171259728Y-76129301D01*
X171242387Y-76109135D01*
X171238466Y-76105195D01*
X171217749Y-76087170D01*
X171195087Y-76071633D01*
X171171253Y-76058838D01*
X171147017Y-76049038D01*
X171123151Y-76042489D01*
X171100427Y-76039444D01*
X171079616Y-76040157D01*
X171061489Y-76044883D01*
X171058902Y-76046023D01*
X171047792Y-76052002D01*
X171040012Y-76058581D01*
X171033891Y-76067512D01*
X171029269Y-76077066D01*
X171023980Y-76094668D01*
X171021651Y-76116551D01*
X170873034Y-76116551D01*
X170872490Y-76085494D01*
X170873366Y-76046038D01*
X170875794Y-76009089D01*
X170879729Y-75975544D01*
X170885128Y-75946302D01*
X170886672Y-75939886D01*
X170896053Y-75911272D01*
X170908665Y-75887156D01*
X170924746Y-75867300D01*
X170944538Y-75851467D01*
X170968282Y-75839419D01*
X170996217Y-75830918D01*
X170997122Y-75830716D01*
X171008666Y-75828507D01*
X171019975Y-75827245D01*
X171032770Y-75826836D01*
X171048768Y-75827184D01*
X171055925Y-75827490D01*
X171086359Y-75830008D01*
X171115005Y-75834855D01*
X171143285Y-75842419D01*
X171172618Y-75853083D01*
X171204422Y-75867235D01*
X171207309Y-75868623D01*
X171249890Y-75891820D01*
X171289231Y-75918571D01*
X171324897Y-75948474D01*
X171356448Y-75981128D01*
X171383447Y-76016132D01*
X171402684Y-76047792D01*
X171417980Y-76081664D01*
X171428360Y-76116558D01*
X171433867Y-76151904D01*
X171434546Y-76187129D01*
X171430441Y-76221663D01*
X171421595Y-76254933D01*
X171408053Y-76286369D01*
X171389859Y-76315398D01*
X171381222Y-76326288D01*
X171375649Y-76333194D01*
X171372131Y-76338199D01*
X171371421Y-76340030D01*
X171374336Y-76341287D01*
X171381881Y-76344267D01*
X171393435Y-76348738D01*
X171408383Y-76354467D01*
X171426104Y-76361219D01*
X171445982Y-76368762D01*
X171467397Y-76376863D01*
X171489732Y-76385288D01*
X171512368Y-76393804D01*
X171534688Y-76402179D01*
X171556071Y-76410178D01*
X171575902Y-76417569D01*
X171593560Y-76424118D01*
X171608429Y-76429592D01*
X171619889Y-76433758D01*
X171620218Y-76433876D01*
X171666309Y-76450436D01*
X171666462Y-76557128D01*
X171666484Y-76580951D01*
X171666480Y-76602921D01*
X171666452Y-76622432D01*
X171666402Y-76638877D01*
X171666332Y-76651648D01*
X171666244Y-76660137D01*
X171666140Y-76663739D01*
X171666120Y-76663821D01*
X171663518Y-76662776D01*
X171656627Y-76659881D01*
X171646302Y-76655500D01*
X171633401Y-76649995D01*
X171622676Y-76645402D01*
X171583082Y-76628592D01*
X171539266Y-76610292D01*
X171492219Y-76590899D01*
X171442931Y-76570811D01*
X171392393Y-76550423D01*
X171341596Y-76530132D01*
X171291529Y-76510336D01*
X171243184Y-76491431D01*
X171211538Y-76479214D01*
X171197551Y-76473814D01*
X171155621Y-76457882D01*
G37*
G36*
X171141936Y-72854465D02*
G01*
X171095283Y-72835986D01*
X171048444Y-72817577D01*
X171002009Y-72799469D01*
X170956568Y-72781893D01*
X170912712Y-72765078D01*
X170871032Y-72749254D01*
X170832117Y-72734653D01*
X170796558Y-72721503D01*
X170764946Y-72710036D01*
X170737870Y-72700481D01*
X170736202Y-72699904D01*
X170704716Y-72689033D01*
X170704700Y-72580497D01*
X170704685Y-72471961D01*
X170726386Y-72482860D01*
X170736533Y-72487760D01*
X170749715Y-72493831D01*
X170765182Y-72500755D01*
X170782181Y-72508215D01*
X170799963Y-72515894D01*
X170817775Y-72523474D01*
X170834868Y-72530637D01*
X170850489Y-72537065D01*
X170863889Y-72542442D01*
X170874315Y-72546449D01*
X170881017Y-72548770D01*
X170883227Y-72549177D01*
X170883132Y-72546317D01*
X170882631Y-72541172D01*
X171021903Y-72541172D01*
X171023544Y-72565005D01*
X171027157Y-72589777D01*
X171030023Y-72603595D01*
X171032987Y-72616437D01*
X171086547Y-72636450D01*
X171112874Y-72646183D01*
X171134754Y-72653997D01*
X171152920Y-72660092D01*
X171168107Y-72664670D01*
X171181051Y-72667934D01*
X171192486Y-72670083D01*
X171203146Y-72671321D01*
X171213767Y-72671849D01*
X171215710Y-72671884D01*
X171231994Y-72671490D01*
X171244161Y-72669438D01*
X171253579Y-72665204D01*
X171261613Y-72658265D01*
X171266450Y-72652437D01*
X171273062Y-72640966D01*
X171278261Y-72626799D01*
X171281056Y-72612826D01*
X171281275Y-72609230D01*
X171280773Y-72602929D01*
X171279324Y-72593327D01*
X171277392Y-72583243D01*
X171269684Y-72559128D01*
X171257069Y-72536787D01*
X171239367Y-72515983D01*
X171216398Y-72496476D01*
X171206298Y-72489385D01*
X171179565Y-72473289D01*
X171153664Y-72461151D01*
X171128981Y-72452977D01*
X171105907Y-72448775D01*
X171084828Y-72448552D01*
X171066135Y-72452317D01*
X171050214Y-72460075D01*
X171037455Y-72471835D01*
X171028918Y-72486024D01*
X171024580Y-72500610D01*
X171022245Y-72519350D01*
X171021903Y-72541172D01*
X170882631Y-72541172D01*
X170882403Y-72538838D01*
X170881143Y-72527671D01*
X170879457Y-72513748D01*
X170878040Y-72502558D01*
X170874998Y-72472744D01*
X170873370Y-72442366D01*
X170873137Y-72412616D01*
X170874277Y-72384686D01*
X170876771Y-72359770D01*
X170880600Y-72339060D01*
X170880772Y-72338372D01*
X170890313Y-72309066D01*
X170903089Y-72284285D01*
X170919240Y-72263887D01*
X170938911Y-72247726D01*
X170962243Y-72235660D01*
X170989380Y-72227542D01*
X170990881Y-72227229D01*
X171016900Y-72223705D01*
X171043919Y-72223754D01*
X171072811Y-72227463D01*
X171104449Y-72234917D01*
X171121230Y-72239966D01*
X171171467Y-72258923D01*
X171219356Y-72282857D01*
X171264480Y-72311513D01*
X171306422Y-72344635D01*
X171331973Y-72368632D01*
X171362098Y-72402460D01*
X171387150Y-72438187D01*
X171407027Y-72475619D01*
X171421632Y-72514562D01*
X171430865Y-72554823D01*
X171432416Y-72565828D01*
X171434017Y-72582327D01*
X171434925Y-72599149D01*
X171435108Y-72614678D01*
X171434533Y-72627299D01*
X171433768Y-72633031D01*
X171430469Y-72649179D01*
X171427673Y-72661187D01*
X171424988Y-72670445D01*
X171422026Y-72678343D01*
X171419465Y-72684045D01*
X171406887Y-72704399D01*
X171389731Y-72722607D01*
X171372867Y-72735249D01*
X171364193Y-72740868D01*
X171359683Y-72744322D01*
X171358743Y-72746402D01*
X171360779Y-72747899D01*
X171362771Y-72748691D01*
X171368383Y-72750774D01*
X171377695Y-72754203D01*
X171389145Y-72758404D01*
X171395602Y-72760768D01*
X171421486Y-72770237D01*
X171421503Y-72868942D01*
X171421455Y-72891823D01*
X171421313Y-72912829D01*
X171421088Y-72931327D01*
X171420792Y-72946686D01*
X171420436Y-72958275D01*
X171420034Y-72965463D01*
X171419642Y-72967647D01*
X171416652Y-72966603D01*
X171409214Y-72963666D01*
X171398036Y-72959126D01*
X171383825Y-72953271D01*
X171367291Y-72946392D01*
X171351738Y-72939871D01*
X171314874Y-72924490D01*
X171274871Y-72908028D01*
X171232320Y-72890717D01*
X171215710Y-72884025D01*
X171187812Y-72872786D01*
X171141936Y-72854465D01*
G37*
G36*
X170887657Y-74369995D02*
G01*
X170893809Y-74374667D01*
X170903519Y-74382144D01*
X170916365Y-74392095D01*
X170931923Y-74404194D01*
X170949772Y-74418111D01*
X170969489Y-74433519D01*
X170990651Y-74450090D01*
X170993292Y-74452160D01*
X171011525Y-74466422D01*
X171033680Y-74483694D01*
X171059236Y-74503576D01*
X171087675Y-74525664D01*
X171118478Y-74549557D01*
X171151126Y-74574852D01*
X171185100Y-74601148D01*
X171219881Y-74628042D01*
X171254949Y-74655131D01*
X171289786Y-74682015D01*
X171323873Y-74708291D01*
X171324835Y-74709032D01*
X171365057Y-74740042D01*
X171401091Y-74767889D01*
X171433206Y-74792804D01*
X171461668Y-74815015D01*
X171486748Y-74834751D01*
X171508713Y-74852241D01*
X171527831Y-74867716D01*
X171544372Y-74881403D01*
X171558602Y-74893532D01*
X171570792Y-74904332D01*
X171581209Y-74914032D01*
X171590121Y-74922863D01*
X171597797Y-74931051D01*
X171604505Y-74938828D01*
X171610513Y-74946422D01*
X171616091Y-74954062D01*
X171621506Y-74961977D01*
X171622115Y-74962892D01*
X171636222Y-74986208D01*
X171647854Y-75010328D01*
X171657714Y-75036889D01*
X171665831Y-75064926D01*
X171669062Y-75077936D01*
X171671388Y-75089158D01*
X171672981Y-75100090D01*
X171674015Y-75112226D01*
X171674662Y-75127064D01*
X171675072Y-75144749D01*
X171675213Y-75162433D01*
X171675032Y-75179946D01*
X171674566Y-75195761D01*
X171673853Y-75208350D01*
X171673369Y-75213353D01*
X171671907Y-75223864D01*
X171669949Y-75236032D01*
X171667737Y-75248567D01*
X171665514Y-75260179D01*
X171663524Y-75269578D01*
X171662007Y-75275474D01*
X171661444Y-75276776D01*
X171658597Y-75276464D01*
X171651020Y-75275165D01*
X171639466Y-75273021D01*
X171624691Y-75270174D01*
X171607447Y-75266766D01*
X171593584Y-75263975D01*
X171574331Y-75260082D01*
X171556372Y-75256472D01*
X171540610Y-75253326D01*
X171527948Y-75250823D01*
X171519287Y-75249143D01*
X171516245Y-75248579D01*
X171505966Y-75246784D01*
X171515195Y-75226568D01*
X171524059Y-75204438D01*
X171529366Y-75183914D01*
X171531624Y-75162751D01*
X171531785Y-75153150D01*
X171529401Y-75126606D01*
X171522739Y-75101907D01*
X171514655Y-75084547D01*
X171508425Y-75075571D01*
X171498982Y-75064220D01*
X171487456Y-75051652D01*
X171474979Y-75039024D01*
X171462683Y-75027494D01*
X171451699Y-75018221D01*
X171445492Y-75013754D01*
X171431452Y-75004743D01*
X171158373Y-75003871D01*
X170885294Y-75002998D01*
X170885294Y-74898166D01*
X170885333Y-74869936D01*
X170885461Y-74846881D01*
X170885690Y-74828574D01*
X170886036Y-74814588D01*
X170886513Y-74804498D01*
X170887134Y-74797878D01*
X170887913Y-74794301D01*
X170888768Y-74793333D01*
X170893609Y-74793544D01*
X170903302Y-74794140D01*
X170917114Y-74795066D01*
X170934315Y-74796269D01*
X170954172Y-74797693D01*
X170975954Y-74799283D01*
X170998929Y-74800986D01*
X171022366Y-74802746D01*
X171045533Y-74804508D01*
X171067699Y-74806219D01*
X171088131Y-74807823D01*
X171106099Y-74809266D01*
X171120870Y-74810493D01*
X171131714Y-74811450D01*
X171133106Y-74811581D01*
X171152083Y-74813573D01*
X171172847Y-74816051D01*
X171193052Y-74818717D01*
X171210349Y-74821276D01*
X171212396Y-74821607D01*
X171225876Y-74823719D01*
X171237233Y-74825308D01*
X171245398Y-74826241D01*
X171249301Y-74826380D01*
X171249466Y-74826313D01*
X171247649Y-74824507D01*
X171241853Y-74820332D01*
X171232884Y-74814336D01*
X171221545Y-74807062D01*
X171216093Y-74803649D01*
X171204206Y-74796085D01*
X171188789Y-74786013D01*
X171170902Y-74774139D01*
X171151602Y-74761169D01*
X171131945Y-74747809D01*
X171116020Y-74736861D01*
X171098116Y-74724466D01*
X171082026Y-74713286D01*
X171067046Y-74702823D01*
X171052475Y-74692577D01*
X171037608Y-74682047D01*
X171021745Y-74670735D01*
X171004181Y-74658142D01*
X170984214Y-74643766D01*
X170961142Y-74627110D01*
X170934261Y-74607673D01*
X170933503Y-74607124D01*
X170887057Y-74573523D01*
X170886175Y-74471318D01*
X170885979Y-74447986D01*
X170885809Y-74426491D01*
X170885668Y-74407457D01*
X170885561Y-74391511D01*
X170885493Y-74379278D01*
X170885466Y-74371385D01*
X170885486Y-74368456D01*
X170885487Y-74368453D01*
X170887657Y-74369995D01*
G37*
G36*
X171122926Y-75739782D02*
G01*
X171050433Y-75713039D01*
X170981147Y-75688107D01*
X170946897Y-75676052D01*
X170899295Y-75659436D01*
X170893166Y-75616303D01*
X170887116Y-75571956D01*
X170882253Y-75532122D01*
X170878508Y-75495858D01*
X170875810Y-75462221D01*
X170874090Y-75430266D01*
X170873570Y-75410285D01*
X171021587Y-75410285D01*
X171022277Y-75437754D01*
X171024894Y-75458904D01*
X171027519Y-75474820D01*
X171029929Y-75486268D01*
X171032719Y-75494318D01*
X171036484Y-75500043D01*
X171041821Y-75504516D01*
X171049323Y-75508808D01*
X171053900Y-75511134D01*
X171068383Y-75517977D01*
X171086015Y-75525644D01*
X171105429Y-75533605D01*
X171125256Y-75541326D01*
X171144128Y-75548275D01*
X171160677Y-75553919D01*
X171173534Y-75557725D01*
X171173629Y-75557749D01*
X171199720Y-75562567D01*
X171222614Y-75562868D01*
X171242269Y-75558656D01*
X171258642Y-75549937D01*
X171261821Y-75547396D01*
X171274585Y-75533346D01*
X171282447Y-75517120D01*
X171285453Y-75498495D01*
X171283649Y-75477248D01*
X171279692Y-75461164D01*
X171270547Y-75439747D01*
X171256544Y-75418770D01*
X171238426Y-75398806D01*
X171216932Y-75380429D01*
X171192804Y-75364211D01*
X171166784Y-75350726D01*
X171139612Y-75340545D01*
X171116377Y-75334954D01*
X171092520Y-75332701D01*
X171072016Y-75334901D01*
X171054917Y-75341486D01*
X171041273Y-75352386D01*
X171031136Y-75367532D01*
X171024557Y-75386855D01*
X171021587Y-75410285D01*
X170873570Y-75410285D01*
X170873277Y-75399049D01*
X170873303Y-75367628D01*
X170873598Y-75351959D01*
X170875105Y-75314836D01*
X170877783Y-75282620D01*
X170881753Y-75254717D01*
X170887138Y-75230534D01*
X170894059Y-75209477D01*
X170902639Y-75190952D01*
X170908855Y-75180462D01*
X170924785Y-75160772D01*
X170944667Y-75144936D01*
X170968594Y-75132893D01*
X170995026Y-75124941D01*
X171013420Y-75122224D01*
X171035479Y-75121148D01*
X171059533Y-75121641D01*
X171083916Y-75123632D01*
X171106958Y-75127048D01*
X171121905Y-75130383D01*
X171165054Y-75144087D01*
X171206580Y-75161789D01*
X171246030Y-75183099D01*
X171282948Y-75207624D01*
X171316881Y-75234975D01*
X171347374Y-75264760D01*
X171373972Y-75296588D01*
X171396221Y-75330070D01*
X171413667Y-75364812D01*
X171422568Y-75389001D01*
X171430506Y-75421927D01*
X171434146Y-75455543D01*
X171433622Y-75489051D01*
X171429063Y-75521654D01*
X171420602Y-75552555D01*
X171408371Y-75580957D01*
X171392500Y-75606063D01*
X171385301Y-75614846D01*
X171378749Y-75622830D01*
X171374352Y-75629310D01*
X171372859Y-75633145D01*
X171373032Y-75633562D01*
X171376295Y-75635200D01*
X171384229Y-75638536D01*
X171396243Y-75643349D01*
X171411747Y-75649417D01*
X171430151Y-75656520D01*
X171450864Y-75664436D01*
X171473295Y-75672946D01*
X171496854Y-75681828D01*
X171520951Y-75690860D01*
X171544994Y-75699823D01*
X171568394Y-75708496D01*
X171590560Y-75716656D01*
X171610902Y-75724084D01*
X171628828Y-75730559D01*
X171643748Y-75735860D01*
X171655073Y-75739765D01*
X171662211Y-75742054D01*
X171664443Y-75742578D01*
X171664908Y-75745277D01*
X171665337Y-75752973D01*
X171665720Y-75765060D01*
X171666044Y-75780935D01*
X171666298Y-75799994D01*
X171666469Y-75821632D01*
X171666547Y-75845245D01*
X171666551Y-75850383D01*
X171666551Y-75874333D01*
X171666542Y-75896435D01*
X171666526Y-75916083D01*
X171666503Y-75932675D01*
X171666474Y-75945606D01*
X171666440Y-75954271D01*
X171666402Y-75958066D01*
X171666394Y-75958188D01*
X171663911Y-75957141D01*
X171657212Y-75954264D01*
X171647217Y-75949956D01*
X171634850Y-75944611D01*
X171629972Y-75942501D01*
X171565098Y-75914810D01*
X171495914Y-75885999D01*
X171423494Y-75856484D01*
X171348911Y-75826687D01*
X171273239Y-75797024D01*
X171222614Y-75777554D01*
X171197553Y-75767916D01*
X171122926Y-75739782D01*
G37*
G36*
X171265931Y-73624363D02*
G01*
X171273082Y-73627094D01*
X171284106Y-73631460D01*
X171298358Y-73637202D01*
X171315188Y-73644059D01*
X171333950Y-73651773D01*
X171339199Y-73653943D01*
X171358553Y-73661950D01*
X171376306Y-73669289D01*
X171391775Y-73675681D01*
X171404278Y-73680843D01*
X171413132Y-73684493D01*
X171417657Y-73686349D01*
X171418019Y-73686495D01*
X171418614Y-73687786D01*
X171419142Y-73691342D01*
X171419607Y-73697437D01*
X171420012Y-73706345D01*
X171420360Y-73718339D01*
X171420655Y-73733692D01*
X171420900Y-73752679D01*
X171421099Y-73775572D01*
X171421256Y-73802645D01*
X171421372Y-73834173D01*
X171421453Y-73870427D01*
X171421500Y-73911682D01*
X171421519Y-73958211D01*
X171421519Y-73967759D01*
X171421499Y-74006797D01*
X171421439Y-74044194D01*
X171421343Y-74079576D01*
X171421213Y-74112572D01*
X171421053Y-74142808D01*
X171420865Y-74169911D01*
X171420651Y-74193510D01*
X171420416Y-74213231D01*
X171420160Y-74228702D01*
X171419889Y-74239550D01*
X171419603Y-74245402D01*
X171419419Y-74246357D01*
X171415715Y-74244549D01*
X171407534Y-74240832D01*
X171395549Y-74235498D01*
X171380431Y-74228840D01*
X171362854Y-74221149D01*
X171343491Y-74212717D01*
X171323013Y-74203836D01*
X171302095Y-74194798D01*
X171281407Y-74185894D01*
X171261623Y-74177418D01*
X171243416Y-74169660D01*
X171227458Y-74162912D01*
X171218510Y-74159165D01*
X171151486Y-74131570D01*
X171082660Y-74103854D01*
X171013325Y-74076521D01*
X170944777Y-74050074D01*
X170878309Y-74025016D01*
X170815218Y-74001851D01*
X170799890Y-73996331D01*
X170780908Y-73989519D01*
X170762899Y-73983048D01*
X170746785Y-73977251D01*
X170733487Y-73972458D01*
X170723927Y-73969001D01*
X170720086Y-73967603D01*
X170706086Y-73962474D01*
X170705355Y-73845878D01*
X170705224Y-73820938D01*
X170705152Y-73797824D01*
X170705138Y-73777115D01*
X170705179Y-73759394D01*
X170705273Y-73745242D01*
X170705419Y-73735238D01*
X170705614Y-73729964D01*
X170705729Y-73729283D01*
X170708607Y-73730294D01*
X170715533Y-73733029D01*
X170725396Y-73737043D01*
X170734461Y-73740796D01*
X170761521Y-73752006D01*
X170790866Y-73764037D01*
X170822105Y-73776739D01*
X170854845Y-73789958D01*
X170888696Y-73803541D01*
X170923266Y-73817336D01*
X170958162Y-73831189D01*
X170992994Y-73844949D01*
X171027369Y-73858462D01*
X171060897Y-73871576D01*
X171093184Y-73884138D01*
X171123840Y-73895995D01*
X171152474Y-73906994D01*
X171178692Y-73916983D01*
X171202105Y-73925808D01*
X171222319Y-73933318D01*
X171238943Y-73939359D01*
X171251586Y-73943779D01*
X171259857Y-73946424D01*
X171263362Y-73947142D01*
X171263434Y-73947104D01*
X171264035Y-73943790D01*
X171264584Y-73935542D01*
X171265076Y-73923027D01*
X171265507Y-73906911D01*
X171265870Y-73887861D01*
X171266161Y-73866544D01*
X171266374Y-73843626D01*
X171266506Y-73819773D01*
X171266550Y-73795652D01*
X171266502Y-73771929D01*
X171266357Y-73749272D01*
X171266109Y-73728345D01*
X171265754Y-73709817D01*
X171265336Y-73695681D01*
X171264650Y-73676304D01*
X171264076Y-73658866D01*
X171263635Y-73644120D01*
X171263349Y-73632818D01*
X171263239Y-73625711D01*
X171263302Y-73623527D01*
X171265931Y-73624363D01*
G37*
G36*
X170709490Y-77104195D02*
G01*
X170709586Y-77104222D01*
X170713337Y-77105632D01*
X170721566Y-77108924D01*
X170733585Y-77113815D01*
X170748704Y-77120024D01*
X170766237Y-77127269D01*
X170785495Y-77135268D01*
X170791490Y-77137766D01*
X170809056Y-77145011D01*
X170830229Y-77153608D01*
X170854618Y-77163405D01*
X170881834Y-77174253D01*
X170911490Y-77186001D01*
X170943194Y-77198500D01*
X170976559Y-77211599D01*
X171011195Y-77225148D01*
X171046714Y-77238996D01*
X171082725Y-77252994D01*
X171118840Y-77266991D01*
X171154670Y-77280837D01*
X171189826Y-77294382D01*
X171223918Y-77307475D01*
X171256558Y-77319967D01*
X171287357Y-77331707D01*
X171315924Y-77342545D01*
X171341872Y-77352331D01*
X171364811Y-77360914D01*
X171384353Y-77368144D01*
X171400107Y-77373872D01*
X171411685Y-77377946D01*
X171418698Y-77380217D01*
X171420635Y-77380655D01*
X171420831Y-77383355D01*
X171421012Y-77391051D01*
X171421173Y-77403141D01*
X171421309Y-77419022D01*
X171421415Y-77438089D01*
X171421487Y-77459739D01*
X171421518Y-77483370D01*
X171421519Y-77488760D01*
X171421484Y-77517217D01*
X171421370Y-77540501D01*
X171421162Y-77559039D01*
X171420847Y-77573257D01*
X171420410Y-77583583D01*
X171419837Y-77590442D01*
X171419116Y-77594261D01*
X171418231Y-77595468D01*
X171418019Y-77595428D01*
X171414453Y-77593926D01*
X171406587Y-77590593D01*
X171395276Y-77585791D01*
X171381374Y-77579882D01*
X171365733Y-77573229D01*
X171364117Y-77572541D01*
X171349180Y-77566298D01*
X171329543Y-77558269D01*
X171305741Y-77548662D01*
X171278306Y-77537685D01*
X171247773Y-77525548D01*
X171214675Y-77512457D01*
X171179546Y-77498622D01*
X171142919Y-77484250D01*
X171105329Y-77469549D01*
X171067308Y-77454729D01*
X171029391Y-77439997D01*
X170992111Y-77425560D01*
X170956002Y-77411629D01*
X170921597Y-77398410D01*
X170889431Y-77386112D01*
X170860036Y-77374943D01*
X170833947Y-77365112D01*
X170811697Y-77356826D01*
X170803403Y-77353776D01*
X170704711Y-77317652D01*
X170704698Y-77210221D01*
X170704708Y-77182847D01*
X170704759Y-77160563D01*
X170704875Y-77142857D01*
X170705079Y-77129219D01*
X170705396Y-77119137D01*
X170705849Y-77112101D01*
X170706462Y-77107600D01*
X170707257Y-77105122D01*
X170708258Y-77104158D01*
X170709490Y-77104195D01*
G37*
G36*
X168996069Y-73918782D02*
G01*
X169008197Y-73922672D01*
X169022992Y-73928882D01*
X169041228Y-73937455D01*
X169063675Y-73948439D01*
X169065208Y-73949193D01*
X169169332Y-74003511D01*
X169271255Y-74062935D01*
X169370813Y-74127353D01*
X169467840Y-74196655D01*
X169562172Y-74270728D01*
X169639235Y-74336581D01*
X169656735Y-74352501D01*
X169677088Y-74371663D01*
X169699455Y-74393227D01*
X169722999Y-74416355D01*
X169746881Y-74440207D01*
X169770264Y-74463944D01*
X169792309Y-74486726D01*
X169812180Y-74507715D01*
X169829037Y-74526071D01*
X169834074Y-74531723D01*
X169904647Y-74615281D01*
X169970223Y-74700309D01*
X170030742Y-74786689D01*
X170086142Y-74874300D01*
X170136363Y-74963023D01*
X170181345Y-75052737D01*
X170221025Y-75143325D01*
X170255344Y-75234665D01*
X170284241Y-75326637D01*
X170307656Y-75419124D01*
X170322409Y-75493466D01*
X170327443Y-75523486D01*
X170331542Y-75550778D01*
X170334804Y-75576513D01*
X170337328Y-75601859D01*
X170339211Y-75627986D01*
X170340553Y-75656065D01*
X170341452Y-75687264D01*
X170342005Y-75722754D01*
X170342051Y-75727177D01*
X170342215Y-75751525D01*
X170342227Y-75775353D01*
X170342098Y-75797764D01*
X170341838Y-75817858D01*
X170341459Y-75834736D01*
X170340970Y-75847501D01*
X170340596Y-75853183D01*
X170331240Y-75933289D01*
X170317359Y-76010841D01*
X170299031Y-76085683D01*
X170276335Y-76157661D01*
X170249350Y-76226619D01*
X170218153Y-76292401D01*
X170182824Y-76354853D01*
X170143441Y-76413818D01*
X170100083Y-76469142D01*
X170052828Y-76520670D01*
X170001755Y-76568244D01*
X169963052Y-76599666D01*
X169919104Y-76631314D01*
X169873169Y-76660630D01*
X169826509Y-76686886D01*
X169780387Y-76709353D01*
X169752640Y-76721052D01*
X169740260Y-76725968D01*
X169728839Y-76730556D01*
X169720037Y-76734149D01*
X169716844Y-76735487D01*
X169704185Y-76739097D01*
X169692634Y-76739072D01*
X169683551Y-76735517D01*
X169680493Y-76732622D01*
X169678758Y-76729942D01*
X169677393Y-76726355D01*
X169676324Y-76721125D01*
X169675478Y-76713518D01*
X169674783Y-76702798D01*
X169674164Y-76688231D01*
X169673549Y-76669081D01*
X169673298Y-76660363D01*
X169670935Y-76603900D01*
X169666971Y-76548769D01*
X169661195Y-76492230D01*
X169658478Y-76469786D01*
X169656424Y-76450836D01*
X169655860Y-76436357D01*
X169657065Y-76425356D01*
X169660315Y-76416837D01*
X169665888Y-76409804D01*
X169674063Y-76403263D01*
X169677712Y-76400826D01*
X169723190Y-76368336D01*
X169766135Y-76331528D01*
X169805899Y-76291089D01*
X169841836Y-76247710D01*
X169873297Y-76202080D01*
X169888202Y-76176738D01*
X169915201Y-76122216D01*
X169937624Y-76064666D01*
X169955428Y-76004347D01*
X169968572Y-75941519D01*
X169977014Y-75876440D01*
X169980710Y-75809369D01*
X169979621Y-75740566D01*
X169973703Y-75670289D01*
X169972260Y-75658574D01*
X169960780Y-75587389D01*
X169944409Y-75514365D01*
X169923118Y-75439425D01*
X169896881Y-75362495D01*
X169865670Y-75283501D01*
X169829458Y-75202368D01*
X169788217Y-75119019D01*
X169747085Y-75042600D01*
X169695943Y-74953885D01*
X169644232Y-74870134D01*
X169591516Y-74790712D01*
X169537362Y-74714986D01*
X169481336Y-74642320D01*
X169433474Y-74584317D01*
X169417620Y-74566226D01*
X169398543Y-74545363D01*
X169377003Y-74522493D01*
X169353759Y-74498378D01*
X169329571Y-74473785D01*
X169305200Y-74449476D01*
X169281404Y-74426218D01*
X169258945Y-74404774D01*
X169238582Y-74385908D01*
X169221074Y-74370385D01*
X169219215Y-74368795D01*
X169146080Y-74309384D01*
X169071097Y-74254032D01*
X168994845Y-74203127D01*
X168917902Y-74157056D01*
X168846319Y-74118933D01*
X168833357Y-74112152D01*
X168821968Y-74105648D01*
X168813242Y-74100081D01*
X168808268Y-74096113D01*
X168807817Y-74095566D01*
X168804919Y-74088626D01*
X168803443Y-74079606D01*
X168803396Y-74077869D01*
X168803745Y-74072590D01*
X168805210Y-74067652D01*
X168808418Y-74062017D01*
X168813994Y-74054648D01*
X168822564Y-74044505D01*
X168825697Y-74040899D01*
X168851204Y-74013841D01*
X168881138Y-73985961D01*
X168914575Y-73958090D01*
X168936085Y-73941605D01*
X168948422Y-73932533D01*
X168958793Y-73925507D01*
X168967972Y-73920574D01*
X168976729Y-73917779D01*
X168985837Y-73917166D01*
X168996069Y-73918782D01*
G37*
G36*
X168815782Y-74287802D02*
G01*
X168823142Y-74290055D01*
X168826533Y-74292557D01*
X168833788Y-74298768D01*
X168844729Y-74308521D01*
X168859178Y-74321651D01*
X168876955Y-74337991D01*
X168897882Y-74357375D01*
X168921780Y-74379638D01*
X168948470Y-74404612D01*
X168977775Y-74432132D01*
X169009514Y-74462031D01*
X169043511Y-74494144D01*
X169079585Y-74528305D01*
X169093209Y-74541227D01*
X169136057Y-74581888D01*
X169175024Y-74618879D01*
X169210293Y-74652381D01*
X169242053Y-74682572D01*
X169270487Y-74709632D01*
X169295783Y-74733742D01*
X169318125Y-74755080D01*
X169337699Y-74773827D01*
X169354692Y-74790161D01*
X169369288Y-74804263D01*
X169381674Y-74816312D01*
X169392034Y-74826489D01*
X169400556Y-74834971D01*
X169407425Y-74841940D01*
X169412825Y-74847575D01*
X169416944Y-74852056D01*
X169419967Y-74855561D01*
X169422079Y-74858272D01*
X169423466Y-74860367D01*
X169423872Y-74861097D01*
X169426984Y-74870417D01*
X169427592Y-74880226D01*
X169425731Y-74888403D01*
X169423385Y-74891695D01*
X169419968Y-74893700D01*
X169412047Y-74897837D01*
X169400176Y-74903830D01*
X169384910Y-74911405D01*
X169366803Y-74920289D01*
X169346409Y-74930207D01*
X169324281Y-74940885D01*
X169313480Y-74946069D01*
X169287543Y-74958516D01*
X169266222Y-74968812D01*
X169249071Y-74977200D01*
X169235645Y-74983923D01*
X169225497Y-74989225D01*
X169218181Y-74993350D01*
X169213250Y-74996541D01*
X169210260Y-74999041D01*
X169208764Y-75001093D01*
X169208315Y-75002943D01*
X169208317Y-75003471D01*
X169209396Y-75007810D01*
X169212287Y-75016605D01*
X169216722Y-75029113D01*
X169222430Y-75044590D01*
X169229143Y-75062295D01*
X169236590Y-75081484D01*
X169237243Y-75083147D01*
X169273061Y-75176567D01*
X169308021Y-75272315D01*
X169341789Y-75369362D01*
X169374030Y-75466682D01*
X169404413Y-75563247D01*
X169432602Y-75658028D01*
X169458263Y-75749999D01*
X169476491Y-75819840D01*
X169485255Y-75855219D01*
X169493946Y-75891549D01*
X169502361Y-75927905D01*
X169510297Y-75963362D01*
X169517548Y-75996996D01*
X169523913Y-76027882D01*
X169529187Y-76055097D01*
X169532739Y-76075133D01*
X169535560Y-76091672D01*
X169538470Y-76108104D01*
X169541168Y-76122758D01*
X169543351Y-76133964D01*
X169543774Y-76135996D01*
X169545990Y-76147629D01*
X169548725Y-76163853D01*
X169551839Y-76183701D01*
X169555195Y-76206202D01*
X169558653Y-76230388D01*
X169562074Y-76255290D01*
X169565319Y-76279937D01*
X169568250Y-76303361D01*
X169570459Y-76322205D01*
X169573570Y-76351802D01*
X169576568Y-76384088D01*
X169579396Y-76418166D01*
X169582001Y-76453142D01*
X169584326Y-76488122D01*
X169586318Y-76522209D01*
X169587920Y-76554509D01*
X169589077Y-76584127D01*
X169589735Y-76610168D01*
X169589838Y-76631736D01*
X169589781Y-76635820D01*
X169589627Y-76643965D01*
X169589377Y-76656937D01*
X169589047Y-76673963D01*
X169588651Y-76694271D01*
X169588205Y-76717087D01*
X169587723Y-76741640D01*
X169587221Y-76767156D01*
X169587133Y-76771626D01*
X169586568Y-76797059D01*
X169585904Y-76821513D01*
X169585170Y-76844242D01*
X169584395Y-76864502D01*
X169583608Y-76881547D01*
X169582838Y-76894631D01*
X169582115Y-76903009D01*
X169581979Y-76904047D01*
X169580437Y-76917108D01*
X169579369Y-76930691D01*
X169579029Y-76940449D01*
X169577441Y-76960091D01*
X169572918Y-76983332D01*
X169565810Y-77009234D01*
X169556463Y-77036860D01*
X169545228Y-77065271D01*
X169532453Y-77093530D01*
X169518487Y-77120700D01*
X169503678Y-77145842D01*
X169501233Y-77149644D01*
X169475658Y-77185252D01*
X169446126Y-77220022D01*
X169413922Y-77252604D01*
X169380333Y-77281647D01*
X169363217Y-77294565D01*
X169345052Y-77306571D01*
X169323351Y-77319303D01*
X169299647Y-77331985D01*
X169275473Y-77343837D01*
X169252363Y-77354083D01*
X169231850Y-77361946D01*
X169227558Y-77363368D01*
X169198093Y-77371186D01*
X169164531Y-77377374D01*
X169128152Y-77381871D01*
X169090236Y-77384617D01*
X169052062Y-77385551D01*
X169014910Y-77384613D01*
X168980059Y-77381742D01*
X168948788Y-77376877D01*
X168947602Y-77376634D01*
X168901650Y-77365098D01*
X168853627Y-77349216D01*
X168804423Y-77329399D01*
X168754923Y-77306057D01*
X168706016Y-77279601D01*
X168658590Y-77250440D01*
X168625587Y-77227805D01*
X168582352Y-77193714D01*
X168540070Y-77154369D01*
X168498938Y-77110069D01*
X168459148Y-77061109D01*
X168420897Y-77007786D01*
X168384379Y-76950395D01*
X168349789Y-76889233D01*
X168317321Y-76824596D01*
X168287170Y-76756781D01*
X168259530Y-76686083D01*
X168247844Y-76653058D01*
X168242681Y-76637676D01*
X168238233Y-76623841D01*
X168234805Y-76612544D01*
X168232699Y-76604775D01*
X168232169Y-76601817D01*
X168234745Y-76591159D01*
X168241713Y-76582351D01*
X168251930Y-76576380D01*
X168264088Y-76574231D01*
X168268233Y-76575690D01*
X168276212Y-76579739D01*
X168287173Y-76585899D01*
X168300264Y-76593691D01*
X168314492Y-76602548D01*
X168397474Y-76652780D01*
X168485211Y-76701027D01*
X168577105Y-76746964D01*
X168586385Y-76751364D01*
X168601054Y-76758484D01*
X168611523Y-76764136D01*
X168618779Y-76768961D01*
X168623810Y-76773602D01*
X168626987Y-76777750D01*
X168633390Y-76786129D01*
X168643063Y-76797235D01*
X168655059Y-76810110D01*
X168668429Y-76823799D01*
X168682227Y-76837344D01*
X168695504Y-76849789D01*
X168707312Y-76860177D01*
X168713934Y-76865513D01*
X168732953Y-76879189D01*
X168755283Y-76893914D01*
X168779078Y-76908544D01*
X168802493Y-76921935D01*
X168819092Y-76930678D01*
X168860891Y-76948978D01*
X168903254Y-76962300D01*
X168945715Y-76970588D01*
X168987809Y-76973785D01*
X169029070Y-76971838D01*
X169069034Y-76964689D01*
X169079651Y-76961829D01*
X169115063Y-76949017D01*
X169146707Y-76932173D01*
X169174621Y-76911247D01*
X169198846Y-76886192D01*
X169219420Y-76856957D01*
X169236383Y-76823495D01*
X169249774Y-76785756D01*
X169259632Y-76743691D01*
X169260873Y-76736625D01*
X169262799Y-76724683D01*
X169264479Y-76713006D01*
X169265924Y-76701149D01*
X169267150Y-76688663D01*
X169268169Y-76675102D01*
X169268994Y-76660021D01*
X169269640Y-76642971D01*
X169270118Y-76623506D01*
X169270444Y-76601180D01*
X169270629Y-76575545D01*
X169270688Y-76546156D01*
X169270633Y-76512565D01*
X169270479Y-76474325D01*
X169270238Y-76430991D01*
X169270201Y-76424962D01*
X169269919Y-76381937D01*
X169269622Y-76343948D01*
X169269289Y-76310428D01*
X169268900Y-76280813D01*
X169268433Y-76254536D01*
X169267867Y-76231032D01*
X169267181Y-76209737D01*
X169266352Y-76190084D01*
X169265361Y-76171508D01*
X169264185Y-76153444D01*
X169262804Y-76135327D01*
X169261197Y-76116591D01*
X169259341Y-76096670D01*
X169257216Y-76075000D01*
X169256946Y-76072296D01*
X169255204Y-76054015D01*
X169253687Y-76036467D01*
X169252488Y-76020859D01*
X169251701Y-76008400D01*
X169251417Y-76000300D01*
X169251417Y-76000292D01*
X169250851Y-75990095D01*
X169249332Y-75976624D01*
X169247132Y-75962067D01*
X169245806Y-75954787D01*
X169243524Y-75942471D01*
X169240671Y-75926155D01*
X169237506Y-75907375D01*
X169234289Y-75887669D01*
X169231715Y-75871384D01*
X169216814Y-75781467D01*
X169199627Y-75689003D01*
X169180041Y-75593454D01*
X169157946Y-75494282D01*
X169133230Y-75390950D01*
X169124910Y-75357560D01*
X169119304Y-75335560D01*
X169112999Y-75311324D01*
X169106155Y-75285431D01*
X169098932Y-75258456D01*
X169091492Y-75230978D01*
X169083994Y-75203575D01*
X169076601Y-75176823D01*
X169069471Y-75151301D01*
X169062767Y-75127585D01*
X169056648Y-75106255D01*
X169051276Y-75087886D01*
X169046810Y-75073056D01*
X169043412Y-75062344D01*
X169041243Y-75056326D01*
X169040914Y-75055628D01*
X169036684Y-75051991D01*
X169033492Y-75052331D01*
X169029827Y-75053525D01*
X169021417Y-75056139D01*
X169008881Y-75059982D01*
X168992837Y-75064868D01*
X168973906Y-75070607D01*
X168952707Y-75077011D01*
X168929857Y-75083891D01*
X168927001Y-75084750D01*
X168897832Y-75093410D01*
X168872357Y-75100754D01*
X168850887Y-75106699D01*
X168833733Y-75111161D01*
X168821206Y-75114057D01*
X168813616Y-75115303D01*
X168812615Y-75115348D01*
X168803513Y-75114554D01*
X168796684Y-75111335D01*
X168790854Y-75106167D01*
X168781673Y-75096986D01*
X168779896Y-74989262D01*
X168779084Y-74938389D01*
X168778323Y-74887393D01*
X168777615Y-74836588D01*
X168776962Y-74786293D01*
X168776366Y-74736822D01*
X168775830Y-74688492D01*
X168775355Y-74641620D01*
X168774943Y-74596522D01*
X168774598Y-74553514D01*
X168774320Y-74512914D01*
X168774112Y-74475037D01*
X168773977Y-74440199D01*
X168773916Y-74408718D01*
X168773931Y-74380909D01*
X168774026Y-74357089D01*
X168774201Y-74337574D01*
X168774458Y-74322681D01*
X168774801Y-74312727D01*
X168775232Y-74308026D01*
X168775275Y-74307871D01*
X168781272Y-74297951D01*
X168790943Y-74290957D01*
X168802907Y-74287403D01*
X168815782Y-74287802D01*
G37*
G36*
X168089659Y-73716981D02*
G01*
X168130164Y-73718039D01*
X168159182Y-73719107D01*
X168183139Y-73720079D01*
X168202574Y-73721014D01*
X168218022Y-73721968D01*
X168230021Y-73723002D01*
X168239109Y-73724172D01*
X168245823Y-73725538D01*
X168250701Y-73727157D01*
X168254280Y-73729087D01*
X168257096Y-73731388D01*
X168257565Y-73731847D01*
X168260574Y-73735304D01*
X168263329Y-73739661D01*
X168265963Y-73745446D01*
X168268610Y-73753184D01*
X168271405Y-73763402D01*
X168274482Y-73776624D01*
X168277974Y-73793379D01*
X168282016Y-73814190D01*
X168286742Y-73839586D01*
X168291029Y-73863132D01*
X168295574Y-73888336D01*
X168299178Y-73908637D01*
X168301913Y-73924635D01*
X168303855Y-73936935D01*
X168305075Y-73946140D01*
X168305647Y-73952851D01*
X168305645Y-73957673D01*
X168305142Y-73961209D01*
X168304212Y-73964060D01*
X168303509Y-73965631D01*
X168299687Y-73972414D01*
X168295126Y-73977002D01*
X168288845Y-73979648D01*
X168279861Y-73980604D01*
X168267193Y-73980122D01*
X168252470Y-73978735D01*
X168231078Y-73976902D01*
X168205524Y-73975433D01*
X168177178Y-73974350D01*
X168147410Y-73973671D01*
X168117592Y-73973419D01*
X168089094Y-73973612D01*
X168063287Y-73974272D01*
X168041541Y-73975419D01*
X168039537Y-73975569D01*
X167984005Y-73981327D01*
X167929131Y-73989825D01*
X167875502Y-74000875D01*
X167823702Y-74014289D01*
X167774317Y-74029877D01*
X167727934Y-74047452D01*
X167685137Y-74066824D01*
X167646512Y-74087804D01*
X167612646Y-74110204D01*
X167605901Y-74115297D01*
X167573805Y-74142734D01*
X167546401Y-74171897D01*
X167523369Y-74203335D01*
X167504386Y-74237596D01*
X167489130Y-74275228D01*
X167477280Y-74316778D01*
X167471653Y-74343912D01*
X167469466Y-74360135D01*
X167467857Y-74380890D01*
X167466829Y-74405141D01*
X167466380Y-74431849D01*
X167466513Y-74459976D01*
X167467228Y-74488485D01*
X167468526Y-74516337D01*
X167470407Y-74542496D01*
X167471494Y-74553922D01*
X167486003Y-74667849D01*
X167505652Y-74779678D01*
X167530471Y-74889479D01*
X167560487Y-74997324D01*
X167595728Y-75103284D01*
X167636223Y-75207429D01*
X167682000Y-75309830D01*
X167733087Y-75410559D01*
X167789512Y-75509686D01*
X167851302Y-75607281D01*
X167918487Y-75703417D01*
X167938191Y-75729977D01*
X168001402Y-75810336D01*
X168068903Y-75889003D01*
X168139861Y-75965096D01*
X168213438Y-76037735D01*
X168288801Y-76106038D01*
X168318973Y-76131709D01*
X168399675Y-76195684D01*
X168482532Y-76254653D01*
X168567427Y-76308559D01*
X168654243Y-76357344D01*
X168742864Y-76400949D01*
X168833172Y-76439319D01*
X168925052Y-76472395D01*
X169018386Y-76500120D01*
X169111410Y-76522097D01*
X169128651Y-76525830D01*
X169141137Y-76529350D01*
X169149622Y-76533460D01*
X169154860Y-76538959D01*
X169157604Y-76546648D01*
X169158609Y-76557329D01*
X169158626Y-76571803D01*
X169158620Y-76572273D01*
X169158339Y-76581941D01*
X169157723Y-76596306D01*
X169156818Y-76614476D01*
X169155672Y-76635560D01*
X169154335Y-76658668D01*
X169152852Y-76682908D01*
X169151744Y-76700223D01*
X169150195Y-76723495D01*
X169148690Y-76745183D01*
X169147281Y-76764607D01*
X169146021Y-76781085D01*
X169144961Y-76793936D01*
X169144153Y-76802478D01*
X169143692Y-76805893D01*
X169138945Y-76814157D01*
X169129443Y-76819875D01*
X169115122Y-76823061D01*
X169095918Y-76823726D01*
X169071767Y-76821886D01*
X169069443Y-76821610D01*
X169036550Y-76817241D01*
X169006305Y-76812392D01*
X168977448Y-76806762D01*
X168948718Y-76800056D01*
X168918853Y-76791974D01*
X168886591Y-76782219D01*
X168850673Y-76770492D01*
X168845105Y-76768617D01*
X168771666Y-76742816D01*
X168702741Y-76716463D01*
X168637250Y-76689029D01*
X168574116Y-76659986D01*
X168512260Y-76628806D01*
X168450603Y-76594962D01*
X168388067Y-76557923D01*
X168323571Y-76517163D01*
X168300129Y-76501784D01*
X168221985Y-76448634D01*
X168148938Y-76395916D01*
X168080551Y-76343207D01*
X168016389Y-76290083D01*
X167956013Y-76236120D01*
X167898987Y-76180895D01*
X167844874Y-76123984D01*
X167793237Y-76064963D01*
X167743639Y-76003408D01*
X167695643Y-75938896D01*
X167648813Y-75871003D01*
X167647205Y-75868584D01*
X167616536Y-75821471D01*
X167588067Y-75775739D01*
X167561063Y-75730104D01*
X167534787Y-75683280D01*
X167508504Y-75633983D01*
X167481478Y-75580927D01*
X167474838Y-75567569D01*
X167427329Y-75467441D01*
X167383033Y-75365647D01*
X167342119Y-75262731D01*
X167304756Y-75159236D01*
X167271115Y-75055703D01*
X167241363Y-74952675D01*
X167215670Y-74850695D01*
X167194206Y-74750305D01*
X167177139Y-74652048D01*
X167167718Y-74583323D01*
X167165443Y-74560524D01*
X167163610Y-74533974D01*
X167162222Y-74504668D01*
X167161286Y-74473598D01*
X167160807Y-74441759D01*
X167160788Y-74410144D01*
X167161236Y-74379749D01*
X167162155Y-74351565D01*
X167163551Y-74326589D01*
X167165428Y-74305812D01*
X167166284Y-74299110D01*
X167176963Y-74237188D01*
X167190878Y-74179567D01*
X167208185Y-74125870D01*
X167229037Y-74075723D01*
X167253590Y-74028751D01*
X167281997Y-73984577D01*
X167311318Y-73946507D01*
X167343411Y-73912185D01*
X167380319Y-73880199D01*
X167421674Y-73850761D01*
X167467109Y-73824082D01*
X167516257Y-73800376D01*
X167568749Y-73779854D01*
X167624220Y-73762728D01*
X167634091Y-73760125D01*
X167679981Y-73749635D01*
X167730562Y-73740471D01*
X167785068Y-73732699D01*
X167842732Y-73726383D01*
X167902789Y-73721588D01*
X167964473Y-73718380D01*
X168027019Y-73716822D01*
X168089659Y-73716981D01*
G37*
G36*
X170708694Y-77415249D02*
G01*
X170716041Y-77418051D01*
X170727258Y-77422404D01*
X170741678Y-77428048D01*
X170758636Y-77434722D01*
X170777463Y-77442166D01*
X170781229Y-77443658D01*
X170800470Y-77451241D01*
X170818098Y-77458099D01*
X170833418Y-77463969D01*
X170845739Y-77468589D01*
X170854366Y-77471696D01*
X170858608Y-77473028D01*
X170858847Y-77473059D01*
X170859853Y-77474235D01*
X170860621Y-77478078D01*
X170861163Y-77485060D01*
X170861495Y-77495656D01*
X170861628Y-77510339D01*
X170861577Y-77529581D01*
X170861354Y-77553858D01*
X170861293Y-77559164D01*
X170861035Y-77585965D01*
X170860853Y-77615786D01*
X170860751Y-77646814D01*
X170860733Y-77677236D01*
X170860803Y-77705239D01*
X170860917Y-77723671D01*
X170861566Y-77802075D01*
X170919899Y-77823776D01*
X170936990Y-77830082D01*
X170952396Y-77835668D01*
X170965318Y-77840251D01*
X170974956Y-77843550D01*
X170980512Y-77845283D01*
X170981465Y-77845477D01*
X170982260Y-77843934D01*
X170982928Y-77839098D01*
X170983477Y-77830654D01*
X170983914Y-77818289D01*
X170984247Y-77801691D01*
X170984483Y-77780546D01*
X170984629Y-77754540D01*
X170984694Y-77723362D01*
X170984699Y-77710744D01*
X170984708Y-77679775D01*
X170984747Y-77653949D01*
X170984834Y-77632807D01*
X170984984Y-77615892D01*
X170985214Y-77602747D01*
X170985542Y-77592913D01*
X170985984Y-77585932D01*
X170986557Y-77581348D01*
X170987277Y-77578702D01*
X170988163Y-77577536D01*
X170989230Y-77577393D01*
X170989599Y-77577484D01*
X170993429Y-77578834D01*
X171001766Y-77581902D01*
X171013881Y-77586415D01*
X171029045Y-77592100D01*
X171046531Y-77598686D01*
X171065610Y-77605900D01*
X171066788Y-77606346D01*
X171139076Y-77633736D01*
X171137112Y-77705305D01*
X171136617Y-77729990D01*
X171136368Y-77757612D01*
X171136364Y-77786158D01*
X171136602Y-77813615D01*
X171137081Y-77837970D01*
X171137231Y-77843086D01*
X171139314Y-77909299D01*
X171231952Y-77943540D01*
X171256217Y-77952476D01*
X171281185Y-77961611D01*
X171305772Y-77970553D01*
X171328894Y-77978909D01*
X171349468Y-77986288D01*
X171366408Y-77992296D01*
X171373054Y-77994621D01*
X171421519Y-78011461D01*
X171421519Y-78128679D01*
X171421484Y-78153687D01*
X171421384Y-78176872D01*
X171421227Y-78197654D01*
X171421019Y-78215453D01*
X171420769Y-78229690D01*
X171420484Y-78239785D01*
X171420171Y-78245159D01*
X171420001Y-78245896D01*
X171417109Y-78244820D01*
X171409838Y-78241806D01*
X171398935Y-78237170D01*
X171385147Y-78231233D01*
X171369220Y-78224313D01*
X171360498Y-78220501D01*
X171334025Y-78209128D01*
X171302912Y-78196141D01*
X171267805Y-78181787D01*
X171229346Y-78166313D01*
X171188180Y-78149965D01*
X171144950Y-78132989D01*
X171100300Y-78115632D01*
X171054873Y-78098141D01*
X171009313Y-78080762D01*
X170964264Y-78063741D01*
X170920369Y-78047325D01*
X170878273Y-78031761D01*
X170838619Y-78017294D01*
X170802050Y-78004172D01*
X170769210Y-77992641D01*
X170740744Y-77982947D01*
X170736187Y-77981434D01*
X170704685Y-77971020D01*
X170704685Y-77692638D01*
X170704697Y-77653675D01*
X170704731Y-77616332D01*
X170704787Y-77580985D01*
X170704861Y-77548011D01*
X170704953Y-77517785D01*
X170705061Y-77490684D01*
X170705184Y-77467083D01*
X170705319Y-77447358D01*
X170705465Y-77431886D01*
X170705621Y-77421042D01*
X170705785Y-77415203D01*
X170705884Y-77414257D01*
X170708694Y-77415249D01*
G37*
G36*
X170144578Y-73039781D02*
G01*
X170144659Y-73040450D01*
X170142528Y-73043169D01*
X170141859Y-73043250D01*
X170139140Y-73041119D01*
X170139059Y-73040450D01*
X170141190Y-73037731D01*
X170141859Y-73037650D01*
X170144578Y-73039781D01*
G37*
G36*
X169527520Y-75676160D02*
G01*
X169536218Y-75677874D01*
X169548111Y-75681270D01*
X169563915Y-75686479D01*
X169580124Y-75692137D01*
X169603016Y-75700462D01*
X169621213Y-75707651D01*
X169635416Y-75714075D01*
X169646324Y-75720104D01*
X169654636Y-75726108D01*
X169661051Y-75732459D01*
X169664436Y-75736808D01*
X169672837Y-75748657D01*
X169673146Y-75933926D01*
X169673181Y-75965854D01*
X169673177Y-75996291D01*
X169673138Y-76024750D01*
X169673065Y-76050740D01*
X169672961Y-76073773D01*
X169672829Y-76093360D01*
X169672671Y-76109012D01*
X169672489Y-76120238D01*
X169672286Y-76126551D01*
X169672198Y-76127596D01*
X169669445Y-76136858D01*
X169664350Y-76141856D01*
X169656535Y-76142633D01*
X169645623Y-76139235D01*
X169632283Y-76132318D01*
X169614569Y-76119638D01*
X169602083Y-76105204D01*
X169594680Y-76088832D01*
X169593435Y-76083552D01*
X169584716Y-76038222D01*
X169576778Y-75997665D01*
X169569457Y-75961132D01*
X169562591Y-75927877D01*
X169556017Y-75897150D01*
X169549571Y-75868206D01*
X169543090Y-75840295D01*
X169536412Y-75812671D01*
X169529372Y-75784585D01*
X169521988Y-75755973D01*
X169516399Y-75733851D01*
X169512482Y-75716429D01*
X169510166Y-75703088D01*
X169509382Y-75693204D01*
X169510060Y-75686157D01*
X169512129Y-75681326D01*
X169513429Y-75679775D01*
X169516842Y-75677243D01*
X169521300Y-75675994D01*
X169527520Y-75676160D01*
G37*
G36*
X170985208Y-72920736D02*
G01*
X171003057Y-72923917D01*
X171004342Y-72924242D01*
X171010115Y-72925898D01*
X171017610Y-72928363D01*
X171027211Y-72931787D01*
X171039304Y-72936321D01*
X171054275Y-72942117D01*
X171072509Y-72949324D01*
X171094393Y-72958095D01*
X171120311Y-72968579D01*
X171150650Y-72980928D01*
X171183508Y-72994357D01*
X171197493Y-72999988D01*
X171215698Y-73007176D01*
X171237094Y-73015523D01*
X171260655Y-73024631D01*
X171285352Y-73034102D01*
X171310157Y-73043538D01*
X171324915Y-73049111D01*
X171420119Y-73084956D01*
X171420853Y-73188617D01*
X171421587Y-73292279D01*
X171398452Y-73282232D01*
X171390278Y-73278772D01*
X171378215Y-73273784D01*
X171362974Y-73267556D01*
X171345269Y-73260371D01*
X171325813Y-73252515D01*
X171305318Y-73244273D01*
X171284498Y-73235931D01*
X171264066Y-73227774D01*
X171244734Y-73220087D01*
X171227215Y-73213155D01*
X171212223Y-73207264D01*
X171200470Y-73202699D01*
X171192669Y-73199745D01*
X171189870Y-73198767D01*
X171183632Y-73196919D01*
X171190431Y-73214984D01*
X171193463Y-73223692D01*
X171197601Y-73236494D01*
X171202439Y-73252089D01*
X171207573Y-73269179D01*
X171211551Y-73282805D01*
X171219459Y-73309064D01*
X171226763Y-73330439D01*
X171233799Y-73347565D01*
X171240902Y-73361081D01*
X171248407Y-73371622D01*
X171256649Y-73379825D01*
X171265964Y-73386327D01*
X171266096Y-73386405D01*
X171279821Y-73392085D01*
X171292747Y-73393078D01*
X171304008Y-73389633D01*
X171312736Y-73382003D01*
X171317802Y-73371438D01*
X171320165Y-73356266D01*
X171320088Y-73338017D01*
X171317648Y-73318615D01*
X171315251Y-73307863D01*
X171312808Y-73298257D01*
X171311134Y-73291108D01*
X171310553Y-73287807D01*
X171310571Y-73287736D01*
X171312938Y-73289018D01*
X171319215Y-73292901D01*
X171328638Y-73298898D01*
X171340443Y-73306525D01*
X171351445Y-73313706D01*
X171366290Y-73323364D01*
X171380973Y-73332785D01*
X171394242Y-73341173D01*
X171404844Y-73347735D01*
X171409380Y-73350452D01*
X171416865Y-73354904D01*
X171422174Y-73358757D01*
X171425796Y-73363086D01*
X171428221Y-73368964D01*
X171429937Y-73377466D01*
X171431432Y-73389666D01*
X171432680Y-73401667D01*
X171434852Y-73434077D01*
X171434735Y-73465582D01*
X171432354Y-73494309D01*
X171431370Y-73501072D01*
X171425663Y-73527803D01*
X171417769Y-73549726D01*
X171407427Y-73567292D01*
X171394375Y-73580953D01*
X171379517Y-73590578D01*
X171356421Y-73599264D01*
X171331912Y-73602843D01*
X171306484Y-73601475D01*
X171280629Y-73595320D01*
X171254837Y-73584537D01*
X171229603Y-73569286D01*
X171205417Y-73549727D01*
X171183571Y-73526962D01*
X171169321Y-73509202D01*
X171156690Y-73491063D01*
X171145426Y-73471907D01*
X171135277Y-73451099D01*
X171125991Y-73428000D01*
X171117316Y-73401973D01*
X171108999Y-73372382D01*
X171100790Y-73338590D01*
X171092435Y-73299959D01*
X171090997Y-73292937D01*
X171085134Y-73264410D01*
X171080113Y-73240805D01*
X171075757Y-73221540D01*
X171071886Y-73206031D01*
X171068323Y-73193694D01*
X171064891Y-73183946D01*
X171061412Y-73176202D01*
X171057707Y-73169879D01*
X171053599Y-73164394D01*
X171050886Y-73161283D01*
X171041568Y-73153572D01*
X171030064Y-73147517D01*
X171018790Y-73144296D01*
X171015478Y-73144055D01*
X171005635Y-73146589D01*
X170997961Y-73154008D01*
X170992445Y-73166040D01*
X170989077Y-73182411D01*
X170987845Y-73202849D01*
X170988738Y-73227080D01*
X170991747Y-73254831D01*
X170996860Y-73285829D01*
X171004066Y-73319802D01*
X171013355Y-73356475D01*
X171024715Y-73395577D01*
X171025552Y-73398285D01*
X171029545Y-73411071D01*
X171033037Y-73422108D01*
X171035636Y-73430170D01*
X171036913Y-73433933D01*
X171034945Y-73433811D01*
X171028612Y-73431428D01*
X171018539Y-73427064D01*
X171005351Y-73421000D01*
X170989674Y-73413517D01*
X170972133Y-73404895D01*
X170971520Y-73404590D01*
X170904580Y-73371217D01*
X170897145Y-73331140D01*
X170887519Y-73274532D01*
X170880287Y-73221496D01*
X170875448Y-73172214D01*
X170872999Y-73126866D01*
X170872942Y-73085634D01*
X170875274Y-73048700D01*
X170879994Y-73016245D01*
X170887101Y-72988449D01*
X170896595Y-72965496D01*
X170899275Y-72960646D01*
X170908908Y-72947341D01*
X170920889Y-72935415D01*
X170933476Y-72926497D01*
X170938298Y-72924134D01*
X170951088Y-72920842D01*
X170967305Y-72919710D01*
X170985208Y-72920736D01*
G37*
G36*
X171203594Y-77200333D02*
G01*
X171201413Y-77199903D01*
X171188711Y-77196809D01*
X171173345Y-77192371D01*
X171157846Y-77187341D01*
X171151307Y-77185013D01*
X171108257Y-77166206D01*
X171068067Y-77142725D01*
X171030950Y-77114831D01*
X170997116Y-77082785D01*
X170966776Y-77046846D01*
X170940142Y-77007275D01*
X170917423Y-76964332D01*
X170898833Y-76918278D01*
X170884581Y-76869372D01*
X170880555Y-76851130D01*
X170878202Y-76838702D01*
X170876491Y-76827278D01*
X170875386Y-76816124D01*
X171026945Y-76816124D01*
X171028674Y-76840342D01*
X171034959Y-76864850D01*
X171043967Y-76885430D01*
X171058596Y-76907490D01*
X171077926Y-76928123D01*
X171101126Y-76946783D01*
X171127368Y-76962926D01*
X171155820Y-76976006D01*
X171185652Y-76985477D01*
X171201112Y-76988738D01*
X171222679Y-76990265D01*
X171241517Y-76987147D01*
X171257356Y-76979771D01*
X171269927Y-76968523D01*
X171278961Y-76953789D01*
X171284190Y-76935956D01*
X171285345Y-76915409D01*
X171282156Y-76892534D01*
X171278140Y-76878138D01*
X171270425Y-76858826D01*
X171260331Y-76841739D01*
X171246671Y-76824993D01*
X171240984Y-76819021D01*
X171221626Y-76801731D01*
X171199684Y-76786261D01*
X171176096Y-76772992D01*
X171151800Y-76762307D01*
X171127731Y-76754585D01*
X171104828Y-76750209D01*
X171084027Y-76749559D01*
X171073657Y-76750962D01*
X171059379Y-76756574D01*
X171046400Y-76766426D01*
X171036123Y-76779158D01*
X171029954Y-76793388D01*
X171026945Y-76816124D01*
X170875386Y-76816124D01*
X170875331Y-76815564D01*
X170874628Y-76802268D01*
X170874290Y-76786101D01*
X170874222Y-76765769D01*
X170874227Y-76763226D01*
X170874327Y-76743539D01*
X170874591Y-76728287D01*
X170875126Y-76716305D01*
X170876038Y-76706427D01*
X170877432Y-76697489D01*
X170879415Y-76688326D01*
X170881967Y-76678252D01*
X170893061Y-76644024D01*
X170907182Y-76614128D01*
X170924218Y-76588703D01*
X170944060Y-76567886D01*
X170966598Y-76551814D01*
X170991719Y-76540626D01*
X170992897Y-76540243D01*
X171018991Y-76534438D01*
X171048182Y-76532509D01*
X171079578Y-76534401D01*
X171112286Y-76540060D01*
X171145413Y-76549432D01*
X171145706Y-76549532D01*
X171190094Y-76567556D01*
X171231930Y-76590416D01*
X171270848Y-76617791D01*
X171306483Y-76649362D01*
X171338468Y-76684808D01*
X171366439Y-76723808D01*
X171387736Y-76761402D01*
X171403791Y-76798463D01*
X171416814Y-76838979D01*
X171426538Y-76881535D01*
X171432696Y-76924715D01*
X171435020Y-76967105D01*
X171433556Y-77004037D01*
X171428821Y-77038114D01*
X171421150Y-77070376D01*
X171410839Y-77100114D01*
X171398179Y-77126615D01*
X171383463Y-77149168D01*
X171366986Y-77167063D01*
X171366054Y-77167881D01*
X171351227Y-77178637D01*
X171333136Y-77188603D01*
X171314108Y-77196644D01*
X171297407Y-77201437D01*
X171281655Y-77203528D01*
X171262417Y-77204431D01*
X171241674Y-77204179D01*
X171222679Y-77202888D01*
X171221407Y-77202802D01*
X171203594Y-77200333D01*
G37*
G36*
X168341374Y-77564064D02*
G01*
X168339974Y-77565464D01*
X168338574Y-77564064D01*
X168339974Y-77562664D01*
X168341374Y-77564064D01*
G37*
G36*
X168043507Y-72943975D02*
G01*
X168060332Y-72944167D01*
X168073709Y-72944607D01*
X168084715Y-72945370D01*
X168094425Y-72946532D01*
X168103915Y-72948167D01*
X168114261Y-72950351D01*
X168114563Y-72950419D01*
X168154668Y-72960786D01*
X168193634Y-72973818D01*
X168231984Y-72989812D01*
X168270242Y-73009064D01*
X168308929Y-73031869D01*
X168348569Y-73058523D01*
X168389683Y-73089323D01*
X168432795Y-73124565D01*
X168453379Y-73142294D01*
X168468255Y-73155695D01*
X168486152Y-73172468D01*
X168506310Y-73191851D01*
X168527969Y-73213084D01*
X168550372Y-73235404D01*
X168572759Y-73258053D01*
X168594371Y-73280267D01*
X168614449Y-73301286D01*
X168632234Y-73320349D01*
X168644820Y-73334263D01*
X168702754Y-73401960D01*
X168759381Y-73472834D01*
X168813776Y-73545636D01*
X168865012Y-73619117D01*
X168912163Y-73692030D01*
X168921271Y-73706844D01*
X168928843Y-73719446D01*
X168933945Y-73728678D01*
X168937096Y-73735906D01*
X168938816Y-73742495D01*
X168939625Y-73749813D01*
X168939918Y-73755847D01*
X168939564Y-73771585D01*
X168937153Y-73782599D01*
X168936583Y-73783885D01*
X168930235Y-73794732D01*
X168922818Y-73802278D01*
X168918201Y-73805459D01*
X168890633Y-73822554D01*
X168861300Y-73840657D01*
X168830566Y-73859551D01*
X168798792Y-73879018D01*
X168766341Y-73898840D01*
X168733575Y-73918797D01*
X168700857Y-73938672D01*
X168668549Y-73958246D01*
X168637012Y-73977301D01*
X168606610Y-73995620D01*
X168577705Y-74012983D01*
X168550659Y-74029172D01*
X168525834Y-74043969D01*
X168503592Y-74057156D01*
X168484297Y-74068514D01*
X168468309Y-74077826D01*
X168455992Y-74084872D01*
X168447708Y-74089435D01*
X168443819Y-74091296D01*
X168443756Y-74091312D01*
X168428582Y-74092160D01*
X168413988Y-74088302D01*
X168401190Y-74080441D01*
X168391404Y-74069280D01*
X168386478Y-74058158D01*
X168384981Y-74052430D01*
X168382380Y-74042137D01*
X168378893Y-74028159D01*
X168374739Y-74011373D01*
X168370135Y-73992657D01*
X168366343Y-73977162D01*
X168356969Y-73940011D01*
X168346393Y-73900297D01*
X168334798Y-73858583D01*
X168322367Y-73815436D01*
X168309282Y-73771419D01*
X168295726Y-73727098D01*
X168281881Y-73683037D01*
X168267930Y-73639802D01*
X168254056Y-73597958D01*
X168240441Y-73558069D01*
X168227269Y-73520700D01*
X168214721Y-73486417D01*
X168202980Y-73455784D01*
X168192229Y-73429366D01*
X168182651Y-73407728D01*
X168181367Y-73405012D01*
X168168180Y-73382073D01*
X168153008Y-73364019D01*
X168136109Y-73350971D01*
X168117741Y-73343048D01*
X168098161Y-73340370D01*
X168077629Y-73343055D01*
X168060700Y-73349141D01*
X168041723Y-73360851D01*
X168024854Y-73377314D01*
X168010506Y-73397947D01*
X167999090Y-73422164D01*
X167991502Y-73447234D01*
X167988984Y-73458521D01*
X167986967Y-73468776D01*
X167985370Y-73478893D01*
X167984115Y-73489767D01*
X167983121Y-73502291D01*
X167982310Y-73517360D01*
X167981602Y-73535868D01*
X167980918Y-73558708D01*
X167980620Y-73569727D01*
X167978757Y-73640165D01*
X167970900Y-73646922D01*
X167961739Y-73652243D01*
X167951221Y-73653679D01*
X167945886Y-73653904D01*
X167935779Y-73654545D01*
X167921557Y-73655546D01*
X167903878Y-73656856D01*
X167883400Y-73658419D01*
X167860782Y-73660184D01*
X167836680Y-73662095D01*
X167811753Y-73664101D01*
X167786660Y-73666146D01*
X167762057Y-73668178D01*
X167738603Y-73670143D01*
X167716956Y-73671988D01*
X167697773Y-73673658D01*
X167681714Y-73675101D01*
X167669435Y-73676263D01*
X167661594Y-73677090D01*
X167659036Y-73677455D01*
X167648970Y-73677272D01*
X167640765Y-73672292D01*
X167636103Y-73664353D01*
X167633859Y-73654207D01*
X167631884Y-73638639D01*
X167630186Y-73617818D01*
X167628772Y-73591918D01*
X167627650Y-73561108D01*
X167626828Y-73525561D01*
X167626314Y-73485447D01*
X167626114Y-73440938D01*
X167626114Y-73440869D01*
X167626202Y-73399635D01*
X167626577Y-73363424D01*
X167627291Y-73331662D01*
X167628397Y-73303776D01*
X167629948Y-73279193D01*
X167631998Y-73257340D01*
X167634600Y-73237643D01*
X167637806Y-73219531D01*
X167641669Y-73202429D01*
X167646244Y-73185764D01*
X167651186Y-73170144D01*
X167666237Y-73133790D01*
X167686160Y-73099919D01*
X167710724Y-73068717D01*
X167739695Y-73040367D01*
X167772841Y-73015051D01*
X167809929Y-72992955D01*
X167850726Y-72974261D01*
X167895000Y-72959153D01*
X167929754Y-72950414D01*
X167940402Y-72948258D01*
X167950381Y-72946640D01*
X167960782Y-72945483D01*
X167972695Y-72944712D01*
X167987209Y-72944249D01*
X168005415Y-72944020D01*
X168022159Y-72943955D01*
X168043507Y-72943975D01*
G37*
%TO.C,C7*%
X167359000Y-81933148D02*
X167359000Y-82455652D01*
X165889000Y-81933148D02*
X165889000Y-82455652D01*
%TO.C,U1*%
X162941000Y-94791000D02*
X160741000Y-94791000D01*
X162941000Y-88021000D02*
X165141000Y-88021000D01*
X162941000Y-88021000D02*
X159341000Y-88021000D01*
X162941000Y-94791000D02*
X165141000Y-94791000D01*
%TD*%
M02*
