%TF.GenerationSoftware,KiCad,Pcbnew,(6.0.8)*%
%TF.CreationDate,2023-05-03T15:07:48+02:00*%
%TF.ProjectId,Floppy Board v3.1,466c6f70-7079-4204-926f-617264207633,3.0*%
%TF.SameCoordinates,Original*%
%TF.FileFunction,Soldermask,Bot*%
%TF.FilePolarity,Negative*%
%FSLAX46Y46*%
G04 Gerber Fmt 4.6, Leading zero omitted, Abs format (unit mm)*
G04 Created by KiCad (PCBNEW (6.0.8)) date 2023-05-03 15:07:48*
%MOMM*%
%LPD*%
G01*
G04 APERTURE LIST*
G04 Aperture macros list*
%AMRoundRect*
0 Rectangle with rounded corners*
0 $1 Rounding radius*
0 $2 $3 $4 $5 $6 $7 $8 $9 X,Y pos of 4 corners*
0 Add a 4 corners polygon primitive as box body*
4,1,4,$2,$3,$4,$5,$6,$7,$8,$9,$2,$3,0*
0 Add four circle primitives for the rounded corners*
1,1,$1+$1,$2,$3*
1,1,$1+$1,$4,$5*
1,1,$1+$1,$6,$7*
1,1,$1+$1,$8,$9*
0 Add four rect primitives between the rounded corners*
20,1,$1+$1,$2,$3,$4,$5,0*
20,1,$1+$1,$4,$5,$6,$7,0*
20,1,$1+$1,$6,$7,$8,$9,0*
20,1,$1+$1,$8,$9,$2,$3,0*%
%AMFreePoly0*
4,1,22,0.500000,-0.750000,0.000000,-0.750000,0.000000,-0.745033,-0.079941,-0.743568,-0.215256,-0.701293,-0.333266,-0.622738,-0.424486,-0.514219,-0.481581,-0.384460,-0.499164,-0.250000,-0.500000,-0.250000,-0.500000,0.250000,-0.499164,0.250000,-0.499963,0.256109,-0.478152,0.396186,-0.417904,0.524511,-0.324060,0.630769,-0.204165,0.706417,-0.067858,0.745374,0.000000,0.744959,0.000000,0.750000,
0.500000,0.750000,0.500000,-0.750000,0.500000,-0.750000,$1*%
%AMFreePoly1*
4,1,20,0.000000,0.744959,0.073905,0.744508,0.209726,0.703889,0.328688,0.626782,0.421226,0.519385,0.479903,0.390333,0.500000,0.250000,0.500000,-0.250000,0.499851,-0.262216,0.476331,-0.402017,0.414519,-0.529596,0.319384,-0.634700,0.198574,-0.708877,0.061801,-0.746166,0.000000,-0.745033,0.000000,-0.750000,-0.500000,-0.750000,-0.500000,0.750000,0.000000,0.750000,0.000000,0.744959,
0.000000,0.744959,$1*%
G04 Aperture macros list end*
%ADD10R,1.700000X1.700000*%
%ADD11O,1.700000X1.700000*%
%ADD12C,0.650000*%
%ADD13O,1.000000X2.100000*%
%ADD14O,1.000000X1.800000*%
%ADD15RoundRect,0.250000X-0.450000X0.350000X-0.450000X-0.350000X0.450000X-0.350000X0.450000X0.350000X0*%
%ADD16RoundRect,0.150000X0.150000X-0.675000X0.150000X0.675000X-0.150000X0.675000X-0.150000X-0.675000X0*%
%ADD17FreePoly0,90.000000*%
%ADD18FreePoly1,90.000000*%
%ADD19RoundRect,0.250000X-0.337500X-0.475000X0.337500X-0.475000X0.337500X0.475000X-0.337500X0.475000X0*%
%ADD20R,1.200000X0.900000*%
%ADD21R,0.900000X1.200000*%
%ADD22RoundRect,0.150000X-0.150000X0.675000X-0.150000X-0.675000X0.150000X-0.675000X0.150000X0.675000X0*%
%ADD23RoundRect,0.250000X0.450000X-0.350000X0.450000X0.350000X-0.450000X0.350000X-0.450000X-0.350000X0*%
%ADD24R,1.100000X1.100000*%
G04 APERTURE END LIST*
D10*
%TO.C,J1*%
X162822000Y-110938000D03*
D11*
X165362000Y-110938000D03*
X167902000Y-110938000D03*
X170442000Y-110938000D03*
%TD*%
D12*
%TO.C,J2*%
X164947000Y-76730500D03*
X159167000Y-76730500D03*
D13*
X157737000Y-77230500D03*
D14*
X157737000Y-73050500D03*
D13*
X166377000Y-77230500D03*
D14*
X166377000Y-73050500D03*
%TD*%
D10*
%TO.C,J4*%
X170942000Y-107188000D03*
D11*
X170942000Y-104648000D03*
X170942000Y-102108000D03*
X170942000Y-99568000D03*
X170942000Y-97028000D03*
X170942000Y-94488000D03*
X170942000Y-91948000D03*
X170942000Y-89408000D03*
X170942000Y-86868000D03*
X170942000Y-84328000D03*
X170942000Y-81788000D03*
X170942000Y-79248000D03*
%TD*%
D15*
%TO.C,R1*%
X165735000Y-101235000D03*
X165735000Y-103235000D03*
%TD*%
D16*
%TO.C,U2*%
X163830000Y-103082000D03*
X162560000Y-103082000D03*
X161290000Y-103082000D03*
X160020000Y-103082000D03*
X160020000Y-97832000D03*
X161290000Y-97832000D03*
X162560000Y-97832000D03*
X163830000Y-97832000D03*
%TD*%
D15*
%TO.C,R2*%
X155956000Y-101235000D03*
X155956000Y-103235000D03*
%TD*%
D17*
%TO.C,JP1*%
X159385000Y-94884000D03*
D18*
X159385000Y-93584000D03*
%TD*%
D19*
%TO.C,C8*%
X166475500Y-90119200D03*
X168550500Y-90119200D03*
%TD*%
%TO.C,C3*%
X164214900Y-106476800D03*
X166289900Y-106476800D03*
%TD*%
D20*
%TO.C,D1*%
X167843200Y-85114400D03*
X167843200Y-81814400D03*
%TD*%
D21*
%TO.C,D5*%
X159180800Y-85750400D03*
X155880800Y-85750400D03*
%TD*%
D22*
%TO.C,U4*%
X160909000Y-81652200D03*
X162179000Y-81652200D03*
X163449000Y-81652200D03*
X164719000Y-81652200D03*
X164719000Y-86902200D03*
X163449000Y-86902200D03*
X162179000Y-86902200D03*
X160909000Y-86902200D03*
%TD*%
D23*
%TO.C,R7*%
X168097200Y-78673200D03*
X168097200Y-76673200D03*
%TD*%
D15*
%TO.C,R6*%
X156006800Y-76673200D03*
X156006800Y-78673200D03*
%TD*%
D17*
%TO.C,JP2*%
X162052000Y-94884000D03*
D18*
X162052000Y-93584000D03*
%TD*%
D23*
%TO.C,R3*%
X158115000Y-103235000D03*
X158115000Y-101235000D03*
%TD*%
D24*
%TO.C,D3*%
X156130800Y-88392000D03*
X158930800Y-88392000D03*
%TD*%
D10*
%TO.C,J3*%
X153162000Y-81788000D03*
D11*
X153162000Y-84328000D03*
X153162000Y-86868000D03*
X153162000Y-89408000D03*
X153162000Y-91948000D03*
X153162000Y-94488000D03*
X153162000Y-97028000D03*
X153162000Y-99568000D03*
X153162000Y-102108000D03*
X153162000Y-104648000D03*
X153162000Y-107188000D03*
%TD*%
D17*
%TO.C,JP3*%
X164719000Y-94884000D03*
D18*
X164719000Y-93584000D03*
%TD*%
D19*
%TO.C,C9*%
X166475500Y-88087200D03*
X168550500Y-88087200D03*
%TD*%
M02*
