%TF.GenerationSoftware,KiCad,Pcbnew,(6.0.8)*%
%TF.CreationDate,2023-05-03T15:07:50+02:00*%
%TF.ProjectId,Floppy Board v3.1,466c6f70-7079-4204-926f-617264207633,3.0*%
%TF.SameCoordinates,Original*%
%TF.FileFunction,Drillmap*%
%TF.FilePolarity,Positive*%
%FSLAX45Y45*%
G04 Gerber Fmt 4.5, Leading zero omitted, Abs format (unit mm)*
G04 Created by KiCad (PCBNEW (6.0.8)) date 2023-05-03 15:07:50*
%MOMM*%
%LPD*%
G01*
G04 APERTURE LIST*
%ADD10C,0.100000*%
%ADD11C,0.200000*%
%ADD12C,0.065000*%
G04 APERTURE END LIST*
D10*
X15181200Y-11080800D02*
X15181200Y-7366000D01*
X15381200Y-7166000D02*
X17031200Y-7166000D01*
X17031200Y-11280800D02*
G75*
G03*
X17231200Y-11080800I0J200000D01*
G01*
X15181200Y-11080800D02*
G75*
G03*
X15381200Y-11280800I200000J0D01*
G01*
X15381200Y-7166000D02*
G75*
G03*
X15181200Y-7366000I0J-200000D01*
G01*
X17031200Y-11280800D02*
X15381200Y-11280800D01*
X17231200Y-7366000D02*
G75*
G03*
X17031200Y-7166000I-200000J0D01*
G01*
X17231200Y-7366000D02*
X17231200Y-11080800D01*
D11*
D12*
X15884200Y-7640550D02*
X15949200Y-7705550D01*
X15949200Y-7640550D02*
X15884200Y-7705550D01*
X16462200Y-7640550D02*
X16527200Y-7705550D01*
X16527200Y-7640550D02*
X16462200Y-7705550D01*
D11*
X15433819Y-11596276D02*
X15433819Y-11396276D01*
X15481438Y-11396276D01*
X15510009Y-11405800D01*
X15529057Y-11424848D01*
X15538581Y-11443895D01*
X15548105Y-11481990D01*
X15548105Y-11510562D01*
X15538581Y-11548657D01*
X15529057Y-11567705D01*
X15510009Y-11586752D01*
X15481438Y-11596276D01*
X15433819Y-11596276D01*
X15633819Y-11596276D02*
X15633819Y-11462943D01*
X15633819Y-11501038D02*
X15643343Y-11481990D01*
X15652867Y-11472467D01*
X15671914Y-11462943D01*
X15690962Y-11462943D01*
X15757628Y-11596276D02*
X15757628Y-11462943D01*
X15757628Y-11396276D02*
X15748105Y-11405800D01*
X15757628Y-11415324D01*
X15767152Y-11405800D01*
X15757628Y-11396276D01*
X15757628Y-11415324D01*
X15881438Y-11596276D02*
X15862390Y-11586752D01*
X15852867Y-11567705D01*
X15852867Y-11396276D01*
X15986200Y-11596276D02*
X15967152Y-11586752D01*
X15957628Y-11567705D01*
X15957628Y-11396276D01*
X16214771Y-11596276D02*
X16214771Y-11396276D01*
X16281438Y-11539133D01*
X16348105Y-11396276D01*
X16348105Y-11596276D01*
X16529057Y-11596276D02*
X16529057Y-11491514D01*
X16519533Y-11472467D01*
X16500486Y-11462943D01*
X16462390Y-11462943D01*
X16443343Y-11472467D01*
X16529057Y-11586752D02*
X16510009Y-11596276D01*
X16462390Y-11596276D01*
X16443343Y-11586752D01*
X16433819Y-11567705D01*
X16433819Y-11548657D01*
X16443343Y-11529609D01*
X16462390Y-11520086D01*
X16510009Y-11520086D01*
X16529057Y-11510562D01*
X16624295Y-11462943D02*
X16624295Y-11662943D01*
X16624295Y-11472467D02*
X16643343Y-11462943D01*
X16681438Y-11462943D01*
X16700486Y-11472467D01*
X16710009Y-11481990D01*
X16719533Y-11501038D01*
X16719533Y-11558181D01*
X16710009Y-11577228D01*
X16700486Y-11586752D01*
X16681438Y-11596276D01*
X16643343Y-11596276D01*
X16624295Y-11586752D01*
X16805248Y-11577228D02*
X16814771Y-11586752D01*
X16805248Y-11596276D01*
X16795724Y-11586752D01*
X16805248Y-11577228D01*
X16805248Y-11596276D01*
X16805248Y-11472467D02*
X16814771Y-11481990D01*
X16805248Y-11491514D01*
X16795724Y-11481990D01*
X16805248Y-11472467D01*
X16805248Y-11491514D01*
D12*
X15111200Y-11893300D02*
X15176200Y-11958300D01*
X15176200Y-11893300D02*
X15111200Y-11958300D01*
D11*
X15471914Y-11816276D02*
X15490962Y-11816276D01*
X15510009Y-11825800D01*
X15519533Y-11835324D01*
X15529057Y-11854371D01*
X15538581Y-11892467D01*
X15538581Y-11940086D01*
X15529057Y-11978181D01*
X15519533Y-11997228D01*
X15510009Y-12006752D01*
X15490962Y-12016276D01*
X15471914Y-12016276D01*
X15452867Y-12006752D01*
X15443343Y-11997228D01*
X15433819Y-11978181D01*
X15424295Y-11940086D01*
X15424295Y-11892467D01*
X15433819Y-11854371D01*
X15443343Y-11835324D01*
X15452867Y-11825800D01*
X15471914Y-11816276D01*
X15624295Y-11997228D02*
X15633819Y-12006752D01*
X15624295Y-12016276D01*
X15614771Y-12006752D01*
X15624295Y-11997228D01*
X15624295Y-12016276D01*
X15805248Y-11816276D02*
X15767152Y-11816276D01*
X15748105Y-11825800D01*
X15738581Y-11835324D01*
X15719533Y-11863895D01*
X15710009Y-11901990D01*
X15710009Y-11978181D01*
X15719533Y-11997228D01*
X15729057Y-12006752D01*
X15748105Y-12016276D01*
X15786200Y-12016276D01*
X15805248Y-12006752D01*
X15814771Y-11997228D01*
X15824295Y-11978181D01*
X15824295Y-11930562D01*
X15814771Y-11911514D01*
X15805248Y-11901990D01*
X15786200Y-11892467D01*
X15748105Y-11892467D01*
X15729057Y-11901990D01*
X15719533Y-11911514D01*
X15710009Y-11930562D01*
X16005248Y-11816276D02*
X15910009Y-11816276D01*
X15900486Y-11911514D01*
X15910009Y-11901990D01*
X15929057Y-11892467D01*
X15976676Y-11892467D01*
X15995724Y-11901990D01*
X16005248Y-11911514D01*
X16014771Y-11930562D01*
X16014771Y-11978181D01*
X16005248Y-11997228D01*
X15995724Y-12006752D01*
X15976676Y-12016276D01*
X15929057Y-12016276D01*
X15910009Y-12006752D01*
X15900486Y-11997228D01*
X16138581Y-11816276D02*
X16157628Y-11816276D01*
X16176676Y-11825800D01*
X16186200Y-11835324D01*
X16195724Y-11854371D01*
X16205248Y-11892467D01*
X16205248Y-11940086D01*
X16195724Y-11978181D01*
X16186200Y-11997228D01*
X16176676Y-12006752D01*
X16157628Y-12016276D01*
X16138581Y-12016276D01*
X16119533Y-12006752D01*
X16110009Y-11997228D01*
X16100486Y-11978181D01*
X16090962Y-11940086D01*
X16090962Y-11892467D01*
X16100486Y-11854371D01*
X16110009Y-11835324D01*
X16119533Y-11825800D01*
X16138581Y-11816276D01*
X16290962Y-12016276D02*
X16290962Y-11882943D01*
X16290962Y-11901990D02*
X16300486Y-11892467D01*
X16319533Y-11882943D01*
X16348105Y-11882943D01*
X16367152Y-11892467D01*
X16376676Y-11911514D01*
X16376676Y-12016276D01*
X16376676Y-11911514D02*
X16386200Y-11892467D01*
X16405248Y-11882943D01*
X16433819Y-11882943D01*
X16452867Y-11892467D01*
X16462390Y-11911514D01*
X16462390Y-12016276D01*
X16557628Y-12016276D02*
X16557628Y-11882943D01*
X16557628Y-11901990D02*
X16567152Y-11892467D01*
X16586200Y-11882943D01*
X16614771Y-11882943D01*
X16633819Y-11892467D01*
X16643343Y-11911514D01*
X16643343Y-12016276D01*
X16643343Y-11911514D02*
X16652867Y-11892467D01*
X16671914Y-11882943D01*
X16700486Y-11882943D01*
X16719533Y-11892467D01*
X16729057Y-11911514D01*
X16729057Y-12016276D01*
X17119533Y-11806752D02*
X16948105Y-12063895D01*
X17376676Y-11816276D02*
X17395724Y-11816276D01*
X17414771Y-11825800D01*
X17424295Y-11835324D01*
X17433819Y-11854371D01*
X17443343Y-11892467D01*
X17443343Y-11940086D01*
X17433819Y-11978181D01*
X17424295Y-11997228D01*
X17414771Y-12006752D01*
X17395724Y-12016276D01*
X17376676Y-12016276D01*
X17357629Y-12006752D01*
X17348105Y-11997228D01*
X17338581Y-11978181D01*
X17329057Y-11940086D01*
X17329057Y-11892467D01*
X17338581Y-11854371D01*
X17348105Y-11835324D01*
X17357629Y-11825800D01*
X17376676Y-11816276D01*
X17529057Y-11997228D02*
X17538581Y-12006752D01*
X17529057Y-12016276D01*
X17519533Y-12006752D01*
X17529057Y-11997228D01*
X17529057Y-12016276D01*
X17662390Y-11816276D02*
X17681438Y-11816276D01*
X17700486Y-11825800D01*
X17710010Y-11835324D01*
X17719533Y-11854371D01*
X17729057Y-11892467D01*
X17729057Y-11940086D01*
X17719533Y-11978181D01*
X17710010Y-11997228D01*
X17700486Y-12006752D01*
X17681438Y-12016276D01*
X17662390Y-12016276D01*
X17643343Y-12006752D01*
X17633819Y-11997228D01*
X17624295Y-11978181D01*
X17614771Y-11940086D01*
X17614771Y-11892467D01*
X17624295Y-11854371D01*
X17633819Y-11835324D01*
X17643343Y-11825800D01*
X17662390Y-11816276D01*
X17805248Y-11835324D02*
X17814771Y-11825800D01*
X17833819Y-11816276D01*
X17881438Y-11816276D01*
X17900486Y-11825800D01*
X17910010Y-11835324D01*
X17919533Y-11854371D01*
X17919533Y-11873419D01*
X17910010Y-11901990D01*
X17795724Y-12016276D01*
X17919533Y-12016276D01*
X18100486Y-11816276D02*
X18005248Y-11816276D01*
X17995724Y-11911514D01*
X18005248Y-11901990D01*
X18024295Y-11892467D01*
X18071914Y-11892467D01*
X18090962Y-11901990D01*
X18100486Y-11911514D01*
X18110010Y-11930562D01*
X18110010Y-11978181D01*
X18100486Y-11997228D01*
X18090962Y-12006752D01*
X18071914Y-12016276D01*
X18024295Y-12016276D01*
X18005248Y-12006752D01*
X17995724Y-11997228D01*
X18281438Y-11816276D02*
X18243343Y-11816276D01*
X18224295Y-11825800D01*
X18214771Y-11835324D01*
X18195724Y-11863895D01*
X18186200Y-11901990D01*
X18186200Y-11978181D01*
X18195724Y-11997228D01*
X18205248Y-12006752D01*
X18224295Y-12016276D01*
X18262390Y-12016276D01*
X18281438Y-12006752D01*
X18290962Y-11997228D01*
X18300486Y-11978181D01*
X18300486Y-11930562D01*
X18290962Y-11911514D01*
X18281438Y-11901990D01*
X18262390Y-11892467D01*
X18224295Y-11892467D01*
X18205248Y-11901990D01*
X18195724Y-11911514D01*
X18186200Y-11930562D01*
X18376676Y-11816276D02*
X18376676Y-11854371D01*
X18452867Y-11816276D02*
X18452867Y-11854371D01*
X18748105Y-12092467D02*
X18738581Y-12082943D01*
X18719533Y-12054371D01*
X18710010Y-12035324D01*
X18700486Y-12006752D01*
X18690962Y-11959133D01*
X18690962Y-11921038D01*
X18700486Y-11873419D01*
X18710010Y-11844848D01*
X18719533Y-11825800D01*
X18738581Y-11797228D01*
X18748105Y-11787705D01*
X18814771Y-11835324D02*
X18824295Y-11825800D01*
X18843343Y-11816276D01*
X18890962Y-11816276D01*
X18910010Y-11825800D01*
X18919533Y-11835324D01*
X18929057Y-11854371D01*
X18929057Y-11873419D01*
X18919533Y-11901990D01*
X18805248Y-12016276D01*
X18929057Y-12016276D01*
X19167152Y-12016276D02*
X19167152Y-11816276D01*
X19252867Y-12016276D02*
X19252867Y-11911514D01*
X19243343Y-11892467D01*
X19224295Y-11882943D01*
X19195724Y-11882943D01*
X19176676Y-11892467D01*
X19167152Y-11901990D01*
X19376676Y-12016276D02*
X19357629Y-12006752D01*
X19348105Y-11997228D01*
X19338581Y-11978181D01*
X19338581Y-11921038D01*
X19348105Y-11901990D01*
X19357629Y-11892467D01*
X19376676Y-11882943D01*
X19405248Y-11882943D01*
X19424295Y-11892467D01*
X19433819Y-11901990D01*
X19443343Y-11921038D01*
X19443343Y-11978181D01*
X19433819Y-11997228D01*
X19424295Y-12006752D01*
X19405248Y-12016276D01*
X19376676Y-12016276D01*
X19557629Y-12016276D02*
X19538581Y-12006752D01*
X19529057Y-11987705D01*
X19529057Y-11816276D01*
X19710010Y-12006752D02*
X19690962Y-12016276D01*
X19652867Y-12016276D01*
X19633819Y-12006752D01*
X19624295Y-11987705D01*
X19624295Y-11911514D01*
X19633819Y-11892467D01*
X19652867Y-11882943D01*
X19690962Y-11882943D01*
X19710010Y-11892467D01*
X19719533Y-11911514D01*
X19719533Y-11930562D01*
X19624295Y-11949609D01*
X19795724Y-12006752D02*
X19814771Y-12016276D01*
X19852867Y-12016276D01*
X19871914Y-12006752D01*
X19881438Y-11987705D01*
X19881438Y-11978181D01*
X19871914Y-11959133D01*
X19852867Y-11949609D01*
X19824295Y-11949609D01*
X19805248Y-11940086D01*
X19795724Y-11921038D01*
X19795724Y-11911514D01*
X19805248Y-11892467D01*
X19824295Y-11882943D01*
X19852867Y-11882943D01*
X19871914Y-11892467D01*
X19948105Y-12092467D02*
X19957629Y-12082943D01*
X19976676Y-12054371D01*
X19986200Y-12035324D01*
X19995724Y-12006752D01*
X20005248Y-11959133D01*
X20005248Y-11921038D01*
X19995724Y-11873419D01*
X19986200Y-11844848D01*
X19976676Y-11825800D01*
X19957629Y-11797228D01*
X19948105Y-11787705D01*
X20310010Y-12092467D02*
X20300486Y-12082943D01*
X20281438Y-12054371D01*
X20271914Y-12035324D01*
X20262390Y-12006752D01*
X20252867Y-11959133D01*
X20252867Y-11921038D01*
X20262390Y-11873419D01*
X20271914Y-11844848D01*
X20281438Y-11825800D01*
X20300486Y-11797228D01*
X20310010Y-11787705D01*
X20386200Y-11882943D02*
X20386200Y-12016276D01*
X20386200Y-11901990D02*
X20395724Y-11892467D01*
X20414771Y-11882943D01*
X20443343Y-11882943D01*
X20462390Y-11892467D01*
X20471914Y-11911514D01*
X20471914Y-12016276D01*
X20595724Y-12016276D02*
X20576676Y-12006752D01*
X20567152Y-11997228D01*
X20557629Y-11978181D01*
X20557629Y-11921038D01*
X20567152Y-11901990D01*
X20576676Y-11892467D01*
X20595724Y-11882943D01*
X20624295Y-11882943D01*
X20643343Y-11892467D01*
X20652867Y-11901990D01*
X20662390Y-11921038D01*
X20662390Y-11978181D01*
X20652867Y-11997228D01*
X20643343Y-12006752D01*
X20624295Y-12016276D01*
X20595724Y-12016276D01*
X20719533Y-11882943D02*
X20795724Y-11882943D01*
X20748105Y-11816276D02*
X20748105Y-11987705D01*
X20757629Y-12006752D01*
X20776676Y-12016276D01*
X20795724Y-12016276D01*
X21014771Y-11882943D02*
X21014771Y-12082943D01*
X21014771Y-11892467D02*
X21033819Y-11882943D01*
X21071914Y-11882943D01*
X21090962Y-11892467D01*
X21100486Y-11901990D01*
X21110010Y-11921038D01*
X21110010Y-11978181D01*
X21100486Y-11997228D01*
X21090962Y-12006752D01*
X21071914Y-12016276D01*
X21033819Y-12016276D01*
X21014771Y-12006752D01*
X21224295Y-12016276D02*
X21205248Y-12006752D01*
X21195724Y-11987705D01*
X21195724Y-11816276D01*
X21386200Y-12016276D02*
X21386200Y-11911514D01*
X21376676Y-11892467D01*
X21357629Y-11882943D01*
X21319533Y-11882943D01*
X21300486Y-11892467D01*
X21386200Y-12006752D02*
X21367152Y-12016276D01*
X21319533Y-12016276D01*
X21300486Y-12006752D01*
X21290962Y-11987705D01*
X21290962Y-11968657D01*
X21300486Y-11949609D01*
X21319533Y-11940086D01*
X21367152Y-11940086D01*
X21386200Y-11930562D01*
X21452867Y-11882943D02*
X21529057Y-11882943D01*
X21481438Y-11816276D02*
X21481438Y-11987705D01*
X21490962Y-12006752D01*
X21510010Y-12016276D01*
X21529057Y-12016276D01*
X21671914Y-12006752D02*
X21652867Y-12016276D01*
X21614771Y-12016276D01*
X21595724Y-12006752D01*
X21586200Y-11987705D01*
X21586200Y-11911514D01*
X21595724Y-11892467D01*
X21614771Y-11882943D01*
X21652867Y-11882943D01*
X21671914Y-11892467D01*
X21681438Y-11911514D01*
X21681438Y-11930562D01*
X21586200Y-11949609D01*
X21852867Y-12016276D02*
X21852867Y-11816276D01*
X21852867Y-12006752D02*
X21833819Y-12016276D01*
X21795724Y-12016276D01*
X21776676Y-12006752D01*
X21767152Y-11997228D01*
X21757629Y-11978181D01*
X21757629Y-11921038D01*
X21767152Y-11901990D01*
X21776676Y-11892467D01*
X21795724Y-11882943D01*
X21833819Y-11882943D01*
X21852867Y-11892467D01*
X21929057Y-12092467D02*
X21938581Y-12082943D01*
X21957629Y-12054371D01*
X21967152Y-12035324D01*
X21976676Y-12006752D01*
X21986200Y-11959133D01*
X21986200Y-11921038D01*
X21976676Y-11873419D01*
X21967152Y-11844848D01*
X21957629Y-11825800D01*
X21938581Y-11797228D01*
X21929057Y-11787705D01*
M02*
