%TF.GenerationSoftware,KiCad,Pcbnew,(6.0.8)*%
%TF.CreationDate,2023-05-03T15:07:47+02:00*%
%TF.ProjectId,Floppy Board v3.1,466c6f70-7079-4204-926f-617264207633,3.0*%
%TF.SameCoordinates,Original*%
%TF.FileFunction,Legend,Bot*%
%TF.FilePolarity,Positive*%
%FSLAX46Y46*%
G04 Gerber Fmt 4.6, Leading zero omitted, Abs format (unit mm)*
G04 Created by KiCad (PCBNEW (6.0.8)) date 2023-05-03 15:07:47*
%MOMM*%
%LPD*%
G01*
G04 APERTURE LIST*
%ADD10C,0.150000*%
%ADD11C,0.120000*%
G04 APERTURE END LIST*
D10*
X161493200Y-109626400D02*
X161493200Y-112318800D01*
X157886400Y-92532200D02*
X157886400Y-89966800D01*
X166217600Y-92532200D02*
X166217600Y-91236800D01*
X166217600Y-92532200D02*
X157886400Y-92532200D01*
X157886400Y-89966800D02*
X165404800Y-89966800D01*
X171805600Y-112318800D02*
X171805600Y-109626400D01*
X171805600Y-109626400D02*
X161493200Y-109626400D01*
X161493200Y-112318800D02*
X171805600Y-112318800D01*
%TO.C,R1*%
X165851666Y-100113266D02*
X166085000Y-99779933D01*
X166251666Y-100113266D02*
X166251666Y-99413266D01*
X165985000Y-99413266D01*
X165918333Y-99446600D01*
X165885000Y-99479933D01*
X165851666Y-99546600D01*
X165851666Y-99646600D01*
X165885000Y-99713266D01*
X165918333Y-99746600D01*
X165985000Y-99779933D01*
X166251666Y-99779933D01*
X165185000Y-100113266D02*
X165585000Y-100113266D01*
X165385000Y-100113266D02*
X165385000Y-99413266D01*
X165451666Y-99513266D01*
X165518333Y-99579933D01*
X165585000Y-99613266D01*
%TO.C,U2*%
X158978533Y-97051066D02*
X158978533Y-97617733D01*
X158945200Y-97684400D01*
X158911866Y-97717733D01*
X158845200Y-97751066D01*
X158711866Y-97751066D01*
X158645200Y-97717733D01*
X158611866Y-97684400D01*
X158578533Y-97617733D01*
X158578533Y-97051066D01*
X158278533Y-97117733D02*
X158245200Y-97084400D01*
X158178533Y-97051066D01*
X158011866Y-97051066D01*
X157945200Y-97084400D01*
X157911866Y-97117733D01*
X157878533Y-97184400D01*
X157878533Y-97251066D01*
X157911866Y-97351066D01*
X158311866Y-97751066D01*
X157878533Y-97751066D01*
%TO.C,R2*%
X156072666Y-100113266D02*
X156306000Y-99779933D01*
X156472666Y-100113266D02*
X156472666Y-99413266D01*
X156206000Y-99413266D01*
X156139333Y-99446600D01*
X156106000Y-99479933D01*
X156072666Y-99546600D01*
X156072666Y-99646600D01*
X156106000Y-99713266D01*
X156139333Y-99746600D01*
X156206000Y-99779933D01*
X156472666Y-99779933D01*
X155806000Y-99479933D02*
X155772666Y-99446600D01*
X155706000Y-99413266D01*
X155539333Y-99413266D01*
X155472666Y-99446600D01*
X155439333Y-99479933D01*
X155406000Y-99546600D01*
X155406000Y-99613266D01*
X155439333Y-99713266D01*
X155839333Y-100113266D01*
X155406000Y-100113266D01*
%TO.C,C8*%
X167629666Y-91944000D02*
X167663000Y-91977333D01*
X167763000Y-92010666D01*
X167829666Y-92010666D01*
X167929666Y-91977333D01*
X167996333Y-91910666D01*
X168029666Y-91844000D01*
X168063000Y-91710666D01*
X168063000Y-91610666D01*
X168029666Y-91477333D01*
X167996333Y-91410666D01*
X167929666Y-91344000D01*
X167829666Y-91310666D01*
X167763000Y-91310666D01*
X167663000Y-91344000D01*
X167629666Y-91377333D01*
X167229666Y-91610666D02*
X167296333Y-91577333D01*
X167329666Y-91544000D01*
X167363000Y-91477333D01*
X167363000Y-91444000D01*
X167329666Y-91377333D01*
X167296333Y-91344000D01*
X167229666Y-91310666D01*
X167096333Y-91310666D01*
X167029666Y-91344000D01*
X166996333Y-91377333D01*
X166963000Y-91444000D01*
X166963000Y-91477333D01*
X166996333Y-91544000D01*
X167029666Y-91577333D01*
X167096333Y-91610666D01*
X167229666Y-91610666D01*
X167296333Y-91644000D01*
X167329666Y-91677333D01*
X167363000Y-91744000D01*
X167363000Y-91877333D01*
X167329666Y-91944000D01*
X167296333Y-91977333D01*
X167229666Y-92010666D01*
X167096333Y-92010666D01*
X167029666Y-91977333D01*
X166996333Y-91944000D01*
X166963000Y-91877333D01*
X166963000Y-91744000D01*
X166996333Y-91677333D01*
X167029666Y-91644000D01*
X167096333Y-91610666D01*
%TO.C,C3*%
X165369066Y-108406800D02*
X165402400Y-108440133D01*
X165502400Y-108473466D01*
X165569066Y-108473466D01*
X165669066Y-108440133D01*
X165735733Y-108373466D01*
X165769066Y-108306800D01*
X165802400Y-108173466D01*
X165802400Y-108073466D01*
X165769066Y-107940133D01*
X165735733Y-107873466D01*
X165669066Y-107806800D01*
X165569066Y-107773466D01*
X165502400Y-107773466D01*
X165402400Y-107806800D01*
X165369066Y-107840133D01*
X165135733Y-107773466D02*
X164702400Y-107773466D01*
X164935733Y-108040133D01*
X164835733Y-108040133D01*
X164769066Y-108073466D01*
X164735733Y-108106800D01*
X164702400Y-108173466D01*
X164702400Y-108340133D01*
X164735733Y-108406800D01*
X164769066Y-108440133D01*
X164835733Y-108473466D01*
X165035733Y-108473466D01*
X165102400Y-108440133D01*
X165135733Y-108406800D01*
%TO.C,D1*%
X168385266Y-80936266D02*
X168385266Y-80236266D01*
X168218600Y-80236266D01*
X168118600Y-80269600D01*
X168051933Y-80336266D01*
X168018600Y-80402933D01*
X167985266Y-80536266D01*
X167985266Y-80636266D01*
X168018600Y-80769600D01*
X168051933Y-80836266D01*
X168118600Y-80902933D01*
X168218600Y-80936266D01*
X168385266Y-80936266D01*
X167318600Y-80936266D02*
X167718600Y-80936266D01*
X167518600Y-80936266D02*
X167518600Y-80236266D01*
X167585266Y-80336266D01*
X167651933Y-80402933D01*
X167718600Y-80436266D01*
%TO.C,D5*%
X158047466Y-84365266D02*
X158047466Y-83665266D01*
X157880800Y-83665266D01*
X157780800Y-83698600D01*
X157714133Y-83765266D01*
X157680800Y-83831933D01*
X157647466Y-83965266D01*
X157647466Y-84065266D01*
X157680800Y-84198600D01*
X157714133Y-84265266D01*
X157780800Y-84331933D01*
X157880800Y-84365266D01*
X158047466Y-84365266D01*
X157014133Y-83665266D02*
X157347466Y-83665266D01*
X157380800Y-83998600D01*
X157347466Y-83965266D01*
X157280800Y-83931933D01*
X157114133Y-83931933D01*
X157047466Y-83965266D01*
X157014133Y-83998600D01*
X156980800Y-84065266D01*
X156980800Y-84231933D01*
X157014133Y-84298600D01*
X157047466Y-84331933D01*
X157114133Y-84365266D01*
X157280800Y-84365266D01*
X157347466Y-84331933D01*
X157380800Y-84298600D01*
%TO.C,U4*%
X161340733Y-79652066D02*
X161340733Y-80218733D01*
X161307400Y-80285400D01*
X161274066Y-80318733D01*
X161207400Y-80352066D01*
X161074066Y-80352066D01*
X161007400Y-80318733D01*
X160974066Y-80285400D01*
X160940733Y-80218733D01*
X160940733Y-79652066D01*
X160307400Y-79885400D02*
X160307400Y-80352066D01*
X160474066Y-79618733D02*
X160640733Y-80118733D01*
X160207400Y-80118733D01*
%TO.C,R7*%
X168213866Y-75551466D02*
X168447200Y-75218133D01*
X168613866Y-75551466D02*
X168613866Y-74851466D01*
X168347200Y-74851466D01*
X168280533Y-74884800D01*
X168247200Y-74918133D01*
X168213866Y-74984800D01*
X168213866Y-75084800D01*
X168247200Y-75151466D01*
X168280533Y-75184800D01*
X168347200Y-75218133D01*
X168613866Y-75218133D01*
X167980533Y-74851466D02*
X167513866Y-74851466D01*
X167813866Y-75551466D01*
%TO.C,R6*%
X156098066Y-75551466D02*
X156331400Y-75218133D01*
X156498066Y-75551466D02*
X156498066Y-74851466D01*
X156231400Y-74851466D01*
X156164733Y-74884800D01*
X156131400Y-74918133D01*
X156098066Y-74984800D01*
X156098066Y-75084800D01*
X156131400Y-75151466D01*
X156164733Y-75184800D01*
X156231400Y-75218133D01*
X156498066Y-75218133D01*
X155498066Y-74851466D02*
X155631400Y-74851466D01*
X155698066Y-74884800D01*
X155731400Y-74918133D01*
X155798066Y-75018133D01*
X155831400Y-75151466D01*
X155831400Y-75418133D01*
X155798066Y-75484800D01*
X155764733Y-75518133D01*
X155698066Y-75551466D01*
X155564733Y-75551466D01*
X155498066Y-75518133D01*
X155464733Y-75484800D01*
X155431400Y-75418133D01*
X155431400Y-75251466D01*
X155464733Y-75184800D01*
X155498066Y-75151466D01*
X155564733Y-75118133D01*
X155698066Y-75118133D01*
X155764733Y-75151466D01*
X155798066Y-75184800D01*
X155831400Y-75251466D01*
%TO.C,R3*%
X158231666Y-100113266D02*
X158465000Y-99779933D01*
X158631666Y-100113266D02*
X158631666Y-99413266D01*
X158365000Y-99413266D01*
X158298333Y-99446600D01*
X158265000Y-99479933D01*
X158231666Y-99546600D01*
X158231666Y-99646600D01*
X158265000Y-99713266D01*
X158298333Y-99746600D01*
X158365000Y-99779933D01*
X158631666Y-99779933D01*
X157998333Y-99413266D02*
X157565000Y-99413266D01*
X157798333Y-99679933D01*
X157698333Y-99679933D01*
X157631666Y-99713266D01*
X157598333Y-99746600D01*
X157565000Y-99813266D01*
X157565000Y-99979933D01*
X157598333Y-100046600D01*
X157631666Y-100079933D01*
X157698333Y-100113266D01*
X157898333Y-100113266D01*
X157965000Y-100079933D01*
X157998333Y-100046600D01*
%TO.C,D3*%
X156548866Y-90435866D02*
X156548866Y-89735866D01*
X156382200Y-89735866D01*
X156282200Y-89769200D01*
X156215533Y-89835866D01*
X156182200Y-89902533D01*
X156148866Y-90035866D01*
X156148866Y-90135866D01*
X156182200Y-90269200D01*
X156215533Y-90335866D01*
X156282200Y-90402533D01*
X156382200Y-90435866D01*
X156548866Y-90435866D01*
X155915533Y-89735866D02*
X155482200Y-89735866D01*
X155715533Y-90002533D01*
X155615533Y-90002533D01*
X155548866Y-90035866D01*
X155515533Y-90069200D01*
X155482200Y-90135866D01*
X155482200Y-90302533D01*
X155515533Y-90369200D01*
X155548866Y-90402533D01*
X155615533Y-90435866D01*
X155815533Y-90435866D01*
X155882200Y-90402533D01*
X155915533Y-90369200D01*
%TO.C,C9*%
X167629666Y-86838600D02*
X167663000Y-86871933D01*
X167763000Y-86905266D01*
X167829666Y-86905266D01*
X167929666Y-86871933D01*
X167996333Y-86805266D01*
X168029666Y-86738600D01*
X168063000Y-86605266D01*
X168063000Y-86505266D01*
X168029666Y-86371933D01*
X167996333Y-86305266D01*
X167929666Y-86238600D01*
X167829666Y-86205266D01*
X167763000Y-86205266D01*
X167663000Y-86238600D01*
X167629666Y-86271933D01*
X167296333Y-86905266D02*
X167163000Y-86905266D01*
X167096333Y-86871933D01*
X167063000Y-86838600D01*
X166996333Y-86738600D01*
X166963000Y-86605266D01*
X166963000Y-86338600D01*
X166996333Y-86271933D01*
X167029666Y-86238600D01*
X167096333Y-86205266D01*
X167229666Y-86205266D01*
X167296333Y-86238600D01*
X167329666Y-86271933D01*
X167363000Y-86338600D01*
X167363000Y-86505266D01*
X167329666Y-86571933D01*
X167296333Y-86605266D01*
X167229666Y-86638600D01*
X167096333Y-86638600D01*
X167029666Y-86605266D01*
X166996333Y-86571933D01*
X166963000Y-86505266D01*
D11*
%TO.C,J4*%
X169612000Y-107188000D02*
X169612000Y-108518000D01*
X169612000Y-108518000D02*
X170942000Y-108518000D01*
X169612000Y-105918000D02*
X169612000Y-77918000D01*
X169612000Y-105918000D02*
X172272000Y-105918000D01*
X172272000Y-105918000D02*
X172272000Y-77918000D01*
X169612000Y-77918000D02*
X172272000Y-77918000D01*
%TO.C,R1*%
X166470000Y-102007936D02*
X166470000Y-102462064D01*
X165000000Y-102007936D02*
X165000000Y-102462064D01*
%TO.C,U2*%
X159365000Y-100457000D02*
X159365000Y-98507000D01*
X164485000Y-100457000D02*
X164485000Y-98507000D01*
X164485000Y-100457000D02*
X164485000Y-103907000D01*
X159365000Y-100457000D02*
X159365000Y-102407000D01*
%TO.C,kibuzzard-644D6722*%
G36*
X159672701Y-90703400D02*
G01*
X160067268Y-90111550D01*
X164036732Y-90111550D01*
X164431299Y-90703400D01*
X164036732Y-91295250D01*
X160067268Y-91295250D01*
X159917234Y-91070199D01*
X160067354Y-91070199D01*
X160219011Y-91070199D01*
X160219011Y-90869669D01*
X160203896Y-90523527D01*
X160401907Y-91070199D01*
X160505699Y-91070199D01*
X160703206Y-90524031D01*
X160688091Y-90869669D01*
X160688091Y-91070199D01*
X160839245Y-91070199D01*
X160839245Y-90720027D01*
X160949083Y-90720027D01*
X160953338Y-90789278D01*
X160966102Y-90852594D01*
X160987375Y-90909977D01*
X161016570Y-90960249D01*
X161053099Y-91002236D01*
X161096961Y-91035938D01*
X161146814Y-91060570D01*
X161201313Y-91075350D01*
X161260459Y-91080276D01*
X161319073Y-91075406D01*
X161338404Y-91070199D01*
X161638847Y-91070199D01*
X161801085Y-91070199D01*
X161938635Y-90801650D01*
X162059054Y-90801650D01*
X162059054Y-91070199D01*
X162210207Y-91070199D01*
X162210207Y-90579454D01*
X162314000Y-90579454D01*
X162322201Y-90646270D01*
X162346805Y-90702952D01*
X162387813Y-90749502D01*
X162443320Y-90784071D01*
X162511423Y-90804813D01*
X162592122Y-90811727D01*
X162724633Y-90811727D01*
X162724633Y-91070199D01*
X162875787Y-91070199D01*
X162964464Y-91070199D01*
X163456217Y-91070199D01*
X163544893Y-91070199D01*
X164036646Y-91070199D01*
X164036646Y-90336601D01*
X163545901Y-90336601D01*
X163545901Y-90459035D01*
X163885493Y-90459035D01*
X163885493Y-90633869D01*
X163595278Y-90633869D01*
X163595278Y-90752273D01*
X163885493Y-90752273D01*
X163885493Y-90948773D01*
X163544893Y-90948773D01*
X163544893Y-91070199D01*
X163456217Y-91070199D01*
X163456217Y-90336601D01*
X162965471Y-90336601D01*
X162965471Y-90459035D01*
X163305063Y-90459035D01*
X163305063Y-90633869D01*
X163014848Y-90633869D01*
X163014848Y-90752273D01*
X163305063Y-90752273D01*
X163305063Y-90948773D01*
X162964464Y-90948773D01*
X162964464Y-91070199D01*
X162875787Y-91070199D01*
X162875787Y-90336601D01*
X162589603Y-90336601D01*
X162511948Y-90344158D01*
X162444243Y-90366831D01*
X162388758Y-90403423D01*
X162347757Y-90452737D01*
X162322439Y-90512254D01*
X162314000Y-90579454D01*
X162210207Y-90579454D01*
X162210207Y-90336601D01*
X161937627Y-90336601D01*
X161857572Y-90343039D01*
X161790728Y-90362353D01*
X161737097Y-90394543D01*
X161697909Y-90438489D01*
X161674396Y-90493073D01*
X161666558Y-90558293D01*
X161674683Y-90627130D01*
X161699056Y-90683498D01*
X161739931Y-90728529D01*
X161797558Y-90763358D01*
X161638847Y-91063145D01*
X161638847Y-91070199D01*
X161338404Y-91070199D01*
X161373320Y-91060794D01*
X161423201Y-91036442D01*
X161467316Y-91003048D01*
X161504264Y-90961313D01*
X161534047Y-90911236D01*
X161555936Y-90854274D01*
X161569204Y-90791881D01*
X161573851Y-90724058D01*
X161573851Y-90687781D01*
X161569512Y-90618446D01*
X161556496Y-90554878D01*
X161534803Y-90497075D01*
X161505188Y-90446411D01*
X161468407Y-90404256D01*
X161424461Y-90370610D01*
X161374664Y-90346118D01*
X161320333Y-90331422D01*
X161261467Y-90326524D01*
X161202601Y-90331422D01*
X161148270Y-90346118D01*
X161098473Y-90370610D01*
X161054526Y-90404256D01*
X161017746Y-90446411D01*
X160988131Y-90497075D01*
X160966437Y-90554822D01*
X160953421Y-90618222D01*
X160949083Y-90687277D01*
X160949083Y-90720027D01*
X160839245Y-90720027D01*
X160839245Y-90336601D01*
X160641737Y-90336601D01*
X160453299Y-90868661D01*
X160265869Y-90336601D01*
X160067354Y-90336601D01*
X160067354Y-91070199D01*
X159917234Y-91070199D01*
X159672701Y-90703400D01*
G37*
G36*
X161328856Y-90466278D02*
G01*
X161378863Y-90510679D01*
X161401872Y-90556277D01*
X161415811Y-90614135D01*
X161420682Y-90684254D01*
X161420682Y-90720027D01*
X161416091Y-90789334D01*
X161402320Y-90847444D01*
X161379367Y-90894357D01*
X161328982Y-90940837D01*
X161260459Y-90956330D01*
X161193196Y-90941404D01*
X161143567Y-90896625D01*
X161120838Y-90850747D01*
X161107066Y-90792721D01*
X161102252Y-90722546D01*
X161102252Y-90686773D01*
X161106842Y-90616011D01*
X161120614Y-90557565D01*
X161143567Y-90511435D01*
X161193700Y-90466467D01*
X161261467Y-90451477D01*
X161328856Y-90466278D01*
G37*
G36*
X162724633Y-90689292D02*
G01*
X162589603Y-90689292D01*
X162536762Y-90682239D01*
X162498155Y-90661077D01*
X162474537Y-90626816D01*
X162466665Y-90580462D01*
X162474600Y-90531715D01*
X162498407Y-90493297D01*
X162536195Y-90468104D01*
X162586076Y-90459035D01*
X162724633Y-90459035D01*
X162724633Y-90689292D01*
G37*
G36*
X162059054Y-90679215D02*
G01*
X161937123Y-90679215D01*
X161886613Y-90671973D01*
X161848950Y-90650244D01*
X161825522Y-90615794D01*
X161817712Y-90570385D01*
X161825081Y-90524031D01*
X161847187Y-90488762D01*
X161884534Y-90466467D01*
X161937627Y-90459035D01*
X162059054Y-90459035D01*
X162059054Y-90679215D01*
G37*
%TO.C,kibuzzard-644D5AFD*%
G36*
X160808084Y-91402011D02*
G01*
X163309998Y-91402011D01*
X163309998Y-92392389D01*
X160808084Y-92392389D01*
X160808084Y-92227025D01*
X162395067Y-92227025D01*
X162748146Y-92227025D01*
X162748146Y-92139433D01*
X162766362Y-92139433D01*
X163144634Y-92139433D01*
X163144634Y-91575127D01*
X162767137Y-91575127D01*
X162767137Y-91669307D01*
X163028362Y-91669307D01*
X163028362Y-91803795D01*
X162805119Y-91803795D01*
X162805119Y-91894875D01*
X163028362Y-91894875D01*
X163028362Y-92046028D01*
X162766362Y-92046028D01*
X162766362Y-92139433D01*
X162748146Y-92139433D01*
X162395067Y-92139433D01*
X162395067Y-92227025D01*
X160808084Y-92227025D01*
X160808084Y-92139433D01*
X160973448Y-92139433D01*
X161336604Y-92139433D01*
X161336604Y-91766588D01*
X161412181Y-91766588D01*
X161528453Y-91766588D01*
X161538191Y-91719449D01*
X161558878Y-91687329D01*
X161591870Y-91668871D01*
X161638524Y-91662718D01*
X161689345Y-91673134D01*
X161725534Y-91704382D01*
X161741662Y-91737261D01*
X161751545Y-91780347D01*
X161755184Y-91833638D01*
X161755184Y-91876271D01*
X161752105Y-91931780D01*
X161742867Y-91976351D01*
X161727472Y-92009984D01*
X161691767Y-92041668D01*
X161640074Y-92052229D01*
X161593033Y-92046077D01*
X161559653Y-92027618D01*
X161538772Y-91996273D01*
X161529228Y-91951460D01*
X161412956Y-91951460D01*
X161423356Y-92007874D01*
X161445771Y-92055674D01*
X161480200Y-92094862D01*
X161524922Y-92123930D01*
X161578213Y-92141371D01*
X161640074Y-92147185D01*
X161691440Y-92142619D01*
X161737016Y-92128920D01*
X161776803Y-92106090D01*
X161810800Y-92074127D01*
X161838015Y-92034195D01*
X161856144Y-91990605D01*
X161934630Y-91990605D01*
X161940788Y-92035930D01*
X161959262Y-92074235D01*
X161990053Y-92105521D01*
X162031265Y-92128667D01*
X162081003Y-92142555D01*
X162139269Y-92147185D01*
X162201474Y-92141226D01*
X162257866Y-92123349D01*
X162305005Y-92095105D01*
X162339450Y-92058043D01*
X162360525Y-92013278D01*
X162367549Y-91961925D01*
X162250890Y-91961925D01*
X162243913Y-92002789D01*
X162222984Y-92031979D01*
X162188103Y-92049492D01*
X162139269Y-92055330D01*
X162102352Y-92051115D01*
X162074544Y-92038470D01*
X162051290Y-91991380D01*
X162074544Y-91940802D01*
X162107100Y-91922683D01*
X162158260Y-91903595D01*
X162212423Y-91884168D01*
X162253990Y-91865031D01*
X162307389Y-91826403D01*
X162339429Y-91779765D01*
X162350109Y-91725117D01*
X162343665Y-91681855D01*
X162324335Y-91643533D01*
X162292941Y-91611607D01*
X162250308Y-91587529D01*
X162199100Y-91572414D01*
X162141982Y-91567375D01*
X162084815Y-91572850D01*
X162034236Y-91589273D01*
X161992233Y-91615676D01*
X161960791Y-91651091D01*
X161941170Y-91693724D01*
X161934630Y-91741783D01*
X162050902Y-91741783D01*
X162057006Y-91707338D01*
X162075319Y-91681515D01*
X162104678Y-91665383D01*
X162143920Y-91660005D01*
X162181805Y-91664511D01*
X162210195Y-91678027D01*
X162233837Y-91725505D01*
X162206125Y-91771626D01*
X162171873Y-91789648D01*
X162124541Y-91806508D01*
X162064381Y-91827997D01*
X162016193Y-91852672D01*
X161979976Y-91880534D01*
X161945967Y-91930144D01*
X161934630Y-91990605D01*
X161856144Y-91990605D01*
X161857454Y-91987456D01*
X161869118Y-91933910D01*
X161873006Y-91873558D01*
X161873006Y-91839064D01*
X161869819Y-91786957D01*
X161860259Y-91739156D01*
X161844325Y-91695662D01*
X161809492Y-91640869D01*
X161762354Y-91600513D01*
X161724910Y-91582103D01*
X161683633Y-91571057D01*
X161638524Y-91567375D01*
X161577632Y-91573189D01*
X161525180Y-91590630D01*
X161481169Y-91619698D01*
X161446977Y-91659273D01*
X161423981Y-91708237D01*
X161412181Y-91766588D01*
X161336604Y-91766588D01*
X161336604Y-91575127D01*
X161220333Y-91575127D01*
X161220333Y-92046028D01*
X160973448Y-92046028D01*
X160973448Y-92139433D01*
X160808084Y-92139433D01*
X160808084Y-91402011D01*
G37*
%TO.C,kibuzzard-644D571B*%
G36*
X153344182Y-109523899D02*
G01*
X160020157Y-109523899D01*
X160447418Y-110948101D01*
X153771443Y-110948101D01*
X153727105Y-110800307D01*
X153903735Y-110800307D01*
X154180462Y-110800307D01*
X154470367Y-110347621D01*
X154591290Y-110477846D01*
X154591290Y-110800307D01*
X154823833Y-110800307D01*
X155026922Y-110800307D01*
X155259466Y-110800307D01*
X155712151Y-110057716D01*
X155712151Y-110800307D01*
X155944695Y-110800307D01*
X156160186Y-110800307D01*
X156392730Y-110800307D01*
X156540783Y-110800307D01*
X157267095Y-110800307D01*
X157267095Y-110407307D01*
X157461657Y-110407307D01*
X157898064Y-110407307D01*
X157898064Y-110226698D01*
X157461657Y-110226698D01*
X157461657Y-110407307D01*
X157267095Y-110407307D01*
X157267095Y-109860054D01*
X158015112Y-109860054D01*
X158360827Y-109860054D01*
X158360827Y-110800307D01*
X158593371Y-110800307D01*
X158593371Y-110502650D01*
X159022027Y-110502650D01*
X159034343Y-110593299D01*
X159071292Y-110669910D01*
X159132873Y-110732481D01*
X159215297Y-110778775D01*
X159314774Y-110806551D01*
X159431304Y-110815810D01*
X159555715Y-110803892D01*
X159668499Y-110768138D01*
X159762776Y-110711649D01*
X159831667Y-110637526D01*
X159873816Y-110547996D01*
X159887865Y-110445290D01*
X159654546Y-110445290D01*
X159640594Y-110527019D01*
X159598736Y-110585397D01*
X159528973Y-110620424D01*
X159431304Y-110632100D01*
X159357471Y-110623670D01*
X159301855Y-110598381D01*
X159255346Y-110504201D01*
X159301855Y-110403044D01*
X159366967Y-110366806D01*
X159469286Y-110328630D01*
X159577613Y-110289776D01*
X159660748Y-110251503D01*
X159767545Y-110174247D01*
X159831624Y-110080971D01*
X159852984Y-109971675D01*
X159840097Y-109885149D01*
X159801437Y-109808507D01*
X159738650Y-109744654D01*
X159653384Y-109696498D01*
X159550967Y-109666267D01*
X159436730Y-109656190D01*
X159322396Y-109667139D01*
X159221239Y-109699986D01*
X159137233Y-109752793D01*
X159074349Y-109823622D01*
X159035107Y-109908888D01*
X159022027Y-110005006D01*
X159254571Y-110005006D01*
X159266779Y-109936115D01*
X159303405Y-109884471D01*
X159362122Y-109852206D01*
X159440606Y-109841450D01*
X159516376Y-109850462D01*
X159573156Y-109877495D01*
X159620440Y-109972450D01*
X159565017Y-110064693D01*
X159496513Y-110100737D01*
X159401849Y-110134456D01*
X159281529Y-110177433D01*
X159185152Y-110226784D01*
X159112719Y-110282509D01*
X159044700Y-110381728D01*
X159022027Y-110502650D01*
X158593371Y-110502650D01*
X158593371Y-109860054D01*
X158934435Y-109860054D01*
X158934435Y-109671693D01*
X158015112Y-109671693D01*
X158015112Y-109860054D01*
X157267095Y-109860054D01*
X157267095Y-109671693D01*
X157034551Y-109671693D01*
X157034551Y-110613496D01*
X156540783Y-110613496D01*
X156540783Y-110800307D01*
X156392730Y-110800307D01*
X156392730Y-109671693D01*
X156160186Y-109671693D01*
X156160186Y-110800307D01*
X155944695Y-110800307D01*
X155944695Y-109671693D01*
X155712151Y-109671693D01*
X155258691Y-110415834D01*
X155258691Y-109671693D01*
X155026922Y-109671693D01*
X155026922Y-110800307D01*
X154823833Y-110800307D01*
X154823833Y-109671693D01*
X154591290Y-109671693D01*
X154591290Y-110183290D01*
X154488970Y-110042989D01*
X154201391Y-109671693D01*
X153915362Y-109671693D01*
X154316112Y-110173213D01*
X153903735Y-110800307D01*
X153727105Y-110800307D01*
X153344182Y-109523899D01*
G37*
%TO.C,R2*%
X156691000Y-102007936D02*
X156691000Y-102462064D01*
X155221000Y-102007936D02*
X155221000Y-102462064D01*
%TO.C,JP1*%
X159685000Y-92834000D02*
X159085000Y-92834000D01*
X160385000Y-94934000D02*
X160385000Y-93534000D01*
X158385000Y-93534000D02*
X158385000Y-94934000D01*
X159085000Y-95634000D02*
X159685000Y-95634000D01*
X159685000Y-95634000D02*
G75*
G03*
X160385000Y-94934000I1J699999D01*
G01*
X160385000Y-93534000D02*
G75*
G03*
X159685000Y-92834000I-700000J0D01*
G01*
X158385000Y-94934000D02*
G75*
G03*
X159085000Y-95634000I699999J-1D01*
G01*
X159085000Y-92834000D02*
G75*
G03*
X158385000Y-93534000I0J-700000D01*
G01*
%TO.C,kibuzzard-644D5B14*%
G36*
X163450164Y-91405886D02*
G01*
X166038636Y-91405886D01*
X166038636Y-92388514D01*
X163450164Y-92388514D01*
X163450164Y-92223149D01*
X164958340Y-92223149D01*
X165311420Y-92223149D01*
X165311420Y-92135558D01*
X165329636Y-92135558D01*
X165707907Y-92135558D01*
X165707907Y-91571251D01*
X165330411Y-91571251D01*
X165330411Y-91665431D01*
X165591635Y-91665431D01*
X165591635Y-91799919D01*
X165368393Y-91799919D01*
X165368393Y-91890999D01*
X165591635Y-91890999D01*
X165591635Y-92042152D01*
X165329636Y-92042152D01*
X165329636Y-92135558D01*
X165311420Y-92135558D01*
X164958340Y-92135558D01*
X164958340Y-92223149D01*
X163450164Y-92223149D01*
X163450164Y-91758061D01*
X163780893Y-91758061D01*
X163787202Y-91809458D01*
X163806128Y-91853060D01*
X163837672Y-91888867D01*
X163880370Y-91915459D01*
X163932757Y-91931414D01*
X163994833Y-91936732D01*
X164096765Y-91936732D01*
X164096765Y-92135558D01*
X164213037Y-92135558D01*
X164213037Y-91571251D01*
X164275824Y-91571251D01*
X164401010Y-92135558D01*
X164518057Y-92135558D01*
X164609912Y-91758061D01*
X164701767Y-92135558D01*
X164818814Y-92135558D01*
X164944000Y-91571251D01*
X164828116Y-91571251D01*
X164751764Y-91972002D01*
X164658746Y-91571251D01*
X164560303Y-91571251D01*
X164467673Y-91972777D01*
X164391708Y-91571251D01*
X164275824Y-91571251D01*
X164213037Y-91571251D01*
X163992895Y-91571251D01*
X163933161Y-91577065D01*
X163881081Y-91594505D01*
X163838399Y-91622653D01*
X163806860Y-91660587D01*
X163787385Y-91706369D01*
X163780893Y-91758061D01*
X163450164Y-91758061D01*
X163450164Y-91405886D01*
G37*
G36*
X164096765Y-91842552D02*
G01*
X163992895Y-91842552D01*
X163952249Y-91837126D01*
X163922551Y-91820848D01*
X163904383Y-91794493D01*
X163898328Y-91758836D01*
X163904432Y-91721339D01*
X163922745Y-91691786D01*
X163951813Y-91672408D01*
X163990182Y-91665431D01*
X164096765Y-91665431D01*
X164096765Y-91842552D01*
G37*
%TO.C,C8*%
X167251748Y-90854200D02*
X167774252Y-90854200D01*
X167251748Y-89384200D02*
X167774252Y-89384200D01*
%TO.C,C3*%
X164991148Y-107211800D02*
X165513652Y-107211800D01*
X164991148Y-105741800D02*
X165513652Y-105741800D01*
%TO.C,D1*%
X166843200Y-85714400D02*
X166843200Y-81814400D01*
X168843200Y-85714400D02*
X168843200Y-81814400D01*
X168843200Y-85714400D02*
X166843200Y-85714400D01*
%TO.C,kibuzzard-644D5AD1*%
G36*
X158551897Y-91928981D02*
G01*
X158410821Y-91928981D01*
X158481747Y-91717754D01*
X158551897Y-91928981D01*
G37*
G36*
X159097600Y-92046028D02*
G01*
X159041402Y-92046028D01*
X158981232Y-92034885D01*
X158937145Y-92001457D01*
X158917034Y-91967480D01*
X158904761Y-91924976D01*
X158900326Y-91873946D01*
X158900326Y-91844102D01*
X158904288Y-91791371D01*
X158916173Y-91747898D01*
X158935982Y-91713684D01*
X158979875Y-91680401D01*
X159040240Y-91669307D01*
X159097600Y-91669307D01*
X159097600Y-92046028D01*
G37*
G36*
X158051282Y-91402011D02*
G01*
X160667918Y-91402011D01*
X160667918Y-92392389D01*
X158051282Y-92392389D01*
X158051282Y-92227025D01*
X159752987Y-92227025D01*
X160106066Y-92227025D01*
X160106066Y-92139433D01*
X160124282Y-92139433D01*
X160502553Y-92139433D01*
X160502553Y-91575127D01*
X160125057Y-91575127D01*
X160125057Y-91669307D01*
X160386282Y-91669307D01*
X160386282Y-91803795D01*
X160163039Y-91803795D01*
X160163039Y-91894875D01*
X160386282Y-91894875D01*
X160386282Y-92046028D01*
X160124282Y-92046028D01*
X160124282Y-92139433D01*
X160106066Y-92139433D01*
X159752987Y-92139433D01*
X159752987Y-92227025D01*
X158051282Y-92227025D01*
X158051282Y-92139433D01*
X158216647Y-92139433D01*
X158340282Y-92139433D01*
X158379427Y-92023161D01*
X158583291Y-92023161D01*
X158622048Y-92139433D01*
X158745684Y-92139433D01*
X158645557Y-91870457D01*
X158782503Y-91870457D01*
X158786099Y-91920971D01*
X158796887Y-91967609D01*
X158814866Y-92010371D01*
X158839391Y-92048138D01*
X158869815Y-92079790D01*
X158906139Y-92105327D01*
X158947093Y-92124103D01*
X158991405Y-92135471D01*
X159039077Y-92139433D01*
X159213872Y-92139433D01*
X159213872Y-91990605D01*
X159292550Y-91990605D01*
X159298708Y-92035930D01*
X159317182Y-92074235D01*
X159347973Y-92105521D01*
X159389185Y-92128667D01*
X159438923Y-92142555D01*
X159497189Y-92147185D01*
X159559394Y-92141226D01*
X159615786Y-92123349D01*
X159662925Y-92095105D01*
X159697370Y-92058043D01*
X159718444Y-92013278D01*
X159725469Y-91961925D01*
X159608810Y-91961925D01*
X159601833Y-92002789D01*
X159580904Y-92031979D01*
X159546023Y-92049492D01*
X159497189Y-92055330D01*
X159460272Y-92051115D01*
X159432464Y-92038470D01*
X159409209Y-91991380D01*
X159432464Y-91940802D01*
X159465020Y-91922683D01*
X159516180Y-91903595D01*
X159570343Y-91884168D01*
X159611910Y-91865031D01*
X159665309Y-91826403D01*
X159697349Y-91779765D01*
X159708028Y-91725117D01*
X159701585Y-91681855D01*
X159682255Y-91643533D01*
X159650861Y-91611607D01*
X159608228Y-91587529D01*
X159557020Y-91572414D01*
X159499902Y-91567375D01*
X159442734Y-91572850D01*
X159392156Y-91589273D01*
X159350153Y-91615676D01*
X159318711Y-91651091D01*
X159299090Y-91693724D01*
X159292550Y-91741783D01*
X159408822Y-91741783D01*
X159414926Y-91707338D01*
X159433239Y-91681515D01*
X159462598Y-91665383D01*
X159501839Y-91660005D01*
X159539725Y-91664511D01*
X159568114Y-91678027D01*
X159591756Y-91725505D01*
X159564045Y-91771626D01*
X159529793Y-91789648D01*
X159482461Y-91806508D01*
X159422301Y-91827997D01*
X159374112Y-91852672D01*
X159337896Y-91880534D01*
X159303886Y-91930144D01*
X159292550Y-91990605D01*
X159213872Y-91990605D01*
X159213872Y-91575127D01*
X159040240Y-91575127D01*
X158992374Y-91578852D01*
X158947997Y-91590027D01*
X158907108Y-91608652D01*
X158870827Y-91634145D01*
X158840273Y-91665926D01*
X158815447Y-91703995D01*
X158797145Y-91747080D01*
X158786164Y-91793912D01*
X158782503Y-91844490D01*
X158782503Y-91870457D01*
X158645557Y-91870457D01*
X158535619Y-91575127D01*
X158427874Y-91575127D01*
X158216647Y-92139433D01*
X158051282Y-92139433D01*
X158051282Y-91402011D01*
G37*
%TO.C,kibuzzard-644D5A83*%
G36*
X162521433Y-104811692D02*
G01*
X162386403Y-104811692D01*
X162333562Y-104804639D01*
X162294955Y-104783477D01*
X162271337Y-104749216D01*
X162263465Y-104702862D01*
X162271400Y-104654115D01*
X162295207Y-104615697D01*
X162332995Y-104590504D01*
X162382876Y-104581435D01*
X162521433Y-104581435D01*
X162521433Y-104811692D01*
G37*
G36*
X161125656Y-104588678D02*
G01*
X161175663Y-104633079D01*
X161198672Y-104678677D01*
X161212611Y-104736535D01*
X161217482Y-104806654D01*
X161217482Y-104842427D01*
X161212891Y-104911734D01*
X161199120Y-104969844D01*
X161176167Y-105016757D01*
X161125782Y-105063237D01*
X161057259Y-105078730D01*
X160989996Y-105063804D01*
X160940367Y-105019025D01*
X160917638Y-104973147D01*
X160903866Y-104915121D01*
X160899052Y-104844946D01*
X160899052Y-104809173D01*
X160903642Y-104738411D01*
X160917414Y-104679965D01*
X160940367Y-104633835D01*
X160990500Y-104588867D01*
X161058267Y-104573877D01*
X161125656Y-104588678D01*
G37*
G36*
X159806056Y-105414800D02*
G01*
X159748604Y-105406278D01*
X159692263Y-105392165D01*
X159637576Y-105372598D01*
X159585072Y-105347765D01*
X159535253Y-105317905D01*
X159488602Y-105283306D01*
X159445566Y-105244301D01*
X159406561Y-105201266D01*
X159400133Y-105192599D01*
X159864154Y-105192599D01*
X160015811Y-105192599D01*
X160015811Y-104992069D01*
X160000696Y-104645927D01*
X160198707Y-105192599D01*
X160302499Y-105192599D01*
X160500006Y-104646431D01*
X160484891Y-104992069D01*
X160484891Y-105192599D01*
X160636045Y-105192599D01*
X160636045Y-104842427D01*
X160745883Y-104842427D01*
X160750138Y-104911678D01*
X160762902Y-104974994D01*
X160784175Y-105032377D01*
X160813370Y-105082649D01*
X160849899Y-105124636D01*
X160893761Y-105158338D01*
X160943614Y-105182970D01*
X160998113Y-105197750D01*
X161057259Y-105202676D01*
X161115873Y-105197806D01*
X161135204Y-105192599D01*
X161435647Y-105192599D01*
X161597885Y-105192599D01*
X161735435Y-104924050D01*
X161855854Y-104924050D01*
X161855854Y-105192599D01*
X162007007Y-105192599D01*
X162007007Y-104701854D01*
X162110800Y-104701854D01*
X162119001Y-104768670D01*
X162143605Y-104825352D01*
X162184613Y-104871902D01*
X162240120Y-104906471D01*
X162308223Y-104927213D01*
X162388922Y-104934127D01*
X162521433Y-104934127D01*
X162521433Y-105192599D01*
X162672587Y-105192599D01*
X162761264Y-105192599D01*
X163253017Y-105192599D01*
X163341693Y-105192599D01*
X163833446Y-105192599D01*
X163833446Y-104459001D01*
X163342701Y-104459001D01*
X163342701Y-104581435D01*
X163682293Y-104581435D01*
X163682293Y-104756269D01*
X163392078Y-104756269D01*
X163392078Y-104874673D01*
X163682293Y-104874673D01*
X163682293Y-105071173D01*
X163341693Y-105071173D01*
X163341693Y-105192599D01*
X163253017Y-105192599D01*
X163253017Y-104459001D01*
X162762271Y-104459001D01*
X162762271Y-104581435D01*
X163101863Y-104581435D01*
X163101863Y-104756269D01*
X162811648Y-104756269D01*
X162811648Y-104874673D01*
X163101863Y-104874673D01*
X163101863Y-105071173D01*
X162761264Y-105071173D01*
X162761264Y-105192599D01*
X162672587Y-105192599D01*
X162672587Y-104459001D01*
X162386403Y-104459001D01*
X162308748Y-104466558D01*
X162241044Y-104489231D01*
X162185558Y-104525823D01*
X162144557Y-104575137D01*
X162119239Y-104634654D01*
X162110800Y-104701854D01*
X162007007Y-104701854D01*
X162007007Y-104459001D01*
X161734427Y-104459001D01*
X161654372Y-104465439D01*
X161587528Y-104484753D01*
X161533897Y-104516943D01*
X161494709Y-104560889D01*
X161471196Y-104615473D01*
X161463358Y-104680693D01*
X161471483Y-104749530D01*
X161495856Y-104805898D01*
X161536731Y-104850929D01*
X161594358Y-104885758D01*
X161435647Y-105185545D01*
X161435647Y-105192599D01*
X161135204Y-105192599D01*
X161170121Y-105183194D01*
X161220001Y-105158842D01*
X161264116Y-105125448D01*
X161301064Y-105083713D01*
X161330847Y-105033636D01*
X161352736Y-104976674D01*
X161366004Y-104914281D01*
X161370651Y-104846458D01*
X161370651Y-104810181D01*
X161366312Y-104740846D01*
X161353296Y-104677278D01*
X161331603Y-104619475D01*
X161301988Y-104568811D01*
X161265207Y-104526656D01*
X161221261Y-104493010D01*
X161171464Y-104468518D01*
X161117133Y-104453822D01*
X161058267Y-104448924D01*
X160999401Y-104453822D01*
X160945070Y-104468518D01*
X160895273Y-104493010D01*
X160851326Y-104526656D01*
X160814546Y-104568811D01*
X160784931Y-104619475D01*
X160763238Y-104677222D01*
X160750222Y-104740622D01*
X160745883Y-104809677D01*
X160745883Y-104842427D01*
X160636045Y-104842427D01*
X160636045Y-104459001D01*
X160438537Y-104459001D01*
X160250099Y-104991061D01*
X160062669Y-104459001D01*
X159864154Y-104459001D01*
X159864154Y-105192599D01*
X159400133Y-105192599D01*
X159371962Y-105154614D01*
X159342102Y-105104796D01*
X159317269Y-105052291D01*
X159297702Y-104997605D01*
X159283590Y-104941264D01*
X159275067Y-104883811D01*
X159272218Y-104825800D01*
X159275067Y-104767789D01*
X159283590Y-104710336D01*
X159297702Y-104653995D01*
X159317269Y-104599309D01*
X159342102Y-104546804D01*
X159371962Y-104496986D01*
X159406561Y-104450334D01*
X159445566Y-104407299D01*
X159488602Y-104368294D01*
X159535253Y-104333695D01*
X159585072Y-104303835D01*
X159637576Y-104279002D01*
X159692263Y-104259435D01*
X159748604Y-104245322D01*
X159806056Y-104236800D01*
X159864068Y-104233950D01*
X163833532Y-104233950D01*
X163891544Y-104236800D01*
X163948997Y-104245322D01*
X164005337Y-104259435D01*
X164060024Y-104279002D01*
X164112529Y-104303835D01*
X164162347Y-104333695D01*
X164208998Y-104368294D01*
X164252034Y-104407299D01*
X164291039Y-104450334D01*
X164325638Y-104496986D01*
X164355498Y-104546804D01*
X164380331Y-104599309D01*
X164399898Y-104653995D01*
X164414010Y-104710336D01*
X164422533Y-104767789D01*
X164425382Y-104825800D01*
X164422533Y-104883811D01*
X164414010Y-104941264D01*
X164399898Y-104997605D01*
X164380331Y-105052291D01*
X164355498Y-105104796D01*
X164325638Y-105154614D01*
X164291039Y-105201266D01*
X164252034Y-105244301D01*
X164208998Y-105283306D01*
X164162347Y-105317905D01*
X164112529Y-105347765D01*
X164060024Y-105372598D01*
X164005337Y-105392165D01*
X163948997Y-105406278D01*
X163891544Y-105414800D01*
X163833532Y-105417650D01*
X159864068Y-105417650D01*
X159806056Y-105414800D01*
G37*
G36*
X161855854Y-104801615D02*
G01*
X161733923Y-104801615D01*
X161683413Y-104794373D01*
X161645750Y-104772644D01*
X161622322Y-104738194D01*
X161614512Y-104692785D01*
X161621881Y-104646431D01*
X161643987Y-104611162D01*
X161681334Y-104588867D01*
X161734427Y-104581435D01*
X161855854Y-104581435D01*
X161855854Y-104801615D01*
G37*
%TO.C,D5*%
X159780800Y-84750400D02*
X159780800Y-86750400D01*
X159780800Y-86750400D02*
X155880800Y-86750400D01*
X159780800Y-84750400D02*
X155880800Y-84750400D01*
%TO.C,U4*%
X165374000Y-84277200D02*
X165374000Y-82327200D01*
X165374000Y-84277200D02*
X165374000Y-86227200D01*
X160254000Y-84277200D02*
X160254000Y-80827200D01*
X160254000Y-84277200D02*
X160254000Y-86227200D01*
%TO.C,R7*%
X168832200Y-77900264D02*
X168832200Y-77446136D01*
X167362200Y-77900264D02*
X167362200Y-77446136D01*
%TO.C,R6*%
X155271800Y-77446136D02*
X155271800Y-77900264D01*
X156741800Y-77446136D02*
X156741800Y-77900264D01*
%TO.C,JP2*%
X161752000Y-95634000D02*
X162352000Y-95634000D01*
X161052000Y-93534000D02*
X161052000Y-94934000D01*
X163052000Y-94934000D02*
X163052000Y-93534000D01*
X162352000Y-92834000D02*
X161752000Y-92834000D01*
X161052000Y-94934000D02*
G75*
G03*
X161752000Y-95634000I699999J-1D01*
G01*
X161752000Y-92834000D02*
G75*
G03*
X161052000Y-93534000I0J-700000D01*
G01*
X162352000Y-95634000D02*
G75*
G03*
X163052000Y-94934000I1J699999D01*
G01*
X163052000Y-93534000D02*
G75*
G03*
X162352000Y-92834000I-700000J0D01*
G01*
%TO.C,kibuzzard-644D5953*%
G36*
X163516745Y-77568372D02*
G01*
X163545653Y-77614823D01*
X163561878Y-77677745D01*
X163297010Y-77677745D01*
X163297010Y-77662591D01*
X163331272Y-77564748D01*
X163424832Y-77530158D01*
X163516745Y-77568372D01*
G37*
G36*
X159185121Y-77622400D02*
G01*
X159701093Y-76848442D01*
X164504507Y-76848442D01*
X165020479Y-77622400D01*
X164504507Y-78396358D01*
X159701093Y-78396358D01*
X159504895Y-78102061D01*
X159982212Y-78102061D01*
X160172627Y-78102061D01*
X160172627Y-78008500D01*
X160603531Y-78008500D01*
X160633839Y-78081306D01*
X160711586Y-78109308D01*
X160788675Y-78081306D01*
X160818983Y-78008500D01*
X160788345Y-77934707D01*
X160711586Y-77906375D01*
X160634169Y-77934707D01*
X160603531Y-78008500D01*
X160172627Y-78008500D01*
X160172627Y-77833240D01*
X160967889Y-77833240D01*
X160978248Y-77912817D01*
X161009325Y-77981121D01*
X161061119Y-78038150D01*
X161129972Y-78080977D01*
X161212221Y-78106673D01*
X161307868Y-78115238D01*
X161397804Y-78106819D01*
X161476101Y-78081562D01*
X161542757Y-78039468D01*
X161570826Y-78008500D01*
X162095223Y-78008500D01*
X162125531Y-78081306D01*
X162203278Y-78109308D01*
X162280367Y-78081306D01*
X162310675Y-78008500D01*
X162280037Y-77934707D01*
X162203278Y-77906375D01*
X162125861Y-77934707D01*
X162095223Y-78008500D01*
X161570826Y-78008500D01*
X161593453Y-77983536D01*
X161623871Y-77916770D01*
X161634011Y-77839170D01*
X161443596Y-77839170D01*
X161403075Y-77927459D01*
X161303256Y-77961720D01*
X161242722Y-77952743D01*
X161196848Y-77925812D01*
X161158303Y-77830604D01*
X161175873Y-77750807D01*
X161228583Y-77702929D01*
X161316433Y-77686970D01*
X161417241Y-77686970D01*
X161417241Y-77538064D01*
X161315774Y-77538064D01*
X161252687Y-77529005D01*
X161208378Y-77501826D01*
X161196419Y-77468882D01*
X162095223Y-77468882D01*
X162125531Y-77541688D01*
X162203278Y-77569690D01*
X162280367Y-77541688D01*
X162310675Y-77468882D01*
X162280037Y-77395088D01*
X162263970Y-77389158D01*
X162403576Y-77389158D01*
X162644065Y-78102061D01*
X162825915Y-78102061D01*
X162925267Y-77807544D01*
X163109890Y-77807544D01*
X163563854Y-77807544D01*
X163545323Y-77870466D01*
X163508179Y-77919552D01*
X163455552Y-77951178D01*
X163390570Y-77961720D01*
X163292563Y-77941789D01*
X163218604Y-77881997D01*
X163125044Y-77986758D01*
X163175448Y-78040703D01*
X163241006Y-78081306D01*
X163318094Y-78106755D01*
X163403089Y-78115238D01*
X163501151Y-78104550D01*
X163586256Y-78072484D01*
X163658403Y-78019042D01*
X163713126Y-77947811D01*
X163745960Y-77862377D01*
X163756904Y-77762740D01*
X163756904Y-77744292D01*
X163746527Y-77642578D01*
X163715395Y-77552230D01*
X163665239Y-77477283D01*
X163597786Y-77421773D01*
X163516333Y-77387429D01*
X163493124Y-77384546D01*
X163820156Y-77384546D01*
X163822792Y-77567713D01*
X163891315Y-77562442D01*
X163980757Y-77580726D01*
X164032973Y-77635577D01*
X164032973Y-78102061D01*
X164223388Y-78102061D01*
X164223388Y-77389158D01*
X164043515Y-77389158D01*
X164038244Y-77474153D01*
X163969886Y-77400524D01*
X163879455Y-77375981D01*
X163820156Y-77384546D01*
X163493124Y-77384546D01*
X163424173Y-77375981D01*
X163333578Y-77386230D01*
X163256819Y-77416978D01*
X163193896Y-77468223D01*
X163147226Y-77538284D01*
X163119224Y-77625475D01*
X163109890Y-77729797D01*
X163109890Y-77807544D01*
X162925267Y-77807544D01*
X163066404Y-77389158D01*
X162867424Y-77389158D01*
X162734990Y-77869478D01*
X162602556Y-77389158D01*
X162403576Y-77389158D01*
X162263970Y-77389158D01*
X162203278Y-77366757D01*
X162125861Y-77395088D01*
X162095223Y-77468882D01*
X161196419Y-77468882D01*
X161173458Y-77405630D01*
X161208048Y-77315364D01*
X161303256Y-77283080D01*
X161394839Y-77313058D01*
X161431736Y-77391135D01*
X161622151Y-77391135D01*
X161612021Y-77319894D01*
X161581630Y-77256395D01*
X161533038Y-77203273D01*
X161468304Y-77163164D01*
X161391792Y-77137963D01*
X161307868Y-77129562D01*
X161213722Y-77137651D01*
X161134218Y-77161920D01*
X161069355Y-77202367D01*
X161021404Y-77257017D01*
X160992633Y-77323893D01*
X160983043Y-77402995D01*
X160993091Y-77466247D01*
X161023234Y-77524228D01*
X161069685Y-77573149D01*
X161128654Y-77609223D01*
X161057907Y-77645461D01*
X161007751Y-77696194D01*
X160977854Y-77759446D01*
X160967889Y-77833240D01*
X160172627Y-77833240D01*
X160172627Y-77368074D01*
X160399939Y-77438574D01*
X160399939Y-77283739D01*
X160002637Y-77141422D01*
X159982212Y-77141422D01*
X159982212Y-78102061D01*
X159504895Y-78102061D01*
X159185121Y-77622400D01*
G37*
%TO.C,kibuzzard-644D5814*%
G36*
X168455334Y-97105607D02*
G01*
X168472958Y-97181543D01*
X168458999Y-97241212D01*
X168417119Y-97283833D01*
X168347319Y-97309405D01*
X168249600Y-97317930D01*
X168161476Y-97309117D01*
X168096082Y-97282680D01*
X168055561Y-97239441D01*
X168042055Y-97180225D01*
X168059185Y-97104619D01*
X168110577Y-97057015D01*
X168402459Y-97057015D01*
X168455334Y-97105607D01*
G37*
G36*
X168351808Y-102284361D02*
G01*
X168417284Y-102313516D01*
X168458546Y-102359637D01*
X168472300Y-102420254D01*
X168455992Y-102494871D01*
X168407071Y-102544781D01*
X168107283Y-102544781D01*
X168058362Y-102494871D01*
X168042055Y-102421572D01*
X168056056Y-102360379D01*
X168098059Y-102313846D01*
X168167900Y-102284443D01*
X168265413Y-102274643D01*
X168351808Y-102284361D01*
G37*
G36*
X168406494Y-101321416D02*
G01*
X168462087Y-101336405D01*
X168507220Y-101408881D01*
X168478888Y-101470157D01*
X168397188Y-101518255D01*
X168085540Y-101545927D01*
X168076975Y-101493217D01*
X168093117Y-101425930D01*
X168141545Y-101375608D01*
X168220939Y-101341100D01*
X168329983Y-101321251D01*
X168406494Y-101321416D01*
G37*
G36*
X168455334Y-97865290D02*
G01*
X168472958Y-97941225D01*
X168458999Y-98000894D01*
X168417119Y-98043515D01*
X168347319Y-98069088D01*
X168249600Y-98077612D01*
X168161476Y-98068799D01*
X168096082Y-98042362D01*
X168055561Y-97999123D01*
X168042055Y-97939907D01*
X168059185Y-97864301D01*
X168110577Y-97816698D01*
X168402459Y-97816698D01*
X168455334Y-97865290D01*
G37*
G36*
X168353620Y-106755319D02*
G01*
X168419260Y-106783980D01*
X168459534Y-106830430D01*
X168472958Y-106893353D01*
X168459699Y-106954958D01*
X168419919Y-107001408D01*
X168350984Y-107030563D01*
X168250259Y-107040282D01*
X168161970Y-107030563D01*
X168096082Y-107001408D01*
X168055067Y-106954628D01*
X168041396Y-106892035D01*
X168054985Y-106830101D01*
X168095753Y-106783980D01*
X168165017Y-106755319D01*
X168264095Y-106745765D01*
X168353620Y-106755319D01*
G37*
G36*
X168454181Y-100384002D02*
G01*
X168472958Y-100461420D01*
X168450227Y-100537849D01*
X168382034Y-100582653D01*
X168327182Y-100593030D01*
X168249600Y-100596489D01*
X168156122Y-100587924D01*
X168091800Y-100562228D01*
X168054491Y-100519566D01*
X168042055Y-100460102D01*
X168060668Y-100383343D01*
X168116507Y-100334916D01*
X168397847Y-100334916D01*
X168454181Y-100384002D01*
G37*
G36*
X168457804Y-104237430D02*
G01*
X168480865Y-104305953D01*
X168462087Y-104383700D01*
X168411683Y-104436410D01*
X168289132Y-104436410D01*
X168289132Y-104365251D01*
X168300114Y-104284795D01*
X168333057Y-104234062D01*
X168387964Y-104213051D01*
X168399165Y-104212392D01*
X168457804Y-104237430D01*
G37*
G36*
X167900397Y-104974710D02*
G01*
X168613299Y-104974710D01*
X168613299Y-104879173D01*
X169192889Y-104879173D01*
X169192889Y-109216984D01*
X167306311Y-108651010D01*
X167306311Y-108140602D01*
X167887219Y-108140602D01*
X167904103Y-108241740D01*
X167954754Y-108313227D01*
X168039337Y-108355725D01*
X168158016Y-108369891D01*
X168613299Y-108369891D01*
X168613299Y-108178817D01*
X168158675Y-108178817D01*
X168070057Y-108155098D01*
X168042055Y-108071420D01*
X168062480Y-107998944D01*
X168123755Y-107952823D01*
X168613299Y-107953482D01*
X168613299Y-107763067D01*
X168159334Y-107763067D01*
X168069727Y-107738689D01*
X168042055Y-107655671D01*
X168058856Y-107585830D01*
X168109260Y-107538391D01*
X168613299Y-107538391D01*
X168613299Y-107347976D01*
X167900397Y-107347976D01*
X167900397Y-107526531D01*
X167980120Y-107532461D01*
X167928508Y-107588905D01*
X167897541Y-107657208D01*
X167887219Y-107737371D01*
X167899298Y-107819584D01*
X167935536Y-107882616D01*
X167995933Y-107926468D01*
X167935536Y-107983644D01*
X167899298Y-108055022D01*
X167887219Y-108140602D01*
X167306311Y-108140602D01*
X167306311Y-106892035D01*
X167887219Y-106892035D01*
X167897029Y-106982338D01*
X167926459Y-107060853D01*
X167975508Y-107127583D01*
X168041396Y-107179451D01*
X168121339Y-107213383D01*
X168215339Y-107229379D01*
X168264095Y-107230697D01*
X168366257Y-107220521D01*
X168453998Y-107189993D01*
X168527316Y-107139113D01*
X168582405Y-107071103D01*
X168615458Y-106989183D01*
X168626476Y-106893353D01*
X168615495Y-106797487D01*
X168582551Y-106715457D01*
X168527645Y-106647263D01*
X168453851Y-106596200D01*
X168364244Y-106565563D01*
X168258824Y-106555350D01*
X168250259Y-106555350D01*
X168149945Y-106565563D01*
X168061162Y-106596200D01*
X167987533Y-106646028D01*
X167932681Y-106713810D01*
X167898585Y-106796745D01*
X167887219Y-106892035D01*
X167306311Y-106892035D01*
X167306311Y-106179792D01*
X167887219Y-106179792D01*
X167895675Y-106263066D01*
X167921041Y-106334554D01*
X167963319Y-106394255D01*
X168019653Y-106439242D01*
X168087187Y-106466585D01*
X168165923Y-106476285D01*
X168165923Y-106297730D01*
X168075987Y-106263469D01*
X168041396Y-106176497D01*
X168053502Y-106118105D01*
X168089823Y-106076019D01*
X168153322Y-106050570D01*
X168246965Y-106042087D01*
X168266731Y-106042087D01*
X168361279Y-106050488D01*
X168424861Y-106075690D01*
X168460934Y-106118022D01*
X168472958Y-106177815D01*
X168443968Y-106263469D01*
X168366880Y-106297730D01*
X168366880Y-106476285D01*
X168436309Y-106466073D01*
X168499643Y-106436753D01*
X168553176Y-106390714D01*
X168593203Y-106330345D01*
X168618158Y-106259269D01*
X168626476Y-106181110D01*
X168615678Y-106086378D01*
X168583283Y-106005995D01*
X168529292Y-105939961D01*
X168456267Y-105890912D01*
X168366770Y-105861482D01*
X168260801Y-105851672D01*
X168248282Y-105851672D01*
X168145864Y-105861409D01*
X168058234Y-105890619D01*
X167985391Y-105939303D01*
X167930851Y-106004970D01*
X167898127Y-106085133D01*
X167887219Y-106179792D01*
X167306311Y-106179792D01*
X167306311Y-105606571D01*
X168417613Y-105606571D01*
X168445945Y-105683989D01*
X168519739Y-105714626D01*
X168592544Y-105684318D01*
X168620546Y-105606571D01*
X168592544Y-105529483D01*
X168519739Y-105499174D01*
X168445945Y-105529812D01*
X168417613Y-105606571D01*
X167306311Y-105606571D01*
X167306311Y-105332479D01*
X167601267Y-105332479D01*
X168613299Y-105332479D01*
X168613299Y-105141406D01*
X167601267Y-105141406D01*
X167601267Y-105332479D01*
X167306311Y-105332479D01*
X167306311Y-104879173D01*
X167617739Y-104879173D01*
X167645412Y-104956921D01*
X167715912Y-104985911D01*
X167787070Y-104956591D01*
X167814743Y-104879173D01*
X167787070Y-104801756D01*
X167715912Y-104772436D01*
X167645412Y-104801097D01*
X167617739Y-104879173D01*
X167306311Y-104879173D01*
X167306311Y-104340873D01*
X167887219Y-104340873D01*
X167894576Y-104422683D01*
X167916649Y-104492414D01*
X167953436Y-104550066D01*
X168033077Y-104608129D01*
X168139568Y-104627483D01*
X168448580Y-104627483D01*
X168537693Y-104634896D01*
X168602098Y-104655815D01*
X168613299Y-104655815D01*
X168613299Y-104463424D01*
X168549388Y-104444316D01*
X168607204Y-104364757D01*
X168626476Y-104264444D01*
X168611322Y-104168660D01*
X168565860Y-104090830D01*
X168497337Y-104039191D01*
X168413001Y-104021978D01*
X168312852Y-104042979D01*
X168239058Y-104105984D01*
X168205309Y-104170298D01*
X168184884Y-104251229D01*
X168177783Y-104348780D01*
X168177783Y-104436410D01*
X168136932Y-104436410D01*
X168057868Y-104411043D01*
X168028218Y-104330990D01*
X168051279Y-104255549D01*
X168114531Y-104228205D01*
X168114531Y-104037791D01*
X168054903Y-104047344D01*
X167999887Y-104076005D01*
X167952859Y-104122127D01*
X167917198Y-104184061D01*
X167894714Y-104258184D01*
X167887219Y-104340873D01*
X167306311Y-104340873D01*
X167306311Y-103674751D01*
X167887219Y-103674751D01*
X167904103Y-103775888D01*
X167954754Y-103847376D01*
X168039337Y-103889873D01*
X168158016Y-103904039D01*
X168613299Y-103904039D01*
X168613299Y-103712966D01*
X168158675Y-103712966D01*
X168070057Y-103689246D01*
X168042055Y-103605569D01*
X168062480Y-103533093D01*
X168123755Y-103486972D01*
X168613299Y-103487631D01*
X168613299Y-103297216D01*
X168159334Y-103297216D01*
X168069727Y-103272837D01*
X168042055Y-103189819D01*
X168058856Y-103119979D01*
X168109260Y-103072540D01*
X168613299Y-103072540D01*
X168613299Y-102882125D01*
X167900397Y-102882125D01*
X167900397Y-103060680D01*
X167980120Y-103066610D01*
X167928508Y-103123053D01*
X167897541Y-103191357D01*
X167887219Y-103271520D01*
X167899298Y-103353733D01*
X167935536Y-103416765D01*
X167995933Y-103460617D01*
X167935536Y-103517792D01*
X167899298Y-103589170D01*
X167887219Y-103674751D01*
X167306311Y-103674751D01*
X167306311Y-102372815D01*
X167887219Y-102372815D01*
X167907315Y-102477082D01*
X167967602Y-102555323D01*
X167900397Y-102563230D01*
X167900397Y-102735855D01*
X168589579Y-102735855D01*
X168677045Y-102725230D01*
X168752321Y-102693357D01*
X168813267Y-102642212D01*
X168857741Y-102573772D01*
X168884920Y-102490095D01*
X168893979Y-102393240D01*
X168886155Y-102315822D01*
X168862683Y-102240381D01*
X168826856Y-102174988D01*
X168781971Y-102127714D01*
X168666009Y-102212049D01*
X168725802Y-102290785D01*
X168745733Y-102384675D01*
X168735602Y-102452045D01*
X168705212Y-102502613D01*
X168656208Y-102534239D01*
X168590238Y-102544781D01*
X168552023Y-102544781D01*
X168607863Y-102468516D01*
X168626476Y-102371497D01*
X168615312Y-102291297D01*
X168581819Y-102222006D01*
X168525998Y-102163622D01*
X168451728Y-102119514D01*
X168362890Y-102093049D01*
X168259483Y-102084228D01*
X168251577Y-102084228D01*
X168149305Y-102092903D01*
X168061235Y-102118929D01*
X167987368Y-102162304D01*
X167931730Y-102220395D01*
X167898347Y-102290565D01*
X167887219Y-102372815D01*
X167306311Y-102372815D01*
X167306311Y-101468180D01*
X167680332Y-101468180D01*
X167688202Y-101573307D01*
X167711812Y-101668185D01*
X167751161Y-101752814D01*
X167805153Y-101825656D01*
X167872687Y-101885174D01*
X167953765Y-101931369D01*
X168046374Y-101963507D01*
X168148499Y-101980858D01*
X168260142Y-101983420D01*
X168364866Y-101970938D01*
X168454144Y-101943155D01*
X168527974Y-101900072D01*
X168583064Y-101843519D01*
X168616117Y-101775325D01*
X168627135Y-101695492D01*
X168602757Y-101597649D01*
X168532916Y-101535385D01*
X168602098Y-101459450D01*
X168625158Y-101363419D01*
X168604898Y-101278095D01*
X168544117Y-101214513D01*
X168484306Y-101186694D01*
X168412928Y-101173517D01*
X168329983Y-101174981D01*
X168227281Y-101194665D01*
X168136603Y-101229997D01*
X168061738Y-101278836D01*
X168006475Y-101339041D01*
X167972379Y-101407564D01*
X167961013Y-101481358D01*
X167971884Y-101568659D01*
X168004499Y-101642123D01*
X168032830Y-101683632D01*
X168413660Y-101650030D01*
X168493384Y-101661560D01*
X168521056Y-101719211D01*
X168503349Y-101774886D01*
X168450227Y-101820678D01*
X168368444Y-101852304D01*
X168264754Y-101865481D01*
X168156431Y-101863896D01*
X168061409Y-101847939D01*
X167979688Y-101817610D01*
X167911268Y-101772910D01*
X167857220Y-101714785D01*
X167818614Y-101644182D01*
X167795450Y-101561102D01*
X167787729Y-101465545D01*
X167794903Y-101383844D01*
X167816427Y-101308293D01*
X167852299Y-101238892D01*
X167901385Y-101177250D01*
X167962550Y-101124980D01*
X168035795Y-101082080D01*
X168118923Y-101049429D01*
X168209738Y-101027906D01*
X168308240Y-101017510D01*
X168418251Y-101019404D01*
X168515044Y-101035629D01*
X168598618Y-101066184D01*
X168668974Y-101111070D01*
X168724751Y-101169586D01*
X168764593Y-101241033D01*
X168788498Y-101325410D01*
X168796466Y-101422718D01*
X168793419Y-101478722D01*
X168784277Y-101537362D01*
X168751662Y-101640805D01*
X168853129Y-101665842D01*
X168876931Y-101618651D01*
X168895626Y-101557458D01*
X168907733Y-101489017D01*
X168911769Y-101420082D01*
X168903972Y-101309831D01*
X168880582Y-101210999D01*
X168841599Y-101123589D01*
X168787425Y-101048807D01*
X168718462Y-100987861D01*
X168634712Y-100940751D01*
X168563039Y-100914870D01*
X168484736Y-100897512D01*
X168399803Y-100888679D01*
X168308240Y-100888371D01*
X168219662Y-100896524D01*
X168135779Y-100913078D01*
X168056591Y-100938033D01*
X167982097Y-100971389D01*
X167893185Y-101027503D01*
X167818842Y-101095696D01*
X167759068Y-101175969D01*
X167715326Y-101265979D01*
X167689081Y-101363382D01*
X167680332Y-101468180D01*
X167306311Y-101468180D01*
X167306311Y-100334916D01*
X167601267Y-100334916D01*
X167964307Y-100334916D01*
X167906491Y-100411181D01*
X167887219Y-100508200D01*
X167897871Y-100588912D01*
X167929826Y-100657106D01*
X167983085Y-100712781D01*
X168055671Y-100753960D01*
X168145608Y-100778668D01*
X168252894Y-100786904D01*
X168263436Y-100786904D01*
X168369259Y-100778778D01*
X168458317Y-100754399D01*
X168530610Y-100713769D01*
X168583869Y-100658570D01*
X168615824Y-100590486D01*
X168626476Y-100509518D01*
X168616593Y-100437408D01*
X168586944Y-100375693D01*
X168537528Y-100324374D01*
X168613299Y-100315809D01*
X168613299Y-100144501D01*
X167601267Y-100144501D01*
X167601267Y-100334916D01*
X167306311Y-100334916D01*
X167306311Y-99711621D01*
X167887219Y-99711621D01*
X167894576Y-99793431D01*
X167916649Y-99863162D01*
X167953436Y-99920813D01*
X168033077Y-99978877D01*
X168139568Y-99998231D01*
X168448580Y-99998231D01*
X168537693Y-100005643D01*
X168602098Y-100026563D01*
X168613299Y-100026563D01*
X168613299Y-99834171D01*
X168549388Y-99815064D01*
X168607204Y-99735505D01*
X168626476Y-99635191D01*
X168611322Y-99539407D01*
X168565860Y-99461578D01*
X168497337Y-99409939D01*
X168413001Y-99392725D01*
X168312852Y-99413727D01*
X168239058Y-99476732D01*
X168205309Y-99541045D01*
X168184884Y-99621977D01*
X168177783Y-99719527D01*
X168177783Y-99807157D01*
X168136932Y-99807157D01*
X168057868Y-99781791D01*
X168028218Y-99701738D01*
X168051279Y-99626296D01*
X168114531Y-99598953D01*
X168114531Y-99408538D01*
X168054903Y-99418092D01*
X167999887Y-99446753D01*
X167952859Y-99492874D01*
X167917198Y-99554809D01*
X167894714Y-99628932D01*
X167887219Y-99711621D01*
X167306311Y-99711621D01*
X167306311Y-99264245D01*
X167601267Y-99264245D01*
X168613299Y-99264245D01*
X168613299Y-99073171D01*
X167601267Y-99073171D01*
X167601267Y-99264245D01*
X167306311Y-99264245D01*
X167306311Y-98988176D01*
X167900397Y-98988176D01*
X168723990Y-98701566D01*
X168761545Y-98685753D01*
X168839146Y-98633922D01*
X168885707Y-98563642D01*
X168901227Y-98474913D01*
X168888708Y-98390577D01*
X168744415Y-98390577D01*
X168745074Y-98419568D01*
X168728602Y-98500280D01*
X168673915Y-98542118D01*
X168615275Y-98564520D01*
X167900397Y-98314807D01*
X167900397Y-98519717D01*
X168343819Y-98652150D01*
X167900397Y-98783925D01*
X167900397Y-98988176D01*
X167306311Y-98988176D01*
X167306311Y-97989982D01*
X167887219Y-97989982D01*
X167898054Y-98071316D01*
X167930558Y-98139619D01*
X167984732Y-98194892D01*
X168057941Y-98235522D01*
X168147548Y-98259901D01*
X168253553Y-98268027D01*
X168263436Y-98268027D01*
X168365965Y-98259717D01*
X168453924Y-98234790D01*
X168527316Y-98193244D01*
X168582405Y-98137569D01*
X168615458Y-98070254D01*
X168626476Y-97991299D01*
X168607698Y-97893621D01*
X168551365Y-97816698D01*
X168887391Y-97816698D01*
X168887391Y-97626283D01*
X167900397Y-97626283D01*
X167900397Y-97802861D01*
X167970237Y-97809450D01*
X167907974Y-97889174D01*
X167887219Y-97989982D01*
X167306311Y-97989982D01*
X167306311Y-97230299D01*
X167887219Y-97230299D01*
X167898054Y-97311634D01*
X167930558Y-97379937D01*
X167984732Y-97435209D01*
X168057941Y-97475840D01*
X168147548Y-97500218D01*
X168253553Y-97508344D01*
X168263436Y-97508344D01*
X168365965Y-97500035D01*
X168453924Y-97475108D01*
X168527316Y-97433562D01*
X168582405Y-97377887D01*
X168615458Y-97310572D01*
X168626476Y-97231617D01*
X168607698Y-97133939D01*
X168551365Y-97057015D01*
X168887391Y-97057015D01*
X168887391Y-96866601D01*
X167900397Y-96866601D01*
X167900397Y-97043179D01*
X167970237Y-97049768D01*
X167907974Y-97129491D01*
X167887219Y-97230299D01*
X167306311Y-97230299D01*
X167306311Y-96410659D01*
X167887219Y-96410659D01*
X167897029Y-96500962D01*
X167926459Y-96579478D01*
X167975508Y-96646207D01*
X168041396Y-96698075D01*
X168121339Y-96732007D01*
X168215339Y-96748003D01*
X168264095Y-96749321D01*
X168366257Y-96739145D01*
X168453998Y-96708617D01*
X168527316Y-96657737D01*
X168582405Y-96589727D01*
X168615458Y-96507807D01*
X168626476Y-96411977D01*
X168615495Y-96316111D01*
X168582551Y-96234081D01*
X168527645Y-96165888D01*
X168453851Y-96114825D01*
X168364244Y-96084187D01*
X168258824Y-96073975D01*
X168250259Y-96073975D01*
X168149945Y-96084187D01*
X168061162Y-96114825D01*
X167987533Y-96164652D01*
X167932681Y-96232434D01*
X167898585Y-96315370D01*
X167887219Y-96410659D01*
X167306311Y-96410659D01*
X167306311Y-95946812D01*
X167601267Y-95946812D01*
X168613299Y-95946812D01*
X168613299Y-95755738D01*
X167601267Y-95755738D01*
X167601267Y-95946812D01*
X167306311Y-95946812D01*
X167306311Y-95575865D01*
X167587431Y-95575865D01*
X167600609Y-95672720D01*
X167748196Y-95670743D01*
X167742267Y-95612762D01*
X167767469Y-95532215D01*
X167843074Y-95505366D01*
X167900397Y-95505366D01*
X167900397Y-95647024D01*
X168040078Y-95647024D01*
X168040078Y-95505366D01*
X168613299Y-95505366D01*
X168613299Y-95314292D01*
X168040078Y-95314292D01*
X168040078Y-95208213D01*
X167900397Y-95208213D01*
X167900397Y-95314292D01*
X167839780Y-95314292D01*
X167733289Y-95331505D01*
X167653648Y-95383145D01*
X167603985Y-95465751D01*
X167587431Y-95575865D01*
X167306311Y-95575865D01*
X167306311Y-94839903D01*
X167887219Y-94839903D01*
X167897468Y-94930498D01*
X167928216Y-95007257D01*
X167979461Y-95070179D01*
X168049522Y-95116849D01*
X168136713Y-95144852D01*
X168241035Y-95154186D01*
X168318782Y-95154186D01*
X168318782Y-94700221D01*
X168381704Y-94718752D01*
X168430790Y-94755896D01*
X168462416Y-94808524D01*
X168472958Y-94873505D01*
X168453028Y-94971513D01*
X168393235Y-95045471D01*
X168497996Y-95139032D01*
X168551941Y-95088628D01*
X168592544Y-95023070D01*
X168617993Y-94945981D01*
X168626476Y-94860987D01*
X168615788Y-94762924D01*
X168583723Y-94677819D01*
X168530281Y-94605673D01*
X168459049Y-94550949D01*
X168373615Y-94518116D01*
X168273978Y-94507171D01*
X168255530Y-94507171D01*
X168153816Y-94517548D01*
X168063468Y-94548680D01*
X167988521Y-94598837D01*
X167933011Y-94666289D01*
X167898667Y-94747742D01*
X167887219Y-94839903D01*
X167306311Y-94839903D01*
X167306311Y-93963599D01*
X167601267Y-93963599D01*
X167978144Y-93963599D01*
X167927630Y-94018432D01*
X167897322Y-94081904D01*
X167887219Y-94154014D01*
X167897998Y-94237639D01*
X167930336Y-94302973D01*
X167984232Y-94350016D01*
X168059686Y-94378769D01*
X168156699Y-94389232D01*
X168613299Y-94389232D01*
X168613299Y-94198818D01*
X168161970Y-94198818D01*
X168071374Y-94172463D01*
X168042055Y-94084832D01*
X168058197Y-94012686D01*
X168106624Y-93963599D01*
X168613299Y-93963599D01*
X168613299Y-93773185D01*
X167601267Y-93773185D01*
X167601267Y-93963599D01*
X167306311Y-93963599D01*
X167306311Y-93549826D01*
X167725136Y-93549826D01*
X167900397Y-93549826D01*
X167900397Y-93671718D01*
X168040078Y-93671718D01*
X168040078Y-93549826D01*
X168395870Y-93549826D01*
X168452533Y-93564980D01*
X168469664Y-93622961D01*
X168465052Y-93678966D01*
X168609345Y-93678966D01*
X168622194Y-93622138D01*
X168626476Y-93563663D01*
X168613834Y-93475785D01*
X168575908Y-93412451D01*
X168512697Y-93373660D01*
X168424202Y-93359412D01*
X168040078Y-93359412D01*
X168040078Y-93255309D01*
X167900397Y-93255309D01*
X167900397Y-93359412D01*
X167725136Y-93359412D01*
X167725136Y-93549826D01*
X167306311Y-93549826D01*
X167306311Y-92408216D01*
X169192889Y-92974190D01*
X169192889Y-104879173D01*
X167900397Y-104879173D01*
X168613299Y-104879173D01*
X168613299Y-104783637D01*
X167900397Y-104783637D01*
X167900397Y-104879173D01*
X167900397Y-104974710D01*
G37*
G36*
X168353620Y-96273943D02*
G01*
X168419260Y-96302604D01*
X168459534Y-96349055D01*
X168472958Y-96411977D01*
X168459699Y-96473582D01*
X168419919Y-96520033D01*
X168350984Y-96549188D01*
X168250259Y-96558906D01*
X168161970Y-96549188D01*
X168096082Y-96520033D01*
X168055067Y-96473252D01*
X168041396Y-96410659D01*
X168054985Y-96348725D01*
X168095753Y-96302604D01*
X168165017Y-96273943D01*
X168264095Y-96264389D01*
X168353620Y-96273943D01*
G37*
G36*
X168188984Y-94967065D02*
G01*
X168173829Y-94967065D01*
X168075987Y-94932804D01*
X168041396Y-94839244D01*
X168079610Y-94747331D01*
X168126061Y-94718423D01*
X168188984Y-94702198D01*
X168188984Y-94967065D01*
G37*
G36*
X168457804Y-99608177D02*
G01*
X168480865Y-99676700D01*
X168462087Y-99754448D01*
X168411683Y-99807157D01*
X168289132Y-99807157D01*
X168289132Y-99735999D01*
X168300114Y-99655543D01*
X168333057Y-99604810D01*
X168387964Y-99583799D01*
X168399165Y-99583140D01*
X168457804Y-99608177D01*
G37*
%TO.C,R3*%
X157380000Y-102462064D02*
X157380000Y-102007936D01*
X158850000Y-102462064D02*
X158850000Y-102007936D01*
%TO.C,D3*%
X155330800Y-87392000D02*
X159180800Y-87392000D01*
X155330800Y-89392000D02*
X159180800Y-89392000D01*
X155330800Y-89392000D02*
X155330800Y-87392000D01*
%TO.C,J3*%
X154492000Y-108518000D02*
X151832000Y-108518000D01*
X151832000Y-83058000D02*
X151832000Y-108518000D01*
X154492000Y-81788000D02*
X154492000Y-80458000D01*
X154492000Y-83058000D02*
X151832000Y-83058000D01*
X154492000Y-80458000D02*
X153162000Y-80458000D01*
X154492000Y-83058000D02*
X154492000Y-108518000D01*
%TO.C,kibuzzard-644D56F9*%
G36*
X159342288Y-111572801D02*
G01*
X159286090Y-111572801D01*
X159225919Y-111561658D01*
X159181833Y-111528230D01*
X159161722Y-111494252D01*
X159149449Y-111451749D01*
X159145013Y-111400718D01*
X159145013Y-111370875D01*
X159148975Y-111318143D01*
X159160861Y-111274671D01*
X159180670Y-111240457D01*
X159224563Y-111207174D01*
X159284927Y-111196079D01*
X159342288Y-111196079D01*
X159342288Y-111572801D01*
G37*
G36*
X153419135Y-111404400D02*
G01*
X153102057Y-110928783D01*
X160829665Y-110928783D01*
X161146743Y-111404400D01*
X160829665Y-111880017D01*
X153102057Y-111880017D01*
X153350018Y-111508076D01*
X153584500Y-111508076D01*
X153590593Y-111554886D01*
X153608874Y-111595065D01*
X153639341Y-111628611D01*
X153679843Y-111653803D01*
X153728225Y-111668919D01*
X153784488Y-111673957D01*
X153837391Y-111669005D01*
X153883448Y-111654148D01*
X153922657Y-111629386D01*
X153952479Y-111596486D01*
X153970372Y-111557212D01*
X153976336Y-111511564D01*
X153864328Y-111511564D01*
X153840492Y-111563499D01*
X153781775Y-111583653D01*
X153746166Y-111578372D01*
X153719181Y-111562530D01*
X153696508Y-111506526D01*
X153706844Y-111459586D01*
X153737850Y-111431422D01*
X153789526Y-111422035D01*
X153848825Y-111422035D01*
X153848825Y-111334443D01*
X153789138Y-111334443D01*
X153752028Y-111329114D01*
X153725964Y-111313127D01*
X153705423Y-111256541D01*
X153725770Y-111203443D01*
X153781775Y-111184452D01*
X153835647Y-111202087D01*
X153857351Y-111248014D01*
X153969360Y-111248014D01*
X153963401Y-111206108D01*
X153945524Y-111168755D01*
X153916941Y-111137507D01*
X153878862Y-111113914D01*
X153842386Y-111101899D01*
X154003854Y-111101899D01*
X154200354Y-111666206D01*
X154321664Y-111666206D01*
X154376510Y-111508076D01*
X154558859Y-111508076D01*
X154564952Y-111554886D01*
X154583233Y-111595065D01*
X154613701Y-111628611D01*
X154654202Y-111653803D01*
X154702584Y-111668919D01*
X154758847Y-111673957D01*
X154811750Y-111669005D01*
X154857807Y-111654148D01*
X154897017Y-111629386D01*
X154926838Y-111596486D01*
X154944731Y-111557212D01*
X154950695Y-111511564D01*
X154838687Y-111511564D01*
X154814851Y-111563499D01*
X154756134Y-111583653D01*
X154720525Y-111578372D01*
X154693541Y-111562530D01*
X154670868Y-111506526D01*
X154681203Y-111459586D01*
X154712209Y-111431422D01*
X154763885Y-111422035D01*
X154823184Y-111422035D01*
X154823184Y-111334443D01*
X154763498Y-111334443D01*
X154726387Y-111329114D01*
X154700323Y-111313127D01*
X154679782Y-111256541D01*
X154700129Y-111203443D01*
X154756134Y-111184452D01*
X154810006Y-111202087D01*
X154831710Y-111248014D01*
X154943719Y-111248014D01*
X154937760Y-111206108D01*
X154919883Y-111168755D01*
X154891300Y-111137507D01*
X154853221Y-111113914D01*
X154816745Y-111101899D01*
X154985965Y-111101899D01*
X155193704Y-111714652D01*
X155277032Y-111714652D01*
X155260608Y-111666206D01*
X155265405Y-111666206D01*
X155403769Y-111666206D01*
X155548721Y-111439863D01*
X155609182Y-111504975D01*
X155609182Y-111666206D01*
X155725454Y-111666206D01*
X155725454Y-111293360D01*
X155801031Y-111293360D01*
X155917303Y-111293360D01*
X155927041Y-111246222D01*
X155947728Y-111214102D01*
X155980720Y-111195643D01*
X156027374Y-111189491D01*
X156078194Y-111199907D01*
X156114384Y-111231155D01*
X156130511Y-111264034D01*
X156140395Y-111307119D01*
X156144033Y-111360410D01*
X156144033Y-111403043D01*
X156140954Y-111458553D01*
X156131717Y-111503124D01*
X156116322Y-111536756D01*
X156080617Y-111568440D01*
X156028924Y-111579002D01*
X155981883Y-111572849D01*
X155948503Y-111554391D01*
X155927622Y-111523046D01*
X155918078Y-111478233D01*
X155801806Y-111478233D01*
X155812206Y-111534646D01*
X155834621Y-111582447D01*
X155869050Y-111621635D01*
X155913772Y-111650703D01*
X155967063Y-111668144D01*
X156028924Y-111673957D01*
X156080290Y-111669391D01*
X156125866Y-111655693D01*
X156165653Y-111632862D01*
X156199650Y-111600900D01*
X156226865Y-111560967D01*
X156244994Y-111517378D01*
X156323480Y-111517378D01*
X156329638Y-111562702D01*
X156348112Y-111601007D01*
X156378903Y-111632293D01*
X156420115Y-111655440D01*
X156469853Y-111669328D01*
X156528119Y-111673957D01*
X156590324Y-111667998D01*
X156646716Y-111650121D01*
X156693855Y-111621877D01*
X156728300Y-111584815D01*
X156749374Y-111540051D01*
X156756399Y-111488697D01*
X156639740Y-111488697D01*
X156632763Y-111529562D01*
X156611834Y-111558751D01*
X156576953Y-111576265D01*
X156528119Y-111582102D01*
X156491202Y-111577887D01*
X156463394Y-111565243D01*
X156440139Y-111518153D01*
X156463394Y-111467574D01*
X156495950Y-111449455D01*
X156547110Y-111430367D01*
X156601273Y-111410940D01*
X156642840Y-111391804D01*
X156696239Y-111353176D01*
X156728279Y-111306538D01*
X156738958Y-111251890D01*
X156732515Y-111208627D01*
X156713185Y-111170306D01*
X156681791Y-111138379D01*
X156639158Y-111114301D01*
X156597141Y-111101899D01*
X156793606Y-111101899D01*
X157001345Y-111714652D01*
X157084674Y-111714652D01*
X156977059Y-111397230D01*
X157113742Y-111397230D01*
X157117338Y-111447744D01*
X157128125Y-111494382D01*
X157146104Y-111537144D01*
X157170629Y-111574911D01*
X157201053Y-111606563D01*
X157237378Y-111632099D01*
X157278331Y-111650875D01*
X157322644Y-111662244D01*
X157370315Y-111666206D01*
X157545111Y-111666206D01*
X157646655Y-111666206D01*
X157762927Y-111666206D01*
X157989270Y-111294911D01*
X157989270Y-111666206D01*
X158105542Y-111666206D01*
X158105542Y-111594892D01*
X158199722Y-111594892D01*
X158237607Y-111628272D01*
X158288476Y-111653222D01*
X158348938Y-111668773D01*
X158415600Y-111673957D01*
X158462432Y-111670404D01*
X158505259Y-111659746D01*
X158544081Y-111641982D01*
X158593012Y-111602789D01*
X158629347Y-111549159D01*
X158646120Y-111506224D01*
X158656391Y-111458553D01*
X158660159Y-111406144D01*
X158660159Y-111367774D01*
X158656994Y-111313966D01*
X158647498Y-111265197D01*
X158631672Y-111221465D01*
X158596888Y-111166914D01*
X158549507Y-111126898D01*
X158511675Y-111108703D01*
X158485545Y-111101899D01*
X158707055Y-111101899D01*
X158914795Y-111714652D01*
X158998123Y-111714652D01*
X158890509Y-111397230D01*
X159027191Y-111397230D01*
X159030787Y-111447744D01*
X159041574Y-111494382D01*
X159059553Y-111537144D01*
X159084078Y-111574911D01*
X159114502Y-111606563D01*
X159150827Y-111632099D01*
X159191780Y-111650875D01*
X159236093Y-111662244D01*
X159283764Y-111666206D01*
X159458560Y-111666206D01*
X159458560Y-111101899D01*
X159521347Y-111101899D01*
X159646533Y-111666206D01*
X159763580Y-111666206D01*
X159855435Y-111288709D01*
X159947290Y-111666206D01*
X160064337Y-111666206D01*
X160097353Y-111517378D01*
X160231381Y-111517378D01*
X160237539Y-111562702D01*
X160256013Y-111601007D01*
X160286804Y-111632293D01*
X160328016Y-111655440D01*
X160377754Y-111669328D01*
X160436020Y-111673957D01*
X160498225Y-111667998D01*
X160554617Y-111650121D01*
X160601756Y-111621877D01*
X160636201Y-111584815D01*
X160657275Y-111540051D01*
X160664300Y-111488697D01*
X160547641Y-111488697D01*
X160540664Y-111529562D01*
X160519735Y-111558751D01*
X160484854Y-111576265D01*
X160436020Y-111582102D01*
X160399103Y-111577887D01*
X160371295Y-111565243D01*
X160348040Y-111518153D01*
X160371295Y-111467574D01*
X160403851Y-111449455D01*
X160455011Y-111430367D01*
X160509174Y-111410940D01*
X160550741Y-111391804D01*
X160604140Y-111353176D01*
X160636180Y-111306538D01*
X160646859Y-111251890D01*
X160640416Y-111208627D01*
X160621086Y-111170306D01*
X160589692Y-111138379D01*
X160547059Y-111114301D01*
X160495851Y-111099186D01*
X160438733Y-111094148D01*
X160381566Y-111099622D01*
X160330987Y-111116046D01*
X160288984Y-111142449D01*
X160257542Y-111177863D01*
X160237921Y-111220496D01*
X160231381Y-111268556D01*
X160347653Y-111268556D01*
X160353757Y-111234110D01*
X160372070Y-111208288D01*
X160401429Y-111192155D01*
X160440670Y-111186778D01*
X160478556Y-111191283D01*
X160506945Y-111204800D01*
X160530587Y-111252278D01*
X160502876Y-111298399D01*
X160468624Y-111316421D01*
X160421292Y-111333280D01*
X160361132Y-111354769D01*
X160312944Y-111379445D01*
X160276727Y-111407307D01*
X160242717Y-111456916D01*
X160231381Y-111517378D01*
X160097353Y-111517378D01*
X160189523Y-111101899D01*
X160073639Y-111101899D01*
X159997287Y-111502650D01*
X159904269Y-111101899D01*
X159805825Y-111101899D01*
X159713195Y-111503425D01*
X159637231Y-111101899D01*
X159521347Y-111101899D01*
X159458560Y-111101899D01*
X159284927Y-111101899D01*
X159237062Y-111105624D01*
X159192685Y-111116799D01*
X159151796Y-111135424D01*
X159115514Y-111160918D01*
X159084961Y-111192699D01*
X159060135Y-111230767D01*
X159041832Y-111273852D01*
X159030851Y-111320684D01*
X159027191Y-111371262D01*
X159027191Y-111397230D01*
X158890509Y-111397230D01*
X158790384Y-111101899D01*
X158707055Y-111101899D01*
X158485545Y-111101899D01*
X158469753Y-111097787D01*
X158423739Y-111094148D01*
X158361685Y-111099466D01*
X158309362Y-111115421D01*
X158266772Y-111142013D01*
X158234173Y-111178768D01*
X158211823Y-111225212D01*
X158199722Y-111281345D01*
X158312893Y-111281345D01*
X158325344Y-111239391D01*
X158347194Y-111210420D01*
X158378732Y-111193560D01*
X158420251Y-111187940D01*
X158472477Y-111199083D01*
X158510556Y-111232511D01*
X158527824Y-111267048D01*
X158538289Y-111311232D01*
X158541949Y-111365061D01*
X158541949Y-111401106D01*
X158538203Y-111455452D01*
X158526963Y-111500152D01*
X158508230Y-111535206D01*
X158466663Y-111569216D01*
X158409399Y-111580552D01*
X158353298Y-111573576D01*
X158315994Y-111552647D01*
X158315994Y-111455366D01*
X158421801Y-111455366D01*
X158421801Y-111369712D01*
X158199722Y-111369712D01*
X158199722Y-111594892D01*
X158105542Y-111594892D01*
X158105542Y-111101899D01*
X157989270Y-111101899D01*
X157762539Y-111473969D01*
X157762539Y-111101899D01*
X157646655Y-111101899D01*
X157646655Y-111666206D01*
X157545111Y-111666206D01*
X157545111Y-111101899D01*
X157371478Y-111101899D01*
X157323613Y-111105624D01*
X157279236Y-111116799D01*
X157238347Y-111135424D01*
X157202065Y-111160918D01*
X157171512Y-111192699D01*
X157146685Y-111230767D01*
X157128383Y-111273852D01*
X157117402Y-111320684D01*
X157113742Y-111371262D01*
X157113742Y-111397230D01*
X156977059Y-111397230D01*
X156876934Y-111101899D01*
X156793606Y-111101899D01*
X156597141Y-111101899D01*
X156587950Y-111099186D01*
X156530832Y-111094148D01*
X156473665Y-111099622D01*
X156423086Y-111116046D01*
X156381083Y-111142449D01*
X156349641Y-111177863D01*
X156330020Y-111220496D01*
X156323480Y-111268556D01*
X156439752Y-111268556D01*
X156445856Y-111234110D01*
X156464169Y-111208288D01*
X156493528Y-111192155D01*
X156532769Y-111186778D01*
X156570655Y-111191283D01*
X156599044Y-111204800D01*
X156622686Y-111252278D01*
X156594975Y-111298399D01*
X156560723Y-111316421D01*
X156513391Y-111333280D01*
X156453231Y-111354769D01*
X156405043Y-111379445D01*
X156368826Y-111407307D01*
X156334816Y-111456916D01*
X156323480Y-111517378D01*
X156244994Y-111517378D01*
X156246304Y-111514229D01*
X156257968Y-111460683D01*
X156261856Y-111400330D01*
X156261856Y-111365836D01*
X156258669Y-111313729D01*
X156249109Y-111265929D01*
X156233175Y-111222434D01*
X156198342Y-111167641D01*
X156151204Y-111127285D01*
X156113760Y-111108875D01*
X156072483Y-111097830D01*
X156027374Y-111094148D01*
X155966482Y-111099961D01*
X155914030Y-111117402D01*
X155870019Y-111146470D01*
X155835827Y-111186046D01*
X155812831Y-111235009D01*
X155801031Y-111293360D01*
X155725454Y-111293360D01*
X155725454Y-111101899D01*
X155609182Y-111101899D01*
X155609182Y-111357697D01*
X155558023Y-111287547D01*
X155414233Y-111101899D01*
X155271219Y-111101899D01*
X155471594Y-111352659D01*
X155265405Y-111666206D01*
X155260608Y-111666206D01*
X155069293Y-111101899D01*
X154985965Y-111101899D01*
X154816745Y-111101899D01*
X154808214Y-111099089D01*
X154758847Y-111094148D01*
X154703467Y-111098906D01*
X154656700Y-111113182D01*
X154618545Y-111136974D01*
X154590338Y-111169122D01*
X154573414Y-111208460D01*
X154567773Y-111254991D01*
X154573684Y-111292198D01*
X154591415Y-111326304D01*
X154618739Y-111355081D01*
X154653427Y-111376301D01*
X154611811Y-111397617D01*
X154582307Y-111427461D01*
X154564721Y-111464668D01*
X154558859Y-111508076D01*
X154376510Y-111508076D01*
X154517389Y-111101899D01*
X154388327Y-111101899D01*
X154261203Y-111526292D01*
X154133304Y-111101899D01*
X154003854Y-111101899D01*
X153842386Y-111101899D01*
X153833855Y-111099089D01*
X153784488Y-111094148D01*
X153729108Y-111098906D01*
X153682341Y-111113182D01*
X153644186Y-111136974D01*
X153615979Y-111169122D01*
X153599055Y-111208460D01*
X153593414Y-111254991D01*
X153599324Y-111292198D01*
X153617056Y-111326304D01*
X153644380Y-111355081D01*
X153679068Y-111376301D01*
X153637452Y-111397617D01*
X153607948Y-111427461D01*
X153590362Y-111464668D01*
X153584500Y-111508076D01*
X153350018Y-111508076D01*
X153419135Y-111404400D01*
G37*
G36*
X157428839Y-111572801D02*
G01*
X157372641Y-111572801D01*
X157312470Y-111561658D01*
X157268383Y-111528230D01*
X157248273Y-111494252D01*
X157236000Y-111451749D01*
X157231564Y-111400718D01*
X157231564Y-111370875D01*
X157235526Y-111318143D01*
X157247411Y-111274671D01*
X157267221Y-111240457D01*
X157311113Y-111207174D01*
X157371478Y-111196079D01*
X157428839Y-111196079D01*
X157428839Y-111572801D01*
G37*
%TO.C,JP3*%
X163719000Y-93534000D02*
X163719000Y-94934000D01*
X165019000Y-92834000D02*
X164419000Y-92834000D01*
X165719000Y-94934000D02*
X165719000Y-93534000D01*
X164419000Y-95634000D02*
X165019000Y-95634000D01*
X164419000Y-92834000D02*
G75*
G03*
X163719000Y-93534000I0J-700000D01*
G01*
X165019000Y-95634000D02*
G75*
G03*
X165719000Y-94934000I1J699999D01*
G01*
X163719000Y-94934000D02*
G75*
G03*
X164419000Y-95634000I699999J-1D01*
G01*
X165719000Y-93534000D02*
G75*
G03*
X165019000Y-92834000I-700000J0D01*
G01*
%TO.C,kibuzzard-644D58F1*%
G36*
X162735088Y-73573406D02*
G01*
X162800481Y-73631469D01*
X162830570Y-73691097D01*
X162848799Y-73766758D01*
X162855168Y-73858451D01*
X162855168Y-73905231D01*
X162849165Y-73995863D01*
X162831156Y-74071853D01*
X162801140Y-74133202D01*
X162735253Y-74193983D01*
X162645646Y-74214244D01*
X162557686Y-74194724D01*
X162492787Y-74136167D01*
X162463064Y-74076173D01*
X162445055Y-74000292D01*
X162438759Y-73908526D01*
X162438759Y-73861746D01*
X162444762Y-73769210D01*
X162462772Y-73692781D01*
X162492787Y-73632457D01*
X162558345Y-73573653D01*
X162646964Y-73554051D01*
X162735088Y-73573406D01*
G37*
G36*
X161286150Y-75542299D02*
G01*
X161127861Y-75542299D01*
X161062289Y-75532896D01*
X161013397Y-75504689D01*
X160982982Y-75459966D01*
X160972843Y-75401017D01*
X160982409Y-75340841D01*
X161011107Y-75295055D01*
X161059591Y-75266112D01*
X161128515Y-75256464D01*
X161286150Y-75256464D01*
X161286150Y-75542299D01*
G37*
G36*
X161897164Y-73865040D02*
G01*
X161720586Y-73865040D01*
X161651487Y-73855816D01*
X161601000Y-73828143D01*
X161570116Y-73783340D01*
X161559821Y-73722723D01*
X161570198Y-73658977D01*
X161601330Y-73608738D01*
X161650745Y-73575794D01*
X161715974Y-73563934D01*
X161897164Y-73563934D01*
X161897164Y-73865040D01*
G37*
G36*
X162137113Y-75694700D02*
G01*
X161899026Y-75694700D01*
X162018723Y-75338225D01*
X162137113Y-75694700D01*
G37*
G36*
X163019308Y-75265867D02*
G01*
X163084226Y-75323508D01*
X163114096Y-75382702D01*
X163132192Y-75457813D01*
X163138515Y-75548840D01*
X163138515Y-75595280D01*
X163132556Y-75685253D01*
X163114677Y-75760690D01*
X163084880Y-75821593D01*
X163019472Y-75881932D01*
X162930516Y-75902045D01*
X162843196Y-75882668D01*
X162778769Y-75824536D01*
X162749262Y-75764978D01*
X162731384Y-75689649D01*
X162725134Y-75598550D01*
X162725134Y-75552110D01*
X162731093Y-75460248D01*
X162748972Y-75384374D01*
X162778769Y-75324489D01*
X162843850Y-75266112D01*
X162931825Y-75246653D01*
X163019308Y-75265867D01*
G37*
G36*
X161026791Y-73865040D02*
G01*
X160850213Y-73865040D01*
X160781113Y-73855816D01*
X160730627Y-73828143D01*
X160699742Y-73783340D01*
X160689448Y-73722723D01*
X160699825Y-73658977D01*
X160730957Y-73608738D01*
X160780372Y-73575794D01*
X160845601Y-73563934D01*
X161026791Y-73563934D01*
X161026791Y-73865040D01*
G37*
G36*
X158356094Y-73109531D02*
G01*
X164777544Y-73109531D01*
X165747906Y-76344069D01*
X159326456Y-76344069D01*
X159102015Y-75595934D01*
X159899492Y-75595934D01*
X159905560Y-75681183D01*
X159922518Y-75754496D01*
X159923766Y-75759891D01*
X159954108Y-75832058D01*
X159995497Y-75895795D01*
X160046842Y-75949212D01*
X160108145Y-75992309D01*
X160177259Y-76023995D01*
X160252043Y-76043182D01*
X160332495Y-76049868D01*
X160627487Y-76049868D01*
X160740644Y-76049868D01*
X160951259Y-76049868D01*
X161026791Y-75902401D01*
X161129824Y-75701241D01*
X161286150Y-75701241D01*
X161286150Y-76049868D01*
X161482375Y-76049868D01*
X161571330Y-76049868D01*
X161779983Y-76049868D01*
X161846045Y-75853643D01*
X162190093Y-75853643D01*
X162255502Y-76049868D01*
X162464155Y-76049868D01*
X162294933Y-75595280D01*
X162526293Y-75595280D01*
X162531816Y-75685180D01*
X162548386Y-75767376D01*
X162576003Y-75841869D01*
X162613903Y-75907132D01*
X162645646Y-75943618D01*
X162661325Y-75961639D01*
X162718266Y-76005390D01*
X162782984Y-76037368D01*
X162853734Y-76056554D01*
X162930516Y-76062950D01*
X163006608Y-76056627D01*
X163077031Y-76037658D01*
X163139802Y-76007012D01*
X163141785Y-76006044D01*
X163199054Y-75962693D01*
X163247020Y-75908513D01*
X163285684Y-75843504D01*
X163313961Y-75769920D01*
X163455746Y-75769920D01*
X163465484Y-75854079D01*
X163494700Y-75923412D01*
X163543393Y-75977919D01*
X163610110Y-76017309D01*
X163693396Y-76041292D01*
X163793253Y-76049868D01*
X164163464Y-76049868D01*
X164163464Y-75097522D01*
X163829882Y-75097522D01*
X163723629Y-75104898D01*
X163635982Y-75127028D01*
X163566940Y-75163911D01*
X163517157Y-75215039D01*
X163487287Y-75279902D01*
X163477330Y-75358501D01*
X163486324Y-75424318D01*
X163513305Y-75481796D01*
X163556311Y-75527991D01*
X163613380Y-75559959D01*
X163547890Y-75587594D01*
X163497934Y-75633871D01*
X163466293Y-75695682D01*
X163455746Y-75769920D01*
X163313961Y-75769920D01*
X163314100Y-75769557D01*
X163331324Y-75688559D01*
X163337357Y-75600512D01*
X163337357Y-75553418D01*
X163331724Y-75463409D01*
X163314827Y-75380885D01*
X163286665Y-75305848D01*
X163248219Y-75240076D01*
X163200471Y-75185351D01*
X163143421Y-75141672D01*
X163139802Y-75139892D01*
X163078775Y-75109877D01*
X163008243Y-75090799D01*
X162931825Y-75084440D01*
X162855406Y-75090799D01*
X162784874Y-75109877D01*
X162720228Y-75141672D01*
X162663178Y-75185351D01*
X162645646Y-75205445D01*
X162645646Y-75943618D01*
X162645646Y-75205445D01*
X162615430Y-75240076D01*
X162576984Y-75305848D01*
X162548822Y-75380813D01*
X162531925Y-75463118D01*
X162526293Y-75552764D01*
X162526293Y-75595280D01*
X162294933Y-75595280D01*
X162109641Y-75097522D01*
X161927806Y-75097522D01*
X161897164Y-75179384D01*
X161571330Y-76049868D01*
X161482375Y-76049868D01*
X161482375Y-75097522D01*
X161128515Y-75097522D01*
X161026791Y-75105703D01*
X161024589Y-75105880D01*
X160937814Y-75130953D01*
X160868190Y-75172741D01*
X160817317Y-75229792D01*
X160786793Y-75300651D01*
X160776618Y-75385319D01*
X160787165Y-75474683D01*
X160818807Y-75547859D01*
X160871869Y-75606317D01*
X160946680Y-75651531D01*
X160740644Y-76040711D01*
X160740644Y-76049868D01*
X160627487Y-76049868D01*
X160627487Y-75097522D01*
X160334458Y-75097522D01*
X160253678Y-75103808D01*
X160178786Y-75122668D01*
X160109780Y-75154100D01*
X160048550Y-75197124D01*
X159996987Y-75250759D01*
X159955089Y-75315005D01*
X159924202Y-75387717D01*
X159922518Y-75394899D01*
X159922518Y-75754496D01*
X159922518Y-75394899D01*
X159905669Y-75466752D01*
X159899492Y-75552110D01*
X159899492Y-75595934D01*
X159102015Y-75595934D01*
X158444383Y-73403828D01*
X159607576Y-73403828D01*
X159922518Y-74015263D01*
X159922518Y-74363149D01*
X160123474Y-74363149D01*
X160123474Y-74015263D01*
X160274836Y-73721405D01*
X160489809Y-73721405D01*
X160500534Y-73808779D01*
X160532709Y-73882903D01*
X160586334Y-73943776D01*
X160658920Y-73988982D01*
X160747978Y-74016105D01*
X160853507Y-74025147D01*
X161026791Y-74025147D01*
X161026791Y-74363149D01*
X161224454Y-74363149D01*
X161224454Y-73721405D01*
X161360182Y-73721405D01*
X161370907Y-73808779D01*
X161403082Y-73882903D01*
X161456707Y-73943776D01*
X161529293Y-73988982D01*
X161618351Y-74016105D01*
X161723880Y-74025147D01*
X161897164Y-74025147D01*
X161897164Y-74363149D01*
X162094827Y-74363149D01*
X162094827Y-73905231D01*
X162238461Y-73905231D01*
X162244025Y-73995790D01*
X162260717Y-74078589D01*
X162288536Y-74153627D01*
X162326714Y-74219368D01*
X162374482Y-74274274D01*
X162431841Y-74318346D01*
X162497033Y-74350557D01*
X162568301Y-74369884D01*
X162645646Y-74376327D01*
X162722295Y-74369958D01*
X162747574Y-74363149D01*
X163139802Y-74363149D01*
X163757167Y-74363149D01*
X163757167Y-73563934D01*
X163871811Y-73563934D01*
X164298762Y-73563934D01*
X164298762Y-73811671D01*
X163919250Y-73811671D01*
X163919250Y-73971119D01*
X164298762Y-73971119D01*
X164298762Y-74363149D01*
X164496424Y-74363149D01*
X164496424Y-73403828D01*
X163871811Y-73403828D01*
X163871811Y-73563934D01*
X163757167Y-73563934D01*
X163757167Y-73403828D01*
X163559505Y-73403828D01*
X163559505Y-74204360D01*
X163139802Y-74204360D01*
X163139802Y-74363149D01*
X162747574Y-74363149D01*
X162793234Y-74350850D01*
X162858462Y-74319005D01*
X162916151Y-74275336D01*
X162964468Y-74220759D01*
X163003415Y-74155274D01*
X163032039Y-74080785D01*
X163049390Y-73999194D01*
X163055466Y-73910502D01*
X163055466Y-73863063D01*
X163049792Y-73772395D01*
X163032771Y-73689267D01*
X163004403Y-73613679D01*
X162965676Y-73547426D01*
X162917578Y-73492300D01*
X162860110Y-73448302D01*
X162794991Y-73416273D01*
X162723942Y-73397056D01*
X162646964Y-73390650D01*
X162569985Y-73397056D01*
X162498937Y-73416273D01*
X162433818Y-73448302D01*
X162376349Y-73492300D01*
X162328251Y-73547426D01*
X162289524Y-73613679D01*
X162261156Y-73689194D01*
X162244135Y-73772102D01*
X162238461Y-73862405D01*
X162238461Y-73905231D01*
X162094827Y-73905231D01*
X162094827Y-73403828D01*
X161720586Y-73403828D01*
X161619037Y-73413711D01*
X161530501Y-73443360D01*
X161457942Y-73491211D01*
X161404326Y-73555698D01*
X161371218Y-73633528D01*
X161360182Y-73721405D01*
X161224454Y-73721405D01*
X161224454Y-73403828D01*
X160850213Y-73403828D01*
X160748664Y-73413711D01*
X160660128Y-73443360D01*
X160587569Y-73491211D01*
X160533953Y-73555698D01*
X160500845Y-73633528D01*
X160489809Y-73721405D01*
X160274836Y-73721405D01*
X160438416Y-73403828D01*
X160221647Y-73403828D01*
X160023325Y-73836050D01*
X159823686Y-73403828D01*
X159607576Y-73403828D01*
X158444383Y-73403828D01*
X158356094Y-73109531D01*
G37*
G36*
X160431262Y-75892234D02*
G01*
X160336420Y-75892234D01*
X160234873Y-75873429D01*
X160160471Y-75817014D01*
X160126532Y-75759673D01*
X160105819Y-75687942D01*
X160098333Y-75601820D01*
X160098333Y-75551456D01*
X160105019Y-75462464D01*
X160125078Y-75389098D01*
X160158509Y-75331357D01*
X160232584Y-75275187D01*
X160334458Y-75256464D01*
X160431262Y-75256464D01*
X160431262Y-75892234D01*
G37*
G36*
X163967239Y-75892234D02*
G01*
X163799140Y-75892234D01*
X163737411Y-75883976D01*
X163690889Y-75859202D01*
X163651971Y-75767958D01*
X163667015Y-75695064D01*
X163712147Y-75650804D01*
X163787366Y-75635179D01*
X163967239Y-75635179D01*
X163967239Y-75892234D01*
G37*
G36*
X163967239Y-75496513D02*
G01*
X163822033Y-75496513D01*
X163739545Y-75482196D01*
X163690053Y-75442733D01*
X163673556Y-75378124D01*
X163711165Y-75284917D01*
X163759649Y-75263577D01*
X163829882Y-75256464D01*
X163967239Y-75256464D01*
X163967239Y-75496513D01*
G37*
%TO.C,C9*%
X167251748Y-87352200D02*
X167774252Y-87352200D01*
X167251748Y-88822200D02*
X167774252Y-88822200D01*
%TD*%
M02*
