M48
; DRILL file {KiCad (6.0.8)} date Wed May  3 15:07:51 2023
; FORMAT={-:-/ absolute / inch / decimal}
; #@! TF.CreationDate,2023-05-03T15:07:51+02:00
; #@! TF.GenerationSoftware,Kicad,Pcbnew,(6.0.8)
; #@! TF.FileFunction,Plated,1,2,PTH
FMAT,2
INCH
; #@! TA.AperFunction,Plated,PTH,ViaDrill
T1C0.0079
; #@! TA.AperFunction,Plated,PTH,ComponentDrill
T2C0.0236
; #@! TA.AperFunction,Plated,PTH,ComponentDrill
T3C0.0394
%
G90
G05
T1
X6.004Y-3.472
X6.006Y-3.87
X6.055Y-3.57
X6.06Y-2.9
X6.06Y-3.11
X6.072Y-4.342
X6.09Y-3.91
X6.09Y-4.015
X6.09Y-4.105
X6.091Y-3.713
X6.102Y-3.57
X6.124Y-3.685
X6.155Y-3.659
X6.1628Y-4.114
X6.188Y-4.164
X6.193Y-3.839
X6.196Y-3.376
X6.2131Y-3.4811
X6.23Y-3.57
X6.244Y-3.29
X6.244Y-4.344
X6.2576Y-3.5204
X6.258Y-4.138
X6.28Y-3.907
X6.286Y-3.426
X6.311Y-3.107
X6.328Y-3.752
X6.3458Y-3.5114
X6.35Y-3.632
X6.352Y-3.572
X6.38Y-2.934
X6.38Y-4.15
X6.3804Y-4.0043
X6.3832Y-3.9343
X6.389Y-3.124
X6.3943Y-3.6183
X6.4113Y-3.944
X6.422Y-3.125
X6.4292Y-4.1372
X6.442Y-3.639
X6.446Y-3.107
X6.458Y-3.504
X6.465Y-4.315
X6.468Y-3.556
X6.482Y-3.8
X6.496Y-3.934
X6.506Y-4.1348
X6.534Y-3.8408
X6.538Y-3.328
X6.564Y-3.746
X6.64Y-3.28
X6.675Y-4.155
X6.679Y-3.51
X6.705Y-2.895
X6.705Y-3.02
X6.755Y-3.57
X6.755Y-3.67
X6.755Y-3.77
X6.755Y-3.87
X6.755Y-3.97
X6.755Y-4.07
X6.756Y-3.47
T3
X6.03Y-3.22
X6.03Y-3.32
X6.03Y-3.42
X6.03Y-3.52
X6.03Y-3.62
X6.03Y-3.72
X6.03Y-3.82
X6.03Y-3.92
X6.03Y-4.02
X6.03Y-4.12
X6.03Y-4.22
X6.4103Y-4.3676
X6.5103Y-4.3676
X6.6103Y-4.3676
X6.7103Y-4.3676
X6.73Y-3.12
X6.73Y-3.22
X6.73Y-3.32
X6.73Y-3.42
X6.73Y-3.52
X6.73Y-3.62
X6.73Y-3.72
X6.73Y-3.82
X6.73Y-3.92
X6.73Y-4.02
X6.73Y-4.12
X6.73Y-4.22
T2
G00X6.2101Y-2.8603
M15
G01X6.2101Y-2.8918
M16
G05
G00X6.2101Y-3.0189
M15
G01X6.2101Y-3.0622
M16
G05
G00X6.5503Y-2.8603
M15
G01X6.5503Y-2.8918
M16
G05
G00X6.5503Y-3.0189
M15
G01X6.5503Y-3.0622
M16
G05
T0
M30
