%TF.GenerationSoftware,KiCad,Pcbnew,(6.0.8)*%
%TF.CreationDate,2023-05-03T15:07:47+02:00*%
%TF.ProjectId,Floppy Board v3.1,466c6f70-7079-4204-926f-617264207633,3.0*%
%TF.SameCoordinates,Original*%
%TF.FileFunction,Paste,Bot*%
%TF.FilePolarity,Positive*%
%FSLAX46Y46*%
G04 Gerber Fmt 4.6, Leading zero omitted, Abs format (unit mm)*
G04 Created by KiCad (PCBNEW (6.0.8)) date 2023-05-03 15:07:47*
%MOMM*%
%LPD*%
G01*
G04 APERTURE LIST*
G04 Aperture macros list*
%AMRoundRect*
0 Rectangle with rounded corners*
0 $1 Rounding radius*
0 $2 $3 $4 $5 $6 $7 $8 $9 X,Y pos of 4 corners*
0 Add a 4 corners polygon primitive as box body*
4,1,4,$2,$3,$4,$5,$6,$7,$8,$9,$2,$3,0*
0 Add four circle primitives for the rounded corners*
1,1,$1+$1,$2,$3*
1,1,$1+$1,$4,$5*
1,1,$1+$1,$6,$7*
1,1,$1+$1,$8,$9*
0 Add four rect primitives between the rounded corners*
20,1,$1+$1,$2,$3,$4,$5,0*
20,1,$1+$1,$4,$5,$6,$7,0*
20,1,$1+$1,$6,$7,$8,$9,0*
20,1,$1+$1,$8,$9,$2,$3,0*%
G04 Aperture macros list end*
%ADD10RoundRect,0.250000X-0.450000X0.350000X-0.450000X-0.350000X0.450000X-0.350000X0.450000X0.350000X0*%
%ADD11RoundRect,0.150000X0.150000X-0.675000X0.150000X0.675000X-0.150000X0.675000X-0.150000X-0.675000X0*%
%ADD12RoundRect,0.250000X-0.337500X-0.475000X0.337500X-0.475000X0.337500X0.475000X-0.337500X0.475000X0*%
%ADD13R,1.200000X0.900000*%
%ADD14R,0.900000X1.200000*%
%ADD15RoundRect,0.150000X-0.150000X0.675000X-0.150000X-0.675000X0.150000X-0.675000X0.150000X0.675000X0*%
%ADD16RoundRect,0.250000X0.450000X-0.350000X0.450000X0.350000X-0.450000X0.350000X-0.450000X-0.350000X0*%
%ADD17R,1.100000X1.100000*%
G04 APERTURE END LIST*
D10*
%TO.C,R1*%
X165735000Y-101235000D03*
X165735000Y-103235000D03*
%TD*%
D11*
%TO.C,U2*%
X163830000Y-103082000D03*
X162560000Y-103082000D03*
X161290000Y-103082000D03*
X160020000Y-103082000D03*
X160020000Y-97832000D03*
X161290000Y-97832000D03*
X162560000Y-97832000D03*
X163830000Y-97832000D03*
%TD*%
D10*
%TO.C,R2*%
X155956000Y-101235000D03*
X155956000Y-103235000D03*
%TD*%
D12*
%TO.C,C8*%
X166475500Y-90119200D03*
X168550500Y-90119200D03*
%TD*%
%TO.C,C3*%
X164214900Y-106476800D03*
X166289900Y-106476800D03*
%TD*%
D13*
%TO.C,D1*%
X167843200Y-85114400D03*
X167843200Y-81814400D03*
%TD*%
D14*
%TO.C,D5*%
X159180800Y-85750400D03*
X155880800Y-85750400D03*
%TD*%
D15*
%TO.C,U4*%
X160909000Y-81652200D03*
X162179000Y-81652200D03*
X163449000Y-81652200D03*
X164719000Y-81652200D03*
X164719000Y-86902200D03*
X163449000Y-86902200D03*
X162179000Y-86902200D03*
X160909000Y-86902200D03*
%TD*%
D16*
%TO.C,R7*%
X168097200Y-78673200D03*
X168097200Y-76673200D03*
%TD*%
D10*
%TO.C,R6*%
X156006800Y-76673200D03*
X156006800Y-78673200D03*
%TD*%
D16*
%TO.C,R3*%
X158115000Y-103235000D03*
X158115000Y-101235000D03*
%TD*%
D17*
%TO.C,D3*%
X156130800Y-88392000D03*
X158930800Y-88392000D03*
%TD*%
D12*
%TO.C,C9*%
X166475500Y-88087200D03*
X168550500Y-88087200D03*
%TD*%
M02*
