%TF.GenerationSoftware,KiCad,Pcbnew,(6.0.8)*%
%TF.CreationDate,2023-05-03T14:57:19+02:00*%
%TF.ProjectId,Floppy Board v3.1,466c6f70-7079-4204-926f-617264207633,3.0*%
%TF.SameCoordinates,Original*%
%TF.FileFunction,Soldermask,Bot*%
%TF.FilePolarity,Negative*%
%FSLAX46Y46*%
G04 Gerber Fmt 4.6, Leading zero omitted, Abs format (unit mm)*
G04 Created by KiCad (PCBNEW (6.0.8)) date 2023-05-03 14:57:19*
%MOMM*%
%LPD*%
G01*
G04 APERTURE LIST*
G04 Aperture macros list*
%AMRoundRect*
0 Rectangle with rounded corners*
0 $1 Rounding radius*
0 $2 $3 $4 $5 $6 $7 $8 $9 X,Y pos of 4 corners*
0 Add a 4 corners polygon primitive as box body*
4,1,4,$2,$3,$4,$5,$6,$7,$8,$9,$2,$3,0*
0 Add four circle primitives for the rounded corners*
1,1,$1+$1,$2,$3*
1,1,$1+$1,$4,$5*
1,1,$1+$1,$6,$7*
1,1,$1+$1,$8,$9*
0 Add four rect primitives between the rounded corners*
20,1,$1+$1,$2,$3,$4,$5,0*
20,1,$1+$1,$4,$5,$6,$7,0*
20,1,$1+$1,$6,$7,$8,$9,0*
20,1,$1+$1,$8,$9,$2,$3,0*%
%AMFreePoly0*
4,1,22,0.500000,-0.750000,0.000000,-0.750000,0.000000,-0.745033,-0.079941,-0.743568,-0.215256,-0.701293,-0.333266,-0.622738,-0.424486,-0.514219,-0.481581,-0.384460,-0.499164,-0.250000,-0.500000,-0.250000,-0.500000,0.250000,-0.499164,0.250000,-0.499963,0.256109,-0.478152,0.396186,-0.417904,0.524511,-0.324060,0.630769,-0.204165,0.706417,-0.067858,0.745374,0.000000,0.744959,0.000000,0.750000,
0.500000,0.750000,0.500000,-0.750000,0.500000,-0.750000,$1*%
%AMFreePoly1*
4,1,20,0.000000,0.744959,0.073905,0.744508,0.209726,0.703889,0.328688,0.626782,0.421226,0.519385,0.479903,0.390333,0.500000,0.250000,0.500000,-0.250000,0.499851,-0.262216,0.476331,-0.402017,0.414519,-0.529596,0.319384,-0.634700,0.198574,-0.708877,0.061801,-0.746166,0.000000,-0.745033,0.000000,-0.750000,-0.500000,-0.750000,-0.500000,0.750000,0.000000,0.750000,0.000000,0.744959,
0.000000,0.744959,$1*%
G04 Aperture macros list end*
%ADD10C,0.500000*%
%ADD11R,1.200000X0.900000*%
%ADD12RoundRect,0.250000X0.450000X-0.350000X0.450000X0.350000X-0.450000X0.350000X-0.450000X-0.350000X0*%
%ADD13R,0.900000X1.200000*%
%ADD14FreePoly0,90.000000*%
%ADD15FreePoly1,90.000000*%
%ADD16RoundRect,0.250000X-0.337500X-0.475000X0.337500X-0.475000X0.337500X0.475000X-0.337500X0.475000X0*%
%ADD17RoundRect,0.250000X-0.450000X0.350000X-0.450000X-0.350000X0.450000X-0.350000X0.450000X0.350000X0*%
%ADD18R,1.100000X1.100000*%
%ADD19R,1.700000X1.700000*%
%ADD20O,1.700000X1.700000*%
%ADD21RoundRect,0.150000X-0.150000X0.675000X-0.150000X-0.675000X0.150000X-0.675000X0.150000X0.675000X0*%
%ADD22RoundRect,0.150000X0.150000X-0.675000X0.150000X0.675000X-0.150000X0.675000X-0.150000X-0.675000X0*%
%ADD23C,0.650000*%
%ADD24O,1.000000X2.100000*%
%ADD25O,1.000000X1.800000*%
G04 APERTURE END LIST*
D10*
%TO.C,mouse-bite-2mm-slot*%
X150062000Y-126058000D03*
X151562000Y-126058000D03*
X150062000Y-127558000D03*
X151562000Y-127558000D03*
X151562000Y-126808000D03*
X150062000Y-126808000D03*
%TD*%
%TO.C,mouse-bite-2mm-slot*%
X150062000Y-106558000D03*
X151562000Y-106558000D03*
X150062000Y-105058000D03*
X151562000Y-105058000D03*
X151562000Y-105808000D03*
X150062000Y-105808000D03*
%TD*%
%TO.C,mouse-bite-2mm-slot*%
X127562000Y-126058000D03*
X129062000Y-126058000D03*
X127562000Y-127558000D03*
X129062000Y-127558000D03*
X129062000Y-126808000D03*
X127562000Y-126808000D03*
%TD*%
%TO.C,mouse-bite-2mm-slot*%
X127562000Y-106558000D03*
X129062000Y-106558000D03*
X127562000Y-105058000D03*
X129062000Y-105058000D03*
X129062000Y-105808000D03*
X127562000Y-105808000D03*
%TD*%
%TO.C,mouse-bite-2mm-slot*%
X150062000Y-83058000D03*
X151562000Y-83058000D03*
X150062000Y-84558000D03*
X151562000Y-84558000D03*
X151562000Y-83808000D03*
X150062000Y-83808000D03*
%TD*%
%TO.C,mouse-bite-2mm-slot*%
X150062000Y-63558000D03*
X151562000Y-63558000D03*
X150062000Y-62058000D03*
X151562000Y-62058000D03*
X151562000Y-62808000D03*
X150062000Y-62808000D03*
%TD*%
%TO.C,mouse-bite-2mm-slot*%
X127562000Y-83058000D03*
X129062000Y-83058000D03*
X127562000Y-84558000D03*
X129062000Y-84558000D03*
X129062000Y-83808000D03*
X127562000Y-83808000D03*
%TD*%
%TO.C,mouse-bite-2mm-slot*%
X127562000Y-63558000D03*
X129062000Y-63558000D03*
X127562000Y-62058000D03*
X129062000Y-62058000D03*
X129062000Y-62808000D03*
X127562000Y-62808000D03*
%TD*%
%TO.C,mouse-bite-2mm-slot*%
X161312000Y-51058000D03*
X161312000Y-52558000D03*
X162812000Y-51058000D03*
X162812000Y-52558000D03*
X162062000Y-52558000D03*
X162062000Y-51058000D03*
%TD*%
%TO.C,mouse-bite-2mm-slot*%
X138812000Y-51058000D03*
X138812000Y-52558000D03*
X140312000Y-51058000D03*
X140312000Y-52558000D03*
X139562000Y-52558000D03*
X139562000Y-51058000D03*
%TD*%
%TO.C,mouse-bite-2mm-slot*%
X116312000Y-51058000D03*
X116312000Y-52558000D03*
X117812000Y-51058000D03*
X117812000Y-52558000D03*
X117062000Y-52558000D03*
X117062000Y-51058000D03*
%TD*%
%TO.C,mouse-bite-2mm-slot*%
X161312000Y-94058000D03*
X161312000Y-95558000D03*
X162812000Y-94058000D03*
X162812000Y-95558000D03*
X162062000Y-95558000D03*
X162062000Y-94058000D03*
%TD*%
%TO.C,mouse-bite-2mm-slot*%
X138812000Y-94058000D03*
X138812000Y-95558000D03*
X140312000Y-94058000D03*
X140312000Y-95558000D03*
X139562000Y-95558000D03*
X139562000Y-94058000D03*
%TD*%
%TO.C,mouse-bite-2mm-slot*%
X116312000Y-94058000D03*
X116312000Y-95558000D03*
X117812000Y-94058000D03*
X117812000Y-95558000D03*
X117062000Y-95558000D03*
X117062000Y-94058000D03*
%TD*%
%TO.C,mouse-bite-2mm-slot*%
X161312000Y-137058000D03*
X161312000Y-138558000D03*
X162812000Y-137058000D03*
X162812000Y-138558000D03*
X162062000Y-138558000D03*
X162062000Y-137058000D03*
%TD*%
%TO.C,mouse-bite-2mm-slot*%
X138812000Y-137058000D03*
X138812000Y-138558000D03*
X140312000Y-137058000D03*
X140312000Y-138558000D03*
X139562000Y-138558000D03*
X139562000Y-137058000D03*
%TD*%
%TO.C,mouse-bite-2mm-slot*%
X117812000Y-137058000D03*
X117062000Y-137058000D03*
X116312000Y-138558000D03*
X117812000Y-138558000D03*
X116312000Y-137058000D03*
X117062000Y-138558000D03*
%TD*%
D11*
%TO.C,D1*%
X167843200Y-109114400D03*
X167843200Y-105814400D03*
%TD*%
D12*
%TO.C,R3*%
X158115000Y-127235000D03*
X158115000Y-125235000D03*
%TD*%
%TO.C,R7*%
X168097200Y-102673200D03*
X168097200Y-100673200D03*
%TD*%
D13*
%TO.C,D5*%
X159180800Y-109750400D03*
X155880800Y-109750400D03*
%TD*%
D14*
%TO.C,JP1*%
X159385000Y-118884000D03*
D15*
X159385000Y-117584000D03*
%TD*%
D14*
%TO.C,JP3*%
X164719000Y-118884000D03*
D15*
X164719000Y-117584000D03*
%TD*%
D14*
%TO.C,JP2*%
X162052000Y-118884000D03*
D15*
X162052000Y-117584000D03*
%TD*%
D16*
%TO.C,C3*%
X164214900Y-130476800D03*
X166289900Y-130476800D03*
%TD*%
D17*
%TO.C,R6*%
X156006800Y-100673200D03*
X156006800Y-102673200D03*
%TD*%
D16*
%TO.C,C8*%
X166475500Y-114119200D03*
X168550500Y-114119200D03*
%TD*%
D18*
%TO.C,D3*%
X156130800Y-112392000D03*
X158930800Y-112392000D03*
%TD*%
D19*
%TO.C,J3*%
X153162000Y-105788000D03*
D20*
X153162000Y-108328000D03*
X153162000Y-110868000D03*
X153162000Y-113408000D03*
X153162000Y-115948000D03*
X153162000Y-118488000D03*
X153162000Y-121028000D03*
X153162000Y-123568000D03*
X153162000Y-126108000D03*
X153162000Y-128648000D03*
X153162000Y-131188000D03*
%TD*%
D21*
%TO.C,U4*%
X160909000Y-105652200D03*
X162179000Y-105652200D03*
X163449000Y-105652200D03*
X164719000Y-105652200D03*
X164719000Y-110902200D03*
X163449000Y-110902200D03*
X162179000Y-110902200D03*
X160909000Y-110902200D03*
%TD*%
D16*
%TO.C,C9*%
X166475500Y-112087200D03*
X168550500Y-112087200D03*
%TD*%
D17*
%TO.C,R1*%
X165735000Y-125235000D03*
X165735000Y-127235000D03*
%TD*%
D19*
%TO.C,J4*%
X170942000Y-131188000D03*
D20*
X170942000Y-128648000D03*
X170942000Y-126108000D03*
X170942000Y-123568000D03*
X170942000Y-121028000D03*
X170942000Y-118488000D03*
X170942000Y-115948000D03*
X170942000Y-113408000D03*
X170942000Y-110868000D03*
X170942000Y-108328000D03*
X170942000Y-105788000D03*
X170942000Y-103248000D03*
%TD*%
D19*
%TO.C,J1*%
X162822000Y-134938000D03*
D20*
X165362000Y-134938000D03*
X167902000Y-134938000D03*
X170442000Y-134938000D03*
%TD*%
D17*
%TO.C,R2*%
X155956000Y-125235000D03*
X155956000Y-127235000D03*
%TD*%
D22*
%TO.C,U2*%
X163830000Y-127082000D03*
X162560000Y-127082000D03*
X161290000Y-127082000D03*
X160020000Y-127082000D03*
X160020000Y-121832000D03*
X161290000Y-121832000D03*
X162560000Y-121832000D03*
X163830000Y-121832000D03*
%TD*%
D23*
%TO.C,J2*%
X164947000Y-100730500D03*
X159167000Y-100730500D03*
D24*
X157737000Y-101230500D03*
D25*
X157737000Y-97050500D03*
D24*
X166377000Y-101230500D03*
D25*
X166377000Y-97050500D03*
%TD*%
D11*
%TO.C,D1*%
X167843200Y-66114400D03*
X167843200Y-62814400D03*
%TD*%
D12*
%TO.C,R3*%
X158115000Y-84235000D03*
X158115000Y-82235000D03*
%TD*%
%TO.C,R7*%
X168097200Y-59673200D03*
X168097200Y-57673200D03*
%TD*%
D13*
%TO.C,D5*%
X159180800Y-66750400D03*
X155880800Y-66750400D03*
%TD*%
D14*
%TO.C,JP1*%
X159385000Y-75884000D03*
D15*
X159385000Y-74584000D03*
%TD*%
D14*
%TO.C,JP3*%
X164719000Y-75884000D03*
D15*
X164719000Y-74584000D03*
%TD*%
D14*
%TO.C,JP2*%
X162052000Y-75884000D03*
D15*
X162052000Y-74584000D03*
%TD*%
D16*
%TO.C,C3*%
X164214900Y-87476800D03*
X166289900Y-87476800D03*
%TD*%
D17*
%TO.C,R6*%
X156006800Y-57673200D03*
X156006800Y-59673200D03*
%TD*%
D16*
%TO.C,C8*%
X166475500Y-71119200D03*
X168550500Y-71119200D03*
%TD*%
D18*
%TO.C,D3*%
X156130800Y-69392000D03*
X158930800Y-69392000D03*
%TD*%
D19*
%TO.C,J3*%
X153162000Y-62788000D03*
D20*
X153162000Y-65328000D03*
X153162000Y-67868000D03*
X153162000Y-70408000D03*
X153162000Y-72948000D03*
X153162000Y-75488000D03*
X153162000Y-78028000D03*
X153162000Y-80568000D03*
X153162000Y-83108000D03*
X153162000Y-85648000D03*
X153162000Y-88188000D03*
%TD*%
D21*
%TO.C,U4*%
X160909000Y-62652200D03*
X162179000Y-62652200D03*
X163449000Y-62652200D03*
X164719000Y-62652200D03*
X164719000Y-67902200D03*
X163449000Y-67902200D03*
X162179000Y-67902200D03*
X160909000Y-67902200D03*
%TD*%
D16*
%TO.C,C9*%
X166475500Y-69087200D03*
X168550500Y-69087200D03*
%TD*%
D17*
%TO.C,R1*%
X165735000Y-82235000D03*
X165735000Y-84235000D03*
%TD*%
D19*
%TO.C,J4*%
X170942000Y-88188000D03*
D20*
X170942000Y-85648000D03*
X170942000Y-83108000D03*
X170942000Y-80568000D03*
X170942000Y-78028000D03*
X170942000Y-75488000D03*
X170942000Y-72948000D03*
X170942000Y-70408000D03*
X170942000Y-67868000D03*
X170942000Y-65328000D03*
X170942000Y-62788000D03*
X170942000Y-60248000D03*
%TD*%
D19*
%TO.C,J1*%
X162822000Y-91938000D03*
D20*
X165362000Y-91938000D03*
X167902000Y-91938000D03*
X170442000Y-91938000D03*
%TD*%
D17*
%TO.C,R2*%
X155956000Y-82235000D03*
X155956000Y-84235000D03*
%TD*%
D22*
%TO.C,U2*%
X163830000Y-84082000D03*
X162560000Y-84082000D03*
X161290000Y-84082000D03*
X160020000Y-84082000D03*
X160020000Y-78832000D03*
X161290000Y-78832000D03*
X162560000Y-78832000D03*
X163830000Y-78832000D03*
%TD*%
D23*
%TO.C,J2*%
X164947000Y-57730500D03*
X159167000Y-57730500D03*
D24*
X157737000Y-58230500D03*
D25*
X157737000Y-54050500D03*
D24*
X166377000Y-58230500D03*
D25*
X166377000Y-54050500D03*
%TD*%
D11*
%TO.C,D1*%
X145343200Y-109114400D03*
X145343200Y-105814400D03*
%TD*%
D12*
%TO.C,R3*%
X135615000Y-127235000D03*
X135615000Y-125235000D03*
%TD*%
%TO.C,R7*%
X145597200Y-102673200D03*
X145597200Y-100673200D03*
%TD*%
D13*
%TO.C,D5*%
X136680800Y-109750400D03*
X133380800Y-109750400D03*
%TD*%
D14*
%TO.C,JP1*%
X136885000Y-118884000D03*
D15*
X136885000Y-117584000D03*
%TD*%
D14*
%TO.C,JP3*%
X142219000Y-118884000D03*
D15*
X142219000Y-117584000D03*
%TD*%
D14*
%TO.C,JP2*%
X139552000Y-118884000D03*
D15*
X139552000Y-117584000D03*
%TD*%
D16*
%TO.C,C3*%
X141714900Y-130476800D03*
X143789900Y-130476800D03*
%TD*%
D17*
%TO.C,R6*%
X133506800Y-100673200D03*
X133506800Y-102673200D03*
%TD*%
D16*
%TO.C,C8*%
X143975500Y-114119200D03*
X146050500Y-114119200D03*
%TD*%
D18*
%TO.C,D3*%
X133630800Y-112392000D03*
X136430800Y-112392000D03*
%TD*%
D19*
%TO.C,J3*%
X130662000Y-105788000D03*
D20*
X130662000Y-108328000D03*
X130662000Y-110868000D03*
X130662000Y-113408000D03*
X130662000Y-115948000D03*
X130662000Y-118488000D03*
X130662000Y-121028000D03*
X130662000Y-123568000D03*
X130662000Y-126108000D03*
X130662000Y-128648000D03*
X130662000Y-131188000D03*
%TD*%
D21*
%TO.C,U4*%
X138409000Y-105652200D03*
X139679000Y-105652200D03*
X140949000Y-105652200D03*
X142219000Y-105652200D03*
X142219000Y-110902200D03*
X140949000Y-110902200D03*
X139679000Y-110902200D03*
X138409000Y-110902200D03*
%TD*%
D16*
%TO.C,C9*%
X143975500Y-112087200D03*
X146050500Y-112087200D03*
%TD*%
D17*
%TO.C,R1*%
X143235000Y-125235000D03*
X143235000Y-127235000D03*
%TD*%
D19*
%TO.C,J4*%
X148442000Y-131188000D03*
D20*
X148442000Y-128648000D03*
X148442000Y-126108000D03*
X148442000Y-123568000D03*
X148442000Y-121028000D03*
X148442000Y-118488000D03*
X148442000Y-115948000D03*
X148442000Y-113408000D03*
X148442000Y-110868000D03*
X148442000Y-108328000D03*
X148442000Y-105788000D03*
X148442000Y-103248000D03*
%TD*%
D19*
%TO.C,J1*%
X140322000Y-134938000D03*
D20*
X142862000Y-134938000D03*
X145402000Y-134938000D03*
X147942000Y-134938000D03*
%TD*%
D17*
%TO.C,R2*%
X133456000Y-125235000D03*
X133456000Y-127235000D03*
%TD*%
D22*
%TO.C,U2*%
X141330000Y-127082000D03*
X140060000Y-127082000D03*
X138790000Y-127082000D03*
X137520000Y-127082000D03*
X137520000Y-121832000D03*
X138790000Y-121832000D03*
X140060000Y-121832000D03*
X141330000Y-121832000D03*
%TD*%
D23*
%TO.C,J2*%
X142447000Y-100730500D03*
X136667000Y-100730500D03*
D24*
X135237000Y-101230500D03*
D25*
X135237000Y-97050500D03*
D24*
X143877000Y-101230500D03*
D25*
X143877000Y-97050500D03*
%TD*%
D11*
%TO.C,D1*%
X145343200Y-66114400D03*
X145343200Y-62814400D03*
%TD*%
D12*
%TO.C,R3*%
X135615000Y-84235000D03*
X135615000Y-82235000D03*
%TD*%
%TO.C,R7*%
X145597200Y-59673200D03*
X145597200Y-57673200D03*
%TD*%
D13*
%TO.C,D5*%
X136680800Y-66750400D03*
X133380800Y-66750400D03*
%TD*%
D14*
%TO.C,JP1*%
X136885000Y-75884000D03*
D15*
X136885000Y-74584000D03*
%TD*%
D14*
%TO.C,JP3*%
X142219000Y-75884000D03*
D15*
X142219000Y-74584000D03*
%TD*%
D14*
%TO.C,JP2*%
X139552000Y-75884000D03*
D15*
X139552000Y-74584000D03*
%TD*%
D16*
%TO.C,C3*%
X141714900Y-87476800D03*
X143789900Y-87476800D03*
%TD*%
D17*
%TO.C,R6*%
X133506800Y-57673200D03*
X133506800Y-59673200D03*
%TD*%
D16*
%TO.C,C8*%
X143975500Y-71119200D03*
X146050500Y-71119200D03*
%TD*%
D18*
%TO.C,D3*%
X133630800Y-69392000D03*
X136430800Y-69392000D03*
%TD*%
D19*
%TO.C,J3*%
X130662000Y-62788000D03*
D20*
X130662000Y-65328000D03*
X130662000Y-67868000D03*
X130662000Y-70408000D03*
X130662000Y-72948000D03*
X130662000Y-75488000D03*
X130662000Y-78028000D03*
X130662000Y-80568000D03*
X130662000Y-83108000D03*
X130662000Y-85648000D03*
X130662000Y-88188000D03*
%TD*%
D21*
%TO.C,U4*%
X138409000Y-62652200D03*
X139679000Y-62652200D03*
X140949000Y-62652200D03*
X142219000Y-62652200D03*
X142219000Y-67902200D03*
X140949000Y-67902200D03*
X139679000Y-67902200D03*
X138409000Y-67902200D03*
%TD*%
D16*
%TO.C,C9*%
X143975500Y-69087200D03*
X146050500Y-69087200D03*
%TD*%
D17*
%TO.C,R1*%
X143235000Y-82235000D03*
X143235000Y-84235000D03*
%TD*%
D19*
%TO.C,J4*%
X148442000Y-88188000D03*
D20*
X148442000Y-85648000D03*
X148442000Y-83108000D03*
X148442000Y-80568000D03*
X148442000Y-78028000D03*
X148442000Y-75488000D03*
X148442000Y-72948000D03*
X148442000Y-70408000D03*
X148442000Y-67868000D03*
X148442000Y-65328000D03*
X148442000Y-62788000D03*
X148442000Y-60248000D03*
%TD*%
D19*
%TO.C,J1*%
X140322000Y-91938000D03*
D20*
X142862000Y-91938000D03*
X145402000Y-91938000D03*
X147942000Y-91938000D03*
%TD*%
D17*
%TO.C,R2*%
X133456000Y-82235000D03*
X133456000Y-84235000D03*
%TD*%
D22*
%TO.C,U2*%
X141330000Y-84082000D03*
X140060000Y-84082000D03*
X138790000Y-84082000D03*
X137520000Y-84082000D03*
X137520000Y-78832000D03*
X138790000Y-78832000D03*
X140060000Y-78832000D03*
X141330000Y-78832000D03*
%TD*%
D23*
%TO.C,J2*%
X142447000Y-57730500D03*
X136667000Y-57730500D03*
D24*
X135237000Y-58230500D03*
D25*
X135237000Y-54050500D03*
D24*
X143877000Y-58230500D03*
D25*
X143877000Y-54050500D03*
%TD*%
D11*
%TO.C,D1*%
X122843200Y-109114400D03*
X122843200Y-105814400D03*
%TD*%
D12*
%TO.C,R3*%
X113115000Y-127235000D03*
X113115000Y-125235000D03*
%TD*%
%TO.C,R7*%
X123097200Y-102673200D03*
X123097200Y-100673200D03*
%TD*%
D13*
%TO.C,D5*%
X114180800Y-109750400D03*
X110880800Y-109750400D03*
%TD*%
D14*
%TO.C,JP1*%
X114385000Y-118884000D03*
D15*
X114385000Y-117584000D03*
%TD*%
D14*
%TO.C,JP3*%
X119719000Y-118884000D03*
D15*
X119719000Y-117584000D03*
%TD*%
D14*
%TO.C,JP2*%
X117052000Y-118884000D03*
D15*
X117052000Y-117584000D03*
%TD*%
D16*
%TO.C,C3*%
X119214900Y-130476800D03*
X121289900Y-130476800D03*
%TD*%
D17*
%TO.C,R6*%
X111006800Y-100673200D03*
X111006800Y-102673200D03*
%TD*%
D16*
%TO.C,C8*%
X121475500Y-114119200D03*
X123550500Y-114119200D03*
%TD*%
D18*
%TO.C,D3*%
X111130800Y-112392000D03*
X113930800Y-112392000D03*
%TD*%
D19*
%TO.C,J3*%
X108162000Y-105788000D03*
D20*
X108162000Y-108328000D03*
X108162000Y-110868000D03*
X108162000Y-113408000D03*
X108162000Y-115948000D03*
X108162000Y-118488000D03*
X108162000Y-121028000D03*
X108162000Y-123568000D03*
X108162000Y-126108000D03*
X108162000Y-128648000D03*
X108162000Y-131188000D03*
%TD*%
D21*
%TO.C,U4*%
X115909000Y-105652200D03*
X117179000Y-105652200D03*
X118449000Y-105652200D03*
X119719000Y-105652200D03*
X119719000Y-110902200D03*
X118449000Y-110902200D03*
X117179000Y-110902200D03*
X115909000Y-110902200D03*
%TD*%
D16*
%TO.C,C9*%
X121475500Y-112087200D03*
X123550500Y-112087200D03*
%TD*%
D17*
%TO.C,R1*%
X120735000Y-125235000D03*
X120735000Y-127235000D03*
%TD*%
D19*
%TO.C,J4*%
X125942000Y-131188000D03*
D20*
X125942000Y-128648000D03*
X125942000Y-126108000D03*
X125942000Y-123568000D03*
X125942000Y-121028000D03*
X125942000Y-118488000D03*
X125942000Y-115948000D03*
X125942000Y-113408000D03*
X125942000Y-110868000D03*
X125942000Y-108328000D03*
X125942000Y-105788000D03*
X125942000Y-103248000D03*
%TD*%
D19*
%TO.C,J1*%
X117822000Y-134938000D03*
D20*
X120362000Y-134938000D03*
X122902000Y-134938000D03*
X125442000Y-134938000D03*
%TD*%
D17*
%TO.C,R2*%
X110956000Y-125235000D03*
X110956000Y-127235000D03*
%TD*%
D22*
%TO.C,U2*%
X118830000Y-127082000D03*
X117560000Y-127082000D03*
X116290000Y-127082000D03*
X115020000Y-127082000D03*
X115020000Y-121832000D03*
X116290000Y-121832000D03*
X117560000Y-121832000D03*
X118830000Y-121832000D03*
%TD*%
D23*
%TO.C,J2*%
X119947000Y-100730500D03*
X114167000Y-100730500D03*
D24*
X112737000Y-101230500D03*
D25*
X112737000Y-97050500D03*
D24*
X121377000Y-101230500D03*
D25*
X121377000Y-97050500D03*
%TD*%
D19*
%TO.C,J1*%
X117822000Y-91938000D03*
D20*
X120362000Y-91938000D03*
X122902000Y-91938000D03*
X125442000Y-91938000D03*
%TD*%
D23*
%TO.C,J2*%
X119947000Y-57730500D03*
X114167000Y-57730500D03*
D24*
X112737000Y-58230500D03*
D25*
X112737000Y-54050500D03*
D24*
X121377000Y-58230500D03*
D25*
X121377000Y-54050500D03*
%TD*%
D19*
%TO.C,J4*%
X125942000Y-88188000D03*
D20*
X125942000Y-85648000D03*
X125942000Y-83108000D03*
X125942000Y-80568000D03*
X125942000Y-78028000D03*
X125942000Y-75488000D03*
X125942000Y-72948000D03*
X125942000Y-70408000D03*
X125942000Y-67868000D03*
X125942000Y-65328000D03*
X125942000Y-62788000D03*
X125942000Y-60248000D03*
%TD*%
D17*
%TO.C,R1*%
X120735000Y-82235000D03*
X120735000Y-84235000D03*
%TD*%
D22*
%TO.C,U2*%
X118830000Y-84082000D03*
X117560000Y-84082000D03*
X116290000Y-84082000D03*
X115020000Y-84082000D03*
X115020000Y-78832000D03*
X116290000Y-78832000D03*
X117560000Y-78832000D03*
X118830000Y-78832000D03*
%TD*%
D17*
%TO.C,R2*%
X110956000Y-82235000D03*
X110956000Y-84235000D03*
%TD*%
D14*
%TO.C,JP1*%
X114385000Y-75884000D03*
D15*
X114385000Y-74584000D03*
%TD*%
D16*
%TO.C,C8*%
X121475500Y-71119200D03*
X123550500Y-71119200D03*
%TD*%
%TO.C,C3*%
X119214900Y-87476800D03*
X121289900Y-87476800D03*
%TD*%
D11*
%TO.C,D1*%
X122843200Y-66114400D03*
X122843200Y-62814400D03*
%TD*%
D13*
%TO.C,D5*%
X114180800Y-66750400D03*
X110880800Y-66750400D03*
%TD*%
D21*
%TO.C,U4*%
X115909000Y-62652200D03*
X117179000Y-62652200D03*
X118449000Y-62652200D03*
X119719000Y-62652200D03*
X119719000Y-67902200D03*
X118449000Y-67902200D03*
X117179000Y-67902200D03*
X115909000Y-67902200D03*
%TD*%
D12*
%TO.C,R7*%
X123097200Y-59673200D03*
X123097200Y-57673200D03*
%TD*%
D17*
%TO.C,R6*%
X111006800Y-57673200D03*
X111006800Y-59673200D03*
%TD*%
D14*
%TO.C,JP2*%
X117052000Y-75884000D03*
D15*
X117052000Y-74584000D03*
%TD*%
D12*
%TO.C,R3*%
X113115000Y-84235000D03*
X113115000Y-82235000D03*
%TD*%
D18*
%TO.C,D3*%
X111130800Y-69392000D03*
X113930800Y-69392000D03*
%TD*%
D19*
%TO.C,J3*%
X108162000Y-62788000D03*
D20*
X108162000Y-65328000D03*
X108162000Y-67868000D03*
X108162000Y-70408000D03*
X108162000Y-72948000D03*
X108162000Y-75488000D03*
X108162000Y-78028000D03*
X108162000Y-80568000D03*
X108162000Y-83108000D03*
X108162000Y-85648000D03*
X108162000Y-88188000D03*
%TD*%
D14*
%TO.C,JP3*%
X119719000Y-75884000D03*
D15*
X119719000Y-74584000D03*
%TD*%
D16*
%TO.C,C9*%
X121475500Y-69087200D03*
X123550500Y-69087200D03*
%TD*%
M02*
