%TF.GenerationSoftware,KiCad,Pcbnew,(6.0.8)*%
%TF.CreationDate,2023-05-03T14:57:22+02:00*%
%TF.ProjectId,Floppy Board v3.1,466c6f70-7079-4204-926f-617264207633,3.0*%
%TF.SameCoordinates,Original*%
%TF.FileFunction,Drillmap*%
%TF.FilePolarity,Positive*%
%FSLAX45Y45*%
G04 Gerber Fmt 4.5, Leading zero omitted, Abs format (unit mm)*
G04 Created by KiCad (PCBNEW (6.0.8)) date 2023-05-03 14:57:22*
%MOMM*%
%LPD*%
G01*
G04 APERTURE LIST*
%ADD10C,0.100000*%
%ADD11C,0.200000*%
%ADD12C,0.050000*%
%ADD13C,0.065000*%
G04 APERTURE END LIST*
D10*
X14156200Y-13680800D02*
X14781200Y-13680800D01*
X16006200Y-13680800D02*
X15381200Y-13680800D01*
X16406200Y-13680800D02*
X17031200Y-13680800D01*
X16406200Y-13880800D02*
X17231200Y-13880800D01*
X14156200Y-13880800D02*
X16006200Y-13880800D01*
X11506200Y-13880800D02*
X10681200Y-13880800D01*
X11506200Y-13680800D02*
X10881200Y-13680800D01*
X11906200Y-13680800D02*
X12531200Y-13680800D01*
X13756200Y-13880800D02*
X11906200Y-13880800D01*
X13756200Y-13680800D02*
X13131200Y-13680800D01*
X12931200Y-12880800D02*
X12931200Y-13480800D01*
X12731200Y-12880800D02*
X12731200Y-13480800D01*
X12731200Y-12480800D02*
X12731200Y-10780800D01*
X12931200Y-10780800D02*
X12931200Y-12480800D01*
X15181200Y-12880800D02*
X15181200Y-13480800D01*
X14981200Y-12880800D02*
X14981200Y-13480800D01*
X14981200Y-12480800D02*
X14981200Y-10780800D01*
X15181200Y-10780800D02*
X15181200Y-12480800D01*
X16406200Y-9580800D02*
X17031200Y-9580800D01*
X16406200Y-9380800D02*
X17031200Y-9380800D01*
X15181200Y-6080800D02*
X15181200Y-5480800D01*
X14981200Y-6080800D02*
X14981200Y-5480800D01*
X15181200Y-8180800D02*
X15181200Y-6480800D01*
X14981200Y-6480800D02*
X14981200Y-8180800D01*
X14981200Y-8580800D02*
X14981200Y-9180800D01*
X15181200Y-8580800D02*
X15181200Y-9180800D01*
X16006200Y-9380800D02*
X15381200Y-9380800D01*
X16006200Y-9580800D02*
X15381200Y-9580800D01*
X15181200Y-10380800D02*
X15181200Y-9780800D01*
X14981200Y-10380800D02*
X14981200Y-9780800D01*
X14156200Y-9580800D02*
X14781200Y-9580800D01*
X14156200Y-9380800D02*
X14781200Y-9380800D01*
X13756200Y-9380800D02*
X13131200Y-9380800D01*
X13756200Y-9580800D02*
X13131200Y-9580800D01*
X11506200Y-9580800D02*
X10881200Y-9580800D01*
X11506200Y-9380800D02*
X10881200Y-9380800D01*
X11906200Y-9380800D02*
X12531200Y-9380800D01*
X11906200Y-9580800D02*
X12531200Y-9580800D01*
X12931200Y-10380800D02*
X12931200Y-9780800D01*
X12731200Y-10380800D02*
X12731200Y-9780800D01*
X12931200Y-8580800D02*
X12931200Y-9180800D01*
X12731200Y-8580800D02*
X12731200Y-9180800D01*
X12731200Y-6480800D02*
X12731200Y-8180800D01*
X12931200Y-6480800D02*
X12931200Y-8180800D01*
X12931200Y-5480800D02*
X12931200Y-6080800D01*
X12731200Y-5480800D02*
X12731200Y-6080800D01*
X11506200Y-5280800D02*
X10881200Y-5280800D01*
X12531200Y-5280800D02*
X11906200Y-5280800D01*
X13756200Y-5280800D02*
X13131200Y-5280800D01*
X14781200Y-5280800D02*
X14156200Y-5280800D01*
X16006200Y-5280800D02*
X15381200Y-5280800D01*
X17031200Y-5280800D02*
X16406200Y-5280800D01*
X16406200Y-5080800D02*
X17231200Y-5080800D01*
X14156200Y-5080800D02*
X16006200Y-5080800D01*
X11906200Y-5080800D02*
X13756200Y-5080800D01*
X10681200Y-5080800D02*
X11506200Y-5080800D01*
X10681200Y-14380800D02*
X10681200Y-13880800D01*
X17231200Y-14380800D02*
X10681200Y-14380800D01*
X17231200Y-13880800D02*
X17231200Y-14380800D01*
X17231200Y-4580800D02*
X17231200Y-5080800D01*
X10681200Y-4580800D02*
X17231200Y-4580800D01*
X10681200Y-5080800D02*
X10681200Y-4580800D01*
X17231200Y-9780800D02*
G75*
G03*
X17031200Y-9580800I-200000J0D01*
G01*
X15381200Y-9580800D02*
G75*
G03*
X15181200Y-9780800I0J-200000D01*
G01*
X17231200Y-9780800D02*
X17231200Y-13480800D01*
X15181200Y-13480800D02*
G75*
G03*
X15381200Y-13680800I200000J0D01*
G01*
X17031200Y-13680800D02*
G75*
G03*
X17231200Y-13480800I0J200000D01*
G01*
X17231200Y-5480800D02*
G75*
G03*
X17031200Y-5280800I-200000J0D01*
G01*
X15381200Y-5280800D02*
G75*
G03*
X15181200Y-5480800I0J-200000D01*
G01*
X17231200Y-5480800D02*
X17231200Y-9180800D01*
X15181200Y-9180800D02*
G75*
G03*
X15381200Y-9380800I200000J0D01*
G01*
X17031200Y-9380800D02*
G75*
G03*
X17231200Y-9180800I0J200000D01*
G01*
X14981200Y-9780800D02*
G75*
G03*
X14781200Y-9580800I-200000J0D01*
G01*
X13131200Y-9580800D02*
G75*
G03*
X12931200Y-9780800I0J-200000D01*
G01*
X12931200Y-13480800D02*
G75*
G03*
X13131200Y-13680800I200000J0D01*
G01*
X14781200Y-13680800D02*
G75*
G03*
X14981200Y-13480800I0J200000D01*
G01*
X14981200Y-5480800D02*
G75*
G03*
X14781200Y-5280800I-200000J0D01*
G01*
X13131200Y-5280800D02*
G75*
G03*
X12931200Y-5480800I0J-200000D01*
G01*
X12931200Y-9180800D02*
G75*
G03*
X13131200Y-9380800I200000J0D01*
G01*
X14781200Y-9380800D02*
G75*
G03*
X14981200Y-9180800I0J200000D01*
G01*
X12731200Y-9780800D02*
G75*
G03*
X12531200Y-9580800I-200000J0D01*
G01*
X10881200Y-9580800D02*
G75*
G03*
X10681200Y-9780800I0J-200000D01*
G01*
X10681200Y-13480800D02*
G75*
G03*
X10881200Y-13680800I200000J0D01*
G01*
X10681200Y-13480800D02*
X10681200Y-9780800D01*
X12531200Y-13680800D02*
G75*
G03*
X12731200Y-13480800I0J200000D01*
G01*
X10681200Y-9180800D02*
X10681200Y-5480800D01*
X12531200Y-9380800D02*
G75*
G03*
X12731200Y-9180800I0J200000D01*
G01*
X10681200Y-9180800D02*
G75*
G03*
X10881200Y-9380800I200000J0D01*
G01*
X10881200Y-5280800D02*
G75*
G03*
X10681200Y-5480800I0J-200000D01*
G01*
X12731200Y-5480800D02*
G75*
G03*
X12531200Y-5280800I-200000J0D01*
G01*
D11*
D12*
X11606200Y-5080800D02*
X11656200Y-5130800D01*
X11656200Y-5080800D02*
X11606200Y-5130800D01*
X11606200Y-5230800D02*
X11656200Y-5280800D01*
X11656200Y-5230800D02*
X11606200Y-5280800D01*
X11606200Y-9380800D02*
X11656200Y-9430800D01*
X11656200Y-9380800D02*
X11606200Y-9430800D01*
X11606200Y-9530800D02*
X11656200Y-9580800D01*
X11656200Y-9530800D02*
X11606200Y-9580800D01*
X11606200Y-13680800D02*
X11656200Y-13730800D01*
X11656200Y-13680800D02*
X11606200Y-13730800D01*
X11606200Y-13830800D02*
X11656200Y-13880800D01*
X11656200Y-13830800D02*
X11606200Y-13880800D01*
X11681200Y-5080800D02*
X11731200Y-5130800D01*
X11731200Y-5080800D02*
X11681200Y-5130800D01*
X11681200Y-5230800D02*
X11731200Y-5280800D01*
X11731200Y-5230800D02*
X11681200Y-5280800D01*
X11681200Y-9380800D02*
X11731200Y-9430800D01*
X11731200Y-9380800D02*
X11681200Y-9430800D01*
X11681200Y-9530800D02*
X11731200Y-9580800D01*
X11731200Y-9530800D02*
X11681200Y-9580800D01*
X11681200Y-13680800D02*
X11731200Y-13730800D01*
X11731200Y-13680800D02*
X11681200Y-13730800D01*
X11681200Y-13830800D02*
X11731200Y-13880800D01*
X11731200Y-13830800D02*
X11681200Y-13880800D01*
X11756200Y-5080800D02*
X11806200Y-5130800D01*
X11806200Y-5080800D02*
X11756200Y-5130800D01*
X11756200Y-5230800D02*
X11806200Y-5280800D01*
X11806200Y-5230800D02*
X11756200Y-5280800D01*
X11756200Y-9380800D02*
X11806200Y-9430800D01*
X11806200Y-9380800D02*
X11756200Y-9430800D01*
X11756200Y-9530800D02*
X11806200Y-9580800D01*
X11806200Y-9530800D02*
X11756200Y-9580800D01*
X11756200Y-13680800D02*
X11806200Y-13730800D01*
X11806200Y-13680800D02*
X11756200Y-13730800D01*
X11756200Y-13830800D02*
X11806200Y-13880800D01*
X11806200Y-13830800D02*
X11756200Y-13880800D01*
X12731200Y-6180800D02*
X12781200Y-6230800D01*
X12781200Y-6180800D02*
X12731200Y-6230800D01*
X12731200Y-6255800D02*
X12781200Y-6305800D01*
X12781200Y-6255800D02*
X12731200Y-6305800D01*
X12731200Y-6330800D02*
X12781200Y-6380800D01*
X12781200Y-6330800D02*
X12731200Y-6380800D01*
X12731200Y-8280800D02*
X12781200Y-8330800D01*
X12781200Y-8280800D02*
X12731200Y-8330800D01*
X12731200Y-8355800D02*
X12781200Y-8405800D01*
X12781200Y-8355800D02*
X12731200Y-8405800D01*
X12731200Y-8430800D02*
X12781200Y-8480800D01*
X12781200Y-8430800D02*
X12731200Y-8480800D01*
X12731200Y-10480800D02*
X12781200Y-10530800D01*
X12781200Y-10480800D02*
X12731200Y-10530800D01*
X12731200Y-10555800D02*
X12781200Y-10605800D01*
X12781200Y-10555800D02*
X12731200Y-10605800D01*
X12731200Y-10630800D02*
X12781200Y-10680800D01*
X12781200Y-10630800D02*
X12731200Y-10680800D01*
X12731200Y-12580800D02*
X12781200Y-12630800D01*
X12781200Y-12580800D02*
X12731200Y-12630800D01*
X12731200Y-12655800D02*
X12781200Y-12705800D01*
X12781200Y-12655800D02*
X12731200Y-12705800D01*
X12731200Y-12730800D02*
X12781200Y-12780800D01*
X12781200Y-12730800D02*
X12731200Y-12780800D01*
X12881200Y-6180800D02*
X12931200Y-6230800D01*
X12931200Y-6180800D02*
X12881200Y-6230800D01*
X12881200Y-6255800D02*
X12931200Y-6305800D01*
X12931200Y-6255800D02*
X12881200Y-6305800D01*
X12881200Y-6330800D02*
X12931200Y-6380800D01*
X12931200Y-6330800D02*
X12881200Y-6380800D01*
X12881200Y-8280800D02*
X12931200Y-8330800D01*
X12931200Y-8280800D02*
X12881200Y-8330800D01*
X12881200Y-8355800D02*
X12931200Y-8405800D01*
X12931200Y-8355800D02*
X12881200Y-8405800D01*
X12881200Y-8430800D02*
X12931200Y-8480800D01*
X12931200Y-8430800D02*
X12881200Y-8480800D01*
X12881200Y-10480800D02*
X12931200Y-10530800D01*
X12931200Y-10480800D02*
X12881200Y-10530800D01*
X12881200Y-10555800D02*
X12931200Y-10605800D01*
X12931200Y-10555800D02*
X12881200Y-10605800D01*
X12881200Y-10630800D02*
X12931200Y-10680800D01*
X12931200Y-10630800D02*
X12881200Y-10680800D01*
X12881200Y-12580800D02*
X12931200Y-12630800D01*
X12931200Y-12580800D02*
X12881200Y-12630800D01*
X12881200Y-12655800D02*
X12931200Y-12705800D01*
X12931200Y-12655800D02*
X12881200Y-12705800D01*
X12881200Y-12730800D02*
X12931200Y-12780800D01*
X12931200Y-12730800D02*
X12881200Y-12780800D01*
X13856200Y-5080800D02*
X13906200Y-5130800D01*
X13906200Y-5080800D02*
X13856200Y-5130800D01*
X13856200Y-5230800D02*
X13906200Y-5280800D01*
X13906200Y-5230800D02*
X13856200Y-5280800D01*
X13856200Y-9380800D02*
X13906200Y-9430800D01*
X13906200Y-9380800D02*
X13856200Y-9430800D01*
X13856200Y-9530800D02*
X13906200Y-9580800D01*
X13906200Y-9530800D02*
X13856200Y-9580800D01*
X13856200Y-13680800D02*
X13906200Y-13730800D01*
X13906200Y-13680800D02*
X13856200Y-13730800D01*
X13856200Y-13830800D02*
X13906200Y-13880800D01*
X13906200Y-13830800D02*
X13856200Y-13880800D01*
X13931200Y-5080800D02*
X13981200Y-5130800D01*
X13981200Y-5080800D02*
X13931200Y-5130800D01*
X13931200Y-5230800D02*
X13981200Y-5280800D01*
X13981200Y-5230800D02*
X13931200Y-5280800D01*
X13931200Y-9380800D02*
X13981200Y-9430800D01*
X13981200Y-9380800D02*
X13931200Y-9430800D01*
X13931200Y-9530800D02*
X13981200Y-9580800D01*
X13981200Y-9530800D02*
X13931200Y-9580800D01*
X13931200Y-13680800D02*
X13981200Y-13730800D01*
X13981200Y-13680800D02*
X13931200Y-13730800D01*
X13931200Y-13830800D02*
X13981200Y-13880800D01*
X13981200Y-13830800D02*
X13931200Y-13880800D01*
X14006200Y-5080800D02*
X14056200Y-5130800D01*
X14056200Y-5080800D02*
X14006200Y-5130800D01*
X14006200Y-5230800D02*
X14056200Y-5280800D01*
X14056200Y-5230800D02*
X14006200Y-5280800D01*
X14006200Y-9380800D02*
X14056200Y-9430800D01*
X14056200Y-9380800D02*
X14006200Y-9430800D01*
X14006200Y-9530800D02*
X14056200Y-9580800D01*
X14056200Y-9530800D02*
X14006200Y-9580800D01*
X14006200Y-13680800D02*
X14056200Y-13730800D01*
X14056200Y-13680800D02*
X14006200Y-13730800D01*
X14006200Y-13830800D02*
X14056200Y-13880800D01*
X14056200Y-13830800D02*
X14006200Y-13880800D01*
X14981200Y-6180800D02*
X15031200Y-6230800D01*
X15031200Y-6180800D02*
X14981200Y-6230800D01*
X14981200Y-6255800D02*
X15031200Y-6305800D01*
X15031200Y-6255800D02*
X14981200Y-6305800D01*
X14981200Y-6330800D02*
X15031200Y-6380800D01*
X15031200Y-6330800D02*
X14981200Y-6380800D01*
X14981200Y-8280800D02*
X15031200Y-8330800D01*
X15031200Y-8280800D02*
X14981200Y-8330800D01*
X14981200Y-8355800D02*
X15031200Y-8405800D01*
X15031200Y-8355800D02*
X14981200Y-8405800D01*
X14981200Y-8430800D02*
X15031200Y-8480800D01*
X15031200Y-8430800D02*
X14981200Y-8480800D01*
X14981200Y-10480800D02*
X15031200Y-10530800D01*
X15031200Y-10480800D02*
X14981200Y-10530800D01*
X14981200Y-10555800D02*
X15031200Y-10605800D01*
X15031200Y-10555800D02*
X14981200Y-10605800D01*
X14981200Y-10630800D02*
X15031200Y-10680800D01*
X15031200Y-10630800D02*
X14981200Y-10680800D01*
X14981200Y-12580800D02*
X15031200Y-12630800D01*
X15031200Y-12580800D02*
X14981200Y-12630800D01*
X14981200Y-12655800D02*
X15031200Y-12705800D01*
X15031200Y-12655800D02*
X14981200Y-12705800D01*
X14981200Y-12730800D02*
X15031200Y-12780800D01*
X15031200Y-12730800D02*
X14981200Y-12780800D01*
X15131200Y-6180800D02*
X15181200Y-6230800D01*
X15181200Y-6180800D02*
X15131200Y-6230800D01*
X15131200Y-6255800D02*
X15181200Y-6305800D01*
X15181200Y-6255800D02*
X15131200Y-6305800D01*
X15131200Y-6330800D02*
X15181200Y-6380800D01*
X15181200Y-6330800D02*
X15131200Y-6380800D01*
X15131200Y-8280800D02*
X15181200Y-8330800D01*
X15181200Y-8280800D02*
X15131200Y-8330800D01*
X15131200Y-8355800D02*
X15181200Y-8405800D01*
X15181200Y-8355800D02*
X15131200Y-8405800D01*
X15131200Y-8430800D02*
X15181200Y-8480800D01*
X15181200Y-8430800D02*
X15131200Y-8480800D01*
X15131200Y-10480800D02*
X15181200Y-10530800D01*
X15181200Y-10480800D02*
X15131200Y-10530800D01*
X15131200Y-10555800D02*
X15181200Y-10605800D01*
X15181200Y-10555800D02*
X15131200Y-10605800D01*
X15131200Y-10630800D02*
X15181200Y-10680800D01*
X15181200Y-10630800D02*
X15131200Y-10680800D01*
X15131200Y-12580800D02*
X15181200Y-12630800D01*
X15181200Y-12580800D02*
X15131200Y-12630800D01*
X15131200Y-12655800D02*
X15181200Y-12705800D01*
X15181200Y-12655800D02*
X15131200Y-12705800D01*
X15131200Y-12730800D02*
X15181200Y-12780800D01*
X15181200Y-12730800D02*
X15131200Y-12780800D01*
X16106200Y-5080800D02*
X16156200Y-5130800D01*
X16156200Y-5080800D02*
X16106200Y-5130800D01*
X16106200Y-5230800D02*
X16156200Y-5280800D01*
X16156200Y-5230800D02*
X16106200Y-5280800D01*
X16106200Y-9380800D02*
X16156200Y-9430800D01*
X16156200Y-9380800D02*
X16106200Y-9430800D01*
X16106200Y-9530800D02*
X16156200Y-9580800D01*
X16156200Y-9530800D02*
X16106200Y-9580800D01*
X16106200Y-13680800D02*
X16156200Y-13730800D01*
X16156200Y-13680800D02*
X16106200Y-13730800D01*
X16106200Y-13830800D02*
X16156200Y-13880800D01*
X16156200Y-13830800D02*
X16106200Y-13880800D01*
X16181200Y-5080800D02*
X16231200Y-5130800D01*
X16231200Y-5080800D02*
X16181200Y-5130800D01*
X16181200Y-5230800D02*
X16231200Y-5280800D01*
X16231200Y-5230800D02*
X16181200Y-5280800D01*
X16181200Y-9380800D02*
X16231200Y-9430800D01*
X16231200Y-9380800D02*
X16181200Y-9430800D01*
X16181200Y-9530800D02*
X16231200Y-9580800D01*
X16231200Y-9530800D02*
X16181200Y-9580800D01*
X16181200Y-13680800D02*
X16231200Y-13730800D01*
X16231200Y-13680800D02*
X16181200Y-13730800D01*
X16181200Y-13830800D02*
X16231200Y-13880800D01*
X16231200Y-13830800D02*
X16181200Y-13880800D01*
X16256200Y-5080800D02*
X16306200Y-5130800D01*
X16306200Y-5080800D02*
X16256200Y-5130800D01*
X16256200Y-5230800D02*
X16306200Y-5280800D01*
X16306200Y-5230800D02*
X16256200Y-5280800D01*
X16256200Y-9380800D02*
X16306200Y-9430800D01*
X16306200Y-9380800D02*
X16256200Y-9430800D01*
X16256200Y-9530800D02*
X16306200Y-9580800D01*
X16306200Y-9530800D02*
X16256200Y-9580800D01*
X16256200Y-13680800D02*
X16306200Y-13730800D01*
X16306200Y-13680800D02*
X16256200Y-13730800D01*
X16256200Y-13830800D02*
X16306200Y-13880800D01*
X16306200Y-13830800D02*
X16256200Y-13880800D01*
D13*
X11449200Y-5773050D02*
G75*
G03*
X11449200Y-5773050I-32500J0D01*
G01*
X11449200Y-10073050D02*
G75*
G03*
X11449200Y-10073050I-32500J0D01*
G01*
X12027200Y-5773050D02*
G75*
G03*
X12027200Y-5773050I-32500J0D01*
G01*
X12027200Y-10073050D02*
G75*
G03*
X12027200Y-10073050I-32500J0D01*
G01*
X13699200Y-5773050D02*
G75*
G03*
X13699200Y-5773050I-32500J0D01*
G01*
X13699200Y-10073050D02*
G75*
G03*
X13699200Y-10073050I-32500J0D01*
G01*
X14277200Y-5773050D02*
G75*
G03*
X14277200Y-5773050I-32500J0D01*
G01*
X14277200Y-10073050D02*
G75*
G03*
X14277200Y-10073050I-32500J0D01*
G01*
X15949200Y-5773050D02*
G75*
G03*
X15949200Y-5773050I-32500J0D01*
G01*
X15949200Y-10073050D02*
G75*
G03*
X15949200Y-10073050I-32500J0D01*
G01*
X16527200Y-5773050D02*
G75*
G03*
X16527200Y-5773050I-32500J0D01*
G01*
X16527200Y-10073050D02*
G75*
G03*
X16527200Y-10073050I-32500J0D01*
G01*
D11*
X10933819Y-14696276D02*
X10933819Y-14496276D01*
X10981438Y-14496276D01*
X11010010Y-14505800D01*
X11029057Y-14524848D01*
X11038581Y-14543895D01*
X11048105Y-14581990D01*
X11048105Y-14610562D01*
X11038581Y-14648657D01*
X11029057Y-14667705D01*
X11010010Y-14686752D01*
X10981438Y-14696276D01*
X10933819Y-14696276D01*
X11133819Y-14696276D02*
X11133819Y-14562943D01*
X11133819Y-14601038D02*
X11143343Y-14581990D01*
X11152867Y-14572467D01*
X11171914Y-14562943D01*
X11190962Y-14562943D01*
X11257628Y-14696276D02*
X11257628Y-14562943D01*
X11257628Y-14496276D02*
X11248105Y-14505800D01*
X11257628Y-14515324D01*
X11267152Y-14505800D01*
X11257628Y-14496276D01*
X11257628Y-14515324D01*
X11381438Y-14696276D02*
X11362390Y-14686752D01*
X11352867Y-14667705D01*
X11352867Y-14496276D01*
X11486200Y-14696276D02*
X11467152Y-14686752D01*
X11457628Y-14667705D01*
X11457628Y-14496276D01*
X11714771Y-14696276D02*
X11714771Y-14496276D01*
X11781438Y-14639133D01*
X11848105Y-14496276D01*
X11848105Y-14696276D01*
X12029057Y-14696276D02*
X12029057Y-14591514D01*
X12019533Y-14572467D01*
X12000486Y-14562943D01*
X11962390Y-14562943D01*
X11943343Y-14572467D01*
X12029057Y-14686752D02*
X12010009Y-14696276D01*
X11962390Y-14696276D01*
X11943343Y-14686752D01*
X11933819Y-14667705D01*
X11933819Y-14648657D01*
X11943343Y-14629609D01*
X11962390Y-14620086D01*
X12010009Y-14620086D01*
X12029057Y-14610562D01*
X12124295Y-14562943D02*
X12124295Y-14762943D01*
X12124295Y-14572467D02*
X12143343Y-14562943D01*
X12181438Y-14562943D01*
X12200486Y-14572467D01*
X12210009Y-14581990D01*
X12219533Y-14601038D01*
X12219533Y-14658181D01*
X12210009Y-14677228D01*
X12200486Y-14686752D01*
X12181438Y-14696276D01*
X12143343Y-14696276D01*
X12124295Y-14686752D01*
X12305248Y-14677228D02*
X12314771Y-14686752D01*
X12305248Y-14696276D01*
X12295724Y-14686752D01*
X12305248Y-14677228D01*
X12305248Y-14696276D01*
X12305248Y-14572467D02*
X12314771Y-14581990D01*
X12305248Y-14591514D01*
X12295724Y-14581990D01*
X12305248Y-14572467D01*
X12305248Y-14591514D01*
D12*
X10626200Y-15000800D02*
X10676200Y-15050800D01*
X10676200Y-15000800D02*
X10626200Y-15050800D01*
D11*
X10971914Y-14916276D02*
X10990962Y-14916276D01*
X11010010Y-14925800D01*
X11019533Y-14935324D01*
X11029057Y-14954371D01*
X11038581Y-14992467D01*
X11038581Y-15040086D01*
X11029057Y-15078181D01*
X11019533Y-15097228D01*
X11010010Y-15106752D01*
X10990962Y-15116276D01*
X10971914Y-15116276D01*
X10952867Y-15106752D01*
X10943343Y-15097228D01*
X10933819Y-15078181D01*
X10924295Y-15040086D01*
X10924295Y-14992467D01*
X10933819Y-14954371D01*
X10943343Y-14935324D01*
X10952867Y-14925800D01*
X10971914Y-14916276D01*
X11124295Y-15097228D02*
X11133819Y-15106752D01*
X11124295Y-15116276D01*
X11114771Y-15106752D01*
X11124295Y-15097228D01*
X11124295Y-15116276D01*
X11314771Y-14916276D02*
X11219533Y-14916276D01*
X11210009Y-15011514D01*
X11219533Y-15001990D01*
X11238581Y-14992467D01*
X11286200Y-14992467D01*
X11305248Y-15001990D01*
X11314771Y-15011514D01*
X11324295Y-15030562D01*
X11324295Y-15078181D01*
X11314771Y-15097228D01*
X11305248Y-15106752D01*
X11286200Y-15116276D01*
X11238581Y-15116276D01*
X11219533Y-15106752D01*
X11210009Y-15097228D01*
X11448105Y-14916276D02*
X11467152Y-14916276D01*
X11486200Y-14925800D01*
X11495724Y-14935324D01*
X11505248Y-14954371D01*
X11514771Y-14992467D01*
X11514771Y-15040086D01*
X11505248Y-15078181D01*
X11495724Y-15097228D01*
X11486200Y-15106752D01*
X11467152Y-15116276D01*
X11448105Y-15116276D01*
X11429057Y-15106752D01*
X11419533Y-15097228D01*
X11410009Y-15078181D01*
X11400486Y-15040086D01*
X11400486Y-14992467D01*
X11410009Y-14954371D01*
X11419533Y-14935324D01*
X11429057Y-14925800D01*
X11448105Y-14916276D01*
X11638581Y-14916276D02*
X11657628Y-14916276D01*
X11676676Y-14925800D01*
X11686200Y-14935324D01*
X11695724Y-14954371D01*
X11705248Y-14992467D01*
X11705248Y-15040086D01*
X11695724Y-15078181D01*
X11686200Y-15097228D01*
X11676676Y-15106752D01*
X11657628Y-15116276D01*
X11638581Y-15116276D01*
X11619533Y-15106752D01*
X11610009Y-15097228D01*
X11600486Y-15078181D01*
X11590962Y-15040086D01*
X11590962Y-14992467D01*
X11600486Y-14954371D01*
X11610009Y-14935324D01*
X11619533Y-14925800D01*
X11638581Y-14916276D01*
X11790962Y-15116276D02*
X11790962Y-14982943D01*
X11790962Y-15001990D02*
X11800486Y-14992467D01*
X11819533Y-14982943D01*
X11848105Y-14982943D01*
X11867152Y-14992467D01*
X11876676Y-15011514D01*
X11876676Y-15116276D01*
X11876676Y-15011514D02*
X11886200Y-14992467D01*
X11905248Y-14982943D01*
X11933819Y-14982943D01*
X11952867Y-14992467D01*
X11962390Y-15011514D01*
X11962390Y-15116276D01*
X12057628Y-15116276D02*
X12057628Y-14982943D01*
X12057628Y-15001990D02*
X12067152Y-14992467D01*
X12086200Y-14982943D01*
X12114771Y-14982943D01*
X12133819Y-14992467D01*
X12143343Y-15011514D01*
X12143343Y-15116276D01*
X12143343Y-15011514D02*
X12152867Y-14992467D01*
X12171914Y-14982943D01*
X12200486Y-14982943D01*
X12219533Y-14992467D01*
X12229057Y-15011514D01*
X12229057Y-15116276D01*
X12619533Y-14906752D02*
X12448105Y-15163895D01*
X12876676Y-14916276D02*
X12895724Y-14916276D01*
X12914771Y-14925800D01*
X12924295Y-14935324D01*
X12933819Y-14954371D01*
X12943343Y-14992467D01*
X12943343Y-15040086D01*
X12933819Y-15078181D01*
X12924295Y-15097228D01*
X12914771Y-15106752D01*
X12895724Y-15116276D01*
X12876676Y-15116276D01*
X12857628Y-15106752D01*
X12848105Y-15097228D01*
X12838581Y-15078181D01*
X12829057Y-15040086D01*
X12829057Y-14992467D01*
X12838581Y-14954371D01*
X12848105Y-14935324D01*
X12857628Y-14925800D01*
X12876676Y-14916276D01*
X13029057Y-15097228D02*
X13038581Y-15106752D01*
X13029057Y-15116276D01*
X13019533Y-15106752D01*
X13029057Y-15097228D01*
X13029057Y-15116276D01*
X13162390Y-14916276D02*
X13181438Y-14916276D01*
X13200486Y-14925800D01*
X13210009Y-14935324D01*
X13219533Y-14954371D01*
X13229057Y-14992467D01*
X13229057Y-15040086D01*
X13219533Y-15078181D01*
X13210009Y-15097228D01*
X13200486Y-15106752D01*
X13181438Y-15116276D01*
X13162390Y-15116276D01*
X13143343Y-15106752D01*
X13133819Y-15097228D01*
X13124295Y-15078181D01*
X13114771Y-15040086D01*
X13114771Y-14992467D01*
X13124295Y-14954371D01*
X13133819Y-14935324D01*
X13143343Y-14925800D01*
X13162390Y-14916276D01*
X13419533Y-15116276D02*
X13305248Y-15116276D01*
X13362390Y-15116276D02*
X13362390Y-14916276D01*
X13343343Y-14944848D01*
X13324295Y-14963895D01*
X13305248Y-14973419D01*
X13514771Y-15116276D02*
X13552867Y-15116276D01*
X13571914Y-15106752D01*
X13581438Y-15097228D01*
X13600486Y-15068657D01*
X13610009Y-15030562D01*
X13610009Y-14954371D01*
X13600486Y-14935324D01*
X13590962Y-14925800D01*
X13571914Y-14916276D01*
X13533819Y-14916276D01*
X13514771Y-14925800D01*
X13505248Y-14935324D01*
X13495724Y-14954371D01*
X13495724Y-15001990D01*
X13505248Y-15021038D01*
X13514771Y-15030562D01*
X13533819Y-15040086D01*
X13571914Y-15040086D01*
X13590962Y-15030562D01*
X13600486Y-15021038D01*
X13610009Y-15001990D01*
X13676676Y-14916276D02*
X13810009Y-14916276D01*
X13724295Y-15116276D01*
X13876676Y-14916276D02*
X13876676Y-14954371D01*
X13952867Y-14916276D02*
X13952867Y-14954371D01*
X14248105Y-15192467D02*
X14238581Y-15182943D01*
X14219533Y-15154371D01*
X14210009Y-15135324D01*
X14200486Y-15106752D01*
X14190962Y-15059133D01*
X14190962Y-15021038D01*
X14200486Y-14973419D01*
X14210009Y-14944848D01*
X14219533Y-14925800D01*
X14238581Y-14897228D01*
X14248105Y-14887705D01*
X14429057Y-15116276D02*
X14314771Y-15116276D01*
X14371914Y-15116276D02*
X14371914Y-14916276D01*
X14352867Y-14944848D01*
X14333819Y-14963895D01*
X14314771Y-14973419D01*
X14552867Y-14916276D02*
X14571914Y-14916276D01*
X14590962Y-14925800D01*
X14600486Y-14935324D01*
X14610009Y-14954371D01*
X14619533Y-14992467D01*
X14619533Y-15040086D01*
X14610009Y-15078181D01*
X14600486Y-15097228D01*
X14590962Y-15106752D01*
X14571914Y-15116276D01*
X14552867Y-15116276D01*
X14533819Y-15106752D01*
X14524295Y-15097228D01*
X14514771Y-15078181D01*
X14505248Y-15040086D01*
X14505248Y-14992467D01*
X14514771Y-14954371D01*
X14524295Y-14935324D01*
X14533819Y-14925800D01*
X14552867Y-14916276D01*
X14695724Y-14935324D02*
X14705248Y-14925800D01*
X14724295Y-14916276D01*
X14771914Y-14916276D01*
X14790962Y-14925800D01*
X14800486Y-14935324D01*
X14810009Y-14954371D01*
X14810009Y-14973419D01*
X14800486Y-15001990D01*
X14686200Y-15116276D01*
X14810009Y-15116276D01*
X15048105Y-15116276D02*
X15048105Y-14916276D01*
X15133819Y-15116276D02*
X15133819Y-15011514D01*
X15124295Y-14992467D01*
X15105248Y-14982943D01*
X15076676Y-14982943D01*
X15057628Y-14992467D01*
X15048105Y-15001990D01*
X15257628Y-15116276D02*
X15238581Y-15106752D01*
X15229057Y-15097228D01*
X15219533Y-15078181D01*
X15219533Y-15021038D01*
X15229057Y-15001990D01*
X15238581Y-14992467D01*
X15257628Y-14982943D01*
X15286200Y-14982943D01*
X15305248Y-14992467D01*
X15314771Y-15001990D01*
X15324295Y-15021038D01*
X15324295Y-15078181D01*
X15314771Y-15097228D01*
X15305248Y-15106752D01*
X15286200Y-15116276D01*
X15257628Y-15116276D01*
X15438581Y-15116276D02*
X15419533Y-15106752D01*
X15410009Y-15087705D01*
X15410009Y-14916276D01*
X15590962Y-15106752D02*
X15571914Y-15116276D01*
X15533819Y-15116276D01*
X15514771Y-15106752D01*
X15505248Y-15087705D01*
X15505248Y-15011514D01*
X15514771Y-14992467D01*
X15533819Y-14982943D01*
X15571914Y-14982943D01*
X15590962Y-14992467D01*
X15600486Y-15011514D01*
X15600486Y-15030562D01*
X15505248Y-15049609D01*
X15676676Y-15106752D02*
X15695724Y-15116276D01*
X15733819Y-15116276D01*
X15752867Y-15106752D01*
X15762390Y-15087705D01*
X15762390Y-15078181D01*
X15752867Y-15059133D01*
X15733819Y-15049609D01*
X15705248Y-15049609D01*
X15686200Y-15040086D01*
X15676676Y-15021038D01*
X15676676Y-15011514D01*
X15686200Y-14992467D01*
X15705248Y-14982943D01*
X15733819Y-14982943D01*
X15752867Y-14992467D01*
X15829057Y-15192467D02*
X15838581Y-15182943D01*
X15857628Y-15154371D01*
X15867152Y-15135324D01*
X15876676Y-15106752D01*
X15886200Y-15059133D01*
X15886200Y-15021038D01*
X15876676Y-14973419D01*
X15867152Y-14944848D01*
X15857628Y-14925800D01*
X15838581Y-14897228D01*
X15829057Y-14887705D01*
X16190962Y-15192467D02*
X16181438Y-15182943D01*
X16162390Y-15154371D01*
X16152867Y-15135324D01*
X16143343Y-15106752D01*
X16133819Y-15059133D01*
X16133819Y-15021038D01*
X16143343Y-14973419D01*
X16152867Y-14944848D01*
X16162390Y-14925800D01*
X16181438Y-14897228D01*
X16190962Y-14887705D01*
X16267152Y-14982943D02*
X16267152Y-15116276D01*
X16267152Y-15001990D02*
X16276676Y-14992467D01*
X16295724Y-14982943D01*
X16324295Y-14982943D01*
X16343343Y-14992467D01*
X16352867Y-15011514D01*
X16352867Y-15116276D01*
X16476676Y-15116276D02*
X16457628Y-15106752D01*
X16448105Y-15097228D01*
X16438581Y-15078181D01*
X16438581Y-15021038D01*
X16448105Y-15001990D01*
X16457628Y-14992467D01*
X16476676Y-14982943D01*
X16505248Y-14982943D01*
X16524295Y-14992467D01*
X16533819Y-15001990D01*
X16543343Y-15021038D01*
X16543343Y-15078181D01*
X16533819Y-15097228D01*
X16524295Y-15106752D01*
X16505248Y-15116276D01*
X16476676Y-15116276D01*
X16600486Y-14982943D02*
X16676676Y-14982943D01*
X16629057Y-14916276D02*
X16629057Y-15087705D01*
X16638581Y-15106752D01*
X16657628Y-15116276D01*
X16676676Y-15116276D01*
X16895724Y-14982943D02*
X16895724Y-15182943D01*
X16895724Y-14992467D02*
X16914771Y-14982943D01*
X16952867Y-14982943D01*
X16971914Y-14992467D01*
X16981438Y-15001990D01*
X16990962Y-15021038D01*
X16990962Y-15078181D01*
X16981438Y-15097228D01*
X16971914Y-15106752D01*
X16952867Y-15116276D01*
X16914771Y-15116276D01*
X16895724Y-15106752D01*
X17105248Y-15116276D02*
X17086200Y-15106752D01*
X17076676Y-15087705D01*
X17076676Y-14916276D01*
X17267152Y-15116276D02*
X17267152Y-15011514D01*
X17257629Y-14992467D01*
X17238581Y-14982943D01*
X17200486Y-14982943D01*
X17181438Y-14992467D01*
X17267152Y-15106752D02*
X17248105Y-15116276D01*
X17200486Y-15116276D01*
X17181438Y-15106752D01*
X17171914Y-15087705D01*
X17171914Y-15068657D01*
X17181438Y-15049609D01*
X17200486Y-15040086D01*
X17248105Y-15040086D01*
X17267152Y-15030562D01*
X17333819Y-14982943D02*
X17410010Y-14982943D01*
X17362390Y-14916276D02*
X17362390Y-15087705D01*
X17371914Y-15106752D01*
X17390962Y-15116276D01*
X17410010Y-15116276D01*
X17552867Y-15106752D02*
X17533819Y-15116276D01*
X17495724Y-15116276D01*
X17476676Y-15106752D01*
X17467152Y-15087705D01*
X17467152Y-15011514D01*
X17476676Y-14992467D01*
X17495724Y-14982943D01*
X17533819Y-14982943D01*
X17552867Y-14992467D01*
X17562390Y-15011514D01*
X17562390Y-15030562D01*
X17467152Y-15049609D01*
X17733819Y-15116276D02*
X17733819Y-14916276D01*
X17733819Y-15106752D02*
X17714771Y-15116276D01*
X17676676Y-15116276D01*
X17657629Y-15106752D01*
X17648105Y-15097228D01*
X17638581Y-15078181D01*
X17638581Y-15021038D01*
X17648105Y-15001990D01*
X17657629Y-14992467D01*
X17676676Y-14982943D01*
X17714771Y-14982943D01*
X17733819Y-14992467D01*
X17810010Y-15192467D02*
X17819533Y-15182943D01*
X17838581Y-15154371D01*
X17848105Y-15135324D01*
X17857629Y-15106752D01*
X17867152Y-15059133D01*
X17867152Y-15021038D01*
X17857629Y-14973419D01*
X17848105Y-14944848D01*
X17838581Y-14925800D01*
X17819533Y-14897228D01*
X17810010Y-14887705D01*
D13*
X10676200Y-15289800D02*
G75*
G03*
X10676200Y-15289800I-32500J0D01*
G01*
D11*
X10971914Y-15180276D02*
X10990962Y-15180276D01*
X11010010Y-15189800D01*
X11019533Y-15199324D01*
X11029057Y-15218371D01*
X11038581Y-15256467D01*
X11038581Y-15304086D01*
X11029057Y-15342181D01*
X11019533Y-15361228D01*
X11010010Y-15370752D01*
X10990962Y-15380276D01*
X10971914Y-15380276D01*
X10952867Y-15370752D01*
X10943343Y-15361228D01*
X10933819Y-15342181D01*
X10924295Y-15304086D01*
X10924295Y-15256467D01*
X10933819Y-15218371D01*
X10943343Y-15199324D01*
X10952867Y-15189800D01*
X10971914Y-15180276D01*
X11124295Y-15361228D02*
X11133819Y-15370752D01*
X11124295Y-15380276D01*
X11114771Y-15370752D01*
X11124295Y-15361228D01*
X11124295Y-15380276D01*
X11305248Y-15180276D02*
X11267152Y-15180276D01*
X11248105Y-15189800D01*
X11238581Y-15199324D01*
X11219533Y-15227895D01*
X11210009Y-15265990D01*
X11210009Y-15342181D01*
X11219533Y-15361228D01*
X11229057Y-15370752D01*
X11248105Y-15380276D01*
X11286200Y-15380276D01*
X11305248Y-15370752D01*
X11314771Y-15361228D01*
X11324295Y-15342181D01*
X11324295Y-15294562D01*
X11314771Y-15275514D01*
X11305248Y-15265990D01*
X11286200Y-15256467D01*
X11248105Y-15256467D01*
X11229057Y-15265990D01*
X11219533Y-15275514D01*
X11210009Y-15294562D01*
X11505248Y-15180276D02*
X11410009Y-15180276D01*
X11400486Y-15275514D01*
X11410009Y-15265990D01*
X11429057Y-15256467D01*
X11476676Y-15256467D01*
X11495724Y-15265990D01*
X11505248Y-15275514D01*
X11514771Y-15294562D01*
X11514771Y-15342181D01*
X11505248Y-15361228D01*
X11495724Y-15370752D01*
X11476676Y-15380276D01*
X11429057Y-15380276D01*
X11410009Y-15370752D01*
X11400486Y-15361228D01*
X11638581Y-15180276D02*
X11657628Y-15180276D01*
X11676676Y-15189800D01*
X11686200Y-15199324D01*
X11695724Y-15218371D01*
X11705248Y-15256467D01*
X11705248Y-15304086D01*
X11695724Y-15342181D01*
X11686200Y-15361228D01*
X11676676Y-15370752D01*
X11657628Y-15380276D01*
X11638581Y-15380276D01*
X11619533Y-15370752D01*
X11610009Y-15361228D01*
X11600486Y-15342181D01*
X11590962Y-15304086D01*
X11590962Y-15256467D01*
X11600486Y-15218371D01*
X11610009Y-15199324D01*
X11619533Y-15189800D01*
X11638581Y-15180276D01*
X11790962Y-15380276D02*
X11790962Y-15246943D01*
X11790962Y-15265990D02*
X11800486Y-15256467D01*
X11819533Y-15246943D01*
X11848105Y-15246943D01*
X11867152Y-15256467D01*
X11876676Y-15275514D01*
X11876676Y-15380276D01*
X11876676Y-15275514D02*
X11886200Y-15256467D01*
X11905248Y-15246943D01*
X11933819Y-15246943D01*
X11952867Y-15256467D01*
X11962390Y-15275514D01*
X11962390Y-15380276D01*
X12057628Y-15380276D02*
X12057628Y-15246943D01*
X12057628Y-15265990D02*
X12067152Y-15256467D01*
X12086200Y-15246943D01*
X12114771Y-15246943D01*
X12133819Y-15256467D01*
X12143343Y-15275514D01*
X12143343Y-15380276D01*
X12143343Y-15275514D02*
X12152867Y-15256467D01*
X12171914Y-15246943D01*
X12200486Y-15246943D01*
X12219533Y-15256467D01*
X12229057Y-15275514D01*
X12229057Y-15380276D01*
X12619533Y-15170752D02*
X12448105Y-15427895D01*
X12876676Y-15180276D02*
X12895724Y-15180276D01*
X12914771Y-15189800D01*
X12924295Y-15199324D01*
X12933819Y-15218371D01*
X12943343Y-15256467D01*
X12943343Y-15304086D01*
X12933819Y-15342181D01*
X12924295Y-15361228D01*
X12914771Y-15370752D01*
X12895724Y-15380276D01*
X12876676Y-15380276D01*
X12857628Y-15370752D01*
X12848105Y-15361228D01*
X12838581Y-15342181D01*
X12829057Y-15304086D01*
X12829057Y-15256467D01*
X12838581Y-15218371D01*
X12848105Y-15199324D01*
X12857628Y-15189800D01*
X12876676Y-15180276D01*
X13029057Y-15361228D02*
X13038581Y-15370752D01*
X13029057Y-15380276D01*
X13019533Y-15370752D01*
X13029057Y-15361228D01*
X13029057Y-15380276D01*
X13162390Y-15180276D02*
X13181438Y-15180276D01*
X13200486Y-15189800D01*
X13210009Y-15199324D01*
X13219533Y-15218371D01*
X13229057Y-15256467D01*
X13229057Y-15304086D01*
X13219533Y-15342181D01*
X13210009Y-15361228D01*
X13200486Y-15370752D01*
X13181438Y-15380276D01*
X13162390Y-15380276D01*
X13143343Y-15370752D01*
X13133819Y-15361228D01*
X13124295Y-15342181D01*
X13114771Y-15304086D01*
X13114771Y-15256467D01*
X13124295Y-15218371D01*
X13133819Y-15199324D01*
X13143343Y-15189800D01*
X13162390Y-15180276D01*
X13305248Y-15199324D02*
X13314771Y-15189800D01*
X13333819Y-15180276D01*
X13381438Y-15180276D01*
X13400486Y-15189800D01*
X13410009Y-15199324D01*
X13419533Y-15218371D01*
X13419533Y-15237419D01*
X13410009Y-15265990D01*
X13295724Y-15380276D01*
X13419533Y-15380276D01*
X13600486Y-15180276D02*
X13505248Y-15180276D01*
X13495724Y-15275514D01*
X13505248Y-15265990D01*
X13524295Y-15256467D01*
X13571914Y-15256467D01*
X13590962Y-15265990D01*
X13600486Y-15275514D01*
X13610009Y-15294562D01*
X13610009Y-15342181D01*
X13600486Y-15361228D01*
X13590962Y-15370752D01*
X13571914Y-15380276D01*
X13524295Y-15380276D01*
X13505248Y-15370752D01*
X13495724Y-15361228D01*
X13781438Y-15180276D02*
X13743343Y-15180276D01*
X13724295Y-15189800D01*
X13714771Y-15199324D01*
X13695724Y-15227895D01*
X13686200Y-15265990D01*
X13686200Y-15342181D01*
X13695724Y-15361228D01*
X13705248Y-15370752D01*
X13724295Y-15380276D01*
X13762390Y-15380276D01*
X13781438Y-15370752D01*
X13790962Y-15361228D01*
X13800486Y-15342181D01*
X13800486Y-15294562D01*
X13790962Y-15275514D01*
X13781438Y-15265990D01*
X13762390Y-15256467D01*
X13724295Y-15256467D01*
X13705248Y-15265990D01*
X13695724Y-15275514D01*
X13686200Y-15294562D01*
X13876676Y-15180276D02*
X13876676Y-15218371D01*
X13952867Y-15180276D02*
X13952867Y-15218371D01*
X14248105Y-15456467D02*
X14238581Y-15446943D01*
X14219533Y-15418371D01*
X14210009Y-15399324D01*
X14200486Y-15370752D01*
X14190962Y-15323133D01*
X14190962Y-15285038D01*
X14200486Y-15237419D01*
X14210009Y-15208848D01*
X14219533Y-15189800D01*
X14238581Y-15161228D01*
X14248105Y-15151705D01*
X14429057Y-15380276D02*
X14314771Y-15380276D01*
X14371914Y-15380276D02*
X14371914Y-15180276D01*
X14352867Y-15208848D01*
X14333819Y-15227895D01*
X14314771Y-15237419D01*
X14505248Y-15199324D02*
X14514771Y-15189800D01*
X14533819Y-15180276D01*
X14581438Y-15180276D01*
X14600486Y-15189800D01*
X14610009Y-15199324D01*
X14619533Y-15218371D01*
X14619533Y-15237419D01*
X14610009Y-15265990D01*
X14495724Y-15380276D01*
X14619533Y-15380276D01*
X14857628Y-15380276D02*
X14857628Y-15180276D01*
X14943343Y-15380276D02*
X14943343Y-15275514D01*
X14933819Y-15256467D01*
X14914771Y-15246943D01*
X14886200Y-15246943D01*
X14867152Y-15256467D01*
X14857628Y-15265990D01*
X15067152Y-15380276D02*
X15048105Y-15370752D01*
X15038581Y-15361228D01*
X15029057Y-15342181D01*
X15029057Y-15285038D01*
X15038581Y-15265990D01*
X15048105Y-15256467D01*
X15067152Y-15246943D01*
X15095724Y-15246943D01*
X15114771Y-15256467D01*
X15124295Y-15265990D01*
X15133819Y-15285038D01*
X15133819Y-15342181D01*
X15124295Y-15361228D01*
X15114771Y-15370752D01*
X15095724Y-15380276D01*
X15067152Y-15380276D01*
X15248105Y-15380276D02*
X15229057Y-15370752D01*
X15219533Y-15351705D01*
X15219533Y-15180276D01*
X15400486Y-15370752D02*
X15381438Y-15380276D01*
X15343343Y-15380276D01*
X15324295Y-15370752D01*
X15314771Y-15351705D01*
X15314771Y-15275514D01*
X15324295Y-15256467D01*
X15343343Y-15246943D01*
X15381438Y-15246943D01*
X15400486Y-15256467D01*
X15410009Y-15275514D01*
X15410009Y-15294562D01*
X15314771Y-15313609D01*
X15486200Y-15370752D02*
X15505248Y-15380276D01*
X15543343Y-15380276D01*
X15562390Y-15370752D01*
X15571914Y-15351705D01*
X15571914Y-15342181D01*
X15562390Y-15323133D01*
X15543343Y-15313609D01*
X15514771Y-15313609D01*
X15495724Y-15304086D01*
X15486200Y-15285038D01*
X15486200Y-15275514D01*
X15495724Y-15256467D01*
X15514771Y-15246943D01*
X15543343Y-15246943D01*
X15562390Y-15256467D01*
X15638581Y-15456467D02*
X15648105Y-15446943D01*
X15667152Y-15418371D01*
X15676676Y-15399324D01*
X15686200Y-15370752D01*
X15695724Y-15323133D01*
X15695724Y-15285038D01*
X15686200Y-15237419D01*
X15676676Y-15208848D01*
X15667152Y-15189800D01*
X15648105Y-15161228D01*
X15638581Y-15151705D01*
X16000486Y-15456467D02*
X15990962Y-15446943D01*
X15971914Y-15418371D01*
X15962390Y-15399324D01*
X15952867Y-15370752D01*
X15943343Y-15323133D01*
X15943343Y-15285038D01*
X15952867Y-15237419D01*
X15962390Y-15208848D01*
X15971914Y-15189800D01*
X15990962Y-15161228D01*
X16000486Y-15151705D01*
X16076676Y-15246943D02*
X16076676Y-15380276D01*
X16076676Y-15265990D02*
X16086200Y-15256467D01*
X16105248Y-15246943D01*
X16133819Y-15246943D01*
X16152867Y-15256467D01*
X16162390Y-15275514D01*
X16162390Y-15380276D01*
X16286200Y-15380276D02*
X16267152Y-15370752D01*
X16257628Y-15361228D01*
X16248105Y-15342181D01*
X16248105Y-15285038D01*
X16257628Y-15265990D01*
X16267152Y-15256467D01*
X16286200Y-15246943D01*
X16314771Y-15246943D01*
X16333819Y-15256467D01*
X16343343Y-15265990D01*
X16352867Y-15285038D01*
X16352867Y-15342181D01*
X16343343Y-15361228D01*
X16333819Y-15370752D01*
X16314771Y-15380276D01*
X16286200Y-15380276D01*
X16410009Y-15246943D02*
X16486200Y-15246943D01*
X16438581Y-15180276D02*
X16438581Y-15351705D01*
X16448105Y-15370752D01*
X16467152Y-15380276D01*
X16486200Y-15380276D01*
X16705248Y-15246943D02*
X16705248Y-15446943D01*
X16705248Y-15256467D02*
X16724295Y-15246943D01*
X16762390Y-15246943D01*
X16781438Y-15256467D01*
X16790962Y-15265990D01*
X16800486Y-15285038D01*
X16800486Y-15342181D01*
X16790962Y-15361228D01*
X16781438Y-15370752D01*
X16762390Y-15380276D01*
X16724295Y-15380276D01*
X16705248Y-15370752D01*
X16914771Y-15380276D02*
X16895724Y-15370752D01*
X16886200Y-15351705D01*
X16886200Y-15180276D01*
X17076676Y-15380276D02*
X17076676Y-15275514D01*
X17067152Y-15256467D01*
X17048105Y-15246943D01*
X17010010Y-15246943D01*
X16990962Y-15256467D01*
X17076676Y-15370752D02*
X17057629Y-15380276D01*
X17010010Y-15380276D01*
X16990962Y-15370752D01*
X16981438Y-15351705D01*
X16981438Y-15332657D01*
X16990962Y-15313609D01*
X17010010Y-15304086D01*
X17057629Y-15304086D01*
X17076676Y-15294562D01*
X17143343Y-15246943D02*
X17219533Y-15246943D01*
X17171914Y-15180276D02*
X17171914Y-15351705D01*
X17181438Y-15370752D01*
X17200486Y-15380276D01*
X17219533Y-15380276D01*
X17362390Y-15370752D02*
X17343343Y-15380276D01*
X17305248Y-15380276D01*
X17286200Y-15370752D01*
X17276676Y-15351705D01*
X17276676Y-15275514D01*
X17286200Y-15256467D01*
X17305248Y-15246943D01*
X17343343Y-15246943D01*
X17362390Y-15256467D01*
X17371914Y-15275514D01*
X17371914Y-15294562D01*
X17276676Y-15313609D01*
X17543343Y-15380276D02*
X17543343Y-15180276D01*
X17543343Y-15370752D02*
X17524295Y-15380276D01*
X17486200Y-15380276D01*
X17467152Y-15370752D01*
X17457629Y-15361228D01*
X17448105Y-15342181D01*
X17448105Y-15285038D01*
X17457629Y-15265990D01*
X17467152Y-15256467D01*
X17486200Y-15246943D01*
X17524295Y-15246943D01*
X17543343Y-15256467D01*
X17619533Y-15456467D02*
X17629057Y-15446943D01*
X17648105Y-15418371D01*
X17657629Y-15399324D01*
X17667152Y-15370752D01*
X17676676Y-15323133D01*
X17676676Y-15285038D01*
X17667152Y-15237419D01*
X17657629Y-15208848D01*
X17648105Y-15189800D01*
X17629057Y-15161228D01*
X17619533Y-15151705D01*
M02*
