%TF.GenerationSoftware,KiCad,Pcbnew,(6.0.8)*%
%TF.CreationDate,2023-05-03T14:57:19+02:00*%
%TF.ProjectId,Floppy Board v3.1,466c6f70-7079-4204-926f-617264207633,3.0*%
%TF.SameCoordinates,Original*%
%TF.FileFunction,Soldermask,Top*%
%TF.FilePolarity,Negative*%
%FSLAX46Y46*%
G04 Gerber Fmt 4.6, Leading zero omitted, Abs format (unit mm)*
G04 Created by KiCad (PCBNEW (6.0.8)) date 2023-05-03 14:57:19*
%MOMM*%
%LPD*%
G01*
G04 APERTURE LIST*
G04 Aperture macros list*
%AMRoundRect*
0 Rectangle with rounded corners*
0 $1 Rounding radius*
0 $2 $3 $4 $5 $6 $7 $8 $9 X,Y pos of 4 corners*
0 Add a 4 corners polygon primitive as box body*
4,1,4,$2,$3,$4,$5,$6,$7,$8,$9,$2,$3,0*
0 Add four circle primitives for the rounded corners*
1,1,$1+$1,$2,$3*
1,1,$1+$1,$4,$5*
1,1,$1+$1,$6,$7*
1,1,$1+$1,$8,$9*
0 Add four rect primitives between the rounded corners*
20,1,$1+$1,$2,$3,$4,$5,0*
20,1,$1+$1,$4,$5,$6,$7,0*
20,1,$1+$1,$6,$7,$8,$9,0*
20,1,$1+$1,$8,$9,$2,$3,0*%
G04 Aperture macros list end*
%ADD10C,0.500000*%
%ADD11C,2.000000*%
%ADD12RoundRect,0.250000X-0.475000X0.337500X-0.475000X-0.337500X0.475000X-0.337500X0.475000X0.337500X0*%
%ADD13R,1.700000X1.700000*%
%ADD14O,1.700000X1.700000*%
%ADD15RoundRect,0.250000X0.450000X-0.350000X0.450000X0.350000X-0.450000X0.350000X-0.450000X-0.350000X0*%
%ADD16RoundRect,0.250001X-0.624999X0.462499X-0.624999X-0.462499X0.624999X-0.462499X0.624999X0.462499X0*%
%ADD17RoundRect,0.250000X0.475000X-0.337500X0.475000X0.337500X-0.475000X0.337500X-0.475000X-0.337500X0*%
%ADD18RoundRect,0.150000X-0.587500X-0.150000X0.587500X-0.150000X0.587500X0.150000X-0.587500X0.150000X0*%
%ADD19RoundRect,0.100000X-0.637500X-0.100000X0.637500X-0.100000X0.637500X0.100000X-0.637500X0.100000X0*%
%ADD20RoundRect,0.250000X0.337500X0.475000X-0.337500X0.475000X-0.337500X-0.475000X0.337500X-0.475000X0*%
%ADD21C,0.650000*%
%ADD22R,0.600000X1.150000*%
%ADD23R,0.300000X1.150000*%
%ADD24O,1.000000X2.100000*%
%ADD25O,1.000000X1.800000*%
%ADD26R,1.100000X1.800000*%
%ADD27RoundRect,0.250000X0.450000X-0.325000X0.450000X0.325000X-0.450000X0.325000X-0.450000X-0.325000X0*%
%ADD28RoundRect,0.250000X-0.450000X0.350000X-0.450000X-0.350000X0.450000X-0.350000X0.450000X0.350000X0*%
G04 APERTURE END LIST*
D10*
%TO.C,mouse-bite-2mm-slot*%
X150062000Y-126058000D03*
X151562000Y-126058000D03*
X150062000Y-127558000D03*
X151562000Y-127558000D03*
X151562000Y-126808000D03*
X150062000Y-126808000D03*
%TD*%
%TO.C,mouse-bite-2mm-slot*%
X150062000Y-106558000D03*
X151562000Y-106558000D03*
X150062000Y-105058000D03*
X151562000Y-105058000D03*
X151562000Y-105808000D03*
X150062000Y-105808000D03*
%TD*%
%TO.C,mouse-bite-2mm-slot*%
X127562000Y-126058000D03*
X129062000Y-126058000D03*
X127562000Y-127558000D03*
X129062000Y-127558000D03*
X129062000Y-126808000D03*
X127562000Y-126808000D03*
%TD*%
%TO.C,mouse-bite-2mm-slot*%
X127562000Y-106558000D03*
X129062000Y-106558000D03*
X127562000Y-105058000D03*
X129062000Y-105058000D03*
X129062000Y-105808000D03*
X127562000Y-105808000D03*
%TD*%
%TO.C,mouse-bite-2mm-slot*%
X150062000Y-83058000D03*
X151562000Y-83058000D03*
X150062000Y-84558000D03*
X151562000Y-84558000D03*
X151562000Y-83808000D03*
X150062000Y-83808000D03*
%TD*%
%TO.C,mouse-bite-2mm-slot*%
X150062000Y-63558000D03*
X151562000Y-63558000D03*
X150062000Y-62058000D03*
X151562000Y-62058000D03*
X151562000Y-62808000D03*
X150062000Y-62808000D03*
%TD*%
%TO.C,mouse-bite-2mm-slot*%
X127562000Y-83058000D03*
X129062000Y-83058000D03*
X127562000Y-84558000D03*
X129062000Y-84558000D03*
X129062000Y-83808000D03*
X127562000Y-83808000D03*
%TD*%
%TO.C,mouse-bite-2mm-slot*%
X127562000Y-63558000D03*
X129062000Y-63558000D03*
X127562000Y-62058000D03*
X129062000Y-62058000D03*
X129062000Y-62808000D03*
X127562000Y-62808000D03*
%TD*%
%TO.C,mouse-bite-2mm-slot*%
X161312000Y-51058000D03*
X161312000Y-52558000D03*
X162812000Y-51058000D03*
X162812000Y-52558000D03*
X162062000Y-52558000D03*
X162062000Y-51058000D03*
%TD*%
%TO.C,mouse-bite-2mm-slot*%
X138812000Y-51058000D03*
X138812000Y-52558000D03*
X140312000Y-51058000D03*
X140312000Y-52558000D03*
X139562000Y-52558000D03*
X139562000Y-51058000D03*
%TD*%
%TO.C,mouse-bite-2mm-slot*%
X116312000Y-51058000D03*
X116312000Y-52558000D03*
X117812000Y-51058000D03*
X117812000Y-52558000D03*
X117062000Y-52558000D03*
X117062000Y-51058000D03*
%TD*%
%TO.C,mouse-bite-2mm-slot*%
X161312000Y-94058000D03*
X161312000Y-95558000D03*
X162812000Y-94058000D03*
X162812000Y-95558000D03*
X162062000Y-95558000D03*
X162062000Y-94058000D03*
%TD*%
%TO.C,mouse-bite-2mm-slot*%
X138812000Y-94058000D03*
X138812000Y-95558000D03*
X140312000Y-94058000D03*
X140312000Y-95558000D03*
X139562000Y-95558000D03*
X139562000Y-94058000D03*
%TD*%
%TO.C,mouse-bite-2mm-slot*%
X116312000Y-94058000D03*
X116312000Y-95558000D03*
X117812000Y-94058000D03*
X117812000Y-95558000D03*
X117062000Y-95558000D03*
X117062000Y-94058000D03*
%TD*%
%TO.C,mouse-bite-2mm-slot*%
X161312000Y-137058000D03*
X161312000Y-138558000D03*
X162812000Y-137058000D03*
X162812000Y-138558000D03*
X162062000Y-138558000D03*
X162062000Y-137058000D03*
%TD*%
%TO.C,mouse-bite-2mm-slot*%
X138812000Y-137058000D03*
X138812000Y-138558000D03*
X140312000Y-137058000D03*
X140312000Y-138558000D03*
X139562000Y-138558000D03*
X139562000Y-137058000D03*
%TD*%
D11*
%TO.C,REF\u002A\u002A*%
X169312000Y-48308000D03*
%TD*%
%TO.C,REF\u002A\u002A*%
X109812000Y-48308000D03*
%TD*%
%TO.C,REF\u002A\u002A*%
X169312000Y-141308000D03*
%TD*%
%TO.C,REF\u002A\u002A*%
X109812000Y-141308000D03*
%TD*%
D10*
%TO.C,mouse-bite-2mm-slot*%
X117812000Y-137058000D03*
X117062000Y-137058000D03*
X116312000Y-138558000D03*
X117812000Y-138558000D03*
X116312000Y-137058000D03*
X117062000Y-138558000D03*
%TD*%
D12*
%TO.C,C1*%
X155321000Y-113640500D03*
X155321000Y-115715500D03*
%TD*%
D13*
%TO.C,J3*%
X153162000Y-105788000D03*
D14*
X153162000Y-108328000D03*
X153162000Y-110868000D03*
X153162000Y-113408000D03*
X153162000Y-115948000D03*
X153162000Y-118488000D03*
X153162000Y-121028000D03*
X153162000Y-123568000D03*
X153162000Y-126108000D03*
X153162000Y-128648000D03*
X153162000Y-131188000D03*
%TD*%
D12*
%TO.C,C7*%
X166624000Y-105156900D03*
X166624000Y-107231900D03*
%TD*%
D13*
%TO.C,J4*%
X170942000Y-131188000D03*
D14*
X170942000Y-128648000D03*
X170942000Y-126108000D03*
X170942000Y-123568000D03*
X170942000Y-121028000D03*
X170942000Y-118488000D03*
X170942000Y-115948000D03*
X170942000Y-113408000D03*
X170942000Y-110868000D03*
X170942000Y-108328000D03*
X170942000Y-105788000D03*
X170942000Y-103248000D03*
%TD*%
D13*
%TO.C,J1*%
X162822000Y-134938000D03*
D14*
X165362000Y-134938000D03*
X167902000Y-134938000D03*
X170442000Y-134938000D03*
%TD*%
D15*
%TO.C,R4*%
X163307000Y-122536000D03*
X163307000Y-120536000D03*
%TD*%
D16*
%TO.C,F1*%
X157378400Y-105418100D03*
X157378400Y-108393100D03*
%TD*%
D17*
%TO.C,C5*%
X160020000Y-108705100D03*
X160020000Y-106630100D03*
%TD*%
D18*
%TO.C,U3*%
X162638500Y-107022400D03*
X162638500Y-108922400D03*
X164513500Y-107972400D03*
%TD*%
D19*
%TO.C,U1*%
X160078500Y-112481000D03*
X160078500Y-113131000D03*
X160078500Y-113781000D03*
X160078500Y-114431000D03*
X160078500Y-115081000D03*
X160078500Y-115731000D03*
X160078500Y-116381000D03*
X160078500Y-117031000D03*
X160078500Y-117681000D03*
X160078500Y-118331000D03*
X165803500Y-118331000D03*
X165803500Y-117681000D03*
X165803500Y-117031000D03*
X165803500Y-116381000D03*
X165803500Y-115731000D03*
X165803500Y-115081000D03*
X165803500Y-114431000D03*
X165803500Y-113781000D03*
X165803500Y-113131000D03*
X165803500Y-112481000D03*
%TD*%
D20*
%TO.C,C6*%
X164508000Y-105153000D03*
X162433000Y-105153000D03*
%TD*%
D12*
%TO.C,C2*%
X157480000Y-113640500D03*
X157480000Y-115715500D03*
%TD*%
D21*
%TO.C,J2*%
X164947000Y-100730500D03*
X159167000Y-100730500D03*
D22*
X165257000Y-101805500D03*
X164457000Y-101805500D03*
D23*
X163807000Y-101805500D03*
X163307000Y-101805500D03*
X162807000Y-101805500D03*
X162307000Y-101805500D03*
X161807000Y-101805500D03*
X161307000Y-101805500D03*
X160807000Y-101805500D03*
X160307000Y-101805500D03*
D22*
X159657000Y-101805500D03*
X158857000Y-101805500D03*
D24*
X157737000Y-101230500D03*
D25*
X157737000Y-97050500D03*
D24*
X166377000Y-101230500D03*
D25*
X166377000Y-97050500D03*
%TD*%
D26*
%TO.C,SW2*%
X157154000Y-125700400D03*
X157154000Y-131900400D03*
X160854000Y-125700400D03*
X160854000Y-131900400D03*
%TD*%
D27*
%TO.C,D2*%
X165862000Y-122561000D03*
X165862000Y-120511000D03*
%TD*%
%TO.C,D4*%
X158242000Y-122561000D03*
X158242000Y-120511000D03*
%TD*%
D20*
%TO.C,C4*%
X164511900Y-110766400D03*
X162436900Y-110766400D03*
%TD*%
D28*
%TO.C,R5*%
X160797000Y-120536000D03*
X160797000Y-122536000D03*
%TD*%
D26*
%TO.C,SW1*%
X167000800Y-131900400D03*
X167000800Y-125700400D03*
X163300800Y-125700400D03*
X163300800Y-131900400D03*
%TD*%
D12*
%TO.C,C1*%
X155321000Y-70640500D03*
X155321000Y-72715500D03*
%TD*%
D13*
%TO.C,J3*%
X153162000Y-62788000D03*
D14*
X153162000Y-65328000D03*
X153162000Y-67868000D03*
X153162000Y-70408000D03*
X153162000Y-72948000D03*
X153162000Y-75488000D03*
X153162000Y-78028000D03*
X153162000Y-80568000D03*
X153162000Y-83108000D03*
X153162000Y-85648000D03*
X153162000Y-88188000D03*
%TD*%
D12*
%TO.C,C7*%
X166624000Y-62156900D03*
X166624000Y-64231900D03*
%TD*%
D13*
%TO.C,J4*%
X170942000Y-88188000D03*
D14*
X170942000Y-85648000D03*
X170942000Y-83108000D03*
X170942000Y-80568000D03*
X170942000Y-78028000D03*
X170942000Y-75488000D03*
X170942000Y-72948000D03*
X170942000Y-70408000D03*
X170942000Y-67868000D03*
X170942000Y-65328000D03*
X170942000Y-62788000D03*
X170942000Y-60248000D03*
%TD*%
D13*
%TO.C,J1*%
X162822000Y-91938000D03*
D14*
X165362000Y-91938000D03*
X167902000Y-91938000D03*
X170442000Y-91938000D03*
%TD*%
D15*
%TO.C,R4*%
X163307000Y-79536000D03*
X163307000Y-77536000D03*
%TD*%
D16*
%TO.C,F1*%
X157378400Y-62418100D03*
X157378400Y-65393100D03*
%TD*%
D17*
%TO.C,C5*%
X160020000Y-65705100D03*
X160020000Y-63630100D03*
%TD*%
D18*
%TO.C,U3*%
X162638500Y-64022400D03*
X162638500Y-65922400D03*
X164513500Y-64972400D03*
%TD*%
D19*
%TO.C,U1*%
X160078500Y-69481000D03*
X160078500Y-70131000D03*
X160078500Y-70781000D03*
X160078500Y-71431000D03*
X160078500Y-72081000D03*
X160078500Y-72731000D03*
X160078500Y-73381000D03*
X160078500Y-74031000D03*
X160078500Y-74681000D03*
X160078500Y-75331000D03*
X165803500Y-75331000D03*
X165803500Y-74681000D03*
X165803500Y-74031000D03*
X165803500Y-73381000D03*
X165803500Y-72731000D03*
X165803500Y-72081000D03*
X165803500Y-71431000D03*
X165803500Y-70781000D03*
X165803500Y-70131000D03*
X165803500Y-69481000D03*
%TD*%
D20*
%TO.C,C6*%
X164508000Y-62153000D03*
X162433000Y-62153000D03*
%TD*%
D12*
%TO.C,C2*%
X157480000Y-70640500D03*
X157480000Y-72715500D03*
%TD*%
D21*
%TO.C,J2*%
X164947000Y-57730500D03*
X159167000Y-57730500D03*
D22*
X165257000Y-58805500D03*
X164457000Y-58805500D03*
D23*
X163807000Y-58805500D03*
X163307000Y-58805500D03*
X162807000Y-58805500D03*
X162307000Y-58805500D03*
X161807000Y-58805500D03*
X161307000Y-58805500D03*
X160807000Y-58805500D03*
X160307000Y-58805500D03*
D22*
X159657000Y-58805500D03*
X158857000Y-58805500D03*
D24*
X157737000Y-58230500D03*
D25*
X157737000Y-54050500D03*
D24*
X166377000Y-58230500D03*
D25*
X166377000Y-54050500D03*
%TD*%
D26*
%TO.C,SW2*%
X157154000Y-82700400D03*
X157154000Y-88900400D03*
X160854000Y-82700400D03*
X160854000Y-88900400D03*
%TD*%
D27*
%TO.C,D2*%
X165862000Y-79561000D03*
X165862000Y-77511000D03*
%TD*%
%TO.C,D4*%
X158242000Y-79561000D03*
X158242000Y-77511000D03*
%TD*%
D20*
%TO.C,C4*%
X164511900Y-67766400D03*
X162436900Y-67766400D03*
%TD*%
D28*
%TO.C,R5*%
X160797000Y-77536000D03*
X160797000Y-79536000D03*
%TD*%
D26*
%TO.C,SW1*%
X167000800Y-88900400D03*
X167000800Y-82700400D03*
X163300800Y-82700400D03*
X163300800Y-88900400D03*
%TD*%
D12*
%TO.C,C1*%
X132821000Y-113640500D03*
X132821000Y-115715500D03*
%TD*%
D13*
%TO.C,J3*%
X130662000Y-105788000D03*
D14*
X130662000Y-108328000D03*
X130662000Y-110868000D03*
X130662000Y-113408000D03*
X130662000Y-115948000D03*
X130662000Y-118488000D03*
X130662000Y-121028000D03*
X130662000Y-123568000D03*
X130662000Y-126108000D03*
X130662000Y-128648000D03*
X130662000Y-131188000D03*
%TD*%
D12*
%TO.C,C7*%
X144124000Y-105156900D03*
X144124000Y-107231900D03*
%TD*%
D13*
%TO.C,J4*%
X148442000Y-131188000D03*
D14*
X148442000Y-128648000D03*
X148442000Y-126108000D03*
X148442000Y-123568000D03*
X148442000Y-121028000D03*
X148442000Y-118488000D03*
X148442000Y-115948000D03*
X148442000Y-113408000D03*
X148442000Y-110868000D03*
X148442000Y-108328000D03*
X148442000Y-105788000D03*
X148442000Y-103248000D03*
%TD*%
D13*
%TO.C,J1*%
X140322000Y-134938000D03*
D14*
X142862000Y-134938000D03*
X145402000Y-134938000D03*
X147942000Y-134938000D03*
%TD*%
D15*
%TO.C,R4*%
X140807000Y-122536000D03*
X140807000Y-120536000D03*
%TD*%
D16*
%TO.C,F1*%
X134878400Y-105418100D03*
X134878400Y-108393100D03*
%TD*%
D17*
%TO.C,C5*%
X137520000Y-108705100D03*
X137520000Y-106630100D03*
%TD*%
D18*
%TO.C,U3*%
X140138500Y-107022400D03*
X140138500Y-108922400D03*
X142013500Y-107972400D03*
%TD*%
D19*
%TO.C,U1*%
X137578500Y-112481000D03*
X137578500Y-113131000D03*
X137578500Y-113781000D03*
X137578500Y-114431000D03*
X137578500Y-115081000D03*
X137578500Y-115731000D03*
X137578500Y-116381000D03*
X137578500Y-117031000D03*
X137578500Y-117681000D03*
X137578500Y-118331000D03*
X143303500Y-118331000D03*
X143303500Y-117681000D03*
X143303500Y-117031000D03*
X143303500Y-116381000D03*
X143303500Y-115731000D03*
X143303500Y-115081000D03*
X143303500Y-114431000D03*
X143303500Y-113781000D03*
X143303500Y-113131000D03*
X143303500Y-112481000D03*
%TD*%
D20*
%TO.C,C6*%
X142008000Y-105153000D03*
X139933000Y-105153000D03*
%TD*%
D12*
%TO.C,C2*%
X134980000Y-113640500D03*
X134980000Y-115715500D03*
%TD*%
D21*
%TO.C,J2*%
X142447000Y-100730500D03*
X136667000Y-100730500D03*
D22*
X142757000Y-101805500D03*
X141957000Y-101805500D03*
D23*
X141307000Y-101805500D03*
X140807000Y-101805500D03*
X140307000Y-101805500D03*
X139807000Y-101805500D03*
X139307000Y-101805500D03*
X138807000Y-101805500D03*
X138307000Y-101805500D03*
X137807000Y-101805500D03*
D22*
X137157000Y-101805500D03*
X136357000Y-101805500D03*
D24*
X135237000Y-101230500D03*
D25*
X135237000Y-97050500D03*
D24*
X143877000Y-101230500D03*
D25*
X143877000Y-97050500D03*
%TD*%
D26*
%TO.C,SW2*%
X134654000Y-125700400D03*
X134654000Y-131900400D03*
X138354000Y-125700400D03*
X138354000Y-131900400D03*
%TD*%
D27*
%TO.C,D2*%
X143362000Y-122561000D03*
X143362000Y-120511000D03*
%TD*%
%TO.C,D4*%
X135742000Y-122561000D03*
X135742000Y-120511000D03*
%TD*%
D20*
%TO.C,C4*%
X142011900Y-110766400D03*
X139936900Y-110766400D03*
%TD*%
D28*
%TO.C,R5*%
X138297000Y-120536000D03*
X138297000Y-122536000D03*
%TD*%
D26*
%TO.C,SW1*%
X144500800Y-131900400D03*
X144500800Y-125700400D03*
X140800800Y-125700400D03*
X140800800Y-131900400D03*
%TD*%
D12*
%TO.C,C1*%
X132821000Y-70640500D03*
X132821000Y-72715500D03*
%TD*%
D13*
%TO.C,J3*%
X130662000Y-62788000D03*
D14*
X130662000Y-65328000D03*
X130662000Y-67868000D03*
X130662000Y-70408000D03*
X130662000Y-72948000D03*
X130662000Y-75488000D03*
X130662000Y-78028000D03*
X130662000Y-80568000D03*
X130662000Y-83108000D03*
X130662000Y-85648000D03*
X130662000Y-88188000D03*
%TD*%
D12*
%TO.C,C7*%
X144124000Y-62156900D03*
X144124000Y-64231900D03*
%TD*%
D13*
%TO.C,J4*%
X148442000Y-88188000D03*
D14*
X148442000Y-85648000D03*
X148442000Y-83108000D03*
X148442000Y-80568000D03*
X148442000Y-78028000D03*
X148442000Y-75488000D03*
X148442000Y-72948000D03*
X148442000Y-70408000D03*
X148442000Y-67868000D03*
X148442000Y-65328000D03*
X148442000Y-62788000D03*
X148442000Y-60248000D03*
%TD*%
D13*
%TO.C,J1*%
X140322000Y-91938000D03*
D14*
X142862000Y-91938000D03*
X145402000Y-91938000D03*
X147942000Y-91938000D03*
%TD*%
D15*
%TO.C,R4*%
X140807000Y-79536000D03*
X140807000Y-77536000D03*
%TD*%
D16*
%TO.C,F1*%
X134878400Y-62418100D03*
X134878400Y-65393100D03*
%TD*%
D17*
%TO.C,C5*%
X137520000Y-65705100D03*
X137520000Y-63630100D03*
%TD*%
D18*
%TO.C,U3*%
X140138500Y-64022400D03*
X140138500Y-65922400D03*
X142013500Y-64972400D03*
%TD*%
D19*
%TO.C,U1*%
X137578500Y-69481000D03*
X137578500Y-70131000D03*
X137578500Y-70781000D03*
X137578500Y-71431000D03*
X137578500Y-72081000D03*
X137578500Y-72731000D03*
X137578500Y-73381000D03*
X137578500Y-74031000D03*
X137578500Y-74681000D03*
X137578500Y-75331000D03*
X143303500Y-75331000D03*
X143303500Y-74681000D03*
X143303500Y-74031000D03*
X143303500Y-73381000D03*
X143303500Y-72731000D03*
X143303500Y-72081000D03*
X143303500Y-71431000D03*
X143303500Y-70781000D03*
X143303500Y-70131000D03*
X143303500Y-69481000D03*
%TD*%
D20*
%TO.C,C6*%
X142008000Y-62153000D03*
X139933000Y-62153000D03*
%TD*%
D12*
%TO.C,C2*%
X134980000Y-70640500D03*
X134980000Y-72715500D03*
%TD*%
D21*
%TO.C,J2*%
X142447000Y-57730500D03*
X136667000Y-57730500D03*
D22*
X142757000Y-58805500D03*
X141957000Y-58805500D03*
D23*
X141307000Y-58805500D03*
X140807000Y-58805500D03*
X140307000Y-58805500D03*
X139807000Y-58805500D03*
X139307000Y-58805500D03*
X138807000Y-58805500D03*
X138307000Y-58805500D03*
X137807000Y-58805500D03*
D22*
X137157000Y-58805500D03*
X136357000Y-58805500D03*
D24*
X135237000Y-58230500D03*
D25*
X135237000Y-54050500D03*
D24*
X143877000Y-58230500D03*
D25*
X143877000Y-54050500D03*
%TD*%
D26*
%TO.C,SW2*%
X134654000Y-82700400D03*
X134654000Y-88900400D03*
X138354000Y-82700400D03*
X138354000Y-88900400D03*
%TD*%
D27*
%TO.C,D2*%
X143362000Y-79561000D03*
X143362000Y-77511000D03*
%TD*%
%TO.C,D4*%
X135742000Y-79561000D03*
X135742000Y-77511000D03*
%TD*%
D20*
%TO.C,C4*%
X142011900Y-67766400D03*
X139936900Y-67766400D03*
%TD*%
D28*
%TO.C,R5*%
X138297000Y-77536000D03*
X138297000Y-79536000D03*
%TD*%
D26*
%TO.C,SW1*%
X144500800Y-88900400D03*
X144500800Y-82700400D03*
X140800800Y-82700400D03*
X140800800Y-88900400D03*
%TD*%
D12*
%TO.C,C1*%
X110321000Y-113640500D03*
X110321000Y-115715500D03*
%TD*%
D13*
%TO.C,J3*%
X108162000Y-105788000D03*
D14*
X108162000Y-108328000D03*
X108162000Y-110868000D03*
X108162000Y-113408000D03*
X108162000Y-115948000D03*
X108162000Y-118488000D03*
X108162000Y-121028000D03*
X108162000Y-123568000D03*
X108162000Y-126108000D03*
X108162000Y-128648000D03*
X108162000Y-131188000D03*
%TD*%
D12*
%TO.C,C7*%
X121624000Y-105156900D03*
X121624000Y-107231900D03*
%TD*%
D13*
%TO.C,J4*%
X125942000Y-131188000D03*
D14*
X125942000Y-128648000D03*
X125942000Y-126108000D03*
X125942000Y-123568000D03*
X125942000Y-121028000D03*
X125942000Y-118488000D03*
X125942000Y-115948000D03*
X125942000Y-113408000D03*
X125942000Y-110868000D03*
X125942000Y-108328000D03*
X125942000Y-105788000D03*
X125942000Y-103248000D03*
%TD*%
D13*
%TO.C,J1*%
X117822000Y-134938000D03*
D14*
X120362000Y-134938000D03*
X122902000Y-134938000D03*
X125442000Y-134938000D03*
%TD*%
D15*
%TO.C,R4*%
X118307000Y-122536000D03*
X118307000Y-120536000D03*
%TD*%
D16*
%TO.C,F1*%
X112378400Y-105418100D03*
X112378400Y-108393100D03*
%TD*%
D17*
%TO.C,C5*%
X115020000Y-108705100D03*
X115020000Y-106630100D03*
%TD*%
D18*
%TO.C,U3*%
X117638500Y-107022400D03*
X117638500Y-108922400D03*
X119513500Y-107972400D03*
%TD*%
D19*
%TO.C,U1*%
X115078500Y-112481000D03*
X115078500Y-113131000D03*
X115078500Y-113781000D03*
X115078500Y-114431000D03*
X115078500Y-115081000D03*
X115078500Y-115731000D03*
X115078500Y-116381000D03*
X115078500Y-117031000D03*
X115078500Y-117681000D03*
X115078500Y-118331000D03*
X120803500Y-118331000D03*
X120803500Y-117681000D03*
X120803500Y-117031000D03*
X120803500Y-116381000D03*
X120803500Y-115731000D03*
X120803500Y-115081000D03*
X120803500Y-114431000D03*
X120803500Y-113781000D03*
X120803500Y-113131000D03*
X120803500Y-112481000D03*
%TD*%
D20*
%TO.C,C6*%
X119508000Y-105153000D03*
X117433000Y-105153000D03*
%TD*%
D12*
%TO.C,C2*%
X112480000Y-113640500D03*
X112480000Y-115715500D03*
%TD*%
D21*
%TO.C,J2*%
X119947000Y-100730500D03*
X114167000Y-100730500D03*
D22*
X120257000Y-101805500D03*
X119457000Y-101805500D03*
D23*
X118807000Y-101805500D03*
X118307000Y-101805500D03*
X117807000Y-101805500D03*
X117307000Y-101805500D03*
X116807000Y-101805500D03*
X116307000Y-101805500D03*
X115807000Y-101805500D03*
X115307000Y-101805500D03*
D22*
X114657000Y-101805500D03*
X113857000Y-101805500D03*
D24*
X112737000Y-101230500D03*
D25*
X112737000Y-97050500D03*
D24*
X121377000Y-101230500D03*
D25*
X121377000Y-97050500D03*
%TD*%
D26*
%TO.C,SW2*%
X112154000Y-125700400D03*
X112154000Y-131900400D03*
X115854000Y-125700400D03*
X115854000Y-131900400D03*
%TD*%
D27*
%TO.C,D2*%
X120862000Y-122561000D03*
X120862000Y-120511000D03*
%TD*%
%TO.C,D4*%
X113242000Y-122561000D03*
X113242000Y-120511000D03*
%TD*%
D20*
%TO.C,C4*%
X119511900Y-110766400D03*
X117436900Y-110766400D03*
%TD*%
D28*
%TO.C,R5*%
X115797000Y-120536000D03*
X115797000Y-122536000D03*
%TD*%
D26*
%TO.C,SW1*%
X122000800Y-131900400D03*
X122000800Y-125700400D03*
X118300800Y-125700400D03*
X118300800Y-131900400D03*
%TD*%
D27*
%TO.C,D4*%
X113242000Y-79561000D03*
X113242000Y-77511000D03*
%TD*%
D12*
%TO.C,C1*%
X110321000Y-70640500D03*
X110321000Y-72715500D03*
%TD*%
D26*
%TO.C,SW1*%
X122000800Y-88900400D03*
X122000800Y-82700400D03*
X118300800Y-82700400D03*
X118300800Y-88900400D03*
%TD*%
D28*
%TO.C,R5*%
X115797000Y-77536000D03*
X115797000Y-79536000D03*
%TD*%
D20*
%TO.C,C4*%
X119511900Y-67766400D03*
X117436900Y-67766400D03*
%TD*%
%TO.C,C6*%
X119508000Y-62153000D03*
X117433000Y-62153000D03*
%TD*%
D27*
%TO.C,D2*%
X120862000Y-79561000D03*
X120862000Y-77511000D03*
%TD*%
D13*
%TO.C,J1*%
X117822000Y-91938000D03*
D14*
X120362000Y-91938000D03*
X122902000Y-91938000D03*
X125442000Y-91938000D03*
%TD*%
D15*
%TO.C,R4*%
X118307000Y-79536000D03*
X118307000Y-77536000D03*
%TD*%
D26*
%TO.C,SW2*%
X112154000Y-82700400D03*
X112154000Y-88900400D03*
X115854000Y-82700400D03*
X115854000Y-88900400D03*
%TD*%
D17*
%TO.C,C5*%
X115020000Y-65705100D03*
X115020000Y-63630100D03*
%TD*%
D16*
%TO.C,F1*%
X112378400Y-62418100D03*
X112378400Y-65393100D03*
%TD*%
D12*
%TO.C,C2*%
X112480000Y-70640500D03*
X112480000Y-72715500D03*
%TD*%
D21*
%TO.C,J2*%
X119947000Y-57730500D03*
X114167000Y-57730500D03*
D22*
X120257000Y-58805500D03*
X119457000Y-58805500D03*
D23*
X118807000Y-58805500D03*
X118307000Y-58805500D03*
X117807000Y-58805500D03*
X117307000Y-58805500D03*
X116807000Y-58805500D03*
X116307000Y-58805500D03*
X115807000Y-58805500D03*
X115307000Y-58805500D03*
D22*
X114657000Y-58805500D03*
X113857000Y-58805500D03*
D24*
X112737000Y-58230500D03*
D25*
X112737000Y-54050500D03*
D24*
X121377000Y-58230500D03*
D25*
X121377000Y-54050500D03*
%TD*%
D18*
%TO.C,U3*%
X117638500Y-64022400D03*
X117638500Y-65922400D03*
X119513500Y-64972400D03*
%TD*%
D12*
%TO.C,C7*%
X121624000Y-62156900D03*
X121624000Y-64231900D03*
%TD*%
D19*
%TO.C,U1*%
X115078500Y-69481000D03*
X115078500Y-70131000D03*
X115078500Y-70781000D03*
X115078500Y-71431000D03*
X115078500Y-72081000D03*
X115078500Y-72731000D03*
X115078500Y-73381000D03*
X115078500Y-74031000D03*
X115078500Y-74681000D03*
X115078500Y-75331000D03*
X120803500Y-75331000D03*
X120803500Y-74681000D03*
X120803500Y-74031000D03*
X120803500Y-73381000D03*
X120803500Y-72731000D03*
X120803500Y-72081000D03*
X120803500Y-71431000D03*
X120803500Y-70781000D03*
X120803500Y-70131000D03*
X120803500Y-69481000D03*
%TD*%
D13*
%TO.C,J4*%
X125942000Y-88188000D03*
D14*
X125942000Y-85648000D03*
X125942000Y-83108000D03*
X125942000Y-80568000D03*
X125942000Y-78028000D03*
X125942000Y-75488000D03*
X125942000Y-72948000D03*
X125942000Y-70408000D03*
X125942000Y-67868000D03*
X125942000Y-65328000D03*
X125942000Y-62788000D03*
X125942000Y-60248000D03*
%TD*%
D13*
%TO.C,J3*%
X108162000Y-62788000D03*
D14*
X108162000Y-65328000D03*
X108162000Y-67868000D03*
X108162000Y-70408000D03*
X108162000Y-72948000D03*
X108162000Y-75488000D03*
X108162000Y-78028000D03*
X108162000Y-80568000D03*
X108162000Y-83108000D03*
X108162000Y-85648000D03*
X108162000Y-88188000D03*
%TD*%
M02*
