M48
; DRILL file {KiCad (6.0.8)} date Wed May  3 14:57:21 2023
; FORMAT={-:-/ absolute / inch / decimal}
; #@! TF.CreationDate,2023-05-03T14:57:21+02:00
; #@! TF.GenerationSoftware,Kicad,Pcbnew,(6.0.8)
; #@! TF.FileFunction,NonPlated,1,2,NPTH
FMAT,2
INCH
; #@! TA.AperFunction,NonPlated,NPTH,ComponentDrill
T1C0.0197
; #@! TA.AperFunction,NonPlated,NPTH,ComponentDrill
T2C0.0256
%
G90
G05
T1
X4.5792Y-2.0102
X4.5792Y-2.0692
X4.5792Y-3.7031
X4.5792Y-3.7621
X4.5792Y-5.396
X4.5792Y-5.455
X4.6087Y-2.0102
X4.6087Y-2.0692
X4.6087Y-3.7031
X4.6087Y-3.7621
X4.6087Y-5.396
X4.6087Y-5.455
X4.6383Y-2.0102
X4.6383Y-2.0692
X4.6383Y-3.7031
X4.6383Y-3.7621
X4.6383Y-5.396
X4.6383Y-5.455
X5.0221Y-2.4432
X5.0221Y-2.4728
X5.0221Y-2.5023
X5.0221Y-3.27
X5.0221Y-3.2995
X5.0221Y-3.3291
X5.0221Y-4.1361
X5.0221Y-4.1657
X5.0221Y-4.1952
X5.0221Y-4.9629
X5.0221Y-4.9924
X5.0221Y-5.022
X5.0812Y-2.4432
X5.0812Y-2.4728
X5.0812Y-2.5023
X5.0812Y-3.27
X5.0812Y-3.2995
X5.0812Y-3.3291
X5.0812Y-4.1361
X5.0812Y-4.1657
X5.0812Y-4.1952
X5.0812Y-4.9629
X5.0812Y-4.9924
X5.0812Y-5.022
X5.465Y-2.0102
X5.465Y-2.0692
X5.465Y-3.7031
X5.465Y-3.7621
X5.465Y-5.396
X5.465Y-5.455
X5.4946Y-2.0102
X5.4946Y-2.0692
X5.4946Y-3.7031
X5.4946Y-3.7621
X5.4946Y-5.396
X5.4946Y-5.455
X5.5241Y-2.0102
X5.5241Y-2.0692
X5.5241Y-3.7031
X5.5241Y-3.7621
X5.5241Y-5.396
X5.5241Y-5.455
X5.908Y-2.4432
X5.908Y-2.4728
X5.908Y-2.5023
X5.908Y-3.27
X5.908Y-3.2995
X5.908Y-3.3291
X5.908Y-4.1361
X5.908Y-4.1657
X5.908Y-4.1952
X5.908Y-4.9629
X5.908Y-4.9924
X5.908Y-5.022
X5.967Y-2.4432
X5.967Y-2.4728
X5.967Y-2.5023
X5.967Y-3.27
X5.967Y-3.2995
X5.967Y-3.3291
X5.967Y-4.1361
X5.967Y-4.1657
X5.967Y-4.1952
X5.967Y-4.9629
X5.967Y-4.9924
X5.967Y-5.022
X6.3509Y-2.0102
X6.3509Y-2.0692
X6.3509Y-3.7031
X6.3509Y-3.7621
X6.3509Y-5.396
X6.3509Y-5.455
X6.3804Y-2.0102
X6.3804Y-2.0692
X6.3804Y-3.7031
X6.3804Y-3.7621
X6.3804Y-5.396
X6.3804Y-5.455
X6.4099Y-2.0102
X6.4099Y-2.0692
X6.4099Y-3.7031
X6.4099Y-3.7621
X6.4099Y-5.396
X6.4099Y-5.455
T2
X4.4948Y-2.2729
X4.4948Y-3.9658
X4.7223Y-2.2729
X4.7223Y-3.9658
X5.3806Y-2.2729
X5.3806Y-3.9658
X5.6081Y-2.2729
X5.6081Y-3.9658
X6.2664Y-2.2729
X6.2664Y-3.9658
X6.494Y-2.2729
X6.494Y-3.9658
T0
M30
