%TF.GenerationSoftware,KiCad,Pcbnew,(6.0.8)*%
%TF.CreationDate,2023-05-03T14:57:18+02:00*%
%TF.ProjectId,Floppy Board v3.1,466c6f70-7079-4204-926f-617264207633,3.0*%
%TF.SameCoordinates,Original*%
%TF.FileFunction,Paste,Bot*%
%TF.FilePolarity,Positive*%
%FSLAX46Y46*%
G04 Gerber Fmt 4.6, Leading zero omitted, Abs format (unit mm)*
G04 Created by KiCad (PCBNEW (6.0.8)) date 2023-05-03 14:57:18*
%MOMM*%
%LPD*%
G01*
G04 APERTURE LIST*
G04 Aperture macros list*
%AMRoundRect*
0 Rectangle with rounded corners*
0 $1 Rounding radius*
0 $2 $3 $4 $5 $6 $7 $8 $9 X,Y pos of 4 corners*
0 Add a 4 corners polygon primitive as box body*
4,1,4,$2,$3,$4,$5,$6,$7,$8,$9,$2,$3,0*
0 Add four circle primitives for the rounded corners*
1,1,$1+$1,$2,$3*
1,1,$1+$1,$4,$5*
1,1,$1+$1,$6,$7*
1,1,$1+$1,$8,$9*
0 Add four rect primitives between the rounded corners*
20,1,$1+$1,$2,$3,$4,$5,0*
20,1,$1+$1,$4,$5,$6,$7,0*
20,1,$1+$1,$6,$7,$8,$9,0*
20,1,$1+$1,$8,$9,$2,$3,0*%
G04 Aperture macros list end*
%ADD10R,1.200000X0.900000*%
%ADD11RoundRect,0.250000X0.450000X-0.350000X0.450000X0.350000X-0.450000X0.350000X-0.450000X-0.350000X0*%
%ADD12R,0.900000X1.200000*%
%ADD13RoundRect,0.250000X-0.337500X-0.475000X0.337500X-0.475000X0.337500X0.475000X-0.337500X0.475000X0*%
%ADD14RoundRect,0.250000X-0.450000X0.350000X-0.450000X-0.350000X0.450000X-0.350000X0.450000X0.350000X0*%
%ADD15R,1.100000X1.100000*%
%ADD16RoundRect,0.150000X-0.150000X0.675000X-0.150000X-0.675000X0.150000X-0.675000X0.150000X0.675000X0*%
%ADD17RoundRect,0.150000X0.150000X-0.675000X0.150000X0.675000X-0.150000X0.675000X-0.150000X-0.675000X0*%
G04 APERTURE END LIST*
D10*
%TO.C,D1*%
X167843200Y-109114400D03*
X167843200Y-105814400D03*
%TD*%
D11*
%TO.C,R3*%
X158115000Y-127235000D03*
X158115000Y-125235000D03*
%TD*%
%TO.C,R7*%
X168097200Y-102673200D03*
X168097200Y-100673200D03*
%TD*%
D12*
%TO.C,D5*%
X159180800Y-109750400D03*
X155880800Y-109750400D03*
%TD*%
D13*
%TO.C,C3*%
X164214900Y-130476800D03*
X166289900Y-130476800D03*
%TD*%
D14*
%TO.C,R6*%
X156006800Y-100673200D03*
X156006800Y-102673200D03*
%TD*%
D13*
%TO.C,C8*%
X166475500Y-114119200D03*
X168550500Y-114119200D03*
%TD*%
D15*
%TO.C,D3*%
X156130800Y-112392000D03*
X158930800Y-112392000D03*
%TD*%
D16*
%TO.C,U4*%
X160909000Y-105652200D03*
X162179000Y-105652200D03*
X163449000Y-105652200D03*
X164719000Y-105652200D03*
X164719000Y-110902200D03*
X163449000Y-110902200D03*
X162179000Y-110902200D03*
X160909000Y-110902200D03*
%TD*%
D13*
%TO.C,C9*%
X166475500Y-112087200D03*
X168550500Y-112087200D03*
%TD*%
D14*
%TO.C,R1*%
X165735000Y-125235000D03*
X165735000Y-127235000D03*
%TD*%
%TO.C,R2*%
X155956000Y-125235000D03*
X155956000Y-127235000D03*
%TD*%
D17*
%TO.C,U2*%
X163830000Y-127082000D03*
X162560000Y-127082000D03*
X161290000Y-127082000D03*
X160020000Y-127082000D03*
X160020000Y-121832000D03*
X161290000Y-121832000D03*
X162560000Y-121832000D03*
X163830000Y-121832000D03*
%TD*%
D10*
%TO.C,D1*%
X167843200Y-66114400D03*
X167843200Y-62814400D03*
%TD*%
D11*
%TO.C,R3*%
X158115000Y-84235000D03*
X158115000Y-82235000D03*
%TD*%
%TO.C,R7*%
X168097200Y-59673200D03*
X168097200Y-57673200D03*
%TD*%
D12*
%TO.C,D5*%
X159180800Y-66750400D03*
X155880800Y-66750400D03*
%TD*%
D13*
%TO.C,C3*%
X164214900Y-87476800D03*
X166289900Y-87476800D03*
%TD*%
D14*
%TO.C,R6*%
X156006800Y-57673200D03*
X156006800Y-59673200D03*
%TD*%
D13*
%TO.C,C8*%
X166475500Y-71119200D03*
X168550500Y-71119200D03*
%TD*%
D15*
%TO.C,D3*%
X156130800Y-69392000D03*
X158930800Y-69392000D03*
%TD*%
D16*
%TO.C,U4*%
X160909000Y-62652200D03*
X162179000Y-62652200D03*
X163449000Y-62652200D03*
X164719000Y-62652200D03*
X164719000Y-67902200D03*
X163449000Y-67902200D03*
X162179000Y-67902200D03*
X160909000Y-67902200D03*
%TD*%
D13*
%TO.C,C9*%
X166475500Y-69087200D03*
X168550500Y-69087200D03*
%TD*%
D14*
%TO.C,R1*%
X165735000Y-82235000D03*
X165735000Y-84235000D03*
%TD*%
%TO.C,R2*%
X155956000Y-82235000D03*
X155956000Y-84235000D03*
%TD*%
D17*
%TO.C,U2*%
X163830000Y-84082000D03*
X162560000Y-84082000D03*
X161290000Y-84082000D03*
X160020000Y-84082000D03*
X160020000Y-78832000D03*
X161290000Y-78832000D03*
X162560000Y-78832000D03*
X163830000Y-78832000D03*
%TD*%
D10*
%TO.C,D1*%
X145343200Y-109114400D03*
X145343200Y-105814400D03*
%TD*%
D11*
%TO.C,R3*%
X135615000Y-127235000D03*
X135615000Y-125235000D03*
%TD*%
%TO.C,R7*%
X145597200Y-102673200D03*
X145597200Y-100673200D03*
%TD*%
D12*
%TO.C,D5*%
X136680800Y-109750400D03*
X133380800Y-109750400D03*
%TD*%
D13*
%TO.C,C3*%
X141714900Y-130476800D03*
X143789900Y-130476800D03*
%TD*%
D14*
%TO.C,R6*%
X133506800Y-100673200D03*
X133506800Y-102673200D03*
%TD*%
D13*
%TO.C,C8*%
X143975500Y-114119200D03*
X146050500Y-114119200D03*
%TD*%
D15*
%TO.C,D3*%
X133630800Y-112392000D03*
X136430800Y-112392000D03*
%TD*%
D16*
%TO.C,U4*%
X138409000Y-105652200D03*
X139679000Y-105652200D03*
X140949000Y-105652200D03*
X142219000Y-105652200D03*
X142219000Y-110902200D03*
X140949000Y-110902200D03*
X139679000Y-110902200D03*
X138409000Y-110902200D03*
%TD*%
D13*
%TO.C,C9*%
X143975500Y-112087200D03*
X146050500Y-112087200D03*
%TD*%
D14*
%TO.C,R1*%
X143235000Y-125235000D03*
X143235000Y-127235000D03*
%TD*%
%TO.C,R2*%
X133456000Y-125235000D03*
X133456000Y-127235000D03*
%TD*%
D17*
%TO.C,U2*%
X141330000Y-127082000D03*
X140060000Y-127082000D03*
X138790000Y-127082000D03*
X137520000Y-127082000D03*
X137520000Y-121832000D03*
X138790000Y-121832000D03*
X140060000Y-121832000D03*
X141330000Y-121832000D03*
%TD*%
D10*
%TO.C,D1*%
X145343200Y-66114400D03*
X145343200Y-62814400D03*
%TD*%
D11*
%TO.C,R3*%
X135615000Y-84235000D03*
X135615000Y-82235000D03*
%TD*%
%TO.C,R7*%
X145597200Y-59673200D03*
X145597200Y-57673200D03*
%TD*%
D12*
%TO.C,D5*%
X136680800Y-66750400D03*
X133380800Y-66750400D03*
%TD*%
D13*
%TO.C,C3*%
X141714900Y-87476800D03*
X143789900Y-87476800D03*
%TD*%
D14*
%TO.C,R6*%
X133506800Y-57673200D03*
X133506800Y-59673200D03*
%TD*%
D13*
%TO.C,C8*%
X143975500Y-71119200D03*
X146050500Y-71119200D03*
%TD*%
D15*
%TO.C,D3*%
X133630800Y-69392000D03*
X136430800Y-69392000D03*
%TD*%
D16*
%TO.C,U4*%
X138409000Y-62652200D03*
X139679000Y-62652200D03*
X140949000Y-62652200D03*
X142219000Y-62652200D03*
X142219000Y-67902200D03*
X140949000Y-67902200D03*
X139679000Y-67902200D03*
X138409000Y-67902200D03*
%TD*%
D13*
%TO.C,C9*%
X143975500Y-69087200D03*
X146050500Y-69087200D03*
%TD*%
D14*
%TO.C,R1*%
X143235000Y-82235000D03*
X143235000Y-84235000D03*
%TD*%
%TO.C,R2*%
X133456000Y-82235000D03*
X133456000Y-84235000D03*
%TD*%
D17*
%TO.C,U2*%
X141330000Y-84082000D03*
X140060000Y-84082000D03*
X138790000Y-84082000D03*
X137520000Y-84082000D03*
X137520000Y-78832000D03*
X138790000Y-78832000D03*
X140060000Y-78832000D03*
X141330000Y-78832000D03*
%TD*%
D10*
%TO.C,D1*%
X122843200Y-109114400D03*
X122843200Y-105814400D03*
%TD*%
D11*
%TO.C,R3*%
X113115000Y-127235000D03*
X113115000Y-125235000D03*
%TD*%
%TO.C,R7*%
X123097200Y-102673200D03*
X123097200Y-100673200D03*
%TD*%
D12*
%TO.C,D5*%
X114180800Y-109750400D03*
X110880800Y-109750400D03*
%TD*%
D13*
%TO.C,C3*%
X119214900Y-130476800D03*
X121289900Y-130476800D03*
%TD*%
D14*
%TO.C,R6*%
X111006800Y-100673200D03*
X111006800Y-102673200D03*
%TD*%
D13*
%TO.C,C8*%
X121475500Y-114119200D03*
X123550500Y-114119200D03*
%TD*%
D15*
%TO.C,D3*%
X111130800Y-112392000D03*
X113930800Y-112392000D03*
%TD*%
D16*
%TO.C,U4*%
X115909000Y-105652200D03*
X117179000Y-105652200D03*
X118449000Y-105652200D03*
X119719000Y-105652200D03*
X119719000Y-110902200D03*
X118449000Y-110902200D03*
X117179000Y-110902200D03*
X115909000Y-110902200D03*
%TD*%
D13*
%TO.C,C9*%
X121475500Y-112087200D03*
X123550500Y-112087200D03*
%TD*%
D14*
%TO.C,R1*%
X120735000Y-125235000D03*
X120735000Y-127235000D03*
%TD*%
%TO.C,R2*%
X110956000Y-125235000D03*
X110956000Y-127235000D03*
%TD*%
D17*
%TO.C,U2*%
X118830000Y-127082000D03*
X117560000Y-127082000D03*
X116290000Y-127082000D03*
X115020000Y-127082000D03*
X115020000Y-121832000D03*
X116290000Y-121832000D03*
X117560000Y-121832000D03*
X118830000Y-121832000D03*
%TD*%
D14*
%TO.C,R1*%
X120735000Y-82235000D03*
X120735000Y-84235000D03*
%TD*%
D17*
%TO.C,U2*%
X118830000Y-84082000D03*
X117560000Y-84082000D03*
X116290000Y-84082000D03*
X115020000Y-84082000D03*
X115020000Y-78832000D03*
X116290000Y-78832000D03*
X117560000Y-78832000D03*
X118830000Y-78832000D03*
%TD*%
D14*
%TO.C,R2*%
X110956000Y-82235000D03*
X110956000Y-84235000D03*
%TD*%
D13*
%TO.C,C8*%
X121475500Y-71119200D03*
X123550500Y-71119200D03*
%TD*%
%TO.C,C3*%
X119214900Y-87476800D03*
X121289900Y-87476800D03*
%TD*%
D10*
%TO.C,D1*%
X122843200Y-66114400D03*
X122843200Y-62814400D03*
%TD*%
D12*
%TO.C,D5*%
X114180800Y-66750400D03*
X110880800Y-66750400D03*
%TD*%
D16*
%TO.C,U4*%
X115909000Y-62652200D03*
X117179000Y-62652200D03*
X118449000Y-62652200D03*
X119719000Y-62652200D03*
X119719000Y-67902200D03*
X118449000Y-67902200D03*
X117179000Y-67902200D03*
X115909000Y-67902200D03*
%TD*%
D11*
%TO.C,R7*%
X123097200Y-59673200D03*
X123097200Y-57673200D03*
%TD*%
D14*
%TO.C,R6*%
X111006800Y-57673200D03*
X111006800Y-59673200D03*
%TD*%
D11*
%TO.C,R3*%
X113115000Y-84235000D03*
X113115000Y-82235000D03*
%TD*%
D15*
%TO.C,D3*%
X111130800Y-69392000D03*
X113930800Y-69392000D03*
%TD*%
D13*
%TO.C,C9*%
X121475500Y-69087200D03*
X123550500Y-69087200D03*
%TD*%
M02*
