M48
; DRILL file {KiCad (6.0.8)} date Wed May  3 14:57:21 2023
; FORMAT={-:-/ absolute / inch / decimal}
; #@! TF.CreationDate,2023-05-03T14:57:21+02:00
; #@! TF.GenerationSoftware,Kicad,Pcbnew,(6.0.8)
; #@! TF.FileFunction,Plated,1,2,PTH
FMAT,2
INCH
; #@! TA.AperFunction,Plated,PTH,ViaDrill
T1C0.0079
; #@! TA.AperFunction,Plated,PTH,ComponentDrill
T2C0.0236
; #@! TA.AperFunction,Plated,PTH,ComponentDrill
T3C0.0394
%
G90
G05
T1
X4.2323Y-2.724
X4.2323Y-4.4169
X4.2343Y-3.122
X4.2343Y-4.8149
X4.2833Y-2.822
X4.2833Y-4.5149
X4.2883Y-2.152
X4.2883Y-2.362
X4.2883Y-3.8449
X4.2883Y-4.0549
X4.3003Y-3.594
X4.3003Y-5.2869
X4.3183Y-3.162
X4.3183Y-3.267
X4.3183Y-3.357
X4.3183Y-4.8549
X4.3183Y-4.9599
X4.3183Y-5.0499
X4.3193Y-2.965
X4.3193Y-4.6579
X4.3303Y-2.822
X4.3303Y-4.5149
X4.3523Y-2.937
X4.3523Y-4.6299
X4.3833Y-2.911
X4.3833Y-4.6039
X4.3912Y-3.366
X4.3912Y-5.0589
X4.4163Y-3.416
X4.4163Y-5.1089
X4.4213Y-3.091
X4.4213Y-4.7839
X4.4243Y-2.628
X4.4243Y-4.3209
X4.4415Y-2.7331
X4.4415Y-4.426
X4.4583Y-2.822
X4.4583Y-4.5149
X4.4723Y-2.542
X4.4723Y-3.596
X4.4723Y-4.2349
X4.4723Y-5.2889
X4.486Y-2.7723
X4.486Y-4.4652
X4.4863Y-3.39
X4.4863Y-5.0829
X4.5083Y-3.159
X4.5083Y-4.8519
X4.5143Y-2.678
X4.5143Y-4.3709
X4.5393Y-2.359
X4.5393Y-4.0519
X4.5563Y-3.004
X4.5563Y-4.6969
X4.5741Y-2.7633
X4.5741Y-4.4562
X4.5783Y-2.884
X4.5783Y-4.5769
X4.5803Y-2.824
X4.5803Y-4.5169
X4.6083Y-2.186
X4.6083Y-3.402
X4.6083Y-3.8789
X4.6083Y-5.0949
X4.6087Y-3.2563
X4.6087Y-4.9492
X4.6115Y-3.1863
X4.6115Y-4.8792
X4.6173Y-2.376
X4.6173Y-4.0689
X4.6226Y-2.8702
X4.6226Y-4.5631
X4.6397Y-3.196
X4.6397Y-4.8889
X4.6503Y-2.377
X4.6503Y-4.0699
X4.6576Y-3.3892
X4.6576Y-5.0821
X4.6703Y-2.891
X4.6703Y-4.5839
X4.6743Y-2.359
X4.6743Y-4.0519
X4.6863Y-2.756
X4.6863Y-4.4489
X4.6933Y-3.567
X4.6933Y-5.2599
X4.6963Y-2.808
X4.6963Y-4.5009
X4.7103Y-3.052
X4.7103Y-4.7449
X4.7243Y-3.186
X4.7243Y-4.8789
X4.7343Y-3.3868
X4.7343Y-5.0797
X4.7623Y-3.0928
X4.7623Y-4.7857
X4.7663Y-2.58
X4.7663Y-4.2729
X4.7923Y-2.998
X4.7923Y-4.6909
X4.8683Y-2.532
X4.8683Y-4.2249
X4.9033Y-3.407
X4.9033Y-5.0999
X4.9073Y-2.762
X4.9073Y-4.4549
X4.9333Y-2.147
X4.9333Y-2.272
X4.9333Y-3.8399
X4.9333Y-3.9649
X4.9833Y-2.822
X4.9833Y-2.922
X4.9833Y-3.022
X4.9833Y-3.122
X4.9833Y-3.222
X4.9833Y-3.322
X4.9833Y-4.5149
X4.9833Y-4.6149
X4.9833Y-4.7149
X4.9833Y-4.8149
X4.9833Y-4.9149
X4.9833Y-5.0149
X4.9843Y-2.722
X4.9843Y-4.4149
X5.1182Y-2.724
X5.1182Y-4.4169
X5.1202Y-3.122
X5.1202Y-4.8149
X5.1692Y-2.822
X5.1692Y-4.5149
X5.1742Y-2.152
X5.1742Y-2.362
X5.1742Y-3.8449
X5.1742Y-4.0549
X5.1862Y-3.594
X5.1862Y-5.2869
X5.2042Y-3.162
X5.2042Y-3.267
X5.2042Y-3.357
X5.2042Y-4.8549
X5.2042Y-4.9599
X5.2042Y-5.0499
X5.2052Y-2.965
X5.2052Y-4.6579
X5.2162Y-2.822
X5.2162Y-4.5149
X5.2382Y-2.937
X5.2382Y-4.6299
X5.2692Y-2.911
X5.2692Y-4.6039
X5.277Y-3.366
X5.277Y-5.0589
X5.3022Y-3.416
X5.3022Y-5.1089
X5.3072Y-3.091
X5.3072Y-4.7839
X5.3102Y-2.628
X5.3102Y-4.3209
X5.3273Y-2.7331
X5.3273Y-4.426
X5.3442Y-2.822
X5.3442Y-4.5149
X5.3582Y-2.542
X5.3582Y-3.596
X5.3582Y-4.2349
X5.3582Y-5.2889
X5.3718Y-2.7723
X5.3718Y-4.4652
X5.3722Y-3.39
X5.3722Y-5.0829
X5.3942Y-3.159
X5.3942Y-4.8519
X5.4002Y-2.678
X5.4002Y-4.3709
X5.4252Y-2.359
X5.4252Y-4.0519
X5.4422Y-3.004
X5.4422Y-4.6969
X5.46Y-2.7633
X5.46Y-4.4562
X5.4642Y-2.884
X5.4642Y-4.5769
X5.4662Y-2.824
X5.4662Y-4.5169
X5.4942Y-2.186
X5.4942Y-3.402
X5.4942Y-3.8789
X5.4942Y-5.0949
X5.4945Y-3.2563
X5.4945Y-4.9492
X5.4973Y-3.1863
X5.4973Y-4.8792
X5.5032Y-2.376
X5.5032Y-4.0689
X5.5084Y-2.8702
X5.5084Y-4.5631
X5.5255Y-3.196
X5.5255Y-4.8889
X5.5362Y-2.377
X5.5362Y-4.0699
X5.5434Y-3.3892
X5.5434Y-5.0821
X5.5562Y-2.891
X5.5562Y-4.5839
X5.5602Y-2.359
X5.5602Y-4.0519
X5.5722Y-2.756
X5.5722Y-4.4489
X5.5792Y-3.567
X5.5792Y-5.2599
X5.5822Y-2.808
X5.5822Y-4.5009
X5.5962Y-3.052
X5.5962Y-4.7449
X5.6102Y-3.186
X5.6102Y-4.8789
X5.6202Y-3.3868
X5.6202Y-5.0797
X5.6482Y-3.0928
X5.6482Y-4.7857
X5.6522Y-2.58
X5.6522Y-4.2729
X5.6782Y-2.998
X5.6782Y-4.6909
X5.7542Y-2.532
X5.7542Y-4.2249
X5.7892Y-3.407
X5.7892Y-5.0999
X5.7932Y-2.762
X5.7932Y-4.4549
X5.8192Y-2.147
X5.8192Y-2.272
X5.8192Y-3.8399
X5.8192Y-3.9649
X5.8692Y-2.822
X5.8692Y-2.922
X5.8692Y-3.022
X5.8692Y-3.122
X5.8692Y-3.222
X5.8692Y-3.322
X5.8692Y-4.5149
X5.8692Y-4.6149
X5.8692Y-4.7149
X5.8692Y-4.8149
X5.8692Y-4.9149
X5.8692Y-5.0149
X5.8702Y-2.722
X5.8702Y-4.4149
X6.004Y-2.724
X6.004Y-4.4169
X6.006Y-3.122
X6.006Y-4.8149
X6.055Y-2.822
X6.055Y-4.5149
X6.06Y-2.152
X6.06Y-2.362
X6.06Y-3.8449
X6.06Y-4.0549
X6.072Y-3.594
X6.072Y-5.2869
X6.09Y-3.162
X6.09Y-3.267
X6.09Y-3.357
X6.09Y-4.8549
X6.09Y-4.9599
X6.09Y-5.0499
X6.091Y-2.965
X6.091Y-4.6579
X6.102Y-2.822
X6.102Y-4.5149
X6.124Y-2.937
X6.124Y-4.6299
X6.155Y-2.911
X6.155Y-4.6039
X6.1628Y-3.366
X6.1628Y-5.0589
X6.188Y-3.416
X6.188Y-5.1089
X6.193Y-3.091
X6.193Y-4.7839
X6.196Y-2.628
X6.196Y-4.3209
X6.2131Y-2.7331
X6.2131Y-4.426
X6.23Y-2.822
X6.23Y-4.5149
X6.244Y-2.542
X6.244Y-3.596
X6.244Y-4.2349
X6.244Y-5.2889
X6.2576Y-2.7723
X6.2576Y-4.4652
X6.258Y-3.39
X6.258Y-5.0829
X6.28Y-3.159
X6.28Y-4.8519
X6.286Y-2.678
X6.286Y-4.3709
X6.311Y-2.359
X6.311Y-4.0519
X6.328Y-3.004
X6.328Y-4.6969
X6.3458Y-2.7633
X6.3458Y-4.4562
X6.35Y-2.884
X6.35Y-4.5769
X6.352Y-2.824
X6.352Y-4.5169
X6.38Y-2.186
X6.38Y-3.402
X6.38Y-3.8789
X6.38Y-5.0949
X6.3804Y-3.2563
X6.3804Y-4.9492
X6.3832Y-3.1863
X6.3832Y-4.8792
X6.389Y-2.376
X6.389Y-4.0689
X6.3943Y-2.8702
X6.3943Y-4.5631
X6.4113Y-3.196
X6.4113Y-4.8889
X6.422Y-2.377
X6.422Y-4.0699
X6.4292Y-3.3892
X6.4292Y-5.0821
X6.442Y-2.891
X6.442Y-4.5839
X6.446Y-2.359
X6.446Y-4.0519
X6.458Y-2.756
X6.458Y-4.4489
X6.465Y-3.567
X6.465Y-5.2599
X6.468Y-2.808
X6.468Y-4.5009
X6.482Y-3.052
X6.482Y-4.7449
X6.496Y-3.186
X6.496Y-4.8789
X6.506Y-3.3868
X6.506Y-5.0797
X6.534Y-3.0928
X6.534Y-4.7857
X6.538Y-2.58
X6.538Y-4.2729
X6.564Y-2.998
X6.564Y-4.6909
X6.64Y-2.532
X6.64Y-4.2249
X6.675Y-3.407
X6.675Y-5.0999
X6.679Y-2.762
X6.679Y-4.4549
X6.705Y-2.147
X6.705Y-2.272
X6.705Y-3.8399
X6.705Y-3.9649
X6.755Y-2.822
X6.755Y-2.922
X6.755Y-3.022
X6.755Y-3.122
X6.755Y-3.222
X6.755Y-3.322
X6.755Y-4.5149
X6.755Y-4.6149
X6.755Y-4.7149
X6.755Y-4.8149
X6.755Y-4.9149
X6.755Y-5.0149
X6.756Y-2.722
X6.756Y-4.4149
T3
X4.2583Y-2.472
X4.2583Y-2.572
X4.2583Y-2.672
X4.2583Y-2.772
X4.2583Y-2.872
X4.2583Y-2.972
X4.2583Y-3.072
X4.2583Y-3.172
X4.2583Y-3.272
X4.2583Y-3.372
X4.2583Y-3.472
X4.2583Y-4.1649
X4.2583Y-4.2649
X4.2583Y-4.3649
X4.2583Y-4.4649
X4.2583Y-4.5649
X4.2583Y-4.6649
X4.2583Y-4.7649
X4.2583Y-4.8649
X4.2583Y-4.9649
X4.2583Y-5.0649
X4.2583Y-5.1649
X4.6387Y-3.6196
X4.6387Y-5.3125
X4.7387Y-3.6196
X4.7387Y-5.3125
X4.8387Y-3.6196
X4.8387Y-5.3125
X4.9387Y-3.6196
X4.9387Y-5.3125
X4.9583Y-2.372
X4.9583Y-2.472
X4.9583Y-2.572
X4.9583Y-2.672
X4.9583Y-2.772
X4.9583Y-2.872
X4.9583Y-2.972
X4.9583Y-3.072
X4.9583Y-3.172
X4.9583Y-3.272
X4.9583Y-3.372
X4.9583Y-3.472
X4.9583Y-4.0649
X4.9583Y-4.1649
X4.9583Y-4.2649
X4.9583Y-4.3649
X4.9583Y-4.4649
X4.9583Y-4.5649
X4.9583Y-4.6649
X4.9583Y-4.7649
X4.9583Y-4.8649
X4.9583Y-4.9649
X4.9583Y-5.0649
X4.9583Y-5.1649
X5.1442Y-2.472
X5.1442Y-2.572
X5.1442Y-2.672
X5.1442Y-2.772
X5.1442Y-2.872
X5.1442Y-2.972
X5.1442Y-3.072
X5.1442Y-3.172
X5.1442Y-3.272
X5.1442Y-3.372
X5.1442Y-3.472
X5.1442Y-4.1649
X5.1442Y-4.2649
X5.1442Y-4.3649
X5.1442Y-4.4649
X5.1442Y-4.5649
X5.1442Y-4.6649
X5.1442Y-4.7649
X5.1442Y-4.8649
X5.1442Y-4.9649
X5.1442Y-5.0649
X5.1442Y-5.1649
X5.5245Y-3.6196
X5.5245Y-5.3125
X5.6245Y-3.6196
X5.6245Y-5.3125
X5.7245Y-3.6196
X5.7245Y-5.3125
X5.8245Y-3.6196
X5.8245Y-5.3125
X5.8442Y-2.372
X5.8442Y-2.472
X5.8442Y-2.572
X5.8442Y-2.672
X5.8442Y-2.772
X5.8442Y-2.872
X5.8442Y-2.972
X5.8442Y-3.072
X5.8442Y-3.172
X5.8442Y-3.272
X5.8442Y-3.372
X5.8442Y-3.472
X5.8442Y-4.0649
X5.8442Y-4.1649
X5.8442Y-4.2649
X5.8442Y-4.3649
X5.8442Y-4.4649
X5.8442Y-4.5649
X5.8442Y-4.6649
X5.8442Y-4.7649
X5.8442Y-4.8649
X5.8442Y-4.9649
X5.8442Y-5.0649
X5.8442Y-5.1649
X6.03Y-2.472
X6.03Y-2.572
X6.03Y-2.672
X6.03Y-2.772
X6.03Y-2.872
X6.03Y-2.972
X6.03Y-3.072
X6.03Y-3.172
X6.03Y-3.272
X6.03Y-3.372
X6.03Y-3.472
X6.03Y-4.1649
X6.03Y-4.2649
X6.03Y-4.3649
X6.03Y-4.4649
X6.03Y-4.5649
X6.03Y-4.6649
X6.03Y-4.7649
X6.03Y-4.8649
X6.03Y-4.9649
X6.03Y-5.0649
X6.03Y-5.1649
X6.4103Y-3.6196
X6.4103Y-5.3125
X6.5103Y-3.6196
X6.5103Y-5.3125
X6.6103Y-3.6196
X6.6103Y-5.3125
X6.7103Y-3.6196
X6.7103Y-5.3125
X6.73Y-2.372
X6.73Y-2.472
X6.73Y-2.572
X6.73Y-2.672
X6.73Y-2.772
X6.73Y-2.872
X6.73Y-2.972
X6.73Y-3.072
X6.73Y-3.172
X6.73Y-3.272
X6.73Y-3.372
X6.73Y-3.472
X6.73Y-4.0649
X6.73Y-4.1649
X6.73Y-4.2649
X6.73Y-4.3649
X6.73Y-4.4649
X6.73Y-4.5649
X6.73Y-4.6649
X6.73Y-4.7649
X6.73Y-4.8649
X6.73Y-4.9649
X6.73Y-5.0649
X6.73Y-5.1649
T2
G00X4.4385Y-2.1122
M15
G01X4.4385Y-2.1437
M16
G05
G00X4.4385Y-2.2709
M15
G01X4.4385Y-2.3142
M16
G05
G00X4.4385Y-3.8051
M15
G01X4.4385Y-3.8366
M16
G05
G00X4.4385Y-3.9638
M15
G01X4.4385Y-4.0071
M16
G05
G00X4.7786Y-2.1122
M15
G01X4.7786Y-2.1437
M16
G05
G00X4.7786Y-2.2709
M15
G01X4.7786Y-2.3142
M16
G05
G00X4.7786Y-3.8051
M15
G01X4.7786Y-3.8366
M16
G05
G00X4.7786Y-3.9638
M15
G01X4.7786Y-4.0071
M16
G05
G00X5.3243Y-2.1122
M15
G01X5.3243Y-2.1437
M16
G05
G00X5.3243Y-2.2709
M15
G01X5.3243Y-2.3142
M16
G05
G00X5.3243Y-3.8051
M15
G01X5.3243Y-3.8366
M16
G05
G00X5.3243Y-3.9638
M15
G01X5.3243Y-4.0071
M16
G05
G00X5.6644Y-2.1122
M15
G01X5.6644Y-2.1437
M16
G05
G00X5.6644Y-2.2709
M15
G01X5.6644Y-2.3142
M16
G05
G00X5.6644Y-3.8051
M15
G01X5.6644Y-3.8366
M16
G05
G00X5.6644Y-3.9638
M15
G01X5.6644Y-4.0071
M16
G05
G00X6.2101Y-2.1122
M15
G01X6.2101Y-2.1437
M16
G05
G00X6.2101Y-2.2709
M15
G01X6.2101Y-2.3142
M16
G05
G00X6.2101Y-3.8051
M15
G01X6.2101Y-3.8366
M16
G05
G00X6.2101Y-3.9638
M15
G01X6.2101Y-4.0071
M16
G05
G00X6.5503Y-2.1122
M15
G01X6.5503Y-2.1437
M16
G05
G00X6.5503Y-2.2709
M15
G01X6.5503Y-2.3142
M16
G05
G00X6.5503Y-3.8051
M15
G01X6.5503Y-3.8366
M16
G05
G00X6.5503Y-3.9638
M15
G01X6.5503Y-4.0071
M16
G05
T0
M30
