%TF.GenerationSoftware,KiCad,Pcbnew,(6.0.8)*%
%TF.CreationDate,2023-05-03T14:57:22+02:00*%
%TF.ProjectId,Floppy Board v3.1,466c6f70-7079-4204-926f-617264207633,3.0*%
%TF.SameCoordinates,Original*%
%TF.FileFunction,Drillmap*%
%TF.FilePolarity,Positive*%
%FSLAX45Y45*%
G04 Gerber Fmt 4.5, Leading zero omitted, Abs format (unit mm)*
G04 Created by KiCad (PCBNEW (6.0.8)) date 2023-05-03 14:57:22*
%MOMM*%
%LPD*%
G01*
G04 APERTURE LIST*
%ADD10C,0.100000*%
%ADD11C,0.200000*%
%ADD12C,0.020000*%
%ADD13C,0.060000*%
G04 APERTURE END LIST*
D10*
X14156200Y-13680800D02*
X14781200Y-13680800D01*
X16006200Y-13680800D02*
X15381200Y-13680800D01*
X16406200Y-13680800D02*
X17031200Y-13680800D01*
X16406200Y-13880800D02*
X17231200Y-13880800D01*
X14156200Y-13880800D02*
X16006200Y-13880800D01*
X11506200Y-13880800D02*
X10681200Y-13880800D01*
X11506200Y-13680800D02*
X10881200Y-13680800D01*
X11906200Y-13680800D02*
X12531200Y-13680800D01*
X13756200Y-13880800D02*
X11906200Y-13880800D01*
X13756200Y-13680800D02*
X13131200Y-13680800D01*
X12931200Y-12880800D02*
X12931200Y-13480800D01*
X12731200Y-12880800D02*
X12731200Y-13480800D01*
X12731200Y-12480800D02*
X12731200Y-10780800D01*
X12931200Y-10780800D02*
X12931200Y-12480800D01*
X15181200Y-12880800D02*
X15181200Y-13480800D01*
X14981200Y-12880800D02*
X14981200Y-13480800D01*
X14981200Y-12480800D02*
X14981200Y-10780800D01*
X15181200Y-10780800D02*
X15181200Y-12480800D01*
X16406200Y-9580800D02*
X17031200Y-9580800D01*
X16406200Y-9380800D02*
X17031200Y-9380800D01*
X15181200Y-6080800D02*
X15181200Y-5480800D01*
X14981200Y-6080800D02*
X14981200Y-5480800D01*
X15181200Y-8180800D02*
X15181200Y-6480800D01*
X14981200Y-6480800D02*
X14981200Y-8180800D01*
X14981200Y-8580800D02*
X14981200Y-9180800D01*
X15181200Y-8580800D02*
X15181200Y-9180800D01*
X16006200Y-9380800D02*
X15381200Y-9380800D01*
X16006200Y-9580800D02*
X15381200Y-9580800D01*
X15181200Y-10380800D02*
X15181200Y-9780800D01*
X14981200Y-10380800D02*
X14981200Y-9780800D01*
X14156200Y-9580800D02*
X14781200Y-9580800D01*
X14156200Y-9380800D02*
X14781200Y-9380800D01*
X13756200Y-9380800D02*
X13131200Y-9380800D01*
X13756200Y-9580800D02*
X13131200Y-9580800D01*
X11506200Y-9580800D02*
X10881200Y-9580800D01*
X11506200Y-9380800D02*
X10881200Y-9380800D01*
X11906200Y-9380800D02*
X12531200Y-9380800D01*
X11906200Y-9580800D02*
X12531200Y-9580800D01*
X12931200Y-10380800D02*
X12931200Y-9780800D01*
X12731200Y-10380800D02*
X12731200Y-9780800D01*
X12931200Y-8580800D02*
X12931200Y-9180800D01*
X12731200Y-8580800D02*
X12731200Y-9180800D01*
X12731200Y-6480800D02*
X12731200Y-8180800D01*
X12931200Y-6480800D02*
X12931200Y-8180800D01*
X12931200Y-5480800D02*
X12931200Y-6080800D01*
X12731200Y-5480800D02*
X12731200Y-6080800D01*
X11506200Y-5280800D02*
X10881200Y-5280800D01*
X12531200Y-5280800D02*
X11906200Y-5280800D01*
X13756200Y-5280800D02*
X13131200Y-5280800D01*
X14781200Y-5280800D02*
X14156200Y-5280800D01*
X16006200Y-5280800D02*
X15381200Y-5280800D01*
X17031200Y-5280800D02*
X16406200Y-5280800D01*
X16406200Y-5080800D02*
X17231200Y-5080800D01*
X14156200Y-5080800D02*
X16006200Y-5080800D01*
X11906200Y-5080800D02*
X13756200Y-5080800D01*
X10681200Y-5080800D02*
X11506200Y-5080800D01*
X10681200Y-14380800D02*
X10681200Y-13880800D01*
X17231200Y-14380800D02*
X10681200Y-14380800D01*
X17231200Y-13880800D02*
X17231200Y-14380800D01*
X17231200Y-4580800D02*
X17231200Y-5080800D01*
X10681200Y-4580800D02*
X17231200Y-4580800D01*
X10681200Y-5080800D02*
X10681200Y-4580800D01*
X17231200Y-9780800D02*
G75*
G03*
X17031200Y-9580800I-200000J0D01*
G01*
X15381200Y-9580800D02*
G75*
G03*
X15181200Y-9780800I0J-200000D01*
G01*
X17231200Y-9780800D02*
X17231200Y-13480800D01*
X15181200Y-13480800D02*
G75*
G03*
X15381200Y-13680800I200000J0D01*
G01*
X17031200Y-13680800D02*
G75*
G03*
X17231200Y-13480800I0J200000D01*
G01*
X17231200Y-5480800D02*
G75*
G03*
X17031200Y-5280800I-200000J0D01*
G01*
X15381200Y-5280800D02*
G75*
G03*
X15181200Y-5480800I0J-200000D01*
G01*
X17231200Y-5480800D02*
X17231200Y-9180800D01*
X15181200Y-9180800D02*
G75*
G03*
X15381200Y-9380800I200000J0D01*
G01*
X17031200Y-9380800D02*
G75*
G03*
X17231200Y-9180800I0J200000D01*
G01*
X14981200Y-9780800D02*
G75*
G03*
X14781200Y-9580800I-200000J0D01*
G01*
X13131200Y-9580800D02*
G75*
G03*
X12931200Y-9780800I0J-200000D01*
G01*
X12931200Y-13480800D02*
G75*
G03*
X13131200Y-13680800I200000J0D01*
G01*
X14781200Y-13680800D02*
G75*
G03*
X14981200Y-13480800I0J200000D01*
G01*
X14981200Y-5480800D02*
G75*
G03*
X14781200Y-5280800I-200000J0D01*
G01*
X13131200Y-5280800D02*
G75*
G03*
X12931200Y-5480800I0J-200000D01*
G01*
X12931200Y-9180800D02*
G75*
G03*
X13131200Y-9380800I200000J0D01*
G01*
X14781200Y-9380800D02*
G75*
G03*
X14981200Y-9180800I0J200000D01*
G01*
X12731200Y-9780800D02*
G75*
G03*
X12531200Y-9580800I-200000J0D01*
G01*
X10881200Y-9580800D02*
G75*
G03*
X10681200Y-9780800I0J-200000D01*
G01*
X10681200Y-13480800D02*
G75*
G03*
X10881200Y-13680800I200000J0D01*
G01*
X10681200Y-13480800D02*
X10681200Y-9780800D01*
X12531200Y-13680800D02*
G75*
G03*
X12731200Y-13480800I0J200000D01*
G01*
X10681200Y-9180800D02*
X10681200Y-5480800D01*
X12531200Y-9380800D02*
G75*
G03*
X12731200Y-9180800I0J200000D01*
G01*
X10681200Y-9180800D02*
G75*
G03*
X10881200Y-9380800I200000J0D01*
G01*
X10881200Y-5280800D02*
G75*
G03*
X10681200Y-5480800I0J-200000D01*
G01*
X12731200Y-5480800D02*
G75*
G03*
X12531200Y-5280800I-200000J0D01*
G01*
D11*
D12*
X10740160Y-6908880D02*
X10760160Y-6928880D01*
X10760160Y-6908880D02*
X10740160Y-6928880D01*
X10740160Y-11208880D02*
X10760160Y-11228880D01*
X10760160Y-11208880D02*
X10740160Y-11228880D01*
X10745240Y-7919800D02*
X10765240Y-7939800D01*
X10765240Y-7919800D02*
X10745240Y-7939800D01*
X10745240Y-12219800D02*
X10765240Y-12239800D01*
X10765240Y-12219800D02*
X10745240Y-12239800D01*
X10869700Y-7157800D02*
X10889700Y-7177800D01*
X10889700Y-7157800D02*
X10869700Y-7177800D01*
X10869700Y-11457800D02*
X10889700Y-11477800D01*
X10889700Y-11457800D02*
X10869700Y-11477800D01*
X10882400Y-5456000D02*
X10902400Y-5476000D01*
X10902400Y-5456000D02*
X10882400Y-5476000D01*
X10882400Y-5989400D02*
X10902400Y-6009400D01*
X10902400Y-5989400D02*
X10882400Y-6009400D01*
X10882400Y-9756000D02*
X10902400Y-9776000D01*
X10902400Y-9756000D02*
X10882400Y-9776000D01*
X10882400Y-10289400D02*
X10902400Y-10309400D01*
X10902400Y-10289400D02*
X10882400Y-10309400D01*
X10912880Y-9118680D02*
X10932880Y-9138680D01*
X10932880Y-9118680D02*
X10912880Y-9138680D01*
X10912880Y-13418680D02*
X10932880Y-13438680D01*
X10932880Y-13418680D02*
X10912880Y-13438680D01*
X10958600Y-8021400D02*
X10978600Y-8041400D01*
X10978600Y-8021400D02*
X10958600Y-8041400D01*
X10958600Y-8288100D02*
X10978600Y-8308100D01*
X10978600Y-8288100D02*
X10958600Y-8308100D01*
X10958600Y-8516700D02*
X10978600Y-8536700D01*
X10978600Y-8516700D02*
X10958600Y-8536700D01*
X10958600Y-12321400D02*
X10978600Y-12341400D01*
X10978600Y-12321400D02*
X10958600Y-12341400D01*
X10958600Y-12588100D02*
X10978600Y-12608100D01*
X10978600Y-12588100D02*
X10958600Y-12608100D01*
X10958600Y-12816700D02*
X10978600Y-12836700D01*
X10978600Y-12816700D02*
X10958600Y-12836700D01*
X10961140Y-7521020D02*
X10981140Y-7541020D01*
X10981140Y-7521020D02*
X10961140Y-7541020D01*
X10961140Y-11821020D02*
X10981140Y-11841020D01*
X10981140Y-11821020D02*
X10961140Y-11841020D01*
X10989080Y-7157800D02*
X11009080Y-7177800D01*
X11009080Y-7157800D02*
X10989080Y-7177800D01*
X10989080Y-11457800D02*
X11009080Y-11477800D01*
X11009080Y-11457800D02*
X10989080Y-11477800D01*
X11044960Y-7449900D02*
X11064960Y-7469900D01*
X11064960Y-7449900D02*
X11044960Y-7469900D01*
X11044960Y-11749900D02*
X11064960Y-11769900D01*
X11064960Y-11749900D02*
X11044960Y-11769900D01*
X11123700Y-7383860D02*
X11143700Y-7403860D01*
X11143700Y-7383860D02*
X11123700Y-7403860D01*
X11123700Y-11683860D02*
X11143700Y-11703860D01*
X11143700Y-11683860D02*
X11123700Y-11703860D01*
X11143550Y-8539560D02*
X11163550Y-8559560D01*
X11163550Y-8539560D02*
X11143550Y-8559560D01*
X11143550Y-12839560D02*
X11163550Y-12859560D01*
X11163550Y-12839560D02*
X11143550Y-12859560D01*
X11207520Y-8666560D02*
X11227520Y-8686560D01*
X11227520Y-8666560D02*
X11207520Y-8686560D01*
X11207520Y-12966560D02*
X11227520Y-12986560D01*
X11227520Y-12966560D02*
X11207520Y-12986560D01*
X11220220Y-7841060D02*
X11240220Y-7861060D01*
X11240220Y-7841060D02*
X11220220Y-7861060D01*
X11220220Y-12141060D02*
X11240220Y-12161060D01*
X11240220Y-12141060D02*
X11220220Y-12161060D01*
X11227840Y-6665040D02*
X11247840Y-6685040D01*
X11247840Y-6665040D02*
X11227840Y-6685040D01*
X11227840Y-10965040D02*
X11247840Y-10985040D01*
X11247840Y-10965040D02*
X11227840Y-10985040D01*
X11271357Y-6932077D02*
X11291357Y-6952077D01*
X11291357Y-6932077D02*
X11271357Y-6952077D01*
X11271357Y-11232077D02*
X11291357Y-11252077D01*
X11291357Y-11232077D02*
X11271357Y-11252077D01*
X11314200Y-7157800D02*
X11334200Y-7177800D01*
X11334200Y-7157800D02*
X11314200Y-7177800D01*
X11314200Y-11457800D02*
X11334200Y-11477800D01*
X11334200Y-11457800D02*
X11314200Y-11477800D01*
X11349760Y-6446600D02*
X11369760Y-6466600D01*
X11369760Y-6446600D02*
X11349760Y-6466600D01*
X11349760Y-9123760D02*
X11369760Y-9143760D01*
X11369760Y-9123760D02*
X11349760Y-9143760D01*
X11349760Y-10746600D02*
X11369760Y-10766600D01*
X11369760Y-10746600D02*
X11349760Y-10766600D01*
X11349760Y-13423760D02*
X11369760Y-13443760D01*
X11369760Y-13423760D02*
X11349760Y-13443760D01*
X11384387Y-7031733D02*
X11404387Y-7051733D01*
X11404387Y-7031733D02*
X11384387Y-7051733D01*
X11384387Y-11331733D02*
X11404387Y-11351733D01*
X11404387Y-11331733D02*
X11384387Y-11351733D01*
X11385320Y-8600520D02*
X11405320Y-8620520D01*
X11405320Y-8600520D02*
X11385320Y-8620520D01*
X11385320Y-12900520D02*
X11405320Y-12920520D01*
X11405320Y-12900520D02*
X11385320Y-12920520D01*
X11441200Y-8013780D02*
X11461200Y-8033780D01*
X11461200Y-8013780D02*
X11441200Y-8033780D01*
X11441200Y-12313780D02*
X11461200Y-12333780D01*
X11461200Y-12313780D02*
X11441200Y-12333780D01*
X11456440Y-6792040D02*
X11476440Y-6812040D01*
X11476440Y-6792040D02*
X11456440Y-6812040D01*
X11456440Y-11092040D02*
X11476440Y-11112040D01*
X11476440Y-11092040D02*
X11456440Y-11112040D01*
X11519940Y-5981780D02*
X11539940Y-6001780D01*
X11539940Y-5981780D02*
X11519940Y-6001780D01*
X11519940Y-10281780D02*
X11539940Y-10301780D01*
X11539940Y-10281780D02*
X11519940Y-10301780D01*
X11563120Y-7620080D02*
X11583120Y-7640080D01*
X11583120Y-7620080D02*
X11563120Y-7640080D01*
X11563120Y-11920080D02*
X11583120Y-11940080D01*
X11583120Y-11920080D02*
X11563120Y-11940080D01*
X11608279Y-7008857D02*
X11628279Y-7028857D01*
X11628279Y-7008857D02*
X11608279Y-7028857D01*
X11608279Y-11308857D02*
X11628279Y-11328857D01*
X11628279Y-11308857D02*
X11608279Y-11328857D01*
X11619000Y-7315280D02*
X11639000Y-7335280D01*
X11639000Y-7315280D02*
X11619000Y-7335280D01*
X11619000Y-11615280D02*
X11639000Y-11635280D01*
X11639000Y-11615280D02*
X11619000Y-11635280D01*
X11624080Y-7162880D02*
X11644080Y-7182880D01*
X11644080Y-7162880D02*
X11624080Y-7182880D01*
X11624080Y-11462880D02*
X11644080Y-11482880D01*
X11644080Y-11462880D02*
X11624080Y-11482880D01*
X11695200Y-5542360D02*
X11715200Y-5562360D01*
X11715200Y-5542360D02*
X11695200Y-5562360D01*
X11695200Y-8631000D02*
X11715200Y-8651000D01*
X11715200Y-8631000D02*
X11695200Y-8651000D01*
X11695200Y-9842360D02*
X11715200Y-9862360D01*
X11715200Y-9842360D02*
X11695200Y-9862360D01*
X11695200Y-12931000D02*
X11715200Y-12951000D01*
X11715200Y-12931000D02*
X11695200Y-12951000D01*
X11696100Y-8260920D02*
X11716100Y-8280920D01*
X11716100Y-8260920D02*
X11696100Y-8280920D01*
X11696100Y-12560920D02*
X11716100Y-12580920D01*
X11716100Y-12560920D02*
X11696100Y-12580920D01*
X11703236Y-8083166D02*
X11723236Y-8103166D01*
X11723236Y-8083166D02*
X11703236Y-8103166D01*
X11703236Y-12383166D02*
X11723236Y-12403166D01*
X11723236Y-12383166D02*
X11703236Y-12403166D01*
X11718060Y-6024960D02*
X11738060Y-6044960D01*
X11738060Y-6024960D02*
X11718060Y-6044960D01*
X11718060Y-10324960D02*
X11738060Y-10344960D01*
X11738060Y-10324960D02*
X11718060Y-10344960D01*
X11731419Y-7280379D02*
X11751419Y-7300379D01*
X11751419Y-7280379D02*
X11731419Y-7300379D01*
X11731419Y-11580379D02*
X11751419Y-11600379D01*
X11751419Y-11580379D02*
X11731419Y-11600379D01*
X11774750Y-8107760D02*
X11794750Y-8127760D01*
X11794750Y-8107760D02*
X11774750Y-8127760D01*
X11774750Y-12407760D02*
X11794750Y-12427760D01*
X11794750Y-12407760D02*
X11774750Y-12427760D01*
X11801880Y-6027500D02*
X11821880Y-6047500D01*
X11821880Y-6027500D02*
X11801880Y-6047500D01*
X11801880Y-10327500D02*
X11821880Y-10347500D01*
X11821880Y-10327500D02*
X11801880Y-10347500D01*
X11820240Y-8598543D02*
X11840240Y-8618543D01*
X11840240Y-8598543D02*
X11820240Y-8618543D01*
X11820240Y-12898543D02*
X11840240Y-12918543D01*
X11840240Y-12898543D02*
X11820240Y-12918543D01*
X11852680Y-7333060D02*
X11872680Y-7353060D01*
X11872680Y-7333060D02*
X11852680Y-7353060D01*
X11852680Y-11633060D02*
X11872680Y-11653060D01*
X11872680Y-11633060D02*
X11852680Y-11653060D01*
X11862840Y-5981780D02*
X11882840Y-6001780D01*
X11882840Y-5981780D02*
X11862840Y-6001780D01*
X11862840Y-10281780D02*
X11882840Y-10301780D01*
X11882840Y-10281780D02*
X11862840Y-10301780D01*
X11893320Y-6990160D02*
X11913320Y-7010160D01*
X11913320Y-6990160D02*
X11893320Y-7010160D01*
X11893320Y-11290160D02*
X11913320Y-11310160D01*
X11913320Y-11290160D02*
X11893320Y-11310160D01*
X11911100Y-9050100D02*
X11931100Y-9070100D01*
X11931100Y-9050100D02*
X11911100Y-9070100D01*
X11911100Y-13350100D02*
X11931100Y-13370100D01*
X11931100Y-13350100D02*
X11911100Y-13370100D01*
X11918720Y-7122240D02*
X11938720Y-7142240D01*
X11938720Y-7122240D02*
X11918720Y-7142240D01*
X11918720Y-11422240D02*
X11938720Y-11442240D01*
X11938720Y-11422240D02*
X11918720Y-11442240D01*
X11954280Y-7742000D02*
X11974280Y-7762000D01*
X11974280Y-7742000D02*
X11954280Y-7762000D01*
X11954280Y-12042000D02*
X11974280Y-12062000D01*
X11974280Y-12042000D02*
X11954280Y-12062000D01*
X11989840Y-8082360D02*
X12009840Y-8102360D01*
X12009840Y-8082360D02*
X11989840Y-8102360D01*
X11989840Y-12382360D02*
X12009840Y-12402360D01*
X12009840Y-12382360D02*
X11989840Y-12402360D01*
X12015240Y-8592510D02*
X12035240Y-8612510D01*
X12035240Y-8592510D02*
X12015240Y-8612510D01*
X12015240Y-12892510D02*
X12035240Y-12912510D01*
X12035240Y-12892510D02*
X12015240Y-12912510D01*
X12086360Y-7845650D02*
X12106360Y-7865650D01*
X12106360Y-7845650D02*
X12086360Y-7865650D01*
X12086360Y-12145650D02*
X12106360Y-12165650D01*
X12106360Y-12145650D02*
X12086360Y-12165650D01*
X12096520Y-6543120D02*
X12116520Y-6563120D01*
X12116520Y-6543120D02*
X12096520Y-6563120D01*
X12096520Y-10843120D02*
X12116520Y-10863120D01*
X12116520Y-10843120D02*
X12096520Y-10863120D01*
X12162560Y-7604840D02*
X12182560Y-7624840D01*
X12182560Y-7604840D02*
X12162560Y-7624840D01*
X12162560Y-11904840D02*
X12182560Y-11924840D01*
X12182560Y-11904840D02*
X12162560Y-11924840D01*
X12355600Y-6421200D02*
X12375600Y-6441200D01*
X12375600Y-6421200D02*
X12355600Y-6441200D01*
X12355600Y-10721200D02*
X12375600Y-10741200D01*
X12375600Y-10721200D02*
X12355600Y-10741200D01*
X12444500Y-8643700D02*
X12464500Y-8663700D01*
X12464500Y-8643700D02*
X12444500Y-8663700D01*
X12444500Y-12943700D02*
X12464500Y-12963700D01*
X12464500Y-12943700D02*
X12444500Y-12963700D01*
X12454660Y-7005400D02*
X12474660Y-7025400D01*
X12474660Y-7005400D02*
X12454660Y-7025400D01*
X12454660Y-11305400D02*
X12474660Y-11325400D01*
X12474660Y-11305400D02*
X12454660Y-11325400D01*
X12520700Y-5443300D02*
X12540700Y-5463300D01*
X12540700Y-5443300D02*
X12520700Y-5463300D01*
X12520700Y-5760800D02*
X12540700Y-5780800D01*
X12540700Y-5760800D02*
X12520700Y-5780800D01*
X12520700Y-9743300D02*
X12540700Y-9763300D01*
X12540700Y-9743300D02*
X12520700Y-9763300D01*
X12520700Y-10060800D02*
X12540700Y-10080800D01*
X12540700Y-10060800D02*
X12520700Y-10080800D01*
X12647700Y-7157800D02*
X12667700Y-7177800D01*
X12667700Y-7157800D02*
X12647700Y-7177800D01*
X12647700Y-7411800D02*
X12667700Y-7431800D01*
X12667700Y-7411800D02*
X12647700Y-7431800D01*
X12647700Y-7665800D02*
X12667700Y-7685800D01*
X12667700Y-7665800D02*
X12647700Y-7685800D01*
X12647700Y-7919800D02*
X12667700Y-7939800D01*
X12667700Y-7919800D02*
X12647700Y-7939800D01*
X12647700Y-8173800D02*
X12667700Y-8193800D01*
X12667700Y-8173800D02*
X12647700Y-8193800D01*
X12647700Y-8427800D02*
X12667700Y-8447800D01*
X12667700Y-8427800D02*
X12647700Y-8447800D01*
X12647700Y-11457800D02*
X12667700Y-11477800D01*
X12667700Y-11457800D02*
X12647700Y-11477800D01*
X12647700Y-11711800D02*
X12667700Y-11731800D01*
X12667700Y-11711800D02*
X12647700Y-11731800D01*
X12647700Y-11965800D02*
X12667700Y-11985800D01*
X12667700Y-11965800D02*
X12647700Y-11985800D01*
X12647700Y-12219800D02*
X12667700Y-12239800D01*
X12667700Y-12219800D02*
X12647700Y-12239800D01*
X12647700Y-12473800D02*
X12667700Y-12493800D01*
X12667700Y-12473800D02*
X12647700Y-12493800D01*
X12647700Y-12727800D02*
X12667700Y-12747800D01*
X12667700Y-12727800D02*
X12647700Y-12747800D01*
X12650240Y-6903800D02*
X12670240Y-6923800D01*
X12670240Y-6903800D02*
X12650240Y-6923800D01*
X12650240Y-11203800D02*
X12670240Y-11223800D01*
X12670240Y-11203800D02*
X12650240Y-11223800D01*
X12990160Y-6908880D02*
X13010160Y-6928880D01*
X13010160Y-6908880D02*
X12990160Y-6928880D01*
X12990160Y-11208880D02*
X13010160Y-11228880D01*
X13010160Y-11208880D02*
X12990160Y-11228880D01*
X12995240Y-7919800D02*
X13015240Y-7939800D01*
X13015240Y-7919800D02*
X12995240Y-7939800D01*
X12995240Y-12219800D02*
X13015240Y-12239800D01*
X13015240Y-12219800D02*
X12995240Y-12239800D01*
X13119700Y-7157800D02*
X13139700Y-7177800D01*
X13139700Y-7157800D02*
X13119700Y-7177800D01*
X13119700Y-11457800D02*
X13139700Y-11477800D01*
X13139700Y-11457800D02*
X13119700Y-11477800D01*
X13132400Y-5456000D02*
X13152400Y-5476000D01*
X13152400Y-5456000D02*
X13132400Y-5476000D01*
X13132400Y-5989400D02*
X13152400Y-6009400D01*
X13152400Y-5989400D02*
X13132400Y-6009400D01*
X13132400Y-9756000D02*
X13152400Y-9776000D01*
X13152400Y-9756000D02*
X13132400Y-9776000D01*
X13132400Y-10289400D02*
X13152400Y-10309400D01*
X13152400Y-10289400D02*
X13132400Y-10309400D01*
X13162880Y-9118680D02*
X13182880Y-9138680D01*
X13182880Y-9118680D02*
X13162880Y-9138680D01*
X13162880Y-13418680D02*
X13182880Y-13438680D01*
X13182880Y-13418680D02*
X13162880Y-13438680D01*
X13208600Y-8021400D02*
X13228600Y-8041400D01*
X13228600Y-8021400D02*
X13208600Y-8041400D01*
X13208600Y-8288100D02*
X13228600Y-8308100D01*
X13228600Y-8288100D02*
X13208600Y-8308100D01*
X13208600Y-8516700D02*
X13228600Y-8536700D01*
X13228600Y-8516700D02*
X13208600Y-8536700D01*
X13208600Y-12321400D02*
X13228600Y-12341400D01*
X13228600Y-12321400D02*
X13208600Y-12341400D01*
X13208600Y-12588100D02*
X13228600Y-12608100D01*
X13228600Y-12588100D02*
X13208600Y-12608100D01*
X13208600Y-12816700D02*
X13228600Y-12836700D01*
X13228600Y-12816700D02*
X13208600Y-12836700D01*
X13211140Y-7521020D02*
X13231140Y-7541020D01*
X13231140Y-7521020D02*
X13211140Y-7541020D01*
X13211140Y-11821020D02*
X13231140Y-11841020D01*
X13231140Y-11821020D02*
X13211140Y-11841020D01*
X13239080Y-7157800D02*
X13259080Y-7177800D01*
X13259080Y-7157800D02*
X13239080Y-7177800D01*
X13239080Y-11457800D02*
X13259080Y-11477800D01*
X13259080Y-11457800D02*
X13239080Y-11477800D01*
X13294960Y-7449900D02*
X13314960Y-7469900D01*
X13314960Y-7449900D02*
X13294960Y-7469900D01*
X13294960Y-11749900D02*
X13314960Y-11769900D01*
X13314960Y-11749900D02*
X13294960Y-11769900D01*
X13373700Y-7383860D02*
X13393700Y-7403860D01*
X13393700Y-7383860D02*
X13373700Y-7403860D01*
X13373700Y-11683860D02*
X13393700Y-11703860D01*
X13393700Y-11683860D02*
X13373700Y-11703860D01*
X13393550Y-8539560D02*
X13413550Y-8559560D01*
X13413550Y-8539560D02*
X13393550Y-8559560D01*
X13393550Y-12839560D02*
X13413550Y-12859560D01*
X13413550Y-12839560D02*
X13393550Y-12859560D01*
X13457520Y-8666560D02*
X13477520Y-8686560D01*
X13477520Y-8666560D02*
X13457520Y-8686560D01*
X13457520Y-12966560D02*
X13477520Y-12986560D01*
X13477520Y-12966560D02*
X13457520Y-12986560D01*
X13470220Y-7841060D02*
X13490220Y-7861060D01*
X13490220Y-7841060D02*
X13470220Y-7861060D01*
X13470220Y-12141060D02*
X13490220Y-12161060D01*
X13490220Y-12141060D02*
X13470220Y-12161060D01*
X13477840Y-6665040D02*
X13497840Y-6685040D01*
X13497840Y-6665040D02*
X13477840Y-6685040D01*
X13477840Y-10965040D02*
X13497840Y-10985040D01*
X13497840Y-10965040D02*
X13477840Y-10985040D01*
X13521357Y-6932077D02*
X13541357Y-6952077D01*
X13541357Y-6932077D02*
X13521357Y-6952077D01*
X13521357Y-11232077D02*
X13541357Y-11252077D01*
X13541357Y-11232077D02*
X13521357Y-11252077D01*
X13564200Y-7157800D02*
X13584200Y-7177800D01*
X13584200Y-7157800D02*
X13564200Y-7177800D01*
X13564200Y-11457800D02*
X13584200Y-11477800D01*
X13584200Y-11457800D02*
X13564200Y-11477800D01*
X13599760Y-6446600D02*
X13619760Y-6466600D01*
X13619760Y-6446600D02*
X13599760Y-6466600D01*
X13599760Y-9123760D02*
X13619760Y-9143760D01*
X13619760Y-9123760D02*
X13599760Y-9143760D01*
X13599760Y-10746600D02*
X13619760Y-10766600D01*
X13619760Y-10746600D02*
X13599760Y-10766600D01*
X13599760Y-13423760D02*
X13619760Y-13443760D01*
X13619760Y-13423760D02*
X13599760Y-13443760D01*
X13634387Y-7031733D02*
X13654387Y-7051733D01*
X13654387Y-7031733D02*
X13634387Y-7051733D01*
X13634387Y-11331733D02*
X13654387Y-11351733D01*
X13654387Y-11331733D02*
X13634387Y-11351733D01*
X13635320Y-8600520D02*
X13655320Y-8620520D01*
X13655320Y-8600520D02*
X13635320Y-8620520D01*
X13635320Y-12900520D02*
X13655320Y-12920520D01*
X13655320Y-12900520D02*
X13635320Y-12920520D01*
X13691200Y-8013780D02*
X13711200Y-8033780D01*
X13711200Y-8013780D02*
X13691200Y-8033780D01*
X13691200Y-12313780D02*
X13711200Y-12333780D01*
X13711200Y-12313780D02*
X13691200Y-12333780D01*
X13706440Y-6792040D02*
X13726440Y-6812040D01*
X13726440Y-6792040D02*
X13706440Y-6812040D01*
X13706440Y-11092040D02*
X13726440Y-11112040D01*
X13726440Y-11092040D02*
X13706440Y-11112040D01*
X13769940Y-5981780D02*
X13789940Y-6001780D01*
X13789940Y-5981780D02*
X13769940Y-6001780D01*
X13769940Y-10281780D02*
X13789940Y-10301780D01*
X13789940Y-10281780D02*
X13769940Y-10301780D01*
X13813120Y-7620080D02*
X13833120Y-7640080D01*
X13833120Y-7620080D02*
X13813120Y-7640080D01*
X13813120Y-11920080D02*
X13833120Y-11940080D01*
X13833120Y-11920080D02*
X13813120Y-11940080D01*
X13858279Y-7008857D02*
X13878279Y-7028857D01*
X13878279Y-7008857D02*
X13858279Y-7028857D01*
X13858279Y-11308857D02*
X13878279Y-11328857D01*
X13878279Y-11308857D02*
X13858279Y-11328857D01*
X13869000Y-7315280D02*
X13889000Y-7335280D01*
X13889000Y-7315280D02*
X13869000Y-7335280D01*
X13869000Y-11615280D02*
X13889000Y-11635280D01*
X13889000Y-11615280D02*
X13869000Y-11635280D01*
X13874080Y-7162880D02*
X13894080Y-7182880D01*
X13894080Y-7162880D02*
X13874080Y-7182880D01*
X13874080Y-11462880D02*
X13894080Y-11482880D01*
X13894080Y-11462880D02*
X13874080Y-11482880D01*
X13945200Y-5542360D02*
X13965200Y-5562360D01*
X13965200Y-5542360D02*
X13945200Y-5562360D01*
X13945200Y-8631000D02*
X13965200Y-8651000D01*
X13965200Y-8631000D02*
X13945200Y-8651000D01*
X13945200Y-9842360D02*
X13965200Y-9862360D01*
X13965200Y-9842360D02*
X13945200Y-9862360D01*
X13945200Y-12931000D02*
X13965200Y-12951000D01*
X13965200Y-12931000D02*
X13945200Y-12951000D01*
X13946100Y-8260920D02*
X13966100Y-8280920D01*
X13966100Y-8260920D02*
X13946100Y-8280920D01*
X13946100Y-12560920D02*
X13966100Y-12580920D01*
X13966100Y-12560920D02*
X13946100Y-12580920D01*
X13953236Y-8083166D02*
X13973236Y-8103166D01*
X13973236Y-8083166D02*
X13953236Y-8103166D01*
X13953236Y-12383166D02*
X13973236Y-12403166D01*
X13973236Y-12383166D02*
X13953236Y-12403166D01*
X13968060Y-6024960D02*
X13988060Y-6044960D01*
X13988060Y-6024960D02*
X13968060Y-6044960D01*
X13968060Y-10324960D02*
X13988060Y-10344960D01*
X13988060Y-10324960D02*
X13968060Y-10344960D01*
X13981419Y-7280379D02*
X14001419Y-7300379D01*
X14001419Y-7280379D02*
X13981419Y-7300379D01*
X13981419Y-11580379D02*
X14001419Y-11600379D01*
X14001419Y-11580379D02*
X13981419Y-11600379D01*
X14024750Y-8107760D02*
X14044750Y-8127760D01*
X14044750Y-8107760D02*
X14024750Y-8127760D01*
X14024750Y-12407760D02*
X14044750Y-12427760D01*
X14044750Y-12407760D02*
X14024750Y-12427760D01*
X14051880Y-6027500D02*
X14071880Y-6047500D01*
X14071880Y-6027500D02*
X14051880Y-6047500D01*
X14051880Y-10327500D02*
X14071880Y-10347500D01*
X14071880Y-10327500D02*
X14051880Y-10347500D01*
X14070240Y-8598543D02*
X14090240Y-8618543D01*
X14090240Y-8598543D02*
X14070240Y-8618543D01*
X14070240Y-12898543D02*
X14090240Y-12918543D01*
X14090240Y-12898543D02*
X14070240Y-12918543D01*
X14102680Y-7333060D02*
X14122680Y-7353060D01*
X14122680Y-7333060D02*
X14102680Y-7353060D01*
X14102680Y-11633060D02*
X14122680Y-11653060D01*
X14122680Y-11633060D02*
X14102680Y-11653060D01*
X14112840Y-5981780D02*
X14132840Y-6001780D01*
X14132840Y-5981780D02*
X14112840Y-6001780D01*
X14112840Y-10281780D02*
X14132840Y-10301780D01*
X14132840Y-10281780D02*
X14112840Y-10301780D01*
X14143320Y-6990160D02*
X14163320Y-7010160D01*
X14163320Y-6990160D02*
X14143320Y-7010160D01*
X14143320Y-11290160D02*
X14163320Y-11310160D01*
X14163320Y-11290160D02*
X14143320Y-11310160D01*
X14161100Y-9050100D02*
X14181100Y-9070100D01*
X14181100Y-9050100D02*
X14161100Y-9070100D01*
X14161100Y-13350100D02*
X14181100Y-13370100D01*
X14181100Y-13350100D02*
X14161100Y-13370100D01*
X14168720Y-7122240D02*
X14188720Y-7142240D01*
X14188720Y-7122240D02*
X14168720Y-7142240D01*
X14168720Y-11422240D02*
X14188720Y-11442240D01*
X14188720Y-11422240D02*
X14168720Y-11442240D01*
X14204280Y-7742000D02*
X14224280Y-7762000D01*
X14224280Y-7742000D02*
X14204280Y-7762000D01*
X14204280Y-12042000D02*
X14224280Y-12062000D01*
X14224280Y-12042000D02*
X14204280Y-12062000D01*
X14239840Y-8082360D02*
X14259840Y-8102360D01*
X14259840Y-8082360D02*
X14239840Y-8102360D01*
X14239840Y-12382360D02*
X14259840Y-12402360D01*
X14259840Y-12382360D02*
X14239840Y-12402360D01*
X14265240Y-8592510D02*
X14285240Y-8612510D01*
X14285240Y-8592510D02*
X14265240Y-8612510D01*
X14265240Y-12892510D02*
X14285240Y-12912510D01*
X14285240Y-12892510D02*
X14265240Y-12912510D01*
X14336360Y-7845650D02*
X14356360Y-7865650D01*
X14356360Y-7845650D02*
X14336360Y-7865650D01*
X14336360Y-12145650D02*
X14356360Y-12165650D01*
X14356360Y-12145650D02*
X14336360Y-12165650D01*
X14346520Y-6543120D02*
X14366520Y-6563120D01*
X14366520Y-6543120D02*
X14346520Y-6563120D01*
X14346520Y-10843120D02*
X14366520Y-10863120D01*
X14366520Y-10843120D02*
X14346520Y-10863120D01*
X14412560Y-7604840D02*
X14432560Y-7624840D01*
X14432560Y-7604840D02*
X14412560Y-7624840D01*
X14412560Y-11904840D02*
X14432560Y-11924840D01*
X14432560Y-11904840D02*
X14412560Y-11924840D01*
X14605600Y-6421200D02*
X14625600Y-6441200D01*
X14625600Y-6421200D02*
X14605600Y-6441200D01*
X14605600Y-10721200D02*
X14625600Y-10741200D01*
X14625600Y-10721200D02*
X14605600Y-10741200D01*
X14694500Y-8643700D02*
X14714500Y-8663700D01*
X14714500Y-8643700D02*
X14694500Y-8663700D01*
X14694500Y-12943700D02*
X14714500Y-12963700D01*
X14714500Y-12943700D02*
X14694500Y-12963700D01*
X14704660Y-7005400D02*
X14724660Y-7025400D01*
X14724660Y-7005400D02*
X14704660Y-7025400D01*
X14704660Y-11305400D02*
X14724660Y-11325400D01*
X14724660Y-11305400D02*
X14704660Y-11325400D01*
X14770700Y-5443300D02*
X14790700Y-5463300D01*
X14790700Y-5443300D02*
X14770700Y-5463300D01*
X14770700Y-5760800D02*
X14790700Y-5780800D01*
X14790700Y-5760800D02*
X14770700Y-5780800D01*
X14770700Y-9743300D02*
X14790700Y-9763300D01*
X14790700Y-9743300D02*
X14770700Y-9763300D01*
X14770700Y-10060800D02*
X14790700Y-10080800D01*
X14790700Y-10060800D02*
X14770700Y-10080800D01*
X14897700Y-7157800D02*
X14917700Y-7177800D01*
X14917700Y-7157800D02*
X14897700Y-7177800D01*
X14897700Y-7411800D02*
X14917700Y-7431800D01*
X14917700Y-7411800D02*
X14897700Y-7431800D01*
X14897700Y-7665800D02*
X14917700Y-7685800D01*
X14917700Y-7665800D02*
X14897700Y-7685800D01*
X14897700Y-7919800D02*
X14917700Y-7939800D01*
X14917700Y-7919800D02*
X14897700Y-7939800D01*
X14897700Y-8173800D02*
X14917700Y-8193800D01*
X14917700Y-8173800D02*
X14897700Y-8193800D01*
X14897700Y-8427800D02*
X14917700Y-8447800D01*
X14917700Y-8427800D02*
X14897700Y-8447800D01*
X14897700Y-11457800D02*
X14917700Y-11477800D01*
X14917700Y-11457800D02*
X14897700Y-11477800D01*
X14897700Y-11711800D02*
X14917700Y-11731800D01*
X14917700Y-11711800D02*
X14897700Y-11731800D01*
X14897700Y-11965800D02*
X14917700Y-11985800D01*
X14917700Y-11965800D02*
X14897700Y-11985800D01*
X14897700Y-12219800D02*
X14917700Y-12239800D01*
X14917700Y-12219800D02*
X14897700Y-12239800D01*
X14897700Y-12473800D02*
X14917700Y-12493800D01*
X14917700Y-12473800D02*
X14897700Y-12493800D01*
X14897700Y-12727800D02*
X14917700Y-12747800D01*
X14917700Y-12727800D02*
X14897700Y-12747800D01*
X14900240Y-6903800D02*
X14920240Y-6923800D01*
X14920240Y-6903800D02*
X14900240Y-6923800D01*
X14900240Y-11203800D02*
X14920240Y-11223800D01*
X14920240Y-11203800D02*
X14900240Y-11223800D01*
X15240160Y-6908880D02*
X15260160Y-6928880D01*
X15260160Y-6908880D02*
X15240160Y-6928880D01*
X15240160Y-11208880D02*
X15260160Y-11228880D01*
X15260160Y-11208880D02*
X15240160Y-11228880D01*
X15245240Y-7919800D02*
X15265240Y-7939800D01*
X15265240Y-7919800D02*
X15245240Y-7939800D01*
X15245240Y-12219800D02*
X15265240Y-12239800D01*
X15265240Y-12219800D02*
X15245240Y-12239800D01*
X15369700Y-7157800D02*
X15389700Y-7177800D01*
X15389700Y-7157800D02*
X15369700Y-7177800D01*
X15369700Y-11457800D02*
X15389700Y-11477800D01*
X15389700Y-11457800D02*
X15369700Y-11477800D01*
X15382400Y-5456000D02*
X15402400Y-5476000D01*
X15402400Y-5456000D02*
X15382400Y-5476000D01*
X15382400Y-5989400D02*
X15402400Y-6009400D01*
X15402400Y-5989400D02*
X15382400Y-6009400D01*
X15382400Y-9756000D02*
X15402400Y-9776000D01*
X15402400Y-9756000D02*
X15382400Y-9776000D01*
X15382400Y-10289400D02*
X15402400Y-10309400D01*
X15402400Y-10289400D02*
X15382400Y-10309400D01*
X15412880Y-9118680D02*
X15432880Y-9138680D01*
X15432880Y-9118680D02*
X15412880Y-9138680D01*
X15412880Y-13418680D02*
X15432880Y-13438680D01*
X15432880Y-13418680D02*
X15412880Y-13438680D01*
X15458600Y-8021400D02*
X15478600Y-8041400D01*
X15478600Y-8021400D02*
X15458600Y-8041400D01*
X15458600Y-8288100D02*
X15478600Y-8308100D01*
X15478600Y-8288100D02*
X15458600Y-8308100D01*
X15458600Y-8516700D02*
X15478600Y-8536700D01*
X15478600Y-8516700D02*
X15458600Y-8536700D01*
X15458600Y-12321400D02*
X15478600Y-12341400D01*
X15478600Y-12321400D02*
X15458600Y-12341400D01*
X15458600Y-12588100D02*
X15478600Y-12608100D01*
X15478600Y-12588100D02*
X15458600Y-12608100D01*
X15458600Y-12816700D02*
X15478600Y-12836700D01*
X15478600Y-12816700D02*
X15458600Y-12836700D01*
X15461140Y-7521020D02*
X15481140Y-7541020D01*
X15481140Y-7521020D02*
X15461140Y-7541020D01*
X15461140Y-11821020D02*
X15481140Y-11841020D01*
X15481140Y-11821020D02*
X15461140Y-11841020D01*
X15489080Y-7157800D02*
X15509080Y-7177800D01*
X15509080Y-7157800D02*
X15489080Y-7177800D01*
X15489080Y-11457800D02*
X15509080Y-11477800D01*
X15509080Y-11457800D02*
X15489080Y-11477800D01*
X15544960Y-7449900D02*
X15564960Y-7469900D01*
X15564960Y-7449900D02*
X15544960Y-7469900D01*
X15544960Y-11749900D02*
X15564960Y-11769900D01*
X15564960Y-11749900D02*
X15544960Y-11769900D01*
X15623700Y-7383860D02*
X15643700Y-7403860D01*
X15643700Y-7383860D02*
X15623700Y-7403860D01*
X15623700Y-11683860D02*
X15643700Y-11703860D01*
X15643700Y-11683860D02*
X15623700Y-11703860D01*
X15643550Y-8539560D02*
X15663550Y-8559560D01*
X15663550Y-8539560D02*
X15643550Y-8559560D01*
X15643550Y-12839560D02*
X15663550Y-12859560D01*
X15663550Y-12839560D02*
X15643550Y-12859560D01*
X15707520Y-8666560D02*
X15727520Y-8686560D01*
X15727520Y-8666560D02*
X15707520Y-8686560D01*
X15707520Y-12966560D02*
X15727520Y-12986560D01*
X15727520Y-12966560D02*
X15707520Y-12986560D01*
X15720220Y-7841060D02*
X15740220Y-7861060D01*
X15740220Y-7841060D02*
X15720220Y-7861060D01*
X15720220Y-12141060D02*
X15740220Y-12161060D01*
X15740220Y-12141060D02*
X15720220Y-12161060D01*
X15727840Y-6665040D02*
X15747840Y-6685040D01*
X15747840Y-6665040D02*
X15727840Y-6685040D01*
X15727840Y-10965040D02*
X15747840Y-10985040D01*
X15747840Y-10965040D02*
X15727840Y-10985040D01*
X15771357Y-6932077D02*
X15791357Y-6952077D01*
X15791357Y-6932077D02*
X15771357Y-6952077D01*
X15771357Y-11232077D02*
X15791357Y-11252077D01*
X15791357Y-11232077D02*
X15771357Y-11252077D01*
X15814200Y-7157800D02*
X15834200Y-7177800D01*
X15834200Y-7157800D02*
X15814200Y-7177800D01*
X15814200Y-11457800D02*
X15834200Y-11477800D01*
X15834200Y-11457800D02*
X15814200Y-11477800D01*
X15849760Y-6446600D02*
X15869760Y-6466600D01*
X15869760Y-6446600D02*
X15849760Y-6466600D01*
X15849760Y-9123760D02*
X15869760Y-9143760D01*
X15869760Y-9123760D02*
X15849760Y-9143760D01*
X15849760Y-10746600D02*
X15869760Y-10766600D01*
X15869760Y-10746600D02*
X15849760Y-10766600D01*
X15849760Y-13423760D02*
X15869760Y-13443760D01*
X15869760Y-13423760D02*
X15849760Y-13443760D01*
X15884387Y-7031733D02*
X15904387Y-7051733D01*
X15904387Y-7031733D02*
X15884387Y-7051733D01*
X15884387Y-11331733D02*
X15904387Y-11351733D01*
X15904387Y-11331733D02*
X15884387Y-11351733D01*
X15885320Y-8600520D02*
X15905320Y-8620520D01*
X15905320Y-8600520D02*
X15885320Y-8620520D01*
X15885320Y-12900520D02*
X15905320Y-12920520D01*
X15905320Y-12900520D02*
X15885320Y-12920520D01*
X15941200Y-8013780D02*
X15961200Y-8033780D01*
X15961200Y-8013780D02*
X15941200Y-8033780D01*
X15941200Y-12313780D02*
X15961200Y-12333780D01*
X15961200Y-12313780D02*
X15941200Y-12333780D01*
X15956440Y-6792040D02*
X15976440Y-6812040D01*
X15976440Y-6792040D02*
X15956440Y-6812040D01*
X15956440Y-11092040D02*
X15976440Y-11112040D01*
X15976440Y-11092040D02*
X15956440Y-11112040D01*
X16019940Y-5981780D02*
X16039940Y-6001780D01*
X16039940Y-5981780D02*
X16019940Y-6001780D01*
X16019940Y-10281780D02*
X16039940Y-10301780D01*
X16039940Y-10281780D02*
X16019940Y-10301780D01*
X16063120Y-7620080D02*
X16083120Y-7640080D01*
X16083120Y-7620080D02*
X16063120Y-7640080D01*
X16063120Y-11920080D02*
X16083120Y-11940080D01*
X16083120Y-11920080D02*
X16063120Y-11940080D01*
X16108279Y-7008857D02*
X16128279Y-7028857D01*
X16128279Y-7008857D02*
X16108279Y-7028857D01*
X16108279Y-11308857D02*
X16128279Y-11328857D01*
X16128279Y-11308857D02*
X16108279Y-11328857D01*
X16119000Y-7315280D02*
X16139000Y-7335280D01*
X16139000Y-7315280D02*
X16119000Y-7335280D01*
X16119000Y-11615280D02*
X16139000Y-11635280D01*
X16139000Y-11615280D02*
X16119000Y-11635280D01*
X16124080Y-7162880D02*
X16144080Y-7182880D01*
X16144080Y-7162880D02*
X16124080Y-7182880D01*
X16124080Y-11462880D02*
X16144080Y-11482880D01*
X16144080Y-11462880D02*
X16124080Y-11482880D01*
X16195200Y-5542360D02*
X16215200Y-5562360D01*
X16215200Y-5542360D02*
X16195200Y-5562360D01*
X16195200Y-8631000D02*
X16215200Y-8651000D01*
X16215200Y-8631000D02*
X16195200Y-8651000D01*
X16195200Y-9842360D02*
X16215200Y-9862360D01*
X16215200Y-9842360D02*
X16195200Y-9862360D01*
X16195200Y-12931000D02*
X16215200Y-12951000D01*
X16215200Y-12931000D02*
X16195200Y-12951000D01*
X16196100Y-8260920D02*
X16216100Y-8280920D01*
X16216100Y-8260920D02*
X16196100Y-8280920D01*
X16196100Y-12560920D02*
X16216100Y-12580920D01*
X16216100Y-12560920D02*
X16196100Y-12580920D01*
X16203236Y-8083166D02*
X16223236Y-8103166D01*
X16223236Y-8083166D02*
X16203236Y-8103166D01*
X16203236Y-12383166D02*
X16223236Y-12403166D01*
X16223236Y-12383166D02*
X16203236Y-12403166D01*
X16218060Y-6024960D02*
X16238060Y-6044960D01*
X16238060Y-6024960D02*
X16218060Y-6044960D01*
X16218060Y-10324960D02*
X16238060Y-10344960D01*
X16238060Y-10324960D02*
X16218060Y-10344960D01*
X16231419Y-7280379D02*
X16251419Y-7300379D01*
X16251419Y-7280379D02*
X16231419Y-7300379D01*
X16231419Y-11580379D02*
X16251419Y-11600379D01*
X16251419Y-11580379D02*
X16231419Y-11600379D01*
X16274750Y-8107760D02*
X16294750Y-8127760D01*
X16294750Y-8107760D02*
X16274750Y-8127760D01*
X16274750Y-12407760D02*
X16294750Y-12427760D01*
X16294750Y-12407760D02*
X16274750Y-12427760D01*
X16301880Y-6027500D02*
X16321880Y-6047500D01*
X16321880Y-6027500D02*
X16301880Y-6047500D01*
X16301880Y-10327500D02*
X16321880Y-10347500D01*
X16321880Y-10327500D02*
X16301880Y-10347500D01*
X16320240Y-8598543D02*
X16340240Y-8618543D01*
X16340240Y-8598543D02*
X16320240Y-8618543D01*
X16320240Y-12898543D02*
X16340240Y-12918543D01*
X16340240Y-12898543D02*
X16320240Y-12918543D01*
X16352680Y-7333060D02*
X16372680Y-7353060D01*
X16372680Y-7333060D02*
X16352680Y-7353060D01*
X16352680Y-11633060D02*
X16372680Y-11653060D01*
X16372680Y-11633060D02*
X16352680Y-11653060D01*
X16362840Y-5981780D02*
X16382840Y-6001780D01*
X16382840Y-5981780D02*
X16362840Y-6001780D01*
X16362840Y-10281780D02*
X16382840Y-10301780D01*
X16382840Y-10281780D02*
X16362840Y-10301780D01*
X16393320Y-6990160D02*
X16413320Y-7010160D01*
X16413320Y-6990160D02*
X16393320Y-7010160D01*
X16393320Y-11290160D02*
X16413320Y-11310160D01*
X16413320Y-11290160D02*
X16393320Y-11310160D01*
X16411100Y-9050100D02*
X16431100Y-9070100D01*
X16431100Y-9050100D02*
X16411100Y-9070100D01*
X16411100Y-13350100D02*
X16431100Y-13370100D01*
X16431100Y-13350100D02*
X16411100Y-13370100D01*
X16418720Y-7122240D02*
X16438720Y-7142240D01*
X16438720Y-7122240D02*
X16418720Y-7142240D01*
X16418720Y-11422240D02*
X16438720Y-11442240D01*
X16438720Y-11422240D02*
X16418720Y-11442240D01*
X16454280Y-7742000D02*
X16474280Y-7762000D01*
X16474280Y-7742000D02*
X16454280Y-7762000D01*
X16454280Y-12042000D02*
X16474280Y-12062000D01*
X16474280Y-12042000D02*
X16454280Y-12062000D01*
X16489840Y-8082360D02*
X16509840Y-8102360D01*
X16509840Y-8082360D02*
X16489840Y-8102360D01*
X16489840Y-12382360D02*
X16509840Y-12402360D01*
X16509840Y-12382360D02*
X16489840Y-12402360D01*
X16515240Y-8592510D02*
X16535240Y-8612510D01*
X16535240Y-8592510D02*
X16515240Y-8612510D01*
X16515240Y-12892510D02*
X16535240Y-12912510D01*
X16535240Y-12892510D02*
X16515240Y-12912510D01*
X16586360Y-7845650D02*
X16606360Y-7865650D01*
X16606360Y-7845650D02*
X16586360Y-7865650D01*
X16586360Y-12145650D02*
X16606360Y-12165650D01*
X16606360Y-12145650D02*
X16586360Y-12165650D01*
X16596520Y-6543120D02*
X16616520Y-6563120D01*
X16616520Y-6543120D02*
X16596520Y-6563120D01*
X16596520Y-10843120D02*
X16616520Y-10863120D01*
X16616520Y-10843120D02*
X16596520Y-10863120D01*
X16662560Y-7604840D02*
X16682560Y-7624840D01*
X16682560Y-7604840D02*
X16662560Y-7624840D01*
X16662560Y-11904840D02*
X16682560Y-11924840D01*
X16682560Y-11904840D02*
X16662560Y-11924840D01*
X16855600Y-6421200D02*
X16875600Y-6441200D01*
X16875600Y-6421200D02*
X16855600Y-6441200D01*
X16855600Y-10721200D02*
X16875600Y-10741200D01*
X16875600Y-10721200D02*
X16855600Y-10741200D01*
X16944500Y-8643700D02*
X16964500Y-8663700D01*
X16964500Y-8643700D02*
X16944500Y-8663700D01*
X16944500Y-12943700D02*
X16964500Y-12963700D01*
X16964500Y-12943700D02*
X16944500Y-12963700D01*
X16954660Y-7005400D02*
X16974660Y-7025400D01*
X16974660Y-7005400D02*
X16954660Y-7025400D01*
X16954660Y-11305400D02*
X16974660Y-11325400D01*
X16974660Y-11305400D02*
X16954660Y-11325400D01*
X17020700Y-5443300D02*
X17040700Y-5463300D01*
X17040700Y-5443300D02*
X17020700Y-5463300D01*
X17020700Y-5760800D02*
X17040700Y-5780800D01*
X17040700Y-5760800D02*
X17020700Y-5780800D01*
X17020700Y-9743300D02*
X17040700Y-9763300D01*
X17040700Y-9743300D02*
X17020700Y-9763300D01*
X17020700Y-10060800D02*
X17040700Y-10080800D01*
X17040700Y-10060800D02*
X17020700Y-10080800D01*
X17147700Y-7157800D02*
X17167700Y-7177800D01*
X17167700Y-7157800D02*
X17147700Y-7177800D01*
X17147700Y-7411800D02*
X17167700Y-7431800D01*
X17167700Y-7411800D02*
X17147700Y-7431800D01*
X17147700Y-7665800D02*
X17167700Y-7685800D01*
X17167700Y-7665800D02*
X17147700Y-7685800D01*
X17147700Y-7919800D02*
X17167700Y-7939800D01*
X17167700Y-7919800D02*
X17147700Y-7939800D01*
X17147700Y-8173800D02*
X17167700Y-8193800D01*
X17167700Y-8173800D02*
X17147700Y-8193800D01*
X17147700Y-8427800D02*
X17167700Y-8447800D01*
X17167700Y-8427800D02*
X17147700Y-8447800D01*
X17147700Y-11457800D02*
X17167700Y-11477800D01*
X17167700Y-11457800D02*
X17147700Y-11477800D01*
X17147700Y-11711800D02*
X17167700Y-11731800D01*
X17167700Y-11711800D02*
X17147700Y-11731800D01*
X17147700Y-11965800D02*
X17167700Y-11985800D01*
X17167700Y-11965800D02*
X17147700Y-11985800D01*
X17147700Y-12219800D02*
X17167700Y-12239800D01*
X17167700Y-12219800D02*
X17147700Y-12239800D01*
X17147700Y-12473800D02*
X17167700Y-12493800D01*
X17167700Y-12473800D02*
X17147700Y-12493800D01*
X17147700Y-12727800D02*
X17167700Y-12747800D01*
X17167700Y-12727800D02*
X17147700Y-12747800D01*
X17150240Y-6903800D02*
X17170240Y-6923800D01*
X17170240Y-6903800D02*
X17150240Y-6923800D01*
X17150240Y-11203800D02*
X17170240Y-11223800D01*
X17170240Y-11203800D02*
X17150240Y-11223800D01*
D13*
X11303700Y-5405050D02*
G75*
G03*
X11303700Y-5405050I-30000J0D01*
G01*
D11*
X11243700Y-5365050D02*
X11243700Y-5445050D01*
X11303700Y-5365050D02*
X11303700Y-5445050D01*
X11243700Y-5445050D02*
G75*
G03*
X11303700Y-5445050I30000J0D01*
G01*
X11303700Y-5365050D02*
G75*
G03*
X11243700Y-5365050I-30000J0D01*
G01*
D13*
X11303700Y-5823050D02*
G75*
G03*
X11303700Y-5823050I-30000J0D01*
G01*
D11*
X11243700Y-5768050D02*
X11243700Y-5878050D01*
X11303700Y-5768050D02*
X11303700Y-5878050D01*
X11243700Y-5878050D02*
G75*
G03*
X11303700Y-5878050I30000J0D01*
G01*
X11303700Y-5768050D02*
G75*
G03*
X11243700Y-5768050I-30000J0D01*
G01*
D13*
X11303700Y-9705050D02*
G75*
G03*
X11303700Y-9705050I-30000J0D01*
G01*
D11*
X11243700Y-9665050D02*
X11243700Y-9745050D01*
X11303700Y-9665050D02*
X11303700Y-9745050D01*
X11243700Y-9745050D02*
G75*
G03*
X11303700Y-9745050I30000J0D01*
G01*
X11303700Y-9665050D02*
G75*
G03*
X11243700Y-9665050I-30000J0D01*
G01*
D13*
X11303700Y-10123050D02*
G75*
G03*
X11303700Y-10123050I-30000J0D01*
G01*
D11*
X11243700Y-10068050D02*
X11243700Y-10178050D01*
X11303700Y-10068050D02*
X11303700Y-10178050D01*
X11243700Y-10178050D02*
G75*
G03*
X11303700Y-10178050I30000J0D01*
G01*
X11303700Y-10068050D02*
G75*
G03*
X11243700Y-10068050I-30000J0D01*
G01*
D13*
X12167700Y-5405050D02*
G75*
G03*
X12167700Y-5405050I-30000J0D01*
G01*
D11*
X12107700Y-5365050D02*
X12107700Y-5445050D01*
X12167700Y-5365050D02*
X12167700Y-5445050D01*
X12107700Y-5445050D02*
G75*
G03*
X12167700Y-5445050I30000J0D01*
G01*
X12167700Y-5365050D02*
G75*
G03*
X12107700Y-5365050I-30000J0D01*
G01*
D13*
X12167700Y-5823050D02*
G75*
G03*
X12167700Y-5823050I-30000J0D01*
G01*
D11*
X12107700Y-5768050D02*
X12107700Y-5878050D01*
X12167700Y-5768050D02*
X12167700Y-5878050D01*
X12107700Y-5878050D02*
G75*
G03*
X12167700Y-5878050I30000J0D01*
G01*
X12167700Y-5768050D02*
G75*
G03*
X12107700Y-5768050I-30000J0D01*
G01*
D13*
X12167700Y-9705050D02*
G75*
G03*
X12167700Y-9705050I-30000J0D01*
G01*
D11*
X12107700Y-9665050D02*
X12107700Y-9745050D01*
X12167700Y-9665050D02*
X12167700Y-9745050D01*
X12107700Y-9745050D02*
G75*
G03*
X12167700Y-9745050I30000J0D01*
G01*
X12167700Y-9665050D02*
G75*
G03*
X12107700Y-9665050I-30000J0D01*
G01*
D13*
X12167700Y-10123050D02*
G75*
G03*
X12167700Y-10123050I-30000J0D01*
G01*
D11*
X12107700Y-10068050D02*
X12107700Y-10178050D01*
X12167700Y-10068050D02*
X12167700Y-10178050D01*
X12107700Y-10178050D02*
G75*
G03*
X12167700Y-10178050I30000J0D01*
G01*
X12167700Y-10068050D02*
G75*
G03*
X12107700Y-10068050I-30000J0D01*
G01*
D13*
X13553700Y-5405050D02*
G75*
G03*
X13553700Y-5405050I-30000J0D01*
G01*
D11*
X13493700Y-5365050D02*
X13493700Y-5445050D01*
X13553700Y-5365050D02*
X13553700Y-5445050D01*
X13493700Y-5445050D02*
G75*
G03*
X13553700Y-5445050I30000J0D01*
G01*
X13553700Y-5365050D02*
G75*
G03*
X13493700Y-5365050I-30000J0D01*
G01*
D13*
X13553700Y-5823050D02*
G75*
G03*
X13553700Y-5823050I-30000J0D01*
G01*
D11*
X13493700Y-5768050D02*
X13493700Y-5878050D01*
X13553700Y-5768050D02*
X13553700Y-5878050D01*
X13493700Y-5878050D02*
G75*
G03*
X13553700Y-5878050I30000J0D01*
G01*
X13553700Y-5768050D02*
G75*
G03*
X13493700Y-5768050I-30000J0D01*
G01*
D13*
X13553700Y-9705050D02*
G75*
G03*
X13553700Y-9705050I-30000J0D01*
G01*
D11*
X13493700Y-9665050D02*
X13493700Y-9745050D01*
X13553700Y-9665050D02*
X13553700Y-9745050D01*
X13493700Y-9745050D02*
G75*
G03*
X13553700Y-9745050I30000J0D01*
G01*
X13553700Y-9665050D02*
G75*
G03*
X13493700Y-9665050I-30000J0D01*
G01*
D13*
X13553700Y-10123050D02*
G75*
G03*
X13553700Y-10123050I-30000J0D01*
G01*
D11*
X13493700Y-10068050D02*
X13493700Y-10178050D01*
X13553700Y-10068050D02*
X13553700Y-10178050D01*
X13493700Y-10178050D02*
G75*
G03*
X13553700Y-10178050I30000J0D01*
G01*
X13553700Y-10068050D02*
G75*
G03*
X13493700Y-10068050I-30000J0D01*
G01*
D13*
X14417700Y-5405050D02*
G75*
G03*
X14417700Y-5405050I-30000J0D01*
G01*
D11*
X14357700Y-5365050D02*
X14357700Y-5445050D01*
X14417700Y-5365050D02*
X14417700Y-5445050D01*
X14357700Y-5445050D02*
G75*
G03*
X14417700Y-5445050I30000J0D01*
G01*
X14417700Y-5365050D02*
G75*
G03*
X14357700Y-5365050I-30000J0D01*
G01*
D13*
X14417700Y-5823050D02*
G75*
G03*
X14417700Y-5823050I-30000J0D01*
G01*
D11*
X14357700Y-5768050D02*
X14357700Y-5878050D01*
X14417700Y-5768050D02*
X14417700Y-5878050D01*
X14357700Y-5878050D02*
G75*
G03*
X14417700Y-5878050I30000J0D01*
G01*
X14417700Y-5768050D02*
G75*
G03*
X14357700Y-5768050I-30000J0D01*
G01*
D13*
X14417700Y-9705050D02*
G75*
G03*
X14417700Y-9705050I-30000J0D01*
G01*
D11*
X14357700Y-9665050D02*
X14357700Y-9745050D01*
X14417700Y-9665050D02*
X14417700Y-9745050D01*
X14357700Y-9745050D02*
G75*
G03*
X14417700Y-9745050I30000J0D01*
G01*
X14417700Y-9665050D02*
G75*
G03*
X14357700Y-9665050I-30000J0D01*
G01*
D13*
X14417700Y-10123050D02*
G75*
G03*
X14417700Y-10123050I-30000J0D01*
G01*
D11*
X14357700Y-10068050D02*
X14357700Y-10178050D01*
X14417700Y-10068050D02*
X14417700Y-10178050D01*
X14357700Y-10178050D02*
G75*
G03*
X14417700Y-10178050I30000J0D01*
G01*
X14417700Y-10068050D02*
G75*
G03*
X14357700Y-10068050I-30000J0D01*
G01*
D13*
X15803700Y-5405050D02*
G75*
G03*
X15803700Y-5405050I-30000J0D01*
G01*
D11*
X15743700Y-5365050D02*
X15743700Y-5445050D01*
X15803700Y-5365050D02*
X15803700Y-5445050D01*
X15743700Y-5445050D02*
G75*
G03*
X15803700Y-5445050I30000J0D01*
G01*
X15803700Y-5365050D02*
G75*
G03*
X15743700Y-5365050I-30000J0D01*
G01*
D13*
X15803700Y-5823050D02*
G75*
G03*
X15803700Y-5823050I-30000J0D01*
G01*
D11*
X15743700Y-5768050D02*
X15743700Y-5878050D01*
X15803700Y-5768050D02*
X15803700Y-5878050D01*
X15743700Y-5878050D02*
G75*
G03*
X15803700Y-5878050I30000J0D01*
G01*
X15803700Y-5768050D02*
G75*
G03*
X15743700Y-5768050I-30000J0D01*
G01*
D13*
X15803700Y-9705050D02*
G75*
G03*
X15803700Y-9705050I-30000J0D01*
G01*
D11*
X15743700Y-9665050D02*
X15743700Y-9745050D01*
X15803700Y-9665050D02*
X15803700Y-9745050D01*
X15743700Y-9745050D02*
G75*
G03*
X15803700Y-9745050I30000J0D01*
G01*
X15803700Y-9665050D02*
G75*
G03*
X15743700Y-9665050I-30000J0D01*
G01*
D13*
X15803700Y-10123050D02*
G75*
G03*
X15803700Y-10123050I-30000J0D01*
G01*
D11*
X15743700Y-10068050D02*
X15743700Y-10178050D01*
X15803700Y-10068050D02*
X15803700Y-10178050D01*
X15743700Y-10178050D02*
G75*
G03*
X15803700Y-10178050I30000J0D01*
G01*
X15803700Y-10068050D02*
G75*
G03*
X15743700Y-10068050I-30000J0D01*
G01*
D13*
X16667700Y-5405050D02*
G75*
G03*
X16667700Y-5405050I-30000J0D01*
G01*
D11*
X16607700Y-5365050D02*
X16607700Y-5445050D01*
X16667700Y-5365050D02*
X16667700Y-5445050D01*
X16607700Y-5445050D02*
G75*
G03*
X16667700Y-5445050I30000J0D01*
G01*
X16667700Y-5365050D02*
G75*
G03*
X16607700Y-5365050I-30000J0D01*
G01*
D13*
X16667700Y-5823050D02*
G75*
G03*
X16667700Y-5823050I-30000J0D01*
G01*
D11*
X16607700Y-5768050D02*
X16607700Y-5878050D01*
X16667700Y-5768050D02*
X16667700Y-5878050D01*
X16607700Y-5878050D02*
G75*
G03*
X16667700Y-5878050I30000J0D01*
G01*
X16667700Y-5768050D02*
G75*
G03*
X16607700Y-5768050I-30000J0D01*
G01*
D13*
X16667700Y-9705050D02*
G75*
G03*
X16667700Y-9705050I-30000J0D01*
G01*
D11*
X16607700Y-9665050D02*
X16607700Y-9745050D01*
X16667700Y-9665050D02*
X16667700Y-9745050D01*
X16607700Y-9745050D02*
G75*
G03*
X16667700Y-9745050I30000J0D01*
G01*
X16667700Y-9665050D02*
G75*
G03*
X16607700Y-9665050I-30000J0D01*
G01*
D13*
X16667700Y-10123050D02*
G75*
G03*
X16667700Y-10123050I-30000J0D01*
G01*
D11*
X16607700Y-10068050D02*
X16607700Y-10178050D01*
X16667700Y-10068050D02*
X16667700Y-10178050D01*
X16607700Y-10178050D02*
G75*
G03*
X16667700Y-10178050I30000J0D01*
G01*
X16667700Y-10068050D02*
G75*
G03*
X16607700Y-10068050I-30000J0D01*
G01*
D10*
X10816200Y-6228800D02*
X10816200Y-6328800D01*
X10766200Y-6278800D02*
X10866200Y-6278800D01*
X10816200Y-6482800D02*
X10816200Y-6582800D01*
X10766200Y-6532800D02*
X10866200Y-6532800D01*
X10816200Y-6736800D02*
X10816200Y-6836800D01*
X10766200Y-6786800D02*
X10866200Y-6786800D01*
X10816200Y-6990800D02*
X10816200Y-7090800D01*
X10766200Y-7040800D02*
X10866200Y-7040800D01*
X10816200Y-7244800D02*
X10816200Y-7344800D01*
X10766200Y-7294800D02*
X10866200Y-7294800D01*
X10816200Y-7498800D02*
X10816200Y-7598800D01*
X10766200Y-7548800D02*
X10866200Y-7548800D01*
X10816200Y-7752800D02*
X10816200Y-7852800D01*
X10766200Y-7802800D02*
X10866200Y-7802800D01*
X10816200Y-8006800D02*
X10816200Y-8106800D01*
X10766200Y-8056800D02*
X10866200Y-8056800D01*
X10816200Y-8260800D02*
X10816200Y-8360800D01*
X10766200Y-8310800D02*
X10866200Y-8310800D01*
X10816200Y-8514800D02*
X10816200Y-8614800D01*
X10766200Y-8564800D02*
X10866200Y-8564800D01*
X10816200Y-8768800D02*
X10816200Y-8868800D01*
X10766200Y-8818800D02*
X10866200Y-8818800D01*
X10816200Y-10528800D02*
X10816200Y-10628800D01*
X10766200Y-10578800D02*
X10866200Y-10578800D01*
X10816200Y-10782800D02*
X10816200Y-10882800D01*
X10766200Y-10832800D02*
X10866200Y-10832800D01*
X10816200Y-11036800D02*
X10816200Y-11136800D01*
X10766200Y-11086800D02*
X10866200Y-11086800D01*
X10816200Y-11290800D02*
X10816200Y-11390800D01*
X10766200Y-11340800D02*
X10866200Y-11340800D01*
X10816200Y-11544800D02*
X10816200Y-11644800D01*
X10766200Y-11594800D02*
X10866200Y-11594800D01*
X10816200Y-11798800D02*
X10816200Y-11898800D01*
X10766200Y-11848800D02*
X10866200Y-11848800D01*
X10816200Y-12052800D02*
X10816200Y-12152800D01*
X10766200Y-12102800D02*
X10866200Y-12102800D01*
X10816200Y-12306800D02*
X10816200Y-12406800D01*
X10766200Y-12356800D02*
X10866200Y-12356800D01*
X10816200Y-12560800D02*
X10816200Y-12660800D01*
X10766200Y-12610800D02*
X10866200Y-12610800D01*
X10816200Y-12814800D02*
X10816200Y-12914800D01*
X10766200Y-12864800D02*
X10866200Y-12864800D01*
X10816200Y-13068800D02*
X10816200Y-13168800D01*
X10766200Y-13118800D02*
X10866200Y-13118800D01*
X11782200Y-9143800D02*
X11782200Y-9243800D01*
X11732200Y-9193800D02*
X11832200Y-9193800D01*
X11782200Y-13443800D02*
X11782200Y-13543800D01*
X11732200Y-13493800D02*
X11832200Y-13493800D01*
X12036200Y-9143800D02*
X12036200Y-9243800D01*
X11986200Y-9193800D02*
X12086200Y-9193800D01*
X12036200Y-13443800D02*
X12036200Y-13543800D01*
X11986200Y-13493800D02*
X12086200Y-13493800D01*
X12290200Y-9143800D02*
X12290200Y-9243800D01*
X12240200Y-9193800D02*
X12340200Y-9193800D01*
X12290200Y-13443800D02*
X12290200Y-13543800D01*
X12240200Y-13493800D02*
X12340200Y-13493800D01*
X12544200Y-9143800D02*
X12544200Y-9243800D01*
X12494200Y-9193800D02*
X12594200Y-9193800D01*
X12544200Y-13443800D02*
X12544200Y-13543800D01*
X12494200Y-13493800D02*
X12594200Y-13493800D01*
X12594200Y-5974800D02*
X12594200Y-6074800D01*
X12544200Y-6024800D02*
X12644200Y-6024800D01*
X12594200Y-6228800D02*
X12594200Y-6328800D01*
X12544200Y-6278800D02*
X12644200Y-6278800D01*
X12594200Y-6482800D02*
X12594200Y-6582800D01*
X12544200Y-6532800D02*
X12644200Y-6532800D01*
X12594200Y-6736800D02*
X12594200Y-6836800D01*
X12544200Y-6786800D02*
X12644200Y-6786800D01*
X12594200Y-6990800D02*
X12594200Y-7090800D01*
X12544200Y-7040800D02*
X12644200Y-7040800D01*
X12594200Y-7244800D02*
X12594200Y-7344800D01*
X12544200Y-7294800D02*
X12644200Y-7294800D01*
X12594200Y-7498800D02*
X12594200Y-7598800D01*
X12544200Y-7548800D02*
X12644200Y-7548800D01*
X12594200Y-7752800D02*
X12594200Y-7852800D01*
X12544200Y-7802800D02*
X12644200Y-7802800D01*
X12594200Y-8006800D02*
X12594200Y-8106800D01*
X12544200Y-8056800D02*
X12644200Y-8056800D01*
X12594200Y-8260800D02*
X12594200Y-8360800D01*
X12544200Y-8310800D02*
X12644200Y-8310800D01*
X12594200Y-8514800D02*
X12594200Y-8614800D01*
X12544200Y-8564800D02*
X12644200Y-8564800D01*
X12594200Y-8768800D02*
X12594200Y-8868800D01*
X12544200Y-8818800D02*
X12644200Y-8818800D01*
X12594200Y-10274800D02*
X12594200Y-10374800D01*
X12544200Y-10324800D02*
X12644200Y-10324800D01*
X12594200Y-10528800D02*
X12594200Y-10628800D01*
X12544200Y-10578800D02*
X12644200Y-10578800D01*
X12594200Y-10782800D02*
X12594200Y-10882800D01*
X12544200Y-10832800D02*
X12644200Y-10832800D01*
X12594200Y-11036800D02*
X12594200Y-11136800D01*
X12544200Y-11086800D02*
X12644200Y-11086800D01*
X12594200Y-11290800D02*
X12594200Y-11390800D01*
X12544200Y-11340800D02*
X12644200Y-11340800D01*
X12594200Y-11544800D02*
X12594200Y-11644800D01*
X12544200Y-11594800D02*
X12644200Y-11594800D01*
X12594200Y-11798800D02*
X12594200Y-11898800D01*
X12544200Y-11848800D02*
X12644200Y-11848800D01*
X12594200Y-12052800D02*
X12594200Y-12152800D01*
X12544200Y-12102800D02*
X12644200Y-12102800D01*
X12594200Y-12306800D02*
X12594200Y-12406800D01*
X12544200Y-12356800D02*
X12644200Y-12356800D01*
X12594200Y-12560800D02*
X12594200Y-12660800D01*
X12544200Y-12610800D02*
X12644200Y-12610800D01*
X12594200Y-12814800D02*
X12594200Y-12914800D01*
X12544200Y-12864800D02*
X12644200Y-12864800D01*
X12594200Y-13068800D02*
X12594200Y-13168800D01*
X12544200Y-13118800D02*
X12644200Y-13118800D01*
X13066200Y-6228800D02*
X13066200Y-6328800D01*
X13016200Y-6278800D02*
X13116200Y-6278800D01*
X13066200Y-6482800D02*
X13066200Y-6582800D01*
X13016200Y-6532800D02*
X13116200Y-6532800D01*
X13066200Y-6736800D02*
X13066200Y-6836800D01*
X13016200Y-6786800D02*
X13116200Y-6786800D01*
X13066200Y-6990800D02*
X13066200Y-7090800D01*
X13016200Y-7040800D02*
X13116200Y-7040800D01*
X13066200Y-7244800D02*
X13066200Y-7344800D01*
X13016200Y-7294800D02*
X13116200Y-7294800D01*
X13066200Y-7498800D02*
X13066200Y-7598800D01*
X13016200Y-7548800D02*
X13116200Y-7548800D01*
X13066200Y-7752800D02*
X13066200Y-7852800D01*
X13016200Y-7802800D02*
X13116200Y-7802800D01*
X13066200Y-8006800D02*
X13066200Y-8106800D01*
X13016200Y-8056800D02*
X13116200Y-8056800D01*
X13066200Y-8260800D02*
X13066200Y-8360800D01*
X13016200Y-8310800D02*
X13116200Y-8310800D01*
X13066200Y-8514800D02*
X13066200Y-8614800D01*
X13016200Y-8564800D02*
X13116200Y-8564800D01*
X13066200Y-8768800D02*
X13066200Y-8868800D01*
X13016200Y-8818800D02*
X13116200Y-8818800D01*
X13066200Y-10528800D02*
X13066200Y-10628800D01*
X13016200Y-10578800D02*
X13116200Y-10578800D01*
X13066200Y-10782800D02*
X13066200Y-10882800D01*
X13016200Y-10832800D02*
X13116200Y-10832800D01*
X13066200Y-11036800D02*
X13066200Y-11136800D01*
X13016200Y-11086800D02*
X13116200Y-11086800D01*
X13066200Y-11290800D02*
X13066200Y-11390800D01*
X13016200Y-11340800D02*
X13116200Y-11340800D01*
X13066200Y-11544800D02*
X13066200Y-11644800D01*
X13016200Y-11594800D02*
X13116200Y-11594800D01*
X13066200Y-11798800D02*
X13066200Y-11898800D01*
X13016200Y-11848800D02*
X13116200Y-11848800D01*
X13066200Y-12052800D02*
X13066200Y-12152800D01*
X13016200Y-12102800D02*
X13116200Y-12102800D01*
X13066200Y-12306800D02*
X13066200Y-12406800D01*
X13016200Y-12356800D02*
X13116200Y-12356800D01*
X13066200Y-12560800D02*
X13066200Y-12660800D01*
X13016200Y-12610800D02*
X13116200Y-12610800D01*
X13066200Y-12814800D02*
X13066200Y-12914800D01*
X13016200Y-12864800D02*
X13116200Y-12864800D01*
X13066200Y-13068800D02*
X13066200Y-13168800D01*
X13016200Y-13118800D02*
X13116200Y-13118800D01*
X14032200Y-9143800D02*
X14032200Y-9243800D01*
X13982200Y-9193800D02*
X14082200Y-9193800D01*
X14032200Y-13443800D02*
X14032200Y-13543800D01*
X13982200Y-13493800D02*
X14082200Y-13493800D01*
X14286200Y-9143800D02*
X14286200Y-9243800D01*
X14236200Y-9193800D02*
X14336200Y-9193800D01*
X14286200Y-13443800D02*
X14286200Y-13543800D01*
X14236200Y-13493800D02*
X14336200Y-13493800D01*
X14540200Y-9143800D02*
X14540200Y-9243800D01*
X14490200Y-9193800D02*
X14590200Y-9193800D01*
X14540200Y-13443800D02*
X14540200Y-13543800D01*
X14490200Y-13493800D02*
X14590200Y-13493800D01*
X14794200Y-9143800D02*
X14794200Y-9243800D01*
X14744200Y-9193800D02*
X14844200Y-9193800D01*
X14794200Y-13443800D02*
X14794200Y-13543800D01*
X14744200Y-13493800D02*
X14844200Y-13493800D01*
X14844200Y-5974800D02*
X14844200Y-6074800D01*
X14794200Y-6024800D02*
X14894200Y-6024800D01*
X14844200Y-6228800D02*
X14844200Y-6328800D01*
X14794200Y-6278800D02*
X14894200Y-6278800D01*
X14844200Y-6482800D02*
X14844200Y-6582800D01*
X14794200Y-6532800D02*
X14894200Y-6532800D01*
X14844200Y-6736800D02*
X14844200Y-6836800D01*
X14794200Y-6786800D02*
X14894200Y-6786800D01*
X14844200Y-6990800D02*
X14844200Y-7090800D01*
X14794200Y-7040800D02*
X14894200Y-7040800D01*
X14844200Y-7244800D02*
X14844200Y-7344800D01*
X14794200Y-7294800D02*
X14894200Y-7294800D01*
X14844200Y-7498800D02*
X14844200Y-7598800D01*
X14794200Y-7548800D02*
X14894200Y-7548800D01*
X14844200Y-7752800D02*
X14844200Y-7852800D01*
X14794200Y-7802800D02*
X14894200Y-7802800D01*
X14844200Y-8006800D02*
X14844200Y-8106800D01*
X14794200Y-8056800D02*
X14894200Y-8056800D01*
X14844200Y-8260800D02*
X14844200Y-8360800D01*
X14794200Y-8310800D02*
X14894200Y-8310800D01*
X14844200Y-8514800D02*
X14844200Y-8614800D01*
X14794200Y-8564800D02*
X14894200Y-8564800D01*
X14844200Y-8768800D02*
X14844200Y-8868800D01*
X14794200Y-8818800D02*
X14894200Y-8818800D01*
X14844200Y-10274800D02*
X14844200Y-10374800D01*
X14794200Y-10324800D02*
X14894200Y-10324800D01*
X14844200Y-10528800D02*
X14844200Y-10628800D01*
X14794200Y-10578800D02*
X14894200Y-10578800D01*
X14844200Y-10782800D02*
X14844200Y-10882800D01*
X14794200Y-10832800D02*
X14894200Y-10832800D01*
X14844200Y-11036800D02*
X14844200Y-11136800D01*
X14794200Y-11086800D02*
X14894200Y-11086800D01*
X14844200Y-11290800D02*
X14844200Y-11390800D01*
X14794200Y-11340800D02*
X14894200Y-11340800D01*
X14844200Y-11544800D02*
X14844200Y-11644800D01*
X14794200Y-11594800D02*
X14894200Y-11594800D01*
X14844200Y-11798800D02*
X14844200Y-11898800D01*
X14794200Y-11848800D02*
X14894200Y-11848800D01*
X14844200Y-12052800D02*
X14844200Y-12152800D01*
X14794200Y-12102800D02*
X14894200Y-12102800D01*
X14844200Y-12306800D02*
X14844200Y-12406800D01*
X14794200Y-12356800D02*
X14894200Y-12356800D01*
X14844200Y-12560800D02*
X14844200Y-12660800D01*
X14794200Y-12610800D02*
X14894200Y-12610800D01*
X14844200Y-12814800D02*
X14844200Y-12914800D01*
X14794200Y-12864800D02*
X14894200Y-12864800D01*
X14844200Y-13068800D02*
X14844200Y-13168800D01*
X14794200Y-13118800D02*
X14894200Y-13118800D01*
X15316200Y-6228800D02*
X15316200Y-6328800D01*
X15266200Y-6278800D02*
X15366200Y-6278800D01*
X15316200Y-6482800D02*
X15316200Y-6582800D01*
X15266200Y-6532800D02*
X15366200Y-6532800D01*
X15316200Y-6736800D02*
X15316200Y-6836800D01*
X15266200Y-6786800D02*
X15366200Y-6786800D01*
X15316200Y-6990800D02*
X15316200Y-7090800D01*
X15266200Y-7040800D02*
X15366200Y-7040800D01*
X15316200Y-7244800D02*
X15316200Y-7344800D01*
X15266200Y-7294800D02*
X15366200Y-7294800D01*
X15316200Y-7498800D02*
X15316200Y-7598800D01*
X15266200Y-7548800D02*
X15366200Y-7548800D01*
X15316200Y-7752800D02*
X15316200Y-7852800D01*
X15266200Y-7802800D02*
X15366200Y-7802800D01*
X15316200Y-8006800D02*
X15316200Y-8106800D01*
X15266200Y-8056800D02*
X15366200Y-8056800D01*
X15316200Y-8260800D02*
X15316200Y-8360800D01*
X15266200Y-8310800D02*
X15366200Y-8310800D01*
X15316200Y-8514800D02*
X15316200Y-8614800D01*
X15266200Y-8564800D02*
X15366200Y-8564800D01*
X15316200Y-8768800D02*
X15316200Y-8868800D01*
X15266200Y-8818800D02*
X15366200Y-8818800D01*
X15316200Y-10528800D02*
X15316200Y-10628800D01*
X15266200Y-10578800D02*
X15366200Y-10578800D01*
X15316200Y-10782800D02*
X15316200Y-10882800D01*
X15266200Y-10832800D02*
X15366200Y-10832800D01*
X15316200Y-11036800D02*
X15316200Y-11136800D01*
X15266200Y-11086800D02*
X15366200Y-11086800D01*
X15316200Y-11290800D02*
X15316200Y-11390800D01*
X15266200Y-11340800D02*
X15366200Y-11340800D01*
X15316200Y-11544800D02*
X15316200Y-11644800D01*
X15266200Y-11594800D02*
X15366200Y-11594800D01*
X15316200Y-11798800D02*
X15316200Y-11898800D01*
X15266200Y-11848800D02*
X15366200Y-11848800D01*
X15316200Y-12052800D02*
X15316200Y-12152800D01*
X15266200Y-12102800D02*
X15366200Y-12102800D01*
X15316200Y-12306800D02*
X15316200Y-12406800D01*
X15266200Y-12356800D02*
X15366200Y-12356800D01*
X15316200Y-12560800D02*
X15316200Y-12660800D01*
X15266200Y-12610800D02*
X15366200Y-12610800D01*
X15316200Y-12814800D02*
X15316200Y-12914800D01*
X15266200Y-12864800D02*
X15366200Y-12864800D01*
X15316200Y-13068800D02*
X15316200Y-13168800D01*
X15266200Y-13118800D02*
X15366200Y-13118800D01*
X16282200Y-9143800D02*
X16282200Y-9243800D01*
X16232200Y-9193800D02*
X16332200Y-9193800D01*
X16282200Y-13443800D02*
X16282200Y-13543800D01*
X16232200Y-13493800D02*
X16332200Y-13493800D01*
X16536200Y-9143800D02*
X16536200Y-9243800D01*
X16486200Y-9193800D02*
X16586200Y-9193800D01*
X16536200Y-13443800D02*
X16536200Y-13543800D01*
X16486200Y-13493800D02*
X16586200Y-13493800D01*
X16790200Y-9143800D02*
X16790200Y-9243800D01*
X16740200Y-9193800D02*
X16840200Y-9193800D01*
X16790200Y-13443800D02*
X16790200Y-13543800D01*
X16740200Y-13493800D02*
X16840200Y-13493800D01*
X17044200Y-9143800D02*
X17044200Y-9243800D01*
X16994200Y-9193800D02*
X17094200Y-9193800D01*
X17044200Y-13443800D02*
X17044200Y-13543800D01*
X16994200Y-13493800D02*
X17094200Y-13493800D01*
X17094200Y-5974800D02*
X17094200Y-6074800D01*
X17044200Y-6024800D02*
X17144200Y-6024800D01*
X17094200Y-6228800D02*
X17094200Y-6328800D01*
X17044200Y-6278800D02*
X17144200Y-6278800D01*
X17094200Y-6482800D02*
X17094200Y-6582800D01*
X17044200Y-6532800D02*
X17144200Y-6532800D01*
X17094200Y-6736800D02*
X17094200Y-6836800D01*
X17044200Y-6786800D02*
X17144200Y-6786800D01*
X17094200Y-6990800D02*
X17094200Y-7090800D01*
X17044200Y-7040800D02*
X17144200Y-7040800D01*
X17094200Y-7244800D02*
X17094200Y-7344800D01*
X17044200Y-7294800D02*
X17144200Y-7294800D01*
X17094200Y-7498800D02*
X17094200Y-7598800D01*
X17044200Y-7548800D02*
X17144200Y-7548800D01*
X17094200Y-7752800D02*
X17094200Y-7852800D01*
X17044200Y-7802800D02*
X17144200Y-7802800D01*
X17094200Y-8006800D02*
X17094200Y-8106800D01*
X17044200Y-8056800D02*
X17144200Y-8056800D01*
X17094200Y-8260800D02*
X17094200Y-8360800D01*
X17044200Y-8310800D02*
X17144200Y-8310800D01*
X17094200Y-8514800D02*
X17094200Y-8614800D01*
X17044200Y-8564800D02*
X17144200Y-8564800D01*
X17094200Y-8768800D02*
X17094200Y-8868800D01*
X17044200Y-8818800D02*
X17144200Y-8818800D01*
X17094200Y-10274800D02*
X17094200Y-10374800D01*
X17044200Y-10324800D02*
X17144200Y-10324800D01*
X17094200Y-10528800D02*
X17094200Y-10628800D01*
X17044200Y-10578800D02*
X17144200Y-10578800D01*
X17094200Y-10782800D02*
X17094200Y-10882800D01*
X17044200Y-10832800D02*
X17144200Y-10832800D01*
X17094200Y-11036800D02*
X17094200Y-11136800D01*
X17044200Y-11086800D02*
X17144200Y-11086800D01*
X17094200Y-11290800D02*
X17094200Y-11390800D01*
X17044200Y-11340800D02*
X17144200Y-11340800D01*
X17094200Y-11544800D02*
X17094200Y-11644800D01*
X17044200Y-11594800D02*
X17144200Y-11594800D01*
X17094200Y-11798800D02*
X17094200Y-11898800D01*
X17044200Y-11848800D02*
X17144200Y-11848800D01*
X17094200Y-12052800D02*
X17094200Y-12152800D01*
X17044200Y-12102800D02*
X17144200Y-12102800D01*
X17094200Y-12306800D02*
X17094200Y-12406800D01*
X17044200Y-12356800D02*
X17144200Y-12356800D01*
X17094200Y-12560800D02*
X17094200Y-12660800D01*
X17044200Y-12610800D02*
X17144200Y-12610800D01*
X17094200Y-12814800D02*
X17094200Y-12914800D01*
X17044200Y-12864800D02*
X17144200Y-12864800D01*
X17094200Y-13068800D02*
X17094200Y-13168800D01*
X17044200Y-13118800D02*
X17144200Y-13118800D01*
D11*
X10933819Y-14696276D02*
X10933819Y-14496276D01*
X10981438Y-14496276D01*
X11010010Y-14505800D01*
X11029057Y-14524848D01*
X11038581Y-14543895D01*
X11048105Y-14581990D01*
X11048105Y-14610562D01*
X11038581Y-14648657D01*
X11029057Y-14667705D01*
X11010010Y-14686752D01*
X10981438Y-14696276D01*
X10933819Y-14696276D01*
X11133819Y-14696276D02*
X11133819Y-14562943D01*
X11133819Y-14601038D02*
X11143343Y-14581990D01*
X11152867Y-14572467D01*
X11171914Y-14562943D01*
X11190962Y-14562943D01*
X11257628Y-14696276D02*
X11257628Y-14562943D01*
X11257628Y-14496276D02*
X11248105Y-14505800D01*
X11257628Y-14515324D01*
X11267152Y-14505800D01*
X11257628Y-14496276D01*
X11257628Y-14515324D01*
X11381438Y-14696276D02*
X11362390Y-14686752D01*
X11352867Y-14667705D01*
X11352867Y-14496276D01*
X11486200Y-14696276D02*
X11467152Y-14686752D01*
X11457628Y-14667705D01*
X11457628Y-14496276D01*
X11714771Y-14696276D02*
X11714771Y-14496276D01*
X11781438Y-14639133D01*
X11848105Y-14496276D01*
X11848105Y-14696276D01*
X12029057Y-14696276D02*
X12029057Y-14591514D01*
X12019533Y-14572467D01*
X12000486Y-14562943D01*
X11962390Y-14562943D01*
X11943343Y-14572467D01*
X12029057Y-14686752D02*
X12010009Y-14696276D01*
X11962390Y-14696276D01*
X11943343Y-14686752D01*
X11933819Y-14667705D01*
X11933819Y-14648657D01*
X11943343Y-14629609D01*
X11962390Y-14620086D01*
X12010009Y-14620086D01*
X12029057Y-14610562D01*
X12124295Y-14562943D02*
X12124295Y-14762943D01*
X12124295Y-14572467D02*
X12143343Y-14562943D01*
X12181438Y-14562943D01*
X12200486Y-14572467D01*
X12210009Y-14581990D01*
X12219533Y-14601038D01*
X12219533Y-14658181D01*
X12210009Y-14677228D01*
X12200486Y-14686752D01*
X12181438Y-14696276D01*
X12143343Y-14696276D01*
X12124295Y-14686752D01*
X12305248Y-14677228D02*
X12314771Y-14686752D01*
X12305248Y-14696276D01*
X12295724Y-14686752D01*
X12305248Y-14677228D01*
X12305248Y-14696276D01*
X12305248Y-14572467D02*
X12314771Y-14581990D01*
X12305248Y-14591514D01*
X12295724Y-14581990D01*
X12305248Y-14572467D01*
X12305248Y-14591514D01*
D12*
X10656200Y-15015800D02*
X10676200Y-15035800D01*
X10676200Y-15015800D02*
X10656200Y-15035800D01*
D11*
X10971914Y-14916276D02*
X10990962Y-14916276D01*
X11010010Y-14925800D01*
X11019533Y-14935324D01*
X11029057Y-14954371D01*
X11038581Y-14992467D01*
X11038581Y-15040086D01*
X11029057Y-15078181D01*
X11019533Y-15097228D01*
X11010010Y-15106752D01*
X10990962Y-15116276D01*
X10971914Y-15116276D01*
X10952867Y-15106752D01*
X10943343Y-15097228D01*
X10933819Y-15078181D01*
X10924295Y-15040086D01*
X10924295Y-14992467D01*
X10933819Y-14954371D01*
X10943343Y-14935324D01*
X10952867Y-14925800D01*
X10971914Y-14916276D01*
X11124295Y-15097228D02*
X11133819Y-15106752D01*
X11124295Y-15116276D01*
X11114771Y-15106752D01*
X11124295Y-15097228D01*
X11124295Y-15116276D01*
X11210009Y-14935324D02*
X11219533Y-14925800D01*
X11238581Y-14916276D01*
X11286200Y-14916276D01*
X11305248Y-14925800D01*
X11314771Y-14935324D01*
X11324295Y-14954371D01*
X11324295Y-14973419D01*
X11314771Y-15001990D01*
X11200486Y-15116276D01*
X11324295Y-15116276D01*
X11448105Y-14916276D02*
X11467152Y-14916276D01*
X11486200Y-14925800D01*
X11495724Y-14935324D01*
X11505248Y-14954371D01*
X11514771Y-14992467D01*
X11514771Y-15040086D01*
X11505248Y-15078181D01*
X11495724Y-15097228D01*
X11486200Y-15106752D01*
X11467152Y-15116276D01*
X11448105Y-15116276D01*
X11429057Y-15106752D01*
X11419533Y-15097228D01*
X11410009Y-15078181D01*
X11400486Y-15040086D01*
X11400486Y-14992467D01*
X11410009Y-14954371D01*
X11419533Y-14935324D01*
X11429057Y-14925800D01*
X11448105Y-14916276D01*
X11638581Y-14916276D02*
X11657628Y-14916276D01*
X11676676Y-14925800D01*
X11686200Y-14935324D01*
X11695724Y-14954371D01*
X11705248Y-14992467D01*
X11705248Y-15040086D01*
X11695724Y-15078181D01*
X11686200Y-15097228D01*
X11676676Y-15106752D01*
X11657628Y-15116276D01*
X11638581Y-15116276D01*
X11619533Y-15106752D01*
X11610009Y-15097228D01*
X11600486Y-15078181D01*
X11590962Y-15040086D01*
X11590962Y-14992467D01*
X11600486Y-14954371D01*
X11610009Y-14935324D01*
X11619533Y-14925800D01*
X11638581Y-14916276D01*
X11790962Y-15116276D02*
X11790962Y-14982943D01*
X11790962Y-15001990D02*
X11800486Y-14992467D01*
X11819533Y-14982943D01*
X11848105Y-14982943D01*
X11867152Y-14992467D01*
X11876676Y-15011514D01*
X11876676Y-15116276D01*
X11876676Y-15011514D02*
X11886200Y-14992467D01*
X11905248Y-14982943D01*
X11933819Y-14982943D01*
X11952867Y-14992467D01*
X11962390Y-15011514D01*
X11962390Y-15116276D01*
X12057628Y-15116276D02*
X12057628Y-14982943D01*
X12057628Y-15001990D02*
X12067152Y-14992467D01*
X12086200Y-14982943D01*
X12114771Y-14982943D01*
X12133819Y-14992467D01*
X12143343Y-15011514D01*
X12143343Y-15116276D01*
X12143343Y-15011514D02*
X12152867Y-14992467D01*
X12171914Y-14982943D01*
X12200486Y-14982943D01*
X12219533Y-14992467D01*
X12229057Y-15011514D01*
X12229057Y-15116276D01*
X12619533Y-14906752D02*
X12448105Y-15163895D01*
X12876676Y-14916276D02*
X12895724Y-14916276D01*
X12914771Y-14925800D01*
X12924295Y-14935324D01*
X12933819Y-14954371D01*
X12943343Y-14992467D01*
X12943343Y-15040086D01*
X12933819Y-15078181D01*
X12924295Y-15097228D01*
X12914771Y-15106752D01*
X12895724Y-15116276D01*
X12876676Y-15116276D01*
X12857628Y-15106752D01*
X12848105Y-15097228D01*
X12838581Y-15078181D01*
X12829057Y-15040086D01*
X12829057Y-14992467D01*
X12838581Y-14954371D01*
X12848105Y-14935324D01*
X12857628Y-14925800D01*
X12876676Y-14916276D01*
X13029057Y-15097228D02*
X13038581Y-15106752D01*
X13029057Y-15116276D01*
X13019533Y-15106752D01*
X13029057Y-15097228D01*
X13029057Y-15116276D01*
X13162390Y-14916276D02*
X13181438Y-14916276D01*
X13200486Y-14925800D01*
X13210009Y-14935324D01*
X13219533Y-14954371D01*
X13229057Y-14992467D01*
X13229057Y-15040086D01*
X13219533Y-15078181D01*
X13210009Y-15097228D01*
X13200486Y-15106752D01*
X13181438Y-15116276D01*
X13162390Y-15116276D01*
X13143343Y-15106752D01*
X13133819Y-15097228D01*
X13124295Y-15078181D01*
X13114771Y-15040086D01*
X13114771Y-14992467D01*
X13124295Y-14954371D01*
X13133819Y-14935324D01*
X13143343Y-14925800D01*
X13162390Y-14916276D01*
X13352867Y-14916276D02*
X13371914Y-14916276D01*
X13390962Y-14925800D01*
X13400486Y-14935324D01*
X13410009Y-14954371D01*
X13419533Y-14992467D01*
X13419533Y-15040086D01*
X13410009Y-15078181D01*
X13400486Y-15097228D01*
X13390962Y-15106752D01*
X13371914Y-15116276D01*
X13352867Y-15116276D01*
X13333819Y-15106752D01*
X13324295Y-15097228D01*
X13314771Y-15078181D01*
X13305248Y-15040086D01*
X13305248Y-14992467D01*
X13314771Y-14954371D01*
X13324295Y-14935324D01*
X13333819Y-14925800D01*
X13352867Y-14916276D01*
X13486200Y-14916276D02*
X13619533Y-14916276D01*
X13533819Y-15116276D01*
X13705248Y-15116276D02*
X13743343Y-15116276D01*
X13762390Y-15106752D01*
X13771914Y-15097228D01*
X13790962Y-15068657D01*
X13800486Y-15030562D01*
X13800486Y-14954371D01*
X13790962Y-14935324D01*
X13781438Y-14925800D01*
X13762390Y-14916276D01*
X13724295Y-14916276D01*
X13705248Y-14925800D01*
X13695724Y-14935324D01*
X13686200Y-14954371D01*
X13686200Y-15001990D01*
X13695724Y-15021038D01*
X13705248Y-15030562D01*
X13724295Y-15040086D01*
X13762390Y-15040086D01*
X13781438Y-15030562D01*
X13790962Y-15021038D01*
X13800486Y-15001990D01*
X13876676Y-14916276D02*
X13876676Y-14954371D01*
X13952867Y-14916276D02*
X13952867Y-14954371D01*
X14248105Y-15192467D02*
X14238581Y-15182943D01*
X14219533Y-15154371D01*
X14210009Y-15135324D01*
X14200486Y-15106752D01*
X14190962Y-15059133D01*
X14190962Y-15021038D01*
X14200486Y-14973419D01*
X14210009Y-14944848D01*
X14219533Y-14925800D01*
X14238581Y-14897228D01*
X14248105Y-14887705D01*
X14305248Y-14916276D02*
X14429057Y-14916276D01*
X14362390Y-14992467D01*
X14390962Y-14992467D01*
X14410009Y-15001990D01*
X14419533Y-15011514D01*
X14429057Y-15030562D01*
X14429057Y-15078181D01*
X14419533Y-15097228D01*
X14410009Y-15106752D01*
X14390962Y-15116276D01*
X14333819Y-15116276D01*
X14314771Y-15106752D01*
X14305248Y-15097228D01*
X14495724Y-14916276D02*
X14629057Y-14916276D01*
X14543343Y-15116276D01*
X14695724Y-14935324D02*
X14705248Y-14925800D01*
X14724295Y-14916276D01*
X14771914Y-14916276D01*
X14790962Y-14925800D01*
X14800486Y-14935324D01*
X14810009Y-14954371D01*
X14810009Y-14973419D01*
X14800486Y-15001990D01*
X14686200Y-15116276D01*
X14810009Y-15116276D01*
X15048105Y-15116276D02*
X15048105Y-14916276D01*
X15133819Y-15116276D02*
X15133819Y-15011514D01*
X15124295Y-14992467D01*
X15105248Y-14982943D01*
X15076676Y-14982943D01*
X15057628Y-14992467D01*
X15048105Y-15001990D01*
X15257628Y-15116276D02*
X15238581Y-15106752D01*
X15229057Y-15097228D01*
X15219533Y-15078181D01*
X15219533Y-15021038D01*
X15229057Y-15001990D01*
X15238581Y-14992467D01*
X15257628Y-14982943D01*
X15286200Y-14982943D01*
X15305248Y-14992467D01*
X15314771Y-15001990D01*
X15324295Y-15021038D01*
X15324295Y-15078181D01*
X15314771Y-15097228D01*
X15305248Y-15106752D01*
X15286200Y-15116276D01*
X15257628Y-15116276D01*
X15438581Y-15116276D02*
X15419533Y-15106752D01*
X15410009Y-15087705D01*
X15410009Y-14916276D01*
X15590962Y-15106752D02*
X15571914Y-15116276D01*
X15533819Y-15116276D01*
X15514771Y-15106752D01*
X15505248Y-15087705D01*
X15505248Y-15011514D01*
X15514771Y-14992467D01*
X15533819Y-14982943D01*
X15571914Y-14982943D01*
X15590962Y-14992467D01*
X15600486Y-15011514D01*
X15600486Y-15030562D01*
X15505248Y-15049609D01*
X15676676Y-15106752D02*
X15695724Y-15116276D01*
X15733819Y-15116276D01*
X15752867Y-15106752D01*
X15762390Y-15087705D01*
X15762390Y-15078181D01*
X15752867Y-15059133D01*
X15733819Y-15049609D01*
X15705248Y-15049609D01*
X15686200Y-15040086D01*
X15676676Y-15021038D01*
X15676676Y-15011514D01*
X15686200Y-14992467D01*
X15705248Y-14982943D01*
X15733819Y-14982943D01*
X15752867Y-14992467D01*
X15829057Y-15192467D02*
X15838581Y-15182943D01*
X15857628Y-15154371D01*
X15867152Y-15135324D01*
X15876676Y-15106752D01*
X15886200Y-15059133D01*
X15886200Y-15021038D01*
X15876676Y-14973419D01*
X15867152Y-14944848D01*
X15857628Y-14925800D01*
X15838581Y-14897228D01*
X15829057Y-14887705D01*
D13*
X10676200Y-15289800D02*
G75*
G03*
X10676200Y-15289800I-30000J0D01*
G01*
D11*
X10971914Y-15180276D02*
X10990962Y-15180276D01*
X11010010Y-15189800D01*
X11019533Y-15199324D01*
X11029057Y-15218371D01*
X11038581Y-15256467D01*
X11038581Y-15304086D01*
X11029057Y-15342181D01*
X11019533Y-15361228D01*
X11010010Y-15370752D01*
X10990962Y-15380276D01*
X10971914Y-15380276D01*
X10952867Y-15370752D01*
X10943343Y-15361228D01*
X10933819Y-15342181D01*
X10924295Y-15304086D01*
X10924295Y-15256467D01*
X10933819Y-15218371D01*
X10943343Y-15199324D01*
X10952867Y-15189800D01*
X10971914Y-15180276D01*
X11124295Y-15361228D02*
X11133819Y-15370752D01*
X11124295Y-15380276D01*
X11114771Y-15370752D01*
X11124295Y-15361228D01*
X11124295Y-15380276D01*
X11305248Y-15180276D02*
X11267152Y-15180276D01*
X11248105Y-15189800D01*
X11238581Y-15199324D01*
X11219533Y-15227895D01*
X11210009Y-15265990D01*
X11210009Y-15342181D01*
X11219533Y-15361228D01*
X11229057Y-15370752D01*
X11248105Y-15380276D01*
X11286200Y-15380276D01*
X11305248Y-15370752D01*
X11314771Y-15361228D01*
X11324295Y-15342181D01*
X11324295Y-15294562D01*
X11314771Y-15275514D01*
X11305248Y-15265990D01*
X11286200Y-15256467D01*
X11248105Y-15256467D01*
X11229057Y-15265990D01*
X11219533Y-15275514D01*
X11210009Y-15294562D01*
X11448105Y-15180276D02*
X11467152Y-15180276D01*
X11486200Y-15189800D01*
X11495724Y-15199324D01*
X11505248Y-15218371D01*
X11514771Y-15256467D01*
X11514771Y-15304086D01*
X11505248Y-15342181D01*
X11495724Y-15361228D01*
X11486200Y-15370752D01*
X11467152Y-15380276D01*
X11448105Y-15380276D01*
X11429057Y-15370752D01*
X11419533Y-15361228D01*
X11410009Y-15342181D01*
X11400486Y-15304086D01*
X11400486Y-15256467D01*
X11410009Y-15218371D01*
X11419533Y-15199324D01*
X11429057Y-15189800D01*
X11448105Y-15180276D01*
X11638581Y-15180276D02*
X11657628Y-15180276D01*
X11676676Y-15189800D01*
X11686200Y-15199324D01*
X11695724Y-15218371D01*
X11705248Y-15256467D01*
X11705248Y-15304086D01*
X11695724Y-15342181D01*
X11686200Y-15361228D01*
X11676676Y-15370752D01*
X11657628Y-15380276D01*
X11638581Y-15380276D01*
X11619533Y-15370752D01*
X11610009Y-15361228D01*
X11600486Y-15342181D01*
X11590962Y-15304086D01*
X11590962Y-15256467D01*
X11600486Y-15218371D01*
X11610009Y-15199324D01*
X11619533Y-15189800D01*
X11638581Y-15180276D01*
X11790962Y-15380276D02*
X11790962Y-15246943D01*
X11790962Y-15265990D02*
X11800486Y-15256467D01*
X11819533Y-15246943D01*
X11848105Y-15246943D01*
X11867152Y-15256467D01*
X11876676Y-15275514D01*
X11876676Y-15380276D01*
X11876676Y-15275514D02*
X11886200Y-15256467D01*
X11905248Y-15246943D01*
X11933819Y-15246943D01*
X11952867Y-15256467D01*
X11962390Y-15275514D01*
X11962390Y-15380276D01*
X12057628Y-15380276D02*
X12057628Y-15246943D01*
X12057628Y-15265990D02*
X12067152Y-15256467D01*
X12086200Y-15246943D01*
X12114771Y-15246943D01*
X12133819Y-15256467D01*
X12143343Y-15275514D01*
X12143343Y-15380276D01*
X12143343Y-15275514D02*
X12152867Y-15256467D01*
X12171914Y-15246943D01*
X12200486Y-15246943D01*
X12219533Y-15256467D01*
X12229057Y-15275514D01*
X12229057Y-15380276D01*
X12619533Y-15170752D02*
X12448105Y-15427895D01*
X12876676Y-15180276D02*
X12895724Y-15180276D01*
X12914771Y-15189800D01*
X12924295Y-15199324D01*
X12933819Y-15218371D01*
X12943343Y-15256467D01*
X12943343Y-15304086D01*
X12933819Y-15342181D01*
X12924295Y-15361228D01*
X12914771Y-15370752D01*
X12895724Y-15380276D01*
X12876676Y-15380276D01*
X12857628Y-15370752D01*
X12848105Y-15361228D01*
X12838581Y-15342181D01*
X12829057Y-15304086D01*
X12829057Y-15256467D01*
X12838581Y-15218371D01*
X12848105Y-15199324D01*
X12857628Y-15189800D01*
X12876676Y-15180276D01*
X13029057Y-15361228D02*
X13038581Y-15370752D01*
X13029057Y-15380276D01*
X13019533Y-15370752D01*
X13029057Y-15361228D01*
X13029057Y-15380276D01*
X13162390Y-15180276D02*
X13181438Y-15180276D01*
X13200486Y-15189800D01*
X13210009Y-15199324D01*
X13219533Y-15218371D01*
X13229057Y-15256467D01*
X13229057Y-15304086D01*
X13219533Y-15342181D01*
X13210009Y-15361228D01*
X13200486Y-15370752D01*
X13181438Y-15380276D01*
X13162390Y-15380276D01*
X13143343Y-15370752D01*
X13133819Y-15361228D01*
X13124295Y-15342181D01*
X13114771Y-15304086D01*
X13114771Y-15256467D01*
X13124295Y-15218371D01*
X13133819Y-15199324D01*
X13143343Y-15189800D01*
X13162390Y-15180276D01*
X13305248Y-15199324D02*
X13314771Y-15189800D01*
X13333819Y-15180276D01*
X13381438Y-15180276D01*
X13400486Y-15189800D01*
X13410009Y-15199324D01*
X13419533Y-15218371D01*
X13419533Y-15237419D01*
X13410009Y-15265990D01*
X13295724Y-15380276D01*
X13419533Y-15380276D01*
X13486200Y-15180276D02*
X13610009Y-15180276D01*
X13543343Y-15256467D01*
X13571914Y-15256467D01*
X13590962Y-15265990D01*
X13600486Y-15275514D01*
X13610009Y-15294562D01*
X13610009Y-15342181D01*
X13600486Y-15361228D01*
X13590962Y-15370752D01*
X13571914Y-15380276D01*
X13514771Y-15380276D01*
X13495724Y-15370752D01*
X13486200Y-15361228D01*
X13781438Y-15180276D02*
X13743343Y-15180276D01*
X13724295Y-15189800D01*
X13714771Y-15199324D01*
X13695724Y-15227895D01*
X13686200Y-15265990D01*
X13686200Y-15342181D01*
X13695724Y-15361228D01*
X13705248Y-15370752D01*
X13724295Y-15380276D01*
X13762390Y-15380276D01*
X13781438Y-15370752D01*
X13790962Y-15361228D01*
X13800486Y-15342181D01*
X13800486Y-15294562D01*
X13790962Y-15275514D01*
X13781438Y-15265990D01*
X13762390Y-15256467D01*
X13724295Y-15256467D01*
X13705248Y-15265990D01*
X13695724Y-15275514D01*
X13686200Y-15294562D01*
X13876676Y-15180276D02*
X13876676Y-15218371D01*
X13952867Y-15180276D02*
X13952867Y-15218371D01*
X14248105Y-15456467D02*
X14238581Y-15446943D01*
X14219533Y-15418371D01*
X14210009Y-15399324D01*
X14200486Y-15370752D01*
X14190962Y-15323133D01*
X14190962Y-15285038D01*
X14200486Y-15237419D01*
X14210009Y-15208848D01*
X14219533Y-15189800D01*
X14238581Y-15161228D01*
X14248105Y-15151705D01*
X14362390Y-15180276D02*
X14381438Y-15180276D01*
X14400486Y-15189800D01*
X14410009Y-15199324D01*
X14419533Y-15218371D01*
X14429057Y-15256467D01*
X14429057Y-15304086D01*
X14419533Y-15342181D01*
X14410009Y-15361228D01*
X14400486Y-15370752D01*
X14381438Y-15380276D01*
X14362390Y-15380276D01*
X14343343Y-15370752D01*
X14333819Y-15361228D01*
X14324295Y-15342181D01*
X14314771Y-15304086D01*
X14314771Y-15256467D01*
X14324295Y-15218371D01*
X14333819Y-15199324D01*
X14343343Y-15189800D01*
X14362390Y-15180276D01*
X14667152Y-15380276D02*
X14667152Y-15180276D01*
X14752867Y-15380276D02*
X14752867Y-15275514D01*
X14743343Y-15256467D01*
X14724295Y-15246943D01*
X14695724Y-15246943D01*
X14676676Y-15256467D01*
X14667152Y-15265990D01*
X14876676Y-15380276D02*
X14857628Y-15370752D01*
X14848105Y-15361228D01*
X14838581Y-15342181D01*
X14838581Y-15285038D01*
X14848105Y-15265990D01*
X14857628Y-15256467D01*
X14876676Y-15246943D01*
X14905248Y-15246943D01*
X14924295Y-15256467D01*
X14933819Y-15265990D01*
X14943343Y-15285038D01*
X14943343Y-15342181D01*
X14933819Y-15361228D01*
X14924295Y-15370752D01*
X14905248Y-15380276D01*
X14876676Y-15380276D01*
X15057628Y-15380276D02*
X15038581Y-15370752D01*
X15029057Y-15351705D01*
X15029057Y-15180276D01*
X15210009Y-15370752D02*
X15190962Y-15380276D01*
X15152867Y-15380276D01*
X15133819Y-15370752D01*
X15124295Y-15351705D01*
X15124295Y-15275514D01*
X15133819Y-15256467D01*
X15152867Y-15246943D01*
X15190962Y-15246943D01*
X15210009Y-15256467D01*
X15219533Y-15275514D01*
X15219533Y-15294562D01*
X15124295Y-15313609D01*
X15295724Y-15370752D02*
X15314771Y-15380276D01*
X15352867Y-15380276D01*
X15371914Y-15370752D01*
X15381438Y-15351705D01*
X15381438Y-15342181D01*
X15371914Y-15323133D01*
X15352867Y-15313609D01*
X15324295Y-15313609D01*
X15305248Y-15304086D01*
X15295724Y-15285038D01*
X15295724Y-15275514D01*
X15305248Y-15256467D01*
X15324295Y-15246943D01*
X15352867Y-15246943D01*
X15371914Y-15256467D01*
X15619533Y-15304086D02*
X15771914Y-15304086D01*
X15695724Y-15380276D02*
X15695724Y-15227895D01*
X16010009Y-15199324D02*
X16019533Y-15189800D01*
X16038581Y-15180276D01*
X16086200Y-15180276D01*
X16105248Y-15189800D01*
X16114771Y-15199324D01*
X16124295Y-15218371D01*
X16124295Y-15237419D01*
X16114771Y-15265990D01*
X16000486Y-15380276D01*
X16124295Y-15380276D01*
X16295724Y-15246943D02*
X16295724Y-15380276D01*
X16248105Y-15170752D02*
X16200486Y-15313609D01*
X16324295Y-15313609D01*
X16543343Y-15370752D02*
X16562390Y-15380276D01*
X16600486Y-15380276D01*
X16619533Y-15370752D01*
X16629057Y-15351705D01*
X16629057Y-15342181D01*
X16619533Y-15323133D01*
X16600486Y-15313609D01*
X16571914Y-15313609D01*
X16552867Y-15304086D01*
X16543343Y-15285038D01*
X16543343Y-15275514D01*
X16552867Y-15256467D01*
X16571914Y-15246943D01*
X16600486Y-15246943D01*
X16619533Y-15256467D01*
X16743343Y-15380276D02*
X16724295Y-15370752D01*
X16714771Y-15351705D01*
X16714771Y-15180276D01*
X16848105Y-15380276D02*
X16829057Y-15370752D01*
X16819533Y-15361228D01*
X16810010Y-15342181D01*
X16810010Y-15285038D01*
X16819533Y-15265990D01*
X16829057Y-15256467D01*
X16848105Y-15246943D01*
X16876676Y-15246943D01*
X16895724Y-15256467D01*
X16905248Y-15265990D01*
X16914771Y-15285038D01*
X16914771Y-15342181D01*
X16905248Y-15361228D01*
X16895724Y-15370752D01*
X16876676Y-15380276D01*
X16848105Y-15380276D01*
X16971914Y-15246943D02*
X17048105Y-15246943D01*
X17000486Y-15180276D02*
X17000486Y-15351705D01*
X17010010Y-15370752D01*
X17029057Y-15380276D01*
X17048105Y-15380276D01*
X17105248Y-15370752D02*
X17124295Y-15380276D01*
X17162390Y-15380276D01*
X17181438Y-15370752D01*
X17190962Y-15351705D01*
X17190962Y-15342181D01*
X17181438Y-15323133D01*
X17162390Y-15313609D01*
X17133819Y-15313609D01*
X17114771Y-15304086D01*
X17105248Y-15285038D01*
X17105248Y-15275514D01*
X17114771Y-15256467D01*
X17133819Y-15246943D01*
X17162390Y-15246943D01*
X17181438Y-15256467D01*
X17257629Y-15456467D02*
X17267152Y-15446943D01*
X17286200Y-15418371D01*
X17295724Y-15399324D01*
X17305248Y-15370752D01*
X17314771Y-15323133D01*
X17314771Y-15285038D01*
X17305248Y-15237419D01*
X17295724Y-15208848D01*
X17286200Y-15189800D01*
X17267152Y-15161228D01*
X17257629Y-15151705D01*
D10*
X10626200Y-15503800D02*
X10626200Y-15603800D01*
X10576200Y-15553800D02*
X10676200Y-15553800D01*
D11*
X11038581Y-15644276D02*
X10924295Y-15644276D01*
X10981438Y-15644276D02*
X10981438Y-15444276D01*
X10962390Y-15472848D01*
X10943343Y-15491895D01*
X10924295Y-15501419D01*
X11124295Y-15625228D02*
X11133819Y-15634752D01*
X11124295Y-15644276D01*
X11114771Y-15634752D01*
X11124295Y-15625228D01*
X11124295Y-15644276D01*
X11257628Y-15444276D02*
X11276676Y-15444276D01*
X11295724Y-15453800D01*
X11305248Y-15463324D01*
X11314771Y-15482371D01*
X11324295Y-15520467D01*
X11324295Y-15568086D01*
X11314771Y-15606181D01*
X11305248Y-15625228D01*
X11295724Y-15634752D01*
X11276676Y-15644276D01*
X11257628Y-15644276D01*
X11238581Y-15634752D01*
X11229057Y-15625228D01*
X11219533Y-15606181D01*
X11210009Y-15568086D01*
X11210009Y-15520467D01*
X11219533Y-15482371D01*
X11229057Y-15463324D01*
X11238581Y-15453800D01*
X11257628Y-15444276D01*
X11448105Y-15444276D02*
X11467152Y-15444276D01*
X11486200Y-15453800D01*
X11495724Y-15463324D01*
X11505248Y-15482371D01*
X11514771Y-15520467D01*
X11514771Y-15568086D01*
X11505248Y-15606181D01*
X11495724Y-15625228D01*
X11486200Y-15634752D01*
X11467152Y-15644276D01*
X11448105Y-15644276D01*
X11429057Y-15634752D01*
X11419533Y-15625228D01*
X11410009Y-15606181D01*
X11400486Y-15568086D01*
X11400486Y-15520467D01*
X11410009Y-15482371D01*
X11419533Y-15463324D01*
X11429057Y-15453800D01*
X11448105Y-15444276D01*
X11638581Y-15444276D02*
X11657628Y-15444276D01*
X11676676Y-15453800D01*
X11686200Y-15463324D01*
X11695724Y-15482371D01*
X11705248Y-15520467D01*
X11705248Y-15568086D01*
X11695724Y-15606181D01*
X11686200Y-15625228D01*
X11676676Y-15634752D01*
X11657628Y-15644276D01*
X11638581Y-15644276D01*
X11619533Y-15634752D01*
X11610009Y-15625228D01*
X11600486Y-15606181D01*
X11590962Y-15568086D01*
X11590962Y-15520467D01*
X11600486Y-15482371D01*
X11610009Y-15463324D01*
X11619533Y-15453800D01*
X11638581Y-15444276D01*
X11790962Y-15644276D02*
X11790962Y-15510943D01*
X11790962Y-15529990D02*
X11800486Y-15520467D01*
X11819533Y-15510943D01*
X11848105Y-15510943D01*
X11867152Y-15520467D01*
X11876676Y-15539514D01*
X11876676Y-15644276D01*
X11876676Y-15539514D02*
X11886200Y-15520467D01*
X11905248Y-15510943D01*
X11933819Y-15510943D01*
X11952867Y-15520467D01*
X11962390Y-15539514D01*
X11962390Y-15644276D01*
X12057628Y-15644276D02*
X12057628Y-15510943D01*
X12057628Y-15529990D02*
X12067152Y-15520467D01*
X12086200Y-15510943D01*
X12114771Y-15510943D01*
X12133819Y-15520467D01*
X12143343Y-15539514D01*
X12143343Y-15644276D01*
X12143343Y-15539514D02*
X12152867Y-15520467D01*
X12171914Y-15510943D01*
X12200486Y-15510943D01*
X12219533Y-15520467D01*
X12229057Y-15539514D01*
X12229057Y-15644276D01*
X12619533Y-15434752D02*
X12448105Y-15691895D01*
X12876676Y-15444276D02*
X12895724Y-15444276D01*
X12914771Y-15453800D01*
X12924295Y-15463324D01*
X12933819Y-15482371D01*
X12943343Y-15520467D01*
X12943343Y-15568086D01*
X12933819Y-15606181D01*
X12924295Y-15625228D01*
X12914771Y-15634752D01*
X12895724Y-15644276D01*
X12876676Y-15644276D01*
X12857628Y-15634752D01*
X12848105Y-15625228D01*
X12838581Y-15606181D01*
X12829057Y-15568086D01*
X12829057Y-15520467D01*
X12838581Y-15482371D01*
X12848105Y-15463324D01*
X12857628Y-15453800D01*
X12876676Y-15444276D01*
X13029057Y-15625228D02*
X13038581Y-15634752D01*
X13029057Y-15644276D01*
X13019533Y-15634752D01*
X13029057Y-15625228D01*
X13029057Y-15644276D01*
X13162390Y-15444276D02*
X13181438Y-15444276D01*
X13200486Y-15453800D01*
X13210009Y-15463324D01*
X13219533Y-15482371D01*
X13229057Y-15520467D01*
X13229057Y-15568086D01*
X13219533Y-15606181D01*
X13210009Y-15625228D01*
X13200486Y-15634752D01*
X13181438Y-15644276D01*
X13162390Y-15644276D01*
X13143343Y-15634752D01*
X13133819Y-15625228D01*
X13124295Y-15606181D01*
X13114771Y-15568086D01*
X13114771Y-15520467D01*
X13124295Y-15482371D01*
X13133819Y-15463324D01*
X13143343Y-15453800D01*
X13162390Y-15444276D01*
X13295724Y-15444276D02*
X13419533Y-15444276D01*
X13352867Y-15520467D01*
X13381438Y-15520467D01*
X13400486Y-15529990D01*
X13410009Y-15539514D01*
X13419533Y-15558562D01*
X13419533Y-15606181D01*
X13410009Y-15625228D01*
X13400486Y-15634752D01*
X13381438Y-15644276D01*
X13324295Y-15644276D01*
X13305248Y-15634752D01*
X13295724Y-15625228D01*
X13514771Y-15644276D02*
X13552867Y-15644276D01*
X13571914Y-15634752D01*
X13581438Y-15625228D01*
X13600486Y-15596657D01*
X13610009Y-15558562D01*
X13610009Y-15482371D01*
X13600486Y-15463324D01*
X13590962Y-15453800D01*
X13571914Y-15444276D01*
X13533819Y-15444276D01*
X13514771Y-15453800D01*
X13505248Y-15463324D01*
X13495724Y-15482371D01*
X13495724Y-15529990D01*
X13505248Y-15549038D01*
X13514771Y-15558562D01*
X13533819Y-15568086D01*
X13571914Y-15568086D01*
X13590962Y-15558562D01*
X13600486Y-15549038D01*
X13610009Y-15529990D01*
X13781438Y-15510943D02*
X13781438Y-15644276D01*
X13733819Y-15434752D02*
X13686200Y-15577609D01*
X13810009Y-15577609D01*
X13876676Y-15444276D02*
X13876676Y-15482371D01*
X13952867Y-15444276D02*
X13952867Y-15482371D01*
X14248105Y-15720467D02*
X14238581Y-15710943D01*
X14219533Y-15682371D01*
X14210009Y-15663324D01*
X14200486Y-15634752D01*
X14190962Y-15587133D01*
X14190962Y-15549038D01*
X14200486Y-15501419D01*
X14210009Y-15472848D01*
X14219533Y-15453800D01*
X14238581Y-15425228D01*
X14248105Y-15415705D01*
X14429057Y-15644276D02*
X14314771Y-15644276D01*
X14371914Y-15644276D02*
X14371914Y-15444276D01*
X14352867Y-15472848D01*
X14333819Y-15491895D01*
X14314771Y-15501419D01*
X14600486Y-15444276D02*
X14562390Y-15444276D01*
X14543343Y-15453800D01*
X14533819Y-15463324D01*
X14514771Y-15491895D01*
X14505248Y-15529990D01*
X14505248Y-15606181D01*
X14514771Y-15625228D01*
X14524295Y-15634752D01*
X14543343Y-15644276D01*
X14581438Y-15644276D01*
X14600486Y-15634752D01*
X14610009Y-15625228D01*
X14619533Y-15606181D01*
X14619533Y-15558562D01*
X14610009Y-15539514D01*
X14600486Y-15529990D01*
X14581438Y-15520467D01*
X14543343Y-15520467D01*
X14524295Y-15529990D01*
X14514771Y-15539514D01*
X14505248Y-15558562D01*
X14695724Y-15463324D02*
X14705248Y-15453800D01*
X14724295Y-15444276D01*
X14771914Y-15444276D01*
X14790962Y-15453800D01*
X14800486Y-15463324D01*
X14810009Y-15482371D01*
X14810009Y-15501419D01*
X14800486Y-15529990D01*
X14686200Y-15644276D01*
X14810009Y-15644276D01*
X15048105Y-15644276D02*
X15048105Y-15444276D01*
X15133819Y-15644276D02*
X15133819Y-15539514D01*
X15124295Y-15520467D01*
X15105248Y-15510943D01*
X15076676Y-15510943D01*
X15057628Y-15520467D01*
X15048105Y-15529990D01*
X15257628Y-15644276D02*
X15238581Y-15634752D01*
X15229057Y-15625228D01*
X15219533Y-15606181D01*
X15219533Y-15549038D01*
X15229057Y-15529990D01*
X15238581Y-15520467D01*
X15257628Y-15510943D01*
X15286200Y-15510943D01*
X15305248Y-15520467D01*
X15314771Y-15529990D01*
X15324295Y-15549038D01*
X15324295Y-15606181D01*
X15314771Y-15625228D01*
X15305248Y-15634752D01*
X15286200Y-15644276D01*
X15257628Y-15644276D01*
X15438581Y-15644276D02*
X15419533Y-15634752D01*
X15410009Y-15615705D01*
X15410009Y-15444276D01*
X15590962Y-15634752D02*
X15571914Y-15644276D01*
X15533819Y-15644276D01*
X15514771Y-15634752D01*
X15505248Y-15615705D01*
X15505248Y-15539514D01*
X15514771Y-15520467D01*
X15533819Y-15510943D01*
X15571914Y-15510943D01*
X15590962Y-15520467D01*
X15600486Y-15539514D01*
X15600486Y-15558562D01*
X15505248Y-15577609D01*
X15676676Y-15634752D02*
X15695724Y-15644276D01*
X15733819Y-15644276D01*
X15752867Y-15634752D01*
X15762390Y-15615705D01*
X15762390Y-15606181D01*
X15752867Y-15587133D01*
X15733819Y-15577609D01*
X15705248Y-15577609D01*
X15686200Y-15568086D01*
X15676676Y-15549038D01*
X15676676Y-15539514D01*
X15686200Y-15520467D01*
X15705248Y-15510943D01*
X15733819Y-15510943D01*
X15752867Y-15520467D01*
X15829057Y-15720467D02*
X15838581Y-15710943D01*
X15857628Y-15682371D01*
X15867152Y-15663324D01*
X15876676Y-15634752D01*
X15886200Y-15587133D01*
X15886200Y-15549038D01*
X15876676Y-15501419D01*
X15867152Y-15472848D01*
X15857628Y-15453800D01*
X15838581Y-15425228D01*
X15829057Y-15415705D01*
M02*
