M48
; DRILL file {KiCad (6.0.8)} date Tue Nov  8 11:05:09 2022
; FORMAT={-:-/ absolute / inch / decimal}
; #@! TF.CreationDate,2022-11-08T11:05:09+01:00
; #@! TF.GenerationSoftware,Kicad,Pcbnew,(6.0.8)
; #@! TF.FileFunction,Plated,1,2,PTH
FMAT,2
INCH
; #@! TA.AperFunction,Plated,PTH,ViaDrill
T1C0.0079
; #@! TA.AperFunction,Plated,PTH,ComponentDrill
T2C0.0394
%
G90
G05
T1
X0.7006Y-1.5911
X0.7006Y-2.9799
X0.7456Y-1.4511
X0.7456Y-2.8399
X0.8406Y-1.1161
X0.8406Y-2.5049
X0.8556Y-1.5311
X0.8556Y-2.9199
X0.8766Y-1.2161
X0.8766Y-2.6049
X0.9256Y-0.9961
X0.9256Y-2.3849
X0.9856Y-1.5321
X0.9856Y-1.6861
X0.9856Y-2.9209
X0.9856Y-3.0749
X0.9877Y-1.9221
X0.9877Y-3.3109
X1.0106Y-1.4611
X1.0106Y-1.5461
X1.0106Y-2.8499
X1.0106Y-2.9349
X1.0256Y-1.2811
X1.0256Y-2.6699
X1.0906Y-1.1111
X1.0906Y-1.4921
X1.0906Y-1.6461
X1.0906Y-2.4999
X1.0906Y-2.8809
X1.0906Y-3.0349
X1.1065Y-1.2475
X1.1065Y-2.6363
X1.1266Y-1.9221
X1.1266Y-3.3109
X1.1946Y-1.0761
X1.1946Y-2.4649
X1.2726Y-1.7821
X1.2726Y-3.1709
X1.3215Y-1.2425
X1.3215Y-2.6313
X1.3456Y-2.1161
X1.3456Y-3.5049
X1.3806Y-1.9961
X1.3806Y-3.3849
X1.6993Y-1.5911
X1.6993Y-2.9799
X1.7443Y-1.4511
X1.7443Y-2.8399
X1.8393Y-1.1161
X1.8393Y-2.5049
X1.8543Y-1.5311
X1.8543Y-2.9199
X1.8753Y-1.2161
X1.8753Y-2.6049
X1.9243Y-0.9961
X1.9243Y-2.3849
X1.9843Y-1.5321
X1.9843Y-1.6861
X1.9843Y-2.9209
X1.9843Y-3.0749
X1.9865Y-1.9221
X1.9865Y-3.3109
X2.0093Y-1.4611
X2.0093Y-1.5461
X2.0093Y-2.8499
X2.0093Y-2.9349
X2.0243Y-1.2811
X2.0243Y-2.6699
X2.0893Y-1.1111
X2.0893Y-1.4921
X2.0893Y-1.6461
X2.0893Y-2.4999
X2.0893Y-2.8809
X2.0893Y-3.0349
X2.1052Y-1.2475
X2.1052Y-2.6363
X2.1253Y-1.9221
X2.1253Y-3.3109
X2.1933Y-1.0761
X2.1933Y-2.4649
X2.2713Y-1.7821
X2.2713Y-3.1709
X2.3202Y-1.2425
X2.3202Y-2.6313
X2.3443Y-2.1161
X2.3443Y-3.5049
X2.3793Y-1.9961
X2.3793Y-3.3849
X2.698Y-2.9799
X2.743Y-2.8399
X2.838Y-2.5049
X2.853Y-2.9199
X2.874Y-2.6049
X2.923Y-2.3849
X2.983Y-2.9209
X2.983Y-3.0749
X2.9852Y-3.3109
X3.008Y-2.8499
X3.008Y-2.9349
X3.023Y-2.6699
X3.088Y-2.4999
X3.088Y-2.8809
X3.088Y-3.0349
X3.1039Y-2.6363
X3.124Y-3.3109
X3.192Y-2.4649
X3.27Y-3.1709
X3.3189Y-2.6313
X3.343Y-3.5049
X3.378Y-3.3849
T2
X0.6506Y-1.0761
X0.6506Y-1.1761
X0.6506Y-1.2761
X0.6506Y-1.3761
X0.6506Y-1.4761
X0.6506Y-1.5761
X0.6506Y-1.6761
X0.6506Y-1.7761
X0.6506Y-1.8761
X0.6506Y-1.9761
X0.6506Y-2.0761
X0.6506Y-2.4649
X0.6506Y-2.5649
X0.6506Y-2.6649
X0.6506Y-2.7649
X0.6506Y-2.8649
X0.6506Y-2.9649
X0.6506Y-3.0649
X0.6506Y-3.1649
X0.6506Y-3.2649
X0.6506Y-3.3649
X0.6506Y-3.4649
X0.8506Y-0.9261
X0.8506Y-2.3149
X0.9506Y-0.9261
X0.9506Y-2.3149
X1.0506Y-0.9261
X1.0506Y-2.3149
X1.1506Y-0.9261
X1.1506Y-2.3149
X1.2506Y-0.9261
X1.2506Y-2.3149
X1.4506Y-1.0761
X1.4506Y-1.1761
X1.4506Y-1.2761
X1.4506Y-1.3761
X1.4506Y-1.4761
X1.4506Y-1.5761
X1.4506Y-1.6761
X1.4506Y-1.7761
X1.4506Y-1.8761
X1.4506Y-1.9761
X1.4506Y-2.0761
X1.4506Y-2.4649
X1.4506Y-2.5649
X1.4506Y-2.6649
X1.4506Y-2.7649
X1.4506Y-2.8649
X1.4506Y-2.9649
X1.4506Y-3.0649
X1.4506Y-3.1649
X1.4506Y-3.2649
X1.4506Y-3.3649
X1.4506Y-3.4649
X1.6493Y-1.0761
X1.6493Y-1.1761
X1.6493Y-1.2761
X1.6493Y-1.3761
X1.6493Y-1.4761
X1.6493Y-1.5761
X1.6493Y-1.6761
X1.6493Y-1.7761
X1.6493Y-1.8761
X1.6493Y-1.9761
X1.6493Y-2.0761
X1.6493Y-2.4649
X1.6493Y-2.5649
X1.6493Y-2.6649
X1.6493Y-2.7649
X1.6493Y-2.8649
X1.6493Y-2.9649
X1.6493Y-3.0649
X1.6493Y-3.1649
X1.6493Y-3.2649
X1.6493Y-3.3649
X1.6493Y-3.4649
X1.8493Y-0.9261
X1.8493Y-2.3149
X1.9493Y-0.9261
X1.9493Y-2.3149
X2.0493Y-0.9261
X2.0493Y-2.3149
X2.1493Y-0.9261
X2.1493Y-2.3149
X2.2493Y-0.9261
X2.2493Y-2.3149
X2.4493Y-1.0761
X2.4493Y-1.1761
X2.4493Y-1.2761
X2.4493Y-1.3761
X2.4493Y-1.4761
X2.4493Y-1.5761
X2.4493Y-1.6761
X2.4493Y-1.7761
X2.4493Y-1.8761
X2.4493Y-1.9761
X2.4493Y-2.0761
X2.4493Y-2.4649
X2.4493Y-2.5649
X2.4493Y-2.6649
X2.4493Y-2.7649
X2.4493Y-2.8649
X2.4493Y-2.9649
X2.4493Y-3.0649
X2.4493Y-3.1649
X2.4493Y-3.2649
X2.4493Y-3.3649
X2.4493Y-3.4649
X2.648Y-2.4649
X2.648Y-2.5649
X2.648Y-2.6649
X2.648Y-2.7649
X2.648Y-2.8649
X2.648Y-2.9649
X2.648Y-3.0649
X2.648Y-3.1649
X2.648Y-3.2649
X2.648Y-3.3649
X2.648Y-3.4649
X2.848Y-2.3149
X2.948Y-2.3149
X3.048Y-2.3149
X3.148Y-2.3149
X3.248Y-2.3149
X3.448Y-2.4649
X3.448Y-2.5649
X3.448Y-2.6649
X3.448Y-2.7649
X3.448Y-2.8649
X3.448Y-2.9649
X3.448Y-3.0649
X3.448Y-3.1649
X3.448Y-3.2649
X3.448Y-3.3649
X3.448Y-3.4649
T0
M30
