M48
; DRILL file {KiCad (6.0.8)} date Tue Nov  8 11:05:09 2022
; FORMAT={-:-/ absolute / inch / decimal}
; #@! TF.CreationDate,2022-11-08T11:05:09+01:00
; #@! TF.GenerationSoftware,Kicad,Pcbnew,(6.0.8)
; #@! TF.FileFunction,NonPlated,1,2,NPTH
FMAT,2
INCH
; #@! TA.AperFunction,NonPlated,NPTH,ComponentDrill
T1C0.0197
%
G90
G05
T1
X0.9915Y-0.8741
X0.9915Y-2.2628
X0.9915Y-2.1682
X0.9915Y-3.5569
X1.0309Y-0.8741
X1.0309Y-2.2628
X1.0309Y-2.1682
X1.0309Y-3.557
X1.0702Y-0.8741
X1.0702Y-2.2628
X1.0702Y-2.1682
X1.0702Y-3.557
X1.1096Y-0.8741
X1.1096Y-2.2628
X1.1096Y-2.1682
X1.1096Y-3.557
X1.5026Y-1.5802
X1.5026Y-2.9689
X1.5026Y-1.5408
X1.5026Y-2.9296
X1.5026Y-1.5015
X1.5026Y-2.8902
X1.5026Y-1.4621
X1.5026Y-2.8508
X1.5972Y-1.5802
X1.5972Y-2.9689
X1.5972Y-1.5408
X1.5972Y-2.9296
X1.5972Y-1.5015
X1.5972Y-2.8902
X1.5972Y-1.4621
X1.5972Y-2.8508
X1.9902Y-0.8741
X1.9902Y-2.2628
X1.9902Y-2.1682
X1.9902Y-3.5569
X2.0296Y-0.8741
X2.0296Y-2.2628
X2.0296Y-2.1682
X2.0296Y-3.557
X2.069Y-0.8741
X2.069Y-2.2628
X2.069Y-2.1682
X2.069Y-3.557
X2.1083Y-0.8741
X2.1083Y-2.2628
X2.1083Y-2.1682
X2.1083Y-3.557
X2.5014Y-2.9689
X2.5014Y-2.9296
X2.5014Y-2.8902
X2.5014Y-2.8508
X2.596Y-2.9689
X2.596Y-2.9296
X2.596Y-2.8902
X2.596Y-2.8508
X2.989Y-3.5569
X3.0283Y-3.557
X3.0677Y-3.557
X3.1071Y-3.557
T0
M30
