%TF.GenerationSoftware,KiCad,Pcbnew,(6.0.8)*%
%TF.CreationDate,2022-11-08T11:05:07+01:00*%
%TF.ProjectId,STM32G030F6P6,53544d33-3247-4303-9330-463650362e6b,2.0*%
%TF.SameCoordinates,Original*%
%TF.FileFunction,Soldermask,Bot*%
%TF.FilePolarity,Negative*%
%FSLAX46Y46*%
G04 Gerber Fmt 4.6, Leading zero omitted, Abs format (unit mm)*
G04 Created by KiCad (PCBNEW (6.0.8)) date 2022-11-08 11:05:07*
%MOMM*%
%LPD*%
G01*
G04 APERTURE LIST*
%ADD10R,1.700000X1.700000*%
%ADD11O,1.700000X1.700000*%
%ADD12C,0.500000*%
%ADD13C,1.000000*%
G04 APERTURE END LIST*
D10*
%TO.C,J2*%
X72340000Y-58798000D03*
D11*
X74880000Y-58798000D03*
X77420000Y-58798000D03*
X79960000Y-58798000D03*
X82500000Y-58798000D03*
%TD*%
D12*
%TO.C,REF\u002A\u002A*%
X53551973Y-22201475D03*
%TD*%
%TO.C,REF\u002A\u002A*%
X53551973Y-57475474D03*
%TD*%
%TO.C,REF\u002A\u002A*%
X63534852Y-72410982D03*
%TD*%
D10*
%TO.C,J2*%
X46972000Y-58798000D03*
D11*
X49512000Y-58798000D03*
X52052000Y-58798000D03*
X54592000Y-58798000D03*
X57132000Y-58798000D03*
%TD*%
D12*
%TO.C,REF\u002A\u002A*%
X77920026Y-90346789D03*
%TD*%
%TO.C,REF\u002A\u002A*%
X52551973Y-57475342D03*
%TD*%
%TO.C,REF\u002A\u002A*%
X51551973Y-22201211D03*
%TD*%
%TO.C,REF\u002A\u002A*%
X78920026Y-90346920D03*
%TD*%
%TO.C,REF\u002A\u002A*%
X75920026Y-90346525D03*
%TD*%
%TO.C,REF\u002A\u002A*%
X40569322Y-73411017D03*
%TD*%
%TO.C,REF\u002A\u002A*%
X26183974Y-57475210D03*
%TD*%
%TO.C,REF\u002A\u002A*%
X40569322Y-38137018D03*
%TD*%
%TO.C,REF\u002A\u002A*%
X51551973Y-57475210D03*
%TD*%
%TO.C,REF\u002A\u002A*%
X38166589Y-40136982D03*
%TD*%
%TO.C,REF\u002A\u002A*%
X76920026Y-90346657D03*
%TD*%
D10*
%TO.C,J2*%
X21604000Y-58798000D03*
D11*
X24144000Y-58798000D03*
X26684000Y-58798000D03*
X29224000Y-58798000D03*
X31764000Y-58798000D03*
%TD*%
D10*
%TO.C,J2*%
X46972000Y-23524000D03*
D11*
X49512000Y-23524000D03*
X52052000Y-23524000D03*
X54592000Y-23524000D03*
X57132000Y-23524000D03*
%TD*%
D12*
%TO.C,REF\u002A\u002A*%
X25184027Y-90346525D03*
%TD*%
%TO.C,REF\u002A\u002A*%
X40569410Y-37137018D03*
%TD*%
%TO.C,REF\u002A\u002A*%
X25183974Y-57475079D03*
%TD*%
%TO.C,REF\u002A\u002A*%
X25183974Y-22201080D03*
%TD*%
%TO.C,REF\u002A\u002A*%
X27183973Y-22201343D03*
%TD*%
%TO.C,REF\u002A\u002A*%
X27183973Y-57475342D03*
%TD*%
%TO.C,REF\u002A\u002A*%
X26184027Y-55072657D03*
%TD*%
%TO.C,REF\u002A\u002A*%
X28184026Y-90346920D03*
%TD*%
%TO.C,REF\u002A\u002A*%
X53552026Y-55072920D03*
%TD*%
%TO.C,REF\u002A\u002A*%
X52551973Y-22201343D03*
%TD*%
%TO.C,REF\u002A\u002A*%
X38166677Y-39136982D03*
%TD*%
%TO.C,REF\u002A\u002A*%
X26184027Y-90346657D03*
%TD*%
%TO.C,REF\u002A\u002A*%
X38166852Y-72410982D03*
%TD*%
%TO.C,REF\u002A\u002A*%
X38166852Y-37136983D03*
%TD*%
%TO.C,REF\u002A\u002A*%
X51552026Y-55072657D03*
%TD*%
%TO.C,REF\u002A\u002A*%
X52552026Y-90346789D03*
%TD*%
%TO.C,REF\u002A\u002A*%
X65937147Y-75411017D03*
%TD*%
%TO.C,REF\u002A\u002A*%
X63534677Y-74410982D03*
%TD*%
%TO.C,REF\u002A\u002A*%
X40569147Y-40137017D03*
%TD*%
%TO.C,REF\u002A\u002A*%
X28183973Y-57475474D03*
%TD*%
%TO.C,REF\u002A\u002A*%
X38166677Y-74410982D03*
%TD*%
%TO.C,REF\u002A\u002A*%
X40569147Y-75411017D03*
%TD*%
%TO.C,REF\u002A\u002A*%
X52552026Y-55072789D03*
%TD*%
%TO.C,REF\u002A\u002A*%
X27184026Y-55072789D03*
%TD*%
%TO.C,REF\u002A\u002A*%
X50552026Y-90346525D03*
%TD*%
%TO.C,REF\u002A\u002A*%
X40569235Y-74411017D03*
%TD*%
%TO.C,REF\u002A\u002A*%
X50552026Y-55072525D03*
%TD*%
%TO.C,REF\u002A\u002A*%
X65937235Y-74411017D03*
%TD*%
%TO.C,REF\u002A\u002A*%
X63534589Y-75410982D03*
%TD*%
%TO.C,REF\u002A\u002A*%
X38166764Y-38136983D03*
%TD*%
%TO.C,REF\u002A\u002A*%
X65937410Y-72411017D03*
%TD*%
D10*
%TO.C,J2*%
X21604000Y-23524000D03*
D11*
X24144000Y-23524000D03*
X26684000Y-23524000D03*
X29224000Y-23524000D03*
X31764000Y-23524000D03*
%TD*%
D12*
%TO.C,REF\u002A\u002A*%
X25184027Y-55072525D03*
%TD*%
%TO.C,REF\u002A\u002A*%
X28183973Y-22201475D03*
%TD*%
%TO.C,REF\u002A\u002A*%
X38166589Y-75410982D03*
%TD*%
%TO.C,REF\u002A\u002A*%
X50551973Y-22201080D03*
%TD*%
%TO.C,REF\u002A\u002A*%
X27184026Y-90346789D03*
%TD*%
%TO.C,REF\u002A\u002A*%
X26183974Y-22201211D03*
%TD*%
%TO.C,REF\u002A\u002A*%
X28184026Y-55072920D03*
%TD*%
%TO.C,REF\u002A\u002A*%
X51552026Y-90346657D03*
%TD*%
%TO.C,REF\u002A\u002A*%
X50551973Y-57475079D03*
%TD*%
%TO.C,REF\u002A\u002A*%
X65937322Y-73411017D03*
%TD*%
%TO.C,REF\u002A\u002A*%
X40569235Y-39137017D03*
%TD*%
%TO.C,REF\u002A\u002A*%
X63534764Y-73410982D03*
%TD*%
%TO.C,REF\u002A\u002A*%
X40569410Y-72411017D03*
%TD*%
%TO.C,REF\u002A\u002A*%
X53552026Y-90346920D03*
%TD*%
%TO.C,REF\u002A\u002A*%
X38166764Y-73410982D03*
%TD*%
D10*
%TO.C,J3*%
X62212000Y-62608000D03*
D11*
X62212000Y-65148000D03*
X62212000Y-67688000D03*
X62212000Y-70228000D03*
X62212000Y-72768000D03*
X62212000Y-75308000D03*
X62212000Y-77848000D03*
X62212000Y-80388000D03*
X62212000Y-82928000D03*
X62212000Y-85468000D03*
X62212000Y-88008000D03*
%TD*%
D10*
%TO.C,J3*%
X36844000Y-62608000D03*
D11*
X36844000Y-65148000D03*
X36844000Y-67688000D03*
X36844000Y-70228000D03*
X36844000Y-72768000D03*
X36844000Y-75308000D03*
X36844000Y-77848000D03*
X36844000Y-80388000D03*
X36844000Y-82928000D03*
X36844000Y-85468000D03*
X36844000Y-88008000D03*
%TD*%
D10*
%TO.C,J3*%
X87580000Y-62608000D03*
D11*
X87580000Y-65148000D03*
X87580000Y-67688000D03*
X87580000Y-70228000D03*
X87580000Y-72768000D03*
X87580000Y-75308000D03*
X87580000Y-77848000D03*
X87580000Y-80388000D03*
X87580000Y-82928000D03*
X87580000Y-85468000D03*
X87580000Y-88008000D03*
%TD*%
D10*
%TO.C,J1*%
X16524000Y-27334000D03*
D11*
X16524000Y-29874000D03*
X16524000Y-32414000D03*
X16524000Y-34954000D03*
X16524000Y-37494000D03*
X16524000Y-40034000D03*
X16524000Y-42574000D03*
X16524000Y-45114000D03*
X16524000Y-47654000D03*
X16524000Y-50194000D03*
X16524000Y-52734000D03*
%TD*%
D10*
%TO.C,J1*%
X67260000Y-62608000D03*
D11*
X67260000Y-65148000D03*
X67260000Y-67688000D03*
X67260000Y-70228000D03*
X67260000Y-72768000D03*
X67260000Y-75308000D03*
X67260000Y-77848000D03*
X67260000Y-80388000D03*
X67260000Y-82928000D03*
X67260000Y-85468000D03*
X67260000Y-88008000D03*
%TD*%
D10*
%TO.C,J1*%
X16524000Y-62608000D03*
D11*
X16524000Y-65148000D03*
X16524000Y-67688000D03*
X16524000Y-70228000D03*
X16524000Y-72768000D03*
X16524000Y-75308000D03*
X16524000Y-77848000D03*
X16524000Y-80388000D03*
X16524000Y-82928000D03*
X16524000Y-85468000D03*
X16524000Y-88008000D03*
%TD*%
D13*
%TO.C,REF\u002A\u002A*%
X17000000Y-95548000D03*
%TD*%
D10*
%TO.C,J1*%
X41892000Y-62608000D03*
D11*
X41892000Y-65148000D03*
X41892000Y-67688000D03*
X41892000Y-70228000D03*
X41892000Y-72768000D03*
X41892000Y-75308000D03*
X41892000Y-77848000D03*
X41892000Y-80388000D03*
X41892000Y-82928000D03*
X41892000Y-85468000D03*
X41892000Y-88008000D03*
%TD*%
D10*
%TO.C,J3*%
X62212000Y-27334000D03*
D11*
X62212000Y-29874000D03*
X62212000Y-32414000D03*
X62212000Y-34954000D03*
X62212000Y-37494000D03*
X62212000Y-40034000D03*
X62212000Y-42574000D03*
X62212000Y-45114000D03*
X62212000Y-47654000D03*
X62212000Y-50194000D03*
X62212000Y-52734000D03*
%TD*%
D13*
%TO.C,REF\u002A\u002A*%
X17000000Y-17000000D03*
%TD*%
D10*
%TO.C,J1*%
X41892000Y-27334000D03*
D11*
X41892000Y-29874000D03*
X41892000Y-32414000D03*
X41892000Y-34954000D03*
X41892000Y-37494000D03*
X41892000Y-40034000D03*
X41892000Y-42574000D03*
X41892000Y-45114000D03*
X41892000Y-47654000D03*
X41892000Y-50194000D03*
X41892000Y-52734000D03*
%TD*%
D10*
%TO.C,J3*%
X36844000Y-27334000D03*
D11*
X36844000Y-29874000D03*
X36844000Y-32414000D03*
X36844000Y-34954000D03*
X36844000Y-37494000D03*
X36844000Y-40034000D03*
X36844000Y-42574000D03*
X36844000Y-45114000D03*
X36844000Y-47654000D03*
X36844000Y-50194000D03*
X36844000Y-52734000D03*
%TD*%
M02*
