%TF.GenerationSoftware,KiCad,Pcbnew,(6.0.8)*%
%TF.CreationDate,2022-11-08T11:05:10+01:00*%
%TF.ProjectId,STM32G030F6P6,53544d33-3247-4303-9330-463650362e6b,2.0*%
%TF.SameCoordinates,Original*%
%TF.FileFunction,Drillmap*%
%TF.FilePolarity,Positive*%
%FSLAX45Y45*%
G04 Gerber Fmt 4.5, Leading zero omitted, Abs format (unit mm)*
G04 Created by KiCad (PCBNEW (6.0.8)) date 2022-11-08 11:05:10*
%MOMM*%
%LPD*%
G01*
G04 APERTURE LIST*
%ADD10C,0.100000*%
%ADD11C,0.200000*%
%ADD12C,0.050000*%
G04 APERTURE END LIST*
D10*
X6373692Y-2000000D02*
X5454212Y-2000000D01*
X6373494Y-1500000D02*
X6373692Y-2000000D01*
X7990999Y-5727560D02*
X7492975Y-5727495D01*
X6373450Y-4112704D02*
X6373494Y-3614679D01*
X5358167Y-2125213D02*
X5357102Y-2120473D01*
X4077895Y-8976200D02*
X4077910Y-8976220D01*
X4037151Y-5338768D02*
X4037153Y-5338793D01*
X6650197Y-9012155D02*
X6650217Y-9012170D01*
X8797351Y-5747321D02*
X8797328Y-5747310D01*
X5358167Y-5652613D02*
X5357102Y-5647873D01*
X1506104Y-5878479D02*
X1506098Y-5878503D01*
X1678510Y-5526214D02*
X1678535Y-5526217D01*
X6479564Y-7541219D02*
X6484410Y-7541577D01*
X3773672Y-5781609D02*
X3773653Y-5781592D01*
X8908250Y-8883854D02*
X8908254Y-8883829D01*
X6533721Y-7221619D02*
X6529748Y-7224417D01*
X1629362Y-5514480D02*
X1629386Y-5514490D01*
X2907696Y-2000477D02*
X2912542Y-2000119D01*
X6652200Y-9013705D02*
X6658325Y-9018203D01*
X6361552Y-2331714D02*
X6360689Y-2329386D01*
X2510863Y-5666383D02*
X2508893Y-5670826D01*
X5395226Y-2019483D02*
X5399199Y-2016685D01*
X6360680Y-5856762D02*
X6357861Y-5849705D01*
X1530955Y-5820571D02*
X1529642Y-5822677D01*
X3925947Y-7541577D02*
X3930793Y-7541219D01*
X3758200Y-5486305D02*
X3758220Y-5486290D01*
X6453179Y-7239197D02*
X6448437Y-7238132D01*
X3637436Y-9054784D02*
X3645663Y-9054575D01*
X6360680Y-8925438D02*
X6360689Y-8925414D01*
X4099928Y-9000591D02*
X4099947Y-9000608D01*
X3815786Y-8943979D02*
X3816879Y-8941751D01*
X1500013Y-1999117D02*
X1500020Y-1999165D01*
X4195331Y-2204375D02*
X4195306Y-2204380D01*
X4138670Y-2225761D02*
X4138648Y-2225773D01*
X4071964Y-5440617D02*
X4073382Y-5442654D01*
X4037983Y-2378535D02*
X4037732Y-2381004D01*
X6627792Y-8991653D02*
X6627809Y-8991672D01*
X1501186Y-8876290D02*
X1502146Y-8883829D01*
X4195331Y-5523025D02*
X4197762Y-5523525D01*
X8910048Y-9754552D02*
X8910084Y-9754519D01*
X6262779Y-9033786D02*
X6262802Y-9033774D01*
X3665829Y-9052654D02*
X3665854Y-9052650D01*
X1620001Y-2216727D02*
X1619978Y-2216737D01*
X8909844Y-9754688D02*
X8909887Y-9754665D01*
X5395220Y-5708073D02*
X5391390Y-5705084D01*
X6288875Y-9018203D02*
X6295000Y-9013705D01*
X6232255Y-2208824D02*
X6224948Y-2206733D01*
X6286796Y-2235150D02*
X6280450Y-2230968D01*
X1500351Y-5338768D02*
X1500353Y-5338793D01*
X6304814Y-5478302D02*
X6310453Y-5473208D01*
X4056721Y-5840449D02*
X4056710Y-5840472D01*
X6184675Y-5727729D02*
X6184657Y-5727727D01*
X8869305Y-5806000D02*
X8869290Y-5805980D01*
X4197787Y-5523529D02*
X4205267Y-5524870D01*
X4052538Y-5405095D02*
X4052548Y-5405118D01*
X1500072Y-1500645D02*
X1500056Y-1500692D01*
X5355200Y-2099012D02*
X5355320Y-2094142D01*
X4073397Y-5812125D02*
X4073382Y-5812146D01*
X2504315Y-2048104D02*
X2506710Y-2052332D01*
X4037151Y-8866168D02*
X4037153Y-8866193D01*
X8849071Y-5783319D02*
X8847272Y-5781609D01*
X2818877Y-9165504D02*
X2818519Y-9160658D01*
X6684421Y-9033786D02*
X6686649Y-9034879D01*
X6577975Y-5885931D02*
X6577475Y-5888362D01*
X5364704Y-5670885D02*
X5362735Y-5666443D01*
X3816890Y-5840472D02*
X3816879Y-5840449D01*
X5007103Y-9068729D02*
X5011208Y-9071329D01*
X1536582Y-5812146D02*
X1535164Y-5814183D01*
X4175729Y-5736982D02*
X4168538Y-5739440D01*
X8910400Y-9753597D02*
X8910400Y-9753573D01*
X5364707Y-5583974D02*
X5366892Y-5579633D01*
X6324519Y-2268805D02*
X6324502Y-2268785D01*
X3952475Y-7240028D02*
X3947653Y-7240623D01*
X6569445Y-7611369D02*
X6570741Y-7616052D01*
X3800203Y-5442675D02*
X3800218Y-5442654D01*
X6192596Y-2200932D02*
X6192570Y-2200930D01*
X1519910Y-8941728D02*
X1519921Y-8941751D01*
X4085898Y-5458615D02*
X4090992Y-5464253D01*
X7590928Y-9170326D02*
X7590097Y-9175114D01*
X6371074Y-8886308D02*
X6371450Y-8883854D01*
X1638929Y-2209582D02*
X1631738Y-2212040D01*
X4052548Y-5405118D02*
X4053527Y-5407399D01*
X2819472Y-2084474D02*
X2820302Y-2079686D01*
X6372668Y-5346396D02*
X6372670Y-5346370D01*
X6732106Y-9050420D02*
X6732131Y-9050425D01*
X6774237Y-5727400D02*
X6774224Y-5727400D01*
X7582495Y-9198128D02*
X7580310Y-9202468D01*
X3811027Y-5829248D02*
X3807171Y-5822699D01*
X1500020Y-9255634D02*
X1500013Y-9255683D01*
X6356873Y-2320001D02*
X6356863Y-2319978D01*
X4084248Y-5798107D02*
X4079445Y-5803997D01*
X5355320Y-9148847D02*
X5355677Y-9144001D01*
X2819472Y-2115686D02*
X2818877Y-2110863D01*
X6244237Y-9041880D02*
X6251295Y-9039061D01*
X3665829Y-5525254D02*
X3665854Y-5525250D01*
X6675470Y-9029039D02*
X6677640Y-9030244D01*
X2827905Y-2056672D02*
X2830090Y-2052332D01*
X1506098Y-5376296D02*
X1506104Y-5376321D01*
X6686672Y-5747310D02*
X6686649Y-5747321D01*
X6253622Y-5744137D02*
X6253599Y-5744127D01*
X3832420Y-8896294D02*
X3832425Y-8896269D01*
X2907708Y-5527781D02*
X2912555Y-5527424D01*
X1500225Y-5336263D02*
X1500225Y-5336289D01*
X8847253Y-5781592D02*
X8841615Y-5776498D01*
X6330954Y-2276597D02*
X6326152Y-2270707D01*
X5391390Y-5705084D02*
X5387711Y-5701910D01*
X3794170Y-2276617D02*
X3794154Y-2276597D01*
X4037129Y-2388924D02*
X4037127Y-2388943D01*
X2893334Y-2197191D02*
X2888652Y-2195894D01*
X1502526Y-2368492D02*
X1502150Y-2370946D01*
X6372414Y-5905910D02*
X6371454Y-5898371D01*
X3821052Y-5405118D02*
X3821061Y-5405095D01*
X7563008Y-9083641D02*
X7566358Y-9087160D01*
X1524544Y-5831462D02*
X1521026Y-5838198D01*
X1535164Y-5440617D02*
X1536582Y-5442654D01*
X6373247Y-2388607D02*
X6372670Y-2381030D01*
X6373928Y-7630388D02*
X6374523Y-7625566D01*
X4956175Y-5727495D02*
X4237437Y-5727400D01*
X3935663Y-7541100D02*
X3937894Y-7541100D01*
X4066428Y-5822699D02*
X4062573Y-5829248D01*
X6234647Y-5517826D02*
X6234671Y-5517818D01*
X2875081Y-9064206D02*
X2879523Y-9062238D01*
X6598156Y-5831440D02*
X6598144Y-5831462D01*
X6373374Y-5918511D02*
X6373249Y-5916032D01*
X5015174Y-2019483D02*
X5019005Y-2022472D01*
X5054723Y-9165504D02*
X5054128Y-9170326D01*
X8910370Y-9754014D02*
X8910380Y-9753966D01*
X4970738Y-9055713D02*
X4975525Y-9056544D01*
X8854463Y-8993489D02*
X8854480Y-8993471D01*
X3837723Y-4098166D02*
X3838554Y-4093379D01*
X3980275Y-3704196D02*
X3975833Y-3706165D01*
X4215335Y-5526217D02*
X4217804Y-5526468D01*
X1500932Y-5908404D02*
X1500930Y-5908429D01*
X6372668Y-8873796D02*
X6372670Y-8873770D01*
X4037153Y-5338793D02*
X4037730Y-5346370D01*
X6467636Y-7240980D02*
X6462790Y-7240623D01*
X5387716Y-9229154D02*
X5384197Y-9225803D01*
X4073397Y-2284725D02*
X4073382Y-2284746D01*
X1500016Y-5328023D02*
X1500016Y-5328035D01*
X4042904Y-5376321D02*
X4043526Y-5378724D01*
X6372417Y-8876265D02*
X6372668Y-8873796D01*
X6326136Y-8984112D02*
X6326152Y-8984093D01*
X4147598Y-5748426D02*
X4140862Y-5751944D01*
X7914476Y-9090896D02*
X7917650Y-9087216D01*
X5407540Y-5538991D02*
X5411881Y-5536806D01*
X8817251Y-5758368D02*
X8817229Y-5758355D01*
X3947653Y-3713223D02*
X3942807Y-3713580D01*
X6666749Y-5758368D02*
X6660404Y-5762550D01*
X3815786Y-5838221D02*
X3815774Y-5838198D01*
X2498920Y-9094670D02*
X2501718Y-9098642D01*
X6763490Y-9054526D02*
X6764400Y-9054543D01*
X6271730Y-5753161D02*
X6269560Y-5751956D01*
X6644288Y-5774864D02*
X6642404Y-5776481D01*
X6762543Y-9054473D02*
X6763452Y-9054524D01*
X3889023Y-3702009D02*
X3884795Y-3699613D01*
X3734930Y-9029039D02*
X3734952Y-9029027D01*
X3897767Y-4021235D02*
X3902300Y-4019487D01*
X6337003Y-5442675D02*
X6337018Y-5442654D01*
X6222521Y-2206104D02*
X6222496Y-2206098D01*
X2907684Y-5727082D02*
X2902862Y-5726487D01*
X1595277Y-5757042D02*
X1593171Y-5758355D01*
X5444496Y-9254323D02*
X5439674Y-9253728D01*
X2498917Y-9214774D02*
X2495928Y-9218605D01*
X1651079Y-2206104D02*
X1648676Y-2206726D01*
X8900826Y-8915847D02*
X8901569Y-8913479D01*
X6752135Y-9053617D02*
X6754604Y-9053868D01*
X3780880Y-8993471D02*
X3782591Y-8991672D01*
X6269537Y-2224544D02*
X6262802Y-2221026D01*
X3726002Y-5506374D02*
X3732737Y-5502856D01*
X1648651Y-5734133D02*
X1641345Y-5736224D01*
X6684398Y-9033774D02*
X6684421Y-9033786D01*
X4166162Y-5514480D02*
X4166186Y-5514490D01*
X8884639Y-8952930D02*
X8885844Y-8950760D01*
X3688148Y-9048067D02*
X3695455Y-9045976D01*
X4236164Y-2200016D02*
X4227937Y-2200225D01*
X3840955Y-7170831D02*
X3839659Y-7166148D01*
X1500135Y-9754287D02*
X1500160Y-9754330D01*
X4037986Y-2378510D02*
X4037983Y-2378535D01*
X1681004Y-5728332D02*
X1678535Y-5728583D01*
X5029558Y-9087160D02*
X5032731Y-9090839D01*
X4041175Y-5885931D02*
X4040675Y-5888362D01*
X6373326Y-5337510D02*
X6373343Y-5336600D01*
X2518280Y-5633353D02*
X2517923Y-5638199D01*
X6366867Y-8906148D02*
X6366873Y-8906124D01*
X6222496Y-2206098D02*
X6215094Y-2204380D01*
X4105585Y-2249098D02*
X4099947Y-2254192D01*
X6573272Y-7151812D02*
X6572677Y-7156634D01*
X3789336Y-2270688D02*
X3787719Y-2268805D01*
X6570781Y-7166162D02*
X6569484Y-7170845D01*
X2893356Y-9057670D02*
X2898097Y-9056605D01*
X6278323Y-2229642D02*
X6278301Y-2229628D01*
X5403311Y-5541386D02*
X5407540Y-5538991D01*
X2830092Y-5579633D02*
X2832487Y-5575405D01*
X4970715Y-5726425D02*
X4965891Y-5727019D01*
X3658265Y-2201183D02*
X3655796Y-2200932D01*
X5054723Y-2089296D02*
X5055080Y-2094142D01*
X1500390Y-1500217D02*
X1500352Y-1500248D01*
X7894967Y-9179855D02*
X7893902Y-9175114D01*
X1521014Y-5416579D02*
X1521026Y-5416602D01*
X5019010Y-9077116D02*
X5022689Y-9080290D01*
X3697847Y-5736974D02*
X3695479Y-5736231D01*
X6573600Y-8854164D02*
X6573600Y-8854177D01*
X2489403Y-9225803D02*
X2485884Y-9229154D01*
X1506733Y-2348652D02*
X1506726Y-2348676D01*
X4105604Y-9005719D02*
X4107488Y-9007336D01*
X1519910Y-5840472D02*
X1516737Y-5847378D01*
X4061356Y-2304040D02*
X4061344Y-2304062D01*
X8799579Y-9033786D02*
X8799602Y-9033774D01*
X4195306Y-9050420D02*
X4195331Y-9050425D01*
X7587737Y-9184538D02*
X7586212Y-9189152D01*
X8906529Y-8893813D02*
X8907870Y-8886333D01*
X6373970Y-7151795D02*
X6373613Y-7146949D01*
X3937937Y-3713700D02*
X3935706Y-3713700D01*
X2917425Y-5527305D02*
X3636163Y-5527400D01*
X6594626Y-8944002D02*
X6598144Y-8950738D01*
X4115400Y-5486305D02*
X4121525Y-5490803D01*
X6369220Y-8896294D02*
X6369225Y-8896269D01*
X1595299Y-2229628D02*
X1595277Y-2229642D01*
X4037983Y-5905935D02*
X4037732Y-5908404D01*
X6702986Y-5740310D02*
X6702962Y-5740319D01*
X8885844Y-5831440D02*
X8884639Y-5829270D01*
X8909470Y-5908429D02*
X8909468Y-5908404D01*
X6317663Y-2261311D02*
X6312289Y-2255937D01*
X2854589Y-2177684D02*
X2850911Y-2174510D01*
X3655770Y-9053870D02*
X3655796Y-9053868D01*
X2504315Y-9206696D02*
X2501715Y-9210801D01*
X2515433Y-2074945D02*
X2516497Y-2079686D01*
X6324502Y-5458615D02*
X6324519Y-5458595D01*
X8909661Y-9254842D02*
X8909614Y-9254830D01*
X4098111Y-5471463D02*
X4098129Y-5471480D01*
X8823617Y-9019636D02*
X8825654Y-9018218D01*
X6271730Y-5501639D02*
X6271752Y-5501627D01*
X8906025Y-8896269D02*
X8906525Y-8893838D01*
X4031160Y-7175458D02*
X4029411Y-7179991D01*
X3823880Y-5856762D02*
X3821061Y-5849705D01*
X1500281Y-9754484D02*
X1500316Y-9754519D01*
X2827904Y-5670885D02*
X2825935Y-5666443D01*
X7555805Y-9232328D02*
X7551974Y-9235317D01*
X1535164Y-8968017D02*
X1536582Y-8970054D01*
X1688924Y-5527071D02*
X1688943Y-5527073D01*
X2512613Y-2065648D02*
X2514137Y-2070262D01*
X2858432Y-9074183D02*
X2862405Y-9071385D01*
X5032724Y-5691304D02*
X5029550Y-5694983D01*
X3665854Y-5525250D02*
X3668307Y-5524874D01*
X6439100Y-7546887D02*
X6443714Y-7545363D01*
X8797351Y-9034879D02*
X8799579Y-9033786D01*
X1502530Y-8886333D02*
X1503870Y-8893813D01*
X6319391Y-2263128D02*
X6317680Y-2261329D01*
X5355200Y-2101148D02*
X5355200Y-2099012D01*
X6297003Y-9012155D02*
X6302893Y-9007352D01*
X1670971Y-5729546D02*
X1670946Y-5729550D01*
X4073397Y-8970075D02*
X4077895Y-8976200D01*
X1524556Y-8950760D02*
X1525761Y-8952930D01*
X3848381Y-3661363D02*
X3846196Y-3657022D01*
X7893902Y-9175114D02*
X7893072Y-9170326D01*
X8898360Y-5859138D02*
X8898352Y-5859114D01*
X3821061Y-8932495D02*
X3823880Y-8925438D01*
X5047665Y-5588357D02*
X5049414Y-5592890D01*
X6241862Y-5739440D02*
X6234671Y-5736982D01*
X1503870Y-2360987D02*
X1502530Y-2368467D01*
X4037127Y-2388943D02*
X4037076Y-2389852D01*
X8910392Y-9255732D02*
X8910387Y-9255683D01*
X3697847Y-9045226D02*
X3697871Y-9045218D01*
X4036816Y-5328035D02*
X4037025Y-5336263D01*
X3766112Y-5479936D02*
X3767995Y-5478319D01*
X2518280Y-9148782D02*
X2518400Y-9153652D01*
X6174224Y-5527384D02*
X6174236Y-5527384D01*
X6608750Y-5814204D02*
X6604568Y-5820549D01*
X5055080Y-9148782D02*
X5055200Y-9153652D01*
X3835617Y-2378535D02*
X3835614Y-2378510D01*
X6732131Y-5731775D02*
X6732106Y-5731780D01*
X1500000Y-8854177D02*
X1500016Y-8855423D01*
X4020224Y-4057703D02*
X4022824Y-4061809D01*
X6297003Y-5770045D02*
X6296983Y-5770030D01*
X4090992Y-5790547D02*
X4085898Y-5796185D01*
X8889374Y-5838198D02*
X8885856Y-5831462D01*
X6567921Y-7606754D02*
X6569445Y-7611369D01*
X1500930Y-8873770D02*
X1500932Y-8873796D01*
X6395963Y-7204901D02*
X6392973Y-7201070D01*
X3805832Y-8961651D02*
X3805845Y-8961629D01*
X8909468Y-9754792D02*
X8909517Y-9754787D01*
X6364026Y-5388447D02*
X6364769Y-5386079D01*
X3675838Y-9050925D02*
X3678269Y-9050425D01*
X6361560Y-2331738D02*
X6361552Y-2331714D01*
X1601848Y-5501627D02*
X1601870Y-5501639D01*
X2822664Y-9124965D02*
X2824188Y-9120350D01*
X1500276Y-5917252D02*
X1500274Y-5917290D01*
X7539668Y-9243110D02*
X7535328Y-9245295D01*
X4129949Y-2230968D02*
X4123604Y-2235150D01*
X4090992Y-5464253D02*
X4091009Y-5464272D01*
X3685721Y-5521296D02*
X3688124Y-5520674D01*
X6622681Y-8985995D02*
X6622698Y-8986015D01*
X6732106Y-5731780D02*
X6724703Y-5733498D01*
X1547464Y-5798088D02*
X1547448Y-5798107D01*
X6222521Y-5521296D02*
X6224924Y-5520674D01*
X6390138Y-7585094D02*
X6392936Y-7581122D01*
X3787719Y-5458595D02*
X3789336Y-5456712D01*
X3775471Y-5471480D02*
X3775489Y-5471463D01*
X5047664Y-9193686D02*
X5045695Y-9198128D01*
X5430145Y-9251833D02*
X5425462Y-9250537D01*
X1506726Y-8906124D02*
X1506733Y-8906148D01*
X1547464Y-5456712D02*
X1549081Y-5458595D01*
X5019005Y-2022472D02*
X5022684Y-2025646D01*
X1504375Y-5368869D02*
X1504380Y-5368894D01*
X8817229Y-5758355D02*
X8815123Y-5757042D01*
X6390176Y-7197097D02*
X6387576Y-7192991D01*
X4195306Y-5523020D02*
X4195331Y-5523025D01*
X8910387Y-9753917D02*
X8910392Y-9753868D01*
X3815774Y-2310798D02*
X3812256Y-2304062D01*
X6559662Y-7193001D02*
X6557062Y-7197106D01*
X3685696Y-2206098D02*
X3678294Y-2204380D01*
X6343958Y-8959523D02*
X6343971Y-8959501D01*
X3780880Y-5788729D02*
X3780863Y-5788711D01*
X1610798Y-5506374D02*
X1610821Y-5506386D01*
X2819472Y-5643085D02*
X2818877Y-5638263D01*
X5357103Y-2079686D02*
X5358167Y-2074945D01*
X6614695Y-8976200D02*
X6614710Y-8976220D01*
X5434875Y-2198256D02*
X5430134Y-2197191D01*
X7986155Y-9054824D02*
X7991025Y-9054705D01*
X1631714Y-2212048D02*
X1629386Y-2212910D01*
X5449342Y-9254680D02*
X5444496Y-9254323D01*
X7580310Y-9202468D02*
X7577915Y-9206696D01*
X2512613Y-9189152D02*
X2510864Y-9193686D01*
X6310472Y-9000591D02*
X6312271Y-8998880D01*
X5035717Y-9214774D02*
X5032728Y-9218605D01*
X1595299Y-5757028D02*
X1595277Y-5757042D01*
X6312271Y-2255920D02*
X6310472Y-2254209D01*
X7502716Y-9055118D02*
X7507538Y-9055713D01*
X1699363Y-5727416D02*
X1691136Y-5727625D01*
X6352586Y-2310821D02*
X6352574Y-2310798D01*
X3996883Y-7560585D02*
X4000714Y-7563574D01*
X4961070Y-5527360D02*
X4965916Y-5527718D01*
X6371074Y-5358908D02*
X6371450Y-5356454D01*
X2830088Y-2147825D02*
X2827904Y-2143485D01*
X7592000Y-9155788D02*
X7591880Y-9160658D01*
X6337018Y-5442654D02*
X6338436Y-5440617D01*
X4036800Y-5326777D02*
X4036816Y-5328023D01*
X5358168Y-9129648D02*
X5359464Y-9124965D01*
X1641345Y-9045976D02*
X1648651Y-9048067D01*
X8879445Y-5820571D02*
X8879432Y-5820549D01*
X8808552Y-5753173D02*
X8808530Y-5753161D01*
X3648193Y-5527047D02*
X3655770Y-5526470D01*
X1561329Y-8998880D02*
X1563128Y-9000591D01*
X3834274Y-5895892D02*
X3834270Y-5895867D01*
X6302893Y-2247448D02*
X6297003Y-2242645D01*
X6212613Y-5731270D02*
X6205132Y-5729930D01*
X3807158Y-5822677D02*
X3805845Y-5820571D01*
X6373600Y-5928035D02*
X6373600Y-5928023D01*
X3695479Y-9045969D02*
X3697847Y-9045226D01*
X2514137Y-2070262D02*
X2515433Y-2074945D01*
X7991025Y-9054705D02*
X8709763Y-9054800D01*
X1629362Y-2212920D02*
X1622305Y-2215739D01*
X8781014Y-5740310D02*
X8778686Y-5739448D01*
X5449330Y-5727440D02*
X5444484Y-5727082D01*
X4217804Y-5728332D02*
X4215335Y-5728583D01*
X6372670Y-2381030D02*
X6372668Y-2381004D01*
X6754604Y-5728332D02*
X6752135Y-5728583D01*
X5374683Y-9214774D02*
X5371885Y-9210801D01*
X4036830Y-7146966D02*
X4036472Y-7151812D01*
X3876679Y-7560581D02*
X3880652Y-7557783D01*
X2866511Y-9068786D02*
X2870740Y-9066391D01*
X6253599Y-5510673D02*
X6253622Y-5510663D01*
X2847392Y-2171159D02*
X2844042Y-2167640D01*
X5018999Y-5705027D02*
X5015168Y-5708017D01*
X6296983Y-5770030D02*
X6295020Y-5768510D01*
X8906529Y-5888387D02*
X8906525Y-5888362D01*
X6430164Y-7231594D02*
X6425823Y-7229409D01*
X4226652Y-9054524D02*
X4226690Y-9054526D01*
X7901505Y-9198128D02*
X7899536Y-9193686D01*
X6205107Y-5729926D02*
X6202654Y-5729550D01*
X5371882Y-5683558D02*
X5369283Y-5679453D01*
X6369725Y-5888362D02*
X6369225Y-5885931D01*
X6373375Y-2391137D02*
X6373374Y-2391111D01*
X6774224Y-5727400D02*
X6772976Y-5727416D01*
X1503875Y-5888362D02*
X1503870Y-5888387D01*
X2888672Y-5531565D02*
X2893356Y-5530270D01*
X8799602Y-5748426D02*
X8799579Y-5748414D01*
X5041117Y-9102747D02*
X5043512Y-9106975D01*
X1690819Y-5527143D02*
X2419401Y-5527239D01*
X6373450Y-7640104D02*
X6373570Y-7635234D01*
X6297003Y-2242645D02*
X6296983Y-2242630D01*
X5029554Y-2032516D02*
X5032728Y-2036195D01*
X6286796Y-5762550D02*
X6280450Y-5758368D01*
X1506726Y-5876076D02*
X1506104Y-5878479D01*
X8909614Y-9754770D02*
X8909661Y-9754758D01*
X6573616Y-8855435D02*
X6573825Y-8863663D01*
X3734930Y-5501639D02*
X3734952Y-5501627D01*
X4066442Y-5822677D02*
X4066428Y-5822699D01*
X6387538Y-7589199D02*
X6390138Y-7585094D01*
X5430156Y-5530270D02*
X5434897Y-5529205D01*
X2504317Y-9102747D02*
X2506712Y-9106975D01*
X4121525Y-5490803D02*
X4121546Y-5490818D01*
X3957221Y-4015603D02*
X3961962Y-4016667D01*
X6642385Y-9005702D02*
X6642404Y-9005719D01*
X3816890Y-8941728D02*
X3820063Y-8934822D01*
X4038946Y-5356429D02*
X4038950Y-5356454D01*
X2516497Y-5647810D02*
X2515432Y-5652552D01*
X6232279Y-5518569D02*
X6234647Y-5517826D01*
X8880758Y-8959523D02*
X8880772Y-8959501D01*
X5357102Y-5647873D02*
X5356272Y-5643085D01*
X6349044Y-5423360D02*
X6349056Y-5423338D01*
X8839693Y-5774848D02*
X8833803Y-5770045D01*
X4000714Y-4036174D02*
X4004393Y-4039349D01*
X2508895Y-2056672D02*
X2510864Y-2061114D01*
X3732737Y-2224544D02*
X3726002Y-2221026D01*
X3655770Y-5526470D02*
X3655796Y-5526468D01*
X4056721Y-5414351D02*
X4057814Y-5416579D01*
X1515738Y-2322305D02*
X1512919Y-2329362D01*
X1549098Y-2268785D02*
X1549081Y-2268805D01*
X8815123Y-5757042D02*
X8815101Y-5757028D01*
X1506098Y-8903696D02*
X1506104Y-8903721D01*
X1584725Y-5490803D02*
X1584746Y-5490818D01*
X2516498Y-5606927D02*
X2517328Y-5611714D01*
X7897787Y-9189152D02*
X7896263Y-9184538D01*
X6598144Y-5831462D02*
X6594626Y-5838198D01*
X2821368Y-5602248D02*
X2822664Y-5597565D01*
X1504375Y-5885931D02*
X1503875Y-5888362D01*
X5041113Y-2151995D02*
X5038513Y-2156100D01*
X2830088Y-5675225D02*
X2827904Y-5670885D01*
X3836784Y-2399377D02*
X3836784Y-2399365D01*
X2862399Y-9238115D02*
X2858426Y-9235317D01*
X6172963Y-5527400D02*
X6172976Y-5527400D01*
X3865650Y-7570093D02*
X3869169Y-7566743D01*
X8823596Y-9019650D02*
X8823617Y-9019636D01*
X4025257Y-3661373D02*
X4022862Y-3665601D01*
X1500188Y-9754370D02*
X1500217Y-9754410D01*
X4067768Y-2293149D02*
X4067755Y-2293171D01*
X6319408Y-2263147D02*
X6319391Y-2263128D01*
X6366867Y-5378748D02*
X6366873Y-5378724D01*
X1500020Y-1500834D02*
X1500013Y-1500883D01*
X5026199Y-2171103D02*
X5022679Y-2174453D01*
X6295000Y-5486305D02*
X6295020Y-5486290D01*
X1500470Y-1500160D02*
X1500430Y-1500188D01*
X4132077Y-5497758D02*
X4132099Y-5497772D01*
X6174236Y-5527384D02*
X6182463Y-5527175D01*
X2825936Y-9193686D02*
X2824187Y-9189152D01*
X1610821Y-5748414D02*
X1610798Y-5748426D01*
X7590097Y-9175114D02*
X7589033Y-9179855D01*
X4033941Y-7616052D02*
X4035005Y-7620793D01*
X4178121Y-5518569D02*
X4178145Y-5518576D01*
X6195090Y-9053614D02*
X6202629Y-9052654D01*
X5411872Y-9245295D02*
X5407532Y-9243110D01*
X2514138Y-9124904D02*
X2515433Y-9129587D01*
X6593510Y-5840472D02*
X6590337Y-5847378D01*
X1502150Y-5356454D02*
X1502526Y-5358908D01*
X1530968Y-5434251D02*
X1535150Y-5440596D01*
X6269560Y-9030244D02*
X6271730Y-9029039D01*
X4123583Y-5762564D02*
X4121546Y-5763982D01*
X3795705Y-8976200D02*
X3800203Y-8970075D01*
X3743629Y-2230955D02*
X3741523Y-2229642D01*
X1570688Y-5774864D02*
X1568804Y-5776481D01*
X4067755Y-5820571D02*
X4066442Y-5822677D01*
X3966686Y-7236837D02*
X3962003Y-7238133D01*
X4217804Y-9053868D02*
X4217830Y-9053870D01*
X6583182Y-8915871D02*
X6585640Y-8923062D01*
X3794154Y-2276597D02*
X3789352Y-2270707D01*
X4215310Y-5526214D02*
X4215335Y-5526217D01*
X1689890Y-9054526D02*
X1690800Y-9054543D01*
X3821052Y-8932518D02*
X3821061Y-8932495D01*
X7928195Y-9232328D02*
X7924516Y-9229154D01*
X3906954Y-3709436D02*
X3902340Y-3707912D01*
X3884795Y-3699613D02*
X3880690Y-3697013D01*
X1658506Y-5731780D02*
X1651103Y-5733498D01*
X6372414Y-2378510D02*
X6371454Y-2370971D01*
X4042898Y-8903696D02*
X4042904Y-8903721D01*
X6579698Y-5878503D02*
X6577980Y-5885906D01*
X6622698Y-8986015D02*
X6627792Y-8991653D01*
X4225724Y-5527071D02*
X4225743Y-5527073D01*
X8788118Y-9039052D02*
X8790399Y-9038073D01*
X6302912Y-9007336D02*
X6304795Y-9005719D01*
X5384192Y-2171159D02*
X5380842Y-2167640D01*
X4041175Y-5368869D02*
X4041180Y-5368894D01*
X2832485Y-9206696D02*
X2830090Y-9202468D01*
X6369225Y-8896269D02*
X6369725Y-8893838D01*
X2875081Y-5536806D02*
X2879523Y-5534838D01*
X8906525Y-5888362D02*
X8906025Y-5885931D01*
X3723750Y-5507479D02*
X3725979Y-5506386D01*
X6295020Y-2241110D02*
X6295000Y-2241095D01*
X3942764Y-4013819D02*
X3947610Y-4014177D01*
X3665829Y-2202146D02*
X3658290Y-2201186D01*
X1547464Y-2270688D02*
X1547448Y-2270707D01*
X5366890Y-9202468D02*
X5364705Y-9198128D01*
X6764400Y-9054543D02*
X6764419Y-9054543D01*
X3801636Y-2286783D02*
X3800218Y-2284746D01*
X2866497Y-5713471D02*
X2862392Y-5710871D01*
X3812244Y-8950760D02*
X3812256Y-8950738D01*
X3850776Y-7192991D02*
X3848381Y-7188763D01*
X3658290Y-5728586D02*
X3658265Y-5728583D01*
X6312271Y-5471480D02*
X6312289Y-5471463D01*
X4049710Y-2329386D02*
X4048848Y-2331714D01*
X6634929Y-5783319D02*
X6634911Y-5783337D01*
X6373600Y-2400636D02*
X6373600Y-2400623D01*
X2837883Y-9214774D02*
X2835085Y-9210801D01*
X6302912Y-5479936D02*
X6304795Y-5478319D01*
X6675470Y-5753161D02*
X6675448Y-5753173D01*
X4011300Y-3681187D02*
X4007950Y-3684706D01*
X6762524Y-9054471D02*
X6762543Y-9054473D01*
X6417490Y-7224413D02*
X6413517Y-7221615D01*
X4036472Y-3624412D02*
X4035877Y-3629234D01*
X1504380Y-5368894D02*
X1506098Y-5376296D01*
X3789336Y-5456712D02*
X3789352Y-5456693D01*
X8909217Y-5905935D02*
X8909214Y-5905910D01*
X6224948Y-5520667D02*
X6232255Y-5518576D01*
X7911486Y-9094727D02*
X7914476Y-9090896D01*
X6371450Y-2370946D02*
X6371074Y-2368492D01*
X6349044Y-8950760D02*
X6349056Y-8950738D01*
X3835614Y-2378510D02*
X3834654Y-2370971D01*
X2832487Y-9102805D02*
X2835087Y-9098700D01*
X3820063Y-2319978D02*
X3816890Y-2313072D01*
X3992948Y-3697017D02*
X3988843Y-3699616D01*
X7940104Y-9240715D02*
X7935999Y-9238115D01*
X1500932Y-1999992D02*
X1500981Y-1999994D01*
X2438703Y-2198195D02*
X2433915Y-2199025D01*
X4099928Y-5473191D02*
X4099947Y-5473208D01*
X4227911Y-2200226D02*
X4225432Y-2200351D01*
X6529748Y-7224417D02*
X6525643Y-7227016D01*
X6405969Y-7566743D02*
X6409648Y-7563570D01*
X1500316Y-9754519D02*
X1500352Y-9754552D01*
X3734952Y-2225773D02*
X3734930Y-2225761D01*
X5360987Y-2065648D02*
X5362736Y-2061114D01*
X6260550Y-9034879D02*
X6262779Y-9033786D01*
X1610798Y-2221026D02*
X1604062Y-2224544D01*
X4035877Y-7156634D02*
X4035046Y-7161421D01*
X6304814Y-2249098D02*
X6304795Y-2249081D01*
X4043526Y-5378724D02*
X4043533Y-5378748D01*
X2866504Y-9240715D02*
X2862399Y-9238115D01*
X1502146Y-5898371D02*
X1501186Y-5905910D01*
X6371070Y-5358933D02*
X6371074Y-5358908D01*
X8790422Y-9038063D02*
X8797328Y-9034890D01*
X3678269Y-5523025D02*
X3678294Y-5523020D01*
X7526361Y-9060430D02*
X7530894Y-9062179D01*
X2492754Y-9222284D02*
X2489403Y-9225803D01*
X6202654Y-2202150D02*
X6202629Y-2202146D01*
X6585648Y-8923086D02*
X6586510Y-8925414D01*
X4049719Y-8925438D02*
X4052538Y-8932495D01*
X2424270Y-5527360D02*
X2429116Y-5527718D01*
X1509582Y-2338929D02*
X1509574Y-2338953D01*
X4121525Y-9018203D02*
X4121546Y-9018218D01*
X3836575Y-5918536D02*
X3836574Y-5918511D01*
X1500000Y-9256003D02*
X1500000Y-9256027D01*
X3665854Y-5729550D02*
X3665829Y-5729546D01*
X3832929Y-8893813D02*
X3834270Y-8886333D01*
X2448138Y-9250537D02*
X2443455Y-9251833D01*
X3865687Y-3684700D02*
X3862337Y-3681181D01*
X6372670Y-8873770D02*
X6373271Y-8865876D01*
X8904302Y-8903696D02*
X8906020Y-8896294D01*
X4073382Y-2284746D02*
X4071964Y-2286783D01*
X4084248Y-5456693D02*
X4084264Y-5456712D01*
X8898352Y-5859114D02*
X8897490Y-5856786D01*
X7521738Y-9250537D02*
X7517055Y-9251833D01*
X6262779Y-2221014D02*
X6260550Y-2219921D01*
X6379279Y-7175446D02*
X6377755Y-7170831D01*
X4205267Y-2202530D02*
X4197787Y-2203871D01*
X5430156Y-9057670D02*
X5434897Y-9056605D01*
X1554209Y-5790528D02*
X1554192Y-5790547D01*
X6253599Y-5744127D02*
X6251318Y-5743148D01*
X4227600Y-5527143D02*
X4227619Y-5527143D01*
X8907870Y-5895867D02*
X8906529Y-5888387D01*
X4052538Y-2322305D02*
X4049719Y-2329362D01*
X5043508Y-2147767D02*
X5041113Y-2151995D01*
X6658346Y-5763982D02*
X6658325Y-5763997D01*
X6366867Y-2348652D02*
X6364776Y-2341345D01*
X6271730Y-9029039D02*
X6271752Y-9029027D01*
X6372417Y-2378535D02*
X6372414Y-2378510D01*
X4031121Y-4079354D02*
X4032645Y-4083969D01*
X6260528Y-2219910D02*
X6253622Y-2216737D01*
X4036816Y-5328023D02*
X4036816Y-5328035D01*
X4099947Y-9000608D02*
X4105585Y-9005702D01*
X6222521Y-9048696D02*
X6224924Y-9048074D01*
X2847397Y-2028997D02*
X2850916Y-2025646D01*
X1500008Y-1500932D02*
X1500006Y-1500981D01*
X8788095Y-5743138D02*
X8781038Y-5740319D01*
X1541110Y-5805980D02*
X1541095Y-5806000D01*
X5377669Y-5691361D02*
X5374680Y-5687530D01*
X5038513Y-5683500D02*
X5035714Y-5687473D01*
X6343958Y-5822677D02*
X6342645Y-5820571D01*
X6573750Y-7142096D02*
X6573630Y-7146966D01*
X6406007Y-7215451D02*
X6402487Y-7212100D01*
X3836472Y-5338457D02*
X3836524Y-5337548D01*
X6374564Y-7156618D02*
X6373970Y-7151795D01*
X3823889Y-5398014D02*
X3824752Y-5395686D01*
X2489408Y-9083641D02*
X2492758Y-9087160D01*
X5360987Y-9189152D02*
X5359463Y-9184538D01*
X2461736Y-5536749D02*
X2466076Y-5538934D01*
X6353679Y-5840449D02*
X6352586Y-5838221D01*
X7569531Y-9090839D02*
X7572520Y-9094670D01*
X3836543Y-8864000D02*
X3836543Y-8863981D01*
X3760183Y-5770030D02*
X3758220Y-5768510D01*
X3888984Y-7552789D02*
X3893325Y-7550604D01*
X6574530Y-5908429D02*
X6573929Y-5916324D01*
X6286817Y-5762564D02*
X6286796Y-5762550D01*
X8719263Y-9054575D02*
X8719289Y-9054574D01*
X3678269Y-2204375D02*
X3675838Y-2203875D01*
X2850921Y-9080347D02*
X2854601Y-9077173D01*
X3834274Y-2368492D02*
X3834270Y-2368467D01*
X1500248Y-9754448D02*
X1500281Y-9754484D01*
X1576617Y-2242630D02*
X1576597Y-2242645D01*
X1668492Y-2202526D02*
X1668467Y-2202530D01*
X3787702Y-5458615D02*
X3787719Y-5458595D01*
X2517328Y-5611714D02*
X2517923Y-5616537D01*
X2820302Y-9175114D02*
X2819472Y-9170326D01*
X6380989Y-7602208D02*
X6382958Y-7597766D01*
X5434886Y-2001902D02*
X5439674Y-2001072D01*
X2879514Y-2007536D02*
X2884048Y-2005787D01*
X5403304Y-9240715D02*
X5399199Y-9238115D01*
X6564203Y-7597778D02*
X6566172Y-7602220D01*
X3678294Y-5731780D02*
X3678269Y-5731775D01*
X6352574Y-5838198D02*
X6349056Y-5831462D01*
X6644288Y-9007336D02*
X6644307Y-9007352D01*
X1500091Y-9754200D02*
X1500112Y-9754244D01*
X1500030Y-9754014D02*
X1500042Y-9754061D01*
X6343958Y-5432123D02*
X6343971Y-5432101D01*
X6212638Y-2203875D02*
X6212613Y-2203871D01*
X6361552Y-5859114D02*
X6360689Y-5856786D01*
X6548100Y-7208587D02*
X6544750Y-7212106D01*
X2902862Y-5726487D02*
X2898075Y-5725656D01*
X8867755Y-5803997D02*
X8862952Y-5798107D01*
X6693601Y-5744127D02*
X6693578Y-5744137D01*
X3836449Y-5916032D02*
X3836447Y-5916007D01*
X4215310Y-2201186D02*
X4207771Y-2202146D01*
X1501227Y-9254800D02*
X1501203Y-9254800D01*
X4185476Y-5734126D02*
X4185451Y-5734133D01*
X6571805Y-7620793D02*
X6572635Y-7625581D01*
X4042904Y-8903721D02*
X4043526Y-8906124D01*
X6332505Y-2278600D02*
X6332490Y-2278580D01*
X6260528Y-5507490D02*
X6260550Y-5507479D01*
X1501203Y-9754800D02*
X1501227Y-9754800D01*
X3811027Y-2301848D02*
X3807171Y-2295299D01*
X3637424Y-9054784D02*
X3637424Y-9054784D01*
X3645689Y-5527174D02*
X3648168Y-5527049D01*
X3837128Y-7630388D02*
X3837723Y-7625566D01*
X6347839Y-2301870D02*
X6347827Y-2301848D01*
X3832425Y-8896269D02*
X3832925Y-8893838D01*
X3872848Y-7563570D02*
X3876679Y-7560581D01*
X1690800Y-5527143D02*
X1690819Y-5527143D01*
X1500932Y-1500008D02*
X1500883Y-1500013D01*
X5449342Y-2000119D02*
X5454212Y-2000000D01*
X1516727Y-2320001D02*
X1515748Y-2322282D01*
X7920997Y-9225803D02*
X7917646Y-9222284D01*
X2452752Y-9249013D02*
X2448138Y-9250537D01*
X3782608Y-5790547D02*
X3782591Y-5790528D01*
X6371450Y-5356454D02*
X6371454Y-5356429D01*
X6377715Y-7611355D02*
X6379240Y-7606742D01*
X1629386Y-9041890D02*
X1631714Y-9042752D01*
X1501227Y-2000000D02*
X2419388Y-2000000D01*
X6330954Y-5803997D02*
X6326152Y-5798107D01*
X2820303Y-9134390D02*
X2821368Y-9129648D01*
X6586510Y-5856786D02*
X6585648Y-5859114D01*
X1586804Y-2235150D02*
X1586783Y-2235164D01*
X7948672Y-9245295D02*
X7944332Y-9243110D01*
X1501183Y-8876265D02*
X1501186Y-8876290D01*
X6332505Y-8976200D02*
X6337003Y-8970075D01*
X6253622Y-9038063D02*
X6260528Y-9034890D01*
X2485884Y-9229154D02*
X2482205Y-9232328D01*
X1668467Y-9052270D02*
X1668492Y-9052274D01*
X7577915Y-9206696D02*
X7575315Y-9210801D01*
X3741523Y-2229642D02*
X3741501Y-2229628D01*
X3872886Y-7218625D02*
X3869207Y-7215451D01*
X4052538Y-8932495D02*
X4052548Y-8932518D01*
X6366873Y-5876076D02*
X6366867Y-5876051D01*
X2504313Y-5679395D02*
X2501713Y-5683500D01*
X4965904Y-2000477D02*
X4970726Y-2001072D01*
X1500556Y-9754688D02*
X1500600Y-9754709D01*
X5369283Y-2152053D02*
X5366888Y-2147825D01*
X3834654Y-8883829D02*
X3835614Y-8876290D01*
X1638953Y-2209574D02*
X1638929Y-2209582D01*
X2512614Y-9120290D02*
X2514138Y-9124904D01*
X5416324Y-9062238D02*
X5420858Y-9060489D01*
X6621064Y-5798088D02*
X6621048Y-5798107D01*
X6425823Y-7229409D02*
X6421595Y-7227013D01*
X5035720Y-5567270D02*
X5038518Y-5571242D01*
X6353679Y-5414351D02*
X6353690Y-5414328D01*
X2898097Y-9056605D02*
X2902885Y-9055775D01*
X6357861Y-5849705D02*
X6357852Y-5849682D01*
X4036787Y-4107851D02*
X4036906Y-4112721D01*
X6373326Y-8864910D02*
X6373343Y-8864000D01*
X6593521Y-8941751D02*
X6594614Y-8943979D01*
X2419375Y-2200095D02*
X1700637Y-2200000D01*
X4166186Y-2212910D02*
X4166162Y-2212920D01*
X3743650Y-5496432D02*
X3749996Y-5492250D01*
X4077895Y-5806000D02*
X4073397Y-5812125D01*
X4197762Y-9050925D02*
X4197787Y-9050929D01*
X6326136Y-5798088D02*
X6324519Y-5796204D01*
X5416314Y-2007536D02*
X5420848Y-2005787D01*
X6636747Y-5781592D02*
X6636728Y-5781609D01*
X1689852Y-9054524D02*
X1689890Y-9054526D01*
X4084264Y-2270688D02*
X4084248Y-2270707D01*
X1641345Y-5736224D02*
X1641321Y-5736231D01*
X6402487Y-7212100D02*
X6399137Y-7208581D01*
X7906085Y-9206696D02*
X7903690Y-9202468D01*
X4998528Y-2009505D02*
X5002868Y-2011690D01*
X2429104Y-9254323D02*
X2424258Y-9254680D01*
X4077910Y-8976220D02*
X4079430Y-8978183D01*
X3668307Y-9052274D02*
X3668332Y-9052270D01*
X1578600Y-2241095D02*
X1578580Y-2241110D01*
X2818400Y-5628548D02*
X2818400Y-5626317D01*
X2902874Y-9253728D02*
X2898086Y-9252897D01*
X2862405Y-5543985D02*
X2866511Y-5541386D01*
X4043533Y-5378748D02*
X4045624Y-5386055D01*
X6603228Y-8959501D02*
X6603242Y-8959523D01*
X6319391Y-5464272D02*
X6319408Y-5464253D01*
X3897806Y-3706163D02*
X3893364Y-3704194D01*
X7572520Y-9094670D02*
X7575318Y-9098642D01*
X1555937Y-5788711D02*
X1555919Y-5788729D01*
X1521026Y-5838198D02*
X1521014Y-5838221D01*
X2840872Y-9218605D02*
X2837883Y-9214774D01*
X2498914Y-2160073D02*
X2495924Y-2163904D01*
X5015168Y-5708017D02*
X5011195Y-5710815D01*
X1578580Y-5486290D02*
X1578600Y-5486305D01*
X3830696Y-5376321D02*
X3830702Y-5376296D01*
X4037057Y-2390800D02*
X4037057Y-2390819D01*
X5416314Y-9247264D02*
X5411872Y-9245295D01*
X4040670Y-5366413D02*
X4040675Y-5366438D01*
X7914472Y-9218605D02*
X7911483Y-9214774D01*
X6590337Y-8934822D02*
X6593510Y-8941728D01*
X3906954Y-7236836D02*
X3902340Y-7235312D01*
X8910084Y-9255081D02*
X8910048Y-9255048D01*
X6772976Y-5727416D02*
X6772963Y-5727416D01*
X6498803Y-7238133D02*
X6494062Y-7239198D01*
X7551974Y-9235317D02*
X7548001Y-9238115D01*
X5355677Y-5638263D02*
X5355320Y-5633418D01*
X3830067Y-5378748D02*
X3830073Y-5378724D01*
X1503870Y-5366413D02*
X1503875Y-5366438D01*
X3695479Y-5736231D02*
X3695455Y-5736224D01*
X3752054Y-5490818D02*
X3752075Y-5490803D01*
X3850738Y-4061799D02*
X3853338Y-4057694D01*
X1512919Y-5856762D02*
X1512910Y-5856786D01*
X4036830Y-3619566D02*
X4036472Y-3624412D01*
X6367502Y-2351104D02*
X6367496Y-2351079D01*
X3675813Y-5731270D02*
X3668332Y-5729930D01*
X1668467Y-5729930D02*
X1660987Y-5731270D01*
X6494021Y-7543003D02*
X6498762Y-7544067D01*
X2844046Y-2032516D02*
X2847397Y-2028997D01*
X3838554Y-7620779D02*
X3839619Y-7616038D01*
X8910344Y-9255492D02*
X8910328Y-9255446D01*
X4994095Y-9062179D02*
X4998536Y-9064149D01*
X4175753Y-9045226D02*
X4178121Y-9045969D01*
X6361552Y-8923086D02*
X6361560Y-8923062D01*
X5026208Y-5556241D02*
X5029558Y-5559760D01*
X5035720Y-9094670D02*
X5038518Y-9098642D01*
X3714518Y-5511652D02*
X3716799Y-5510673D01*
X1500390Y-1999783D02*
X1500430Y-1999812D01*
X4123583Y-5492236D02*
X4123604Y-5492250D01*
X6317663Y-5788711D02*
X6312289Y-5783337D01*
X6356863Y-5407422D02*
X6356873Y-5407399D01*
X8875250Y-5814204D02*
X8875236Y-5814183D01*
X6573630Y-7146966D02*
X6573272Y-7151812D01*
X8879432Y-5820549D02*
X8875250Y-5814204D01*
X1660962Y-5523525D02*
X1660987Y-5523529D01*
X5054128Y-9139114D02*
X5054723Y-9143937D01*
X7899537Y-9115817D02*
X7901507Y-9111374D01*
X7582496Y-9111315D02*
X7584465Y-9115757D01*
X4166162Y-5740319D02*
X4159105Y-5743138D01*
X7908685Y-9210801D02*
X7906085Y-9206696D01*
X6577980Y-5885906D02*
X6577975Y-5885931D01*
X4149849Y-9034879D02*
X4149872Y-9034890D01*
X2837879Y-5687530D02*
X2835082Y-5683558D01*
X6360680Y-2329362D02*
X6357861Y-2322305D01*
X3911597Y-7544067D02*
X3916337Y-7543002D01*
X5377669Y-2163961D02*
X5374680Y-2160130D01*
X4140862Y-9030256D02*
X4147598Y-9033774D01*
X6192570Y-2200930D02*
X6184675Y-2200329D01*
X3812256Y-5423338D02*
X3815774Y-5416602D01*
X3732760Y-2224556D02*
X3732737Y-2224544D01*
X1529642Y-5822677D02*
X1529628Y-5822699D01*
X2461728Y-2009505D02*
X2466068Y-2011690D01*
X6353690Y-8941728D02*
X6356863Y-8934822D01*
X1521026Y-8944002D02*
X1524544Y-8950738D01*
X4062573Y-5829248D02*
X4062561Y-5829270D01*
X3856136Y-4053722D02*
X3859126Y-4049891D01*
X3884757Y-4027783D02*
X3888984Y-4025389D01*
X4215335Y-5728583D02*
X4215310Y-5728586D01*
X4138670Y-5501639D02*
X4140840Y-5502844D01*
X6215094Y-5731780D02*
X6215069Y-5731775D01*
X3685721Y-5733504D02*
X3685696Y-5733498D01*
X1512040Y-5395662D02*
X1512048Y-5395686D01*
X8869305Y-8976200D02*
X8873803Y-8970075D01*
X1519910Y-2313072D02*
X1516737Y-2319978D01*
X1658506Y-5523020D02*
X1658531Y-5523025D01*
X6338436Y-8968017D02*
X6338450Y-8967996D01*
X3836800Y-2400623D02*
X3836784Y-2399377D01*
X4014437Y-4049899D02*
X4017426Y-4053730D01*
X1536597Y-8970075D02*
X1541095Y-8976200D01*
X3880690Y-7224413D02*
X3876717Y-7221615D01*
X3893364Y-3704194D02*
X3889023Y-3702009D01*
X6184968Y-9054449D02*
X6184993Y-9054447D01*
X3836575Y-2391137D02*
X3836574Y-2391111D01*
X6357852Y-5849682D02*
X6356873Y-5847401D01*
X3705062Y-5515360D02*
X3705086Y-5515352D01*
X3827969Y-8913479D02*
X3827976Y-8913455D01*
X1610798Y-9033774D02*
X1610821Y-9033786D01*
X3975833Y-3706165D02*
X3971300Y-3707913D01*
X4020262Y-7197106D02*
X4017464Y-7201078D01*
X3836472Y-8865857D02*
X3836524Y-8864948D01*
X2825935Y-5666443D02*
X2824186Y-5661910D01*
X5050937Y-9184538D02*
X5049413Y-9189152D01*
X6364018Y-8915871D02*
X6364026Y-8915847D01*
X8901576Y-5868745D02*
X8901569Y-5868721D01*
X6752110Y-5728586D02*
X6744571Y-5729546D01*
X6593521Y-5840449D02*
X6593510Y-5840472D01*
X2485889Y-5552890D02*
X2489408Y-5556241D01*
X1500430Y-9254988D02*
X1500390Y-9255017D01*
X6693601Y-9038073D02*
X6695882Y-9039052D01*
X6330954Y-5450803D02*
X6330970Y-5450783D01*
X6373343Y-8863981D02*
X6373450Y-7640104D01*
X3992910Y-7557786D02*
X3996883Y-7560585D01*
X6752135Y-5728583D02*
X6752110Y-5728586D01*
X4105585Y-5776498D02*
X4099947Y-5781592D01*
X3805832Y-2293149D02*
X3801650Y-2286804D01*
X3942764Y-7541219D02*
X3947610Y-7541577D01*
X2818877Y-5638263D02*
X2818519Y-5633418D01*
X7893072Y-9170326D02*
X7892477Y-9165504D01*
X3827976Y-5868745D02*
X3827969Y-5868721D01*
X3862337Y-7208581D02*
X3859163Y-7204901D01*
X7555810Y-9077116D02*
X7559489Y-9080290D01*
X1500600Y-1500091D02*
X1500556Y-1500112D01*
X3832420Y-5885906D02*
X3830702Y-5878503D01*
X2912555Y-5527424D02*
X2917425Y-5527305D01*
X3760183Y-2242630D02*
X3758220Y-2241110D01*
X1508831Y-5386079D02*
X1509574Y-5388447D01*
X1502150Y-5898346D02*
X1502146Y-5898371D01*
X8909468Y-8873796D02*
X8909470Y-8873770D01*
X4037730Y-5346370D02*
X4037732Y-5346396D01*
X3743629Y-9023845D02*
X3743650Y-9023832D01*
X2830090Y-9202468D02*
X2827905Y-9198128D01*
X8751894Y-5731780D02*
X8751869Y-5731775D01*
X8884627Y-8952952D02*
X8884639Y-8952930D01*
X2902885Y-5528375D02*
X2907708Y-5527781D01*
X2821367Y-2125213D02*
X2820302Y-2120473D01*
X8806360Y-9030244D02*
X8808530Y-9029039D01*
X6462790Y-7240623D02*
X6457967Y-7240028D01*
X1648676Y-5520674D02*
X1651079Y-5521296D01*
X5380846Y-2032516D02*
X5384197Y-2028997D01*
X4066428Y-5432101D02*
X4066442Y-5432123D01*
X4980255Y-9251833D02*
X4975514Y-9252897D01*
X6352586Y-8943979D02*
X6353679Y-8941751D01*
X8721768Y-9054449D02*
X8721793Y-9054447D01*
X6364026Y-5866353D02*
X6364018Y-5866329D01*
X6366867Y-5876051D02*
X6364776Y-5868745D01*
X8709776Y-9054800D02*
X8711024Y-9054784D01*
X5032728Y-2036195D02*
X5035717Y-2040026D01*
X4033941Y-4088652D02*
X4035005Y-4093393D01*
X3714495Y-9039061D02*
X3714518Y-9039052D01*
X4056710Y-5414328D02*
X4056721Y-5414351D01*
X5002860Y-2188409D02*
X4998519Y-2190594D01*
X1500930Y-5908429D02*
X1500329Y-5916324D01*
X4091009Y-5464272D02*
X4092719Y-5466071D01*
X8910392Y-9753868D02*
X8910394Y-9753819D01*
X2518400Y-5628482D02*
X2518280Y-5633353D01*
X1638953Y-9045226D02*
X1641321Y-9045969D01*
X4062561Y-8952930D02*
X4062573Y-8952952D01*
X2824187Y-2065648D02*
X2825936Y-2061114D01*
X5411864Y-5718051D02*
X5407524Y-5715866D01*
X4092719Y-5466071D02*
X4092737Y-5466089D01*
X6342645Y-5820571D02*
X6342632Y-5820549D01*
X8897490Y-5856786D02*
X8897480Y-5856762D01*
X5053297Y-2079686D02*
X5054128Y-2084474D01*
X6589348Y-5849682D02*
X6589338Y-5849705D01*
X1503870Y-8893813D02*
X1503875Y-8893838D01*
X2917412Y-9254800D02*
X2912542Y-9254680D01*
X6373249Y-5916032D02*
X6373247Y-5916007D01*
X6232279Y-2208831D02*
X6232255Y-2208824D01*
X6338450Y-2286804D02*
X6338436Y-2286783D01*
X6338436Y-2286783D02*
X6337018Y-2284746D01*
X2837886Y-9094727D02*
X2840876Y-9090896D01*
X4036430Y-7630404D02*
X4036787Y-7635251D01*
X3996883Y-4033185D02*
X4000714Y-4036174D01*
X2485889Y-9080290D02*
X2489408Y-9083641D01*
X6594614Y-5838221D02*
X6593521Y-5840449D01*
X8771447Y-9045226D02*
X8771471Y-9045218D01*
X4961058Y-2000119D02*
X4965904Y-2000477D01*
X3876679Y-4033181D02*
X3880652Y-4030383D01*
X1500834Y-1500020D02*
X1500786Y-1500030D01*
X8907874Y-5895892D02*
X8907870Y-5895867D01*
X6484453Y-7240623D02*
X6479607Y-7240980D01*
X1681004Y-2200932D02*
X1678535Y-2201183D01*
X6212613Y-9050929D02*
X6212638Y-9050925D01*
X6616245Y-8978203D02*
X6621048Y-8984093D01*
X1529642Y-5432123D02*
X1530955Y-5434229D01*
X1525773Y-5829248D02*
X1525761Y-5829270D01*
X4099947Y-2254192D02*
X4099928Y-2254209D01*
X8909844Y-9254912D02*
X8909800Y-9254891D01*
X4227619Y-9054543D02*
X4956201Y-9054639D01*
X6590337Y-5847378D02*
X6590327Y-5847401D01*
X6702986Y-9041890D02*
X6705314Y-9042752D01*
X8741933Y-9052270D02*
X8749413Y-9050929D01*
X1613072Y-5747310D02*
X1613049Y-5747321D01*
X6244237Y-5740319D02*
X6244214Y-5740310D01*
X3749996Y-5762550D02*
X3743650Y-5758368D01*
X8741908Y-9052274D02*
X8741933Y-9052270D01*
X6182781Y-5727656D02*
X5454199Y-5727560D01*
X6366873Y-5378724D02*
X6367496Y-5376321D01*
X1604040Y-9030244D02*
X1604062Y-9030256D01*
X4187879Y-9048696D02*
X4187903Y-9048702D01*
X6589338Y-8932495D02*
X6589348Y-8932518D01*
X8910387Y-9255683D02*
X8910380Y-9255634D01*
X6232255Y-5518576D02*
X6232279Y-5518569D01*
X6369725Y-8893838D02*
X6369729Y-8893813D01*
X6598156Y-8950760D02*
X6599361Y-8952930D01*
X1500056Y-1999308D02*
X1500072Y-1999354D01*
X5355677Y-2110863D02*
X5355320Y-2106018D01*
X3714495Y-5743138D02*
X3707437Y-5740319D01*
X3815786Y-2310821D02*
X3815774Y-2310798D01*
X5055200Y-2099012D02*
X5055200Y-2101083D01*
X4113397Y-2242645D02*
X4107507Y-2247448D01*
X2506708Y-5675166D02*
X2504313Y-5679395D01*
X8909708Y-9754744D02*
X8909754Y-9754728D01*
X8910049Y-5916032D02*
X8910047Y-5916007D01*
X6184993Y-9054447D02*
X6192570Y-9053870D01*
X6319408Y-5790547D02*
X6319391Y-5790528D01*
X3816879Y-5840449D02*
X3815786Y-5838221D01*
X3668332Y-2202530D02*
X3668307Y-2202526D01*
X3812244Y-5831440D02*
X3811039Y-5829270D01*
X3775489Y-2255937D02*
X3775471Y-2255920D01*
X4000751Y-7218630D02*
X3996921Y-7221619D01*
X1500739Y-9254842D02*
X1500692Y-9254856D01*
X1512910Y-5398014D02*
X1512919Y-5398038D01*
X6224948Y-2206733D02*
X6224924Y-2206726D01*
X8910400Y-5928035D02*
X8910400Y-5928023D01*
X5411864Y-2190651D02*
X5407524Y-2188466D01*
X3821052Y-2322282D02*
X3820073Y-2320001D01*
X6192596Y-5526468D02*
X6195065Y-5526217D01*
X7548008Y-9071329D02*
X7551980Y-9074127D01*
X4178145Y-9045976D02*
X4185451Y-9048067D01*
X3773672Y-2254209D02*
X3773653Y-2254192D01*
X6574786Y-5905910D02*
X6574783Y-5905935D01*
X3835870Y-5908429D02*
X3835868Y-5908404D01*
X2518280Y-2094142D02*
X2518400Y-2099012D01*
X7924516Y-9229154D02*
X7920997Y-9225803D01*
X6364776Y-5868745D02*
X6364769Y-5868721D01*
X3782591Y-5464272D02*
X3782608Y-5464253D01*
X3823880Y-2329362D02*
X3821061Y-2322305D01*
X8890490Y-5840472D02*
X8890479Y-5840449D01*
X8769079Y-9045969D02*
X8771447Y-9045226D01*
X4994095Y-5534779D02*
X4998536Y-5536749D01*
X2438703Y-5725594D02*
X2433915Y-5726425D01*
X1500327Y-5916343D02*
X1500276Y-5917252D01*
X5053297Y-9175114D02*
X5052233Y-9179855D01*
X4121525Y-2236597D02*
X4115400Y-2241095D01*
X1681004Y-5526468D02*
X1681029Y-5526470D01*
X5055200Y-5626252D02*
X5055200Y-5628482D01*
X7493001Y-9054639D02*
X7497870Y-9054760D01*
X6347827Y-8952952D02*
X6347839Y-8952930D01*
X2438725Y-9056544D02*
X2443466Y-9057609D01*
X2510865Y-9115757D02*
X2512614Y-9120290D01*
X5052233Y-9179855D02*
X5050937Y-9184538D01*
X3827226Y-2338953D02*
X3827218Y-2338929D01*
X6668877Y-5757042D02*
X6666771Y-5758355D01*
X1500692Y-1500056D02*
X1500645Y-1500072D01*
X1604062Y-5502856D02*
X1610798Y-5506374D01*
X6205132Y-2202530D02*
X6205107Y-2202526D01*
X4092737Y-5466089D02*
X4098111Y-5471463D01*
X3827226Y-8915847D02*
X3827969Y-8913479D01*
X6310453Y-5781592D02*
X6304814Y-5776498D01*
X1622305Y-5511661D02*
X1629362Y-5514480D01*
X7976485Y-9055775D02*
X7981308Y-9055181D01*
X1549081Y-5458595D02*
X1549098Y-5458615D01*
X4107507Y-9007352D02*
X4113397Y-9012155D01*
X1506104Y-8903721D02*
X1506726Y-8906124D01*
X4138648Y-9029027D02*
X4138670Y-9029039D01*
X6182489Y-9054574D02*
X6184968Y-9054449D01*
X3816890Y-2313072D02*
X3816879Y-2313049D01*
X3811039Y-8952930D02*
X3812244Y-8950760D01*
X8778686Y-9042752D02*
X8781014Y-9041890D01*
X4038946Y-8883829D02*
X4038950Y-8883854D01*
X8909661Y-9754758D02*
X8909708Y-9754744D01*
X4121546Y-2236582D02*
X4121525Y-2236597D01*
X3902300Y-7546887D02*
X3906914Y-7545363D01*
X4037057Y-5918219D02*
X4036950Y-7142096D01*
X4037732Y-5346396D02*
X4037983Y-5348865D01*
X3705086Y-5515352D02*
X3707414Y-5514490D01*
X4225743Y-9054473D02*
X4226652Y-9054524D01*
X2517328Y-5643022D02*
X2516497Y-5647810D01*
X3836813Y-3619549D02*
X3836694Y-3614679D01*
X3760183Y-5484770D02*
X3760203Y-5484755D01*
X4225724Y-9054471D02*
X4225743Y-9054473D01*
X3685721Y-2206104D02*
X3685696Y-2206098D01*
X3811039Y-5829270D02*
X3811027Y-5829248D01*
X3743629Y-5496445D02*
X3743650Y-5496432D01*
X2492750Y-2167584D02*
X2489399Y-2171103D01*
X2827907Y-5583974D02*
X2830092Y-5579633D01*
X5035717Y-2040026D02*
X5038515Y-2043999D01*
X3834650Y-5898346D02*
X3834274Y-5895892D01*
X3872848Y-4036170D02*
X3876679Y-4033181D01*
X3811039Y-2301870D02*
X3811027Y-2301848D01*
X2837883Y-2040026D02*
X2840872Y-2036195D01*
X3655796Y-2200932D02*
X3655770Y-2200930D01*
X3741501Y-5757028D02*
X3734952Y-5753173D01*
X7521748Y-9058906D02*
X7526361Y-9060430D01*
X3716822Y-2216737D02*
X3716799Y-2216727D01*
X4132099Y-5757028D02*
X4132077Y-5757042D01*
X6629537Y-8993489D02*
X6634911Y-8998863D01*
X1506733Y-5378748D02*
X1508824Y-5386055D01*
X6296983Y-2242630D02*
X6295020Y-2241110D01*
X8751894Y-9050420D02*
X8759296Y-9048702D01*
X4956201Y-9054639D02*
X4961070Y-9054760D01*
X1613049Y-2219921D02*
X1610821Y-2221014D01*
X1500274Y-5917290D02*
X1500257Y-5918200D01*
X5054128Y-5611714D02*
X5054723Y-5616537D01*
X8910152Y-9255152D02*
X8910119Y-9255116D01*
X6763452Y-9054524D02*
X6763490Y-9054526D01*
X4056721Y-8941751D02*
X4057814Y-8943979D01*
X6241886Y-5739448D02*
X6241862Y-5739440D01*
X5362737Y-9115817D02*
X5364707Y-9111374D01*
X4140840Y-9030244D02*
X4140862Y-9030256D01*
X1530955Y-8961629D02*
X1530968Y-8961651D01*
X6695882Y-9039052D02*
X6695905Y-9039061D01*
X4042898Y-2351104D02*
X4041180Y-2358506D01*
X1500091Y-1500600D02*
X1500072Y-1500645D01*
X3830702Y-2351104D02*
X3830696Y-2351079D01*
X2898075Y-2198256D02*
X2893334Y-2197191D01*
X1641321Y-9045969D02*
X1641345Y-9045976D01*
X1542630Y-5450783D02*
X1542645Y-5450803D01*
X8893663Y-5847378D02*
X8890490Y-5840472D01*
X5355677Y-9144001D02*
X5356272Y-9139178D01*
X2830090Y-2052332D02*
X2832485Y-2048104D01*
X6224948Y-5734133D02*
X6224924Y-5734126D01*
X4159105Y-5743138D02*
X4159082Y-5743148D01*
X3678294Y-9050420D02*
X3685696Y-9048702D01*
X1641345Y-5518576D02*
X1648651Y-5520667D01*
X5045695Y-2056672D02*
X5047664Y-2061114D01*
X5356272Y-9170326D02*
X5355677Y-9165504D01*
X4166162Y-9041880D02*
X4166186Y-9041890D01*
X3780863Y-5788711D02*
X3775489Y-5783337D01*
X6734587Y-5731270D02*
X6734562Y-5731275D01*
X3766093Y-9007352D02*
X3766112Y-9007336D01*
X7580312Y-9106975D02*
X7582496Y-9111315D01*
X3862299Y-4046212D02*
X3865650Y-4042693D01*
X4207771Y-2202146D02*
X4207746Y-2202150D01*
X4205267Y-5729930D02*
X4197787Y-5731270D01*
X8862952Y-5798107D02*
X8862936Y-5798088D01*
X1568785Y-5776498D02*
X1563147Y-5781592D01*
X4053537Y-8934822D02*
X4056710Y-8941728D01*
X1525773Y-5425552D02*
X1529628Y-5432101D01*
X8897480Y-8925438D02*
X8897490Y-8925414D01*
X4084264Y-8984112D02*
X4085881Y-8985995D01*
X3795690Y-8976220D02*
X3795705Y-8976200D01*
X1586804Y-9019650D02*
X1593149Y-9023832D01*
X4061344Y-8950738D02*
X4061356Y-8950760D01*
X7492988Y-9254800D02*
X5454212Y-9254800D01*
X2819472Y-5611778D02*
X2820303Y-5606990D01*
X5407540Y-9066391D02*
X5411881Y-9064206D01*
X3836800Y-5928023D02*
X3836784Y-5926777D01*
X4057826Y-5416602D02*
X4061344Y-5423338D01*
X2429116Y-9055118D02*
X2433938Y-9055713D01*
X3830702Y-8903696D02*
X3832420Y-8896294D01*
X4115380Y-5768510D02*
X4113417Y-5770030D01*
X6413479Y-7560581D02*
X6417452Y-7557783D01*
X6371454Y-5898371D02*
X6371450Y-5898346D01*
X5038515Y-9210801D02*
X5035717Y-9214774D01*
X7586213Y-9120290D02*
X7587737Y-9124904D01*
X4031121Y-7606754D02*
X4032645Y-7611369D01*
X2854595Y-2022472D02*
X2858426Y-2019483D01*
X5420848Y-9249013D02*
X5416314Y-9247264D01*
X1555919Y-8993471D02*
X1555937Y-8993489D01*
X3807158Y-2295277D02*
X3805845Y-2293171D01*
X8817251Y-9023832D02*
X8823596Y-9019650D01*
X1651103Y-5733498D02*
X1651079Y-5733504D01*
X2443455Y-2002967D02*
X2448138Y-2004263D01*
X7589033Y-9179855D02*
X7587737Y-9184538D01*
X3678269Y-5731775D02*
X3675838Y-5731275D01*
X4039330Y-2368467D02*
X4039326Y-2368492D01*
X4159105Y-5511661D02*
X4166162Y-5514480D01*
X6319408Y-5464253D02*
X6324502Y-5458615D01*
X8906020Y-8896294D02*
X8906025Y-8896269D01*
X1586804Y-5492250D02*
X1593149Y-5496432D01*
X3848343Y-7593427D02*
X3850738Y-7589199D01*
X3884757Y-7555183D02*
X3888984Y-7552789D01*
X3840915Y-7611355D02*
X3842440Y-7606742D01*
X5360988Y-9120350D02*
X5362737Y-9115817D01*
X1586783Y-2235164D02*
X1584746Y-2236582D01*
X6288875Y-5763997D02*
X6288854Y-5763982D01*
X7563003Y-9225803D02*
X7559484Y-9229154D01*
X4040675Y-5888362D02*
X4040670Y-5888387D01*
X1500932Y-8873796D02*
X1501183Y-8876265D01*
X8854463Y-5788711D02*
X8849089Y-5783337D01*
X5384201Y-5556297D02*
X5387721Y-5552947D01*
X1500556Y-1999888D02*
X1500600Y-1999909D01*
X8769079Y-5736231D02*
X8769055Y-5736224D01*
X1604040Y-5502844D02*
X1604062Y-5502856D01*
X1668492Y-5729926D02*
X1668467Y-5729930D01*
X4071950Y-2286804D02*
X4067768Y-2293149D01*
X4007912Y-4042700D02*
X4011263Y-4046219D01*
X7591523Y-9143937D02*
X7591880Y-9148782D01*
X3830702Y-5376296D02*
X3832420Y-5368894D01*
X6241886Y-2212048D02*
X6241862Y-2212040D01*
X7530894Y-9062179D02*
X7535336Y-9064149D01*
X6599361Y-5829270D02*
X6598156Y-5831440D01*
X2504317Y-5575347D02*
X2506712Y-5579575D01*
X2517923Y-9165504D02*
X2517328Y-9170326D01*
X1568785Y-2249098D02*
X1563147Y-2254192D01*
X6622698Y-5796185D02*
X6622681Y-5796204D01*
X6342632Y-5434251D02*
X6342645Y-5434229D01*
X6260550Y-2219921D02*
X6260528Y-2219910D01*
X2819472Y-9139178D02*
X2820303Y-9134390D01*
X4066442Y-2295277D02*
X4066428Y-2295299D01*
X4037129Y-5916324D02*
X4037127Y-5916343D01*
X1586804Y-5762550D02*
X1586783Y-5762564D01*
X4000714Y-7563574D02*
X4004393Y-7566749D01*
X8910212Y-9754370D02*
X8910239Y-9754330D01*
X6280450Y-9023832D02*
X6286796Y-9019650D01*
X3811027Y-8952952D02*
X3811039Y-8952930D01*
X3668332Y-5729930D02*
X3668307Y-5729926D01*
X6234671Y-2209582D02*
X6234647Y-2209574D01*
X6302912Y-2247464D02*
X6302893Y-2247448D01*
X5387721Y-5552947D02*
X5391401Y-5549773D01*
X8910175Y-5918536D02*
X8910174Y-5918511D01*
X8908254Y-8883829D02*
X8909214Y-8876290D01*
X6241862Y-9042760D02*
X6241886Y-9042752D01*
X2452762Y-9060430D02*
X2457295Y-9062179D01*
X3773653Y-5473208D02*
X3773672Y-5473191D01*
X6579704Y-8903721D02*
X6580326Y-8906124D01*
X2818400Y-5626317D02*
X2818519Y-5621447D01*
X3658290Y-5526214D02*
X3665829Y-5525254D01*
X1500000Y-1501203D02*
X1500000Y-1501227D01*
X5015168Y-2180617D02*
X5011195Y-2183415D01*
X6357861Y-2322305D02*
X6357852Y-2322282D01*
X3752075Y-5490803D02*
X3758200Y-5486305D01*
X6529710Y-7557786D02*
X6533683Y-7560585D01*
X4061356Y-5423360D02*
X4062561Y-5425530D01*
X1604062Y-2224544D02*
X1604040Y-2224556D01*
X3658290Y-9053614D02*
X3665829Y-9052654D01*
X6364769Y-8913479D02*
X6364776Y-8913455D01*
X1604040Y-5751956D02*
X1601870Y-5753161D01*
X6614710Y-5805980D02*
X6614695Y-5806000D01*
X5364705Y-9198128D02*
X5362736Y-9193686D01*
X6319391Y-8991672D02*
X6319408Y-8991653D01*
X6503486Y-7236837D02*
X6498803Y-7238133D01*
X8889374Y-8944002D02*
X8889386Y-8943979D01*
X3966686Y-3709437D02*
X3962003Y-3710733D01*
X1500556Y-1500112D02*
X1500512Y-1500135D01*
X2821367Y-5652613D02*
X2820302Y-5647873D01*
X8879432Y-8961651D02*
X8879445Y-8961629D01*
X2818400Y-9155788D02*
X2818400Y-9153717D01*
X6372668Y-2381004D02*
X6372417Y-2378535D01*
X3880690Y-3697013D02*
X3876717Y-3694215D01*
X3836650Y-4112704D02*
X3836770Y-4107834D01*
X7517066Y-9057609D02*
X7521748Y-9058906D01*
X2470296Y-2014085D02*
X2474401Y-2016685D01*
X8873803Y-8970075D02*
X8873818Y-8970054D01*
X6269560Y-2224556D02*
X6269537Y-2224544D01*
X1500692Y-1999944D02*
X1500739Y-1999958D01*
X1681004Y-9053868D02*
X1681029Y-9053870D01*
X6409686Y-7218625D02*
X6406007Y-7215451D01*
X3930793Y-7541219D02*
X3935663Y-7541100D01*
X6262802Y-5506374D02*
X6269537Y-5502856D01*
X2517328Y-9170326D02*
X2516497Y-9175114D01*
X5052232Y-5652552D02*
X5050936Y-5657235D01*
X8831820Y-5768510D02*
X8831800Y-5768495D01*
X2879523Y-9062238D02*
X2884058Y-9060489D01*
X7507526Y-9253728D02*
X7502704Y-9254323D01*
X7908687Y-9098700D02*
X7911486Y-9094727D01*
X8849089Y-5783337D02*
X8849071Y-5783319D01*
X6724703Y-9048702D02*
X6732106Y-9050420D01*
X2858420Y-2180673D02*
X2854589Y-2177684D01*
X6621048Y-5798107D02*
X6616245Y-5803997D01*
X6644307Y-5774848D02*
X6644288Y-5774864D01*
X5047665Y-9115757D02*
X5049414Y-9120290D01*
X6182489Y-5527174D02*
X6184968Y-5527049D01*
X4092719Y-8993471D02*
X4092737Y-8993489D01*
X4956188Y-9254800D02*
X2917412Y-9254800D01*
X1512040Y-5859138D02*
X1509582Y-5866329D01*
X4187879Y-2206104D02*
X4185476Y-2206726D01*
X2492758Y-5559760D02*
X2495931Y-5563439D01*
X6364018Y-2338929D02*
X6361560Y-2331738D01*
X5420838Y-2194370D02*
X5416305Y-2192621D01*
X1500390Y-9754583D02*
X1500430Y-9754612D01*
X5374683Y-2040026D02*
X5377672Y-2036195D01*
X3836543Y-5336581D02*
X3836650Y-4112704D01*
X1500160Y-1500470D02*
X1500135Y-1500512D01*
X6332490Y-8976220D02*
X6332505Y-8976200D01*
X6195090Y-2201186D02*
X6195065Y-2201183D01*
X6604555Y-5820571D02*
X6603242Y-5822677D01*
X4077910Y-5805980D02*
X4077895Y-5806000D01*
X3902300Y-4019487D02*
X3906914Y-4017963D01*
X1500135Y-9255313D02*
X1500112Y-9255356D01*
X3732737Y-5502856D02*
X3732760Y-5502844D01*
X4042904Y-5878479D02*
X4042898Y-5878503D01*
X8833803Y-9012155D02*
X8839693Y-9007352D01*
X2847401Y-9083697D02*
X2850921Y-9080347D01*
X2508895Y-9198128D02*
X2506710Y-9202468D01*
X5015174Y-9235317D02*
X5011201Y-9238115D01*
X3807171Y-5822699D02*
X3807158Y-5822677D01*
X8910380Y-9753966D02*
X8910387Y-9753917D01*
X3827969Y-2341321D02*
X3827226Y-2338953D01*
X4178145Y-2208824D02*
X4178121Y-2208831D01*
X1504380Y-8896294D02*
X1506098Y-8903696D01*
X3837128Y-4102988D02*
X3837723Y-4098166D01*
X7892119Y-9148847D02*
X7892477Y-9144001D01*
X6614710Y-8976220D02*
X6616230Y-8978183D01*
X3697871Y-5517818D02*
X3705062Y-5515360D01*
X3830073Y-8906124D02*
X3830696Y-8903721D01*
X1500390Y-9255017D02*
X1500352Y-9255048D01*
X6544712Y-7570100D02*
X6548063Y-7573619D01*
X6551237Y-7577299D02*
X6554226Y-7581130D01*
X4039330Y-5358933D02*
X4040670Y-5366413D01*
X8903667Y-5876051D02*
X8901576Y-5868745D01*
X7962272Y-9058965D02*
X7966956Y-9057670D01*
X6222496Y-5521302D02*
X6222521Y-5521296D01*
X1549098Y-5458615D02*
X1554192Y-5464253D01*
X6589348Y-8932518D02*
X6590327Y-8934799D01*
X2510864Y-9193686D02*
X2508895Y-9198128D01*
X6650217Y-9012170D02*
X6652180Y-9013690D01*
X6356863Y-8934822D02*
X6356873Y-8934799D01*
X6675448Y-9029027D02*
X6675470Y-9029039D01*
X6652180Y-5768510D02*
X6650217Y-5770030D01*
X3902340Y-3707912D02*
X3897806Y-3706163D01*
X1542630Y-8978183D02*
X1542645Y-8978203D01*
X6586519Y-8925438D02*
X6589338Y-8932495D01*
X4035046Y-3634021D02*
X4033981Y-3638762D01*
X1500600Y-9254891D02*
X1500556Y-9254912D01*
X3952475Y-3712628D02*
X3947653Y-3713223D01*
X6570741Y-7616052D02*
X6571805Y-7620793D01*
X4040670Y-2360987D02*
X4039330Y-2368467D01*
X1641321Y-5518569D02*
X1641345Y-5518576D01*
X4079445Y-5803997D02*
X4079430Y-5804017D01*
X8797328Y-5747310D02*
X8790422Y-5744137D01*
X2478368Y-2180617D02*
X2474395Y-2183415D01*
X2917399Y-2200161D02*
X2912530Y-2200040D01*
X4036787Y-7635251D02*
X4036906Y-7640121D01*
X4048848Y-8923086D02*
X4049710Y-8925414D01*
X1516727Y-5407399D02*
X1516737Y-5407422D01*
X2830092Y-9107033D02*
X2832487Y-9102805D01*
X1512048Y-5395686D02*
X1512910Y-5398014D01*
X2433926Y-2001072D02*
X2438714Y-2001902D01*
X4067755Y-8961629D02*
X4067768Y-8961651D01*
X2518400Y-9155788D02*
X2518280Y-9160658D01*
X6330970Y-8978183D02*
X6332490Y-8976220D01*
X6232255Y-9045976D02*
X6232279Y-9045969D01*
X3812256Y-5831462D02*
X3812244Y-5831440D01*
X1651103Y-9048702D02*
X1658506Y-9050420D01*
X7497870Y-9054760D02*
X7502716Y-9055118D01*
X6448397Y-7544067D02*
X6453137Y-7543002D01*
X1500470Y-9754639D02*
X1500512Y-9754665D01*
X1699376Y-5727416D02*
X1699363Y-5727416D01*
X6724703Y-5733498D02*
X6724679Y-5733504D01*
X1554192Y-8991653D02*
X1554209Y-8991672D01*
X3725979Y-5748414D02*
X3723750Y-5747321D01*
X8856191Y-8991672D02*
X8856208Y-8991653D01*
X2452742Y-5721711D02*
X2448128Y-5723235D01*
X5371885Y-2043999D02*
X5374683Y-2040026D01*
X6304795Y-5776481D02*
X6302912Y-5774864D01*
X5011201Y-2016685D02*
X5015174Y-2019483D01*
X4175753Y-5517826D02*
X4178121Y-5518569D01*
X1500932Y-9254808D02*
X1500883Y-9254813D01*
X5357103Y-9134390D02*
X5358168Y-9129648D01*
X5355320Y-2106018D02*
X5355200Y-2101148D01*
X5374686Y-5567327D02*
X5377676Y-5563496D01*
X3827969Y-5868721D02*
X3827226Y-5866353D01*
X2884048Y-2005787D02*
X2888662Y-2004263D01*
X1500112Y-1999444D02*
X1500135Y-1999487D01*
X6498762Y-7544067D02*
X6503446Y-7545364D01*
X3869207Y-3688051D02*
X3865687Y-3684700D01*
X1524544Y-8950738D02*
X1524556Y-8950760D01*
X6566172Y-7602220D02*
X6567921Y-7606754D01*
X3766093Y-5774848D02*
X3760203Y-5770045D01*
X3732760Y-5502844D02*
X3734930Y-5501639D01*
X7957658Y-9060489D02*
X7962272Y-9058965D01*
X3947610Y-7541577D02*
X3952433Y-7542172D01*
X1500013Y-9753917D02*
X1500020Y-9753966D01*
X8910047Y-5916007D02*
X8909470Y-5908429D01*
X1500000Y-5326764D02*
X1500000Y-5326777D01*
X8908250Y-5898346D02*
X8907874Y-5895892D01*
X3741501Y-2229628D02*
X3734952Y-2225773D01*
X4168538Y-9042760D02*
X4175729Y-9045218D01*
X6373494Y-3614679D02*
X6373600Y-2400636D01*
X4207746Y-2202150D02*
X4205292Y-2202526D01*
X8806338Y-5751944D02*
X8799602Y-5748426D01*
X3837723Y-7625566D02*
X3838554Y-7620779D01*
X4226690Y-5527126D02*
X4227600Y-5527143D01*
X1516737Y-5847378D02*
X1516727Y-5847401D01*
X3823889Y-5856786D02*
X3823880Y-5856762D01*
X7587737Y-9124904D02*
X7589033Y-9129587D01*
X4156801Y-2216727D02*
X4156778Y-2216737D01*
X1508831Y-5868721D02*
X1508824Y-5868745D01*
X5002868Y-9243110D02*
X4998528Y-9245295D01*
X1570707Y-2247448D02*
X1570688Y-2247464D01*
X1700624Y-2200000D02*
X1699376Y-2200016D01*
X1595277Y-9025158D02*
X1595299Y-9025172D01*
X6338450Y-5814204D02*
X6338436Y-5814183D01*
X2870740Y-9066391D02*
X2875081Y-9064206D01*
X4107488Y-5479936D02*
X4107507Y-5479952D01*
X3836447Y-5916007D02*
X3835870Y-5908429D01*
X6554226Y-7581130D02*
X6557024Y-7585103D01*
X6326136Y-2270688D02*
X6324519Y-2268805D01*
X6577980Y-8896294D02*
X6579698Y-8903696D01*
X8873818Y-8970054D02*
X8875236Y-8968017D01*
X6573857Y-5918200D02*
X6573857Y-5918219D01*
X4175729Y-2209582D02*
X4168538Y-2212040D01*
X8729370Y-5728330D02*
X8721476Y-5727729D01*
X6364776Y-2341345D02*
X6364769Y-2341321D01*
X3937894Y-4013700D02*
X3942764Y-4013819D01*
X3767995Y-5478319D02*
X3768014Y-5478302D01*
X4040675Y-5366438D02*
X4041175Y-5368869D01*
X1576597Y-5484755D02*
X1576617Y-5484770D01*
X4205292Y-9052274D02*
X4207746Y-9052650D01*
X2858420Y-5708073D02*
X2854589Y-5705084D01*
X6195065Y-5526217D02*
X6195090Y-5526214D01*
X8909173Y-9754800D02*
X8909197Y-9754800D01*
X6278301Y-9025172D02*
X6278323Y-9025158D01*
X3805845Y-5820571D02*
X3805832Y-5820549D01*
X5029554Y-9222284D02*
X5026203Y-9225803D01*
X2820302Y-5647873D02*
X2819472Y-5643085D01*
X4039326Y-8886308D02*
X4039330Y-8886333D01*
X1690819Y-9054543D02*
X2419401Y-9054639D01*
X4071950Y-5440596D02*
X4071964Y-5440617D01*
X6644307Y-9007352D02*
X6650197Y-9012155D01*
X6636747Y-9000608D02*
X6642385Y-9005702D01*
X7535328Y-9245295D02*
X7530885Y-9247264D01*
X3688148Y-2206733D02*
X3688124Y-2206726D01*
X1500739Y-9754758D02*
X1500786Y-9754770D01*
X3646910Y-2200274D02*
X3646000Y-2200257D01*
X4115400Y-9013705D02*
X4121525Y-9018203D01*
X4132077Y-5757042D02*
X4129971Y-5758355D01*
X6361560Y-5859138D02*
X6361552Y-5859114D01*
X3707437Y-5514480D02*
X3714495Y-5511661D01*
X8909566Y-9254820D02*
X8909517Y-9254813D01*
X8841615Y-9005702D02*
X8847253Y-9000608D01*
X3760183Y-9012170D02*
X3760203Y-9012155D01*
X4035877Y-3629234D02*
X4035046Y-3634021D01*
X1541095Y-5448800D02*
X1541110Y-5448820D01*
X6304814Y-5776498D02*
X6304795Y-5776481D01*
X5359464Y-9124965D02*
X5360988Y-9120350D01*
X4061356Y-8950760D02*
X4062561Y-8952930D01*
X1500257Y-5918219D02*
X1500000Y-8854164D01*
X3766112Y-5774864D02*
X3766093Y-5774848D01*
X8909614Y-9254830D02*
X8909566Y-9254820D01*
X6212613Y-2203871D02*
X6205132Y-2202530D01*
X2879514Y-9247264D02*
X2875072Y-9245295D01*
X5002876Y-9066334D02*
X5007103Y-9068729D01*
X5384201Y-9083697D02*
X5387721Y-9080347D01*
X3780863Y-8993489D02*
X3780880Y-8993471D01*
X4040670Y-5888387D02*
X4039330Y-5895867D01*
X2433938Y-5528313D02*
X2438725Y-5529144D01*
X2822662Y-5657296D02*
X2821367Y-5652613D01*
X1502530Y-5895867D02*
X1502526Y-5895892D01*
X3853338Y-7585094D02*
X3856136Y-7581122D01*
X1678535Y-9053617D02*
X1681004Y-9053868D01*
X3836784Y-5926765D02*
X3836575Y-5918536D01*
X6244214Y-5740310D02*
X6241886Y-5739448D01*
X4029372Y-4074820D02*
X4031121Y-4079354D01*
X1620001Y-5744127D02*
X1619978Y-5744137D01*
X2850916Y-9229154D02*
X2847397Y-9225803D01*
X3853376Y-7197097D02*
X3850776Y-7192991D01*
X3935706Y-7241100D02*
X3930836Y-7240980D01*
X6604568Y-5820549D02*
X6604555Y-5820571D01*
X4029411Y-7179991D02*
X4027442Y-7184433D01*
X3921167Y-7240028D02*
X3916379Y-7239197D01*
X8719289Y-9054574D02*
X8721768Y-9054449D01*
X3801636Y-8968017D02*
X3801650Y-8967996D01*
X1542645Y-2276597D02*
X1542630Y-2276617D01*
X6295000Y-2241095D02*
X6288875Y-2236597D01*
X6603228Y-5822699D02*
X6599373Y-5829248D01*
X3988805Y-7555187D02*
X3992910Y-7557786D01*
X4043526Y-2348676D02*
X4042904Y-2351079D01*
X4039326Y-5358908D02*
X4039330Y-5358933D01*
X8890490Y-8941728D02*
X8893663Y-8934822D01*
X2457286Y-2007536D02*
X2461728Y-2009505D01*
X3688124Y-2206726D02*
X3685721Y-2206104D01*
X5038513Y-2156100D02*
X5035714Y-2160073D01*
X6271752Y-9029027D02*
X6278301Y-9025172D01*
X6589338Y-5849705D02*
X6586519Y-5856762D01*
X1595277Y-2229642D02*
X1593171Y-2230955D01*
X1619978Y-9038063D02*
X1620001Y-9038073D01*
X1500257Y-5918200D02*
X1500257Y-5918219D01*
X2912530Y-5727440D02*
X2907684Y-5727082D01*
X1563128Y-9000591D02*
X1563147Y-9000608D01*
X8910309Y-9255400D02*
X8910288Y-9255356D01*
X6241886Y-5515352D02*
X6244214Y-5514490D01*
X2501715Y-2043999D02*
X2504315Y-2048104D01*
X3805845Y-8961629D02*
X3807158Y-8959523D01*
X3668307Y-2202526D02*
X3665854Y-2202150D01*
X8900818Y-5866329D02*
X8898360Y-5859138D01*
X4025219Y-7593437D02*
X4027403Y-7597778D01*
X3836650Y-7640104D02*
X3836770Y-7635234D01*
X5022684Y-2025646D02*
X5026203Y-2028997D01*
X1521026Y-2310798D02*
X1521014Y-2310821D01*
X3937894Y-7541100D02*
X3942764Y-7541219D01*
X3952433Y-7542172D02*
X3957221Y-7543003D01*
X6705338Y-5739440D02*
X6705314Y-5739448D01*
X2506712Y-9106975D02*
X2508896Y-9111315D01*
X6324502Y-2268785D02*
X6319408Y-2263147D01*
X1690800Y-9054543D02*
X1690819Y-9054543D01*
X4066442Y-8959523D02*
X4067755Y-8961629D01*
X7948681Y-9064206D02*
X7953123Y-9062238D01*
X5050938Y-9124904D02*
X5052233Y-9129587D01*
X2837879Y-2160130D02*
X2835082Y-2156158D01*
X3658265Y-5526217D02*
X3658290Y-5526214D01*
X6288854Y-2236582D02*
X6286817Y-2235164D01*
X3834274Y-5358908D02*
X3834650Y-5356454D01*
X7575315Y-9210801D02*
X7572517Y-9214774D01*
X1500512Y-1999865D02*
X1500556Y-1999888D01*
X6373249Y-2388632D02*
X6373247Y-2388607D01*
X5358168Y-5602248D02*
X5359464Y-5597565D01*
X4077910Y-2278580D02*
X4077895Y-2278600D01*
X3835868Y-5346396D02*
X3835870Y-5346370D01*
X6260528Y-5747310D02*
X6253622Y-5744137D01*
X6183710Y-2200274D02*
X6182800Y-2200257D01*
X6364769Y-2341321D02*
X6364026Y-2338953D01*
X1503875Y-8893838D02*
X1504375Y-8896269D01*
X4994076Y-2192562D02*
X4989542Y-2194311D01*
X6387576Y-7192991D02*
X6385181Y-7188763D01*
X6278323Y-5497758D02*
X6280429Y-5496445D01*
X2893356Y-5530270D02*
X2898097Y-5529205D01*
X6660404Y-9019650D02*
X6666749Y-9023832D01*
X2501715Y-9210801D02*
X2498917Y-9214774D01*
X5011195Y-2183415D02*
X5007089Y-2186014D01*
X5407532Y-2011690D02*
X5411872Y-2009505D01*
X6349056Y-2304062D02*
X6349044Y-2304040D01*
X6317663Y-5466089D02*
X6317680Y-5466071D01*
X4037074Y-2389890D02*
X4037057Y-2390800D01*
X6353690Y-5414328D02*
X6356863Y-5407422D01*
X6634929Y-8998880D02*
X6636728Y-9000591D01*
X4061344Y-2304062D02*
X4057826Y-2310798D01*
X2482210Y-5549716D02*
X2485889Y-5552890D01*
X4156778Y-2216737D02*
X4149872Y-2219910D01*
X8825675Y-5763997D02*
X8825654Y-5763982D01*
X3749996Y-9019650D02*
X3750017Y-9019636D01*
X4113417Y-9012170D02*
X4115380Y-9013690D01*
X3707437Y-2212920D02*
X3707414Y-2212910D01*
X2498920Y-5567270D02*
X2501718Y-5571242D01*
X6326136Y-5456712D02*
X6326152Y-5456693D01*
X8910174Y-5918511D02*
X8910049Y-5916032D01*
X2870724Y-5715866D02*
X2866497Y-5713471D01*
X3824760Y-8923062D02*
X3827218Y-8915871D01*
X6262802Y-5748426D02*
X6262779Y-5748414D01*
X6302893Y-5774848D02*
X6297003Y-5770045D01*
X4056710Y-8941728D02*
X4056721Y-8941751D01*
X4045631Y-2341321D02*
X4045624Y-2341345D01*
X3807158Y-8959523D02*
X3807171Y-8959501D01*
X4159105Y-9039061D02*
X4166162Y-9041880D01*
X2457276Y-5719962D02*
X2452742Y-5721711D01*
X3827226Y-5866353D02*
X3827218Y-5866329D01*
X8841595Y-5776481D02*
X8839712Y-5774864D01*
X4195306Y-5731780D02*
X4187903Y-5733498D01*
X2822662Y-2129896D02*
X2821367Y-2125213D01*
X5045696Y-9111315D02*
X5047665Y-9115757D01*
X4099928Y-2254209D02*
X4098129Y-2255920D01*
X4129949Y-5496432D02*
X4129971Y-5496445D01*
X6604555Y-8961629D02*
X6604568Y-8961651D01*
X4037983Y-5348865D02*
X4037986Y-5348890D01*
X4168514Y-5739448D02*
X4166186Y-5740310D01*
X6744571Y-5729546D02*
X6744546Y-5729550D01*
X8909754Y-9754728D02*
X8909800Y-9754709D01*
X4071964Y-2286783D02*
X4071950Y-2286804D01*
X4980266Y-9057609D02*
X4984948Y-9058906D01*
X6352574Y-5416602D02*
X6352586Y-5416579D01*
X8910309Y-9754200D02*
X8910328Y-9754154D01*
X4079445Y-2276597D02*
X4079430Y-2276617D01*
X5454199Y-5727560D02*
X5449330Y-5727440D01*
X6614695Y-5806000D02*
X6610197Y-5812125D01*
X2433915Y-2199025D02*
X2429091Y-2199619D01*
X3812256Y-2304062D02*
X3812244Y-2304040D01*
X3980236Y-4023206D02*
X3984577Y-4025391D01*
X4197762Y-2203875D02*
X4195331Y-2204375D01*
X4994086Y-9247264D02*
X4989552Y-9249013D01*
X8806360Y-5751956D02*
X8806338Y-5751944D01*
X2822663Y-2070262D02*
X2824187Y-2065648D01*
X6332490Y-2278580D02*
X6330970Y-2276617D01*
X4048848Y-2331714D02*
X4048840Y-2331738D01*
X6280450Y-2230968D02*
X6280429Y-2230955D01*
X6369220Y-5885906D02*
X6367502Y-5878503D01*
X4037983Y-8876265D02*
X4037986Y-8876290D01*
X4205292Y-5524874D02*
X4207746Y-5525250D01*
X6352574Y-2310798D02*
X6349056Y-2304062D01*
X1508831Y-2341321D02*
X1508824Y-2341345D01*
X8729396Y-9053868D02*
X8731865Y-9053617D01*
X3832425Y-5885931D02*
X3832420Y-5885906D01*
X6324519Y-8985995D02*
X6326136Y-8984112D01*
X6251318Y-5743148D02*
X6251295Y-5743138D01*
X6714921Y-9045969D02*
X6714945Y-9045976D01*
X2514136Y-2129835D02*
X2512612Y-2134450D01*
X6269537Y-9030256D02*
X6269560Y-9030244D01*
X3648168Y-9054449D02*
X3648193Y-9054447D01*
X1555919Y-2261329D02*
X1554209Y-2263128D01*
X6371450Y-5898346D02*
X6371074Y-5895892D01*
X2515433Y-9179855D02*
X2514137Y-9184538D01*
X3893325Y-7550604D02*
X3897767Y-7548635D01*
X1622282Y-5743148D02*
X1620001Y-5744127D01*
X2518280Y-5621382D02*
X2518400Y-5626252D01*
X8907874Y-8886308D02*
X8908250Y-8883854D01*
X3842440Y-4079342D02*
X3844189Y-4074808D01*
X6610197Y-8970075D02*
X6614695Y-8976200D01*
X5377676Y-9090896D02*
X5380850Y-9087216D01*
X1509582Y-5866329D02*
X1509574Y-5866353D01*
X1500981Y-1500006D02*
X1500981Y-1500006D01*
X1700637Y-2200000D02*
X1700624Y-2200000D01*
X2482210Y-9077116D02*
X2485889Y-9080290D01*
X6366873Y-2348676D02*
X6366867Y-2348652D01*
X1529628Y-5822699D02*
X1525773Y-5829248D01*
X1547448Y-5456693D02*
X1547464Y-5456712D01*
X4037730Y-8873770D02*
X4037732Y-8873796D01*
X3646000Y-2200257D02*
X3645981Y-2200257D01*
X4057826Y-5838198D02*
X4057814Y-5838221D01*
X2482205Y-2022472D02*
X2485884Y-2025646D01*
X5439685Y-9055775D02*
X5444509Y-9055181D01*
X6302893Y-5479952D02*
X6302912Y-5479936D01*
X4007950Y-3684706D02*
X4004431Y-3688057D01*
X3925990Y-7240623D02*
X3921167Y-7240028D01*
X8910358Y-9255539D02*
X8910344Y-9255492D01*
X3816879Y-5414351D02*
X3816890Y-5414328D01*
X6184968Y-5527049D02*
X6184993Y-5527047D01*
X8856208Y-8991653D02*
X8861302Y-8986015D01*
X5369287Y-9102805D02*
X5371887Y-9098700D01*
X4159082Y-5511652D02*
X4159105Y-5511661D01*
X6369729Y-8893813D02*
X6371070Y-8886333D01*
X4113397Y-9012155D02*
X4113417Y-9012170D01*
X2898097Y-5529205D02*
X2902885Y-5528375D01*
X3830696Y-5878479D02*
X3830073Y-5876076D01*
X5425462Y-2004263D02*
X5430145Y-2002967D01*
X8884627Y-5829248D02*
X8880772Y-5822699D01*
X6373343Y-5336600D02*
X6373343Y-5336581D01*
X2907696Y-9254323D02*
X2902874Y-9253728D01*
X1500692Y-9254856D02*
X1500645Y-9254872D01*
X7584464Y-9193686D02*
X7582495Y-9198128D01*
X8867755Y-8978203D02*
X8867770Y-8978183D01*
X4077910Y-5448820D02*
X4079430Y-5450783D01*
X4980255Y-2002967D02*
X4984938Y-2004263D01*
X6448437Y-7238132D02*
X6443754Y-7236836D01*
X4166186Y-9041890D02*
X4168514Y-9042752D01*
X5364707Y-9111374D02*
X5366892Y-9107033D01*
X7957648Y-9249013D02*
X7953114Y-9247264D01*
X4048840Y-2331738D02*
X4046382Y-2338929D01*
X6297003Y-5484755D02*
X6302893Y-5479952D01*
X3816879Y-2313049D02*
X3815786Y-2310821D01*
X1515748Y-8932518D02*
X1516727Y-8934799D01*
X3835870Y-5346370D02*
X3836471Y-5338476D01*
X3800218Y-5442654D02*
X3801636Y-5440617D01*
X6575746Y-5898371D02*
X6574786Y-5905910D01*
X3835870Y-2381030D02*
X3835868Y-2381004D01*
X5366892Y-9107033D02*
X5369287Y-9102805D01*
X1691111Y-2200226D02*
X1688632Y-2200351D01*
X6764736Y-5727625D02*
X6764711Y-5727625D01*
X8788118Y-5743148D02*
X8788095Y-5743138D01*
X1570688Y-9007336D02*
X1570707Y-9007352D01*
X6576126Y-5895892D02*
X6575750Y-5898346D01*
X7936005Y-9071385D02*
X7940111Y-9068786D01*
X6376459Y-7166148D02*
X6375395Y-7161406D01*
X3838595Y-7161406D02*
X3837764Y-7156618D01*
X1604040Y-2224556D02*
X1601870Y-2225761D01*
X2832487Y-5575405D02*
X2835087Y-5571300D01*
X8909754Y-9254872D02*
X8909708Y-9254856D01*
X3865687Y-7212100D02*
X3862337Y-7208581D01*
X6342645Y-8961629D02*
X6343958Y-8959523D01*
X3675813Y-2203871D02*
X3668332Y-2202530D01*
X4159082Y-5743148D02*
X4156801Y-5744127D01*
X1648676Y-2206726D02*
X1648651Y-2206733D01*
X4149872Y-2219910D02*
X4149849Y-2219921D01*
X6302912Y-5774864D02*
X6302893Y-5774848D01*
X6453137Y-7543002D02*
X6457925Y-7542172D01*
X6195090Y-5526214D02*
X6202629Y-5525254D01*
X3766112Y-2247464D02*
X3766093Y-2247448D01*
X3750017Y-5492236D02*
X3752054Y-5490818D01*
X4085881Y-2268805D02*
X4084264Y-2270688D01*
X1521014Y-2310821D02*
X1519921Y-2313049D01*
X1670971Y-5525254D02*
X1678510Y-5526214D01*
X4077895Y-2278600D02*
X4073397Y-2284725D01*
X6608764Y-5814183D02*
X6608750Y-5814204D01*
X6712529Y-9045218D02*
X6712553Y-9045226D01*
X1584725Y-9018203D02*
X1584746Y-9018218D01*
X2518400Y-5626252D02*
X2518400Y-5628482D01*
X3834650Y-5356454D02*
X3834654Y-5356429D01*
X3752075Y-2236597D02*
X3752054Y-2236582D01*
X8909517Y-9754787D02*
X8909566Y-9754780D01*
X4067755Y-2293171D02*
X4066442Y-2295277D01*
X1641321Y-2208831D02*
X1638953Y-2209574D01*
X8910400Y-5928023D02*
X8910384Y-5926777D01*
X4032645Y-4083969D02*
X4033941Y-4088652D01*
X8825654Y-9018218D02*
X8825675Y-9018203D01*
X4046382Y-5866329D02*
X4046374Y-5866353D01*
X1613049Y-9034879D02*
X1613072Y-9034890D01*
X4004431Y-7215457D02*
X4000751Y-7218630D01*
X6202629Y-5729546D02*
X6195090Y-5728586D01*
X4129949Y-9023832D02*
X4129971Y-9023845D01*
X3743650Y-9023832D02*
X3749996Y-9019650D01*
X4079430Y-5450783D02*
X4079445Y-5450803D01*
X2862392Y-2183471D02*
X2858420Y-2180673D01*
X2884048Y-9249013D02*
X2879514Y-9247264D01*
X6271752Y-5501627D02*
X6278301Y-5497772D01*
X2850921Y-5552947D02*
X2854601Y-5549773D01*
X1515738Y-8932495D02*
X1515748Y-8932518D01*
X8771447Y-5736974D02*
X8769079Y-5736231D01*
X8909217Y-8876265D02*
X8909468Y-8873796D01*
X3916379Y-7239197D02*
X3911637Y-7238132D01*
X2510865Y-5588357D02*
X2512614Y-5592890D01*
X6317680Y-2261329D02*
X6317663Y-2261311D01*
X3827976Y-5386055D02*
X3830067Y-5378748D01*
X4017464Y-7201078D02*
X4014474Y-7204908D01*
X8885856Y-5831462D02*
X8885844Y-5831440D01*
X1584725Y-5763997D02*
X1578600Y-5768495D01*
X3935663Y-4013700D02*
X3937894Y-4013700D01*
X1508824Y-8913455D02*
X1508831Y-8913479D01*
X3758220Y-9013690D02*
X3760183Y-9012170D01*
X4237437Y-5727400D02*
X4237424Y-5727400D01*
X6364018Y-5388471D02*
X6364026Y-5388447D01*
X1668492Y-9052274D02*
X1670946Y-9052650D01*
X4140862Y-2224544D02*
X4140840Y-2224556D01*
X6360689Y-5398014D02*
X6361552Y-5395686D01*
X4149872Y-9034890D02*
X4156778Y-9038063D01*
X3734952Y-5501627D02*
X3741501Y-5497772D01*
X1670946Y-9052650D02*
X1670971Y-9052654D01*
X1613072Y-2219910D02*
X1613049Y-2219921D01*
X4140840Y-5751956D02*
X4138670Y-5753161D01*
X5439685Y-5528375D02*
X5444509Y-5527781D01*
X2433926Y-9253728D02*
X2429104Y-9254323D01*
X7897788Y-9120350D02*
X7899537Y-9115817D01*
X3996921Y-7221619D02*
X3992948Y-7224417D01*
X2825935Y-2139043D02*
X2824186Y-2134510D01*
X2448128Y-5723235D02*
X2443444Y-5724530D01*
X2478380Y-5546727D02*
X2482210Y-5549716D01*
X3827218Y-8915871D02*
X3827226Y-8915847D01*
X6353690Y-2313072D02*
X6353679Y-2313049D01*
X4975503Y-2198195D02*
X4970715Y-2199025D01*
X4115400Y-2241095D02*
X4115380Y-2241110D01*
X5002876Y-5538934D02*
X5007103Y-5541329D01*
X1620001Y-9038073D02*
X1622282Y-9039052D01*
X8721793Y-9054447D02*
X8729370Y-9053870D01*
X6634911Y-8998863D02*
X6634929Y-8998880D01*
X4014474Y-7204908D02*
X4011300Y-7208587D01*
X3835614Y-5348890D02*
X3835617Y-5348865D01*
X1541110Y-5448820D02*
X1542630Y-5450783D01*
X4098111Y-8998863D02*
X4098129Y-8998880D01*
X6573951Y-8866168D02*
X6573953Y-8866193D01*
X4965916Y-9055118D02*
X4970738Y-9055713D01*
X5359462Y-5657296D02*
X5358167Y-5652613D01*
X4980244Y-2197130D02*
X4975503Y-2198195D01*
X6399137Y-7208581D02*
X6395963Y-7204901D01*
X4036800Y-8854177D02*
X4036816Y-8855423D01*
X5399199Y-2016685D02*
X5403304Y-2014085D01*
X5420858Y-5533089D02*
X5425472Y-5531565D01*
X4113417Y-2242630D02*
X4113397Y-2242645D01*
X2847392Y-5698559D02*
X2844042Y-5695040D01*
X3823880Y-8925438D02*
X3823889Y-8925414D01*
X3723750Y-5747321D02*
X3723728Y-5747310D01*
X8897480Y-5856762D02*
X8894661Y-5849705D01*
X8790399Y-9038073D02*
X8790422Y-9038063D01*
X1651103Y-2206098D02*
X1651079Y-2206104D01*
X2893334Y-5724591D02*
X2888652Y-5723294D01*
X5041117Y-5575347D02*
X5043512Y-5579575D01*
X5052233Y-2074945D02*
X5053297Y-2079686D01*
X3758220Y-5768510D02*
X3758200Y-5768495D01*
X5371887Y-9098700D02*
X5374686Y-9094727D01*
X3832925Y-8893838D02*
X3832929Y-8893813D01*
X8815101Y-5757028D02*
X8808552Y-5753173D01*
X6574783Y-5905935D02*
X6574532Y-5908404D01*
X1512048Y-5859114D02*
X1512040Y-5859138D01*
X5454225Y-9054705D02*
X6172963Y-9054800D01*
X7526352Y-9249013D02*
X7521738Y-9250537D01*
X5047664Y-2061114D02*
X5049413Y-2065648D01*
X1516737Y-8934822D02*
X1519910Y-8941728D01*
X4113397Y-5770045D02*
X4107507Y-5774848D01*
X6172976Y-5527400D02*
X6174224Y-5527384D01*
X1549081Y-2268805D02*
X1547464Y-2270688D01*
X3688124Y-5520674D02*
X3688148Y-5520667D01*
X5357102Y-2120473D02*
X5356272Y-2115686D01*
X1554209Y-5464272D02*
X1555919Y-5466071D01*
X4049710Y-5398014D02*
X4049719Y-5398038D01*
X6576130Y-5895867D02*
X6576126Y-5895892D01*
X6302893Y-9007352D02*
X6302912Y-9007336D01*
X6342645Y-2293171D02*
X6342632Y-2293149D01*
X1651103Y-5521302D02*
X1658506Y-5523020D01*
X8720510Y-5727674D02*
X8719600Y-5727657D01*
X2474395Y-5710815D02*
X2470289Y-5713414D01*
X3723750Y-9034879D02*
X3725979Y-9033786D01*
X1519921Y-5840449D02*
X1519910Y-5840472D01*
X1504375Y-2358531D02*
X1503875Y-2360962D01*
X1595299Y-5497772D02*
X1601848Y-5501627D01*
X3859126Y-4049891D02*
X3862299Y-4046212D01*
X4121546Y-5490818D02*
X4123583Y-5492236D01*
X6172976Y-9054800D02*
X6174224Y-9054784D01*
X3906914Y-7545363D02*
X3911597Y-7544067D01*
X4067768Y-5434251D02*
X4071950Y-5440596D01*
X2478368Y-5708017D02*
X2474395Y-5710815D01*
X7589033Y-9129587D02*
X7590098Y-9134327D01*
X1500281Y-1500316D02*
X1500248Y-1500352D01*
X4036950Y-3614696D02*
X4036830Y-3619566D01*
X3675838Y-2203875D02*
X3675813Y-2203871D01*
X5374680Y-5687530D02*
X5371882Y-5683558D01*
X6734587Y-9050929D02*
X6742067Y-9052270D01*
X5430134Y-2197191D02*
X5425452Y-2195894D01*
X6772963Y-5727416D02*
X6764736Y-5727625D01*
X1593149Y-2230968D02*
X1586804Y-2235150D01*
X3734930Y-2225761D02*
X3732760Y-2224556D01*
X1500353Y-8866193D02*
X1500930Y-8873770D01*
X1501186Y-5905910D02*
X1501183Y-5905935D01*
X6627809Y-8991672D02*
X6629519Y-8993471D01*
X4085898Y-2268785D02*
X4085881Y-2268805D01*
X6421557Y-7555183D02*
X6425784Y-7552789D01*
X4036816Y-8855435D02*
X4037025Y-8863663D01*
X3752075Y-5763997D02*
X3752054Y-5763982D01*
X3794170Y-5804017D02*
X3794154Y-5803997D01*
X8778662Y-5739440D02*
X8771471Y-5736982D01*
X3824752Y-8923086D02*
X3824760Y-8923062D01*
X6295020Y-5768510D02*
X6295000Y-5768495D01*
X1601870Y-5753161D02*
X1601848Y-5753173D01*
X3830067Y-5876051D02*
X3827976Y-5868745D01*
X6343971Y-8959501D02*
X6347827Y-8952952D01*
X3846196Y-3657022D02*
X3844227Y-3652579D01*
X6212613Y-5523529D02*
X6212638Y-5523525D01*
X4115380Y-5486290D02*
X4115400Y-5486305D01*
X3988805Y-4027787D02*
X3992910Y-4030386D01*
X6369220Y-5368894D02*
X6369225Y-5368869D01*
X1512048Y-8923086D02*
X1512910Y-8925414D01*
X4217830Y-9053870D02*
X4225724Y-9054471D01*
X1648651Y-5520667D02*
X1648676Y-5520674D01*
X3741523Y-9025158D02*
X3743629Y-9023845D01*
X3732760Y-9030244D02*
X3734930Y-9029039D01*
X5054723Y-5638199D02*
X5054128Y-5643022D01*
X1699376Y-2200016D02*
X1699363Y-2200016D01*
X6599373Y-5829248D02*
X6599361Y-5829270D01*
X2844046Y-9222284D02*
X2840872Y-9218605D01*
X2912542Y-9254680D02*
X2907696Y-9254323D01*
X4965891Y-2199619D02*
X4961045Y-2199976D01*
X2818400Y-9153717D02*
X2818519Y-9148847D01*
X4036816Y-8855423D02*
X4036816Y-8855435D01*
X3695479Y-2208831D02*
X3695455Y-2208824D01*
X6616245Y-5803997D02*
X6616230Y-5804017D01*
X6372417Y-5905935D02*
X6372414Y-5905910D01*
X3815786Y-5416579D02*
X3816879Y-5414351D01*
X1500883Y-9254813D02*
X1500834Y-9254820D01*
X5045696Y-5583915D02*
X5047665Y-5588357D01*
X3665854Y-9052650D02*
X3668307Y-9052274D01*
X4014474Y-3677508D02*
X4011300Y-3681187D01*
X3637424Y-5527384D02*
X3637436Y-5527384D01*
X2448128Y-2195835D02*
X2443444Y-2197130D01*
X2517923Y-2089296D02*
X2518280Y-2094142D01*
X1549081Y-8985995D02*
X1549098Y-8986015D01*
X3827976Y-8913455D02*
X3830067Y-8906148D01*
X5052233Y-5602186D02*
X5053298Y-5606927D01*
X6369225Y-5368869D02*
X6369725Y-5366438D01*
X3697871Y-5736982D02*
X3697847Y-5736974D01*
X6278301Y-5757028D02*
X6271752Y-5753173D01*
X5380850Y-9087216D02*
X5384201Y-9083697D01*
X5411872Y-2009505D02*
X5416314Y-2007536D01*
X8909214Y-8876290D02*
X8909217Y-8876265D01*
X2875064Y-2190651D02*
X2870724Y-2188466D01*
X2489408Y-5556241D02*
X2492758Y-5559760D01*
X3836447Y-2388607D02*
X3835870Y-2381030D01*
X1568785Y-5478302D02*
X1568804Y-5478319D01*
X3839659Y-3638748D02*
X3838595Y-3634006D01*
X2506710Y-2052332D02*
X2508895Y-2056672D01*
X3835868Y-2381004D02*
X3835617Y-2378535D01*
X4970726Y-9253728D02*
X4965904Y-9254323D01*
X4107488Y-9007336D02*
X4107507Y-9007352D01*
X1584746Y-2236582D02*
X1584725Y-2236597D01*
X8709763Y-9054800D02*
X8709776Y-9054800D01*
X1629386Y-5514490D02*
X1631714Y-5515352D01*
X5035714Y-5687473D02*
X5032724Y-5691304D01*
X1500786Y-1999970D02*
X1500834Y-1999980D01*
X6295000Y-9013705D02*
X6295020Y-9013690D01*
X4123604Y-5762550D02*
X4123583Y-5762564D01*
X6269537Y-5751944D02*
X6262802Y-5748426D01*
X4956201Y-5527239D02*
X4961070Y-5527360D01*
X1500351Y-8866168D02*
X1500353Y-8866193D01*
X6286817Y-2235164D02*
X6286796Y-2235150D01*
X2508893Y-5670826D02*
X2506708Y-5675166D01*
X2824186Y-5661910D02*
X2822662Y-5657296D01*
X3752075Y-9018203D02*
X3758200Y-9013705D01*
X1554192Y-2263147D02*
X1549098Y-2268785D01*
X6512594Y-7548637D02*
X6517036Y-7550606D01*
X3888984Y-4025389D02*
X3893325Y-4023204D01*
X1660962Y-9050925D02*
X1660987Y-9050929D01*
X4090992Y-8991653D02*
X4091009Y-8991672D01*
X6224924Y-2206726D02*
X6222521Y-2206104D01*
X6541193Y-7566749D02*
X6544712Y-7570100D01*
X1604062Y-9030256D02*
X1610798Y-9033774D01*
X2474408Y-9071329D02*
X2478380Y-9074127D01*
X3637436Y-5527384D02*
X3645663Y-5527175D01*
X5380842Y-2167640D02*
X5377669Y-2163961D01*
X1500981Y-1500006D02*
X1500932Y-1500008D01*
X8847253Y-9000608D02*
X8847272Y-9000591D01*
X1535150Y-8967996D02*
X1535164Y-8968017D01*
X4984938Y-9250537D02*
X4980255Y-9251833D01*
X3789352Y-2270707D02*
X3789336Y-2270688D01*
X1529628Y-5432101D02*
X1529642Y-5432123D01*
X3750017Y-5762564D02*
X3749996Y-5762550D01*
X1576617Y-5484770D02*
X1578580Y-5486290D01*
X5358167Y-2074945D02*
X5359463Y-2070262D01*
X3800218Y-8970054D02*
X3801636Y-8968017D01*
X1500013Y-1500883D02*
X1500008Y-1500932D01*
X3830696Y-2351079D02*
X3830073Y-2348676D01*
X1501203Y-2000000D02*
X1501227Y-2000000D01*
X4105604Y-5776481D02*
X4105585Y-5776498D01*
X2515432Y-2125152D02*
X2514136Y-2129835D01*
X7932026Y-9235317D02*
X7928195Y-9232328D01*
X1500225Y-5336289D02*
X1500351Y-5338768D01*
X6722276Y-5734126D02*
X6722251Y-5734133D01*
X6734562Y-9050925D02*
X6734587Y-9050929D01*
X5380850Y-5559816D02*
X5384201Y-5556297D01*
X4187903Y-2206098D02*
X4187879Y-2206104D01*
X7575318Y-9098642D02*
X7577917Y-9102747D01*
X6586510Y-8925414D02*
X6586519Y-8925438D01*
X6280450Y-5496432D02*
X6286796Y-5492250D01*
X4053527Y-5407399D02*
X4053537Y-5407422D01*
X4062561Y-5829270D02*
X4061356Y-5831440D01*
X5359462Y-2129896D02*
X5358167Y-2125213D01*
X8910380Y-9255634D02*
X8910370Y-9255586D01*
X6744571Y-9052654D02*
X6752110Y-9053614D01*
X7971697Y-9056605D02*
X7976485Y-9055775D01*
X6573927Y-5916343D02*
X6573876Y-5917252D01*
X6324502Y-5796185D02*
X6319408Y-5790547D01*
X4197787Y-9050929D02*
X4205267Y-9052270D01*
X6754629Y-9053870D02*
X6762524Y-9054471D01*
X8909419Y-9754794D02*
X8909468Y-9754792D01*
X6195065Y-9053617D02*
X6195090Y-9053614D01*
X6326152Y-5798107D02*
X6326136Y-5798088D01*
X2866504Y-2014085D02*
X2870732Y-2011690D01*
X6280429Y-5758355D02*
X6278323Y-5757042D01*
X5399192Y-5710871D02*
X5395220Y-5708073D01*
X3723728Y-5507490D02*
X3723750Y-5507479D01*
X5022679Y-5701853D02*
X5018999Y-5705027D01*
X1500188Y-1500430D02*
X1500160Y-1500470D01*
X8909970Y-9254988D02*
X8909930Y-9254961D01*
X1568804Y-2249081D02*
X1568785Y-2249098D01*
X6202629Y-5525254D02*
X6202654Y-5525250D01*
X5384192Y-5698559D02*
X5380842Y-5695040D01*
X2850911Y-2174510D02*
X2847392Y-2171159D01*
X1500274Y-2389890D02*
X1500257Y-2390800D01*
X3707437Y-5740319D02*
X3707414Y-5740310D01*
X2470296Y-9240715D02*
X2466068Y-9243110D01*
X3850738Y-7589199D02*
X3853338Y-7585094D01*
X3766093Y-2247448D02*
X3760203Y-2242645D01*
X6695882Y-5743148D02*
X6693601Y-5744127D01*
X6677662Y-9030256D02*
X6684398Y-9033774D01*
X6222496Y-9048702D02*
X6222521Y-9048696D01*
X5411881Y-9064206D02*
X5416324Y-9062238D01*
X3726002Y-9033774D02*
X3732737Y-9030256D01*
X4043533Y-8906148D02*
X4045624Y-8913455D01*
X1502526Y-8886308D02*
X1502530Y-8886333D01*
X1506104Y-2351079D02*
X1506098Y-2351104D01*
X3846158Y-7597766D02*
X3848343Y-7593427D01*
X1515748Y-2322282D02*
X1515738Y-2322305D01*
X6244237Y-5514480D02*
X6251295Y-5511661D01*
X8862936Y-5798088D02*
X8861319Y-5796204D01*
X1509574Y-5866353D02*
X1508831Y-5868721D01*
X4045624Y-2341345D02*
X4043533Y-2348652D01*
X3685696Y-9048702D02*
X3685721Y-9048696D01*
X4205267Y-5524870D02*
X4205292Y-5524874D01*
X6326152Y-8984093D02*
X6330954Y-8978203D01*
X3859126Y-7577291D02*
X3862299Y-7573612D01*
X2840876Y-5563496D02*
X2844050Y-5559816D01*
X1613072Y-5507490D02*
X1619978Y-5510663D01*
X3658290Y-2201186D02*
X3658265Y-2201183D01*
X8910048Y-9255048D02*
X8910010Y-9255017D01*
X8769055Y-5736224D02*
X8761748Y-5734133D01*
X1586783Y-5492236D02*
X1586804Y-5492250D01*
X8873803Y-5812125D02*
X8869305Y-5806000D01*
X3787719Y-5796204D02*
X3787702Y-5796185D01*
X4175729Y-5517818D02*
X4175753Y-5517826D01*
X5047663Y-5666383D02*
X5045693Y-5670826D01*
X1512040Y-8923062D02*
X1512048Y-8923086D01*
X1500112Y-9754244D02*
X1500135Y-9754287D01*
X3741523Y-5757042D02*
X3741501Y-5757028D01*
X6192570Y-5526470D02*
X6192596Y-5526468D01*
X3714518Y-9039052D02*
X3716799Y-9038073D01*
X3794170Y-8978183D02*
X3795690Y-8976220D01*
X3695455Y-9045976D02*
X3695479Y-9045969D01*
X2518280Y-9160658D02*
X2517923Y-9165504D01*
X3856173Y-3673670D02*
X3853376Y-3669697D01*
X3930793Y-4013819D02*
X3935663Y-4013700D01*
X1568804Y-9005719D02*
X1570688Y-9007336D01*
X1500042Y-1999261D02*
X1500056Y-1999308D01*
X8847272Y-9000591D02*
X8849071Y-8998880D01*
X8861302Y-5796185D02*
X8856208Y-5790547D01*
X6361560Y-5395662D02*
X6364018Y-5388471D01*
X6494062Y-7239198D02*
X6489275Y-7240028D01*
X3836784Y-2399365D02*
X3836575Y-2391137D01*
X6457925Y-7542172D02*
X6462747Y-7541577D01*
X6593510Y-8941728D02*
X6593521Y-8941751D01*
X4053527Y-5847401D02*
X4052548Y-5849682D01*
X6517075Y-7231596D02*
X6512633Y-7233565D01*
X3726002Y-2221026D02*
X3725979Y-2221014D01*
X1525773Y-8952952D02*
X1529628Y-8959501D01*
X1555919Y-5466071D02*
X1555937Y-5466089D01*
X4067768Y-8961651D02*
X4071950Y-8967996D01*
X5357103Y-9175114D02*
X5356272Y-9170326D01*
X6714921Y-5736231D02*
X6712553Y-5736974D01*
X6324519Y-5796204D02*
X6324502Y-5796185D01*
X4217804Y-2200932D02*
X4215335Y-2201183D01*
X6337003Y-5812125D02*
X6332505Y-5806000D01*
X4039326Y-2368492D02*
X4038950Y-2370946D01*
X6585640Y-8923062D02*
X6585648Y-8923086D01*
X7543903Y-9068729D02*
X7548008Y-9071329D01*
X6280429Y-2230955D02*
X6278323Y-2229642D01*
X8909887Y-9254935D02*
X8909844Y-9254912D01*
X1576617Y-5770030D02*
X1576597Y-5770045D01*
X1500160Y-9754330D02*
X1500188Y-9754370D01*
X1500160Y-9255270D02*
X1500135Y-9255313D01*
X4980266Y-5530209D02*
X4984948Y-5531506D01*
X2501718Y-5571242D02*
X2504317Y-5575347D01*
X2844042Y-5695040D02*
X2840868Y-5691361D01*
X6764711Y-5727625D02*
X6762232Y-5727751D01*
X1500430Y-1500188D02*
X1500390Y-1500217D01*
X6271730Y-2225761D02*
X6269560Y-2224556D01*
X5015180Y-9074127D02*
X5019010Y-9077116D01*
X1512910Y-8925414D02*
X1512919Y-8925438D01*
X3832420Y-5368894D02*
X3832425Y-5368869D01*
X2474408Y-5543929D02*
X2478380Y-5546727D01*
X6251295Y-2215739D02*
X6244237Y-2212920D01*
X8823617Y-5762564D02*
X8823596Y-5762550D01*
X6622681Y-5796204D02*
X6621064Y-5798088D01*
X3647875Y-2200329D02*
X3647857Y-2200327D01*
X2862399Y-2016685D02*
X2866504Y-2014085D01*
X7548001Y-9238115D02*
X7543896Y-9240715D01*
X6580326Y-8906124D02*
X6580333Y-8906148D01*
X7903692Y-9107033D02*
X7906087Y-9102805D01*
X8799602Y-9033774D02*
X8806338Y-9030256D01*
X6192596Y-9053868D02*
X6195065Y-9053617D01*
X1651079Y-9048696D02*
X1651103Y-9048702D01*
X3794154Y-8978203D02*
X3794170Y-8978183D01*
X8910265Y-9754287D02*
X8910288Y-9754244D01*
X1500006Y-9753819D02*
X1500008Y-9753868D01*
X1503870Y-5888387D02*
X1502530Y-5895867D01*
X7892000Y-9155788D02*
X7892000Y-9153717D01*
X7892477Y-9144001D02*
X7893072Y-9139178D01*
X3816879Y-8941751D02*
X3816890Y-8941728D01*
X3714518Y-2215748D02*
X3714495Y-2215739D01*
X1500834Y-1999980D02*
X1500883Y-1999987D01*
X7917646Y-9222284D02*
X7914472Y-9218605D01*
X1515738Y-5849705D02*
X1512919Y-5856762D01*
X8893673Y-8934799D02*
X8894652Y-8932518D01*
X3916337Y-4015602D02*
X3921125Y-4014772D01*
X1601848Y-2225773D02*
X1595299Y-2229628D01*
X3839619Y-7616038D02*
X3840915Y-7611355D01*
X8788095Y-9039061D02*
X8788118Y-9039052D01*
X1529628Y-8959501D02*
X1529642Y-8959523D01*
X3937937Y-7241100D02*
X3935706Y-7241100D01*
X3655796Y-5526468D02*
X3658265Y-5526217D01*
X5043510Y-9202468D02*
X5041115Y-9206696D01*
X8900826Y-5866353D02*
X8900818Y-5866329D01*
X5454199Y-2200161D02*
X5449330Y-2200040D01*
X5054723Y-9143937D02*
X5055080Y-9148782D01*
X1500000Y-9753597D02*
X1500006Y-9753819D01*
X4066428Y-8959501D02*
X4066442Y-8959523D01*
X7569528Y-9218605D02*
X7566354Y-9222284D01*
X4052538Y-5849705D02*
X4049719Y-5856762D01*
X2516497Y-2120410D02*
X2515432Y-2125152D01*
X3916337Y-7543002D02*
X3921125Y-7542172D01*
X1547464Y-8984112D02*
X1549081Y-8985995D01*
X3884795Y-7227013D02*
X3880690Y-7224413D01*
X1658506Y-2204380D02*
X1651103Y-2206098D01*
X4061344Y-5831462D02*
X4057826Y-5838198D01*
X3846196Y-7184422D02*
X3844227Y-7179979D01*
X2492750Y-5694983D02*
X2489399Y-5698503D01*
X4045624Y-5868745D02*
X4043533Y-5876051D01*
X8909887Y-9754665D02*
X8909930Y-9754639D01*
X4197787Y-2203871D02*
X4197762Y-2203875D01*
X6212638Y-5523525D02*
X6215069Y-5523025D01*
X3725979Y-5506386D02*
X3726002Y-5506374D01*
X6356873Y-8934799D02*
X6357852Y-8932518D01*
X4038946Y-5898371D02*
X4037986Y-5905910D01*
X4045624Y-8913455D02*
X4045631Y-8913479D01*
X2850911Y-5701910D02*
X2847392Y-5698559D01*
X1648651Y-9048067D02*
X1648676Y-9048074D01*
X2825937Y-5588417D02*
X2827907Y-5583974D01*
X2898086Y-2001902D02*
X2902874Y-2001072D01*
X1651079Y-5521296D02*
X1651103Y-5521302D01*
X4077895Y-5448800D02*
X4077910Y-5448820D01*
X8854480Y-5788729D02*
X8854463Y-5788711D01*
X3636163Y-5527400D02*
X3636176Y-5527400D01*
X6251295Y-5511661D02*
X6251318Y-5511652D01*
X6569484Y-7170845D02*
X6567960Y-7175458D01*
X2827904Y-2143485D02*
X2825935Y-2139043D01*
X3835868Y-5908404D02*
X3835617Y-5905935D01*
X1500512Y-9754665D02*
X1500556Y-9754688D01*
X6636728Y-5781609D02*
X6634929Y-5783319D01*
X5449355Y-9054824D02*
X5454225Y-9054705D01*
X4965904Y-9254323D02*
X4961058Y-9254680D01*
X4073382Y-5812146D02*
X4071964Y-5814183D01*
X6371454Y-8883829D02*
X6372414Y-8876290D01*
X4105585Y-9005702D02*
X4105604Y-9005719D01*
X6342632Y-8961651D02*
X6342645Y-8961629D01*
X7591880Y-9160658D02*
X7591523Y-9165504D01*
X1500020Y-9753966D02*
X1500030Y-9754014D01*
X1500030Y-1999214D02*
X1500042Y-1999261D01*
X3832925Y-5888362D02*
X3832425Y-5885931D01*
X1578580Y-2241110D02*
X1576617Y-2242630D01*
X1678510Y-2201186D02*
X1670971Y-2202146D01*
X2448138Y-2004263D02*
X2452752Y-2005787D01*
X3768014Y-5478302D02*
X3773653Y-5473208D01*
X1568785Y-9005702D02*
X1568804Y-9005719D01*
X1547448Y-2270707D02*
X1542645Y-2276597D01*
X4961058Y-9254680D02*
X4956188Y-9254800D01*
X6215069Y-5731775D02*
X6212638Y-5731275D01*
X4098129Y-8998880D02*
X4099928Y-9000591D01*
X6732131Y-9050425D02*
X6734562Y-9050925D01*
X4984948Y-5531506D02*
X4989562Y-5533030D01*
X3836770Y-7635234D02*
X3837128Y-7630388D01*
X1678510Y-5728586D02*
X1670971Y-5729546D01*
X3942807Y-7240980D02*
X3937937Y-7241100D01*
X6371070Y-8886333D02*
X6371074Y-8886308D01*
X3835617Y-5905935D02*
X3835614Y-5905910D01*
X5355320Y-2094142D02*
X5355677Y-2089296D01*
X3957221Y-7543003D02*
X3961962Y-7544067D01*
X3839659Y-7166148D02*
X3838595Y-7161406D01*
X4042904Y-2351079D02*
X4042898Y-2351104D01*
X6330970Y-5450783D02*
X6332490Y-5448820D01*
X6658325Y-9018203D02*
X6658346Y-9018218D01*
X3811039Y-5425530D02*
X3812244Y-5423360D01*
X1535150Y-5440596D02*
X1535164Y-5440617D01*
X1500645Y-1999927D02*
X1500692Y-1999944D01*
X2818519Y-9160658D02*
X2818400Y-9155788D01*
X1500013Y-9255683D02*
X1500008Y-9255732D01*
X1541095Y-5806000D02*
X1536597Y-5812125D01*
X1500042Y-9255539D02*
X1500030Y-9255586D01*
X5357103Y-5606990D02*
X5358168Y-5602248D01*
X6566211Y-7179991D02*
X6564242Y-7184433D01*
X3836543Y-8863981D02*
X3836650Y-7640104D01*
X4147621Y-5506386D02*
X4149849Y-5507479D01*
X6374523Y-7625566D02*
X6375354Y-7620779D01*
X1622305Y-5743138D02*
X1622282Y-5743148D01*
X6594614Y-8943979D02*
X6594626Y-8944002D01*
X7894968Y-9129648D02*
X7896264Y-9124965D01*
X2840876Y-9090896D02*
X2844050Y-9087216D01*
X2893345Y-9251833D02*
X2888662Y-9250537D01*
X1500016Y-5328035D02*
X1500225Y-5336263D01*
X6251318Y-2215748D02*
X6251295Y-2215739D01*
X6234671Y-5736982D02*
X6234647Y-5736974D01*
X2824188Y-9120350D02*
X2825937Y-9115817D01*
X6567960Y-7175458D02*
X6566211Y-7179991D01*
X4091009Y-8991672D02*
X4092719Y-8993471D01*
X2482205Y-9232328D02*
X2478374Y-9235317D01*
X2888652Y-5723294D02*
X2884038Y-5721770D01*
X5011195Y-5710815D02*
X5007089Y-5713414D01*
X8729396Y-5728332D02*
X8729370Y-5728330D01*
X4227937Y-2200225D02*
X4227911Y-2200226D01*
X4066428Y-2295299D02*
X4062573Y-2301848D01*
X5387711Y-2174510D02*
X5384192Y-2171159D01*
X3805845Y-5434229D02*
X3807158Y-5432123D01*
X3988843Y-7227016D02*
X3984615Y-7229411D01*
X2461736Y-9064149D02*
X2466076Y-9066334D01*
X2884058Y-9060489D02*
X2888672Y-9058965D01*
X6215069Y-9050425D02*
X6215094Y-9050420D01*
X2818519Y-9148847D02*
X2818877Y-9144001D01*
X6288875Y-5490803D02*
X6295000Y-5486305D01*
X3750017Y-2235164D02*
X3749996Y-2235150D01*
X8910071Y-8865876D02*
X8910073Y-8865857D01*
X4989542Y-2194311D02*
X4984928Y-2195835D01*
X3830073Y-5876076D02*
X3830067Y-5876051D01*
X3820073Y-8934799D02*
X3821052Y-8932518D01*
X5380846Y-9222284D02*
X5377672Y-9218605D01*
X7981308Y-9055181D02*
X7986155Y-9054824D01*
X4156778Y-5744137D02*
X4149872Y-5747310D01*
X6234671Y-5517818D02*
X6241862Y-5515360D01*
X3916379Y-3711797D02*
X3911637Y-3710732D01*
X6577975Y-8896269D02*
X6577980Y-8896294D01*
X2478374Y-2019483D02*
X2482205Y-2022472D01*
X4138670Y-5753161D02*
X4138648Y-5753173D01*
X3655796Y-9053868D02*
X3658265Y-9053617D01*
X4037986Y-5348890D02*
X4038946Y-5356429D01*
X6369220Y-2358506D02*
X6367502Y-2351104D01*
X8907870Y-8886333D02*
X8907874Y-8886308D01*
X4035005Y-4093393D02*
X4035835Y-4098181D01*
X3984577Y-7552791D02*
X3988805Y-7555187D01*
X2419401Y-5527239D02*
X2424270Y-5527360D01*
X5043512Y-5579575D02*
X5045696Y-5583915D01*
X1524556Y-5831440D02*
X1524544Y-5831462D01*
X6184993Y-5527047D02*
X6192570Y-5526470D01*
X6658346Y-9018218D02*
X6660383Y-9019636D01*
X4187903Y-5521302D02*
X4195306Y-5523020D01*
X1500042Y-1500739D02*
X1500030Y-1500786D01*
X2821367Y-2074945D02*
X2822663Y-2070262D01*
X1500981Y-9754794D02*
X1501203Y-9754800D01*
X1500353Y-5338793D02*
X1500930Y-5346370D01*
X3823889Y-2329386D02*
X3823880Y-2329362D01*
X7935999Y-9238115D02*
X7932026Y-9235317D01*
X3734952Y-5753173D02*
X3734930Y-5753161D01*
X1515748Y-5849682D02*
X1515738Y-5849705D01*
X3675813Y-9050929D02*
X3675838Y-9050925D01*
X6353679Y-8941751D02*
X6353690Y-8941728D01*
X1500000Y-9256027D02*
X1500000Y-9753573D01*
X4037057Y-2390819D02*
X4036950Y-3614696D01*
X6244214Y-2212910D02*
X6241886Y-2212048D01*
X6286817Y-5492236D02*
X6288854Y-5490818D01*
X6705314Y-5739448D02*
X6702986Y-5740310D01*
X3830702Y-5878503D02*
X3830696Y-5878479D01*
X6714945Y-9045976D02*
X6722251Y-9048067D01*
X4195331Y-5731775D02*
X4195306Y-5731780D01*
X2419401Y-9054639D02*
X2424270Y-9054760D01*
X1500930Y-2381030D02*
X1500329Y-2388924D01*
X8910126Y-8864910D02*
X8910143Y-8864000D01*
X5355200Y-5626317D02*
X5355320Y-5621447D01*
X2818519Y-2094142D02*
X2818877Y-2089296D01*
X3835617Y-5348865D02*
X3835868Y-5346396D01*
X1658531Y-5523025D02*
X1660962Y-5523525D01*
X6627809Y-5790528D02*
X6627792Y-5790547D01*
X2840872Y-2036195D02*
X2844046Y-2032516D01*
X3859163Y-3677501D02*
X3856173Y-3673670D01*
X3794154Y-5450803D02*
X3794170Y-5450783D01*
X6224924Y-9048074D02*
X6224948Y-9048067D01*
X3975794Y-4021237D02*
X3980236Y-4023206D01*
X6579704Y-5878479D02*
X6579698Y-5878503D01*
X2858426Y-2019483D02*
X2862399Y-2016685D01*
X6372670Y-5908429D02*
X6372668Y-5908404D01*
X3988843Y-3699616D02*
X3984615Y-3702011D01*
X4138648Y-5501627D02*
X4138670Y-5501639D01*
X5052232Y-2125152D02*
X5050936Y-2129835D01*
X8875250Y-8967996D02*
X8879432Y-8961651D01*
X5055200Y-9155788D02*
X5055080Y-9160658D01*
X5395220Y-2180673D02*
X5391390Y-2177684D01*
X4098111Y-5783337D02*
X4092737Y-5788711D01*
X3716822Y-5510663D02*
X3723728Y-5507490D01*
X3648193Y-9054447D02*
X3655770Y-9053870D01*
X1500470Y-1999839D02*
X1500512Y-1999865D01*
X6366873Y-8906124D02*
X6367496Y-8903721D01*
X8854480Y-8993471D02*
X8856191Y-8991672D01*
X4168514Y-2212048D02*
X4166186Y-2212910D01*
X2518400Y-9153652D02*
X2518400Y-9155788D01*
X8739454Y-9052650D02*
X8741908Y-9052274D01*
X3966646Y-4017964D02*
X3971260Y-4019488D01*
X3971260Y-7546888D02*
X3975794Y-7548637D01*
X3835614Y-5905910D02*
X3834654Y-5898371D01*
X2515433Y-9129587D02*
X2516498Y-9134327D01*
X4045624Y-5386055D02*
X4045631Y-5386079D01*
X5022689Y-9080290D02*
X5026208Y-9083641D01*
X1519921Y-2313049D02*
X1519910Y-2313072D01*
X6660383Y-5762564D02*
X6658346Y-5763982D01*
X6489233Y-7542172D02*
X6494021Y-7543003D01*
X3816890Y-5414328D02*
X3820063Y-5407422D01*
X7530885Y-9247264D02*
X7526352Y-9249013D01*
X6583182Y-5866329D02*
X6583174Y-5866353D01*
X4149849Y-5747321D02*
X4147621Y-5748414D01*
X6343958Y-2295277D02*
X6342645Y-2293171D01*
X6373600Y-5928023D02*
X6373584Y-5926777D01*
X5007096Y-2014085D02*
X5011201Y-2016685D01*
X6372414Y-5348890D02*
X6372417Y-5348865D01*
X1508824Y-5386055D02*
X1508831Y-5386079D01*
X7911483Y-9214774D02*
X7908685Y-9210801D01*
X6332490Y-5448820D02*
X6332505Y-5448800D01*
X4961045Y-2199976D02*
X4956175Y-2200095D01*
X7940111Y-9068786D02*
X7944340Y-9066391D01*
X3665854Y-2202150D02*
X3665829Y-2202146D01*
X1631738Y-5515360D02*
X1638929Y-5517818D01*
X6686649Y-9034879D02*
X6686672Y-9034890D01*
X8910358Y-9754061D02*
X8910370Y-9754014D01*
X4014437Y-7577299D02*
X4017426Y-7581130D01*
X1554192Y-5464253D02*
X1554209Y-5464272D01*
X6754629Y-5728330D02*
X6754604Y-5728332D01*
X6434567Y-7548635D02*
X6439100Y-7546887D01*
X6349044Y-2304040D02*
X6347839Y-2301870D01*
X3725979Y-9033786D02*
X3726002Y-9033774D01*
X6621048Y-8984093D02*
X6621064Y-8984112D01*
X8894661Y-8932495D02*
X8897480Y-8925438D01*
X2879505Y-2192621D02*
X2875064Y-2190651D01*
X4085881Y-8985995D02*
X4085898Y-8986015D01*
X1660987Y-9050929D02*
X1668467Y-9052270D01*
X6580326Y-5876076D02*
X6579704Y-5878479D01*
X1500020Y-1999165D02*
X1500030Y-1999214D01*
X6182463Y-9054575D02*
X6182489Y-9054574D01*
X3758220Y-2241110D02*
X3758200Y-2241095D01*
X8875236Y-5814183D02*
X8873818Y-5812146D01*
X2419388Y-9254800D02*
X1501227Y-9254800D01*
X7896264Y-9124965D02*
X7897788Y-9120350D01*
X4138670Y-9029039D02*
X4140840Y-9030244D01*
X3834270Y-5358933D02*
X3834274Y-5358908D01*
X6234647Y-2209574D02*
X6232279Y-2208831D01*
X8721476Y-5727729D02*
X8721457Y-5727727D01*
X1542630Y-5804017D02*
X1541110Y-5805980D01*
X6310472Y-5473191D02*
X6312271Y-5471480D01*
X5050936Y-2129835D02*
X5049412Y-2134450D01*
X4043526Y-8906124D02*
X4043533Y-8906148D01*
X6573600Y-8854177D02*
X6573616Y-8855423D01*
X4098129Y-5783319D02*
X4098111Y-5783337D01*
X4004393Y-4039349D02*
X4007912Y-4042700D01*
X1563128Y-5781609D02*
X1561329Y-5783319D01*
X4025219Y-4066037D02*
X4027403Y-4070378D01*
X3889023Y-7229409D02*
X3884795Y-7227013D01*
X8739429Y-9052654D02*
X8739454Y-9052650D01*
X6343971Y-2295299D02*
X6343958Y-2295277D01*
X2875072Y-2009505D02*
X2879514Y-2007536D01*
X6474694Y-7541100D02*
X6479564Y-7541219D01*
X1512048Y-2331714D02*
X1512040Y-2331738D01*
X3824760Y-5859138D02*
X3824752Y-5859114D01*
X3820073Y-2320001D02*
X3820063Y-2319978D01*
X2429116Y-5527718D02*
X2433938Y-5528313D01*
X5416305Y-2192621D02*
X5411864Y-2190651D01*
X6409648Y-7563570D02*
X6413479Y-7560581D01*
X7991012Y-9254800D02*
X7986142Y-9254680D01*
X5019005Y-9232328D02*
X5015174Y-9235317D01*
X1541095Y-8976200D02*
X1541110Y-8976220D01*
X4040675Y-8893838D02*
X4041175Y-8896269D01*
X2514138Y-5597504D02*
X2515433Y-5602186D01*
X1512040Y-2331738D02*
X1509582Y-2338929D01*
X5038518Y-9098642D02*
X5041117Y-9102747D01*
X4037732Y-8873796D02*
X4037983Y-8876265D01*
X1529642Y-8959523D02*
X1530955Y-8961629D01*
X1500016Y-8855423D02*
X1500016Y-8855435D01*
X6557062Y-7197106D02*
X6554264Y-7201078D01*
X6317663Y-8993489D02*
X6317680Y-8993471D01*
X2495931Y-9090839D02*
X2498920Y-9094670D01*
X1506098Y-5878503D02*
X1504380Y-5885906D01*
X5055200Y-2101083D02*
X5055080Y-2105953D01*
X2514136Y-5657235D02*
X2512612Y-5661849D01*
X4039326Y-5895892D02*
X4038950Y-5898346D01*
X4048840Y-8923062D02*
X4048848Y-8923086D01*
X7512325Y-9056544D02*
X7517066Y-9057609D01*
X6347839Y-8952930D02*
X6349044Y-8950760D01*
X6629537Y-5788711D02*
X6629519Y-5788729D01*
X6183748Y-5727675D02*
X6183710Y-5727674D01*
X3773672Y-9000591D02*
X3775471Y-8998880D01*
X3820063Y-5847378D02*
X3816890Y-5840472D01*
X7903690Y-9202468D02*
X7901505Y-9198128D01*
X5399205Y-5543985D02*
X5403311Y-5541386D01*
X7901507Y-9111374D02*
X7903692Y-9107033D01*
X4197762Y-5523525D02*
X4197787Y-5523529D01*
X6762232Y-5727751D02*
X6762207Y-5727753D01*
X8808530Y-9029039D02*
X8808552Y-9029027D01*
X2516498Y-9134327D02*
X2517328Y-9139114D01*
X6278323Y-9025158D02*
X6280429Y-9023845D01*
X1500030Y-1500786D02*
X1500020Y-1500834D01*
X5430145Y-2002967D02*
X5434886Y-2001902D01*
X4187903Y-5733498D02*
X4187879Y-5733504D01*
X1638953Y-5517826D02*
X1641321Y-5518569D01*
X6312289Y-5471463D02*
X6317663Y-5466089D01*
X4045631Y-5868721D02*
X4045624Y-5868745D01*
X2818400Y-2101148D02*
X2818400Y-2099012D01*
X6571846Y-7161421D02*
X6570781Y-7166162D01*
X4029411Y-3652591D02*
X4027442Y-3657033D01*
X7921001Y-9083697D02*
X7924521Y-9080347D01*
X3834654Y-2370971D02*
X3834650Y-2370946D01*
X6668899Y-9025172D02*
X6675448Y-9029027D01*
X6360680Y-5398038D02*
X6360689Y-5398014D01*
X3823880Y-5398038D02*
X3823889Y-5398014D01*
X5364705Y-2056672D02*
X5366890Y-2052332D01*
X8849089Y-8998863D02*
X8854463Y-8993489D01*
X5018999Y-2177627D02*
X5015168Y-2180617D01*
X6572635Y-7625581D02*
X6573230Y-7630404D01*
X5011208Y-5543929D02*
X5015180Y-5546727D01*
X3688124Y-9048074D02*
X3688148Y-9048067D01*
X3836694Y-7142079D02*
X3836800Y-5928035D01*
X1681029Y-2200930D02*
X1681004Y-2200932D01*
X2515432Y-5652552D02*
X2514136Y-5657235D01*
X1549098Y-5796185D02*
X1549081Y-5796204D01*
X8894661Y-5849705D02*
X8894652Y-5849682D01*
X4965916Y-5527718D02*
X4970738Y-5528313D01*
X5369285Y-2048104D02*
X5371885Y-2043999D01*
X2832485Y-2048104D02*
X2835085Y-2043999D01*
X2824187Y-9189152D02*
X2822663Y-9184538D01*
X5007103Y-5541329D02*
X5011208Y-5543929D01*
X3834650Y-8883854D02*
X3834654Y-8883829D01*
X4178145Y-5518576D02*
X4185451Y-5520667D01*
X4084264Y-5798088D02*
X4084248Y-5798107D01*
X4033981Y-3638762D02*
X4032684Y-3643445D01*
X1700624Y-5727400D02*
X1699376Y-5727416D01*
X6317680Y-8993471D02*
X6319391Y-8991672D01*
X4052548Y-2322282D02*
X4052538Y-2322305D01*
X4149872Y-5747310D02*
X4149849Y-5747321D01*
X6347839Y-5829270D02*
X6347827Y-5829248D01*
X6330970Y-5804017D02*
X6330954Y-5803997D01*
X6559624Y-7589209D02*
X6562019Y-7593437D01*
X6271752Y-2225773D02*
X6271730Y-2225761D01*
X3795705Y-5806000D02*
X3795690Y-5805980D01*
X1547448Y-5798107D02*
X1542645Y-5803997D01*
X8731865Y-5728583D02*
X8729396Y-5728332D01*
X3823889Y-8925414D02*
X3824752Y-8923086D01*
X3775471Y-2255920D02*
X3773672Y-2254209D01*
X3723728Y-9034890D02*
X3723750Y-9034879D01*
X5391395Y-2022472D02*
X5395226Y-2019483D01*
X4185451Y-9048067D02*
X4185476Y-9048074D01*
X6434606Y-7233563D02*
X6430164Y-7231594D01*
X1578600Y-9013705D02*
X1584725Y-9018203D01*
X1576617Y-9012170D02*
X1578580Y-9013690D01*
X6693578Y-5744137D02*
X6686672Y-5747310D01*
X3675838Y-5523525D02*
X3678269Y-5523025D01*
X1524556Y-5423360D02*
X1525761Y-5425530D01*
X3862337Y-3681181D02*
X3859163Y-3677501D01*
X3836543Y-5336600D02*
X3836543Y-5336581D01*
X8909970Y-9754612D02*
X8910010Y-9754583D01*
X8906020Y-5885906D02*
X8904302Y-5878503D01*
X5055080Y-5633353D02*
X5054723Y-5638199D01*
X1500932Y-2381004D02*
X1500930Y-2381030D01*
X6503446Y-7545364D02*
X6508060Y-7546888D01*
X6369729Y-5366413D02*
X6371070Y-5358933D01*
X6517036Y-7550606D02*
X6521377Y-7552791D01*
X6195090Y-5728586D02*
X6195065Y-5728583D01*
X8909470Y-8873770D02*
X8910071Y-8865876D01*
X3827226Y-5388447D02*
X3827969Y-5386079D01*
X3827969Y-5386079D02*
X3827976Y-5386055D01*
X5355677Y-5616601D02*
X5356272Y-5611778D01*
X6573825Y-8863663D02*
X6573825Y-8863689D01*
X6310472Y-5781609D02*
X6310453Y-5781592D01*
X3805832Y-5434251D02*
X3805845Y-5434229D01*
X3767995Y-2249081D02*
X3766112Y-2247464D01*
X5355200Y-5628548D02*
X5355200Y-5626317D01*
X7899536Y-9193686D02*
X7897787Y-9189152D01*
X3921125Y-4014772D02*
X3925947Y-4014177D01*
X2470289Y-2186014D02*
X2466060Y-2188409D01*
X2884058Y-5533089D02*
X2888672Y-5531565D01*
X1691136Y-2200225D02*
X1691111Y-2200226D01*
X3815774Y-5416602D02*
X3815786Y-5416579D01*
X4207771Y-5729546D02*
X4207746Y-5729550D01*
X4049719Y-5398038D02*
X4052538Y-5405095D01*
X6342632Y-2293149D02*
X6338450Y-2286804D01*
X2912542Y-2000119D02*
X2917412Y-2000000D01*
X6367496Y-8903721D02*
X6367502Y-8903696D01*
X1541110Y-2278580D02*
X1541095Y-2278600D01*
X4113417Y-5484770D02*
X4115380Y-5486290D01*
X4970726Y-2001072D02*
X4975514Y-2001902D01*
X1601848Y-9029027D02*
X1601870Y-9029039D01*
X3853338Y-4057694D02*
X3856136Y-4053722D01*
X6343971Y-5432101D02*
X6347827Y-5425552D01*
X6677662Y-5751944D02*
X6677640Y-5751956D01*
X1500786Y-9754770D02*
X1500834Y-9754780D01*
X2492754Y-2032516D02*
X2495928Y-2036195D01*
X4037127Y-5916343D02*
X4037076Y-5917252D01*
X6295000Y-5768495D02*
X6288875Y-5763997D01*
X4129949Y-5758368D02*
X4123604Y-5762550D01*
X6369225Y-2358531D02*
X6369220Y-2358506D01*
X5403304Y-2014085D02*
X5407532Y-2011690D01*
X4215310Y-5728586D02*
X4207771Y-5729546D01*
X6253599Y-9038073D02*
X6253622Y-9038063D01*
X5053297Y-2120410D02*
X5052232Y-2125152D01*
X4079430Y-5804017D02*
X4077910Y-5805980D01*
X8910010Y-9255017D02*
X8909970Y-9254988D01*
X3750017Y-9019636D02*
X3752054Y-9018218D01*
X4049719Y-5856762D02*
X4049710Y-5856786D01*
X2822664Y-5597565D02*
X2824188Y-5592950D01*
X2495928Y-9218605D02*
X2492754Y-9222284D01*
X1535150Y-5814204D02*
X1530968Y-5820549D01*
X3782608Y-5464253D02*
X3787702Y-5458615D01*
X4236176Y-2200016D02*
X4236164Y-2200016D01*
X6537551Y-7218630D02*
X6533721Y-7221619D01*
X4236176Y-5727416D02*
X4236164Y-5727416D01*
X4004393Y-7566749D02*
X4007912Y-7570100D01*
X8741933Y-5729930D02*
X8741908Y-5729926D01*
X6372417Y-5905935D02*
X6372417Y-5905935D01*
X6278301Y-5497772D02*
X6278323Y-5497758D01*
X2457295Y-9062179D02*
X2461736Y-9064149D01*
X1641321Y-5736231D02*
X1638953Y-5736974D01*
X4123604Y-9019650D02*
X4129949Y-9023832D01*
X6574786Y-8876290D02*
X6575746Y-8883829D01*
X1500000Y-8854164D02*
X1500000Y-8854177D01*
X2443455Y-9251833D02*
X2438714Y-9252897D01*
X3820063Y-8934822D02*
X3820073Y-8934799D01*
X5356272Y-5643085D02*
X5355677Y-5638263D01*
X3869169Y-7566743D02*
X3872848Y-7563570D01*
X4207746Y-5729550D02*
X4205292Y-5729926D01*
X4225432Y-2200351D02*
X4225407Y-2200353D01*
X4140840Y-2224556D02*
X4138670Y-2225761D01*
X2489399Y-2171103D02*
X2485879Y-2174453D01*
X1500135Y-1500512D02*
X1500112Y-1500556D01*
X3688148Y-5734133D02*
X3688124Y-5734126D01*
X1500834Y-9254820D02*
X1500786Y-9254830D01*
X1541095Y-2278600D02*
X1536597Y-2284725D01*
X6357861Y-5405095D02*
X6360680Y-5398038D01*
X7986142Y-9254680D02*
X7981296Y-9254323D01*
X5015180Y-5546727D02*
X5019010Y-5549716D01*
X5026203Y-9225803D02*
X5022684Y-9229154D01*
X6642404Y-9005719D02*
X6644288Y-9007336D01*
X6244214Y-9041890D02*
X6244237Y-9041880D01*
X8885856Y-8950738D02*
X8889374Y-8944002D01*
X8893673Y-5847401D02*
X8893663Y-5847378D01*
X6215094Y-5523020D02*
X6222496Y-5521302D01*
X6234647Y-9045226D02*
X6234671Y-9045218D01*
X3830067Y-8906148D02*
X3830073Y-8906124D01*
X5403311Y-9068786D02*
X5407540Y-9066391D01*
X6684398Y-5748426D02*
X6677662Y-5751944D01*
X2457276Y-2192562D02*
X2452742Y-2194311D01*
X1521014Y-8943979D02*
X1521026Y-8944002D01*
X4037732Y-2381004D02*
X4037730Y-2381030D01*
X8778662Y-9042760D02*
X8778686Y-9042752D01*
X4091009Y-5790528D02*
X4090992Y-5790547D01*
X3716799Y-9038073D02*
X3716822Y-9038063D01*
X5374680Y-2160130D02*
X5371882Y-2156158D01*
X6202654Y-9052650D02*
X6205107Y-9052274D01*
X8910084Y-9754519D02*
X8910119Y-9754484D01*
X1500329Y-2388924D02*
X1500327Y-2388943D01*
X4053537Y-2319978D02*
X4053527Y-2320001D01*
X3775489Y-5471463D02*
X3780863Y-5466089D01*
X6372668Y-5908404D02*
X6372417Y-5905935D01*
X2482199Y-2177627D02*
X2478368Y-2180617D01*
X6352574Y-8944002D02*
X6352586Y-8943979D01*
X3942807Y-3713580D02*
X3937937Y-3713700D01*
X2854601Y-5549773D02*
X2858432Y-5546783D01*
X7966956Y-9057670D02*
X7971697Y-9056605D01*
X2844042Y-2167640D02*
X2840868Y-2163961D01*
X4092737Y-5788711D02*
X4092719Y-5788729D01*
X1629362Y-9041880D02*
X1629386Y-9041890D01*
X1700637Y-5727400D02*
X1700624Y-5727400D01*
X4226652Y-5527124D02*
X4226690Y-5527126D01*
X6224924Y-5520674D02*
X6224948Y-5520667D01*
X8910119Y-9255116D02*
X8910084Y-9255081D01*
X1688943Y-5527073D02*
X1689852Y-5527124D01*
X6253599Y-2216727D02*
X6251318Y-2215748D01*
X3707414Y-5514490D02*
X3707437Y-5514480D01*
X1584725Y-2236597D02*
X1578600Y-2241095D01*
X4107507Y-5774848D02*
X4107488Y-5774864D01*
X5449355Y-5527424D02*
X5454225Y-5527305D01*
X3665829Y-5729546D02*
X3658290Y-5728586D01*
X3716822Y-9038063D02*
X3723728Y-9034890D01*
X3897806Y-7233563D02*
X3893364Y-7231594D01*
X6573876Y-5917252D02*
X6573874Y-5917290D01*
X3646948Y-2200276D02*
X3646910Y-2200274D01*
X6744546Y-9052650D02*
X6744571Y-9052654D01*
X3789336Y-5798088D02*
X3787719Y-5796204D01*
X4147621Y-9033786D02*
X4149849Y-9034879D01*
X2917425Y-9054705D02*
X3636163Y-9054800D01*
X3707414Y-5740310D02*
X3705086Y-5739448D01*
X1542645Y-5803997D02*
X1542630Y-5804017D01*
X3741523Y-5497758D02*
X3743629Y-5496445D01*
X1660987Y-5523529D02*
X1668467Y-5524870D01*
X1681029Y-5728330D02*
X1681004Y-5728332D01*
X3705062Y-9042760D02*
X3705086Y-9042752D01*
X1502530Y-2368467D02*
X1502526Y-2368492D01*
X7953123Y-9062238D02*
X7957658Y-9060489D01*
X4032684Y-3643445D02*
X4031160Y-3648058D01*
X7590928Y-9139114D02*
X7591523Y-9143937D01*
X8739429Y-5729546D02*
X8731890Y-5728586D01*
X4099947Y-5473208D02*
X4105585Y-5478302D01*
X5032731Y-9090839D02*
X5035720Y-9094670D01*
X6603242Y-5822677D02*
X6603228Y-5822699D01*
X1535150Y-2286804D02*
X1530968Y-2293149D01*
X1536582Y-5442654D02*
X1536597Y-5442675D01*
X3760203Y-5484755D02*
X3766093Y-5479952D01*
X1515738Y-5405095D02*
X1515748Y-5405118D01*
X4226690Y-9054526D02*
X4227600Y-9054543D01*
X8856191Y-5790528D02*
X8854480Y-5788729D01*
X6262779Y-5748414D02*
X6260550Y-5747321D01*
X6724679Y-5733504D02*
X6722276Y-5734126D01*
X4159105Y-2215739D02*
X4159082Y-2215748D01*
X6202654Y-5729550D02*
X6202629Y-5729546D01*
X6326152Y-5456693D02*
X6330954Y-5450803D01*
X5377672Y-2036195D02*
X5380846Y-2032516D01*
X1500000Y-1998797D02*
X1500006Y-1999019D01*
X7543896Y-9240715D02*
X7539668Y-9243110D01*
X1622282Y-2215748D02*
X1620001Y-2216727D01*
X1519921Y-5414351D02*
X1521014Y-5416579D01*
X4090992Y-2263147D02*
X4085898Y-2268785D01*
X1622305Y-2215739D02*
X1622282Y-2215748D01*
X1631738Y-5739440D02*
X1631714Y-5739448D01*
X1613049Y-5747321D02*
X1610821Y-5748414D01*
X3848343Y-4066027D02*
X3850738Y-4061799D01*
X1529628Y-2295299D02*
X1525773Y-2301848D01*
X3714495Y-5511661D02*
X3714518Y-5511652D01*
X4011263Y-7573619D02*
X4014437Y-7577299D01*
X2457286Y-9247264D02*
X2452752Y-9249013D01*
X8889386Y-5838221D02*
X8889374Y-5838198D01*
X1500248Y-9255152D02*
X1500217Y-9255190D01*
X6286817Y-9019636D02*
X6288854Y-9018218D01*
X6372417Y-5348865D02*
X6372668Y-5346396D01*
X2516497Y-9175114D02*
X2515433Y-9179855D01*
X6372670Y-5346370D02*
X6373271Y-5338476D01*
X3836526Y-8864910D02*
X3836543Y-8864000D01*
X1500135Y-1999487D02*
X1500160Y-1999529D01*
X4071964Y-5814183D02*
X4071950Y-5814204D01*
X3992948Y-7224417D02*
X3988843Y-7227016D01*
X6575750Y-8883854D02*
X6576126Y-8886308D01*
X4138648Y-2225773D02*
X4132099Y-2229628D01*
X3820073Y-5847401D02*
X3820063Y-5847378D01*
X3865650Y-4042693D02*
X3869169Y-4039343D01*
X1631714Y-5515352D02*
X1631738Y-5515360D01*
X4107507Y-2247448D02*
X4107488Y-2247464D01*
X2482199Y-5705027D02*
X2478368Y-5708017D01*
X6599361Y-8952930D02*
X6599373Y-8952952D01*
X6385181Y-7188763D02*
X6382996Y-7184422D01*
X6373324Y-8864948D02*
X6373326Y-8864910D01*
X6562019Y-7593437D02*
X6564203Y-7597778D01*
X8839712Y-5774864D02*
X8839693Y-5774848D01*
X1500188Y-1999570D02*
X1500217Y-1999610D01*
X6610197Y-5812125D02*
X6610182Y-5812146D01*
X6575746Y-8883829D02*
X6575750Y-8883854D01*
X1500352Y-9255048D02*
X1500316Y-9255081D01*
X1500000Y-1501227D02*
X1500000Y-1998773D01*
X1578600Y-5486305D02*
X1584725Y-5490803D01*
X6582424Y-8913455D02*
X6582431Y-8913479D01*
X2498917Y-2040026D02*
X2501715Y-2043999D01*
X7559489Y-9080290D02*
X7563008Y-9083641D01*
X4123604Y-2235150D02*
X4123583Y-2235164D01*
X6356873Y-5407399D02*
X6357852Y-5405118D01*
X5391401Y-9077173D02*
X5395232Y-9074183D01*
X5356272Y-2084474D02*
X5357103Y-2079686D01*
X5444509Y-9055181D02*
X5449355Y-9054824D01*
X1500030Y-9255586D02*
X1500020Y-9255634D01*
X6650217Y-5770030D02*
X6650197Y-5770045D01*
X8711024Y-9054784D02*
X8711036Y-9054784D01*
X1501227Y-1500000D02*
X1501203Y-1500000D01*
X3984615Y-3702011D02*
X3980275Y-3704196D01*
X8781038Y-5740319D02*
X8781014Y-5740310D01*
X5362735Y-5666443D02*
X5360986Y-5661910D01*
X8910119Y-9754484D02*
X8910152Y-9754448D01*
X3705062Y-2212040D02*
X3697871Y-2209582D01*
X6360689Y-8925414D02*
X6361552Y-8923086D01*
X8831820Y-9013690D02*
X8833783Y-9012170D01*
X3836784Y-5926777D02*
X3836784Y-5926765D01*
X4053527Y-2320001D02*
X4052548Y-2322282D01*
X1681029Y-5526470D02*
X1688924Y-5527071D01*
X6357852Y-2322282D02*
X6356873Y-2320001D01*
X1500016Y-8855435D02*
X1500225Y-8863663D01*
X1500257Y-2390819D02*
X1500000Y-5326764D01*
X1506733Y-5876051D02*
X1506726Y-5876076D01*
X3645981Y-5727656D02*
X2917399Y-5727560D01*
X5045693Y-2143426D02*
X5043508Y-2147767D01*
X6278301Y-2229628D02*
X6271752Y-2225773D01*
X8909930Y-9254961D02*
X8909887Y-9254935D01*
X3648168Y-5527049D02*
X3648193Y-5527047D01*
X4168538Y-5515360D02*
X4175729Y-5517818D01*
X4039330Y-8886333D02*
X4040670Y-8893813D01*
X6338436Y-5814183D02*
X6337018Y-5812146D01*
X6343971Y-5822699D02*
X6343958Y-5822677D01*
X6668877Y-9025158D02*
X6668899Y-9025172D01*
X4168514Y-9042752D02*
X4168538Y-9042760D01*
X5026203Y-2028997D02*
X5029554Y-2032516D01*
X3782591Y-5790528D02*
X3780880Y-5788729D01*
X1536582Y-2284746D02*
X1535164Y-2286783D01*
X3800203Y-5812125D02*
X3795705Y-5806000D01*
X7586212Y-9189152D02*
X7584464Y-9193686D01*
X1629362Y-5740319D02*
X1622305Y-5743138D01*
X4984928Y-2195835D02*
X4980244Y-2197130D01*
X2466076Y-9066334D02*
X2470303Y-9068729D01*
X7577917Y-9102747D02*
X7580312Y-9106975D01*
X6616230Y-8978183D02*
X6616245Y-8978203D01*
X3925947Y-4014177D02*
X3930793Y-4013819D01*
X4225743Y-5527073D02*
X4226652Y-5527124D01*
X4225432Y-5727751D02*
X4225407Y-5727753D01*
X3839619Y-4088638D02*
X3840915Y-4083955D01*
X1500932Y-9754792D02*
X1500981Y-9754794D01*
X1535164Y-5814183D02*
X1535150Y-5814204D01*
X8873818Y-5812146D02*
X8873803Y-5812125D01*
X4132077Y-9025158D02*
X4132099Y-9025172D01*
X3957262Y-3711798D02*
X3952475Y-3712628D01*
X2862405Y-9071385D02*
X2866511Y-9068786D01*
X4994086Y-2007536D02*
X4998528Y-2009505D01*
X3824760Y-2331738D02*
X3824752Y-2331714D01*
X6195065Y-2201183D02*
X6192596Y-2200932D01*
X2512612Y-5661849D02*
X2510863Y-5666383D01*
X8867770Y-8978183D02*
X8869290Y-8976220D01*
X1500257Y-2390800D02*
X1500257Y-2390819D01*
X2429104Y-2000477D02*
X2433926Y-2001072D01*
X5049412Y-5661849D02*
X5047663Y-5666383D01*
X1525773Y-2301848D02*
X1525761Y-2301870D01*
X2495924Y-2163904D02*
X2492750Y-2167584D01*
X3844189Y-4074808D02*
X3846158Y-4070366D01*
X4053537Y-5407422D02*
X4056710Y-5414328D01*
X3723728Y-5747310D02*
X3716822Y-5744137D01*
X5369285Y-9206696D02*
X5366890Y-9202468D01*
X7566354Y-9222284D02*
X7563003Y-9225803D01*
X1500352Y-1500248D02*
X1500316Y-1500281D01*
X4961045Y-5727376D02*
X4956175Y-5727495D01*
X6479607Y-7240980D02*
X6474737Y-7241100D01*
X8781014Y-9041890D02*
X8781038Y-9041880D01*
X5434897Y-9056605D02*
X5439685Y-9055775D01*
X3685721Y-9048696D02*
X3688124Y-9048074D01*
X4085898Y-8986015D02*
X4090992Y-8991653D01*
X3815774Y-8944002D02*
X3815786Y-8943979D01*
X7502704Y-9254323D02*
X7497858Y-9254680D01*
X7892119Y-9160658D02*
X7892000Y-9155788D01*
X3800218Y-2284746D02*
X3800203Y-2284725D01*
X2419388Y-2000000D02*
X2424258Y-2000119D01*
X8910400Y-9256003D02*
X8910394Y-9255781D01*
X3668332Y-9052270D02*
X3675813Y-9050929D01*
X8797328Y-9034890D02*
X8797351Y-9034879D01*
X6583174Y-5866353D02*
X6582431Y-5868721D01*
X7566358Y-9087160D02*
X7569531Y-9090839D01*
X3947610Y-4014177D02*
X3952433Y-4014772D01*
X2835082Y-2156158D02*
X2832483Y-2152053D01*
X5360986Y-5661910D02*
X5359462Y-5657296D01*
X1500352Y-1999752D02*
X1500390Y-1999783D01*
X3827976Y-2341345D02*
X3827969Y-2341321D01*
X1500316Y-1999719D02*
X1500352Y-1999752D01*
X6241862Y-5515360D02*
X6241886Y-5515352D01*
X4040675Y-2360962D02*
X4040670Y-2360987D01*
X6742092Y-5729926D02*
X6742067Y-5729930D01*
X6375395Y-7161406D02*
X6374564Y-7156618D01*
X2457295Y-5534779D02*
X2461736Y-5536749D01*
X6754604Y-9053868D02*
X6754629Y-9053870D01*
X3800218Y-5812146D02*
X3800203Y-5812125D01*
X4046382Y-2338929D02*
X4046374Y-2338953D01*
X4037730Y-5908429D02*
X4037129Y-5916324D01*
X5050938Y-5597504D02*
X5052233Y-5602186D01*
X2902885Y-9055775D02*
X2907708Y-9055181D01*
X3856173Y-7201070D02*
X3853376Y-7197097D01*
X2504313Y-2151995D02*
X2501713Y-2156100D01*
X8778686Y-5739448D02*
X8778662Y-5739440D01*
X3820063Y-5407422D02*
X3820073Y-5407399D01*
X2827907Y-9111374D02*
X2830092Y-9107033D01*
X1536597Y-5812125D02*
X1536582Y-5812146D01*
X1501183Y-5905935D02*
X1500932Y-5908404D01*
X5045693Y-5670826D02*
X5043508Y-5675166D01*
X4140840Y-5502844D02*
X4140862Y-5502856D01*
X4057826Y-8944002D02*
X4061344Y-8950738D01*
X2820303Y-5606990D02*
X2821368Y-5602248D01*
X1525761Y-5425530D02*
X1525773Y-5425552D01*
X6373271Y-8865876D02*
X6373272Y-8865857D01*
X3836574Y-5918511D02*
X3836449Y-5916032D01*
X3749996Y-5492250D02*
X3750017Y-5492236D01*
X1500072Y-9255446D02*
X1500056Y-9255492D01*
X4036800Y-8854164D02*
X4036800Y-8854177D01*
X8719600Y-5727657D02*
X8719581Y-5727656D01*
X2474401Y-9238115D02*
X2470296Y-9240715D01*
X2858432Y-5546783D02*
X2862405Y-5543985D01*
X3752054Y-9018218D02*
X3752075Y-9018203D01*
X2517328Y-2084474D02*
X2517923Y-2089296D01*
X4062561Y-5425530D02*
X4062573Y-5425552D01*
X7591523Y-9165504D02*
X7590928Y-9170326D01*
X1504380Y-5885906D02*
X1504375Y-5885931D01*
X3678294Y-5523020D02*
X3685696Y-5521302D01*
X1500006Y-9255781D02*
X1500000Y-9256003D01*
X6521377Y-7552791D02*
X6525605Y-7555187D01*
X6582431Y-5868721D02*
X6582424Y-5868745D01*
X4129971Y-9023845D02*
X4132077Y-9025158D01*
X5355320Y-9160658D02*
X5355200Y-9155788D01*
X3685696Y-5733498D02*
X3678294Y-5731780D01*
X5053297Y-5647810D02*
X5052232Y-5652552D01*
X2506712Y-5579575D02*
X2508896Y-5583915D01*
X5403297Y-5713471D02*
X5399192Y-5710871D01*
X1593149Y-9023832D02*
X1593171Y-9023845D01*
X6554264Y-7201078D02*
X6551274Y-7204908D01*
X8901569Y-5868721D02*
X8900826Y-5866353D01*
X4011263Y-4046219D02*
X4014437Y-4049899D01*
X6215069Y-5523025D02*
X6215094Y-5523020D01*
X8771471Y-9045218D02*
X8778662Y-9042760D01*
X6286796Y-9019650D02*
X6286817Y-9019636D01*
X5407524Y-5715866D02*
X5403297Y-5713471D01*
X1542645Y-8978203D02*
X1547448Y-8984093D01*
X3789336Y-8984112D02*
X3789352Y-8984093D01*
X6610182Y-5812146D02*
X6608764Y-5814183D01*
X6594626Y-5838198D02*
X6594614Y-5838221D01*
X1500091Y-1999400D02*
X1500112Y-1999444D01*
X3911637Y-7238132D02*
X3906954Y-7236836D01*
X1516727Y-5847401D02*
X1515748Y-5849682D01*
X6232255Y-5736224D02*
X6224948Y-5734133D01*
X1660962Y-5731275D02*
X1658531Y-5731775D01*
X2461719Y-5717993D02*
X2457276Y-5719962D01*
X6347827Y-5425552D02*
X6347839Y-5425530D01*
X6712529Y-5736982D02*
X6705338Y-5739440D01*
X4984928Y-5723235D02*
X4980244Y-5724530D01*
X2835085Y-9210801D02*
X2832485Y-9206696D01*
X3966646Y-7545364D02*
X3971260Y-7546888D01*
X1502150Y-2370946D02*
X1502146Y-2370971D01*
X3835868Y-8873796D02*
X3835870Y-8873770D01*
X2884038Y-2194370D02*
X2879505Y-2192621D01*
X4998528Y-9245295D02*
X4994086Y-9247264D01*
X1568804Y-5478319D02*
X1570688Y-5479936D01*
X4975525Y-5529144D02*
X4980266Y-5530209D01*
X3837170Y-7151795D02*
X3836813Y-7146949D01*
X6590327Y-8934799D02*
X6590337Y-8934822D01*
X1549098Y-8986015D02*
X1554192Y-8991653D01*
X2818400Y-2099012D02*
X2818519Y-2094142D01*
X1502526Y-5895892D02*
X1502150Y-5898346D01*
X5366888Y-5675225D02*
X5364704Y-5670885D01*
X4038946Y-2370971D02*
X4037986Y-2378510D01*
X8739454Y-5729550D02*
X8739429Y-5729546D01*
X6371074Y-2368492D02*
X6371070Y-2368467D01*
X4041180Y-5368894D02*
X4042898Y-5376296D01*
X8910124Y-8864948D02*
X8910126Y-8864910D01*
X5444484Y-2199682D02*
X5439662Y-2199087D01*
X4037730Y-2381030D02*
X4037129Y-2388924D01*
X4020224Y-7585103D02*
X4022824Y-7589209D01*
X2821367Y-9179855D02*
X2820302Y-9175114D01*
X2835087Y-5571300D02*
X2837886Y-5567327D01*
X2508893Y-2143426D02*
X2506708Y-2147767D01*
X1576597Y-2242645D02*
X1570707Y-2247448D01*
X6352586Y-5416579D02*
X6353679Y-5414351D01*
X3836471Y-5338476D02*
X3836472Y-5338457D01*
X1521026Y-5416602D02*
X1524544Y-5423338D01*
X4187879Y-5521296D02*
X4187903Y-5521302D01*
X5377672Y-9218605D02*
X5374683Y-9214774D01*
X4062573Y-8952952D02*
X4066428Y-8959501D01*
X6562057Y-7188773D02*
X6559662Y-7193001D01*
X2825936Y-2061114D02*
X2827905Y-2056672D01*
X4998519Y-2190594D02*
X4994076Y-2192562D01*
X1648676Y-9048074D02*
X1651079Y-9048696D01*
X6666749Y-9023832D02*
X6666771Y-9023845D01*
X6349056Y-5831462D02*
X6349044Y-5831440D01*
X2875072Y-9245295D02*
X2870732Y-9243110D01*
X4980244Y-5724530D02*
X4975503Y-5725594D01*
X6512633Y-7233565D02*
X6508100Y-7235313D01*
X2470303Y-5541329D02*
X2474408Y-5543929D01*
X2866511Y-5541386D02*
X2870740Y-5538991D01*
X2517923Y-9143937D02*
X2518280Y-9148782D01*
X3732760Y-5751956D02*
X3732737Y-5751944D01*
X5032731Y-5563439D02*
X5035720Y-5567270D01*
X6585640Y-5859138D02*
X6583182Y-5866329D01*
X4215335Y-5728583D02*
X4215335Y-5728583D01*
X3646910Y-5727674D02*
X3646000Y-5727657D01*
X4098111Y-2255937D02*
X4092737Y-2261311D01*
X7906087Y-9102805D02*
X7908687Y-9098700D01*
X3834274Y-8886308D02*
X3834650Y-8883854D01*
X4037076Y-2389852D02*
X4037074Y-2389890D01*
X8897490Y-8925414D02*
X8898352Y-8923086D01*
X5054128Y-2115622D02*
X5053297Y-2120410D01*
X3815774Y-5838198D02*
X3812256Y-5831462D01*
X3716799Y-2216727D02*
X3714518Y-2215748D01*
X4187879Y-5733504D02*
X4185476Y-5734126D01*
X6574532Y-8873796D02*
X6574783Y-8876265D01*
X1502526Y-5358908D02*
X1502530Y-5358933D01*
X8790422Y-5744137D02*
X8790399Y-5744127D01*
X3838554Y-4093379D02*
X3839619Y-4088638D01*
X5049414Y-9120290D02*
X5050938Y-9124904D01*
X4225407Y-5727753D02*
X4217830Y-5728330D01*
X4048840Y-5395662D02*
X4048848Y-5395686D01*
X1521014Y-5838221D02*
X1519921Y-5840449D01*
X8759296Y-5733498D02*
X8751894Y-5731780D01*
X2835082Y-5683558D02*
X2832483Y-5679453D01*
X3668307Y-5524874D02*
X3668332Y-5524870D01*
X6675448Y-5753173D02*
X6668899Y-5757028D01*
X3760203Y-5770045D02*
X3760183Y-5770030D01*
X3835617Y-8876265D02*
X3835868Y-8873796D01*
X3824760Y-5395662D02*
X3827218Y-5388471D01*
X1525761Y-2301870D02*
X1524556Y-2304040D01*
X2825937Y-9115817D02*
X2827907Y-9111374D01*
X1504375Y-8896269D02*
X1504380Y-8896294D01*
X6338450Y-5440596D02*
X6342632Y-5434251D01*
X5391401Y-5549773D02*
X5395232Y-5546783D01*
X3723728Y-2219910D02*
X3716822Y-2216737D01*
X3836449Y-2388632D02*
X3836447Y-2388607D01*
X6296983Y-5484770D02*
X6297003Y-5484755D01*
X5425462Y-9250537D02*
X5420848Y-9249013D01*
X6573857Y-5918219D02*
X6573750Y-7142096D01*
X6472463Y-7541100D02*
X6474694Y-7541100D01*
X8781038Y-9041880D02*
X8788095Y-9039061D01*
X4217830Y-5728330D02*
X4217804Y-5728332D01*
X5054723Y-2110799D02*
X5054128Y-2115622D01*
X3795705Y-5448800D02*
X3800203Y-5442675D01*
X2818877Y-5616601D02*
X2819472Y-5611778D01*
X3801650Y-8967996D02*
X3805832Y-8961651D01*
X6312271Y-8998880D02*
X6312289Y-8998863D01*
X6364026Y-8915847D02*
X6364769Y-8913479D01*
X8910328Y-9754154D02*
X8910344Y-9754108D01*
X8910143Y-8864000D02*
X8910143Y-8863981D01*
X8898360Y-8923062D02*
X8900818Y-8915871D01*
X7590098Y-9134327D02*
X7590928Y-9139114D01*
X6574783Y-8876265D02*
X6574786Y-8876290D01*
X8841595Y-9005719D02*
X8841615Y-9005702D01*
X6537514Y-7563574D02*
X6541193Y-7566749D01*
X4037057Y-5918200D02*
X4037057Y-5918219D01*
X6319408Y-8991653D02*
X6324502Y-8986015D01*
X6373247Y-5916007D02*
X6372670Y-5908429D01*
X5041115Y-9206696D02*
X5038515Y-9210801D01*
X3658265Y-5728583D02*
X3655796Y-5728332D01*
X2870740Y-5538991D02*
X2875081Y-5536806D01*
X2424245Y-2199976D02*
X2419375Y-2200095D01*
X6373600Y-2400623D02*
X6373584Y-2399377D01*
X6462747Y-7541577D02*
X6467593Y-7541219D01*
X5358167Y-9179855D02*
X5357103Y-9175114D01*
X1500112Y-9255356D02*
X1500091Y-9255400D01*
X3636176Y-5527400D02*
X3637424Y-5527384D01*
X6222496Y-5733498D02*
X6215094Y-5731780D01*
X3830073Y-5378724D02*
X3830696Y-5376321D01*
X1500981Y-1999994D02*
X1501203Y-2000000D01*
X2847401Y-5556297D02*
X2850921Y-5552947D01*
X2907684Y-2199682D02*
X2902862Y-2199087D01*
X4029372Y-7602220D02*
X4031121Y-7606754D01*
X3767995Y-5776481D02*
X3766112Y-5774864D01*
X4007912Y-7570100D02*
X4011263Y-7573619D01*
X6361560Y-8923062D02*
X6364018Y-8915871D01*
X2478374Y-9235317D02*
X2474401Y-9238115D01*
X6548063Y-7573619D02*
X6551237Y-7577299D01*
X6296983Y-9012170D02*
X6297003Y-9012155D01*
X6310453Y-5473208D02*
X6310472Y-5473191D01*
X1529642Y-2295277D02*
X1529628Y-2295299D01*
X8884639Y-5829270D02*
X8884627Y-5829248D01*
X3732737Y-9030256D02*
X3732760Y-9030244D01*
X1500786Y-1500030D02*
X1500739Y-1500042D01*
X4197787Y-5731270D02*
X4197762Y-5731275D01*
X6489275Y-7240028D02*
X6484453Y-7240623D01*
X6371074Y-5895892D02*
X6371070Y-5895867D01*
X1500248Y-1999648D02*
X1500281Y-1999684D01*
X1631714Y-9042752D02*
X1631738Y-9042760D01*
X8909800Y-9754709D02*
X8909844Y-9754688D01*
X4046374Y-2338953D02*
X4045631Y-2341321D01*
X3837764Y-7156618D02*
X3837170Y-7151795D01*
X8906525Y-8893838D02*
X8906529Y-8893813D01*
X5035714Y-2160073D02*
X5032724Y-2163904D01*
X3760203Y-9012155D02*
X3766093Y-9007352D01*
X7917650Y-9087216D02*
X7921001Y-9083697D01*
X3794154Y-5803997D02*
X3789352Y-5798107D01*
X2844050Y-5559816D02*
X2847401Y-5556297D01*
X1688924Y-9054471D02*
X1688943Y-9054473D01*
X8900818Y-8915871D02*
X8900826Y-8915847D01*
X6269560Y-5502844D02*
X6271730Y-5501639D01*
X7953114Y-9247264D02*
X7948672Y-9245295D01*
X3789352Y-5456693D02*
X3794154Y-5450803D01*
X5022684Y-9229154D02*
X5019005Y-9232328D01*
X2888662Y-9250537D02*
X2884048Y-9249013D01*
X8909930Y-9754639D02*
X8909970Y-9754612D01*
X4113397Y-5484755D02*
X4113417Y-5484770D01*
X1506104Y-5376321D02*
X1506726Y-5378724D01*
X4073382Y-8970054D02*
X4073397Y-8970075D01*
X6443714Y-7545363D02*
X6448397Y-7544067D01*
X1516737Y-2319978D02*
X1516727Y-2320001D01*
X6705314Y-9042752D02*
X6705338Y-9042760D01*
X1512919Y-5398038D02*
X1515738Y-5405095D01*
X3832929Y-2360987D02*
X3832925Y-2360962D01*
X2452762Y-5533030D02*
X2457295Y-5534779D01*
X8761748Y-9048067D02*
X8769055Y-9045976D01*
X3930836Y-7240980D02*
X3925990Y-7240623D01*
X6702962Y-9041880D02*
X6702986Y-9041890D01*
X4049710Y-8925414D02*
X4049719Y-8925438D01*
X8880758Y-5822677D02*
X8879445Y-5820571D01*
X1570707Y-5774848D02*
X1570688Y-5774864D01*
X4998519Y-5717993D02*
X4994076Y-5719962D01*
X4056710Y-5840472D02*
X4053537Y-5847378D01*
X8910370Y-9255586D02*
X8910358Y-9255539D01*
X1506098Y-2351104D02*
X1504380Y-2358506D01*
X6182800Y-2200257D02*
X6182781Y-2200257D01*
X4084248Y-8984093D02*
X4084264Y-8984112D01*
X4989552Y-2005787D02*
X4994086Y-2007536D01*
X3758220Y-5486290D02*
X3760183Y-5484770D01*
X1500276Y-2389852D02*
X1500274Y-2389890D01*
X1509582Y-8915871D02*
X1512040Y-8923062D01*
X1501186Y-2378510D02*
X1501183Y-2378535D01*
X1678535Y-5526217D02*
X1681004Y-5526468D01*
X6666771Y-9023845D02*
X6668877Y-9025158D01*
X6752110Y-9053614D02*
X6752135Y-9053617D01*
X6369729Y-2360987D02*
X6369725Y-2360962D01*
X3821061Y-2322305D02*
X3821052Y-2322282D01*
X1502146Y-8883829D02*
X1502150Y-8883854D01*
X5029558Y-5559760D02*
X5032731Y-5563439D01*
X5007096Y-9240715D02*
X5002868Y-9243110D01*
X5439674Y-2001072D02*
X5444496Y-2000477D01*
X6202629Y-2202146D02*
X6195090Y-2201186D01*
X4989542Y-5721711D02*
X4984928Y-5723235D01*
X4043533Y-5876051D02*
X4043526Y-5876076D01*
X3801650Y-5814204D02*
X3801636Y-5814183D01*
X8904296Y-8903721D02*
X8904302Y-8903696D01*
X2518400Y-2101083D02*
X2518280Y-2105953D01*
X3832425Y-2358531D02*
X3832420Y-2358506D01*
X4227619Y-5527143D02*
X4956201Y-5527239D01*
X6269537Y-5502856D02*
X6269560Y-5502844D01*
X6295020Y-9013690D02*
X6296983Y-9012170D01*
X4049710Y-5856786D02*
X4048848Y-5859114D01*
X1619978Y-5744137D02*
X1613072Y-5747310D01*
X3636163Y-9054800D02*
X3636176Y-9054800D01*
X6508060Y-7546888D02*
X6512594Y-7548637D01*
X1601870Y-9029039D02*
X1604040Y-9030244D01*
X1530968Y-5820549D02*
X1530955Y-5820571D01*
X6253622Y-2216737D02*
X6253599Y-2216727D01*
X1501203Y-1500000D02*
X1500981Y-1500006D01*
X6590327Y-5847401D02*
X6589348Y-5849682D01*
X8862952Y-8984093D02*
X8867755Y-8978203D01*
X4175729Y-9045218D02*
X4175753Y-9045226D01*
X6326152Y-2270707D02*
X6326136Y-2270688D01*
X1601870Y-5501639D02*
X1604040Y-5502844D01*
X1555937Y-8993489D02*
X1561311Y-8998863D01*
X2888652Y-2195894D02*
X2884038Y-2194370D01*
X3655770Y-2200930D02*
X3647875Y-2200329D01*
X3893364Y-7231594D02*
X3889023Y-7229409D01*
X7497858Y-9254680D02*
X7492988Y-9254800D01*
X6586519Y-5856762D02*
X6586510Y-5856786D01*
X3820073Y-5407399D02*
X3821052Y-5405118D01*
X6184675Y-2200329D02*
X6184657Y-2200327D01*
X4105585Y-5478302D02*
X4105604Y-5478319D01*
X2466060Y-2188409D02*
X2461719Y-2190594D01*
X4057826Y-2310798D02*
X4057814Y-2310821D01*
X6317680Y-5466071D02*
X6319391Y-5464272D01*
X5007089Y-5713414D02*
X5002860Y-5715809D01*
X5011201Y-9238115D02*
X5007096Y-9240715D01*
X6742067Y-9052270D02*
X6742092Y-9052274D01*
X3812244Y-2304040D02*
X3811039Y-2301870D01*
X8909517Y-9254813D02*
X8909468Y-9254808D01*
X8833783Y-5770030D02*
X8831820Y-5768510D01*
X7892000Y-9153717D02*
X7892119Y-9148847D01*
X7584465Y-9115757D02*
X7586213Y-9120290D01*
X6364769Y-5386079D02*
X6364776Y-5386055D01*
X3768014Y-5776498D02*
X3767995Y-5776481D01*
X3834650Y-2370946D02*
X3834274Y-2368492D01*
X3758200Y-5768495D02*
X3752075Y-5763997D01*
X2424258Y-2000119D02*
X2429104Y-2000477D01*
X6373271Y-5338476D02*
X6373272Y-5338457D01*
X2821368Y-9129648D02*
X2822664Y-9124965D01*
X4020262Y-3669706D02*
X4017464Y-3673678D01*
X4036430Y-4103004D02*
X4036787Y-4107851D01*
X3975833Y-7233565D02*
X3971300Y-7235313D01*
X6342645Y-5434229D02*
X6343958Y-5432123D01*
X1555919Y-5788729D02*
X1554209Y-5790528D01*
X5019010Y-5549716D02*
X5022689Y-5552890D01*
X6253622Y-5510663D02*
X6260528Y-5507490D01*
X3780863Y-2261311D02*
X3775489Y-2255937D01*
X6541231Y-7215457D02*
X6537551Y-7218630D01*
X4025257Y-7188773D02*
X4022862Y-7193001D01*
X8910183Y-9754410D02*
X8910212Y-9754370D01*
X8910152Y-9754448D02*
X8910183Y-9754410D01*
X6304795Y-9005719D02*
X6304814Y-9005702D01*
X1515748Y-5405118D02*
X1516727Y-5407399D01*
X6375354Y-7620779D02*
X6376419Y-7616038D01*
X3780880Y-5466071D02*
X3782591Y-5464272D01*
X8910183Y-9255190D02*
X8910152Y-9255152D01*
X8815123Y-9025158D02*
X8817229Y-9023845D01*
X8910073Y-8865857D02*
X8910124Y-8864948D01*
X3836800Y-2400636D02*
X3836800Y-2400623D01*
X1500281Y-1999684D02*
X1500316Y-1999719D01*
X1506726Y-5378724D02*
X1506733Y-5378748D01*
X1500600Y-1999909D02*
X1500645Y-1999927D01*
X5434886Y-9252897D02*
X5430145Y-9251833D01*
X1699363Y-2200016D02*
X1691136Y-2200225D01*
X8825654Y-5763982D02*
X8823617Y-5762564D01*
X6312289Y-8998863D02*
X6317663Y-8993489D01*
X2438714Y-9252897D02*
X2433926Y-9253728D01*
X3834270Y-5895867D02*
X3832929Y-5888387D01*
X6399099Y-7573612D02*
X6402450Y-7570093D01*
X4970738Y-5528313D02*
X4975525Y-5529144D01*
X6533683Y-7560585D02*
X6537514Y-7563574D01*
X8839712Y-9007336D02*
X8841595Y-9005719D01*
X7893072Y-9139178D02*
X7893903Y-9134390D01*
X4053527Y-8934799D02*
X4053537Y-8934822D01*
X2443444Y-5724530D02*
X2438703Y-5725594D01*
X3714518Y-5743148D02*
X3714495Y-5743138D01*
X3807158Y-5432123D02*
X3807171Y-5432101D01*
X2907708Y-9055181D02*
X2912555Y-9054824D01*
X3824752Y-2331714D02*
X3823889Y-2329386D01*
X4071950Y-5814204D02*
X4067768Y-5820549D01*
X4107488Y-5774864D02*
X4105604Y-5776481D01*
X4061344Y-5423338D02*
X4061356Y-5423360D01*
X6544750Y-7212106D02*
X6541231Y-7215457D01*
X6373570Y-7635234D02*
X6373928Y-7630388D01*
X6377755Y-7170831D02*
X6376459Y-7166148D01*
X1502530Y-5358933D02*
X1503870Y-5366413D01*
X3789352Y-5798107D02*
X3789336Y-5798088D01*
X1500072Y-9754154D02*
X1500091Y-9754200D01*
X3805832Y-5820549D02*
X3801650Y-5814204D01*
X3782591Y-8991672D02*
X3782608Y-8991653D01*
X4994076Y-5719962D02*
X4989542Y-5721711D01*
X1570688Y-2247464D02*
X1568804Y-2249081D01*
X1508824Y-5868745D02*
X1506733Y-5876051D01*
X6312289Y-2255937D02*
X6312271Y-2255920D01*
X4156801Y-9038073D02*
X4159082Y-9039052D01*
X1688632Y-2200351D02*
X1688607Y-2200353D01*
X2433938Y-9055713D02*
X2438725Y-9056544D01*
X3811027Y-5425552D02*
X3811039Y-5425530D01*
X8910288Y-9255356D02*
X8910265Y-9255313D01*
X5038518Y-5571242D02*
X5041117Y-5575347D01*
X6381027Y-7179979D02*
X6379279Y-7175446D01*
X6702962Y-5740319D02*
X6695905Y-5743138D01*
X3836524Y-5337548D02*
X3836526Y-5337510D01*
X6373494Y-7142079D02*
X6373600Y-5928035D01*
X4998536Y-9064149D02*
X5002876Y-9066334D01*
X4149849Y-5507479D02*
X4149872Y-5507490D01*
X6573874Y-5917290D02*
X6573857Y-5918200D01*
X6317680Y-5788729D02*
X6317663Y-5788711D01*
X1638929Y-9045218D02*
X1638953Y-9045226D01*
X6525605Y-7555187D02*
X6529710Y-7557786D01*
X4031160Y-3648058D02*
X4029411Y-3652591D01*
X5449330Y-2200040D02*
X5444484Y-2199682D01*
X4147598Y-2221026D02*
X4140862Y-2224544D01*
X5366890Y-2052332D02*
X5369285Y-2048104D01*
X6392973Y-7201070D02*
X6390176Y-7197097D01*
X2506708Y-2147767D02*
X2504313Y-2151995D01*
X6572677Y-7156634D02*
X6571846Y-7161421D01*
X1631738Y-9042760D02*
X1638929Y-9045218D01*
X5022679Y-2174453D02*
X5018999Y-2177627D01*
X4046382Y-5388471D02*
X4048840Y-5395662D01*
X3921125Y-7542172D02*
X3925947Y-7541577D01*
X4017426Y-4053730D02*
X4020224Y-4057703D01*
X3768014Y-9005702D02*
X3773653Y-9000608D01*
X3827218Y-5866329D02*
X3824760Y-5859138D01*
X6182800Y-5727657D02*
X6182781Y-5727656D01*
X4041180Y-2358506D02*
X4041175Y-2358531D01*
X2854589Y-5705084D02*
X2850911Y-5701910D01*
X2466068Y-9243110D02*
X2461728Y-9245295D01*
X1535164Y-2286783D02*
X1535150Y-2286804D01*
X6668899Y-5757028D02*
X6668877Y-5757042D01*
X4092737Y-8993489D02*
X4098111Y-8998863D01*
X6666771Y-5758355D02*
X6666749Y-5758368D01*
X8901576Y-8913455D02*
X8903667Y-8906148D01*
X6222521Y-5733504D02*
X6222496Y-5733498D01*
X6183748Y-2200276D02*
X6183710Y-2200274D01*
X1619978Y-2216737D02*
X1613072Y-2219910D01*
X1613072Y-9034890D02*
X1619978Y-9038063D01*
X4956188Y-2000000D02*
X4956188Y-2000000D01*
X4147621Y-5748414D02*
X4147598Y-5748426D01*
X6324519Y-5458595D02*
X6326136Y-5456712D01*
X5387721Y-9080347D02*
X5391401Y-9077173D01*
X8815101Y-9025172D02*
X8815123Y-9025158D01*
X4159082Y-9039052D02*
X4159105Y-9039061D01*
X5420858Y-9060489D02*
X5425472Y-9058965D01*
X2888662Y-2004263D02*
X2893345Y-2002967D01*
X3646948Y-5727675D02*
X3646910Y-5727674D01*
X5043508Y-5675166D02*
X5041113Y-5679395D01*
X1516737Y-5407422D02*
X1519910Y-5414328D01*
X2884038Y-5721770D02*
X2879505Y-5720020D01*
X4225407Y-2200353D02*
X4217830Y-2200930D01*
X3876717Y-7221615D02*
X3872886Y-7218625D01*
X1524544Y-5423338D02*
X1524556Y-5423360D01*
X1622305Y-9039061D02*
X1629362Y-9041880D01*
X1604062Y-5751944D02*
X1604040Y-5751956D01*
X4079430Y-2276617D02*
X4077910Y-2278580D01*
X1688943Y-9054473D02*
X1689852Y-9054524D01*
X8910394Y-9255781D02*
X8910392Y-9255732D01*
X8721457Y-5727727D02*
X8720548Y-5727675D01*
X3782608Y-2263147D02*
X3782591Y-2263128D01*
X5420848Y-2005787D02*
X5425462Y-2004263D01*
X1503875Y-2360962D02*
X1503870Y-2360987D01*
X1678510Y-9053614D02*
X1678535Y-9053617D01*
X3705086Y-2212048D02*
X3705062Y-2212040D01*
X5355320Y-5633418D02*
X5355200Y-5628548D01*
X6714945Y-5736224D02*
X6714921Y-5736231D01*
X2858426Y-9235317D02*
X2854595Y-9232328D01*
X5356272Y-9139178D02*
X5357103Y-9134390D01*
X6574532Y-5908404D02*
X6574530Y-5908429D01*
X1570707Y-9007352D02*
X1576597Y-9012155D01*
X4123583Y-9019636D02*
X4123604Y-9019650D01*
X4056721Y-2313049D02*
X4056710Y-2313072D01*
X4107488Y-2247464D02*
X4105604Y-2249081D01*
X3824752Y-5859114D02*
X3823889Y-5856786D01*
X5053298Y-5606927D02*
X5054128Y-5611714D01*
X6621064Y-8984112D02*
X6622681Y-8985995D01*
X4205292Y-2202526D02*
X4205267Y-2202530D01*
X4041180Y-5885906D02*
X4041175Y-5885931D01*
X1512919Y-8925438D02*
X1515738Y-8932495D01*
X3741501Y-9025172D02*
X3741523Y-9025158D01*
X5355320Y-5621447D02*
X5355677Y-5616601D01*
X6722251Y-5734133D02*
X6714945Y-5736224D01*
X6684421Y-5748414D02*
X6684398Y-5748426D01*
X5045695Y-9198128D02*
X5043510Y-9202468D01*
X5054128Y-5643022D02*
X5053297Y-5647810D01*
X4149849Y-2219921D02*
X4147621Y-2221014D01*
X3767995Y-9005719D02*
X3768014Y-9005702D01*
X4037732Y-5908404D02*
X4037730Y-5908429D01*
X4038950Y-5898346D02*
X4038946Y-5898371D01*
X4027442Y-3657033D02*
X4025257Y-3661373D01*
X2510864Y-2061114D02*
X2512613Y-2065648D01*
X4035046Y-7161421D02*
X4033981Y-7166162D01*
X1500327Y-2388943D02*
X1500276Y-2389852D01*
X6324502Y-8986015D02*
X6324519Y-8985995D01*
X1500600Y-9754709D02*
X1500645Y-9754728D01*
X6364776Y-5386055D02*
X6366867Y-5378748D01*
X4121546Y-5763982D02*
X4121525Y-5763997D01*
X1651079Y-5733504D02*
X1648676Y-5734126D01*
X4071964Y-8968017D02*
X4073382Y-8970054D01*
X4207771Y-9052654D02*
X4215310Y-9053614D01*
X6205107Y-5524874D02*
X6205132Y-5524870D01*
X3800203Y-8970075D02*
X3800218Y-8970054D01*
X5362737Y-5588417D02*
X5364707Y-5583974D01*
X6205132Y-5729930D02*
X6205107Y-5729926D01*
X6573616Y-8855423D02*
X6573616Y-8855435D01*
X4168514Y-5515352D02*
X4168538Y-5515360D01*
X4115380Y-9013690D02*
X4115400Y-9013705D01*
X1689890Y-5527126D02*
X1690800Y-5527143D01*
X6182781Y-2200257D02*
X5454199Y-2200161D01*
X3836574Y-2391111D02*
X3836449Y-2388632D01*
X5425472Y-5531565D02*
X5430156Y-5530270D01*
X3812244Y-5423360D02*
X3812256Y-5423338D01*
X6195065Y-5728583D02*
X6192596Y-5728332D01*
X4035005Y-7620793D02*
X4035835Y-7625581D01*
X6262802Y-9033774D02*
X6269537Y-9030256D01*
X4105604Y-2249081D02*
X4105585Y-2249098D01*
X5384197Y-2028997D02*
X5387716Y-2025646D01*
X4040670Y-8893813D02*
X4040675Y-8893838D01*
X3775489Y-8998863D02*
X3780863Y-8993489D01*
X4062561Y-2301870D02*
X4061356Y-2304040D01*
X5444484Y-5727082D02*
X5439662Y-5726487D01*
X6260550Y-5507479D02*
X6262779Y-5506386D01*
X4138648Y-5753173D02*
X4132099Y-5757028D01*
X4178121Y-2208831D02*
X4175753Y-2209574D01*
X3743650Y-2230968D02*
X3743629Y-2230955D01*
X4115380Y-2241110D02*
X4113417Y-2242630D01*
X1500883Y-1500013D02*
X1500834Y-1500020D01*
X4147621Y-2221014D02*
X4147598Y-2221026D01*
X8831800Y-5768495D02*
X8825675Y-5763997D01*
X4039330Y-5895867D02*
X4039326Y-5895892D01*
X1525761Y-8952930D02*
X1525773Y-8952952D01*
X4185476Y-9048074D02*
X4187879Y-9048696D01*
X5055080Y-2094142D02*
X5055200Y-2099012D01*
X3859163Y-7204901D02*
X3856173Y-7201070D01*
X6192596Y-5728332D02*
X6192570Y-5728330D01*
X2443466Y-9057609D02*
X2448148Y-9058906D01*
X6577475Y-8893838D02*
X6577975Y-8896269D01*
X3805845Y-2293171D02*
X3805832Y-2293149D01*
X1536582Y-8970054D02*
X1536597Y-8970075D01*
X3646000Y-5727657D02*
X3645981Y-5727656D01*
X8833783Y-9012170D02*
X8833803Y-9012155D01*
X4965891Y-5727019D02*
X4961045Y-5727376D01*
X6521415Y-7229411D02*
X6517075Y-7231596D01*
X2506710Y-9202468D02*
X2504315Y-9206696D01*
X1578600Y-5768495D02*
X1578580Y-5768510D01*
X8910328Y-9255446D02*
X8910309Y-9255400D01*
X4022862Y-7193001D02*
X4020262Y-7197106D01*
X3844227Y-3652579D02*
X3842479Y-3648046D01*
X7944340Y-9066391D02*
X7948681Y-9064206D01*
X3836770Y-4107834D02*
X3837128Y-4102988D01*
X2438714Y-2001902D02*
X2443455Y-2002967D01*
X3925990Y-3713223D02*
X3921167Y-3712628D01*
X4227911Y-5727625D02*
X4225432Y-5727751D01*
X8909197Y-9754800D02*
X8909419Y-9754794D01*
X1561311Y-5783337D02*
X1555937Y-5788711D01*
X3645981Y-2200257D02*
X2917399Y-2200161D01*
X8903674Y-5876076D02*
X8903667Y-5876051D01*
X3935706Y-3713700D02*
X3930836Y-3713580D01*
X8831800Y-9013705D02*
X8831820Y-9013690D01*
X1509574Y-8915847D02*
X1509582Y-8915871D01*
X3752054Y-5763982D02*
X3750017Y-5762564D01*
X5395232Y-5546783D02*
X5399205Y-5543985D01*
X2870732Y-2011690D02*
X2875072Y-2009505D01*
X4975503Y-5725594D02*
X4970715Y-5726425D01*
X4099928Y-5781609D02*
X4098129Y-5783319D01*
X6382958Y-7597766D02*
X6385143Y-7593427D01*
X1593171Y-5758355D02*
X1593149Y-5758368D01*
X6580333Y-8906148D02*
X6582424Y-8913455D01*
X3897767Y-7548635D02*
X3902300Y-7546887D01*
X8910265Y-9255313D02*
X8910239Y-9255270D01*
X4036906Y-4112721D02*
X4036800Y-5326764D01*
X8910400Y-9256027D02*
X8910400Y-9256003D01*
X5380842Y-5695040D02*
X5377669Y-5691361D01*
X2510863Y-2138983D02*
X2508893Y-2143426D01*
X2485884Y-2025646D02*
X2489403Y-2028997D01*
X6278323Y-5757042D02*
X6278301Y-5757028D01*
X6332505Y-5448800D02*
X6337003Y-5442675D01*
X3824752Y-5395686D02*
X3824760Y-5395662D01*
X4205292Y-5729926D02*
X4205267Y-5729930D01*
X4057814Y-8943979D02*
X4057826Y-8944002D01*
X6192570Y-9053870D02*
X6192596Y-9053868D01*
X2840868Y-5691361D02*
X2837879Y-5687530D01*
X1610821Y-9033786D02*
X1613049Y-9034879D01*
X5359463Y-2070262D02*
X5360987Y-2065648D01*
X3836813Y-7146949D02*
X3836694Y-7142079D01*
X1691111Y-5727625D02*
X1688632Y-5727751D01*
X4043533Y-2348652D02*
X4043526Y-2348676D01*
X4217804Y-5526468D02*
X4217830Y-5526470D01*
X1578580Y-9013690D02*
X1578600Y-9013705D01*
X3655796Y-5728332D02*
X3655770Y-5728330D01*
X1678535Y-5728583D02*
X1678510Y-5728586D01*
X1500556Y-9254912D02*
X1500512Y-9254935D01*
X5362736Y-9193686D02*
X5360987Y-9189152D01*
X6288875Y-2236597D02*
X6288854Y-2236582D01*
X6392936Y-7581122D02*
X6395926Y-7577291D01*
X8759321Y-9048696D02*
X8761724Y-9048074D01*
X4038950Y-2370946D02*
X4038946Y-2370971D01*
X4035835Y-4098181D02*
X4036430Y-4103004D01*
X5362736Y-2061114D02*
X5364705Y-2056672D01*
X3675813Y-5523529D02*
X3675838Y-5523525D01*
X5050936Y-5657235D02*
X5049412Y-5661849D01*
X7976474Y-9253728D02*
X7971686Y-9252897D01*
X4067768Y-5820549D02*
X4067755Y-5820571D01*
X1519921Y-8941751D02*
X1521014Y-8943979D01*
X5055200Y-5628482D02*
X5055080Y-5633353D01*
X3801650Y-2286804D02*
X3801636Y-2286783D01*
X4178145Y-5736224D02*
X4178121Y-5736231D01*
X1586783Y-9019636D02*
X1586804Y-9019650D01*
X6373584Y-2399377D02*
X6373584Y-2399365D01*
X6686649Y-5747321D02*
X6684421Y-5748414D01*
X6457967Y-7240028D02*
X6453179Y-7239197D01*
X6443754Y-7236836D02*
X6439140Y-7235312D01*
X4989562Y-5533030D02*
X4994095Y-5534779D01*
X8890479Y-8941751D02*
X8890490Y-8941728D01*
X2870732Y-9243110D02*
X2866504Y-9240715D01*
X7944332Y-9243110D02*
X7940104Y-9240715D01*
X2832483Y-5679453D02*
X2830088Y-5675225D01*
X6525643Y-7227016D02*
X6521415Y-7229411D01*
X1638953Y-5736974D02*
X1638929Y-5736982D01*
X3800203Y-2284725D02*
X3795705Y-2278600D01*
X7962262Y-9250537D02*
X7957648Y-9249013D01*
X4048840Y-5859138D02*
X4046382Y-5866329D01*
X3844189Y-7602208D02*
X3846158Y-7597766D01*
X1500008Y-9753868D02*
X1500013Y-9753917D01*
X3856136Y-7581122D02*
X3859126Y-7577291D01*
X3697847Y-2209574D02*
X3695479Y-2208831D01*
X2822663Y-9184538D02*
X2821367Y-9179855D01*
X3921167Y-3712628D02*
X3916379Y-3711797D01*
X2827905Y-9198128D02*
X2825936Y-9193686D01*
X5384197Y-9225803D02*
X5380846Y-9222284D01*
X5055080Y-9160658D02*
X5054723Y-9165504D01*
X1584746Y-5763982D02*
X1584725Y-5763997D01*
X4961070Y-9054760D02*
X4965916Y-9055118D01*
X4197762Y-5731275D02*
X4195331Y-5731775D01*
X6677640Y-9030244D02*
X6677662Y-9030256D01*
X6312289Y-5783337D02*
X6312271Y-5783319D01*
X2501718Y-9098642D02*
X2504317Y-9102747D01*
X3834270Y-2368467D02*
X3832929Y-2360987D01*
X6629519Y-8993471D02*
X6629537Y-8993489D01*
X4129971Y-5496445D02*
X4132077Y-5497758D01*
X6215069Y-2204375D02*
X6212638Y-2203875D01*
X3734952Y-9029027D02*
X3741501Y-9025172D01*
X5049414Y-5592890D02*
X5050938Y-5597504D01*
X6332490Y-5805980D02*
X6330970Y-5804017D01*
X5377676Y-5563496D02*
X5380850Y-5559816D01*
X1501186Y-5348890D02*
X1502146Y-5356429D01*
X3658265Y-9053617D02*
X3658290Y-9053614D01*
X6616230Y-5804017D02*
X6614710Y-5805980D01*
X1641345Y-2208824D02*
X1641321Y-2208831D01*
X1619978Y-5510663D02*
X1620001Y-5510673D01*
X4079430Y-8978183D02*
X4079445Y-8978203D01*
X1586783Y-5762564D02*
X1584746Y-5763982D01*
X2832483Y-2152053D02*
X2830088Y-2147825D01*
X3980236Y-7550606D02*
X3984577Y-7552791D01*
X1620001Y-5510673D02*
X1622282Y-5511652D01*
X6337018Y-5812146D02*
X6337003Y-5812125D01*
X1563147Y-2254192D02*
X1563128Y-2254209D01*
X1500786Y-9254830D02*
X1500739Y-9254842D01*
X6288854Y-9018218D02*
X6288875Y-9018203D01*
X6280450Y-5758368D02*
X6280429Y-5758355D01*
X2474401Y-2016685D02*
X2478374Y-2019483D01*
X6357852Y-5405118D02*
X6357861Y-5405095D01*
X2898086Y-9252897D02*
X2893345Y-9251833D01*
X3794170Y-5450783D02*
X3795690Y-5448820D01*
X6310453Y-9000608D02*
X6310472Y-9000591D01*
X1524544Y-2304062D02*
X1521026Y-2310798D01*
X4984948Y-9058906D02*
X4989562Y-9060430D01*
X2902862Y-2199087D02*
X2898075Y-2198256D01*
X5454225Y-5527305D02*
X6172963Y-5527400D01*
X1530955Y-5434229D02*
X1530968Y-5434251D01*
X5371885Y-9210801D02*
X5369285Y-9206696D01*
X5356272Y-2115686D02*
X5355677Y-2110863D01*
X1691136Y-5727625D02*
X1691111Y-5727625D01*
X4057814Y-5838221D02*
X4056721Y-5840449D01*
X6352586Y-5838221D02*
X6352574Y-5838198D01*
X3834654Y-5356429D02*
X3835614Y-5348890D01*
X3705086Y-5739448D02*
X3705062Y-5739440D01*
X3647857Y-5727727D02*
X3646948Y-5727675D01*
X8910143Y-8863981D02*
X8910400Y-5928035D01*
X6172963Y-9054800D02*
X6172976Y-9054800D01*
X6579698Y-8903696D02*
X6579704Y-8903721D01*
X3773653Y-5781592D02*
X3768014Y-5776498D01*
X4037025Y-8863663D02*
X4037025Y-8863689D01*
X6338436Y-5440617D02*
X6338450Y-5440596D01*
X5355677Y-9165504D02*
X5355320Y-9160658D01*
X4062573Y-5425552D02*
X4066428Y-5432101D01*
X6310453Y-2254192D02*
X6304814Y-2249098D01*
X1500316Y-1500281D02*
X1500281Y-1500316D01*
X4037025Y-5336263D02*
X4037025Y-5336289D01*
X1500430Y-1999812D02*
X1500470Y-1999839D01*
X4207771Y-5525254D02*
X4215310Y-5526214D01*
X6184657Y-5727727D02*
X6183748Y-5727675D01*
X4036906Y-7640121D02*
X4036800Y-8854164D01*
X5369287Y-5575405D02*
X5371887Y-5571300D01*
X4041175Y-2358531D02*
X4040675Y-2360962D01*
X1500006Y-1500981D02*
X1500000Y-1501203D01*
X4046374Y-5866353D02*
X4045631Y-5868721D01*
X1670946Y-2202150D02*
X1668492Y-2202526D01*
X3992910Y-4030386D02*
X3996883Y-4033185D01*
X6421595Y-7227013D02*
X6417490Y-7224413D01*
X3837764Y-3629218D02*
X3837170Y-3624395D01*
X6660383Y-9019636D02*
X6660404Y-9019650D01*
X3752054Y-2236582D02*
X3750017Y-2235164D01*
X1610821Y-5506386D02*
X1613049Y-5507479D01*
X3996921Y-3694219D02*
X3992948Y-3697017D01*
X5026199Y-5698503D02*
X5022679Y-5701853D01*
X4036950Y-7142096D02*
X4036830Y-7146966D01*
X2466068Y-2011690D02*
X2470296Y-2014085D01*
X4168538Y-2212040D02*
X4168514Y-2212048D01*
X4017426Y-7581130D02*
X4020224Y-7585103D01*
X8910239Y-9754330D02*
X8910265Y-9754287D01*
X4027403Y-7597778D02*
X4029372Y-7602220D01*
X1512910Y-5856786D02*
X1512048Y-5859114D01*
X6234647Y-5736974D02*
X6232279Y-5736231D01*
X6251295Y-5743138D02*
X6244237Y-5740319D01*
X8909197Y-9254800D02*
X8909173Y-9254800D01*
X3695455Y-5736224D02*
X3688148Y-5734133D01*
X1509574Y-5388447D02*
X1509582Y-5388471D01*
X6202654Y-5525250D02*
X6205107Y-5524874D01*
X5054128Y-2084474D02*
X5054723Y-2089296D01*
X6184657Y-2200327D02*
X6183748Y-2200276D01*
X6367496Y-2351079D02*
X6366873Y-2348676D01*
X6347827Y-5829248D02*
X6343971Y-5822699D01*
X6695905Y-5743138D02*
X6695882Y-5743148D01*
X5038515Y-2043999D02*
X5041115Y-2048104D01*
X7932032Y-9074183D02*
X7936005Y-9071385D01*
X6373584Y-2399365D02*
X6373375Y-2391137D01*
X1631714Y-5739448D02*
X1629386Y-5740310D01*
X3962003Y-3710733D02*
X3957262Y-3711798D01*
X6205107Y-9052274D02*
X6205132Y-9052270D01*
X2452742Y-2194311D02*
X2448128Y-2195835D01*
X3840955Y-3643431D02*
X3839659Y-3638748D01*
X6762207Y-5727753D02*
X6754629Y-5728330D01*
X5355200Y-9155788D02*
X5355200Y-9153717D01*
X3834654Y-5898371D02*
X3834650Y-5898346D01*
X8910239Y-9255270D02*
X8910212Y-9255230D01*
X4227937Y-5727625D02*
X4227911Y-5727625D01*
X6174224Y-9054784D02*
X6174224Y-9054784D01*
X1563147Y-9000608D02*
X1568785Y-9005702D01*
X1578580Y-5768510D02*
X1576617Y-5770030D01*
X3705086Y-9042752D02*
X3707414Y-9041890D01*
X1500006Y-1999019D02*
X1500008Y-1999068D01*
X4022824Y-4061809D02*
X4025219Y-4066037D01*
X5371887Y-5571300D02*
X5374686Y-5567327D01*
X1658531Y-2204375D02*
X1658506Y-2204380D01*
X8910384Y-5926777D02*
X8910384Y-5926765D01*
X6269560Y-5751956D02*
X6269537Y-5751944D01*
X6395926Y-7577291D02*
X6399099Y-7573612D01*
X3807171Y-5432101D02*
X3811027Y-5425552D01*
X6583174Y-8915847D02*
X6583182Y-8915871D01*
X6382996Y-7184422D02*
X6381027Y-7179979D01*
X4022824Y-7589209D02*
X4025219Y-7593437D01*
X8719581Y-5727656D02*
X7990999Y-5727560D01*
X6373272Y-5338457D02*
X6373324Y-5337548D01*
X1648651Y-2206733D02*
X1641345Y-2208824D01*
X7492975Y-5727495D02*
X6774237Y-5727400D01*
X1629386Y-2212910D02*
X1629362Y-2212920D01*
X6332505Y-5806000D02*
X6332490Y-5805980D01*
X1500000Y-5326777D02*
X1500016Y-5328023D01*
X3695455Y-5518576D02*
X3695479Y-5518569D01*
X1500225Y-8863663D02*
X1500225Y-8863689D01*
X5053298Y-9134327D02*
X5054128Y-9139114D01*
X4185451Y-2206733D02*
X4178145Y-2208824D01*
X1678535Y-2201183D02*
X1678510Y-2201186D01*
X2818877Y-2110863D02*
X2818519Y-2106018D01*
X4156801Y-5744127D02*
X4156778Y-5744137D01*
X1500112Y-1500556D02*
X1500091Y-1500600D01*
X8761748Y-5734133D02*
X8761724Y-5734126D01*
X2429091Y-2199619D02*
X2424245Y-2199976D01*
X3675838Y-5731275D02*
X3675813Y-5731270D01*
X2474395Y-2183415D02*
X2470289Y-2186014D01*
X4037076Y-5917252D02*
X4037074Y-5917290D01*
X1561329Y-2255920D02*
X1561311Y-2255937D01*
X1629386Y-5740310D02*
X1629362Y-5740319D01*
X6508100Y-7235313D02*
X6503486Y-7236837D01*
X3830696Y-8903721D02*
X3830702Y-8903696D01*
X5416324Y-5534838D02*
X5420858Y-5533089D01*
X4085881Y-5458595D02*
X4085898Y-5458615D01*
X2419375Y-5727495D02*
X1700637Y-5727400D01*
X8861319Y-5796204D02*
X8861302Y-5796185D01*
X4237424Y-5727400D02*
X4236176Y-5727416D01*
X1500225Y-8863689D02*
X1500351Y-8866168D01*
X5049413Y-2065648D02*
X5050937Y-2070262D01*
X6364769Y-5868721D02*
X6364026Y-5866353D01*
X2824188Y-5592950D02*
X2825937Y-5588417D01*
X4185476Y-5520674D02*
X4187879Y-5521296D01*
X4085898Y-5796185D02*
X4085881Y-5796204D01*
X1502150Y-8883854D02*
X1502526Y-8886308D01*
X1622282Y-9039052D02*
X1622305Y-9039061D01*
X6417452Y-7557783D02*
X6421557Y-7555183D01*
X4989562Y-9060430D02*
X4994095Y-9062179D01*
X4984938Y-2004263D02*
X4989552Y-2005787D01*
X8761724Y-5734126D02*
X8759321Y-5733504D01*
X8903674Y-8906124D02*
X8904296Y-8903721D01*
X4052548Y-8932518D02*
X4053527Y-8934799D01*
X3838595Y-3634006D02*
X3837764Y-3629218D01*
X6629519Y-5788729D02*
X6627809Y-5790528D01*
X3906914Y-4017963D02*
X3911597Y-4016667D01*
X2517328Y-2115622D02*
X2516497Y-2120410D01*
X6636728Y-9000591D02*
X6636747Y-9000608D01*
X4187903Y-9048702D02*
X4195306Y-9050420D01*
X1595277Y-5497758D02*
X1595299Y-5497772D01*
X1593149Y-5496432D02*
X1593171Y-5496445D01*
X4195331Y-9050425D02*
X4197762Y-9050925D01*
X3637424Y-9054784D02*
X3637436Y-9054784D01*
X1500645Y-9754728D02*
X1500692Y-9754744D01*
X4998536Y-5536749D02*
X5002876Y-5538934D01*
X4092737Y-2261311D02*
X4092719Y-2261329D01*
X8771471Y-5736982D02*
X8771447Y-5736974D01*
X6439140Y-7235312D02*
X6434606Y-7233563D01*
X8849071Y-8998880D02*
X8849089Y-8998863D01*
X1610821Y-2221014D02*
X1610798Y-2221026D01*
X2902874Y-2001072D02*
X2907696Y-2000477D01*
X7535336Y-9064149D02*
X7539676Y-9066334D01*
X2818519Y-2106018D02*
X2818400Y-2101148D01*
X6312271Y-5783319D02*
X6310472Y-5781609D01*
X8898352Y-8923086D02*
X8898360Y-8923062D01*
X4045631Y-5386079D02*
X4046374Y-5388447D01*
X6349044Y-5831440D02*
X6347839Y-5829270D01*
X1561311Y-8998863D02*
X1561329Y-8998880D01*
X3880652Y-7557783D02*
X3884757Y-7555183D01*
X6402450Y-7570093D02*
X6405969Y-7566743D01*
X6349056Y-5423338D02*
X6352574Y-5416602D01*
X3707437Y-9041880D02*
X3714495Y-9039061D01*
X5387716Y-2025646D02*
X5391395Y-2022472D01*
X1670971Y-9052654D02*
X1678510Y-9053614D01*
X4166186Y-5514490D02*
X4168514Y-5515352D01*
X3795690Y-5448820D02*
X3795705Y-5448800D01*
X1563128Y-2254209D02*
X1561329Y-2255920D01*
X8751869Y-5731775D02*
X8749438Y-5731275D01*
X6484410Y-7541577D02*
X6489233Y-7542172D01*
X4115400Y-5768495D02*
X4115380Y-5768510D01*
X1506726Y-2348676D02*
X1506104Y-2351079D01*
X1660962Y-2203875D02*
X1658531Y-2204375D01*
X6337018Y-2284746D02*
X6337003Y-2284725D01*
X3848381Y-7188763D02*
X3846196Y-7184422D01*
X6642404Y-5776481D02*
X6642385Y-5776498D01*
X6364018Y-5866329D02*
X6361560Y-5859138D01*
X5029550Y-5694983D02*
X5026199Y-5698503D01*
X3773672Y-5473191D02*
X3775471Y-5471480D01*
X6577475Y-5888362D02*
X6577470Y-5888387D01*
X5359463Y-9184538D02*
X5358167Y-9179855D01*
X2818877Y-9144001D02*
X2819472Y-9139178D01*
X3780863Y-5466089D02*
X3780880Y-5466071D01*
X2448148Y-5531506D02*
X2452762Y-5533030D01*
X4195306Y-2204380D02*
X4187903Y-2206098D01*
X4956188Y-2000000D02*
X4961058Y-2000119D01*
X8867770Y-5804017D02*
X8867755Y-5803997D01*
X3787702Y-2268785D02*
X3782608Y-2263147D01*
X4207746Y-5525250D02*
X4207771Y-5525254D01*
X6582424Y-5868745D02*
X6580333Y-5876051D01*
X2429091Y-5727019D02*
X2424245Y-5727376D01*
X2847397Y-9225803D02*
X2844046Y-9222284D01*
X6734562Y-5731275D02*
X6732131Y-5731775D01*
X5022689Y-5552890D02*
X5026208Y-5556241D01*
X8909468Y-5908404D02*
X8909217Y-5905935D01*
X2917412Y-2000000D02*
X4956188Y-2000000D01*
X3716799Y-5744127D02*
X3714518Y-5743148D01*
X4156778Y-5510663D02*
X4156801Y-5510673D01*
X1593171Y-9023845D02*
X1595277Y-9025158D01*
X3647857Y-2200327D02*
X3646948Y-2200276D01*
X3836526Y-5337510D02*
X3836543Y-5336600D01*
X6371070Y-5895867D02*
X6369729Y-5888387D01*
X3789352Y-8984093D02*
X3794154Y-8978203D01*
X8890479Y-5840449D02*
X8889386Y-5838221D01*
X8799579Y-5748414D02*
X8797351Y-5747321D01*
X1536597Y-5442675D02*
X1541095Y-5448800D01*
X1547448Y-8984093D02*
X1547464Y-8984112D01*
X7551980Y-9074127D02*
X7555810Y-9077116D01*
X8908254Y-5898371D02*
X8908250Y-5898346D01*
X5041113Y-5679395D02*
X5038513Y-5683500D01*
X2888672Y-9058965D02*
X2893356Y-9057670D01*
X2514137Y-9184538D02*
X2512613Y-9189152D01*
X1503875Y-5366438D02*
X1504375Y-5368869D01*
X6573929Y-5916324D02*
X6573927Y-5916343D01*
X3787702Y-8986015D02*
X3787719Y-8985995D01*
X4207746Y-9052650D02*
X4207771Y-9052654D01*
X6610182Y-8970054D02*
X6610197Y-8970075D01*
X2438725Y-5529144D02*
X2443466Y-5530209D01*
X3834270Y-8886333D02*
X3834274Y-8886308D01*
X3697871Y-2209582D02*
X3697847Y-2209574D01*
X6251318Y-9039052D02*
X6253599Y-9038073D01*
X3801636Y-5814183D02*
X3800218Y-5812146D01*
X5374686Y-9094727D02*
X5377676Y-9090896D01*
X3821052Y-5849682D02*
X3820073Y-5847401D01*
X2448148Y-9058906D02*
X2452762Y-9060430D01*
X1593149Y-5758368D02*
X1586804Y-5762550D01*
X3807171Y-2295299D02*
X3807158Y-2295277D01*
X2478380Y-9074127D02*
X2482210Y-9077116D01*
X1554192Y-5790547D02*
X1549098Y-5796185D01*
X3872886Y-3691225D02*
X3869207Y-3688051D01*
X4129971Y-5758355D02*
X4129949Y-5758368D01*
X1563147Y-5473208D02*
X1568785Y-5478302D01*
X6574530Y-8873770D02*
X6574532Y-8873796D01*
X7971686Y-9252897D02*
X7966945Y-9251833D01*
X6604568Y-8961651D02*
X6608750Y-8967996D01*
X1561329Y-5471480D02*
X1563128Y-5473191D01*
X8904296Y-5878479D02*
X8903674Y-5876076D01*
X3911597Y-4016667D02*
X3916337Y-4015602D01*
X8790399Y-5744127D02*
X8788118Y-5743148D01*
X8847272Y-5781609D02*
X8847253Y-5781592D01*
X7928201Y-9077173D02*
X7932032Y-9074183D01*
X1595299Y-9025172D02*
X1601848Y-9029027D01*
X1576597Y-5770045D02*
X1570707Y-5774848D01*
X2844050Y-9087216D02*
X2847401Y-9083697D01*
X4037025Y-5336289D02*
X4037151Y-5338768D01*
X6627792Y-5790547D02*
X6622698Y-5796185D01*
X6577470Y-8893813D02*
X6577475Y-8893838D01*
X5369283Y-5679453D02*
X5366888Y-5675225D01*
X6304814Y-9005702D02*
X6310453Y-9000608D01*
X6379240Y-7606742D02*
X6380989Y-7602208D01*
X6385143Y-7593427D02*
X6387538Y-7589199D01*
X2837886Y-5567327D02*
X2840876Y-5563496D01*
X4132099Y-5497772D02*
X4138648Y-5501627D01*
X3688124Y-5734126D02*
X3685721Y-5733504D01*
X8761724Y-9048074D02*
X8761748Y-9048067D01*
X5007089Y-2186014D02*
X5002860Y-2188409D01*
X6598144Y-8950738D02*
X6598156Y-8950760D01*
X4037153Y-8866193D02*
X4037730Y-8873770D01*
X2818519Y-5621447D02*
X2818877Y-5616601D01*
X6232279Y-9045969D02*
X6234647Y-9045226D01*
X8880772Y-8959501D02*
X8884627Y-8952952D01*
X1561311Y-2255937D02*
X1555937Y-2261311D01*
X3707414Y-2212910D02*
X3705086Y-2212048D01*
X3836694Y-3614679D02*
X3836800Y-2400636D01*
X5355200Y-9153717D02*
X5355320Y-9148847D01*
X4066442Y-5432123D02*
X4067755Y-5434229D01*
X2443466Y-5530209D02*
X2448148Y-5531506D01*
X5029550Y-2167584D02*
X5026199Y-2171103D01*
X6347839Y-5425530D02*
X6349044Y-5423360D01*
X8910010Y-9754583D02*
X8910048Y-9754552D01*
X8749413Y-5731270D02*
X8741933Y-5729930D01*
X1500981Y-9254806D02*
X1500932Y-9254808D01*
X3766112Y-9007336D02*
X3767995Y-9005719D01*
X6472506Y-7241100D02*
X6467636Y-7240980D01*
X1500217Y-9754410D02*
X1500248Y-9754448D01*
X5050937Y-2070262D02*
X5052233Y-2074945D01*
X8909708Y-9254856D02*
X8909661Y-9254842D01*
X5439674Y-9253728D02*
X5434886Y-9252897D01*
X3732737Y-5751944D02*
X3726002Y-5748426D01*
X8759296Y-9048702D02*
X8759321Y-9048696D01*
X5444496Y-2000477D02*
X5449342Y-2000119D01*
X3846158Y-4070366D02*
X3848343Y-4066027D01*
X8862936Y-8984112D02*
X8862952Y-8984093D01*
X3688148Y-5520667D02*
X3695455Y-5518576D01*
X6467593Y-7541219D02*
X6472463Y-7541100D01*
X6262802Y-2221026D02*
X6262779Y-2221014D01*
X3984577Y-4025391D02*
X3988805Y-4027787D01*
X3850776Y-3665591D02*
X3848381Y-3661363D01*
X2517328Y-9139114D02*
X2517923Y-9143937D01*
X3962003Y-7238133D02*
X3957262Y-7239198D01*
X3807171Y-8959501D02*
X3811027Y-8952952D01*
X6361552Y-5395686D02*
X6361560Y-5395662D01*
X1500188Y-9255230D02*
X1500160Y-9255270D01*
X7507538Y-9055713D02*
X7512325Y-9056544D01*
X1555937Y-2261311D02*
X1555919Y-2261329D01*
X7966945Y-9251833D02*
X7962262Y-9250537D01*
X6192570Y-5728330D02*
X6184675Y-5727729D01*
X6634911Y-5783337D02*
X6629537Y-5788711D01*
X8879445Y-8961629D02*
X8880758Y-8959523D01*
X3647875Y-5727729D02*
X3647857Y-5727727D01*
X6724679Y-9048696D02*
X6724703Y-9048702D01*
X4132099Y-2229628D02*
X4132077Y-2229642D01*
X6373584Y-5926765D02*
X6373375Y-5918536D01*
X1525761Y-5829270D02*
X1524556Y-5831440D01*
X1689852Y-5527124D02*
X1689890Y-5527126D01*
X6330970Y-2276617D02*
X6330954Y-2276597D01*
X4175753Y-5736974D02*
X4175729Y-5736982D01*
X6212638Y-9050925D02*
X6215069Y-9050425D01*
X5043510Y-2052332D02*
X5045695Y-2056672D01*
X1670971Y-2202146D02*
X1670946Y-2202150D01*
X1500056Y-9754108D02*
X1500072Y-9754154D01*
X7591880Y-9148782D02*
X7592000Y-9153652D01*
X6205107Y-2202526D02*
X6202654Y-2202150D01*
X3723750Y-2219921D02*
X3723728Y-2219910D01*
X1561311Y-5471463D02*
X1561329Y-5471480D01*
X8910212Y-9255230D02*
X8910183Y-9255190D01*
X6202629Y-9052654D02*
X6202654Y-9052650D01*
X6356873Y-5847401D02*
X6356863Y-5847378D01*
X5360988Y-5592950D02*
X5362737Y-5588417D01*
X4185451Y-5734133D02*
X4178145Y-5736224D01*
X3836800Y-5928035D02*
X3836800Y-5928023D01*
X3758200Y-2241095D02*
X3752075Y-2236597D01*
X6582431Y-8913479D02*
X6583174Y-8915847D01*
X1512919Y-2329362D02*
X1512910Y-2329386D01*
X1500072Y-1999354D02*
X1500091Y-1999400D01*
X1681029Y-9053870D02*
X1688924Y-9054471D01*
X4091009Y-2263128D02*
X4090992Y-2263147D01*
X3853376Y-3669697D02*
X3850776Y-3665591D01*
X3773653Y-9000608D02*
X3773672Y-9000591D01*
X4067755Y-5434229D02*
X4067768Y-5434251D01*
X5041115Y-2048104D02*
X5043510Y-2052332D01*
X1500645Y-9254872D02*
X1500600Y-9254891D01*
X4178121Y-5736231D02*
X4175753Y-5736974D01*
X5055080Y-5621382D02*
X5055200Y-5626252D01*
X7517055Y-9251833D02*
X7512314Y-9252897D01*
X3775489Y-5783337D02*
X3775471Y-5783319D01*
X6367496Y-5376321D02*
X6367502Y-5376296D01*
X4205267Y-9052270D02*
X4205292Y-9052274D01*
X1542630Y-2276617D02*
X1541110Y-2278580D01*
X3980275Y-7231596D02*
X3975833Y-7233565D01*
X1500692Y-9754744D02*
X1500739Y-9754758D01*
X6742067Y-5729930D02*
X6734587Y-5731270D01*
X6369225Y-5885931D02*
X6369220Y-5885906D01*
X4975514Y-2001902D02*
X4980255Y-2002967D01*
X1512910Y-2329386D02*
X1512048Y-2331714D01*
X6232279Y-5736231D02*
X6232255Y-5736224D01*
X4159082Y-2215748D02*
X4156801Y-2216727D01*
X6183710Y-5727674D02*
X6182800Y-5727657D01*
X6174236Y-9054784D02*
X6182463Y-9054575D01*
X8817229Y-9023845D02*
X8817251Y-9023832D01*
X2515433Y-5602186D02*
X2516498Y-5606927D01*
X7981296Y-9254323D02*
X7976474Y-9253728D01*
X4004431Y-3688057D02*
X4000751Y-3691230D01*
X3832929Y-5366413D02*
X3834270Y-5358933D01*
X4098129Y-5471480D02*
X4099928Y-5473191D01*
X5399199Y-9238115D02*
X5395226Y-9235317D01*
X5032724Y-2163904D02*
X5029550Y-2167584D01*
X1500316Y-9255081D02*
X1500281Y-9255116D01*
X2517923Y-2110799D02*
X2517328Y-2115622D01*
X8731890Y-5728586D02*
X8731865Y-5728583D01*
X1555937Y-5466089D02*
X1561311Y-5471463D01*
X4970715Y-2199025D02*
X4965891Y-2199619D01*
X3668307Y-5729926D02*
X3665854Y-5729550D01*
X4178121Y-9045969D02*
X4178145Y-9045976D01*
X3782608Y-8991653D02*
X3787702Y-8986015D01*
X1601848Y-5753173D02*
X1595299Y-5757028D01*
X3787702Y-5796185D02*
X3782608Y-5790547D01*
X3760203Y-2242645D02*
X3760183Y-2242630D01*
X1500056Y-1500692D02*
X1500042Y-1500739D01*
X3716799Y-5510673D02*
X3716822Y-5510663D01*
X6353690Y-5840472D02*
X6353679Y-5840449D01*
X6551274Y-7204908D02*
X6548100Y-7208587D01*
X4236164Y-5727416D02*
X4227937Y-5727625D01*
X6367502Y-5878503D02*
X6367496Y-5878479D01*
X1530955Y-2293171D02*
X1529642Y-2295277D01*
X6608764Y-8968017D02*
X6610182Y-8970054D01*
X1500739Y-1500042D02*
X1500692Y-1500056D01*
X4037986Y-5905910D02*
X4037983Y-5905935D01*
X6474737Y-7241100D02*
X6472506Y-7241100D01*
X4017464Y-3673678D02*
X4014474Y-3677508D01*
X8808530Y-5753161D02*
X8806360Y-5751956D01*
X1638929Y-5736982D02*
X1631738Y-5739440D01*
X6367496Y-5878479D02*
X6366873Y-5876076D01*
X2508896Y-5583915D02*
X2510865Y-5588357D01*
X4175753Y-2209574D02*
X4175729Y-2209582D01*
X3842440Y-7606742D02*
X3844189Y-7602208D01*
X1500160Y-1999529D02*
X1500188Y-1999570D01*
X6349056Y-8950738D02*
X6352574Y-8944002D01*
X8769055Y-9045976D02*
X8769079Y-9045969D01*
X6244237Y-2212920D02*
X6244214Y-2212910D01*
X2862392Y-5710871D02*
X2858420Y-5708073D01*
X1601870Y-2225761D02*
X1601848Y-2225773D01*
X4043526Y-5876076D02*
X4042904Y-5878479D01*
X6764419Y-9054543D02*
X7493001Y-9054639D01*
X1500352Y-9754552D02*
X1500390Y-9754583D01*
X4237424Y-2200000D02*
X4236176Y-2200016D01*
X8856208Y-5790547D02*
X8856191Y-5790528D01*
X4057814Y-2310821D02*
X4056721Y-2313049D01*
X5032728Y-9218605D02*
X5029554Y-9222284D01*
X4113417Y-5770030D02*
X4113397Y-5770045D01*
X1509582Y-5388471D02*
X1512040Y-5395662D01*
X8759321Y-5733504D02*
X8759296Y-5733498D01*
X7896263Y-9184538D02*
X7894967Y-9179855D01*
X4084248Y-2270707D02*
X4079445Y-2276597D01*
X3893325Y-4023204D02*
X3897767Y-4021235D01*
X6425784Y-7552789D02*
X6430125Y-7550604D01*
X4237437Y-2200000D02*
X4237424Y-2200000D01*
X2518280Y-2105953D02*
X2517923Y-2110799D01*
X1668467Y-2202530D02*
X1660987Y-2203871D01*
X3837170Y-3624395D02*
X3836813Y-3619549D01*
X4156778Y-9038063D02*
X4156801Y-9038073D01*
X5364704Y-2143485D02*
X5362735Y-2139043D01*
X4084264Y-5456712D02*
X4085881Y-5458595D01*
X6271752Y-5753173D02*
X6271730Y-5753161D01*
X3952433Y-4014772D02*
X3957221Y-4015603D01*
X8885844Y-8950760D02*
X8885856Y-8950738D01*
X3726002Y-5748426D02*
X3725979Y-5748414D01*
X4166186Y-5740310D02*
X4166162Y-5740319D01*
X4975525Y-9056544D02*
X4980266Y-9057609D01*
X3832925Y-5366438D02*
X3832929Y-5366413D01*
X6373613Y-7146949D02*
X6373494Y-7142079D01*
X3832420Y-2358506D02*
X3830702Y-2351104D01*
X3758200Y-9013705D02*
X3758220Y-9013690D01*
X8749413Y-9050929D02*
X8749438Y-9050925D01*
X4048848Y-5859114D02*
X4048840Y-5859138D01*
X1500470Y-9254961D02*
X1500430Y-9254988D01*
X6330954Y-8978203D02*
X6330970Y-8978183D01*
X2424245Y-5727376D02*
X2419375Y-5727495D01*
X4011300Y-7208587D02*
X4007950Y-7212106D01*
X4215335Y-2201183D02*
X4215310Y-2201186D01*
X2495931Y-5563439D02*
X2498920Y-5567270D01*
X1549081Y-5796204D02*
X1547464Y-5798088D01*
X2501713Y-2156100D02*
X2498914Y-2160073D01*
X4107507Y-5479952D02*
X4113397Y-5484755D01*
X3795690Y-2278580D02*
X3794170Y-2276617D01*
X3795705Y-2278600D02*
X3795690Y-2278580D01*
X2835087Y-9098700D02*
X2837886Y-9094727D01*
X1500008Y-1999068D02*
X1500013Y-1999117D01*
X6573230Y-7630404D02*
X6573587Y-7635251D01*
X4027442Y-7184433D02*
X4025257Y-7188773D01*
X1500000Y-9753573D02*
X1500000Y-9753597D01*
X6260528Y-9034890D02*
X6260550Y-9034879D01*
X5411881Y-5536806D02*
X5416324Y-5534838D01*
X6722276Y-9048074D02*
X6724679Y-9048696D01*
X5434875Y-5725656D02*
X5430134Y-5724591D01*
X1570707Y-5479952D02*
X1576597Y-5484755D01*
X5403297Y-2186071D02*
X5399192Y-2183471D01*
X3869169Y-4039343D02*
X3872848Y-4036170D01*
X4989552Y-9249013D02*
X4984938Y-9250537D01*
X5043512Y-9106975D02*
X5045696Y-9111315D01*
X6337003Y-2284725D02*
X6332505Y-2278600D01*
X2512612Y-2134450D02*
X2510863Y-2138983D01*
X6373584Y-5926777D02*
X6373584Y-5926765D01*
X4166162Y-2212920D02*
X4159105Y-2215739D01*
X6575750Y-5898346D02*
X6575746Y-5898371D01*
X8909800Y-9254891D02*
X8909754Y-9254872D01*
X6373375Y-5918536D02*
X6373374Y-5918511D01*
X5425472Y-9058965D02*
X5430156Y-9057670D01*
X6573953Y-8866193D02*
X6574530Y-8873770D01*
X6251295Y-9039061D02*
X6251318Y-9039052D01*
X1670946Y-5525250D02*
X1670971Y-5525254D01*
X4099947Y-5781592D02*
X4099928Y-5781609D01*
X3880652Y-4030383D02*
X3884757Y-4027783D01*
X2466076Y-5538934D02*
X2470303Y-5541329D01*
X2501713Y-5683500D02*
X2498914Y-5687473D01*
X6337003Y-8970075D02*
X6337018Y-8970054D01*
X3775471Y-8998880D02*
X3775489Y-8998863D01*
X6347827Y-2301848D02*
X6343971Y-2295299D01*
X5425452Y-2195894D02*
X5420838Y-2194370D01*
X8910400Y-9753573D02*
X8910400Y-9256027D01*
X4057814Y-5416579D02*
X4057826Y-5416602D01*
X6371454Y-2370971D02*
X6371450Y-2370946D01*
X1688607Y-5727753D02*
X1681029Y-5728330D01*
X4048848Y-5395686D02*
X4049710Y-5398014D01*
X7572517Y-9214774D02*
X7569528Y-9218605D01*
X3832425Y-5368869D02*
X3832925Y-5366438D01*
X3830073Y-2348676D02*
X3830067Y-2348652D01*
X2512614Y-5592890D02*
X2514138Y-5597504D01*
X3961962Y-7544067D02*
X3966646Y-7545364D01*
X4046374Y-5388447D02*
X4046382Y-5388471D01*
X1508824Y-2341345D02*
X1506733Y-2348652D01*
X4215310Y-9053614D02*
X4215335Y-9053617D01*
X4007950Y-7212106D02*
X4004431Y-7215457D01*
X6576130Y-8886333D02*
X6577470Y-8893813D01*
X1501227Y-9754800D02*
X8909173Y-9754800D01*
X2835085Y-2043999D02*
X2837883Y-2040026D01*
X5395232Y-9074183D02*
X5399205Y-9071385D01*
X3678294Y-2204380D02*
X3678269Y-2204375D01*
X2452752Y-2005787D02*
X2457286Y-2007536D01*
X3842479Y-7175446D02*
X3840955Y-7170831D01*
X3827218Y-2338929D02*
X3824760Y-2331738D01*
X1542645Y-5450803D02*
X1547448Y-5456693D01*
X4061356Y-5831440D02*
X4061344Y-5831462D01*
X6693578Y-9038063D02*
X6693601Y-9038073D01*
X1500883Y-9754787D02*
X1500932Y-9754792D01*
X5047663Y-2138983D02*
X5045693Y-2143426D01*
X2443444Y-2197130D02*
X2438703Y-2198195D01*
X6580333Y-5876051D02*
X6580326Y-5876076D01*
X1568804Y-5776481D02*
X1568785Y-5776498D01*
X1500000Y-1998773D02*
X1500000Y-1998797D01*
X4037074Y-5917290D02*
X4037057Y-5918200D01*
X8825675Y-9018203D02*
X8831800Y-9013705D01*
X2485879Y-5701853D02*
X2482199Y-5705027D01*
X5049412Y-2134450D02*
X5047663Y-2138983D01*
X5362735Y-2139043D02*
X5360986Y-2134510D01*
X5055080Y-2105953D02*
X5054723Y-2110799D01*
X1668492Y-5524874D02*
X1670946Y-5525250D01*
X2854595Y-9232328D02*
X2850916Y-9229154D01*
X8749438Y-9050925D02*
X8751869Y-9050425D01*
X3911637Y-3710732D02*
X3906954Y-3709436D01*
X8806338Y-9030256D02*
X8806360Y-9030244D01*
X2917399Y-5727560D02*
X2912530Y-5727440D01*
X3971300Y-7235313D02*
X3966686Y-7236837D01*
X3957262Y-7239198D02*
X3952475Y-7240028D01*
X8731865Y-9053617D02*
X8731890Y-9053614D01*
X8909419Y-9254806D02*
X8909197Y-9254800D01*
X2819472Y-9170326D02*
X2818877Y-9165504D01*
X4975514Y-9252897D02*
X4970726Y-9253728D01*
X6364026Y-2338953D02*
X6364018Y-2338929D01*
X6373343Y-8864000D02*
X6373343Y-8863981D01*
X3655770Y-5728330D02*
X3647875Y-5727729D01*
X3947653Y-7240623D02*
X3942807Y-7240980D01*
X8909173Y-9254800D02*
X7991012Y-9254800D01*
X6356863Y-2319978D02*
X6353690Y-2313072D01*
X1610798Y-5748426D02*
X1604062Y-5751944D01*
X3697871Y-9045218D02*
X3705062Y-9042760D01*
X3743650Y-5758368D02*
X3743629Y-5758355D01*
X1536597Y-2284725D02*
X1536582Y-2284746D01*
X1561329Y-5783319D02*
X1561311Y-5783337D01*
X5002860Y-5715809D02*
X4998519Y-5717993D01*
X6338450Y-8967996D02*
X6342632Y-8961651D01*
X2461719Y-2190594D02*
X2457276Y-2192562D01*
X5366888Y-2147825D02*
X5364704Y-2143485D01*
X3766093Y-5479952D02*
X3766112Y-5479936D01*
X1500883Y-1999987D02*
X1500932Y-1999992D01*
X6608750Y-8967996D02*
X6608764Y-8968017D01*
X1500042Y-9754061D02*
X1500056Y-9754108D01*
X3795690Y-5805980D02*
X3794170Y-5804017D01*
X4217830Y-5526470D02*
X4225724Y-5527071D01*
X1524556Y-2304040D02*
X1524544Y-2304062D01*
X3668332Y-5524870D02*
X3675813Y-5523529D01*
X4079445Y-8978203D02*
X4084248Y-8984093D01*
X3714495Y-2215739D02*
X3707437Y-2212920D01*
X3645689Y-9054574D02*
X3648168Y-9054449D01*
X1660987Y-2203871D02*
X1660962Y-2203875D01*
X6360689Y-2329386D02*
X6360680Y-2329362D01*
X1648676Y-5734126D02*
X1648651Y-5734133D01*
X4073397Y-5442675D02*
X4077895Y-5448800D01*
X1502146Y-2370971D02*
X1501186Y-2378510D01*
X1501203Y-9254800D02*
X1500981Y-9254806D01*
X6642385Y-5776498D02*
X6636747Y-5781592D01*
X1500217Y-1999610D02*
X1500248Y-1999648D01*
X6360689Y-5856786D02*
X6360680Y-5856762D01*
X2893345Y-2002967D02*
X2898086Y-2001902D01*
X4129971Y-2230955D02*
X4129949Y-2230968D01*
X6603242Y-8959523D02*
X6604555Y-8961629D01*
X5356272Y-5611778D02*
X5357103Y-5606990D01*
X2898075Y-5725656D02*
X2893334Y-5724591D01*
X1500512Y-1500135D02*
X1500470Y-1500160D01*
X5391390Y-2177684D02*
X5387711Y-2174510D01*
X6722251Y-9048067D02*
X6722276Y-9048074D01*
X4123604Y-5492250D02*
X4129949Y-5496432D01*
X6573706Y-7640121D02*
X6573600Y-8854164D01*
X1584746Y-9018218D02*
X1586783Y-9019636D01*
X6337018Y-8970054D02*
X6338436Y-8968017D01*
X3975794Y-7548637D02*
X3980236Y-7550606D01*
X8731890Y-9053614D02*
X8739429Y-9052654D01*
X6686672Y-9034890D02*
X6693578Y-9038063D01*
X8869290Y-8976220D02*
X8869305Y-8976200D01*
X5416305Y-5720020D02*
X5411864Y-5718051D01*
X1500281Y-9255116D02*
X1500248Y-9255152D01*
X3780880Y-2261329D02*
X3780863Y-2261311D01*
X3971300Y-3707913D02*
X3966686Y-3709437D01*
X2866497Y-2186071D02*
X2862392Y-2183471D01*
X1563147Y-5781592D02*
X1563128Y-5781609D01*
X5391395Y-9232328D02*
X5387716Y-9229154D01*
X4032645Y-7611369D02*
X4033941Y-7616052D01*
X1658506Y-9050420D02*
X1658531Y-9050425D01*
X8909214Y-5905910D02*
X8908254Y-5898371D01*
X3835870Y-8873770D02*
X3836471Y-8865876D01*
X4041180Y-8896294D02*
X4042898Y-8903696D01*
X4132099Y-9025172D02*
X4138648Y-9029027D01*
X4132077Y-2229642D02*
X4129971Y-2230955D01*
X6260550Y-5747321D02*
X6260528Y-5747310D01*
X1688607Y-2200353D02*
X1681029Y-2200930D01*
X1500932Y-5346396D02*
X1501183Y-5348865D01*
X4105604Y-5478319D02*
X4107488Y-5479936D01*
X5425452Y-5723294D02*
X5420838Y-5721770D01*
X4085881Y-5796204D02*
X4084264Y-5798088D01*
X1593171Y-2230955D02*
X1593149Y-2230968D01*
X4037025Y-8863689D02*
X4037151Y-8866168D01*
X2518400Y-2099012D02*
X2518400Y-2101083D01*
X2879505Y-5720020D02*
X2875064Y-5718051D01*
X8910288Y-9754244D02*
X8910309Y-9754200D01*
X6342632Y-5820549D02*
X6338450Y-5814204D01*
X4121525Y-5763997D02*
X4115400Y-5768495D01*
X4000751Y-3691230D02*
X3996921Y-3694219D01*
X5420838Y-5721770D02*
X5416305Y-5720020D01*
X2424270Y-9054760D02*
X2429116Y-9055118D01*
X1516727Y-8934799D02*
X1516737Y-8934822D01*
X6241862Y-2212040D02*
X6234671Y-2209582D01*
X6280429Y-9023845D02*
X6280450Y-9023832D01*
X6357852Y-8932518D02*
X6357861Y-8932495D01*
X2870724Y-2188466D02*
X2866497Y-2186071D01*
X1519910Y-5414328D02*
X1519921Y-5414351D01*
X1658531Y-9050425D02*
X1660962Y-9050925D01*
X1576597Y-9012155D02*
X1576617Y-9012170D01*
X2820302Y-2120473D02*
X2819472Y-2115686D01*
X3787719Y-8985995D02*
X3789336Y-8984112D01*
X4052548Y-5849682D02*
X4052538Y-5849705D01*
X7924521Y-9080347D02*
X7928201Y-9077173D01*
X4956175Y-2200095D02*
X4237437Y-2200000D01*
X5387711Y-5701910D02*
X5384192Y-5698559D01*
X5002868Y-2011690D02*
X5007096Y-2014085D01*
X6564242Y-7184433D02*
X6562057Y-7188773D01*
X3827218Y-5388471D02*
X3827226Y-5388447D01*
X4038950Y-5356454D02*
X4039326Y-5358908D01*
X5439662Y-2199087D02*
X5434875Y-2198256D01*
X1570688Y-5479936D02*
X1570707Y-5479952D01*
X3840915Y-4083955D02*
X3842440Y-4079342D01*
X6205132Y-5524870D02*
X6212613Y-5523529D01*
X1500930Y-5346370D02*
X1500932Y-5346396D01*
X1506733Y-8906148D02*
X1508824Y-8913455D01*
X5399205Y-9071385D02*
X5403311Y-9068786D01*
X3821061Y-5405095D02*
X3823880Y-5398038D01*
X2850916Y-2025646D02*
X2854595Y-2022472D01*
X1500512Y-9254935D02*
X1500470Y-9254961D01*
X6280429Y-5496445D02*
X6280450Y-5496432D01*
X5054723Y-5616537D02*
X5055080Y-5621382D01*
X4036472Y-7151812D02*
X4035877Y-7156634D01*
X4185476Y-2206726D02*
X4185451Y-2206733D01*
X2517923Y-5616537D02*
X2518280Y-5621382D01*
X6742092Y-9052274D02*
X6744546Y-9052650D01*
X5395226Y-9235317D02*
X5391395Y-9232328D01*
X6369729Y-5888387D02*
X6369725Y-5888362D01*
X2498914Y-5687473D02*
X2495924Y-5691304D01*
X2470289Y-5713414D02*
X2466060Y-5715809D01*
X8906025Y-5885931D02*
X8906020Y-5885906D01*
X8894652Y-8932518D02*
X8894661Y-8932495D01*
X8711036Y-9054784D02*
X8719263Y-9054575D01*
X6224924Y-5734126D02*
X6222521Y-5733504D01*
X5371882Y-2156158D02*
X5369283Y-2152053D01*
X2466060Y-5715809D02*
X2461719Y-5717993D01*
X4049719Y-2329362D02*
X4049710Y-2329386D01*
X4156801Y-5510673D02*
X4159082Y-5511652D01*
X3775471Y-5783319D02*
X3773672Y-5781609D01*
X3832929Y-5888387D02*
X3832925Y-5888362D01*
X3835614Y-8876290D02*
X3835617Y-8876265D01*
X1500217Y-9255190D02*
X1500188Y-9255230D01*
X3862299Y-7573612D02*
X3865650Y-7570093D01*
X6369725Y-5366438D02*
X6369729Y-5366413D01*
X3869207Y-7215451D02*
X3865687Y-7212100D01*
X1500834Y-9754780D02*
X1500883Y-9754787D01*
X2470303Y-9068729D02*
X2474408Y-9071329D01*
X2485879Y-2174453D02*
X2482199Y-2177627D01*
X6705338Y-9042760D02*
X6712529Y-9045218D01*
X3678269Y-9050425D02*
X3678294Y-9050420D01*
X1670946Y-5729550D02*
X1668492Y-5729926D01*
X6577470Y-5888387D02*
X6576130Y-5895867D01*
X1554209Y-8991672D02*
X1555919Y-8993471D01*
X2875064Y-5718051D02*
X2870724Y-5715866D01*
X1631738Y-2212040D02*
X1631714Y-2212048D01*
X2495928Y-2036195D02*
X2498917Y-2040026D01*
X6372414Y-8876290D02*
X6372417Y-8876265D01*
X2433915Y-5726425D02*
X2429091Y-5727019D01*
X6373494Y-1500000D02*
X1501227Y-1500000D01*
X6244214Y-5514490D02*
X6244237Y-5514480D01*
X8889386Y-8943979D02*
X8890479Y-8941751D01*
X3842479Y-3648046D02*
X3840955Y-3643431D01*
X2840868Y-2163961D02*
X2837879Y-2160130D01*
X6212638Y-5731275D02*
X6212613Y-5731270D01*
X6304795Y-2249081D02*
X6302912Y-2247464D01*
X8861302Y-8986015D02*
X8861319Y-8985995D01*
X1622282Y-5511652D02*
X1622305Y-5511661D01*
X2516497Y-2079686D02*
X2517328Y-2084474D01*
X1613049Y-5507479D02*
X1613072Y-5507490D01*
X8869290Y-5805980D02*
X8867770Y-5804017D01*
X3695479Y-5518569D02*
X3697847Y-5517826D01*
X6319391Y-5790528D02*
X6317680Y-5788729D01*
X2824186Y-2134510D02*
X2822662Y-2129896D01*
X7539676Y-9066334D02*
X7543903Y-9068729D01*
X8729370Y-9053870D02*
X8729396Y-9053868D01*
X8751869Y-9050425D02*
X8751894Y-9050420D01*
X5011208Y-9071329D02*
X5015180Y-9074127D01*
X6373324Y-5337548D02*
X6373326Y-5337510D01*
X6660404Y-5762550D02*
X6660383Y-5762564D01*
X2879523Y-5534838D02*
X2884058Y-5533089D01*
X6288854Y-5490818D02*
X6288875Y-5490803D01*
X2854601Y-9077173D02*
X2858432Y-9074183D01*
X4217830Y-2200930D02*
X4217804Y-2200932D01*
X4037986Y-8876290D02*
X4038946Y-8883829D01*
X3773653Y-2254192D02*
X3768014Y-2249098D01*
X6695905Y-9039061D02*
X6702962Y-9041880D01*
X6677640Y-5751956D02*
X6675470Y-5753161D01*
X4140862Y-5751944D02*
X4140840Y-5751956D01*
X6557024Y-7585103D02*
X6559624Y-7589209D01*
X6585648Y-5859114D02*
X6585640Y-5859138D01*
X8909468Y-9254808D02*
X8909419Y-9254806D01*
X5434897Y-5529205D02*
X5439685Y-5528375D01*
X6373272Y-8865857D02*
X6373324Y-8864948D01*
X4185451Y-5520667D02*
X4185476Y-5520674D01*
X1688632Y-5727751D02*
X1688607Y-5727753D01*
X8841615Y-5776498D02*
X8841595Y-5776481D01*
X3743629Y-5758355D02*
X3741523Y-5757042D01*
X6373374Y-2391111D02*
X6373249Y-2388632D01*
X8808552Y-9029027D02*
X8815101Y-9025172D01*
X4092719Y-5788729D02*
X4091009Y-5790528D01*
X6310472Y-2254209D02*
X6310453Y-2254192D01*
X5454212Y-9254800D02*
X5449342Y-9254680D01*
X4098129Y-2255920D02*
X4098111Y-2255937D01*
X3749996Y-2235150D02*
X3743650Y-2230968D01*
X6234671Y-9045218D02*
X6241862Y-9042760D01*
X5399192Y-2183471D02*
X5395220Y-2180673D01*
X6356863Y-5847378D02*
X6353690Y-5840472D01*
X5407532Y-9243110D02*
X5403304Y-9240715D01*
X3830067Y-2348652D02*
X3827976Y-2341345D01*
X1500008Y-9255732D02*
X1500006Y-9255781D01*
X6658325Y-5763997D02*
X6652200Y-5768495D01*
X3716822Y-5744137D02*
X3716799Y-5744127D01*
X5054128Y-9170326D02*
X5053297Y-9175114D01*
X2489399Y-5698503D02*
X2485879Y-5701853D01*
X8823596Y-5762550D02*
X8817251Y-5758368D01*
X6224948Y-9048067D02*
X6232255Y-9045976D01*
X8909566Y-9754780D02*
X8909614Y-9754770D01*
X8741908Y-5729926D02*
X8739454Y-5729550D01*
X8880772Y-5822699D02*
X8880758Y-5822677D01*
X3984615Y-7229411D02*
X3980275Y-7231596D01*
X6367502Y-5376296D02*
X6369220Y-5368894D01*
X6573825Y-8863689D02*
X6573951Y-8866168D01*
X4042898Y-5376296D02*
X4042904Y-5376321D01*
X3971260Y-4019488D02*
X3975794Y-4021237D01*
X3787719Y-2268805D02*
X3787702Y-2268785D01*
X1500248Y-1500352D02*
X1500217Y-1500390D01*
X3725979Y-2221014D02*
X3723750Y-2219921D01*
X4046382Y-8915871D02*
X4048840Y-8923062D01*
X4036800Y-5326764D02*
X4036800Y-5326777D01*
X6174224Y-9054784D02*
X6174236Y-9054784D01*
X3844227Y-7179979D02*
X3842479Y-7175446D01*
X6371450Y-8883854D02*
X6371454Y-8883829D01*
X8894652Y-5849682D02*
X8893673Y-5847401D01*
X1541110Y-8976220D02*
X1542630Y-8978183D01*
X1509574Y-2338953D02*
X1508831Y-2341321D01*
X5407524Y-2188466D02*
X5403297Y-2186071D01*
X6573587Y-7635251D02*
X6573706Y-7640121D01*
X1593171Y-5496445D02*
X1595277Y-5497758D01*
X4073382Y-5442654D02*
X4073397Y-5442675D01*
X6712553Y-9045226D02*
X6714921Y-9045969D01*
X5359464Y-5597565D02*
X5360988Y-5592950D01*
X7892477Y-9165504D02*
X7892119Y-9160658D01*
X6744546Y-5729550D02*
X6742092Y-5729926D01*
X8904302Y-5878503D02*
X8904296Y-5878479D01*
X3836524Y-8864948D02*
X3836526Y-8864910D01*
X4079445Y-5450803D02*
X4084248Y-5456693D01*
X6371454Y-5356429D02*
X6372414Y-5348890D01*
X5360986Y-2134510D02*
X5359462Y-2129896D01*
X4227600Y-9054543D02*
X4227619Y-9054543D01*
X5055200Y-9153652D02*
X5055200Y-9155788D01*
X2508896Y-9111315D02*
X2510865Y-9115757D01*
X3876717Y-3694215D02*
X3872886Y-3691225D01*
X1638929Y-5517818D02*
X1638953Y-5517826D01*
X6364776Y-8913455D02*
X6366867Y-8906148D01*
X1500739Y-1999958D02*
X1500786Y-1999970D01*
X4022862Y-3665601D02*
X4020262Y-3669706D01*
X4033981Y-7166162D02*
X4032684Y-7170845D01*
X6251318Y-5511652D02*
X6253599Y-5510673D01*
X6241886Y-9042752D02*
X6244214Y-9041890D01*
X3812256Y-8950738D02*
X3815774Y-8944002D01*
X4215335Y-9053617D02*
X4217804Y-9053868D01*
X1658531Y-5731775D02*
X1658506Y-5731780D01*
X6373343Y-5336581D02*
X6373450Y-4112704D01*
X1500091Y-9255400D02*
X1500072Y-9255446D01*
X6295020Y-5486290D02*
X6296983Y-5484770D01*
X8749438Y-5731275D02*
X8749413Y-5731270D01*
X6652180Y-9013690D02*
X6652200Y-9013705D01*
X5439662Y-5726487D02*
X5434875Y-5725656D01*
X5430134Y-5724591D02*
X5425452Y-5723294D01*
X4121546Y-9018218D02*
X4123583Y-9019636D01*
X2818877Y-2089296D02*
X2819472Y-2084474D01*
X3801650Y-5440596D02*
X3805832Y-5434251D01*
X1504380Y-2358506D02*
X1504375Y-2358531D01*
X6413517Y-7221615D02*
X6409686Y-7218625D01*
X3707414Y-9041890D02*
X3707437Y-9041880D01*
X2424258Y-9254680D02*
X2419388Y-9254800D01*
X8901569Y-8913479D02*
X8901576Y-8913455D01*
X2517923Y-5638199D02*
X2517328Y-5643022D01*
X5444509Y-5527781D02*
X5449355Y-5527424D01*
X7559484Y-9229154D02*
X7555805Y-9232328D01*
X8910384Y-5926765D02*
X8910175Y-5918536D01*
X6205132Y-9052270D02*
X6212613Y-9050929D01*
X3705062Y-5739440D02*
X3697871Y-5736982D01*
X1500645Y-1500072D02*
X1500600Y-1500091D01*
X3636176Y-9054800D02*
X3637424Y-9054784D01*
X6304795Y-5478319D02*
X6304814Y-5478302D01*
X5026208Y-9083641D02*
X5029558Y-9087160D01*
X3930836Y-3713580D02*
X3925990Y-3713223D01*
X8875236Y-8968017D02*
X8875250Y-8967996D01*
X4041175Y-8896269D02*
X4041180Y-8896294D01*
X2912555Y-9054824D02*
X2917425Y-9054705D01*
X6182463Y-5527175D02*
X6182489Y-5527174D01*
X3782591Y-2263128D02*
X3780880Y-2261329D01*
X1501183Y-5348865D02*
X1501186Y-5348890D01*
X2912530Y-2200040D02*
X2907684Y-2199682D01*
X4032684Y-7170845D02*
X4031160Y-7175458D01*
X2492758Y-9087160D02*
X2495931Y-9090839D01*
X4042898Y-5878503D02*
X4041180Y-5885906D01*
X8910344Y-9754108D02*
X8910358Y-9754061D01*
X4053537Y-5847378D02*
X4053527Y-5847401D01*
X6353679Y-2313049D02*
X6352586Y-2310821D01*
X6357861Y-8932495D02*
X6360680Y-8925438D01*
X1563128Y-5473191D02*
X1563147Y-5473208D01*
X1660987Y-5731270D02*
X1660962Y-5731275D01*
X3801636Y-5440617D02*
X3801650Y-5440596D01*
X6712553Y-5736974D02*
X6712529Y-5736982D01*
X6288854Y-5763982D02*
X6286817Y-5762564D01*
X1508831Y-8913479D02*
X1509574Y-8915847D01*
X3685696Y-5521302D02*
X3685721Y-5521296D01*
X3741501Y-5497772D02*
X3741523Y-5497758D01*
X6430125Y-7550604D02*
X6434567Y-7548635D01*
X8861319Y-8985995D02*
X8862936Y-8984112D01*
X1500056Y-9255492D02*
X1500042Y-9255539D01*
X3768014Y-2249098D02*
X3767995Y-2249081D01*
X2818519Y-5633418D02*
X2818400Y-5628548D01*
X4147598Y-5506374D02*
X4147621Y-5506386D01*
X6215094Y-9050420D02*
X6222496Y-9048702D01*
X1500217Y-1500390D02*
X1500188Y-1500430D01*
X6650197Y-5770045D02*
X6644307Y-5774848D01*
X3961962Y-4016667D02*
X3966646Y-4017964D01*
X3832925Y-2360962D02*
X3832425Y-2358531D01*
X1500329Y-5916324D02*
X1500327Y-5916343D01*
X8833803Y-5770045D02*
X8833783Y-5770030D01*
X2461728Y-9245295D02*
X2457286Y-9247264D01*
X3697847Y-5517826D02*
X3697871Y-5517818D01*
X6262779Y-5506386D02*
X6262802Y-5506374D01*
X5366892Y-5579633D02*
X5369287Y-5575405D01*
X8903667Y-8906148D02*
X8903674Y-8906124D01*
X7893903Y-9134390D02*
X7894968Y-9129648D01*
X6376419Y-7616038D02*
X6377715Y-7611355D01*
X8893663Y-8934822D02*
X8893673Y-8934799D01*
X4035835Y-7625581D02*
X4036430Y-7630404D01*
X4045631Y-8913479D02*
X4046374Y-8915847D01*
X4147598Y-9033774D02*
X4147621Y-9033786D01*
X7512314Y-9252897D02*
X7507526Y-9253728D01*
X4056710Y-2313072D02*
X4053537Y-2319978D01*
X6286796Y-5492250D02*
X6286817Y-5492236D01*
X6367502Y-8903696D02*
X6369220Y-8896294D01*
X1501183Y-2378535D02*
X1500932Y-2381004D01*
X4062573Y-2301848D02*
X4062561Y-2301870D01*
X1530968Y-2293149D02*
X1530955Y-2293171D01*
X8839693Y-9007352D02*
X8839712Y-9007336D01*
X4092719Y-2261329D02*
X4091009Y-2263128D01*
X5355677Y-2089296D02*
X5356272Y-2084474D01*
X8720548Y-5727675D02*
X8720510Y-5727674D01*
X6369725Y-2360962D02*
X6369225Y-2358531D01*
X4038950Y-8883854D02*
X4039326Y-8886308D01*
X6576126Y-8886308D02*
X6576130Y-8886333D01*
X1584746Y-5490818D02*
X1586783Y-5492236D01*
X1500430Y-9754612D02*
X1500470Y-9754639D01*
X3695455Y-2208824D02*
X3688148Y-2206733D01*
X5052233Y-9129587D02*
X5053298Y-9134327D01*
X3836471Y-8865876D02*
X3836472Y-8865857D01*
X4140862Y-5502856D02*
X4147598Y-5506374D01*
X4046374Y-8915847D02*
X4046382Y-8915871D01*
X1554209Y-2263128D02*
X1554192Y-2263147D01*
X3645663Y-9054575D02*
X3645689Y-9054574D01*
X6652200Y-5768495D02*
X6652180Y-5768510D01*
X4123583Y-2235164D02*
X4121546Y-2236582D01*
X6215094Y-2204380D02*
X6215069Y-2204375D01*
X4071950Y-8967996D02*
X4071964Y-8968017D01*
X4149872Y-5507490D02*
X4156778Y-5510663D01*
X8910394Y-9753819D02*
X8910400Y-9753597D01*
X3902340Y-7235312D02*
X3897806Y-7233563D01*
X4027403Y-4070378D02*
X4029372Y-4074820D01*
X2495924Y-5691304D02*
X2492750Y-5694983D01*
X1502146Y-5356429D02*
X1502150Y-5356454D01*
X2820302Y-2079686D02*
X2821367Y-2074945D01*
X3645663Y-5527175D02*
X3645689Y-5527174D01*
X6371070Y-2368467D02*
X6369729Y-2360987D01*
X1530968Y-8961651D02*
X1535150Y-8967996D01*
X3734930Y-5753161D02*
X3732760Y-5751956D01*
X6599373Y-8952952D02*
X6603228Y-8959501D01*
X5049413Y-9189152D02*
X5047664Y-9193686D01*
X7592000Y-9153652D02*
X7592000Y-9155788D01*
X4168538Y-5739440D02*
X4168514Y-5739448D01*
X2489403Y-2028997D02*
X2492754Y-2032516D01*
X3821061Y-5849705D02*
X3821052Y-5849682D01*
X1668467Y-5524870D02*
X1668492Y-5524874D01*
D11*
D12*
X2493397Y-2195108D02*
X2543397Y-2245108D01*
X2543397Y-2195108D02*
X2493397Y-2245108D01*
X2493397Y-5722508D02*
X2543397Y-5772508D01*
X2543397Y-5722508D02*
X2493397Y-5772508D01*
X2493403Y-5482253D02*
X2543403Y-5532253D01*
X2543403Y-5482253D02*
X2493403Y-5532253D01*
X2493403Y-9009653D02*
X2543403Y-9059653D01*
X2543403Y-9009653D02*
X2493403Y-9059653D01*
X2593397Y-2195121D02*
X2643397Y-2245121D01*
X2643397Y-2195121D02*
X2593397Y-2245121D01*
X2593397Y-5722521D02*
X2643397Y-5772521D01*
X2643397Y-5722521D02*
X2593397Y-5772521D01*
X2593403Y-5482266D02*
X2643403Y-5532266D01*
X2643403Y-5482266D02*
X2593403Y-5532266D01*
X2593403Y-9009666D02*
X2643403Y-9059666D01*
X2643403Y-9009666D02*
X2593403Y-9059666D01*
X2693397Y-2195134D02*
X2743397Y-2245134D01*
X2743397Y-2195134D02*
X2693397Y-2245134D01*
X2693397Y-5722534D02*
X2743397Y-5772534D01*
X2743397Y-5722534D02*
X2693397Y-5772534D01*
X2693403Y-5482279D02*
X2743403Y-5532279D01*
X2743403Y-5482279D02*
X2693403Y-5532279D01*
X2693403Y-9009679D02*
X2743403Y-9059679D01*
X2743403Y-9009679D02*
X2693403Y-9059679D01*
X2793397Y-2195148D02*
X2843397Y-2245148D01*
X2843397Y-2195148D02*
X2793397Y-2245148D01*
X2793397Y-5722547D02*
X2843397Y-5772547D01*
X2843397Y-5722547D02*
X2793397Y-5772547D01*
X2793403Y-5482292D02*
X2843403Y-5532292D01*
X2843403Y-5482292D02*
X2793403Y-5532292D01*
X2793403Y-9009692D02*
X2843403Y-9059692D01*
X2843403Y-9009692D02*
X2793403Y-9059692D01*
X3791659Y-3988698D02*
X3841659Y-4038698D01*
X3841659Y-3988698D02*
X3791659Y-4038698D01*
X3791659Y-7516098D02*
X3841659Y-7566098D01*
X3841659Y-7516098D02*
X3791659Y-7566098D01*
X3791668Y-3888698D02*
X3841668Y-3938698D01*
X3841668Y-3888698D02*
X3791668Y-3938698D01*
X3791668Y-7416098D02*
X3841668Y-7466098D01*
X3841668Y-7416098D02*
X3791668Y-7466098D01*
X3791676Y-3788698D02*
X3841676Y-3838698D01*
X3841676Y-3788698D02*
X3791676Y-3838698D01*
X3791676Y-7316098D02*
X3841676Y-7366098D01*
X3841676Y-7316098D02*
X3791676Y-7366098D01*
X3791685Y-3688698D02*
X3841685Y-3738698D01*
X3841685Y-3688698D02*
X3791685Y-3738698D01*
X3791685Y-7216098D02*
X3841685Y-7266098D01*
X3841685Y-7216098D02*
X3791685Y-7266098D01*
X4031915Y-3988702D02*
X4081915Y-4038702D01*
X4081915Y-3988702D02*
X4031915Y-4038702D01*
X4031915Y-7516102D02*
X4081915Y-7566102D01*
X4081915Y-7516102D02*
X4031915Y-7566102D01*
X4031923Y-3888702D02*
X4081923Y-3938702D01*
X4081923Y-3888702D02*
X4031923Y-3938702D01*
X4031923Y-7416102D02*
X4081923Y-7466102D01*
X4081923Y-7416102D02*
X4031923Y-7466102D01*
X4031932Y-3788702D02*
X4081932Y-3838702D01*
X4081932Y-3788702D02*
X4031932Y-3838702D01*
X4031932Y-7316102D02*
X4081932Y-7366102D01*
X4081932Y-7316102D02*
X4031932Y-7366102D01*
X4031941Y-3688702D02*
X4081941Y-3738702D01*
X4081941Y-3688702D02*
X4031941Y-3738702D01*
X4031941Y-7216102D02*
X4081941Y-7266102D01*
X4081941Y-7216102D02*
X4031941Y-7266102D01*
X5030197Y-2195108D02*
X5080197Y-2245108D01*
X5080197Y-2195108D02*
X5030197Y-2245108D01*
X5030197Y-5722508D02*
X5080197Y-5772508D01*
X5080197Y-5722508D02*
X5030197Y-5772508D01*
X5030203Y-5482253D02*
X5080203Y-5532253D01*
X5080203Y-5482253D02*
X5030203Y-5532253D01*
X5030203Y-9009653D02*
X5080203Y-9059653D01*
X5080203Y-9009653D02*
X5030203Y-9059653D01*
X5130197Y-2195121D02*
X5180197Y-2245121D01*
X5180197Y-2195121D02*
X5130197Y-2245121D01*
X5130197Y-5722521D02*
X5180197Y-5772521D01*
X5180197Y-5722521D02*
X5130197Y-5772521D01*
X5130203Y-5482266D02*
X5180203Y-5532266D01*
X5180203Y-5482266D02*
X5130203Y-5532266D01*
X5130203Y-9009666D02*
X5180203Y-9059666D01*
X5180203Y-9009666D02*
X5130203Y-9059666D01*
X5230197Y-2195134D02*
X5280197Y-2245134D01*
X5280197Y-2195134D02*
X5230197Y-2245134D01*
X5230197Y-5722534D02*
X5280197Y-5772534D01*
X5280197Y-5722534D02*
X5230197Y-5772534D01*
X5230203Y-5482279D02*
X5280203Y-5532279D01*
X5280203Y-5482279D02*
X5230203Y-5532279D01*
X5230203Y-9009679D02*
X5280203Y-9059679D01*
X5280203Y-9009679D02*
X5230203Y-9059679D01*
X5330197Y-2195148D02*
X5380197Y-2245148D01*
X5380197Y-2195148D02*
X5330197Y-2245148D01*
X5330197Y-5722547D02*
X5380197Y-5772547D01*
X5380197Y-5722547D02*
X5330197Y-5772547D01*
X5330203Y-5482292D02*
X5380203Y-5532292D01*
X5380203Y-5482292D02*
X5330203Y-5532292D01*
X5330203Y-9009692D02*
X5380203Y-9059692D01*
X5380203Y-9009692D02*
X5330203Y-9059692D01*
X6328459Y-7516098D02*
X6378459Y-7566098D01*
X6378459Y-7516098D02*
X6328459Y-7566098D01*
X6328468Y-7416098D02*
X6378468Y-7466098D01*
X6378468Y-7416098D02*
X6328468Y-7466098D01*
X6328476Y-7316098D02*
X6378476Y-7366098D01*
X6378476Y-7316098D02*
X6328476Y-7366098D01*
X6328485Y-7216098D02*
X6378485Y-7266098D01*
X6378485Y-7216098D02*
X6328485Y-7266098D01*
X6568715Y-7516102D02*
X6618715Y-7566102D01*
X6618715Y-7516102D02*
X6568715Y-7566102D01*
X6568723Y-7416102D02*
X6618723Y-7466102D01*
X6618723Y-7416102D02*
X6568723Y-7466102D01*
X6568732Y-7316102D02*
X6618732Y-7366102D01*
X6618732Y-7316102D02*
X6568732Y-7366102D01*
X6568741Y-7216102D02*
X6618741Y-7266102D01*
X6618741Y-7216102D02*
X6568741Y-7266102D01*
X7567003Y-9009653D02*
X7617003Y-9059653D01*
X7617003Y-9009653D02*
X7567003Y-9059653D01*
X7667003Y-9009666D02*
X7717003Y-9059666D01*
X7717003Y-9009666D02*
X7667003Y-9059666D01*
X7767003Y-9009679D02*
X7817003Y-9059679D01*
X7817003Y-9009679D02*
X7767003Y-9059679D01*
X7867003Y-9009692D02*
X7917003Y-9059692D01*
X7917003Y-9009692D02*
X7867003Y-9059692D01*
D11*
X1752619Y-10070276D02*
X1752619Y-9870276D01*
X1800238Y-9870276D01*
X1828809Y-9879800D01*
X1847857Y-9898848D01*
X1857381Y-9917895D01*
X1866905Y-9955990D01*
X1866905Y-9984562D01*
X1857381Y-10022657D01*
X1847857Y-10041705D01*
X1828809Y-10060752D01*
X1800238Y-10070276D01*
X1752619Y-10070276D01*
X1952619Y-10070276D02*
X1952619Y-9936943D01*
X1952619Y-9975038D02*
X1962143Y-9955990D01*
X1971667Y-9946467D01*
X1990714Y-9936943D01*
X2009762Y-9936943D01*
X2076428Y-10070276D02*
X2076428Y-9936943D01*
X2076428Y-9870276D02*
X2066905Y-9879800D01*
X2076428Y-9889324D01*
X2085952Y-9879800D01*
X2076428Y-9870276D01*
X2076428Y-9889324D01*
X2200238Y-10070276D02*
X2181190Y-10060752D01*
X2171667Y-10041705D01*
X2171667Y-9870276D01*
X2305000Y-10070276D02*
X2285952Y-10060752D01*
X2276429Y-10041705D01*
X2276429Y-9870276D01*
X2533571Y-10070276D02*
X2533571Y-9870276D01*
X2600238Y-10013133D01*
X2666905Y-9870276D01*
X2666905Y-10070276D01*
X2847857Y-10070276D02*
X2847857Y-9965514D01*
X2838333Y-9946467D01*
X2819286Y-9936943D01*
X2781190Y-9936943D01*
X2762143Y-9946467D01*
X2847857Y-10060752D02*
X2828809Y-10070276D01*
X2781190Y-10070276D01*
X2762143Y-10060752D01*
X2752619Y-10041705D01*
X2752619Y-10022657D01*
X2762143Y-10003610D01*
X2781190Y-9994086D01*
X2828809Y-9994086D01*
X2847857Y-9984562D01*
X2943095Y-9936943D02*
X2943095Y-10136943D01*
X2943095Y-9946467D02*
X2962143Y-9936943D01*
X3000238Y-9936943D01*
X3019286Y-9946467D01*
X3028809Y-9955990D01*
X3038333Y-9975038D01*
X3038333Y-10032181D01*
X3028809Y-10051229D01*
X3019286Y-10060752D01*
X3000238Y-10070276D01*
X2962143Y-10070276D01*
X2943095Y-10060752D01*
X3124048Y-10051229D02*
X3133571Y-10060752D01*
X3124048Y-10070276D01*
X3114524Y-10060752D01*
X3124048Y-10051229D01*
X3124048Y-10070276D01*
X3124048Y-9946467D02*
X3133571Y-9955990D01*
X3124048Y-9965514D01*
X3114524Y-9955990D01*
X3124048Y-9946467D01*
X3124048Y-9965514D01*
D12*
X1445000Y-10374800D02*
X1495000Y-10424800D01*
X1495000Y-10374800D02*
X1445000Y-10424800D01*
D11*
X1790714Y-10290276D02*
X1809762Y-10290276D01*
X1828809Y-10299800D01*
X1838333Y-10309324D01*
X1847857Y-10328371D01*
X1857381Y-10366467D01*
X1857381Y-10414086D01*
X1847857Y-10452181D01*
X1838333Y-10471229D01*
X1828809Y-10480752D01*
X1809762Y-10490276D01*
X1790714Y-10490276D01*
X1771667Y-10480752D01*
X1762143Y-10471229D01*
X1752619Y-10452181D01*
X1743095Y-10414086D01*
X1743095Y-10366467D01*
X1752619Y-10328371D01*
X1762143Y-10309324D01*
X1771667Y-10299800D01*
X1790714Y-10290276D01*
X1943095Y-10471229D02*
X1952619Y-10480752D01*
X1943095Y-10490276D01*
X1933571Y-10480752D01*
X1943095Y-10471229D01*
X1943095Y-10490276D01*
X2133571Y-10290276D02*
X2038333Y-10290276D01*
X2028809Y-10385514D01*
X2038333Y-10375990D01*
X2057381Y-10366467D01*
X2105000Y-10366467D01*
X2124048Y-10375990D01*
X2133571Y-10385514D01*
X2143095Y-10404562D01*
X2143095Y-10452181D01*
X2133571Y-10471229D01*
X2124048Y-10480752D01*
X2105000Y-10490276D01*
X2057381Y-10490276D01*
X2038333Y-10480752D01*
X2028809Y-10471229D01*
X2266905Y-10290276D02*
X2285952Y-10290276D01*
X2305000Y-10299800D01*
X2314524Y-10309324D01*
X2324048Y-10328371D01*
X2333571Y-10366467D01*
X2333571Y-10414086D01*
X2324048Y-10452181D01*
X2314524Y-10471229D01*
X2305000Y-10480752D01*
X2285952Y-10490276D01*
X2266905Y-10490276D01*
X2247857Y-10480752D01*
X2238333Y-10471229D01*
X2228810Y-10452181D01*
X2219286Y-10414086D01*
X2219286Y-10366467D01*
X2228810Y-10328371D01*
X2238333Y-10309324D01*
X2247857Y-10299800D01*
X2266905Y-10290276D01*
X2457381Y-10290276D02*
X2476429Y-10290276D01*
X2495476Y-10299800D01*
X2505000Y-10309324D01*
X2514524Y-10328371D01*
X2524048Y-10366467D01*
X2524048Y-10414086D01*
X2514524Y-10452181D01*
X2505000Y-10471229D01*
X2495476Y-10480752D01*
X2476429Y-10490276D01*
X2457381Y-10490276D01*
X2438333Y-10480752D01*
X2428810Y-10471229D01*
X2419286Y-10452181D01*
X2409762Y-10414086D01*
X2409762Y-10366467D01*
X2419286Y-10328371D01*
X2428810Y-10309324D01*
X2438333Y-10299800D01*
X2457381Y-10290276D01*
X2609762Y-10490276D02*
X2609762Y-10356943D01*
X2609762Y-10375990D02*
X2619286Y-10366467D01*
X2638333Y-10356943D01*
X2666905Y-10356943D01*
X2685952Y-10366467D01*
X2695476Y-10385514D01*
X2695476Y-10490276D01*
X2695476Y-10385514D02*
X2705000Y-10366467D01*
X2724048Y-10356943D01*
X2752619Y-10356943D01*
X2771667Y-10366467D01*
X2781190Y-10385514D01*
X2781190Y-10490276D01*
X2876428Y-10490276D02*
X2876428Y-10356943D01*
X2876428Y-10375990D02*
X2885952Y-10366467D01*
X2905000Y-10356943D01*
X2933571Y-10356943D01*
X2952619Y-10366467D01*
X2962143Y-10385514D01*
X2962143Y-10490276D01*
X2962143Y-10385514D02*
X2971667Y-10366467D01*
X2990714Y-10356943D01*
X3019286Y-10356943D01*
X3038333Y-10366467D01*
X3047857Y-10385514D01*
X3047857Y-10490276D01*
X3438333Y-10280752D02*
X3266905Y-10537895D01*
X3695476Y-10290276D02*
X3714524Y-10290276D01*
X3733571Y-10299800D01*
X3743095Y-10309324D01*
X3752619Y-10328371D01*
X3762143Y-10366467D01*
X3762143Y-10414086D01*
X3752619Y-10452181D01*
X3743095Y-10471229D01*
X3733571Y-10480752D01*
X3714524Y-10490276D01*
X3695476Y-10490276D01*
X3676428Y-10480752D01*
X3666905Y-10471229D01*
X3657381Y-10452181D01*
X3647857Y-10414086D01*
X3647857Y-10366467D01*
X3657381Y-10328371D01*
X3666905Y-10309324D01*
X3676428Y-10299800D01*
X3695476Y-10290276D01*
X3847857Y-10471229D02*
X3857381Y-10480752D01*
X3847857Y-10490276D01*
X3838333Y-10480752D01*
X3847857Y-10471229D01*
X3847857Y-10490276D01*
X3981190Y-10290276D02*
X4000238Y-10290276D01*
X4019286Y-10299800D01*
X4028809Y-10309324D01*
X4038333Y-10328371D01*
X4047857Y-10366467D01*
X4047857Y-10414086D01*
X4038333Y-10452181D01*
X4028809Y-10471229D01*
X4019286Y-10480752D01*
X4000238Y-10490276D01*
X3981190Y-10490276D01*
X3962143Y-10480752D01*
X3952619Y-10471229D01*
X3943095Y-10452181D01*
X3933571Y-10414086D01*
X3933571Y-10366467D01*
X3943095Y-10328371D01*
X3952619Y-10309324D01*
X3962143Y-10299800D01*
X3981190Y-10290276D01*
X4238333Y-10490276D02*
X4124048Y-10490276D01*
X4181190Y-10490276D02*
X4181190Y-10290276D01*
X4162143Y-10318848D01*
X4143095Y-10337895D01*
X4124048Y-10347419D01*
X4333571Y-10490276D02*
X4371667Y-10490276D01*
X4390714Y-10480752D01*
X4400238Y-10471229D01*
X4419286Y-10442657D01*
X4428810Y-10404562D01*
X4428810Y-10328371D01*
X4419286Y-10309324D01*
X4409762Y-10299800D01*
X4390714Y-10290276D01*
X4352619Y-10290276D01*
X4333571Y-10299800D01*
X4324048Y-10309324D01*
X4314524Y-10328371D01*
X4314524Y-10375990D01*
X4324048Y-10395038D01*
X4333571Y-10404562D01*
X4352619Y-10414086D01*
X4390714Y-10414086D01*
X4409762Y-10404562D01*
X4419286Y-10395038D01*
X4428810Y-10375990D01*
X4495476Y-10290276D02*
X4628810Y-10290276D01*
X4543095Y-10490276D01*
X4695476Y-10290276D02*
X4695476Y-10328371D01*
X4771667Y-10290276D02*
X4771667Y-10328371D01*
X5066905Y-10566467D02*
X5057381Y-10556943D01*
X5038333Y-10528371D01*
X5028810Y-10509324D01*
X5019286Y-10480752D01*
X5009762Y-10433133D01*
X5009762Y-10395038D01*
X5019286Y-10347419D01*
X5028810Y-10318848D01*
X5038333Y-10299800D01*
X5057381Y-10271229D01*
X5066905Y-10261705D01*
X5228810Y-10290276D02*
X5190714Y-10290276D01*
X5171667Y-10299800D01*
X5162143Y-10309324D01*
X5143095Y-10337895D01*
X5133571Y-10375990D01*
X5133571Y-10452181D01*
X5143095Y-10471229D01*
X5152619Y-10480752D01*
X5171667Y-10490276D01*
X5209762Y-10490276D01*
X5228810Y-10480752D01*
X5238333Y-10471229D01*
X5247857Y-10452181D01*
X5247857Y-10404562D01*
X5238333Y-10385514D01*
X5228810Y-10375990D01*
X5209762Y-10366467D01*
X5171667Y-10366467D01*
X5152619Y-10375990D01*
X5143095Y-10385514D01*
X5133571Y-10404562D01*
X5371667Y-10290276D02*
X5390714Y-10290276D01*
X5409762Y-10299800D01*
X5419286Y-10309324D01*
X5428810Y-10328371D01*
X5438333Y-10366467D01*
X5438333Y-10414086D01*
X5428810Y-10452181D01*
X5419286Y-10471229D01*
X5409762Y-10480752D01*
X5390714Y-10490276D01*
X5371667Y-10490276D01*
X5352619Y-10480752D01*
X5343095Y-10471229D01*
X5333571Y-10452181D01*
X5324048Y-10414086D01*
X5324048Y-10366467D01*
X5333571Y-10328371D01*
X5343095Y-10309324D01*
X5352619Y-10299800D01*
X5371667Y-10290276D01*
X5676428Y-10490276D02*
X5676428Y-10290276D01*
X5762143Y-10490276D02*
X5762143Y-10385514D01*
X5752619Y-10366467D01*
X5733571Y-10356943D01*
X5705000Y-10356943D01*
X5685952Y-10366467D01*
X5676428Y-10375990D01*
X5885952Y-10490276D02*
X5866905Y-10480752D01*
X5857381Y-10471229D01*
X5847857Y-10452181D01*
X5847857Y-10395038D01*
X5857381Y-10375990D01*
X5866905Y-10366467D01*
X5885952Y-10356943D01*
X5914524Y-10356943D01*
X5933571Y-10366467D01*
X5943095Y-10375990D01*
X5952619Y-10395038D01*
X5952619Y-10452181D01*
X5943095Y-10471229D01*
X5933571Y-10480752D01*
X5914524Y-10490276D01*
X5885952Y-10490276D01*
X6066905Y-10490276D02*
X6047857Y-10480752D01*
X6038333Y-10461705D01*
X6038333Y-10290276D01*
X6219286Y-10480752D02*
X6200238Y-10490276D01*
X6162143Y-10490276D01*
X6143095Y-10480752D01*
X6133571Y-10461705D01*
X6133571Y-10385514D01*
X6143095Y-10366467D01*
X6162143Y-10356943D01*
X6200238Y-10356943D01*
X6219286Y-10366467D01*
X6228809Y-10385514D01*
X6228809Y-10404562D01*
X6133571Y-10423610D01*
X6305000Y-10480752D02*
X6324048Y-10490276D01*
X6362143Y-10490276D01*
X6381190Y-10480752D01*
X6390714Y-10461705D01*
X6390714Y-10452181D01*
X6381190Y-10433133D01*
X6362143Y-10423610D01*
X6333571Y-10423610D01*
X6314524Y-10414086D01*
X6305000Y-10395038D01*
X6305000Y-10385514D01*
X6314524Y-10366467D01*
X6333571Y-10356943D01*
X6362143Y-10356943D01*
X6381190Y-10366467D01*
X6457381Y-10566467D02*
X6466905Y-10556943D01*
X6485952Y-10528371D01*
X6495476Y-10509324D01*
X6505000Y-10480752D01*
X6514524Y-10433133D01*
X6514524Y-10395038D01*
X6505000Y-10347419D01*
X6495476Y-10318848D01*
X6485952Y-10299800D01*
X6466905Y-10271229D01*
X6457381Y-10261705D01*
X6819286Y-10566467D02*
X6809762Y-10556943D01*
X6790714Y-10528371D01*
X6781190Y-10509324D01*
X6771667Y-10480752D01*
X6762143Y-10433133D01*
X6762143Y-10395038D01*
X6771667Y-10347419D01*
X6781190Y-10318848D01*
X6790714Y-10299800D01*
X6809762Y-10271229D01*
X6819286Y-10261705D01*
X6895476Y-10356943D02*
X6895476Y-10490276D01*
X6895476Y-10375990D02*
X6905000Y-10366467D01*
X6924048Y-10356943D01*
X6952619Y-10356943D01*
X6971667Y-10366467D01*
X6981190Y-10385514D01*
X6981190Y-10490276D01*
X7105000Y-10490276D02*
X7085952Y-10480752D01*
X7076428Y-10471229D01*
X7066905Y-10452181D01*
X7066905Y-10395038D01*
X7076428Y-10375990D01*
X7085952Y-10366467D01*
X7105000Y-10356943D01*
X7133571Y-10356943D01*
X7152619Y-10366467D01*
X7162143Y-10375990D01*
X7171667Y-10395038D01*
X7171667Y-10452181D01*
X7162143Y-10471229D01*
X7152619Y-10480752D01*
X7133571Y-10490276D01*
X7105000Y-10490276D01*
X7228809Y-10356943D02*
X7305000Y-10356943D01*
X7257381Y-10290276D02*
X7257381Y-10461705D01*
X7266905Y-10480752D01*
X7285952Y-10490276D01*
X7305000Y-10490276D01*
X7524048Y-10356943D02*
X7524048Y-10556943D01*
X7524048Y-10366467D02*
X7543095Y-10356943D01*
X7581190Y-10356943D01*
X7600238Y-10366467D01*
X7609762Y-10375990D01*
X7619286Y-10395038D01*
X7619286Y-10452181D01*
X7609762Y-10471229D01*
X7600238Y-10480752D01*
X7581190Y-10490276D01*
X7543095Y-10490276D01*
X7524048Y-10480752D01*
X7733571Y-10490276D02*
X7714524Y-10480752D01*
X7705000Y-10461705D01*
X7705000Y-10290276D01*
X7895476Y-10490276D02*
X7895476Y-10385514D01*
X7885952Y-10366467D01*
X7866905Y-10356943D01*
X7828809Y-10356943D01*
X7809762Y-10366467D01*
X7895476Y-10480752D02*
X7876428Y-10490276D01*
X7828809Y-10490276D01*
X7809762Y-10480752D01*
X7800238Y-10461705D01*
X7800238Y-10442657D01*
X7809762Y-10423610D01*
X7828809Y-10414086D01*
X7876428Y-10414086D01*
X7895476Y-10404562D01*
X7962143Y-10356943D02*
X8038333Y-10356943D01*
X7990714Y-10290276D02*
X7990714Y-10461705D01*
X8000238Y-10480752D01*
X8019286Y-10490276D01*
X8038333Y-10490276D01*
X8181190Y-10480752D02*
X8162143Y-10490276D01*
X8124048Y-10490276D01*
X8105000Y-10480752D01*
X8095476Y-10461705D01*
X8095476Y-10385514D01*
X8105000Y-10366467D01*
X8124048Y-10356943D01*
X8162143Y-10356943D01*
X8181190Y-10366467D01*
X8190714Y-10385514D01*
X8190714Y-10404562D01*
X8095476Y-10423610D01*
X8362143Y-10490276D02*
X8362143Y-10290276D01*
X8362143Y-10480752D02*
X8343095Y-10490276D01*
X8305000Y-10490276D01*
X8285952Y-10480752D01*
X8276428Y-10471229D01*
X8266905Y-10452181D01*
X8266905Y-10395038D01*
X8276428Y-10375990D01*
X8285952Y-10366467D01*
X8305000Y-10356943D01*
X8343095Y-10356943D01*
X8362143Y-10366467D01*
X8438333Y-10566467D02*
X8447857Y-10556943D01*
X8466905Y-10528371D01*
X8476429Y-10509324D01*
X8485952Y-10480752D01*
X8495476Y-10433133D01*
X8495476Y-10395038D01*
X8485952Y-10347419D01*
X8476429Y-10318848D01*
X8466905Y-10299800D01*
X8447857Y-10271229D01*
X8438333Y-10261705D01*
M02*
