%TF.GenerationSoftware,KiCad,Pcbnew,(6.0.8)*%
%TF.CreationDate,2022-11-08T11:05:07+01:00*%
%TF.ProjectId,STM32G030F6P6,53544d33-3247-4303-9330-463650362e6b,2.0*%
%TF.SameCoordinates,Original*%
%TF.FileFunction,Soldermask,Top*%
%TF.FilePolarity,Negative*%
%FSLAX46Y46*%
G04 Gerber Fmt 4.6, Leading zero omitted, Abs format (unit mm)*
G04 Created by KiCad (PCBNEW (6.0.8)) date 2022-11-08 11:05:07*
%MOMM*%
%LPD*%
G01*
G04 APERTURE LIST*
G04 Aperture macros list*
%AMRoundRect*
0 Rectangle with rounded corners*
0 $1 Rounding radius*
0 $2 $3 $4 $5 $6 $7 $8 $9 X,Y pos of 4 corners*
0 Add a 4 corners polygon primitive as box body*
4,1,4,$2,$3,$4,$5,$6,$7,$8,$9,$2,$3,0*
0 Add four circle primitives for the rounded corners*
1,1,$1+$1,$2,$3*
1,1,$1+$1,$4,$5*
1,1,$1+$1,$6,$7*
1,1,$1+$1,$8,$9*
0 Add four rect primitives between the rounded corners*
20,1,$1+$1,$2,$3,$4,$5,0*
20,1,$1+$1,$4,$5,$6,$7,0*
20,1,$1+$1,$6,$7,$8,$9,0*
20,1,$1+$1,$8,$9,$2,$3,0*%
%AMFreePoly0*
4,1,22,0.500000,-0.750000,0.000000,-0.750000,0.000000,-0.745033,-0.079941,-0.743568,-0.215256,-0.701293,-0.333266,-0.622738,-0.424486,-0.514219,-0.481581,-0.384460,-0.499164,-0.250000,-0.500000,-0.250000,-0.500000,0.250000,-0.499164,0.250000,-0.499963,0.256109,-0.478152,0.396186,-0.417904,0.524511,-0.324060,0.630769,-0.204165,0.706417,-0.067858,0.745374,0.000000,0.744959,0.000000,0.750000,
0.500000,0.750000,0.500000,-0.750000,0.500000,-0.750000,$1*%
%AMFreePoly1*
4,1,20,0.000000,0.744959,0.073905,0.744508,0.209726,0.703889,0.328688,0.626782,0.421226,0.519385,0.479903,0.390333,0.500000,0.250000,0.500000,-0.250000,0.499851,-0.262216,0.476331,-0.402017,0.414519,-0.529596,0.319384,-0.634700,0.198574,-0.708877,0.061801,-0.746166,0.000000,-0.745033,0.000000,-0.750000,-0.500000,-0.750000,-0.500000,0.750000,0.000000,0.750000,0.000000,0.744959,
0.000000,0.744959,$1*%
G04 Aperture macros list end*
%ADD10R,1.700000X1.700000*%
%ADD11O,1.700000X1.700000*%
%ADD12RoundRect,0.250000X-0.475000X0.337500X-0.475000X-0.337500X0.475000X-0.337500X0.475000X0.337500X0*%
%ADD13RoundRect,0.250000X0.337500X0.475000X-0.337500X0.475000X-0.337500X-0.475000X0.337500X-0.475000X0*%
%ADD14C,0.500000*%
%ADD15RoundRect,0.250000X0.350000X0.450000X-0.350000X0.450000X-0.350000X-0.450000X0.350000X-0.450000X0*%
%ADD16R,0.900000X1.200000*%
%ADD17R,1.100000X1.100000*%
%ADD18RoundRect,0.150000X0.587500X0.150000X-0.587500X0.150000X-0.587500X-0.150000X0.587500X-0.150000X0*%
%ADD19RoundRect,0.100000X-0.637500X-0.100000X0.637500X-0.100000X0.637500X0.100000X-0.637500X0.100000X0*%
%ADD20R,1.100000X1.800000*%
%ADD21C,1.000000*%
%ADD22RoundRect,0.250000X-0.350000X-0.450000X0.350000X-0.450000X0.350000X0.450000X-0.350000X0.450000X0*%
%ADD23RoundRect,0.250000X0.450000X-0.325000X0.450000X0.325000X-0.450000X0.325000X-0.450000X-0.325000X0*%
%ADD24FreePoly0,0.000000*%
%ADD25FreePoly1,0.000000*%
%ADD26RoundRect,0.250000X-0.325000X-0.450000X0.325000X-0.450000X0.325000X0.450000X-0.325000X0.450000X0*%
G04 APERTURE END LIST*
D10*
%TO.C,J2*%
X72340000Y-58798000D03*
D11*
X74880000Y-58798000D03*
X77420000Y-58798000D03*
X79960000Y-58798000D03*
X82500000Y-58798000D03*
%TD*%
D12*
%TO.C,C3*%
X32295100Y-64759600D03*
X32295100Y-66834600D03*
%TD*%
D13*
%TO.C,C4*%
X30664000Y-44352000D03*
X28589000Y-44352000D03*
%TD*%
D12*
%TO.C,C3*%
X32295100Y-29485600D03*
X32295100Y-31560600D03*
%TD*%
D14*
%TO.C,REF\u002A\u002A*%
X53551973Y-22201475D03*
%TD*%
D15*
%TO.C,R1*%
X52560000Y-69339000D03*
X50560000Y-69339000D03*
%TD*%
D14*
%TO.C,REF\u002A\u002A*%
X53551973Y-57475474D03*
%TD*%
%TO.C,REF\u002A\u002A*%
X63534852Y-72410982D03*
%TD*%
D12*
%TO.C,C1*%
X18937000Y-37853500D03*
X18937000Y-39928500D03*
%TD*%
D16*
%TO.C,D1*%
X54592000Y-62608000D03*
X57892000Y-62608000D03*
%TD*%
D10*
%TO.C,J2*%
X46972000Y-58798000D03*
D11*
X49512000Y-58798000D03*
X52052000Y-58798000D03*
X54592000Y-58798000D03*
X57132000Y-58798000D03*
%TD*%
D12*
%TO.C,C1*%
X44305000Y-73127500D03*
X44305000Y-75202500D03*
%TD*%
D17*
%TO.C,D2*%
X21321600Y-62608000D03*
X24121600Y-62608000D03*
%TD*%
D12*
%TO.C,C5*%
X25818100Y-29485600D03*
X25818100Y-31560600D03*
%TD*%
D14*
%TO.C,REF\u002A\u002A*%
X77920026Y-90346789D03*
%TD*%
%TO.C,REF\u002A\u002A*%
X52551973Y-57475342D03*
%TD*%
%TO.C,REF\u002A\u002A*%
X51551973Y-22201211D03*
%TD*%
%TO.C,REF\u002A\u002A*%
X78920026Y-90346920D03*
%TD*%
%TO.C,REF\u002A\u002A*%
X75920026Y-90346525D03*
%TD*%
D12*
%TO.C,C5*%
X76554100Y-64759600D03*
X76554100Y-66834600D03*
%TD*%
D14*
%TO.C,REF\u002A\u002A*%
X40569322Y-73411017D03*
%TD*%
D12*
%TO.C,C3*%
X57663100Y-64759600D03*
X57663100Y-66834600D03*
%TD*%
D14*
%TO.C,REF\u002A\u002A*%
X26183974Y-57475210D03*
%TD*%
%TO.C,REF\u002A\u002A*%
X40569322Y-38137018D03*
%TD*%
D18*
%TO.C,U1*%
X30009100Y-31433600D03*
X30009100Y-29533600D03*
X28134100Y-30483600D03*
%TD*%
D19*
%TO.C,U2*%
X23551500Y-71875000D03*
X23551500Y-72525000D03*
X23551500Y-73175000D03*
X23551500Y-73825000D03*
X23551500Y-74475000D03*
X23551500Y-75125000D03*
X23551500Y-75775000D03*
X23551500Y-76425000D03*
X23551500Y-77075000D03*
X23551500Y-77725000D03*
X29276500Y-77725000D03*
X29276500Y-77075000D03*
X29276500Y-76425000D03*
X29276500Y-75775000D03*
X29276500Y-75125000D03*
X29276500Y-74475000D03*
X29276500Y-73825000D03*
X29276500Y-73175000D03*
X29276500Y-72525000D03*
X29276500Y-71875000D03*
%TD*%
D17*
%TO.C,D2*%
X72057600Y-62608000D03*
X74857600Y-62608000D03*
%TD*%
D14*
%TO.C,REF\u002A\u002A*%
X51551973Y-57475210D03*
%TD*%
D12*
%TO.C,C3*%
X57663100Y-29485600D03*
X57663100Y-31560600D03*
%TD*%
D20*
%TO.C,SW1*%
X28628000Y-46534000D03*
X28628000Y-52734000D03*
X32328000Y-46534000D03*
X32328000Y-52734000D03*
%TD*%
D14*
%TO.C,REF\u002A\u002A*%
X38166589Y-40136982D03*
%TD*%
D18*
%TO.C,U1*%
X55377100Y-66707600D03*
X55377100Y-64807600D03*
X53502100Y-65757600D03*
%TD*%
D13*
%TO.C,C4*%
X30664000Y-79626000D03*
X28589000Y-79626000D03*
%TD*%
D21*
%TO.C,REF\u002A\u002A*%
X17000000Y-17000000D03*
%TD*%
D14*
%TO.C,REF\u002A\u002A*%
X76920026Y-90346657D03*
%TD*%
D10*
%TO.C,J2*%
X21604000Y-58798000D03*
D11*
X24144000Y-58798000D03*
X26684000Y-58798000D03*
X29224000Y-58798000D03*
X31764000Y-58798000D03*
%TD*%
D10*
%TO.C,J2*%
X46972000Y-23524000D03*
D11*
X49512000Y-23524000D03*
X52052000Y-23524000D03*
X54592000Y-23524000D03*
X57132000Y-23524000D03*
%TD*%
D22*
%TO.C,R2*%
X21890000Y-48822400D03*
X23890000Y-48822400D03*
%TD*%
D13*
%TO.C,C4*%
X56032000Y-44352000D03*
X53957000Y-44352000D03*
%TD*%
D14*
%TO.C,REF\u002A\u002A*%
X25184027Y-90346525D03*
%TD*%
%TO.C,REF\u002A\u002A*%
X40569410Y-37137018D03*
%TD*%
D12*
%TO.C,C5*%
X51186100Y-64759600D03*
X51186100Y-66834600D03*
%TD*%
D20*
%TO.C,SW1*%
X28628000Y-81808000D03*
X28628000Y-88008000D03*
X32328000Y-81808000D03*
X32328000Y-88008000D03*
%TD*%
D22*
%TO.C,R2*%
X72626000Y-84096400D03*
X74626000Y-84096400D03*
%TD*%
D14*
%TO.C,REF\u002A\u002A*%
X25183974Y-57475079D03*
%TD*%
D12*
%TO.C,C2*%
X46337000Y-37853500D03*
X46337000Y-39928500D03*
%TD*%
D14*
%TO.C,REF\u002A\u002A*%
X25183974Y-22201080D03*
%TD*%
D23*
%TO.C,D3*%
X23659100Y-31560600D03*
X23659100Y-29510600D03*
%TD*%
D24*
%TO.C,JP1*%
X73021200Y-81658000D03*
D25*
X74321200Y-81658000D03*
%TD*%
D14*
%TO.C,REF\u002A\u002A*%
X27183973Y-22201343D03*
%TD*%
D18*
%TO.C,U1*%
X80745100Y-66707600D03*
X80745100Y-64807600D03*
X78870100Y-65757600D03*
%TD*%
D14*
%TO.C,REF\u002A\u002A*%
X27183973Y-57475342D03*
%TD*%
D20*
%TO.C,SW1*%
X53996000Y-46534000D03*
X53996000Y-52734000D03*
X57696000Y-46534000D03*
X57696000Y-52734000D03*
%TD*%
D14*
%TO.C,REF\u002A\u002A*%
X26184027Y-55072657D03*
%TD*%
%TO.C,REF\u002A\u002A*%
X28184026Y-90346920D03*
%TD*%
D15*
%TO.C,R1*%
X77928000Y-69339000D03*
X75928000Y-69339000D03*
%TD*%
D14*
%TO.C,REF\u002A\u002A*%
X53552026Y-55072920D03*
%TD*%
D19*
%TO.C,U2*%
X48919500Y-71875000D03*
X48919500Y-72525000D03*
X48919500Y-73175000D03*
X48919500Y-73825000D03*
X48919500Y-74475000D03*
X48919500Y-75125000D03*
X48919500Y-75775000D03*
X48919500Y-76425000D03*
X48919500Y-77075000D03*
X48919500Y-77725000D03*
X54644500Y-77725000D03*
X54644500Y-77075000D03*
X54644500Y-76425000D03*
X54644500Y-75775000D03*
X54644500Y-75125000D03*
X54644500Y-74475000D03*
X54644500Y-73825000D03*
X54644500Y-73175000D03*
X54644500Y-72525000D03*
X54644500Y-71875000D03*
%TD*%
D14*
%TO.C,REF\u002A\u002A*%
X52551973Y-22201343D03*
%TD*%
%TO.C,REF\u002A\u002A*%
X38166677Y-39136982D03*
%TD*%
D19*
%TO.C,U2*%
X23551500Y-36601000D03*
X23551500Y-37251000D03*
X23551500Y-37901000D03*
X23551500Y-38551000D03*
X23551500Y-39201000D03*
X23551500Y-39851000D03*
X23551500Y-40501000D03*
X23551500Y-41151000D03*
X23551500Y-41801000D03*
X23551500Y-42451000D03*
X29276500Y-42451000D03*
X29276500Y-41801000D03*
X29276500Y-41151000D03*
X29276500Y-40501000D03*
X29276500Y-39851000D03*
X29276500Y-39201000D03*
X29276500Y-38551000D03*
X29276500Y-37901000D03*
X29276500Y-37251000D03*
X29276500Y-36601000D03*
%TD*%
D22*
%TO.C,R2*%
X21890000Y-84096400D03*
X23890000Y-84096400D03*
%TD*%
D13*
%TO.C,C4*%
X81400000Y-79626000D03*
X79325000Y-79626000D03*
%TD*%
D14*
%TO.C,REF\u002A\u002A*%
X26184027Y-90346657D03*
%TD*%
%TO.C,REF\u002A\u002A*%
X38166852Y-72410982D03*
%TD*%
D22*
%TO.C,R2*%
X47258000Y-84096400D03*
X49258000Y-84096400D03*
%TD*%
D19*
%TO.C,U2*%
X48919500Y-36601000D03*
X48919500Y-37251000D03*
X48919500Y-37901000D03*
X48919500Y-38551000D03*
X48919500Y-39201000D03*
X48919500Y-39851000D03*
X48919500Y-40501000D03*
X48919500Y-41151000D03*
X48919500Y-41801000D03*
X48919500Y-42451000D03*
X54644500Y-42451000D03*
X54644500Y-41801000D03*
X54644500Y-41151000D03*
X54644500Y-40501000D03*
X54644500Y-39851000D03*
X54644500Y-39201000D03*
X54644500Y-38551000D03*
X54644500Y-37901000D03*
X54644500Y-37251000D03*
X54644500Y-36601000D03*
%TD*%
D14*
%TO.C,REF\u002A\u002A*%
X38166852Y-37136983D03*
%TD*%
D24*
%TO.C,JP1*%
X22285200Y-81658000D03*
D25*
X23585200Y-81658000D03*
%TD*%
D14*
%TO.C,REF\u002A\u002A*%
X51552026Y-55072657D03*
%TD*%
%TO.C,REF\u002A\u002A*%
X52552026Y-90346789D03*
%TD*%
%TO.C,REF\u002A\u002A*%
X65937147Y-75411017D03*
%TD*%
%TO.C,REF\u002A\u002A*%
X63534677Y-74410982D03*
%TD*%
%TO.C,REF\u002A\u002A*%
X40569147Y-40137017D03*
%TD*%
D16*
%TO.C,D1*%
X29224000Y-27334000D03*
X32524000Y-27334000D03*
%TD*%
D20*
%TO.C,SW1*%
X79364000Y-81808000D03*
X79364000Y-88008000D03*
X83064000Y-88008000D03*
X83064000Y-81808000D03*
%TD*%
D14*
%TO.C,REF\u002A\u002A*%
X28183973Y-57475474D03*
%TD*%
%TO.C,REF\u002A\u002A*%
X38166677Y-74410982D03*
%TD*%
D17*
%TO.C,D2*%
X21321600Y-27334000D03*
X24121600Y-27334000D03*
%TD*%
D24*
%TO.C,JP1*%
X22285200Y-46384000D03*
D25*
X23585200Y-46384000D03*
%TD*%
D15*
%TO.C,R1*%
X27192000Y-34065000D03*
X25192000Y-34065000D03*
%TD*%
D26*
%TO.C,D4*%
X21824000Y-86230000D03*
X23874000Y-86230000D03*
%TD*%
D21*
%TO.C,REF\u002A\u002A*%
X17000000Y-95548000D03*
%TD*%
D13*
%TO.C,C4*%
X56032000Y-79626000D03*
X53957000Y-79626000D03*
%TD*%
D12*
%TO.C,C3*%
X83031100Y-64759600D03*
X83031100Y-66834600D03*
%TD*%
%TO.C,C2*%
X46337000Y-73127500D03*
X46337000Y-75202500D03*
%TD*%
D14*
%TO.C,REF\u002A\u002A*%
X40569147Y-75411017D03*
%TD*%
D16*
%TO.C,D1*%
X29224000Y-62608000D03*
X32524000Y-62608000D03*
%TD*%
D12*
%TO.C,C1*%
X44305000Y-37853500D03*
X44305000Y-39928500D03*
%TD*%
D23*
%TO.C,D3*%
X23659100Y-66834600D03*
X23659100Y-64784600D03*
%TD*%
D18*
%TO.C,U1*%
X55377100Y-31433600D03*
X55377100Y-29533600D03*
X53502100Y-30483600D03*
%TD*%
D26*
%TO.C,D4*%
X47192000Y-50956000D03*
X49242000Y-50956000D03*
%TD*%
D24*
%TO.C,JP1*%
X47653200Y-81658000D03*
D25*
X48953200Y-81658000D03*
%TD*%
D12*
%TO.C,C2*%
X20969000Y-73127500D03*
X20969000Y-75202500D03*
%TD*%
D14*
%TO.C,REF\u002A\u002A*%
X52552026Y-55072789D03*
%TD*%
%TO.C,REF\u002A\u002A*%
X27184026Y-55072789D03*
%TD*%
%TO.C,REF\u002A\u002A*%
X50552026Y-90346525D03*
%TD*%
%TO.C,REF\u002A\u002A*%
X40569235Y-74411017D03*
%TD*%
D23*
%TO.C,D3*%
X49027100Y-66834600D03*
X49027100Y-64784600D03*
%TD*%
D14*
%TO.C,REF\u002A\u002A*%
X50552026Y-55072525D03*
%TD*%
D12*
%TO.C,C5*%
X51186100Y-29485600D03*
X51186100Y-31560600D03*
%TD*%
D17*
%TO.C,D2*%
X46689600Y-62608000D03*
X49489600Y-62608000D03*
%TD*%
D14*
%TO.C,REF\u002A\u002A*%
X65937235Y-74411017D03*
%TD*%
D23*
%TO.C,D3*%
X74395100Y-66834600D03*
X74395100Y-64784600D03*
%TD*%
D14*
%TO.C,REF\u002A\u002A*%
X63534589Y-75410982D03*
%TD*%
%TO.C,REF\u002A\u002A*%
X38166764Y-38136983D03*
%TD*%
%TO.C,REF\u002A\u002A*%
X65937410Y-72411017D03*
%TD*%
D20*
%TO.C,SW1*%
X53996000Y-81808000D03*
X53996000Y-88008000D03*
X57696000Y-88008000D03*
X57696000Y-81808000D03*
%TD*%
D17*
%TO.C,D2*%
X46689600Y-27334000D03*
X49489600Y-27334000D03*
%TD*%
D12*
%TO.C,C2*%
X20969000Y-37853500D03*
X20969000Y-39928500D03*
%TD*%
D10*
%TO.C,J2*%
X21604000Y-23524000D03*
D11*
X24144000Y-23524000D03*
X26684000Y-23524000D03*
X29224000Y-23524000D03*
X31764000Y-23524000D03*
%TD*%
D12*
%TO.C,C5*%
X25818100Y-64759600D03*
X25818100Y-66834600D03*
%TD*%
D15*
%TO.C,R1*%
X27192000Y-69339000D03*
X25192000Y-69339000D03*
%TD*%
D14*
%TO.C,REF\u002A\u002A*%
X25184027Y-55072525D03*
%TD*%
%TO.C,REF\u002A\u002A*%
X28183973Y-22201475D03*
%TD*%
%TO.C,REF\u002A\u002A*%
X38166589Y-75410982D03*
%TD*%
D16*
%TO.C,D1*%
X54592000Y-27334000D03*
X57892000Y-27334000D03*
%TD*%
D12*
%TO.C,C2*%
X71705000Y-73127500D03*
X71705000Y-75202500D03*
%TD*%
D24*
%TO.C,JP1*%
X47653200Y-46384000D03*
D25*
X48953200Y-46384000D03*
%TD*%
D15*
%TO.C,R1*%
X52560000Y-34065000D03*
X50560000Y-34065000D03*
%TD*%
D14*
%TO.C,REF\u002A\u002A*%
X50551973Y-22201080D03*
%TD*%
%TO.C,REF\u002A\u002A*%
X27184026Y-90346789D03*
%TD*%
D12*
%TO.C,C1*%
X69673000Y-73127500D03*
X69673000Y-75202500D03*
%TD*%
D22*
%TO.C,R2*%
X47258000Y-48822400D03*
X49258000Y-48822400D03*
%TD*%
D14*
%TO.C,REF\u002A\u002A*%
X26183974Y-22201211D03*
%TD*%
%TO.C,REF\u002A\u002A*%
X28184026Y-55072920D03*
%TD*%
%TO.C,REF\u002A\u002A*%
X51552026Y-90346657D03*
%TD*%
%TO.C,REF\u002A\u002A*%
X50551973Y-57475079D03*
%TD*%
D23*
%TO.C,D3*%
X49027100Y-31560600D03*
X49027100Y-29510600D03*
%TD*%
D26*
%TO.C,D4*%
X72560000Y-86230000D03*
X74610000Y-86230000D03*
%TD*%
D14*
%TO.C,REF\u002A\u002A*%
X65937322Y-73411017D03*
%TD*%
D18*
%TO.C,U1*%
X30009100Y-66707600D03*
X30009100Y-64807600D03*
X28134100Y-65757600D03*
%TD*%
D26*
%TO.C,D4*%
X21824000Y-50956000D03*
X23874000Y-50956000D03*
%TD*%
D16*
%TO.C,D1*%
X79960000Y-62608000D03*
X83260000Y-62608000D03*
%TD*%
D14*
%TO.C,REF\u002A\u002A*%
X40569235Y-39137017D03*
%TD*%
%TO.C,REF\u002A\u002A*%
X63534764Y-73410982D03*
%TD*%
%TO.C,REF\u002A\u002A*%
X40569410Y-72411017D03*
%TD*%
%TO.C,REF\u002A\u002A*%
X53552026Y-90346920D03*
%TD*%
D12*
%TO.C,C1*%
X18937000Y-73127500D03*
X18937000Y-75202500D03*
%TD*%
D26*
%TO.C,D4*%
X47192000Y-86230000D03*
X49242000Y-86230000D03*
%TD*%
D19*
%TO.C,U2*%
X74287500Y-71875000D03*
X74287500Y-72525000D03*
X74287500Y-73175000D03*
X74287500Y-73825000D03*
X74287500Y-74475000D03*
X74287500Y-75125000D03*
X74287500Y-75775000D03*
X74287500Y-76425000D03*
X74287500Y-77075000D03*
X74287500Y-77725000D03*
X80012500Y-77725000D03*
X80012500Y-77075000D03*
X80012500Y-76425000D03*
X80012500Y-75775000D03*
X80012500Y-75125000D03*
X80012500Y-74475000D03*
X80012500Y-73825000D03*
X80012500Y-73175000D03*
X80012500Y-72525000D03*
X80012500Y-71875000D03*
%TD*%
D14*
%TO.C,REF\u002A\u002A*%
X38166764Y-73410982D03*
%TD*%
D10*
%TO.C,J3*%
X62212000Y-62608000D03*
D11*
X62212000Y-65148000D03*
X62212000Y-67688000D03*
X62212000Y-70228000D03*
X62212000Y-72768000D03*
X62212000Y-75308000D03*
X62212000Y-77848000D03*
X62212000Y-80388000D03*
X62212000Y-82928000D03*
X62212000Y-85468000D03*
X62212000Y-88008000D03*
%TD*%
D10*
%TO.C,J3*%
X36844000Y-62608000D03*
D11*
X36844000Y-65148000D03*
X36844000Y-67688000D03*
X36844000Y-70228000D03*
X36844000Y-72768000D03*
X36844000Y-75308000D03*
X36844000Y-77848000D03*
X36844000Y-80388000D03*
X36844000Y-82928000D03*
X36844000Y-85468000D03*
X36844000Y-88008000D03*
%TD*%
D10*
%TO.C,J3*%
X87580000Y-62608000D03*
D11*
X87580000Y-65148000D03*
X87580000Y-67688000D03*
X87580000Y-70228000D03*
X87580000Y-72768000D03*
X87580000Y-75308000D03*
X87580000Y-77848000D03*
X87580000Y-80388000D03*
X87580000Y-82928000D03*
X87580000Y-85468000D03*
X87580000Y-88008000D03*
%TD*%
D10*
%TO.C,J1*%
X16524000Y-27334000D03*
D11*
X16524000Y-29874000D03*
X16524000Y-32414000D03*
X16524000Y-34954000D03*
X16524000Y-37494000D03*
X16524000Y-40034000D03*
X16524000Y-42574000D03*
X16524000Y-45114000D03*
X16524000Y-47654000D03*
X16524000Y-50194000D03*
X16524000Y-52734000D03*
%TD*%
D10*
%TO.C,J1*%
X67260000Y-62608000D03*
D11*
X67260000Y-65148000D03*
X67260000Y-67688000D03*
X67260000Y-70228000D03*
X67260000Y-72768000D03*
X67260000Y-75308000D03*
X67260000Y-77848000D03*
X67260000Y-80388000D03*
X67260000Y-82928000D03*
X67260000Y-85468000D03*
X67260000Y-88008000D03*
%TD*%
D10*
%TO.C,J1*%
X16524000Y-62608000D03*
D11*
X16524000Y-65148000D03*
X16524000Y-67688000D03*
X16524000Y-70228000D03*
X16524000Y-72768000D03*
X16524000Y-75308000D03*
X16524000Y-77848000D03*
X16524000Y-80388000D03*
X16524000Y-82928000D03*
X16524000Y-85468000D03*
X16524000Y-88008000D03*
%TD*%
D10*
%TO.C,J1*%
X41892000Y-62608000D03*
D11*
X41892000Y-65148000D03*
X41892000Y-67688000D03*
X41892000Y-70228000D03*
X41892000Y-72768000D03*
X41892000Y-75308000D03*
X41892000Y-77848000D03*
X41892000Y-80388000D03*
X41892000Y-82928000D03*
X41892000Y-85468000D03*
X41892000Y-88008000D03*
%TD*%
D10*
%TO.C,J3*%
X62212000Y-27334000D03*
D11*
X62212000Y-29874000D03*
X62212000Y-32414000D03*
X62212000Y-34954000D03*
X62212000Y-37494000D03*
X62212000Y-40034000D03*
X62212000Y-42574000D03*
X62212000Y-45114000D03*
X62212000Y-47654000D03*
X62212000Y-50194000D03*
X62212000Y-52734000D03*
%TD*%
D10*
%TO.C,J1*%
X41892000Y-27334000D03*
D11*
X41892000Y-29874000D03*
X41892000Y-32414000D03*
X41892000Y-34954000D03*
X41892000Y-37494000D03*
X41892000Y-40034000D03*
X41892000Y-42574000D03*
X41892000Y-45114000D03*
X41892000Y-47654000D03*
X41892000Y-50194000D03*
X41892000Y-52734000D03*
%TD*%
D10*
%TO.C,J3*%
X36844000Y-27334000D03*
D11*
X36844000Y-29874000D03*
X36844000Y-32414000D03*
X36844000Y-34954000D03*
X36844000Y-37494000D03*
X36844000Y-40034000D03*
X36844000Y-42574000D03*
X36844000Y-45114000D03*
X36844000Y-47654000D03*
X36844000Y-50194000D03*
X36844000Y-52734000D03*
%TD*%
M02*
