%TF.GenerationSoftware,KiCad,Pcbnew,(6.0.8)*%
%TF.CreationDate,2022-11-08T11:05:07+01:00*%
%TF.ProjectId,STM32G030F6P6,53544d33-3247-4303-9330-463650362e6b,2.0*%
%TF.SameCoordinates,Original*%
%TF.FileFunction,Legend,Top*%
%TF.FilePolarity,Positive*%
%FSLAX46Y46*%
G04 Gerber Fmt 4.6, Leading zero omitted, Abs format (unit mm)*
G04 Created by KiCad (PCBNEW (6.0.8)) date 2022-11-08 11:05:07*
%MOMM*%
%LPD*%
G01*
G04 APERTURE LIST*
%ADD10C,0.150000*%
%ADD11C,0.200000*%
%ADD12C,0.300000*%
%ADD13C,0.120000*%
G04 APERTURE END LIST*
D10*
X57116667Y-84909200D02*
G75*
G03*
X57116667Y-84909200I-1254667J0D01*
G01*
X57116667Y-49635200D02*
G75*
G03*
X57116667Y-49635200I-1254667J0D01*
G01*
X31748667Y-49635200D02*
G75*
G03*
X31748667Y-49635200I-1254667J0D01*
G01*
X31748667Y-84909200D02*
G75*
G03*
X31748667Y-84909200I-1254667J0D01*
G01*
X82484667Y-84909200D02*
G75*
G03*
X82484667Y-84909200I-1254667J0D01*
G01*
D11*
X83614952Y-70589904D02*
X83614952Y-69789904D01*
X83919714Y-69789904D01*
X83995904Y-69828000D01*
X84034000Y-69866095D01*
X84072095Y-69942285D01*
X84072095Y-70056571D01*
X84034000Y-70132761D01*
X83995904Y-70170857D01*
X83919714Y-70208952D01*
X83614952Y-70208952D01*
X84376857Y-70361333D02*
X84757809Y-70361333D01*
X84300666Y-70589904D02*
X84567333Y-69789904D01*
X84834000Y-70589904D01*
X85519714Y-70589904D02*
X85062571Y-70589904D01*
X85291142Y-70589904D02*
X85291142Y-69789904D01*
X85214952Y-69904190D01*
X85138761Y-69980380D01*
X85062571Y-70018476D01*
X86205428Y-70056571D02*
X86205428Y-70589904D01*
X86014952Y-69751809D02*
X85824476Y-70323238D01*
X86319714Y-70323238D01*
D10*
X49690095Y-25930609D02*
X49804380Y-25968704D01*
X49994857Y-25968704D01*
X50071047Y-25930609D01*
X50109142Y-25892514D01*
X50147238Y-25816323D01*
X50147238Y-25740133D01*
X50109142Y-25663942D01*
X50071047Y-25625847D01*
X49994857Y-25587752D01*
X49842476Y-25549657D01*
X49766285Y-25511561D01*
X49728190Y-25473466D01*
X49690095Y-25397276D01*
X49690095Y-25321085D01*
X49728190Y-25244895D01*
X49766285Y-25206800D01*
X49842476Y-25168704D01*
X50032952Y-25168704D01*
X50147238Y-25206800D01*
X50375809Y-25168704D02*
X50832952Y-25168704D01*
X50604380Y-25968704D02*
X50604380Y-25168704D01*
X51099619Y-25663942D02*
X51709142Y-25663942D01*
X52471047Y-25968704D02*
X52090095Y-25968704D01*
X52090095Y-25168704D01*
X52737714Y-25968704D02*
X52737714Y-25168704D01*
X53118666Y-25968704D02*
X53118666Y-25168704D01*
X53575809Y-25968704D01*
X53575809Y-25168704D01*
X53956761Y-25968704D02*
X53956761Y-25168704D01*
X54413904Y-25968704D02*
X54071047Y-25511561D01*
X54413904Y-25168704D02*
X53956761Y-25625847D01*
D11*
X17784285Y-62169904D02*
X18279523Y-62169904D01*
X18012857Y-62474666D01*
X18127142Y-62474666D01*
X18203333Y-62512761D01*
X18241428Y-62550857D01*
X18279523Y-62627047D01*
X18279523Y-62817523D01*
X18241428Y-62893714D01*
X18203333Y-62931809D01*
X18127142Y-62969904D01*
X17898571Y-62969904D01*
X17822380Y-62931809D01*
X17784285Y-62893714D01*
X18508095Y-62169904D02*
X18774761Y-62969904D01*
X19041428Y-62169904D01*
X19231904Y-62169904D02*
X19727142Y-62169904D01*
X19460476Y-62474666D01*
X19574761Y-62474666D01*
X19650952Y-62512761D01*
X19689047Y-62550857D01*
X19727142Y-62627047D01*
X19727142Y-62817523D01*
X19689047Y-62893714D01*
X19650952Y-62931809D01*
X19574761Y-62969904D01*
X19346190Y-62969904D01*
X19270000Y-62931809D01*
X19231904Y-62893714D01*
X33640857Y-53095904D02*
X33640857Y-52295904D01*
X33945619Y-52295904D01*
X34021809Y-52334000D01*
X34059904Y-52372095D01*
X34098000Y-52448285D01*
X34098000Y-52562571D01*
X34059904Y-52638761D01*
X34021809Y-52676857D01*
X33945619Y-52714952D01*
X33640857Y-52714952D01*
X34402761Y-52867333D02*
X34783714Y-52867333D01*
X34326571Y-53095904D02*
X34593238Y-52295904D01*
X34859904Y-53095904D01*
X35507523Y-52295904D02*
X35126571Y-52295904D01*
X35088476Y-52676857D01*
X35126571Y-52638761D01*
X35202761Y-52600666D01*
X35393238Y-52600666D01*
X35469428Y-52638761D01*
X35507523Y-52676857D01*
X35545619Y-52753047D01*
X35545619Y-52943523D01*
X35507523Y-53019714D01*
X35469428Y-53057809D01*
X35393238Y-53095904D01*
X35202761Y-53095904D01*
X35126571Y-53057809D01*
X35088476Y-53019714D01*
X58246952Y-37855904D02*
X58246952Y-37055904D01*
X58551714Y-37055904D01*
X58627904Y-37094000D01*
X58666000Y-37132095D01*
X58704095Y-37208285D01*
X58704095Y-37322571D01*
X58666000Y-37398761D01*
X58627904Y-37436857D01*
X58551714Y-37474952D01*
X58246952Y-37474952D01*
X59008857Y-37627333D02*
X59389809Y-37627333D01*
X58932666Y-37855904D02*
X59199333Y-37055904D01*
X59466000Y-37855904D01*
X60151714Y-37855904D02*
X59694571Y-37855904D01*
X59923142Y-37855904D02*
X59923142Y-37055904D01*
X59846952Y-37170190D01*
X59770761Y-37246380D01*
X59694571Y-37284476D01*
X60418380Y-37055904D02*
X60913619Y-37055904D01*
X60646952Y-37360666D01*
X60761238Y-37360666D01*
X60837428Y-37398761D01*
X60875523Y-37436857D01*
X60913619Y-37513047D01*
X60913619Y-37703523D01*
X60875523Y-37779714D01*
X60837428Y-37817809D01*
X60761238Y-37855904D01*
X60532666Y-37855904D01*
X60456476Y-37817809D01*
X60418380Y-37779714D01*
X58246952Y-70589904D02*
X58246952Y-69789904D01*
X58551714Y-69789904D01*
X58627904Y-69828000D01*
X58666000Y-69866095D01*
X58704095Y-69942285D01*
X58704095Y-70056571D01*
X58666000Y-70132761D01*
X58627904Y-70170857D01*
X58551714Y-70208952D01*
X58246952Y-70208952D01*
X59008857Y-70361333D02*
X59389809Y-70361333D01*
X58932666Y-70589904D02*
X59199333Y-69789904D01*
X59466000Y-70589904D01*
X60151714Y-70589904D02*
X59694571Y-70589904D01*
X59923142Y-70589904D02*
X59923142Y-69789904D01*
X59846952Y-69904190D01*
X59770761Y-69980380D01*
X59694571Y-70018476D01*
X60837428Y-70056571D02*
X60837428Y-70589904D01*
X60646952Y-69751809D02*
X60456476Y-70323238D01*
X60951714Y-70323238D01*
X84376857Y-83289904D02*
X84376857Y-82489904D01*
X84681619Y-82489904D01*
X84757809Y-82528000D01*
X84795904Y-82566095D01*
X84834000Y-82642285D01*
X84834000Y-82756571D01*
X84795904Y-82832761D01*
X84757809Y-82870857D01*
X84681619Y-82908952D01*
X84376857Y-82908952D01*
X85138761Y-83061333D02*
X85519714Y-83061333D01*
X85062571Y-83289904D02*
X85329238Y-82489904D01*
X85595904Y-83289904D01*
X85786380Y-82489904D02*
X86319714Y-82489904D01*
X85976857Y-83289904D01*
D12*
X45206228Y-94594971D02*
X45206228Y-95666400D01*
X45134800Y-95880685D01*
X44991942Y-96023542D01*
X44777657Y-96094971D01*
X44634800Y-96094971D01*
X46634800Y-96094971D02*
X45920514Y-96094971D01*
X45920514Y-94594971D01*
X47991942Y-95952114D02*
X47920514Y-96023542D01*
X47706228Y-96094971D01*
X47563371Y-96094971D01*
X47349085Y-96023542D01*
X47206228Y-95880685D01*
X47134800Y-95737828D01*
X47063371Y-95452114D01*
X47063371Y-95237828D01*
X47134800Y-94952114D01*
X47206228Y-94809257D01*
X47349085Y-94666400D01*
X47563371Y-94594971D01*
X47706228Y-94594971D01*
X47920514Y-94666400D01*
X47991942Y-94737828D01*
X49063371Y-94594971D02*
X49063371Y-95666400D01*
X48991942Y-95880685D01*
X48849085Y-96023542D01*
X48634800Y-96094971D01*
X48491942Y-96094971D01*
X50491942Y-96094971D02*
X49777657Y-96094971D01*
X49777657Y-94594971D01*
X51849085Y-95952114D02*
X51777657Y-96023542D01*
X51563371Y-96094971D01*
X51420514Y-96094971D01*
X51206228Y-96023542D01*
X51063371Y-95880685D01*
X50991942Y-95737828D01*
X50920514Y-95452114D01*
X50920514Y-95237828D01*
X50991942Y-94952114D01*
X51063371Y-94809257D01*
X51206228Y-94666400D01*
X51420514Y-94594971D01*
X51563371Y-94594971D01*
X51777657Y-94666400D01*
X51849085Y-94737828D01*
X52920514Y-94594971D02*
X52920514Y-95666400D01*
X52849085Y-95880685D01*
X52706228Y-96023542D01*
X52491942Y-96094971D01*
X52349085Y-96094971D01*
X54349085Y-96094971D02*
X53634800Y-96094971D01*
X53634800Y-94594971D01*
X55706228Y-95952114D02*
X55634800Y-96023542D01*
X55420514Y-96094971D01*
X55277657Y-96094971D01*
X55063371Y-96023542D01*
X54920514Y-95880685D01*
X54849085Y-95737828D01*
X54777657Y-95452114D01*
X54777657Y-95237828D01*
X54849085Y-94952114D01*
X54920514Y-94809257D01*
X55063371Y-94666400D01*
X55277657Y-94594971D01*
X55420514Y-94594971D01*
X55634800Y-94666400D01*
X55706228Y-94737828D01*
X56777657Y-94594971D02*
X56777657Y-95666400D01*
X56706228Y-95880685D01*
X56563371Y-96023542D01*
X56349085Y-96094971D01*
X56206228Y-96094971D01*
X58206228Y-96094971D02*
X57491942Y-96094971D01*
X57491942Y-94594971D01*
X59563371Y-95952114D02*
X59491942Y-96023542D01*
X59277657Y-96094971D01*
X59134800Y-96094971D01*
X58920514Y-96023542D01*
X58777657Y-95880685D01*
X58706228Y-95737828D01*
X58634800Y-95452114D01*
X58634800Y-95237828D01*
X58706228Y-94952114D01*
X58777657Y-94809257D01*
X58920514Y-94666400D01*
X59134800Y-94594971D01*
X59277657Y-94594971D01*
X59491942Y-94666400D01*
X59563371Y-94737828D01*
D11*
X58246952Y-75669904D02*
X58246952Y-74869904D01*
X58551714Y-74869904D01*
X58627904Y-74908000D01*
X58666000Y-74946095D01*
X58704095Y-75022285D01*
X58704095Y-75136571D01*
X58666000Y-75212761D01*
X58627904Y-75250857D01*
X58551714Y-75288952D01*
X58246952Y-75288952D01*
X59008857Y-75441333D02*
X59389809Y-75441333D01*
X58932666Y-75669904D02*
X59199333Y-74869904D01*
X59466000Y-75669904D01*
X60151714Y-75669904D02*
X59694571Y-75669904D01*
X59923142Y-75669904D02*
X59923142Y-74869904D01*
X59846952Y-74984190D01*
X59770761Y-75060380D01*
X59694571Y-75098476D01*
X60456476Y-74946095D02*
X60494571Y-74908000D01*
X60570761Y-74869904D01*
X60761238Y-74869904D01*
X60837428Y-74908000D01*
X60875523Y-74946095D01*
X60913619Y-75022285D01*
X60913619Y-75098476D01*
X60875523Y-75212761D01*
X60418380Y-75669904D01*
X60913619Y-75669904D01*
X43101476Y-72240904D02*
X43101476Y-71440904D01*
X43406238Y-71440904D01*
X43482428Y-71479000D01*
X43520523Y-71517095D01*
X43558619Y-71593285D01*
X43558619Y-71707571D01*
X43520523Y-71783761D01*
X43482428Y-71821857D01*
X43406238Y-71859952D01*
X43101476Y-71859952D01*
X44358619Y-72164714D02*
X44320523Y-72202809D01*
X44206238Y-72240904D01*
X44130047Y-72240904D01*
X44015761Y-72202809D01*
X43939571Y-72126619D01*
X43901476Y-72050428D01*
X43863380Y-71898047D01*
X43863380Y-71783761D01*
X43901476Y-71631380D01*
X43939571Y-71555190D01*
X44015761Y-71479000D01*
X44130047Y-71440904D01*
X44206238Y-71440904D01*
X44320523Y-71479000D01*
X44358619Y-71517095D01*
X45120523Y-72240904D02*
X44663380Y-72240904D01*
X44891952Y-72240904D02*
X44891952Y-71440904D01*
X44815761Y-71555190D01*
X44739571Y-71631380D01*
X44663380Y-71669476D01*
X45806238Y-71707571D02*
X45806238Y-72240904D01*
X45615761Y-71402809D02*
X45425285Y-71974238D01*
X45920523Y-71974238D01*
D10*
X75058095Y-61204609D02*
X75172380Y-61242704D01*
X75362857Y-61242704D01*
X75439047Y-61204609D01*
X75477142Y-61166514D01*
X75515238Y-61090323D01*
X75515238Y-61014133D01*
X75477142Y-60937942D01*
X75439047Y-60899847D01*
X75362857Y-60861752D01*
X75210476Y-60823657D01*
X75134285Y-60785561D01*
X75096190Y-60747466D01*
X75058095Y-60671276D01*
X75058095Y-60595085D01*
X75096190Y-60518895D01*
X75134285Y-60480800D01*
X75210476Y-60442704D01*
X75400952Y-60442704D01*
X75515238Y-60480800D01*
X75743809Y-60442704D02*
X76200952Y-60442704D01*
X75972380Y-61242704D02*
X75972380Y-60442704D01*
X76467619Y-60937942D02*
X77077142Y-60937942D01*
X77839047Y-61242704D02*
X77458095Y-61242704D01*
X77458095Y-60442704D01*
X78105714Y-61242704D02*
X78105714Y-60442704D01*
X78486666Y-61242704D02*
X78486666Y-60442704D01*
X78943809Y-61242704D01*
X78943809Y-60442704D01*
X79324761Y-61242704D02*
X79324761Y-60442704D01*
X79781904Y-61242704D02*
X79439047Y-60785561D01*
X79781904Y-60442704D02*
X79324761Y-60899847D01*
D11*
X17860476Y-78209904D02*
X17860476Y-77409904D01*
X18165238Y-77409904D01*
X18241428Y-77448000D01*
X18279523Y-77486095D01*
X18317619Y-77562285D01*
X18317619Y-77676571D01*
X18279523Y-77752761D01*
X18241428Y-77790857D01*
X18165238Y-77828952D01*
X17860476Y-77828952D01*
X18622380Y-77981333D02*
X19003333Y-77981333D01*
X18546190Y-78209904D02*
X18812857Y-77409904D01*
X19079523Y-78209904D01*
X19498571Y-77409904D02*
X19574761Y-77409904D01*
X19650952Y-77448000D01*
X19689047Y-77486095D01*
X19727142Y-77562285D01*
X19765238Y-77714666D01*
X19765238Y-77905142D01*
X19727142Y-78057523D01*
X19689047Y-78133714D01*
X19650952Y-78171809D01*
X19574761Y-78209904D01*
X19498571Y-78209904D01*
X19422380Y-78171809D01*
X19384285Y-78133714D01*
X19346190Y-78057523D01*
X19308095Y-77905142D01*
X19308095Y-77714666D01*
X19346190Y-77562285D01*
X19384285Y-77486095D01*
X19422380Y-77448000D01*
X19498571Y-77409904D01*
X59008857Y-83289904D02*
X59008857Y-82489904D01*
X59313619Y-82489904D01*
X59389809Y-82528000D01*
X59427904Y-82566095D01*
X59466000Y-82642285D01*
X59466000Y-82756571D01*
X59427904Y-82832761D01*
X59389809Y-82870857D01*
X59313619Y-82908952D01*
X59008857Y-82908952D01*
X59770761Y-83061333D02*
X60151714Y-83061333D01*
X59694571Y-83289904D02*
X59961238Y-82489904D01*
X60227904Y-83289904D01*
X60418380Y-82489904D02*
X60951714Y-82489904D01*
X60608857Y-83289904D01*
X58246952Y-40395904D02*
X58246952Y-39595904D01*
X58551714Y-39595904D01*
X58627904Y-39634000D01*
X58666000Y-39672095D01*
X58704095Y-39748285D01*
X58704095Y-39862571D01*
X58666000Y-39938761D01*
X58627904Y-39976857D01*
X58551714Y-40014952D01*
X58246952Y-40014952D01*
X59008857Y-40167333D02*
X59389809Y-40167333D01*
X58932666Y-40395904D02*
X59199333Y-39595904D01*
X59466000Y-40395904D01*
X60151714Y-40395904D02*
X59694571Y-40395904D01*
X59923142Y-40395904D02*
X59923142Y-39595904D01*
X59846952Y-39710190D01*
X59770761Y-39786380D01*
X59694571Y-39824476D01*
X60456476Y-39672095D02*
X60494571Y-39634000D01*
X60570761Y-39595904D01*
X60761238Y-39595904D01*
X60837428Y-39634000D01*
X60875523Y-39672095D01*
X60913619Y-39748285D01*
X60913619Y-39824476D01*
X60875523Y-39938761D01*
X60418380Y-40395904D01*
X60913619Y-40395904D01*
X58246952Y-35315904D02*
X58246952Y-34515904D01*
X58551714Y-34515904D01*
X58627904Y-34554000D01*
X58666000Y-34592095D01*
X58704095Y-34668285D01*
X58704095Y-34782571D01*
X58666000Y-34858761D01*
X58627904Y-34896857D01*
X58551714Y-34934952D01*
X58246952Y-34934952D01*
X59008857Y-35087333D02*
X59389809Y-35087333D01*
X58932666Y-35315904D02*
X59199333Y-34515904D01*
X59466000Y-35315904D01*
X60151714Y-35315904D02*
X59694571Y-35315904D01*
X59923142Y-35315904D02*
X59923142Y-34515904D01*
X59846952Y-34630190D01*
X59770761Y-34706380D01*
X59694571Y-34744476D01*
X60837428Y-34782571D02*
X60837428Y-35315904D01*
X60646952Y-34477809D02*
X60456476Y-35049238D01*
X60951714Y-35049238D01*
X17733476Y-36966904D02*
X17733476Y-36166904D01*
X18038238Y-36166904D01*
X18114428Y-36205000D01*
X18152523Y-36243095D01*
X18190619Y-36319285D01*
X18190619Y-36433571D01*
X18152523Y-36509761D01*
X18114428Y-36547857D01*
X18038238Y-36585952D01*
X17733476Y-36585952D01*
X18990619Y-36890714D02*
X18952523Y-36928809D01*
X18838238Y-36966904D01*
X18762047Y-36966904D01*
X18647761Y-36928809D01*
X18571571Y-36852619D01*
X18533476Y-36776428D01*
X18495380Y-36624047D01*
X18495380Y-36509761D01*
X18533476Y-36357380D01*
X18571571Y-36281190D01*
X18647761Y-36205000D01*
X18762047Y-36166904D01*
X18838238Y-36166904D01*
X18952523Y-36205000D01*
X18990619Y-36243095D01*
X19752523Y-36966904D02*
X19295380Y-36966904D01*
X19523952Y-36966904D02*
X19523952Y-36166904D01*
X19447761Y-36281190D01*
X19371571Y-36357380D01*
X19295380Y-36395476D01*
X20438238Y-36433571D02*
X20438238Y-36966904D01*
X20247761Y-36128809D02*
X20057285Y-36700238D01*
X20552523Y-36700238D01*
X33869428Y-64748000D02*
X33793238Y-64709904D01*
X33678952Y-64709904D01*
X33564666Y-64748000D01*
X33488476Y-64824190D01*
X33450380Y-64900380D01*
X33412285Y-65052761D01*
X33412285Y-65167047D01*
X33450380Y-65319428D01*
X33488476Y-65395619D01*
X33564666Y-65471809D01*
X33678952Y-65509904D01*
X33755142Y-65509904D01*
X33869428Y-65471809D01*
X33907523Y-65433714D01*
X33907523Y-65167047D01*
X33755142Y-65167047D01*
X34250380Y-65509904D02*
X34250380Y-64709904D01*
X34707523Y-65509904D01*
X34707523Y-64709904D01*
X35088476Y-65509904D02*
X35088476Y-64709904D01*
X35278952Y-64709904D01*
X35393238Y-64748000D01*
X35469428Y-64824190D01*
X35507523Y-64900380D01*
X35545619Y-65052761D01*
X35545619Y-65167047D01*
X35507523Y-65319428D01*
X35469428Y-65395619D01*
X35393238Y-65471809D01*
X35278952Y-65509904D01*
X35088476Y-65509904D01*
X43647523Y-29474000D02*
X43571333Y-29435904D01*
X43457047Y-29435904D01*
X43342761Y-29474000D01*
X43266571Y-29550190D01*
X43228476Y-29626380D01*
X43190380Y-29778761D01*
X43190380Y-29893047D01*
X43228476Y-30045428D01*
X43266571Y-30121619D01*
X43342761Y-30197809D01*
X43457047Y-30235904D01*
X43533238Y-30235904D01*
X43647523Y-30197809D01*
X43685619Y-30159714D01*
X43685619Y-29893047D01*
X43533238Y-29893047D01*
X44028476Y-30235904D02*
X44028476Y-29435904D01*
X44485619Y-30235904D01*
X44485619Y-29435904D01*
X44866571Y-30235904D02*
X44866571Y-29435904D01*
X45057047Y-29435904D01*
X45171333Y-29474000D01*
X45247523Y-29550190D01*
X45285619Y-29626380D01*
X45323714Y-29778761D01*
X45323714Y-29893047D01*
X45285619Y-30045428D01*
X45247523Y-30121619D01*
X45171333Y-30197809D01*
X45057047Y-30235904D01*
X44866571Y-30235904D01*
X33526571Y-45475904D02*
X33526571Y-44675904D01*
X33831333Y-44675904D01*
X33907523Y-44714000D01*
X33945619Y-44752095D01*
X33983714Y-44828285D01*
X33983714Y-44942571D01*
X33945619Y-45018761D01*
X33907523Y-45056857D01*
X33831333Y-45094952D01*
X33526571Y-45094952D01*
X34593238Y-45056857D02*
X34707523Y-45094952D01*
X34745619Y-45133047D01*
X34783714Y-45209238D01*
X34783714Y-45323523D01*
X34745619Y-45399714D01*
X34707523Y-45437809D01*
X34631333Y-45475904D01*
X34326571Y-45475904D01*
X34326571Y-44675904D01*
X34593238Y-44675904D01*
X34669428Y-44714000D01*
X34707523Y-44752095D01*
X34745619Y-44828285D01*
X34745619Y-44904476D01*
X34707523Y-44980666D01*
X34669428Y-45018761D01*
X34593238Y-45056857D01*
X34326571Y-45056857D01*
X35278952Y-44675904D02*
X35355142Y-44675904D01*
X35431333Y-44714000D01*
X35469428Y-44752095D01*
X35507523Y-44828285D01*
X35545619Y-44980666D01*
X35545619Y-45171142D01*
X35507523Y-45323523D01*
X35469428Y-45399714D01*
X35431333Y-45437809D01*
X35355142Y-45475904D01*
X35278952Y-45475904D01*
X35202761Y-45437809D01*
X35164666Y-45399714D01*
X35126571Y-45323523D01*
X35088476Y-45171142D01*
X35088476Y-44980666D01*
X35126571Y-44828285D01*
X35164666Y-44752095D01*
X35202761Y-44714000D01*
X35278952Y-44675904D01*
X68596476Y-68049904D02*
X68596476Y-67249904D01*
X69053619Y-68049904D01*
X69053619Y-67249904D01*
X69891714Y-68049904D02*
X69625047Y-67668952D01*
X69434571Y-68049904D02*
X69434571Y-67249904D01*
X69739333Y-67249904D01*
X69815523Y-67288000D01*
X69853619Y-67326095D01*
X69891714Y-67402285D01*
X69891714Y-67516571D01*
X69853619Y-67592761D01*
X69815523Y-67630857D01*
X69739333Y-67668952D01*
X69434571Y-67668952D01*
X70196476Y-68011809D02*
X70310761Y-68049904D01*
X70501238Y-68049904D01*
X70577428Y-68011809D01*
X70615523Y-67973714D01*
X70653619Y-67897523D01*
X70653619Y-67821333D01*
X70615523Y-67745142D01*
X70577428Y-67707047D01*
X70501238Y-67668952D01*
X70348857Y-67630857D01*
X70272666Y-67592761D01*
X70234571Y-67554666D01*
X70196476Y-67478476D01*
X70196476Y-67402285D01*
X70234571Y-67326095D01*
X70272666Y-67288000D01*
X70348857Y-67249904D01*
X70539333Y-67249904D01*
X70653619Y-67288000D01*
X70882190Y-67249904D02*
X71339333Y-67249904D01*
X71110761Y-68049904D02*
X71110761Y-67249904D01*
X43152285Y-62169904D02*
X43647523Y-62169904D01*
X43380857Y-62474666D01*
X43495142Y-62474666D01*
X43571333Y-62512761D01*
X43609428Y-62550857D01*
X43647523Y-62627047D01*
X43647523Y-62817523D01*
X43609428Y-62893714D01*
X43571333Y-62931809D01*
X43495142Y-62969904D01*
X43266571Y-62969904D01*
X43190380Y-62931809D01*
X43152285Y-62893714D01*
X43876095Y-62169904D02*
X44142761Y-62969904D01*
X44409428Y-62169904D01*
X44599904Y-62169904D02*
X45095142Y-62169904D01*
X44828476Y-62474666D01*
X44942761Y-62474666D01*
X45018952Y-62512761D01*
X45057047Y-62550857D01*
X45095142Y-62627047D01*
X45095142Y-62817523D01*
X45057047Y-62893714D01*
X45018952Y-62931809D01*
X44942761Y-62969904D01*
X44714190Y-62969904D01*
X44638000Y-62931809D01*
X44599904Y-62893714D01*
X59008857Y-53095904D02*
X59008857Y-52295904D01*
X59313619Y-52295904D01*
X59389809Y-52334000D01*
X59427904Y-52372095D01*
X59466000Y-52448285D01*
X59466000Y-52562571D01*
X59427904Y-52638761D01*
X59389809Y-52676857D01*
X59313619Y-52714952D01*
X59008857Y-52714952D01*
X59770761Y-52867333D02*
X60151714Y-52867333D01*
X59694571Y-53095904D02*
X59961238Y-52295904D01*
X60227904Y-53095904D01*
X60875523Y-52295904D02*
X60494571Y-52295904D01*
X60456476Y-52676857D01*
X60494571Y-52638761D01*
X60570761Y-52600666D01*
X60761238Y-52600666D01*
X60837428Y-52638761D01*
X60875523Y-52676857D01*
X60913619Y-52753047D01*
X60913619Y-52943523D01*
X60875523Y-53019714D01*
X60837428Y-53057809D01*
X60761238Y-53095904D01*
X60570761Y-53095904D01*
X60494571Y-53057809D01*
X60456476Y-53019714D01*
X68596476Y-78209904D02*
X68596476Y-77409904D01*
X68901238Y-77409904D01*
X68977428Y-77448000D01*
X69015523Y-77486095D01*
X69053619Y-77562285D01*
X69053619Y-77676571D01*
X69015523Y-77752761D01*
X68977428Y-77790857D01*
X68901238Y-77828952D01*
X68596476Y-77828952D01*
X69358380Y-77981333D02*
X69739333Y-77981333D01*
X69282190Y-78209904D02*
X69548857Y-77409904D01*
X69815523Y-78209904D01*
X70234571Y-77409904D02*
X70310761Y-77409904D01*
X70386952Y-77448000D01*
X70425047Y-77486095D01*
X70463142Y-77562285D01*
X70501238Y-77714666D01*
X70501238Y-77905142D01*
X70463142Y-78057523D01*
X70425047Y-78133714D01*
X70386952Y-78171809D01*
X70310761Y-78209904D01*
X70234571Y-78209904D01*
X70158380Y-78171809D01*
X70120285Y-78133714D01*
X70082190Y-78057523D01*
X70044095Y-77905142D01*
X70044095Y-77714666D01*
X70082190Y-77562285D01*
X70120285Y-77486095D01*
X70158380Y-77448000D01*
X70234571Y-77409904D01*
X46242000Y-87569904D02*
X46242000Y-88217523D01*
X46280095Y-88293714D01*
X46318190Y-88331809D01*
X46394380Y-88369904D01*
X46546761Y-88369904D01*
X46622952Y-88331809D01*
X46661047Y-88293714D01*
X46699142Y-88217523D01*
X46699142Y-87569904D01*
X47042000Y-88331809D02*
X47156285Y-88369904D01*
X47346761Y-88369904D01*
X47422952Y-88331809D01*
X47461047Y-88293714D01*
X47499142Y-88217523D01*
X47499142Y-88141333D01*
X47461047Y-88065142D01*
X47422952Y-88027047D01*
X47346761Y-87988952D01*
X47194380Y-87950857D01*
X47118190Y-87912761D01*
X47080095Y-87874666D01*
X47042000Y-87798476D01*
X47042000Y-87722285D01*
X47080095Y-87646095D01*
X47118190Y-87608000D01*
X47194380Y-87569904D01*
X47384857Y-87569904D01*
X47499142Y-87608000D01*
X47842000Y-87950857D02*
X48108666Y-87950857D01*
X48222952Y-88369904D02*
X47842000Y-88369904D01*
X47842000Y-87569904D01*
X48222952Y-87569904D01*
X49022952Y-88369904D02*
X48756285Y-87988952D01*
X48565809Y-88369904D02*
X48565809Y-87569904D01*
X48870571Y-87569904D01*
X48946761Y-87608000D01*
X48984857Y-87646095D01*
X49022952Y-87722285D01*
X49022952Y-87836571D01*
X48984857Y-87912761D01*
X48946761Y-87950857D01*
X48870571Y-87988952D01*
X48565809Y-87988952D01*
X49175333Y-88446095D02*
X49784857Y-88446095D01*
X50356285Y-88369904D02*
X49975333Y-88369904D01*
X49975333Y-87569904D01*
X58246952Y-42935904D02*
X58246952Y-42135904D01*
X58551714Y-42135904D01*
X58627904Y-42174000D01*
X58666000Y-42212095D01*
X58704095Y-42288285D01*
X58704095Y-42402571D01*
X58666000Y-42478761D01*
X58627904Y-42516857D01*
X58551714Y-42554952D01*
X58246952Y-42554952D01*
X59008857Y-42707333D02*
X59389809Y-42707333D01*
X58932666Y-42935904D02*
X59199333Y-42135904D01*
X59466000Y-42935904D01*
X60151714Y-42935904D02*
X59694571Y-42935904D01*
X59923142Y-42935904D02*
X59923142Y-42135904D01*
X59846952Y-42250190D01*
X59770761Y-42326380D01*
X59694571Y-42364476D01*
X60913619Y-42935904D02*
X60456476Y-42935904D01*
X60685047Y-42935904D02*
X60685047Y-42135904D01*
X60608857Y-42250190D01*
X60532666Y-42326380D01*
X60456476Y-42364476D01*
X33526571Y-80749904D02*
X33526571Y-79949904D01*
X33831333Y-79949904D01*
X33907523Y-79988000D01*
X33945619Y-80026095D01*
X33983714Y-80102285D01*
X33983714Y-80216571D01*
X33945619Y-80292761D01*
X33907523Y-80330857D01*
X33831333Y-80368952D01*
X33526571Y-80368952D01*
X34593238Y-80330857D02*
X34707523Y-80368952D01*
X34745619Y-80407047D01*
X34783714Y-80483238D01*
X34783714Y-80597523D01*
X34745619Y-80673714D01*
X34707523Y-80711809D01*
X34631333Y-80749904D01*
X34326571Y-80749904D01*
X34326571Y-79949904D01*
X34593238Y-79949904D01*
X34669428Y-79988000D01*
X34707523Y-80026095D01*
X34745619Y-80102285D01*
X34745619Y-80178476D01*
X34707523Y-80254666D01*
X34669428Y-80292761D01*
X34593238Y-80330857D01*
X34326571Y-80330857D01*
X35278952Y-79949904D02*
X35355142Y-79949904D01*
X35431333Y-79988000D01*
X35469428Y-80026095D01*
X35507523Y-80102285D01*
X35545619Y-80254666D01*
X35545619Y-80445142D01*
X35507523Y-80597523D01*
X35469428Y-80673714D01*
X35431333Y-80711809D01*
X35355142Y-80749904D01*
X35278952Y-80749904D01*
X35202761Y-80711809D01*
X35164666Y-80673714D01*
X35126571Y-80597523D01*
X35088476Y-80445142D01*
X35088476Y-80254666D01*
X35126571Y-80102285D01*
X35164666Y-80026095D01*
X35202761Y-79988000D01*
X35278952Y-79949904D01*
X68596476Y-85829904D02*
X68596476Y-85029904D01*
X68901238Y-85029904D01*
X68977428Y-85068000D01*
X69015523Y-85106095D01*
X69053619Y-85182285D01*
X69053619Y-85296571D01*
X69015523Y-85372761D01*
X68977428Y-85410857D01*
X68901238Y-85448952D01*
X68596476Y-85448952D01*
X69358380Y-85601333D02*
X69739333Y-85601333D01*
X69282190Y-85829904D02*
X69548857Y-85029904D01*
X69815523Y-85829904D01*
X70006000Y-85029904D02*
X70501238Y-85029904D01*
X70234571Y-85334666D01*
X70348857Y-85334666D01*
X70425047Y-85372761D01*
X70463142Y-85410857D01*
X70501238Y-85487047D01*
X70501238Y-85677523D01*
X70463142Y-85753714D01*
X70425047Y-85791809D01*
X70348857Y-85829904D01*
X70120285Y-85829904D01*
X70044095Y-85791809D01*
X70006000Y-85753714D01*
X58246952Y-78209904D02*
X58246952Y-77409904D01*
X58551714Y-77409904D01*
X58627904Y-77448000D01*
X58666000Y-77486095D01*
X58704095Y-77562285D01*
X58704095Y-77676571D01*
X58666000Y-77752761D01*
X58627904Y-77790857D01*
X58551714Y-77828952D01*
X58246952Y-77828952D01*
X59008857Y-77981333D02*
X59389809Y-77981333D01*
X58932666Y-78209904D02*
X59199333Y-77409904D01*
X59466000Y-78209904D01*
X60151714Y-78209904D02*
X59694571Y-78209904D01*
X59923142Y-78209904D02*
X59923142Y-77409904D01*
X59846952Y-77524190D01*
X59770761Y-77600380D01*
X59694571Y-77638476D01*
X60913619Y-78209904D02*
X60456476Y-78209904D01*
X60685047Y-78209904D02*
X60685047Y-77409904D01*
X60608857Y-77524190D01*
X60532666Y-77600380D01*
X60456476Y-77638476D01*
X58894571Y-32775904D02*
X58894571Y-31975904D01*
X59199333Y-31975904D01*
X59275523Y-32014000D01*
X59313619Y-32052095D01*
X59351714Y-32128285D01*
X59351714Y-32242571D01*
X59313619Y-32318761D01*
X59275523Y-32356857D01*
X59199333Y-32394952D01*
X58894571Y-32394952D01*
X59961238Y-32356857D02*
X60075523Y-32394952D01*
X60113619Y-32433047D01*
X60151714Y-32509238D01*
X60151714Y-32623523D01*
X60113619Y-32699714D01*
X60075523Y-32737809D01*
X59999333Y-32775904D01*
X59694571Y-32775904D01*
X59694571Y-31975904D01*
X59961238Y-31975904D01*
X60037428Y-32014000D01*
X60075523Y-32052095D01*
X60113619Y-32128285D01*
X60113619Y-32204476D01*
X60075523Y-32280666D01*
X60037428Y-32318761D01*
X59961238Y-32356857D01*
X59694571Y-32356857D01*
X60418380Y-31975904D02*
X60913619Y-31975904D01*
X60646952Y-32280666D01*
X60761238Y-32280666D01*
X60837428Y-32318761D01*
X60875523Y-32356857D01*
X60913619Y-32433047D01*
X60913619Y-32623523D01*
X60875523Y-32699714D01*
X60837428Y-32737809D01*
X60761238Y-32775904D01*
X60532666Y-32775904D01*
X60456476Y-32737809D01*
X60418380Y-32699714D01*
X20874000Y-87569904D02*
X20874000Y-88217523D01*
X20912095Y-88293714D01*
X20950190Y-88331809D01*
X21026380Y-88369904D01*
X21178761Y-88369904D01*
X21254952Y-88331809D01*
X21293047Y-88293714D01*
X21331142Y-88217523D01*
X21331142Y-87569904D01*
X21674000Y-88331809D02*
X21788285Y-88369904D01*
X21978761Y-88369904D01*
X22054952Y-88331809D01*
X22093047Y-88293714D01*
X22131142Y-88217523D01*
X22131142Y-88141333D01*
X22093047Y-88065142D01*
X22054952Y-88027047D01*
X21978761Y-87988952D01*
X21826380Y-87950857D01*
X21750190Y-87912761D01*
X21712095Y-87874666D01*
X21674000Y-87798476D01*
X21674000Y-87722285D01*
X21712095Y-87646095D01*
X21750190Y-87608000D01*
X21826380Y-87569904D01*
X22016857Y-87569904D01*
X22131142Y-87608000D01*
X22474000Y-87950857D02*
X22740666Y-87950857D01*
X22854952Y-88369904D02*
X22474000Y-88369904D01*
X22474000Y-87569904D01*
X22854952Y-87569904D01*
X23654952Y-88369904D02*
X23388285Y-87988952D01*
X23197809Y-88369904D02*
X23197809Y-87569904D01*
X23502571Y-87569904D01*
X23578761Y-87608000D01*
X23616857Y-87646095D01*
X23654952Y-87722285D01*
X23654952Y-87836571D01*
X23616857Y-87912761D01*
X23578761Y-87950857D01*
X23502571Y-87988952D01*
X23197809Y-87988952D01*
X23807333Y-88446095D02*
X24416857Y-88446095D01*
X24988285Y-88369904D02*
X24607333Y-88369904D01*
X24607333Y-87569904D01*
D10*
X24322095Y-61204609D02*
X24436380Y-61242704D01*
X24626857Y-61242704D01*
X24703047Y-61204609D01*
X24741142Y-61166514D01*
X24779238Y-61090323D01*
X24779238Y-61014133D01*
X24741142Y-60937942D01*
X24703047Y-60899847D01*
X24626857Y-60861752D01*
X24474476Y-60823657D01*
X24398285Y-60785561D01*
X24360190Y-60747466D01*
X24322095Y-60671276D01*
X24322095Y-60595085D01*
X24360190Y-60518895D01*
X24398285Y-60480800D01*
X24474476Y-60442704D01*
X24664952Y-60442704D01*
X24779238Y-60480800D01*
X25007809Y-60442704D02*
X25464952Y-60442704D01*
X25236380Y-61242704D02*
X25236380Y-60442704D01*
X25731619Y-60937942D02*
X26341142Y-60937942D01*
X27103047Y-61242704D02*
X26722095Y-61242704D01*
X26722095Y-60442704D01*
X27369714Y-61242704D02*
X27369714Y-60442704D01*
X27750666Y-61242704D02*
X27750666Y-60442704D01*
X28207809Y-61242704D01*
X28207809Y-60442704D01*
X28588761Y-61242704D02*
X28588761Y-60442704D01*
X29045904Y-61242704D02*
X28703047Y-60785561D01*
X29045904Y-60442704D02*
X28588761Y-60899847D01*
D11*
X58246952Y-73129904D02*
X58246952Y-72329904D01*
X58551714Y-72329904D01*
X58627904Y-72368000D01*
X58666000Y-72406095D01*
X58704095Y-72482285D01*
X58704095Y-72596571D01*
X58666000Y-72672761D01*
X58627904Y-72710857D01*
X58551714Y-72748952D01*
X58246952Y-72748952D01*
X59008857Y-72901333D02*
X59389809Y-72901333D01*
X58932666Y-73129904D02*
X59199333Y-72329904D01*
X59466000Y-73129904D01*
X60151714Y-73129904D02*
X59694571Y-73129904D01*
X59923142Y-73129904D02*
X59923142Y-72329904D01*
X59846952Y-72444190D01*
X59770761Y-72520380D01*
X59694571Y-72558476D01*
X60418380Y-72329904D02*
X60913619Y-72329904D01*
X60646952Y-72634666D01*
X60761238Y-72634666D01*
X60837428Y-72672761D01*
X60875523Y-72710857D01*
X60913619Y-72787047D01*
X60913619Y-72977523D01*
X60875523Y-73053714D01*
X60837428Y-73091809D01*
X60761238Y-73129904D01*
X60532666Y-73129904D01*
X60456476Y-73091809D01*
X60418380Y-73053714D01*
X83614952Y-73129904D02*
X83614952Y-72329904D01*
X83919714Y-72329904D01*
X83995904Y-72368000D01*
X84034000Y-72406095D01*
X84072095Y-72482285D01*
X84072095Y-72596571D01*
X84034000Y-72672761D01*
X83995904Y-72710857D01*
X83919714Y-72748952D01*
X83614952Y-72748952D01*
X84376857Y-72901333D02*
X84757809Y-72901333D01*
X84300666Y-73129904D02*
X84567333Y-72329904D01*
X84834000Y-73129904D01*
X85519714Y-73129904D02*
X85062571Y-73129904D01*
X85291142Y-73129904D02*
X85291142Y-72329904D01*
X85214952Y-72444190D01*
X85138761Y-72520380D01*
X85062571Y-72558476D01*
X85786380Y-72329904D02*
X86281619Y-72329904D01*
X86014952Y-72634666D01*
X86129238Y-72634666D01*
X86205428Y-72672761D01*
X86243523Y-72710857D01*
X86281619Y-72787047D01*
X86281619Y-72977523D01*
X86243523Y-73053714D01*
X86205428Y-73091809D01*
X86129238Y-73129904D01*
X85900666Y-73129904D01*
X85824476Y-73091809D01*
X85786380Y-73053714D01*
X17860476Y-85829904D02*
X17860476Y-85029904D01*
X18165238Y-85029904D01*
X18241428Y-85068000D01*
X18279523Y-85106095D01*
X18317619Y-85182285D01*
X18317619Y-85296571D01*
X18279523Y-85372761D01*
X18241428Y-85410857D01*
X18165238Y-85448952D01*
X17860476Y-85448952D01*
X18622380Y-85601333D02*
X19003333Y-85601333D01*
X18546190Y-85829904D02*
X18812857Y-85029904D01*
X19079523Y-85829904D01*
X19270000Y-85029904D02*
X19765238Y-85029904D01*
X19498571Y-85334666D01*
X19612857Y-85334666D01*
X19689047Y-85372761D01*
X19727142Y-85410857D01*
X19765238Y-85487047D01*
X19765238Y-85677523D01*
X19727142Y-85753714D01*
X19689047Y-85791809D01*
X19612857Y-85829904D01*
X19384285Y-85829904D01*
X19308095Y-85791809D01*
X19270000Y-85753714D01*
X33869428Y-29474000D02*
X33793238Y-29435904D01*
X33678952Y-29435904D01*
X33564666Y-29474000D01*
X33488476Y-29550190D01*
X33450380Y-29626380D01*
X33412285Y-29778761D01*
X33412285Y-29893047D01*
X33450380Y-30045428D01*
X33488476Y-30121619D01*
X33564666Y-30197809D01*
X33678952Y-30235904D01*
X33755142Y-30235904D01*
X33869428Y-30197809D01*
X33907523Y-30159714D01*
X33907523Y-29893047D01*
X33755142Y-29893047D01*
X34250380Y-30235904D02*
X34250380Y-29435904D01*
X34707523Y-30235904D01*
X34707523Y-29435904D01*
X35088476Y-30235904D02*
X35088476Y-29435904D01*
X35278952Y-29435904D01*
X35393238Y-29474000D01*
X35469428Y-29550190D01*
X35507523Y-29626380D01*
X35545619Y-29778761D01*
X35545619Y-29893047D01*
X35507523Y-30045428D01*
X35469428Y-30121619D01*
X35393238Y-30197809D01*
X35278952Y-30235904D01*
X35088476Y-30235904D01*
X32878952Y-73129904D02*
X32878952Y-72329904D01*
X33183714Y-72329904D01*
X33259904Y-72368000D01*
X33298000Y-72406095D01*
X33336095Y-72482285D01*
X33336095Y-72596571D01*
X33298000Y-72672761D01*
X33259904Y-72710857D01*
X33183714Y-72748952D01*
X32878952Y-72748952D01*
X33640857Y-72901333D02*
X34021809Y-72901333D01*
X33564666Y-73129904D02*
X33831333Y-72329904D01*
X34098000Y-73129904D01*
X34783714Y-73129904D02*
X34326571Y-73129904D01*
X34555142Y-73129904D02*
X34555142Y-72329904D01*
X34478952Y-72444190D01*
X34402761Y-72520380D01*
X34326571Y-72558476D01*
X35050380Y-72329904D02*
X35545619Y-72329904D01*
X35278952Y-72634666D01*
X35393238Y-72634666D01*
X35469428Y-72672761D01*
X35507523Y-72710857D01*
X35545619Y-72787047D01*
X35545619Y-72977523D01*
X35507523Y-73053714D01*
X35469428Y-73091809D01*
X35393238Y-73129904D01*
X35164666Y-73129904D01*
X35088476Y-73091809D01*
X35050380Y-73053714D01*
X43228476Y-68049904D02*
X43228476Y-67249904D01*
X43685619Y-68049904D01*
X43685619Y-67249904D01*
X44523714Y-68049904D02*
X44257047Y-67668952D01*
X44066571Y-68049904D02*
X44066571Y-67249904D01*
X44371333Y-67249904D01*
X44447523Y-67288000D01*
X44485619Y-67326095D01*
X44523714Y-67402285D01*
X44523714Y-67516571D01*
X44485619Y-67592761D01*
X44447523Y-67630857D01*
X44371333Y-67668952D01*
X44066571Y-67668952D01*
X44828476Y-68011809D02*
X44942761Y-68049904D01*
X45133238Y-68049904D01*
X45209428Y-68011809D01*
X45247523Y-67973714D01*
X45285619Y-67897523D01*
X45285619Y-67821333D01*
X45247523Y-67745142D01*
X45209428Y-67707047D01*
X45133238Y-67668952D01*
X44980857Y-67630857D01*
X44904666Y-67592761D01*
X44866571Y-67554666D01*
X44828476Y-67478476D01*
X44828476Y-67402285D01*
X44866571Y-67326095D01*
X44904666Y-67288000D01*
X44980857Y-67249904D01*
X45171333Y-67249904D01*
X45285619Y-67288000D01*
X45514190Y-67249904D02*
X45971333Y-67249904D01*
X45742761Y-68049904D02*
X45742761Y-67249904D01*
X84376857Y-88369904D02*
X84376857Y-87569904D01*
X84681619Y-87569904D01*
X84757809Y-87608000D01*
X84795904Y-87646095D01*
X84834000Y-87722285D01*
X84834000Y-87836571D01*
X84795904Y-87912761D01*
X84757809Y-87950857D01*
X84681619Y-87988952D01*
X84376857Y-87988952D01*
X85138761Y-88141333D02*
X85519714Y-88141333D01*
X85062571Y-88369904D02*
X85329238Y-87569904D01*
X85595904Y-88369904D01*
X86243523Y-87569904D02*
X85862571Y-87569904D01*
X85824476Y-87950857D01*
X85862571Y-87912761D01*
X85938761Y-87874666D01*
X86129238Y-87874666D01*
X86205428Y-87912761D01*
X86243523Y-87950857D01*
X86281619Y-88027047D01*
X86281619Y-88217523D01*
X86243523Y-88293714D01*
X86205428Y-88331809D01*
X86129238Y-88369904D01*
X85938761Y-88369904D01*
X85862571Y-88331809D01*
X85824476Y-88293714D01*
X43101476Y-36966904D02*
X43101476Y-36166904D01*
X43406238Y-36166904D01*
X43482428Y-36205000D01*
X43520523Y-36243095D01*
X43558619Y-36319285D01*
X43558619Y-36433571D01*
X43520523Y-36509761D01*
X43482428Y-36547857D01*
X43406238Y-36585952D01*
X43101476Y-36585952D01*
X44358619Y-36890714D02*
X44320523Y-36928809D01*
X44206238Y-36966904D01*
X44130047Y-36966904D01*
X44015761Y-36928809D01*
X43939571Y-36852619D01*
X43901476Y-36776428D01*
X43863380Y-36624047D01*
X43863380Y-36509761D01*
X43901476Y-36357380D01*
X43939571Y-36281190D01*
X44015761Y-36205000D01*
X44130047Y-36166904D01*
X44206238Y-36166904D01*
X44320523Y-36205000D01*
X44358619Y-36243095D01*
X45120523Y-36966904D02*
X44663380Y-36966904D01*
X44891952Y-36966904D02*
X44891952Y-36166904D01*
X44815761Y-36281190D01*
X44739571Y-36357380D01*
X44663380Y-36395476D01*
X45806238Y-36433571D02*
X45806238Y-36966904D01*
X45615761Y-36128809D02*
X45425285Y-36700238D01*
X45920523Y-36700238D01*
X32878952Y-37855904D02*
X32878952Y-37055904D01*
X33183714Y-37055904D01*
X33259904Y-37094000D01*
X33298000Y-37132095D01*
X33336095Y-37208285D01*
X33336095Y-37322571D01*
X33298000Y-37398761D01*
X33259904Y-37436857D01*
X33183714Y-37474952D01*
X32878952Y-37474952D01*
X33640857Y-37627333D02*
X34021809Y-37627333D01*
X33564666Y-37855904D02*
X33831333Y-37055904D01*
X34098000Y-37855904D01*
X34783714Y-37855904D02*
X34326571Y-37855904D01*
X34555142Y-37855904D02*
X34555142Y-37055904D01*
X34478952Y-37170190D01*
X34402761Y-37246380D01*
X34326571Y-37284476D01*
X35050380Y-37055904D02*
X35545619Y-37055904D01*
X35278952Y-37360666D01*
X35393238Y-37360666D01*
X35469428Y-37398761D01*
X35507523Y-37436857D01*
X35545619Y-37513047D01*
X35545619Y-37703523D01*
X35507523Y-37779714D01*
X35469428Y-37817809D01*
X35393238Y-37855904D01*
X35164666Y-37855904D01*
X35088476Y-37817809D01*
X35050380Y-37779714D01*
X59008857Y-50555904D02*
X59008857Y-49755904D01*
X59313619Y-49755904D01*
X59389809Y-49794000D01*
X59427904Y-49832095D01*
X59466000Y-49908285D01*
X59466000Y-50022571D01*
X59427904Y-50098761D01*
X59389809Y-50136857D01*
X59313619Y-50174952D01*
X59008857Y-50174952D01*
X59770761Y-50327333D02*
X60151714Y-50327333D01*
X59694571Y-50555904D02*
X59961238Y-49755904D01*
X60227904Y-50555904D01*
X60837428Y-49755904D02*
X60685047Y-49755904D01*
X60608857Y-49794000D01*
X60570761Y-49832095D01*
X60494571Y-49946380D01*
X60456476Y-50098761D01*
X60456476Y-50403523D01*
X60494571Y-50479714D01*
X60532666Y-50517809D01*
X60608857Y-50555904D01*
X60761238Y-50555904D01*
X60837428Y-50517809D01*
X60875523Y-50479714D01*
X60913619Y-50403523D01*
X60913619Y-50213047D01*
X60875523Y-50136857D01*
X60837428Y-50098761D01*
X60761238Y-50060666D01*
X60608857Y-50060666D01*
X60532666Y-50098761D01*
X60494571Y-50136857D01*
X60456476Y-50213047D01*
X17860476Y-80749904D02*
X17860476Y-79949904D01*
X18165238Y-79949904D01*
X18241428Y-79988000D01*
X18279523Y-80026095D01*
X18317619Y-80102285D01*
X18317619Y-80216571D01*
X18279523Y-80292761D01*
X18241428Y-80330857D01*
X18165238Y-80368952D01*
X17860476Y-80368952D01*
X18622380Y-80521333D02*
X19003333Y-80521333D01*
X18546190Y-80749904D02*
X18812857Y-79949904D01*
X19079523Y-80749904D01*
X19765238Y-80749904D02*
X19308095Y-80749904D01*
X19536666Y-80749904D02*
X19536666Y-79949904D01*
X19460476Y-80064190D01*
X19384285Y-80140380D01*
X19308095Y-80178476D01*
D10*
X49690095Y-61204609D02*
X49804380Y-61242704D01*
X49994857Y-61242704D01*
X50071047Y-61204609D01*
X50109142Y-61166514D01*
X50147238Y-61090323D01*
X50147238Y-61014133D01*
X50109142Y-60937942D01*
X50071047Y-60899847D01*
X49994857Y-60861752D01*
X49842476Y-60823657D01*
X49766285Y-60785561D01*
X49728190Y-60747466D01*
X49690095Y-60671276D01*
X49690095Y-60595085D01*
X49728190Y-60518895D01*
X49766285Y-60480800D01*
X49842476Y-60442704D01*
X50032952Y-60442704D01*
X50147238Y-60480800D01*
X50375809Y-60442704D02*
X50832952Y-60442704D01*
X50604380Y-61242704D02*
X50604380Y-60442704D01*
X51099619Y-60937942D02*
X51709142Y-60937942D01*
X52471047Y-61242704D02*
X52090095Y-61242704D01*
X52090095Y-60442704D01*
X52737714Y-61242704D02*
X52737714Y-60442704D01*
X53118666Y-61242704D02*
X53118666Y-60442704D01*
X53575809Y-61242704D01*
X53575809Y-60442704D01*
X53956761Y-61242704D02*
X53956761Y-60442704D01*
X54413904Y-61242704D02*
X54071047Y-60785561D01*
X54413904Y-60442704D02*
X53956761Y-60899847D01*
D11*
X59008857Y-88369904D02*
X59008857Y-87569904D01*
X59313619Y-87569904D01*
X59389809Y-87608000D01*
X59427904Y-87646095D01*
X59466000Y-87722285D01*
X59466000Y-87836571D01*
X59427904Y-87912761D01*
X59389809Y-87950857D01*
X59313619Y-87988952D01*
X59008857Y-87988952D01*
X59770761Y-88141333D02*
X60151714Y-88141333D01*
X59694571Y-88369904D02*
X59961238Y-87569904D01*
X60227904Y-88369904D01*
X60875523Y-87569904D02*
X60494571Y-87569904D01*
X60456476Y-87950857D01*
X60494571Y-87912761D01*
X60570761Y-87874666D01*
X60761238Y-87874666D01*
X60837428Y-87912761D01*
X60875523Y-87950857D01*
X60913619Y-88027047D01*
X60913619Y-88217523D01*
X60875523Y-88293714D01*
X60837428Y-88331809D01*
X60761238Y-88369904D01*
X60570761Y-88369904D01*
X60494571Y-88331809D01*
X60456476Y-88293714D01*
X17860476Y-70589904D02*
X17860476Y-69789904D01*
X18165238Y-69789904D01*
X18241428Y-69828000D01*
X18279523Y-69866095D01*
X18317619Y-69942285D01*
X18317619Y-70056571D01*
X18279523Y-70132761D01*
X18241428Y-70170857D01*
X18165238Y-70208952D01*
X17860476Y-70208952D01*
X18927142Y-70170857D02*
X19041428Y-70208952D01*
X19079523Y-70247047D01*
X19117619Y-70323238D01*
X19117619Y-70437523D01*
X19079523Y-70513714D01*
X19041428Y-70551809D01*
X18965238Y-70589904D01*
X18660476Y-70589904D01*
X18660476Y-69789904D01*
X18927142Y-69789904D01*
X19003333Y-69828000D01*
X19041428Y-69866095D01*
X19079523Y-69942285D01*
X19079523Y-70018476D01*
X19041428Y-70094666D01*
X19003333Y-70132761D01*
X18927142Y-70170857D01*
X18660476Y-70170857D01*
X19384285Y-69789904D02*
X19917619Y-69789904D01*
X19574761Y-70589904D01*
X84376857Y-85829904D02*
X84376857Y-85029904D01*
X84681619Y-85029904D01*
X84757809Y-85068000D01*
X84795904Y-85106095D01*
X84834000Y-85182285D01*
X84834000Y-85296571D01*
X84795904Y-85372761D01*
X84757809Y-85410857D01*
X84681619Y-85448952D01*
X84376857Y-85448952D01*
X85138761Y-85601333D02*
X85519714Y-85601333D01*
X85062571Y-85829904D02*
X85329238Y-85029904D01*
X85595904Y-85829904D01*
X86205428Y-85029904D02*
X86053047Y-85029904D01*
X85976857Y-85068000D01*
X85938761Y-85106095D01*
X85862571Y-85220380D01*
X85824476Y-85372761D01*
X85824476Y-85677523D01*
X85862571Y-85753714D01*
X85900666Y-85791809D01*
X85976857Y-85829904D01*
X86129238Y-85829904D01*
X86205428Y-85791809D01*
X86243523Y-85753714D01*
X86281619Y-85677523D01*
X86281619Y-85487047D01*
X86243523Y-85410857D01*
X86205428Y-85372761D01*
X86129238Y-85334666D01*
X85976857Y-85334666D01*
X85900666Y-85372761D01*
X85862571Y-85410857D01*
X85824476Y-85487047D01*
X43228476Y-42935904D02*
X43228476Y-42135904D01*
X43533238Y-42135904D01*
X43609428Y-42174000D01*
X43647523Y-42212095D01*
X43685619Y-42288285D01*
X43685619Y-42402571D01*
X43647523Y-42478761D01*
X43609428Y-42516857D01*
X43533238Y-42554952D01*
X43228476Y-42554952D01*
X43990380Y-42707333D02*
X44371333Y-42707333D01*
X43914190Y-42935904D02*
X44180857Y-42135904D01*
X44447523Y-42935904D01*
X44866571Y-42135904D02*
X44942761Y-42135904D01*
X45018952Y-42174000D01*
X45057047Y-42212095D01*
X45095142Y-42288285D01*
X45133238Y-42440666D01*
X45133238Y-42631142D01*
X45095142Y-42783523D01*
X45057047Y-42859714D01*
X45018952Y-42897809D01*
X44942761Y-42935904D01*
X44866571Y-42935904D01*
X44790380Y-42897809D01*
X44752285Y-42859714D01*
X44714190Y-42783523D01*
X44676095Y-42631142D01*
X44676095Y-42440666D01*
X44714190Y-42288285D01*
X44752285Y-42212095D01*
X44790380Y-42174000D01*
X44866571Y-42135904D01*
X59008857Y-85829904D02*
X59008857Y-85029904D01*
X59313619Y-85029904D01*
X59389809Y-85068000D01*
X59427904Y-85106095D01*
X59466000Y-85182285D01*
X59466000Y-85296571D01*
X59427904Y-85372761D01*
X59389809Y-85410857D01*
X59313619Y-85448952D01*
X59008857Y-85448952D01*
X59770761Y-85601333D02*
X60151714Y-85601333D01*
X59694571Y-85829904D02*
X59961238Y-85029904D01*
X60227904Y-85829904D01*
X60837428Y-85029904D02*
X60685047Y-85029904D01*
X60608857Y-85068000D01*
X60570761Y-85106095D01*
X60494571Y-85220380D01*
X60456476Y-85372761D01*
X60456476Y-85677523D01*
X60494571Y-85753714D01*
X60532666Y-85791809D01*
X60608857Y-85829904D01*
X60761238Y-85829904D01*
X60837428Y-85791809D01*
X60875523Y-85753714D01*
X60913619Y-85677523D01*
X60913619Y-85487047D01*
X60875523Y-85410857D01*
X60837428Y-85372761D01*
X60761238Y-85334666D01*
X60608857Y-85334666D01*
X60532666Y-85372761D01*
X60494571Y-85410857D01*
X60456476Y-85487047D01*
X33526571Y-68049904D02*
X33526571Y-67249904D01*
X33831333Y-67249904D01*
X33907523Y-67288000D01*
X33945619Y-67326095D01*
X33983714Y-67402285D01*
X33983714Y-67516571D01*
X33945619Y-67592761D01*
X33907523Y-67630857D01*
X33831333Y-67668952D01*
X33526571Y-67668952D01*
X34593238Y-67630857D02*
X34707523Y-67668952D01*
X34745619Y-67707047D01*
X34783714Y-67783238D01*
X34783714Y-67897523D01*
X34745619Y-67973714D01*
X34707523Y-68011809D01*
X34631333Y-68049904D01*
X34326571Y-68049904D01*
X34326571Y-67249904D01*
X34593238Y-67249904D01*
X34669428Y-67288000D01*
X34707523Y-67326095D01*
X34745619Y-67402285D01*
X34745619Y-67478476D01*
X34707523Y-67554666D01*
X34669428Y-67592761D01*
X34593238Y-67630857D01*
X34326571Y-67630857D01*
X35050380Y-67249904D02*
X35545619Y-67249904D01*
X35278952Y-67554666D01*
X35393238Y-67554666D01*
X35469428Y-67592761D01*
X35507523Y-67630857D01*
X35545619Y-67707047D01*
X35545619Y-67897523D01*
X35507523Y-67973714D01*
X35469428Y-68011809D01*
X35393238Y-68049904D01*
X35164666Y-68049904D01*
X35088476Y-68011809D01*
X35050380Y-67973714D01*
X32878952Y-75669904D02*
X32878952Y-74869904D01*
X33183714Y-74869904D01*
X33259904Y-74908000D01*
X33298000Y-74946095D01*
X33336095Y-75022285D01*
X33336095Y-75136571D01*
X33298000Y-75212761D01*
X33259904Y-75250857D01*
X33183714Y-75288952D01*
X32878952Y-75288952D01*
X33640857Y-75441333D02*
X34021809Y-75441333D01*
X33564666Y-75669904D02*
X33831333Y-74869904D01*
X34098000Y-75669904D01*
X34783714Y-75669904D02*
X34326571Y-75669904D01*
X34555142Y-75669904D02*
X34555142Y-74869904D01*
X34478952Y-74984190D01*
X34402761Y-75060380D01*
X34326571Y-75098476D01*
X35088476Y-74946095D02*
X35126571Y-74908000D01*
X35202761Y-74869904D01*
X35393238Y-74869904D01*
X35469428Y-74908000D01*
X35507523Y-74946095D01*
X35545619Y-75022285D01*
X35545619Y-75098476D01*
X35507523Y-75212761D01*
X35050380Y-75669904D01*
X35545619Y-75669904D01*
X17784285Y-26895904D02*
X18279523Y-26895904D01*
X18012857Y-27200666D01*
X18127142Y-27200666D01*
X18203333Y-27238761D01*
X18241428Y-27276857D01*
X18279523Y-27353047D01*
X18279523Y-27543523D01*
X18241428Y-27619714D01*
X18203333Y-27657809D01*
X18127142Y-27695904D01*
X17898571Y-27695904D01*
X17822380Y-27657809D01*
X17784285Y-27619714D01*
X18508095Y-26895904D02*
X18774761Y-27695904D01*
X19041428Y-26895904D01*
X19231904Y-26895904D02*
X19727142Y-26895904D01*
X19460476Y-27200666D01*
X19574761Y-27200666D01*
X19650952Y-27238761D01*
X19689047Y-27276857D01*
X19727142Y-27353047D01*
X19727142Y-27543523D01*
X19689047Y-27619714D01*
X19650952Y-27657809D01*
X19574761Y-27695904D01*
X19346190Y-27695904D01*
X19270000Y-27657809D01*
X19231904Y-27619714D01*
X17860476Y-50555904D02*
X17860476Y-49755904D01*
X18165238Y-49755904D01*
X18241428Y-49794000D01*
X18279523Y-49832095D01*
X18317619Y-49908285D01*
X18317619Y-50022571D01*
X18279523Y-50098761D01*
X18241428Y-50136857D01*
X18165238Y-50174952D01*
X17860476Y-50174952D01*
X18622380Y-50327333D02*
X19003333Y-50327333D01*
X18546190Y-50555904D02*
X18812857Y-49755904D01*
X19079523Y-50555904D01*
X19270000Y-49755904D02*
X19765238Y-49755904D01*
X19498571Y-50060666D01*
X19612857Y-50060666D01*
X19689047Y-50098761D01*
X19727142Y-50136857D01*
X19765238Y-50213047D01*
X19765238Y-50403523D01*
X19727142Y-50479714D01*
X19689047Y-50517809D01*
X19612857Y-50555904D01*
X19384285Y-50555904D01*
X19308095Y-50517809D01*
X19270000Y-50479714D01*
X17860476Y-53095904D02*
X17860476Y-52295904D01*
X18165238Y-52295904D01*
X18241428Y-52334000D01*
X18279523Y-52372095D01*
X18317619Y-52448285D01*
X18317619Y-52562571D01*
X18279523Y-52638761D01*
X18241428Y-52676857D01*
X18165238Y-52714952D01*
X17860476Y-52714952D01*
X18622380Y-52867333D02*
X19003333Y-52867333D01*
X18546190Y-53095904D02*
X18812857Y-52295904D01*
X19079523Y-53095904D01*
X19689047Y-52562571D02*
X19689047Y-53095904D01*
X19498571Y-52257809D02*
X19308095Y-52829238D01*
X19803333Y-52829238D01*
X84605428Y-62169904D02*
X84872095Y-62969904D01*
X85138761Y-62169904D01*
X85405428Y-62969904D02*
X85405428Y-62169904D01*
X85786380Y-62969904D02*
X85786380Y-62169904D01*
X86243523Y-62969904D01*
X86243523Y-62169904D01*
X58894571Y-45475904D02*
X58894571Y-44675904D01*
X59199333Y-44675904D01*
X59275523Y-44714000D01*
X59313619Y-44752095D01*
X59351714Y-44828285D01*
X59351714Y-44942571D01*
X59313619Y-45018761D01*
X59275523Y-45056857D01*
X59199333Y-45094952D01*
X58894571Y-45094952D01*
X59961238Y-45056857D02*
X60075523Y-45094952D01*
X60113619Y-45133047D01*
X60151714Y-45209238D01*
X60151714Y-45323523D01*
X60113619Y-45399714D01*
X60075523Y-45437809D01*
X59999333Y-45475904D01*
X59694571Y-45475904D01*
X59694571Y-44675904D01*
X59961238Y-44675904D01*
X60037428Y-44714000D01*
X60075523Y-44752095D01*
X60113619Y-44828285D01*
X60113619Y-44904476D01*
X60075523Y-44980666D01*
X60037428Y-45018761D01*
X59961238Y-45056857D01*
X59694571Y-45056857D01*
X60646952Y-44675904D02*
X60723142Y-44675904D01*
X60799333Y-44714000D01*
X60837428Y-44752095D01*
X60875523Y-44828285D01*
X60913619Y-44980666D01*
X60913619Y-45171142D01*
X60875523Y-45323523D01*
X60837428Y-45399714D01*
X60799333Y-45437809D01*
X60723142Y-45475904D01*
X60646952Y-45475904D01*
X60570761Y-45437809D01*
X60532666Y-45399714D01*
X60494571Y-45323523D01*
X60456476Y-45171142D01*
X60456476Y-44980666D01*
X60494571Y-44828285D01*
X60532666Y-44752095D01*
X60570761Y-44714000D01*
X60646952Y-44675904D01*
X17860476Y-42935904D02*
X17860476Y-42135904D01*
X18165238Y-42135904D01*
X18241428Y-42174000D01*
X18279523Y-42212095D01*
X18317619Y-42288285D01*
X18317619Y-42402571D01*
X18279523Y-42478761D01*
X18241428Y-42516857D01*
X18165238Y-42554952D01*
X17860476Y-42554952D01*
X18622380Y-42707333D02*
X19003333Y-42707333D01*
X18546190Y-42935904D02*
X18812857Y-42135904D01*
X19079523Y-42935904D01*
X19498571Y-42135904D02*
X19574761Y-42135904D01*
X19650952Y-42174000D01*
X19689047Y-42212095D01*
X19727142Y-42288285D01*
X19765238Y-42440666D01*
X19765238Y-42631142D01*
X19727142Y-42783523D01*
X19689047Y-42859714D01*
X19650952Y-42897809D01*
X19574761Y-42935904D01*
X19498571Y-42935904D01*
X19422380Y-42897809D01*
X19384285Y-42859714D01*
X19346190Y-42783523D01*
X19308095Y-42631142D01*
X19308095Y-42440666D01*
X19346190Y-42288285D01*
X19384285Y-42212095D01*
X19422380Y-42174000D01*
X19498571Y-42135904D01*
X83614952Y-75669904D02*
X83614952Y-74869904D01*
X83919714Y-74869904D01*
X83995904Y-74908000D01*
X84034000Y-74946095D01*
X84072095Y-75022285D01*
X84072095Y-75136571D01*
X84034000Y-75212761D01*
X83995904Y-75250857D01*
X83919714Y-75288952D01*
X83614952Y-75288952D01*
X84376857Y-75441333D02*
X84757809Y-75441333D01*
X84300666Y-75669904D02*
X84567333Y-74869904D01*
X84834000Y-75669904D01*
X85519714Y-75669904D02*
X85062571Y-75669904D01*
X85291142Y-75669904D02*
X85291142Y-74869904D01*
X85214952Y-74984190D01*
X85138761Y-75060380D01*
X85062571Y-75098476D01*
X85824476Y-74946095D02*
X85862571Y-74908000D01*
X85938761Y-74869904D01*
X86129238Y-74869904D01*
X86205428Y-74908000D01*
X86243523Y-74946095D01*
X86281619Y-75022285D01*
X86281619Y-75098476D01*
X86243523Y-75212761D01*
X85786380Y-75669904D01*
X86281619Y-75669904D01*
X68596476Y-83289904D02*
X68596476Y-82489904D01*
X68901238Y-82489904D01*
X68977428Y-82528000D01*
X69015523Y-82566095D01*
X69053619Y-82642285D01*
X69053619Y-82756571D01*
X69015523Y-82832761D01*
X68977428Y-82870857D01*
X68901238Y-82908952D01*
X68596476Y-82908952D01*
X69358380Y-83061333D02*
X69739333Y-83061333D01*
X69282190Y-83289904D02*
X69548857Y-82489904D01*
X69815523Y-83289904D01*
X70044095Y-82566095D02*
X70082190Y-82528000D01*
X70158380Y-82489904D01*
X70348857Y-82489904D01*
X70425047Y-82528000D01*
X70463142Y-82566095D01*
X70501238Y-82642285D01*
X70501238Y-82718476D01*
X70463142Y-82832761D01*
X70006000Y-83289904D01*
X70501238Y-83289904D01*
X29332095Y-54873904D02*
X29065428Y-54492952D01*
X28874952Y-54873904D02*
X28874952Y-54073904D01*
X29179714Y-54073904D01*
X29255904Y-54112000D01*
X29294000Y-54150095D01*
X29332095Y-54226285D01*
X29332095Y-54340571D01*
X29294000Y-54416761D01*
X29255904Y-54454857D01*
X29179714Y-54492952D01*
X28874952Y-54492952D01*
X29674952Y-54454857D02*
X29941619Y-54454857D01*
X30055904Y-54873904D02*
X29674952Y-54873904D01*
X29674952Y-54073904D01*
X30055904Y-54073904D01*
X30360666Y-54835809D02*
X30474952Y-54873904D01*
X30665428Y-54873904D01*
X30741619Y-54835809D01*
X30779714Y-54797714D01*
X30817809Y-54721523D01*
X30817809Y-54645333D01*
X30779714Y-54569142D01*
X30741619Y-54531047D01*
X30665428Y-54492952D01*
X30513047Y-54454857D01*
X30436857Y-54416761D01*
X30398761Y-54378666D01*
X30360666Y-54302476D01*
X30360666Y-54226285D01*
X30398761Y-54150095D01*
X30436857Y-54112000D01*
X30513047Y-54073904D01*
X30703523Y-54073904D01*
X30817809Y-54112000D01*
X31160666Y-54454857D02*
X31427333Y-54454857D01*
X31541619Y-54873904D02*
X31160666Y-54873904D01*
X31160666Y-54073904D01*
X31541619Y-54073904D01*
X31770190Y-54073904D02*
X32227333Y-54073904D01*
X31998761Y-54873904D02*
X31998761Y-54073904D01*
X71610000Y-87569904D02*
X71610000Y-88217523D01*
X71648095Y-88293714D01*
X71686190Y-88331809D01*
X71762380Y-88369904D01*
X71914761Y-88369904D01*
X71990952Y-88331809D01*
X72029047Y-88293714D01*
X72067142Y-88217523D01*
X72067142Y-87569904D01*
X72410000Y-88331809D02*
X72524285Y-88369904D01*
X72714761Y-88369904D01*
X72790952Y-88331809D01*
X72829047Y-88293714D01*
X72867142Y-88217523D01*
X72867142Y-88141333D01*
X72829047Y-88065142D01*
X72790952Y-88027047D01*
X72714761Y-87988952D01*
X72562380Y-87950857D01*
X72486190Y-87912761D01*
X72448095Y-87874666D01*
X72410000Y-87798476D01*
X72410000Y-87722285D01*
X72448095Y-87646095D01*
X72486190Y-87608000D01*
X72562380Y-87569904D01*
X72752857Y-87569904D01*
X72867142Y-87608000D01*
X73210000Y-87950857D02*
X73476666Y-87950857D01*
X73590952Y-88369904D02*
X73210000Y-88369904D01*
X73210000Y-87569904D01*
X73590952Y-87569904D01*
X74390952Y-88369904D02*
X74124285Y-87988952D01*
X73933809Y-88369904D02*
X73933809Y-87569904D01*
X74238571Y-87569904D01*
X74314761Y-87608000D01*
X74352857Y-87646095D01*
X74390952Y-87722285D01*
X74390952Y-87836571D01*
X74352857Y-87912761D01*
X74314761Y-87950857D01*
X74238571Y-87988952D01*
X73933809Y-87988952D01*
X74543333Y-88446095D02*
X75152857Y-88446095D01*
X75724285Y-88369904D02*
X75343333Y-88369904D01*
X75343333Y-87569904D01*
X58894571Y-68049904D02*
X58894571Y-67249904D01*
X59199333Y-67249904D01*
X59275523Y-67288000D01*
X59313619Y-67326095D01*
X59351714Y-67402285D01*
X59351714Y-67516571D01*
X59313619Y-67592761D01*
X59275523Y-67630857D01*
X59199333Y-67668952D01*
X58894571Y-67668952D01*
X59961238Y-67630857D02*
X60075523Y-67668952D01*
X60113619Y-67707047D01*
X60151714Y-67783238D01*
X60151714Y-67897523D01*
X60113619Y-67973714D01*
X60075523Y-68011809D01*
X59999333Y-68049904D01*
X59694571Y-68049904D01*
X59694571Y-67249904D01*
X59961238Y-67249904D01*
X60037428Y-67288000D01*
X60075523Y-67326095D01*
X60113619Y-67402285D01*
X60113619Y-67478476D01*
X60075523Y-67554666D01*
X60037428Y-67592761D01*
X59961238Y-67630857D01*
X59694571Y-67630857D01*
X60418380Y-67249904D02*
X60913619Y-67249904D01*
X60646952Y-67554666D01*
X60761238Y-67554666D01*
X60837428Y-67592761D01*
X60875523Y-67630857D01*
X60913619Y-67707047D01*
X60913619Y-67897523D01*
X60875523Y-67973714D01*
X60837428Y-68011809D01*
X60761238Y-68049904D01*
X60532666Y-68049904D01*
X60456476Y-68011809D01*
X60418380Y-67973714D01*
X17860476Y-41538904D02*
X17860476Y-40738904D01*
X18165238Y-40738904D01*
X18241428Y-40777000D01*
X18279523Y-40815095D01*
X18317619Y-40891285D01*
X18317619Y-41005571D01*
X18279523Y-41081761D01*
X18241428Y-41119857D01*
X18165238Y-41157952D01*
X17860476Y-41157952D01*
X19117619Y-41462714D02*
X19079523Y-41500809D01*
X18965238Y-41538904D01*
X18889047Y-41538904D01*
X18774761Y-41500809D01*
X18698571Y-41424619D01*
X18660476Y-41348428D01*
X18622380Y-41196047D01*
X18622380Y-41081761D01*
X18660476Y-40929380D01*
X18698571Y-40853190D01*
X18774761Y-40777000D01*
X18889047Y-40738904D01*
X18965238Y-40738904D01*
X19079523Y-40777000D01*
X19117619Y-40815095D01*
X19879523Y-41538904D02*
X19422380Y-41538904D01*
X19650952Y-41538904D02*
X19650952Y-40738904D01*
X19574761Y-40853190D01*
X19498571Y-40929380D01*
X19422380Y-40967476D01*
X20603333Y-40738904D02*
X20222380Y-40738904D01*
X20184285Y-41119857D01*
X20222380Y-41081761D01*
X20298571Y-41043666D01*
X20489047Y-41043666D01*
X20565238Y-41081761D01*
X20603333Y-41119857D01*
X20641428Y-41196047D01*
X20641428Y-41386523D01*
X20603333Y-41462714D01*
X20565238Y-41500809D01*
X20489047Y-41538904D01*
X20298571Y-41538904D01*
X20222380Y-41500809D01*
X20184285Y-41462714D01*
X17860476Y-45475904D02*
X17860476Y-44675904D01*
X18165238Y-44675904D01*
X18241428Y-44714000D01*
X18279523Y-44752095D01*
X18317619Y-44828285D01*
X18317619Y-44942571D01*
X18279523Y-45018761D01*
X18241428Y-45056857D01*
X18165238Y-45094952D01*
X17860476Y-45094952D01*
X18622380Y-45247333D02*
X19003333Y-45247333D01*
X18546190Y-45475904D02*
X18812857Y-44675904D01*
X19079523Y-45475904D01*
X19765238Y-45475904D02*
X19308095Y-45475904D01*
X19536666Y-45475904D02*
X19536666Y-44675904D01*
X19460476Y-44790190D01*
X19384285Y-44866380D01*
X19308095Y-44904476D01*
X43228476Y-76812904D02*
X43228476Y-76012904D01*
X43533238Y-76012904D01*
X43609428Y-76051000D01*
X43647523Y-76089095D01*
X43685619Y-76165285D01*
X43685619Y-76279571D01*
X43647523Y-76355761D01*
X43609428Y-76393857D01*
X43533238Y-76431952D01*
X43228476Y-76431952D01*
X44485619Y-76736714D02*
X44447523Y-76774809D01*
X44333238Y-76812904D01*
X44257047Y-76812904D01*
X44142761Y-76774809D01*
X44066571Y-76698619D01*
X44028476Y-76622428D01*
X43990380Y-76470047D01*
X43990380Y-76355761D01*
X44028476Y-76203380D01*
X44066571Y-76127190D01*
X44142761Y-76051000D01*
X44257047Y-76012904D01*
X44333238Y-76012904D01*
X44447523Y-76051000D01*
X44485619Y-76089095D01*
X45247523Y-76812904D02*
X44790380Y-76812904D01*
X45018952Y-76812904D02*
X45018952Y-76012904D01*
X44942761Y-76127190D01*
X44866571Y-76203380D01*
X44790380Y-76241476D01*
X45971333Y-76012904D02*
X45590380Y-76012904D01*
X45552285Y-76393857D01*
X45590380Y-76355761D01*
X45666571Y-76317666D01*
X45857047Y-76317666D01*
X45933238Y-76355761D01*
X45971333Y-76393857D01*
X46009428Y-76470047D01*
X46009428Y-76660523D01*
X45971333Y-76736714D01*
X45933238Y-76774809D01*
X45857047Y-76812904D01*
X45666571Y-76812904D01*
X45590380Y-76774809D01*
X45552285Y-76736714D01*
X18279523Y-64748000D02*
X18203333Y-64709904D01*
X18089047Y-64709904D01*
X17974761Y-64748000D01*
X17898571Y-64824190D01*
X17860476Y-64900380D01*
X17822380Y-65052761D01*
X17822380Y-65167047D01*
X17860476Y-65319428D01*
X17898571Y-65395619D01*
X17974761Y-65471809D01*
X18089047Y-65509904D01*
X18165238Y-65509904D01*
X18279523Y-65471809D01*
X18317619Y-65433714D01*
X18317619Y-65167047D01*
X18165238Y-65167047D01*
X18660476Y-65509904D02*
X18660476Y-64709904D01*
X19117619Y-65509904D01*
X19117619Y-64709904D01*
X19498571Y-65509904D02*
X19498571Y-64709904D01*
X19689047Y-64709904D01*
X19803333Y-64748000D01*
X19879523Y-64824190D01*
X19917619Y-64900380D01*
X19955714Y-65052761D01*
X19955714Y-65167047D01*
X19917619Y-65319428D01*
X19879523Y-65395619D01*
X19803333Y-65471809D01*
X19689047Y-65509904D01*
X19498571Y-65509904D01*
X33640857Y-88369904D02*
X33640857Y-87569904D01*
X33945619Y-87569904D01*
X34021809Y-87608000D01*
X34059904Y-87646095D01*
X34098000Y-87722285D01*
X34098000Y-87836571D01*
X34059904Y-87912761D01*
X34021809Y-87950857D01*
X33945619Y-87988952D01*
X33640857Y-87988952D01*
X34402761Y-88141333D02*
X34783714Y-88141333D01*
X34326571Y-88369904D02*
X34593238Y-87569904D01*
X34859904Y-88369904D01*
X35507523Y-87569904D02*
X35126571Y-87569904D01*
X35088476Y-87950857D01*
X35126571Y-87912761D01*
X35202761Y-87874666D01*
X35393238Y-87874666D01*
X35469428Y-87912761D01*
X35507523Y-87950857D01*
X35545619Y-88027047D01*
X35545619Y-88217523D01*
X35507523Y-88293714D01*
X35469428Y-88331809D01*
X35393238Y-88369904D01*
X35202761Y-88369904D01*
X35126571Y-88331809D01*
X35088476Y-88293714D01*
X33640857Y-85829904D02*
X33640857Y-85029904D01*
X33945619Y-85029904D01*
X34021809Y-85068000D01*
X34059904Y-85106095D01*
X34098000Y-85182285D01*
X34098000Y-85296571D01*
X34059904Y-85372761D01*
X34021809Y-85410857D01*
X33945619Y-85448952D01*
X33640857Y-85448952D01*
X34402761Y-85601333D02*
X34783714Y-85601333D01*
X34326571Y-85829904D02*
X34593238Y-85029904D01*
X34859904Y-85829904D01*
X35469428Y-85029904D02*
X35317047Y-85029904D01*
X35240857Y-85068000D01*
X35202761Y-85106095D01*
X35126571Y-85220380D01*
X35088476Y-85372761D01*
X35088476Y-85677523D01*
X35126571Y-85753714D01*
X35164666Y-85791809D01*
X35240857Y-85829904D01*
X35393238Y-85829904D01*
X35469428Y-85791809D01*
X35507523Y-85753714D01*
X35545619Y-85677523D01*
X35545619Y-85487047D01*
X35507523Y-85410857D01*
X35469428Y-85372761D01*
X35393238Y-85334666D01*
X35240857Y-85334666D01*
X35164666Y-85372761D01*
X35126571Y-85410857D01*
X35088476Y-85487047D01*
X22737285Y-67884904D02*
X23232523Y-67884904D01*
X22965857Y-68189666D01*
X23080142Y-68189666D01*
X23156333Y-68227761D01*
X23194428Y-68265857D01*
X23232523Y-68342047D01*
X23232523Y-68532523D01*
X23194428Y-68608714D01*
X23156333Y-68646809D01*
X23080142Y-68684904D01*
X22851571Y-68684904D01*
X22775380Y-68646809D01*
X22737285Y-68608714D01*
X23461095Y-67884904D02*
X23727761Y-68684904D01*
X23994428Y-67884904D01*
X24184904Y-67884904D02*
X24680142Y-67884904D01*
X24413476Y-68189666D01*
X24527761Y-68189666D01*
X24603952Y-68227761D01*
X24642047Y-68265857D01*
X24680142Y-68342047D01*
X24680142Y-68532523D01*
X24642047Y-68608714D01*
X24603952Y-68646809D01*
X24527761Y-68684904D01*
X24299190Y-68684904D01*
X24223000Y-68646809D01*
X24184904Y-68608714D01*
X32878952Y-35315904D02*
X32878952Y-34515904D01*
X33183714Y-34515904D01*
X33259904Y-34554000D01*
X33298000Y-34592095D01*
X33336095Y-34668285D01*
X33336095Y-34782571D01*
X33298000Y-34858761D01*
X33259904Y-34896857D01*
X33183714Y-34934952D01*
X32878952Y-34934952D01*
X33640857Y-35087333D02*
X34021809Y-35087333D01*
X33564666Y-35315904D02*
X33831333Y-34515904D01*
X34098000Y-35315904D01*
X34783714Y-35315904D02*
X34326571Y-35315904D01*
X34555142Y-35315904D02*
X34555142Y-34515904D01*
X34478952Y-34630190D01*
X34402761Y-34706380D01*
X34326571Y-34744476D01*
X35469428Y-34782571D02*
X35469428Y-35315904D01*
X35278952Y-34477809D02*
X35088476Y-35049238D01*
X35583714Y-35049238D01*
X32878952Y-42935904D02*
X32878952Y-42135904D01*
X33183714Y-42135904D01*
X33259904Y-42174000D01*
X33298000Y-42212095D01*
X33336095Y-42288285D01*
X33336095Y-42402571D01*
X33298000Y-42478761D01*
X33259904Y-42516857D01*
X33183714Y-42554952D01*
X32878952Y-42554952D01*
X33640857Y-42707333D02*
X34021809Y-42707333D01*
X33564666Y-42935904D02*
X33831333Y-42135904D01*
X34098000Y-42935904D01*
X34783714Y-42935904D02*
X34326571Y-42935904D01*
X34555142Y-42935904D02*
X34555142Y-42135904D01*
X34478952Y-42250190D01*
X34402761Y-42326380D01*
X34326571Y-42364476D01*
X35545619Y-42935904D02*
X35088476Y-42935904D01*
X35317047Y-42935904D02*
X35317047Y-42135904D01*
X35240857Y-42250190D01*
X35164666Y-42326380D01*
X35088476Y-42364476D01*
X17733476Y-72240904D02*
X17733476Y-71440904D01*
X18038238Y-71440904D01*
X18114428Y-71479000D01*
X18152523Y-71517095D01*
X18190619Y-71593285D01*
X18190619Y-71707571D01*
X18152523Y-71783761D01*
X18114428Y-71821857D01*
X18038238Y-71859952D01*
X17733476Y-71859952D01*
X18990619Y-72164714D02*
X18952523Y-72202809D01*
X18838238Y-72240904D01*
X18762047Y-72240904D01*
X18647761Y-72202809D01*
X18571571Y-72126619D01*
X18533476Y-72050428D01*
X18495380Y-71898047D01*
X18495380Y-71783761D01*
X18533476Y-71631380D01*
X18571571Y-71555190D01*
X18647761Y-71479000D01*
X18762047Y-71440904D01*
X18838238Y-71440904D01*
X18952523Y-71479000D01*
X18990619Y-71517095D01*
X19752523Y-72240904D02*
X19295380Y-72240904D01*
X19523952Y-72240904D02*
X19523952Y-71440904D01*
X19447761Y-71555190D01*
X19371571Y-71631380D01*
X19295380Y-71669476D01*
X20438238Y-71707571D02*
X20438238Y-72240904D01*
X20247761Y-71402809D02*
X20057285Y-71974238D01*
X20552523Y-71974238D01*
X58894571Y-80749904D02*
X58894571Y-79949904D01*
X59199333Y-79949904D01*
X59275523Y-79988000D01*
X59313619Y-80026095D01*
X59351714Y-80102285D01*
X59351714Y-80216571D01*
X59313619Y-80292761D01*
X59275523Y-80330857D01*
X59199333Y-80368952D01*
X58894571Y-80368952D01*
X59961238Y-80330857D02*
X60075523Y-80368952D01*
X60113619Y-80407047D01*
X60151714Y-80483238D01*
X60151714Y-80597523D01*
X60113619Y-80673714D01*
X60075523Y-80711809D01*
X59999333Y-80749904D01*
X59694571Y-80749904D01*
X59694571Y-79949904D01*
X59961238Y-79949904D01*
X60037428Y-79988000D01*
X60075523Y-80026095D01*
X60113619Y-80102285D01*
X60113619Y-80178476D01*
X60075523Y-80254666D01*
X60037428Y-80292761D01*
X59961238Y-80330857D01*
X59694571Y-80330857D01*
X60646952Y-79949904D02*
X60723142Y-79949904D01*
X60799333Y-79988000D01*
X60837428Y-80026095D01*
X60875523Y-80102285D01*
X60913619Y-80254666D01*
X60913619Y-80445142D01*
X60875523Y-80597523D01*
X60837428Y-80673714D01*
X60799333Y-80711809D01*
X60723142Y-80749904D01*
X60646952Y-80749904D01*
X60570761Y-80711809D01*
X60532666Y-80673714D01*
X60494571Y-80597523D01*
X60456476Y-80445142D01*
X60456476Y-80254666D01*
X60494571Y-80102285D01*
X60532666Y-80026095D01*
X60570761Y-79988000D01*
X60646952Y-79949904D01*
X73473285Y-67884904D02*
X73968523Y-67884904D01*
X73701857Y-68189666D01*
X73816142Y-68189666D01*
X73892333Y-68227761D01*
X73930428Y-68265857D01*
X73968523Y-68342047D01*
X73968523Y-68532523D01*
X73930428Y-68608714D01*
X73892333Y-68646809D01*
X73816142Y-68684904D01*
X73587571Y-68684904D01*
X73511380Y-68646809D01*
X73473285Y-68608714D01*
X74197095Y-67884904D02*
X74463761Y-68684904D01*
X74730428Y-67884904D01*
X74920904Y-67884904D02*
X75416142Y-67884904D01*
X75149476Y-68189666D01*
X75263761Y-68189666D01*
X75339952Y-68227761D01*
X75378047Y-68265857D01*
X75416142Y-68342047D01*
X75416142Y-68532523D01*
X75378047Y-68608714D01*
X75339952Y-68646809D01*
X75263761Y-68684904D01*
X75035190Y-68684904D01*
X74959000Y-68646809D01*
X74920904Y-68608714D01*
X80068095Y-90147904D02*
X79801428Y-89766952D01*
X79610952Y-90147904D02*
X79610952Y-89347904D01*
X79915714Y-89347904D01*
X79991904Y-89386000D01*
X80030000Y-89424095D01*
X80068095Y-89500285D01*
X80068095Y-89614571D01*
X80030000Y-89690761D01*
X79991904Y-89728857D01*
X79915714Y-89766952D01*
X79610952Y-89766952D01*
X80410952Y-89728857D02*
X80677619Y-89728857D01*
X80791904Y-90147904D02*
X80410952Y-90147904D01*
X80410952Y-89347904D01*
X80791904Y-89347904D01*
X81096666Y-90109809D02*
X81210952Y-90147904D01*
X81401428Y-90147904D01*
X81477619Y-90109809D01*
X81515714Y-90071714D01*
X81553809Y-89995523D01*
X81553809Y-89919333D01*
X81515714Y-89843142D01*
X81477619Y-89805047D01*
X81401428Y-89766952D01*
X81249047Y-89728857D01*
X81172857Y-89690761D01*
X81134761Y-89652666D01*
X81096666Y-89576476D01*
X81096666Y-89500285D01*
X81134761Y-89424095D01*
X81172857Y-89386000D01*
X81249047Y-89347904D01*
X81439523Y-89347904D01*
X81553809Y-89386000D01*
X81896666Y-89728857D02*
X82163333Y-89728857D01*
X82277619Y-90147904D02*
X81896666Y-90147904D01*
X81896666Y-89347904D01*
X82277619Y-89347904D01*
X82506190Y-89347904D02*
X82963333Y-89347904D01*
X82734761Y-90147904D02*
X82734761Y-89347904D01*
X18279523Y-29474000D02*
X18203333Y-29435904D01*
X18089047Y-29435904D01*
X17974761Y-29474000D01*
X17898571Y-29550190D01*
X17860476Y-29626380D01*
X17822380Y-29778761D01*
X17822380Y-29893047D01*
X17860476Y-30045428D01*
X17898571Y-30121619D01*
X17974761Y-30197809D01*
X18089047Y-30235904D01*
X18165238Y-30235904D01*
X18279523Y-30197809D01*
X18317619Y-30159714D01*
X18317619Y-29893047D01*
X18165238Y-29893047D01*
X18660476Y-30235904D02*
X18660476Y-29435904D01*
X19117619Y-30235904D01*
X19117619Y-29435904D01*
X19498571Y-30235904D02*
X19498571Y-29435904D01*
X19689047Y-29435904D01*
X19803333Y-29474000D01*
X19879523Y-29550190D01*
X19917619Y-29626380D01*
X19955714Y-29778761D01*
X19955714Y-29893047D01*
X19917619Y-30045428D01*
X19879523Y-30121619D01*
X19803333Y-30197809D01*
X19689047Y-30235904D01*
X19498571Y-30235904D01*
X84262571Y-80749904D02*
X84262571Y-79949904D01*
X84567333Y-79949904D01*
X84643523Y-79988000D01*
X84681619Y-80026095D01*
X84719714Y-80102285D01*
X84719714Y-80216571D01*
X84681619Y-80292761D01*
X84643523Y-80330857D01*
X84567333Y-80368952D01*
X84262571Y-80368952D01*
X85329238Y-80330857D02*
X85443523Y-80368952D01*
X85481619Y-80407047D01*
X85519714Y-80483238D01*
X85519714Y-80597523D01*
X85481619Y-80673714D01*
X85443523Y-80711809D01*
X85367333Y-80749904D01*
X85062571Y-80749904D01*
X85062571Y-79949904D01*
X85329238Y-79949904D01*
X85405428Y-79988000D01*
X85443523Y-80026095D01*
X85481619Y-80102285D01*
X85481619Y-80178476D01*
X85443523Y-80254666D01*
X85405428Y-80292761D01*
X85329238Y-80330857D01*
X85062571Y-80330857D01*
X86014952Y-79949904D02*
X86091142Y-79949904D01*
X86167333Y-79988000D01*
X86205428Y-80026095D01*
X86243523Y-80102285D01*
X86281619Y-80254666D01*
X86281619Y-80445142D01*
X86243523Y-80597523D01*
X86205428Y-80673714D01*
X86167333Y-80711809D01*
X86091142Y-80749904D01*
X86014952Y-80749904D01*
X85938761Y-80711809D01*
X85900666Y-80673714D01*
X85862571Y-80597523D01*
X85824476Y-80445142D01*
X85824476Y-80254666D01*
X85862571Y-80102285D01*
X85900666Y-80026095D01*
X85938761Y-79988000D01*
X86014952Y-79949904D01*
X69015523Y-64748000D02*
X68939333Y-64709904D01*
X68825047Y-64709904D01*
X68710761Y-64748000D01*
X68634571Y-64824190D01*
X68596476Y-64900380D01*
X68558380Y-65052761D01*
X68558380Y-65167047D01*
X68596476Y-65319428D01*
X68634571Y-65395619D01*
X68710761Y-65471809D01*
X68825047Y-65509904D01*
X68901238Y-65509904D01*
X69015523Y-65471809D01*
X69053619Y-65433714D01*
X69053619Y-65167047D01*
X68901238Y-65167047D01*
X69396476Y-65509904D02*
X69396476Y-64709904D01*
X69853619Y-65509904D01*
X69853619Y-64709904D01*
X70234571Y-65509904D02*
X70234571Y-64709904D01*
X70425047Y-64709904D01*
X70539333Y-64748000D01*
X70615523Y-64824190D01*
X70653619Y-64900380D01*
X70691714Y-65052761D01*
X70691714Y-65167047D01*
X70653619Y-65319428D01*
X70615523Y-65395619D01*
X70539333Y-65471809D01*
X70425047Y-65509904D01*
X70234571Y-65509904D01*
X43228476Y-32775904D02*
X43228476Y-31975904D01*
X43685619Y-32775904D01*
X43685619Y-31975904D01*
X44523714Y-32775904D02*
X44257047Y-32394952D01*
X44066571Y-32775904D02*
X44066571Y-31975904D01*
X44371333Y-31975904D01*
X44447523Y-32014000D01*
X44485619Y-32052095D01*
X44523714Y-32128285D01*
X44523714Y-32242571D01*
X44485619Y-32318761D01*
X44447523Y-32356857D01*
X44371333Y-32394952D01*
X44066571Y-32394952D01*
X44828476Y-32737809D02*
X44942761Y-32775904D01*
X45133238Y-32775904D01*
X45209428Y-32737809D01*
X45247523Y-32699714D01*
X45285619Y-32623523D01*
X45285619Y-32547333D01*
X45247523Y-32471142D01*
X45209428Y-32433047D01*
X45133238Y-32394952D01*
X44980857Y-32356857D01*
X44904666Y-32318761D01*
X44866571Y-32280666D01*
X44828476Y-32204476D01*
X44828476Y-32128285D01*
X44866571Y-32052095D01*
X44904666Y-32014000D01*
X44980857Y-31975904D01*
X45171333Y-31975904D01*
X45285619Y-32014000D01*
X45514190Y-31975904D02*
X45971333Y-31975904D01*
X45742761Y-32775904D02*
X45742761Y-31975904D01*
X17860476Y-76812904D02*
X17860476Y-76012904D01*
X18165238Y-76012904D01*
X18241428Y-76051000D01*
X18279523Y-76089095D01*
X18317619Y-76165285D01*
X18317619Y-76279571D01*
X18279523Y-76355761D01*
X18241428Y-76393857D01*
X18165238Y-76431952D01*
X17860476Y-76431952D01*
X19117619Y-76736714D02*
X19079523Y-76774809D01*
X18965238Y-76812904D01*
X18889047Y-76812904D01*
X18774761Y-76774809D01*
X18698571Y-76698619D01*
X18660476Y-76622428D01*
X18622380Y-76470047D01*
X18622380Y-76355761D01*
X18660476Y-76203380D01*
X18698571Y-76127190D01*
X18774761Y-76051000D01*
X18889047Y-76012904D01*
X18965238Y-76012904D01*
X19079523Y-76051000D01*
X19117619Y-76089095D01*
X19879523Y-76812904D02*
X19422380Y-76812904D01*
X19650952Y-76812904D02*
X19650952Y-76012904D01*
X19574761Y-76127190D01*
X19498571Y-76203380D01*
X19422380Y-76241476D01*
X20603333Y-76012904D02*
X20222380Y-76012904D01*
X20184285Y-76393857D01*
X20222380Y-76355761D01*
X20298571Y-76317666D01*
X20489047Y-76317666D01*
X20565238Y-76355761D01*
X20603333Y-76393857D01*
X20641428Y-76470047D01*
X20641428Y-76660523D01*
X20603333Y-76736714D01*
X20565238Y-76774809D01*
X20489047Y-76812904D01*
X20298571Y-76812904D01*
X20222380Y-76774809D01*
X20184285Y-76736714D01*
X59237428Y-29474000D02*
X59161238Y-29435904D01*
X59046952Y-29435904D01*
X58932666Y-29474000D01*
X58856476Y-29550190D01*
X58818380Y-29626380D01*
X58780285Y-29778761D01*
X58780285Y-29893047D01*
X58818380Y-30045428D01*
X58856476Y-30121619D01*
X58932666Y-30197809D01*
X59046952Y-30235904D01*
X59123142Y-30235904D01*
X59237428Y-30197809D01*
X59275523Y-30159714D01*
X59275523Y-29893047D01*
X59123142Y-29893047D01*
X59618380Y-30235904D02*
X59618380Y-29435904D01*
X60075523Y-30235904D01*
X60075523Y-29435904D01*
X60456476Y-30235904D02*
X60456476Y-29435904D01*
X60646952Y-29435904D01*
X60761238Y-29474000D01*
X60837428Y-29550190D01*
X60875523Y-29626380D01*
X60913619Y-29778761D01*
X60913619Y-29893047D01*
X60875523Y-30045428D01*
X60837428Y-30121619D01*
X60761238Y-30197809D01*
X60646952Y-30235904D01*
X60456476Y-30235904D01*
X17860476Y-32775904D02*
X17860476Y-31975904D01*
X18317619Y-32775904D01*
X18317619Y-31975904D01*
X19155714Y-32775904D02*
X18889047Y-32394952D01*
X18698571Y-32775904D02*
X18698571Y-31975904D01*
X19003333Y-31975904D01*
X19079523Y-32014000D01*
X19117619Y-32052095D01*
X19155714Y-32128285D01*
X19155714Y-32242571D01*
X19117619Y-32318761D01*
X19079523Y-32356857D01*
X19003333Y-32394952D01*
X18698571Y-32394952D01*
X19460476Y-32737809D02*
X19574761Y-32775904D01*
X19765238Y-32775904D01*
X19841428Y-32737809D01*
X19879523Y-32699714D01*
X19917619Y-32623523D01*
X19917619Y-32547333D01*
X19879523Y-32471142D01*
X19841428Y-32433047D01*
X19765238Y-32394952D01*
X19612857Y-32356857D01*
X19536666Y-32318761D01*
X19498571Y-32280666D01*
X19460476Y-32204476D01*
X19460476Y-32128285D01*
X19498571Y-32052095D01*
X19536666Y-32014000D01*
X19612857Y-31975904D01*
X19803333Y-31975904D01*
X19917619Y-32014000D01*
X20146190Y-31975904D02*
X20603333Y-31975904D01*
X20374761Y-32775904D02*
X20374761Y-31975904D01*
X17860476Y-68049904D02*
X17860476Y-67249904D01*
X18317619Y-68049904D01*
X18317619Y-67249904D01*
X19155714Y-68049904D02*
X18889047Y-67668952D01*
X18698571Y-68049904D02*
X18698571Y-67249904D01*
X19003333Y-67249904D01*
X19079523Y-67288000D01*
X19117619Y-67326095D01*
X19155714Y-67402285D01*
X19155714Y-67516571D01*
X19117619Y-67592761D01*
X19079523Y-67630857D01*
X19003333Y-67668952D01*
X18698571Y-67668952D01*
X19460476Y-68011809D02*
X19574761Y-68049904D01*
X19765238Y-68049904D01*
X19841428Y-68011809D01*
X19879523Y-67973714D01*
X19917619Y-67897523D01*
X19917619Y-67821333D01*
X19879523Y-67745142D01*
X19841428Y-67707047D01*
X19765238Y-67668952D01*
X19612857Y-67630857D01*
X19536666Y-67592761D01*
X19498571Y-67554666D01*
X19460476Y-67478476D01*
X19460476Y-67402285D01*
X19498571Y-67326095D01*
X19536666Y-67288000D01*
X19612857Y-67249904D01*
X19803333Y-67249904D01*
X19917619Y-67288000D01*
X20146190Y-67249904D02*
X20603333Y-67249904D01*
X20374761Y-68049904D02*
X20374761Y-67249904D01*
X17860476Y-83289904D02*
X17860476Y-82489904D01*
X18165238Y-82489904D01*
X18241428Y-82528000D01*
X18279523Y-82566095D01*
X18317619Y-82642285D01*
X18317619Y-82756571D01*
X18279523Y-82832761D01*
X18241428Y-82870857D01*
X18165238Y-82908952D01*
X17860476Y-82908952D01*
X18622380Y-83061333D02*
X19003333Y-83061333D01*
X18546190Y-83289904D02*
X18812857Y-82489904D01*
X19079523Y-83289904D01*
X19308095Y-82566095D02*
X19346190Y-82528000D01*
X19422380Y-82489904D01*
X19612857Y-82489904D01*
X19689047Y-82528000D01*
X19727142Y-82566095D01*
X19765238Y-82642285D01*
X19765238Y-82718476D01*
X19727142Y-82832761D01*
X19270000Y-83289904D01*
X19765238Y-83289904D01*
X68596476Y-76812904D02*
X68596476Y-76012904D01*
X68901238Y-76012904D01*
X68977428Y-76051000D01*
X69015523Y-76089095D01*
X69053619Y-76165285D01*
X69053619Y-76279571D01*
X69015523Y-76355761D01*
X68977428Y-76393857D01*
X68901238Y-76431952D01*
X68596476Y-76431952D01*
X69853619Y-76736714D02*
X69815523Y-76774809D01*
X69701238Y-76812904D01*
X69625047Y-76812904D01*
X69510761Y-76774809D01*
X69434571Y-76698619D01*
X69396476Y-76622428D01*
X69358380Y-76470047D01*
X69358380Y-76355761D01*
X69396476Y-76203380D01*
X69434571Y-76127190D01*
X69510761Y-76051000D01*
X69625047Y-76012904D01*
X69701238Y-76012904D01*
X69815523Y-76051000D01*
X69853619Y-76089095D01*
X70615523Y-76812904D02*
X70158380Y-76812904D01*
X70386952Y-76812904D02*
X70386952Y-76012904D01*
X70310761Y-76127190D01*
X70234571Y-76203380D01*
X70158380Y-76241476D01*
X71339333Y-76012904D02*
X70958380Y-76012904D01*
X70920285Y-76393857D01*
X70958380Y-76355761D01*
X71034571Y-76317666D01*
X71225047Y-76317666D01*
X71301238Y-76355761D01*
X71339333Y-76393857D01*
X71377428Y-76470047D01*
X71377428Y-76660523D01*
X71339333Y-76736714D01*
X71301238Y-76774809D01*
X71225047Y-76812904D01*
X71034571Y-76812904D01*
X70958380Y-76774809D01*
X70920285Y-76736714D01*
X33640857Y-48015904D02*
X33640857Y-47215904D01*
X33945619Y-47215904D01*
X34021809Y-47254000D01*
X34059904Y-47292095D01*
X34098000Y-47368285D01*
X34098000Y-47482571D01*
X34059904Y-47558761D01*
X34021809Y-47596857D01*
X33945619Y-47634952D01*
X33640857Y-47634952D01*
X34402761Y-47787333D02*
X34783714Y-47787333D01*
X34326571Y-48015904D02*
X34593238Y-47215904D01*
X34859904Y-48015904D01*
X35050380Y-47215904D02*
X35583714Y-47215904D01*
X35240857Y-48015904D01*
X59237428Y-26895904D02*
X59504095Y-27695904D01*
X59770761Y-26895904D01*
X60037428Y-27695904D02*
X60037428Y-26895904D01*
X60418380Y-27695904D02*
X60418380Y-26895904D01*
X60875523Y-27695904D01*
X60875523Y-26895904D01*
X43228476Y-35315904D02*
X43228476Y-34515904D01*
X43533238Y-34515904D01*
X43609428Y-34554000D01*
X43647523Y-34592095D01*
X43685619Y-34668285D01*
X43685619Y-34782571D01*
X43647523Y-34858761D01*
X43609428Y-34896857D01*
X43533238Y-34934952D01*
X43228476Y-34934952D01*
X44295142Y-34896857D02*
X44409428Y-34934952D01*
X44447523Y-34973047D01*
X44485619Y-35049238D01*
X44485619Y-35163523D01*
X44447523Y-35239714D01*
X44409428Y-35277809D01*
X44333238Y-35315904D01*
X44028476Y-35315904D01*
X44028476Y-34515904D01*
X44295142Y-34515904D01*
X44371333Y-34554000D01*
X44409428Y-34592095D01*
X44447523Y-34668285D01*
X44447523Y-34744476D01*
X44409428Y-34820666D01*
X44371333Y-34858761D01*
X44295142Y-34896857D01*
X44028476Y-34896857D01*
X44752285Y-34515904D02*
X45285619Y-34515904D01*
X44942761Y-35315904D01*
X33869428Y-26895904D02*
X34136095Y-27695904D01*
X34402761Y-26895904D01*
X34669428Y-27695904D02*
X34669428Y-26895904D01*
X35050380Y-27695904D02*
X35050380Y-26895904D01*
X35507523Y-27695904D01*
X35507523Y-26895904D01*
X43228476Y-48015904D02*
X43228476Y-47215904D01*
X43533238Y-47215904D01*
X43609428Y-47254000D01*
X43647523Y-47292095D01*
X43685619Y-47368285D01*
X43685619Y-47482571D01*
X43647523Y-47558761D01*
X43609428Y-47596857D01*
X43533238Y-47634952D01*
X43228476Y-47634952D01*
X43990380Y-47787333D02*
X44371333Y-47787333D01*
X43914190Y-48015904D02*
X44180857Y-47215904D01*
X44447523Y-48015904D01*
X44676095Y-47292095D02*
X44714190Y-47254000D01*
X44790380Y-47215904D01*
X44980857Y-47215904D01*
X45057047Y-47254000D01*
X45095142Y-47292095D01*
X45133238Y-47368285D01*
X45133238Y-47444476D01*
X45095142Y-47558761D01*
X44638000Y-48015904D01*
X45133238Y-48015904D01*
X17860476Y-48015904D02*
X17860476Y-47215904D01*
X18165238Y-47215904D01*
X18241428Y-47254000D01*
X18279523Y-47292095D01*
X18317619Y-47368285D01*
X18317619Y-47482571D01*
X18279523Y-47558761D01*
X18241428Y-47596857D01*
X18165238Y-47634952D01*
X17860476Y-47634952D01*
X18622380Y-47787333D02*
X19003333Y-47787333D01*
X18546190Y-48015904D02*
X18812857Y-47215904D01*
X19079523Y-48015904D01*
X19308095Y-47292095D02*
X19346190Y-47254000D01*
X19422380Y-47215904D01*
X19612857Y-47215904D01*
X19689047Y-47254000D01*
X19727142Y-47292095D01*
X19765238Y-47368285D01*
X19765238Y-47444476D01*
X19727142Y-47558761D01*
X19270000Y-48015904D01*
X19765238Y-48015904D01*
X68469476Y-72240904D02*
X68469476Y-71440904D01*
X68774238Y-71440904D01*
X68850428Y-71479000D01*
X68888523Y-71517095D01*
X68926619Y-71593285D01*
X68926619Y-71707571D01*
X68888523Y-71783761D01*
X68850428Y-71821857D01*
X68774238Y-71859952D01*
X68469476Y-71859952D01*
X69726619Y-72164714D02*
X69688523Y-72202809D01*
X69574238Y-72240904D01*
X69498047Y-72240904D01*
X69383761Y-72202809D01*
X69307571Y-72126619D01*
X69269476Y-72050428D01*
X69231380Y-71898047D01*
X69231380Y-71783761D01*
X69269476Y-71631380D01*
X69307571Y-71555190D01*
X69383761Y-71479000D01*
X69498047Y-71440904D01*
X69574238Y-71440904D01*
X69688523Y-71479000D01*
X69726619Y-71517095D01*
X70488523Y-72240904D02*
X70031380Y-72240904D01*
X70259952Y-72240904D02*
X70259952Y-71440904D01*
X70183761Y-71555190D01*
X70107571Y-71631380D01*
X70031380Y-71669476D01*
X71174238Y-71707571D02*
X71174238Y-72240904D01*
X70983761Y-71402809D02*
X70793285Y-71974238D01*
X71288523Y-71974238D01*
X43228476Y-78209904D02*
X43228476Y-77409904D01*
X43533238Y-77409904D01*
X43609428Y-77448000D01*
X43647523Y-77486095D01*
X43685619Y-77562285D01*
X43685619Y-77676571D01*
X43647523Y-77752761D01*
X43609428Y-77790857D01*
X43533238Y-77828952D01*
X43228476Y-77828952D01*
X43990380Y-77981333D02*
X44371333Y-77981333D01*
X43914190Y-78209904D02*
X44180857Y-77409904D01*
X44447523Y-78209904D01*
X44866571Y-77409904D02*
X44942761Y-77409904D01*
X45018952Y-77448000D01*
X45057047Y-77486095D01*
X45095142Y-77562285D01*
X45133238Y-77714666D01*
X45133238Y-77905142D01*
X45095142Y-78057523D01*
X45057047Y-78133714D01*
X45018952Y-78171809D01*
X44942761Y-78209904D01*
X44866571Y-78209904D01*
X44790380Y-78171809D01*
X44752285Y-78133714D01*
X44714190Y-78057523D01*
X44676095Y-77905142D01*
X44676095Y-77714666D01*
X44714190Y-77562285D01*
X44752285Y-77486095D01*
X44790380Y-77448000D01*
X44866571Y-77409904D01*
X29332095Y-90147904D02*
X29065428Y-89766952D01*
X28874952Y-90147904D02*
X28874952Y-89347904D01*
X29179714Y-89347904D01*
X29255904Y-89386000D01*
X29294000Y-89424095D01*
X29332095Y-89500285D01*
X29332095Y-89614571D01*
X29294000Y-89690761D01*
X29255904Y-89728857D01*
X29179714Y-89766952D01*
X28874952Y-89766952D01*
X29674952Y-89728857D02*
X29941619Y-89728857D01*
X30055904Y-90147904D02*
X29674952Y-90147904D01*
X29674952Y-89347904D01*
X30055904Y-89347904D01*
X30360666Y-90109809D02*
X30474952Y-90147904D01*
X30665428Y-90147904D01*
X30741619Y-90109809D01*
X30779714Y-90071714D01*
X30817809Y-89995523D01*
X30817809Y-89919333D01*
X30779714Y-89843142D01*
X30741619Y-89805047D01*
X30665428Y-89766952D01*
X30513047Y-89728857D01*
X30436857Y-89690761D01*
X30398761Y-89652666D01*
X30360666Y-89576476D01*
X30360666Y-89500285D01*
X30398761Y-89424095D01*
X30436857Y-89386000D01*
X30513047Y-89347904D01*
X30703523Y-89347904D01*
X30817809Y-89386000D01*
X31160666Y-89728857D02*
X31427333Y-89728857D01*
X31541619Y-90147904D02*
X31160666Y-90147904D01*
X31160666Y-89347904D01*
X31541619Y-89347904D01*
X31770190Y-89347904D02*
X32227333Y-89347904D01*
X31998761Y-90147904D02*
X31998761Y-89347904D01*
X54700095Y-90147904D02*
X54433428Y-89766952D01*
X54242952Y-90147904D02*
X54242952Y-89347904D01*
X54547714Y-89347904D01*
X54623904Y-89386000D01*
X54662000Y-89424095D01*
X54700095Y-89500285D01*
X54700095Y-89614571D01*
X54662000Y-89690761D01*
X54623904Y-89728857D01*
X54547714Y-89766952D01*
X54242952Y-89766952D01*
X55042952Y-89728857D02*
X55309619Y-89728857D01*
X55423904Y-90147904D02*
X55042952Y-90147904D01*
X55042952Y-89347904D01*
X55423904Y-89347904D01*
X55728666Y-90109809D02*
X55842952Y-90147904D01*
X56033428Y-90147904D01*
X56109619Y-90109809D01*
X56147714Y-90071714D01*
X56185809Y-89995523D01*
X56185809Y-89919333D01*
X56147714Y-89843142D01*
X56109619Y-89805047D01*
X56033428Y-89766952D01*
X55881047Y-89728857D01*
X55804857Y-89690761D01*
X55766761Y-89652666D01*
X55728666Y-89576476D01*
X55728666Y-89500285D01*
X55766761Y-89424095D01*
X55804857Y-89386000D01*
X55881047Y-89347904D01*
X56071523Y-89347904D01*
X56185809Y-89386000D01*
X56528666Y-89728857D02*
X56795333Y-89728857D01*
X56909619Y-90147904D02*
X56528666Y-90147904D01*
X56528666Y-89347904D01*
X56909619Y-89347904D01*
X57138190Y-89347904D02*
X57595333Y-89347904D01*
X57366761Y-90147904D02*
X57366761Y-89347904D01*
X17860476Y-35315904D02*
X17860476Y-34515904D01*
X18165238Y-34515904D01*
X18241428Y-34554000D01*
X18279523Y-34592095D01*
X18317619Y-34668285D01*
X18317619Y-34782571D01*
X18279523Y-34858761D01*
X18241428Y-34896857D01*
X18165238Y-34934952D01*
X17860476Y-34934952D01*
X18927142Y-34896857D02*
X19041428Y-34934952D01*
X19079523Y-34973047D01*
X19117619Y-35049238D01*
X19117619Y-35163523D01*
X19079523Y-35239714D01*
X19041428Y-35277809D01*
X18965238Y-35315904D01*
X18660476Y-35315904D01*
X18660476Y-34515904D01*
X18927142Y-34515904D01*
X19003333Y-34554000D01*
X19041428Y-34592095D01*
X19079523Y-34668285D01*
X19079523Y-34744476D01*
X19041428Y-34820666D01*
X19003333Y-34858761D01*
X18927142Y-34896857D01*
X18660476Y-34896857D01*
X19384285Y-34515904D02*
X19917619Y-34515904D01*
X19574761Y-35315904D01*
X32878952Y-70589904D02*
X32878952Y-69789904D01*
X33183714Y-69789904D01*
X33259904Y-69828000D01*
X33298000Y-69866095D01*
X33336095Y-69942285D01*
X33336095Y-70056571D01*
X33298000Y-70132761D01*
X33259904Y-70170857D01*
X33183714Y-70208952D01*
X32878952Y-70208952D01*
X33640857Y-70361333D02*
X34021809Y-70361333D01*
X33564666Y-70589904D02*
X33831333Y-69789904D01*
X34098000Y-70589904D01*
X34783714Y-70589904D02*
X34326571Y-70589904D01*
X34555142Y-70589904D02*
X34555142Y-69789904D01*
X34478952Y-69904190D01*
X34402761Y-69980380D01*
X34326571Y-70018476D01*
X35469428Y-70056571D02*
X35469428Y-70589904D01*
X35278952Y-69751809D02*
X35088476Y-70323238D01*
X35583714Y-70323238D01*
D10*
X24322095Y-25930609D02*
X24436380Y-25968704D01*
X24626857Y-25968704D01*
X24703047Y-25930609D01*
X24741142Y-25892514D01*
X24779238Y-25816323D01*
X24779238Y-25740133D01*
X24741142Y-25663942D01*
X24703047Y-25625847D01*
X24626857Y-25587752D01*
X24474476Y-25549657D01*
X24398285Y-25511561D01*
X24360190Y-25473466D01*
X24322095Y-25397276D01*
X24322095Y-25321085D01*
X24360190Y-25244895D01*
X24398285Y-25206800D01*
X24474476Y-25168704D01*
X24664952Y-25168704D01*
X24779238Y-25206800D01*
X25007809Y-25168704D02*
X25464952Y-25168704D01*
X25236380Y-25968704D02*
X25236380Y-25168704D01*
X25731619Y-25663942D02*
X26341142Y-25663942D01*
X27103047Y-25968704D02*
X26722095Y-25968704D01*
X26722095Y-25168704D01*
X27369714Y-25968704D02*
X27369714Y-25168704D01*
X27750666Y-25968704D02*
X27750666Y-25168704D01*
X28207809Y-25968704D01*
X28207809Y-25168704D01*
X28588761Y-25968704D02*
X28588761Y-25168704D01*
X29045904Y-25968704D02*
X28703047Y-25511561D01*
X29045904Y-25168704D02*
X28588761Y-25625847D01*
D11*
X43228476Y-41538904D02*
X43228476Y-40738904D01*
X43533238Y-40738904D01*
X43609428Y-40777000D01*
X43647523Y-40815095D01*
X43685619Y-40891285D01*
X43685619Y-41005571D01*
X43647523Y-41081761D01*
X43609428Y-41119857D01*
X43533238Y-41157952D01*
X43228476Y-41157952D01*
X44485619Y-41462714D02*
X44447523Y-41500809D01*
X44333238Y-41538904D01*
X44257047Y-41538904D01*
X44142761Y-41500809D01*
X44066571Y-41424619D01*
X44028476Y-41348428D01*
X43990380Y-41196047D01*
X43990380Y-41081761D01*
X44028476Y-40929380D01*
X44066571Y-40853190D01*
X44142761Y-40777000D01*
X44257047Y-40738904D01*
X44333238Y-40738904D01*
X44447523Y-40777000D01*
X44485619Y-40815095D01*
X45247523Y-41538904D02*
X44790380Y-41538904D01*
X45018952Y-41538904D02*
X45018952Y-40738904D01*
X44942761Y-40853190D01*
X44866571Y-40929380D01*
X44790380Y-40967476D01*
X45971333Y-40738904D02*
X45590380Y-40738904D01*
X45552285Y-41119857D01*
X45590380Y-41081761D01*
X45666571Y-41043666D01*
X45857047Y-41043666D01*
X45933238Y-41081761D01*
X45971333Y-41119857D01*
X46009428Y-41196047D01*
X46009428Y-41386523D01*
X45971333Y-41462714D01*
X45933238Y-41500809D01*
X45857047Y-41538904D01*
X45666571Y-41538904D01*
X45590380Y-41500809D01*
X45552285Y-41462714D01*
X33526571Y-32775904D02*
X33526571Y-31975904D01*
X33831333Y-31975904D01*
X33907523Y-32014000D01*
X33945619Y-32052095D01*
X33983714Y-32128285D01*
X33983714Y-32242571D01*
X33945619Y-32318761D01*
X33907523Y-32356857D01*
X33831333Y-32394952D01*
X33526571Y-32394952D01*
X34593238Y-32356857D02*
X34707523Y-32394952D01*
X34745619Y-32433047D01*
X34783714Y-32509238D01*
X34783714Y-32623523D01*
X34745619Y-32699714D01*
X34707523Y-32737809D01*
X34631333Y-32775904D01*
X34326571Y-32775904D01*
X34326571Y-31975904D01*
X34593238Y-31975904D01*
X34669428Y-32014000D01*
X34707523Y-32052095D01*
X34745619Y-32128285D01*
X34745619Y-32204476D01*
X34707523Y-32280666D01*
X34669428Y-32318761D01*
X34593238Y-32356857D01*
X34326571Y-32356857D01*
X35050380Y-31975904D02*
X35545619Y-31975904D01*
X35278952Y-32280666D01*
X35393238Y-32280666D01*
X35469428Y-32318761D01*
X35507523Y-32356857D01*
X35545619Y-32433047D01*
X35545619Y-32623523D01*
X35507523Y-32699714D01*
X35469428Y-32737809D01*
X35393238Y-32775904D01*
X35164666Y-32775904D01*
X35088476Y-32737809D01*
X35050380Y-32699714D01*
X43152285Y-26895904D02*
X43647523Y-26895904D01*
X43380857Y-27200666D01*
X43495142Y-27200666D01*
X43571333Y-27238761D01*
X43609428Y-27276857D01*
X43647523Y-27353047D01*
X43647523Y-27543523D01*
X43609428Y-27619714D01*
X43571333Y-27657809D01*
X43495142Y-27695904D01*
X43266571Y-27695904D01*
X43190380Y-27657809D01*
X43152285Y-27619714D01*
X43876095Y-26895904D02*
X44142761Y-27695904D01*
X44409428Y-26895904D01*
X44599904Y-26895904D02*
X45095142Y-26895904D01*
X44828476Y-27200666D01*
X44942761Y-27200666D01*
X45018952Y-27238761D01*
X45057047Y-27276857D01*
X45095142Y-27353047D01*
X45095142Y-27543523D01*
X45057047Y-27619714D01*
X45018952Y-27657809D01*
X44942761Y-27695904D01*
X44714190Y-27695904D01*
X44638000Y-27657809D01*
X44599904Y-27619714D01*
X68596476Y-70589904D02*
X68596476Y-69789904D01*
X68901238Y-69789904D01*
X68977428Y-69828000D01*
X69015523Y-69866095D01*
X69053619Y-69942285D01*
X69053619Y-70056571D01*
X69015523Y-70132761D01*
X68977428Y-70170857D01*
X68901238Y-70208952D01*
X68596476Y-70208952D01*
X69663142Y-70170857D02*
X69777428Y-70208952D01*
X69815523Y-70247047D01*
X69853619Y-70323238D01*
X69853619Y-70437523D01*
X69815523Y-70513714D01*
X69777428Y-70551809D01*
X69701238Y-70589904D01*
X69396476Y-70589904D01*
X69396476Y-69789904D01*
X69663142Y-69789904D01*
X69739333Y-69828000D01*
X69777428Y-69866095D01*
X69815523Y-69942285D01*
X69815523Y-70018476D01*
X69777428Y-70094666D01*
X69739333Y-70132761D01*
X69663142Y-70170857D01*
X69396476Y-70170857D01*
X70120285Y-69789904D02*
X70653619Y-69789904D01*
X70310761Y-70589904D01*
X33640857Y-83289904D02*
X33640857Y-82489904D01*
X33945619Y-82489904D01*
X34021809Y-82528000D01*
X34059904Y-82566095D01*
X34098000Y-82642285D01*
X34098000Y-82756571D01*
X34059904Y-82832761D01*
X34021809Y-82870857D01*
X33945619Y-82908952D01*
X33640857Y-82908952D01*
X34402761Y-83061333D02*
X34783714Y-83061333D01*
X34326571Y-83289904D02*
X34593238Y-82489904D01*
X34859904Y-83289904D01*
X35050380Y-82489904D02*
X35583714Y-82489904D01*
X35240857Y-83289904D01*
X59237428Y-64748000D02*
X59161238Y-64709904D01*
X59046952Y-64709904D01*
X58932666Y-64748000D01*
X58856476Y-64824190D01*
X58818380Y-64900380D01*
X58780285Y-65052761D01*
X58780285Y-65167047D01*
X58818380Y-65319428D01*
X58856476Y-65395619D01*
X58932666Y-65471809D01*
X59046952Y-65509904D01*
X59123142Y-65509904D01*
X59237428Y-65471809D01*
X59275523Y-65433714D01*
X59275523Y-65167047D01*
X59123142Y-65167047D01*
X59618380Y-65509904D02*
X59618380Y-64709904D01*
X60075523Y-65509904D01*
X60075523Y-64709904D01*
X60456476Y-65509904D02*
X60456476Y-64709904D01*
X60646952Y-64709904D01*
X60761238Y-64748000D01*
X60837428Y-64824190D01*
X60875523Y-64900380D01*
X60913619Y-65052761D01*
X60913619Y-65167047D01*
X60875523Y-65319428D01*
X60837428Y-65395619D01*
X60761238Y-65471809D01*
X60646952Y-65509904D01*
X60456476Y-65509904D01*
X68596476Y-88369904D02*
X68596476Y-87569904D01*
X68901238Y-87569904D01*
X68977428Y-87608000D01*
X69015523Y-87646095D01*
X69053619Y-87722285D01*
X69053619Y-87836571D01*
X69015523Y-87912761D01*
X68977428Y-87950857D01*
X68901238Y-87988952D01*
X68596476Y-87988952D01*
X69358380Y-88141333D02*
X69739333Y-88141333D01*
X69282190Y-88369904D02*
X69548857Y-87569904D01*
X69815523Y-88369904D01*
X70425047Y-87836571D02*
X70425047Y-88369904D01*
X70234571Y-87531809D02*
X70044095Y-88103238D01*
X70539333Y-88103238D01*
X43228476Y-83289904D02*
X43228476Y-82489904D01*
X43533238Y-82489904D01*
X43609428Y-82528000D01*
X43647523Y-82566095D01*
X43685619Y-82642285D01*
X43685619Y-82756571D01*
X43647523Y-82832761D01*
X43609428Y-82870857D01*
X43533238Y-82908952D01*
X43228476Y-82908952D01*
X43990380Y-83061333D02*
X44371333Y-83061333D01*
X43914190Y-83289904D02*
X44180857Y-82489904D01*
X44447523Y-83289904D01*
X44676095Y-82566095D02*
X44714190Y-82528000D01*
X44790380Y-82489904D01*
X44980857Y-82489904D01*
X45057047Y-82528000D01*
X45095142Y-82566095D01*
X45133238Y-82642285D01*
X45133238Y-82718476D01*
X45095142Y-82832761D01*
X44638000Y-83289904D01*
X45133238Y-83289904D01*
X17860476Y-88369904D02*
X17860476Y-87569904D01*
X18165238Y-87569904D01*
X18241428Y-87608000D01*
X18279523Y-87646095D01*
X18317619Y-87722285D01*
X18317619Y-87836571D01*
X18279523Y-87912761D01*
X18241428Y-87950857D01*
X18165238Y-87988952D01*
X17860476Y-87988952D01*
X18622380Y-88141333D02*
X19003333Y-88141333D01*
X18546190Y-88369904D02*
X18812857Y-87569904D01*
X19079523Y-88369904D01*
X19689047Y-87836571D02*
X19689047Y-88369904D01*
X19498571Y-87531809D02*
X19308095Y-88103238D01*
X19803333Y-88103238D01*
X43228476Y-45475904D02*
X43228476Y-44675904D01*
X43533238Y-44675904D01*
X43609428Y-44714000D01*
X43647523Y-44752095D01*
X43685619Y-44828285D01*
X43685619Y-44942571D01*
X43647523Y-45018761D01*
X43609428Y-45056857D01*
X43533238Y-45094952D01*
X43228476Y-45094952D01*
X43990380Y-45247333D02*
X44371333Y-45247333D01*
X43914190Y-45475904D02*
X44180857Y-44675904D01*
X44447523Y-45475904D01*
X45133238Y-45475904D02*
X44676095Y-45475904D01*
X44904666Y-45475904D02*
X44904666Y-44675904D01*
X44828476Y-44790190D01*
X44752285Y-44866380D01*
X44676095Y-44904476D01*
X43228476Y-80749904D02*
X43228476Y-79949904D01*
X43533238Y-79949904D01*
X43609428Y-79988000D01*
X43647523Y-80026095D01*
X43685619Y-80102285D01*
X43685619Y-80216571D01*
X43647523Y-80292761D01*
X43609428Y-80330857D01*
X43533238Y-80368952D01*
X43228476Y-80368952D01*
X43990380Y-80521333D02*
X44371333Y-80521333D01*
X43914190Y-80749904D02*
X44180857Y-79949904D01*
X44447523Y-80749904D01*
X45133238Y-80749904D02*
X44676095Y-80749904D01*
X44904666Y-80749904D02*
X44904666Y-79949904D01*
X44828476Y-80064190D01*
X44752285Y-80140380D01*
X44676095Y-80178476D01*
X43228476Y-85829904D02*
X43228476Y-85029904D01*
X43533238Y-85029904D01*
X43609428Y-85068000D01*
X43647523Y-85106095D01*
X43685619Y-85182285D01*
X43685619Y-85296571D01*
X43647523Y-85372761D01*
X43609428Y-85410857D01*
X43533238Y-85448952D01*
X43228476Y-85448952D01*
X43990380Y-85601333D02*
X44371333Y-85601333D01*
X43914190Y-85829904D02*
X44180857Y-85029904D01*
X44447523Y-85829904D01*
X44638000Y-85029904D02*
X45133238Y-85029904D01*
X44866571Y-85334666D01*
X44980857Y-85334666D01*
X45057047Y-85372761D01*
X45095142Y-85410857D01*
X45133238Y-85487047D01*
X45133238Y-85677523D01*
X45095142Y-85753714D01*
X45057047Y-85791809D01*
X44980857Y-85829904D01*
X44752285Y-85829904D01*
X44676095Y-85791809D01*
X44638000Y-85753714D01*
X22737285Y-32610904D02*
X23232523Y-32610904D01*
X22965857Y-32915666D01*
X23080142Y-32915666D01*
X23156333Y-32953761D01*
X23194428Y-32991857D01*
X23232523Y-33068047D01*
X23232523Y-33258523D01*
X23194428Y-33334714D01*
X23156333Y-33372809D01*
X23080142Y-33410904D01*
X22851571Y-33410904D01*
X22775380Y-33372809D01*
X22737285Y-33334714D01*
X23461095Y-32610904D02*
X23727761Y-33410904D01*
X23994428Y-32610904D01*
X24184904Y-32610904D02*
X24680142Y-32610904D01*
X24413476Y-32915666D01*
X24527761Y-32915666D01*
X24603952Y-32953761D01*
X24642047Y-32991857D01*
X24680142Y-33068047D01*
X24680142Y-33258523D01*
X24642047Y-33334714D01*
X24603952Y-33372809D01*
X24527761Y-33410904D01*
X24299190Y-33410904D01*
X24223000Y-33372809D01*
X24184904Y-33334714D01*
X46242000Y-52295904D02*
X46242000Y-52943523D01*
X46280095Y-53019714D01*
X46318190Y-53057809D01*
X46394380Y-53095904D01*
X46546761Y-53095904D01*
X46622952Y-53057809D01*
X46661047Y-53019714D01*
X46699142Y-52943523D01*
X46699142Y-52295904D01*
X47042000Y-53057809D02*
X47156285Y-53095904D01*
X47346761Y-53095904D01*
X47422952Y-53057809D01*
X47461047Y-53019714D01*
X47499142Y-52943523D01*
X47499142Y-52867333D01*
X47461047Y-52791142D01*
X47422952Y-52753047D01*
X47346761Y-52714952D01*
X47194380Y-52676857D01*
X47118190Y-52638761D01*
X47080095Y-52600666D01*
X47042000Y-52524476D01*
X47042000Y-52448285D01*
X47080095Y-52372095D01*
X47118190Y-52334000D01*
X47194380Y-52295904D01*
X47384857Y-52295904D01*
X47499142Y-52334000D01*
X47842000Y-52676857D02*
X48108666Y-52676857D01*
X48222952Y-53095904D02*
X47842000Y-53095904D01*
X47842000Y-52295904D01*
X48222952Y-52295904D01*
X49022952Y-53095904D02*
X48756285Y-52714952D01*
X48565809Y-53095904D02*
X48565809Y-52295904D01*
X48870571Y-52295904D01*
X48946761Y-52334000D01*
X48984857Y-52372095D01*
X49022952Y-52448285D01*
X49022952Y-52562571D01*
X48984857Y-52638761D01*
X48946761Y-52676857D01*
X48870571Y-52714952D01*
X48565809Y-52714952D01*
X49175333Y-53172095D02*
X49784857Y-53172095D01*
X50356285Y-53095904D02*
X49975333Y-53095904D01*
X49975333Y-52295904D01*
X33869428Y-62169904D02*
X34136095Y-62969904D01*
X34402761Y-62169904D01*
X34669428Y-62969904D02*
X34669428Y-62169904D01*
X35050380Y-62969904D02*
X35050380Y-62169904D01*
X35507523Y-62969904D01*
X35507523Y-62169904D01*
X43228476Y-88369904D02*
X43228476Y-87569904D01*
X43533238Y-87569904D01*
X43609428Y-87608000D01*
X43647523Y-87646095D01*
X43685619Y-87722285D01*
X43685619Y-87836571D01*
X43647523Y-87912761D01*
X43609428Y-87950857D01*
X43533238Y-87988952D01*
X43228476Y-87988952D01*
X43990380Y-88141333D02*
X44371333Y-88141333D01*
X43914190Y-88369904D02*
X44180857Y-87569904D01*
X44447523Y-88369904D01*
X45057047Y-87836571D02*
X45057047Y-88369904D01*
X44866571Y-87531809D02*
X44676095Y-88103238D01*
X45171333Y-88103238D01*
X59008857Y-48015904D02*
X59008857Y-47215904D01*
X59313619Y-47215904D01*
X59389809Y-47254000D01*
X59427904Y-47292095D01*
X59466000Y-47368285D01*
X59466000Y-47482571D01*
X59427904Y-47558761D01*
X59389809Y-47596857D01*
X59313619Y-47634952D01*
X59008857Y-47634952D01*
X59770761Y-47787333D02*
X60151714Y-47787333D01*
X59694571Y-48015904D02*
X59961238Y-47215904D01*
X60227904Y-48015904D01*
X60418380Y-47215904D02*
X60951714Y-47215904D01*
X60608857Y-48015904D01*
X59237428Y-62169904D02*
X59504095Y-62969904D01*
X59770761Y-62169904D01*
X60037428Y-62969904D02*
X60037428Y-62169904D01*
X60418380Y-62969904D02*
X60418380Y-62169904D01*
X60875523Y-62969904D01*
X60875523Y-62169904D01*
X32878952Y-78209904D02*
X32878952Y-77409904D01*
X33183714Y-77409904D01*
X33259904Y-77448000D01*
X33298000Y-77486095D01*
X33336095Y-77562285D01*
X33336095Y-77676571D01*
X33298000Y-77752761D01*
X33259904Y-77790857D01*
X33183714Y-77828952D01*
X32878952Y-77828952D01*
X33640857Y-77981333D02*
X34021809Y-77981333D01*
X33564666Y-78209904D02*
X33831333Y-77409904D01*
X34098000Y-78209904D01*
X34783714Y-78209904D02*
X34326571Y-78209904D01*
X34555142Y-78209904D02*
X34555142Y-77409904D01*
X34478952Y-77524190D01*
X34402761Y-77600380D01*
X34326571Y-77638476D01*
X35545619Y-78209904D02*
X35088476Y-78209904D01*
X35317047Y-78209904D02*
X35317047Y-77409904D01*
X35240857Y-77524190D01*
X35164666Y-77600380D01*
X35088476Y-77638476D01*
X84605428Y-64748000D02*
X84529238Y-64709904D01*
X84414952Y-64709904D01*
X84300666Y-64748000D01*
X84224476Y-64824190D01*
X84186380Y-64900380D01*
X84148285Y-65052761D01*
X84148285Y-65167047D01*
X84186380Y-65319428D01*
X84224476Y-65395619D01*
X84300666Y-65471809D01*
X84414952Y-65509904D01*
X84491142Y-65509904D01*
X84605428Y-65471809D01*
X84643523Y-65433714D01*
X84643523Y-65167047D01*
X84491142Y-65167047D01*
X84986380Y-65509904D02*
X84986380Y-64709904D01*
X85443523Y-65509904D01*
X85443523Y-64709904D01*
X85824476Y-65509904D02*
X85824476Y-64709904D01*
X86014952Y-64709904D01*
X86129238Y-64748000D01*
X86205428Y-64824190D01*
X86243523Y-64900380D01*
X86281619Y-65052761D01*
X86281619Y-65167047D01*
X86243523Y-65319428D01*
X86205428Y-65395619D01*
X86129238Y-65471809D01*
X86014952Y-65509904D01*
X85824476Y-65509904D01*
X48105285Y-67884904D02*
X48600523Y-67884904D01*
X48333857Y-68189666D01*
X48448142Y-68189666D01*
X48524333Y-68227761D01*
X48562428Y-68265857D01*
X48600523Y-68342047D01*
X48600523Y-68532523D01*
X48562428Y-68608714D01*
X48524333Y-68646809D01*
X48448142Y-68684904D01*
X48219571Y-68684904D01*
X48143380Y-68646809D01*
X48105285Y-68608714D01*
X48829095Y-67884904D02*
X49095761Y-68684904D01*
X49362428Y-67884904D01*
X49552904Y-67884904D02*
X50048142Y-67884904D01*
X49781476Y-68189666D01*
X49895761Y-68189666D01*
X49971952Y-68227761D01*
X50010047Y-68265857D01*
X50048142Y-68342047D01*
X50048142Y-68532523D01*
X50010047Y-68608714D01*
X49971952Y-68646809D01*
X49895761Y-68684904D01*
X49667190Y-68684904D01*
X49591000Y-68646809D01*
X49552904Y-68608714D01*
X68596476Y-80749904D02*
X68596476Y-79949904D01*
X68901238Y-79949904D01*
X68977428Y-79988000D01*
X69015523Y-80026095D01*
X69053619Y-80102285D01*
X69053619Y-80216571D01*
X69015523Y-80292761D01*
X68977428Y-80330857D01*
X68901238Y-80368952D01*
X68596476Y-80368952D01*
X69358380Y-80521333D02*
X69739333Y-80521333D01*
X69282190Y-80749904D02*
X69548857Y-79949904D01*
X69815523Y-80749904D01*
X70501238Y-80749904D02*
X70044095Y-80749904D01*
X70272666Y-80749904D02*
X70272666Y-79949904D01*
X70196476Y-80064190D01*
X70120285Y-80140380D01*
X70044095Y-80178476D01*
X43228476Y-50555904D02*
X43228476Y-49755904D01*
X43533238Y-49755904D01*
X43609428Y-49794000D01*
X43647523Y-49832095D01*
X43685619Y-49908285D01*
X43685619Y-50022571D01*
X43647523Y-50098761D01*
X43609428Y-50136857D01*
X43533238Y-50174952D01*
X43228476Y-50174952D01*
X43990380Y-50327333D02*
X44371333Y-50327333D01*
X43914190Y-50555904D02*
X44180857Y-49755904D01*
X44447523Y-50555904D01*
X44638000Y-49755904D02*
X45133238Y-49755904D01*
X44866571Y-50060666D01*
X44980857Y-50060666D01*
X45057047Y-50098761D01*
X45095142Y-50136857D01*
X45133238Y-50213047D01*
X45133238Y-50403523D01*
X45095142Y-50479714D01*
X45057047Y-50517809D01*
X44980857Y-50555904D01*
X44752285Y-50555904D01*
X44676095Y-50517809D01*
X44638000Y-50479714D01*
X68520285Y-62169904D02*
X69015523Y-62169904D01*
X68748857Y-62474666D01*
X68863142Y-62474666D01*
X68939333Y-62512761D01*
X68977428Y-62550857D01*
X69015523Y-62627047D01*
X69015523Y-62817523D01*
X68977428Y-62893714D01*
X68939333Y-62931809D01*
X68863142Y-62969904D01*
X68634571Y-62969904D01*
X68558380Y-62931809D01*
X68520285Y-62893714D01*
X69244095Y-62169904D02*
X69510761Y-62969904D01*
X69777428Y-62169904D01*
X69967904Y-62169904D02*
X70463142Y-62169904D01*
X70196476Y-62474666D01*
X70310761Y-62474666D01*
X70386952Y-62512761D01*
X70425047Y-62550857D01*
X70463142Y-62627047D01*
X70463142Y-62817523D01*
X70425047Y-62893714D01*
X70386952Y-62931809D01*
X70310761Y-62969904D01*
X70082190Y-62969904D01*
X70006000Y-62931809D01*
X69967904Y-62893714D01*
X33640857Y-50555904D02*
X33640857Y-49755904D01*
X33945619Y-49755904D01*
X34021809Y-49794000D01*
X34059904Y-49832095D01*
X34098000Y-49908285D01*
X34098000Y-50022571D01*
X34059904Y-50098761D01*
X34021809Y-50136857D01*
X33945619Y-50174952D01*
X33640857Y-50174952D01*
X34402761Y-50327333D02*
X34783714Y-50327333D01*
X34326571Y-50555904D02*
X34593238Y-49755904D01*
X34859904Y-50555904D01*
X35469428Y-49755904D02*
X35317047Y-49755904D01*
X35240857Y-49794000D01*
X35202761Y-49832095D01*
X35126571Y-49946380D01*
X35088476Y-50098761D01*
X35088476Y-50403523D01*
X35126571Y-50479714D01*
X35164666Y-50517809D01*
X35240857Y-50555904D01*
X35393238Y-50555904D01*
X35469428Y-50517809D01*
X35507523Y-50479714D01*
X35545619Y-50403523D01*
X35545619Y-50213047D01*
X35507523Y-50136857D01*
X35469428Y-50098761D01*
X35393238Y-50060666D01*
X35240857Y-50060666D01*
X35164666Y-50098761D01*
X35126571Y-50136857D01*
X35088476Y-50213047D01*
X84262571Y-68049904D02*
X84262571Y-67249904D01*
X84567333Y-67249904D01*
X84643523Y-67288000D01*
X84681619Y-67326095D01*
X84719714Y-67402285D01*
X84719714Y-67516571D01*
X84681619Y-67592761D01*
X84643523Y-67630857D01*
X84567333Y-67668952D01*
X84262571Y-67668952D01*
X85329238Y-67630857D02*
X85443523Y-67668952D01*
X85481619Y-67707047D01*
X85519714Y-67783238D01*
X85519714Y-67897523D01*
X85481619Y-67973714D01*
X85443523Y-68011809D01*
X85367333Y-68049904D01*
X85062571Y-68049904D01*
X85062571Y-67249904D01*
X85329238Y-67249904D01*
X85405428Y-67288000D01*
X85443523Y-67326095D01*
X85481619Y-67402285D01*
X85481619Y-67478476D01*
X85443523Y-67554666D01*
X85405428Y-67592761D01*
X85329238Y-67630857D01*
X85062571Y-67630857D01*
X85786380Y-67249904D02*
X86281619Y-67249904D01*
X86014952Y-67554666D01*
X86129238Y-67554666D01*
X86205428Y-67592761D01*
X86243523Y-67630857D01*
X86281619Y-67707047D01*
X86281619Y-67897523D01*
X86243523Y-67973714D01*
X86205428Y-68011809D01*
X86129238Y-68049904D01*
X85900666Y-68049904D01*
X85824476Y-68011809D01*
X85786380Y-67973714D01*
X83614952Y-78209904D02*
X83614952Y-77409904D01*
X83919714Y-77409904D01*
X83995904Y-77448000D01*
X84034000Y-77486095D01*
X84072095Y-77562285D01*
X84072095Y-77676571D01*
X84034000Y-77752761D01*
X83995904Y-77790857D01*
X83919714Y-77828952D01*
X83614952Y-77828952D01*
X84376857Y-77981333D02*
X84757809Y-77981333D01*
X84300666Y-78209904D02*
X84567333Y-77409904D01*
X84834000Y-78209904D01*
X85519714Y-78209904D02*
X85062571Y-78209904D01*
X85291142Y-78209904D02*
X85291142Y-77409904D01*
X85214952Y-77524190D01*
X85138761Y-77600380D01*
X85062571Y-77638476D01*
X86281619Y-78209904D02*
X85824476Y-78209904D01*
X86053047Y-78209904D02*
X86053047Y-77409904D01*
X85976857Y-77524190D01*
X85900666Y-77600380D01*
X85824476Y-77638476D01*
X20874000Y-52295904D02*
X20874000Y-52943523D01*
X20912095Y-53019714D01*
X20950190Y-53057809D01*
X21026380Y-53095904D01*
X21178761Y-53095904D01*
X21254952Y-53057809D01*
X21293047Y-53019714D01*
X21331142Y-52943523D01*
X21331142Y-52295904D01*
X21674000Y-53057809D02*
X21788285Y-53095904D01*
X21978761Y-53095904D01*
X22054952Y-53057809D01*
X22093047Y-53019714D01*
X22131142Y-52943523D01*
X22131142Y-52867333D01*
X22093047Y-52791142D01*
X22054952Y-52753047D01*
X21978761Y-52714952D01*
X21826380Y-52676857D01*
X21750190Y-52638761D01*
X21712095Y-52600666D01*
X21674000Y-52524476D01*
X21674000Y-52448285D01*
X21712095Y-52372095D01*
X21750190Y-52334000D01*
X21826380Y-52295904D01*
X22016857Y-52295904D01*
X22131142Y-52334000D01*
X22474000Y-52676857D02*
X22740666Y-52676857D01*
X22854952Y-53095904D02*
X22474000Y-53095904D01*
X22474000Y-52295904D01*
X22854952Y-52295904D01*
X23654952Y-53095904D02*
X23388285Y-52714952D01*
X23197809Y-53095904D02*
X23197809Y-52295904D01*
X23502571Y-52295904D01*
X23578761Y-52334000D01*
X23616857Y-52372095D01*
X23654952Y-52448285D01*
X23654952Y-52562571D01*
X23616857Y-52638761D01*
X23578761Y-52676857D01*
X23502571Y-52714952D01*
X23197809Y-52714952D01*
X23807333Y-53172095D02*
X24416857Y-53172095D01*
X24988285Y-53095904D02*
X24607333Y-53095904D01*
X24607333Y-52295904D01*
X43647523Y-64748000D02*
X43571333Y-64709904D01*
X43457047Y-64709904D01*
X43342761Y-64748000D01*
X43266571Y-64824190D01*
X43228476Y-64900380D01*
X43190380Y-65052761D01*
X43190380Y-65167047D01*
X43228476Y-65319428D01*
X43266571Y-65395619D01*
X43342761Y-65471809D01*
X43457047Y-65509904D01*
X43533238Y-65509904D01*
X43647523Y-65471809D01*
X43685619Y-65433714D01*
X43685619Y-65167047D01*
X43533238Y-65167047D01*
X44028476Y-65509904D02*
X44028476Y-64709904D01*
X44485619Y-65509904D01*
X44485619Y-64709904D01*
X44866571Y-65509904D02*
X44866571Y-64709904D01*
X45057047Y-64709904D01*
X45171333Y-64748000D01*
X45247523Y-64824190D01*
X45285619Y-64900380D01*
X45323714Y-65052761D01*
X45323714Y-65167047D01*
X45285619Y-65319428D01*
X45247523Y-65395619D01*
X45171333Y-65471809D01*
X45057047Y-65509904D01*
X44866571Y-65509904D01*
X32878952Y-40395904D02*
X32878952Y-39595904D01*
X33183714Y-39595904D01*
X33259904Y-39634000D01*
X33298000Y-39672095D01*
X33336095Y-39748285D01*
X33336095Y-39862571D01*
X33298000Y-39938761D01*
X33259904Y-39976857D01*
X33183714Y-40014952D01*
X32878952Y-40014952D01*
X33640857Y-40167333D02*
X34021809Y-40167333D01*
X33564666Y-40395904D02*
X33831333Y-39595904D01*
X34098000Y-40395904D01*
X34783714Y-40395904D02*
X34326571Y-40395904D01*
X34555142Y-40395904D02*
X34555142Y-39595904D01*
X34478952Y-39710190D01*
X34402761Y-39786380D01*
X34326571Y-39824476D01*
X35088476Y-39672095D02*
X35126571Y-39634000D01*
X35202761Y-39595904D01*
X35393238Y-39595904D01*
X35469428Y-39634000D01*
X35507523Y-39672095D01*
X35545619Y-39748285D01*
X35545619Y-39824476D01*
X35507523Y-39938761D01*
X35050380Y-40395904D01*
X35545619Y-40395904D01*
X54700095Y-54873904D02*
X54433428Y-54492952D01*
X54242952Y-54873904D02*
X54242952Y-54073904D01*
X54547714Y-54073904D01*
X54623904Y-54112000D01*
X54662000Y-54150095D01*
X54700095Y-54226285D01*
X54700095Y-54340571D01*
X54662000Y-54416761D01*
X54623904Y-54454857D01*
X54547714Y-54492952D01*
X54242952Y-54492952D01*
X55042952Y-54454857D02*
X55309619Y-54454857D01*
X55423904Y-54873904D02*
X55042952Y-54873904D01*
X55042952Y-54073904D01*
X55423904Y-54073904D01*
X55728666Y-54835809D02*
X55842952Y-54873904D01*
X56033428Y-54873904D01*
X56109619Y-54835809D01*
X56147714Y-54797714D01*
X56185809Y-54721523D01*
X56185809Y-54645333D01*
X56147714Y-54569142D01*
X56109619Y-54531047D01*
X56033428Y-54492952D01*
X55881047Y-54454857D01*
X55804857Y-54416761D01*
X55766761Y-54378666D01*
X55728666Y-54302476D01*
X55728666Y-54226285D01*
X55766761Y-54150095D01*
X55804857Y-54112000D01*
X55881047Y-54073904D01*
X56071523Y-54073904D01*
X56185809Y-54112000D01*
X56528666Y-54454857D02*
X56795333Y-54454857D01*
X56909619Y-54873904D02*
X56528666Y-54873904D01*
X56528666Y-54073904D01*
X56909619Y-54073904D01*
X57138190Y-54073904D02*
X57595333Y-54073904D01*
X57366761Y-54873904D02*
X57366761Y-54073904D01*
X48105285Y-32610904D02*
X48600523Y-32610904D01*
X48333857Y-32915666D01*
X48448142Y-32915666D01*
X48524333Y-32953761D01*
X48562428Y-32991857D01*
X48600523Y-33068047D01*
X48600523Y-33258523D01*
X48562428Y-33334714D01*
X48524333Y-33372809D01*
X48448142Y-33410904D01*
X48219571Y-33410904D01*
X48143380Y-33372809D01*
X48105285Y-33334714D01*
X48829095Y-32610904D02*
X49095761Y-33410904D01*
X49362428Y-32610904D01*
X49552904Y-32610904D02*
X50048142Y-32610904D01*
X49781476Y-32915666D01*
X49895761Y-32915666D01*
X49971952Y-32953761D01*
X50010047Y-32991857D01*
X50048142Y-33068047D01*
X50048142Y-33258523D01*
X50010047Y-33334714D01*
X49971952Y-33372809D01*
X49895761Y-33410904D01*
X49667190Y-33410904D01*
X49591000Y-33372809D01*
X49552904Y-33334714D01*
X43228476Y-53095904D02*
X43228476Y-52295904D01*
X43533238Y-52295904D01*
X43609428Y-52334000D01*
X43647523Y-52372095D01*
X43685619Y-52448285D01*
X43685619Y-52562571D01*
X43647523Y-52638761D01*
X43609428Y-52676857D01*
X43533238Y-52714952D01*
X43228476Y-52714952D01*
X43990380Y-52867333D02*
X44371333Y-52867333D01*
X43914190Y-53095904D02*
X44180857Y-52295904D01*
X44447523Y-53095904D01*
X45057047Y-52562571D02*
X45057047Y-53095904D01*
X44866571Y-52257809D02*
X44676095Y-52829238D01*
X45171333Y-52829238D01*
X43228476Y-70589904D02*
X43228476Y-69789904D01*
X43533238Y-69789904D01*
X43609428Y-69828000D01*
X43647523Y-69866095D01*
X43685619Y-69942285D01*
X43685619Y-70056571D01*
X43647523Y-70132761D01*
X43609428Y-70170857D01*
X43533238Y-70208952D01*
X43228476Y-70208952D01*
X44295142Y-70170857D02*
X44409428Y-70208952D01*
X44447523Y-70247047D01*
X44485619Y-70323238D01*
X44485619Y-70437523D01*
X44447523Y-70513714D01*
X44409428Y-70551809D01*
X44333238Y-70589904D01*
X44028476Y-70589904D01*
X44028476Y-69789904D01*
X44295142Y-69789904D01*
X44371333Y-69828000D01*
X44409428Y-69866095D01*
X44447523Y-69942285D01*
X44447523Y-70018476D01*
X44409428Y-70094666D01*
X44371333Y-70132761D01*
X44295142Y-70170857D01*
X44028476Y-70170857D01*
X44752285Y-69789904D02*
X45285619Y-69789904D01*
X44942761Y-70589904D01*
D10*
%TO.C,C3*%
X32011666Y-68735714D02*
X31973571Y-68773809D01*
X31859285Y-68811904D01*
X31783095Y-68811904D01*
X31668809Y-68773809D01*
X31592619Y-68697619D01*
X31554523Y-68621428D01*
X31516428Y-68469047D01*
X31516428Y-68354761D01*
X31554523Y-68202380D01*
X31592619Y-68126190D01*
X31668809Y-68050000D01*
X31783095Y-68011904D01*
X31859285Y-68011904D01*
X31973571Y-68050000D01*
X32011666Y-68088095D01*
X32278333Y-68011904D02*
X32773571Y-68011904D01*
X32506904Y-68316666D01*
X32621190Y-68316666D01*
X32697380Y-68354761D01*
X32735476Y-68392857D01*
X32773571Y-68469047D01*
X32773571Y-68659523D01*
X32735476Y-68735714D01*
X32697380Y-68773809D01*
X32621190Y-68811904D01*
X32392619Y-68811904D01*
X32316428Y-68773809D01*
X32278333Y-68735714D01*
%TO.C,C4*%
X32138666Y-44637714D02*
X32100571Y-44675809D01*
X31986285Y-44713904D01*
X31910095Y-44713904D01*
X31795809Y-44675809D01*
X31719619Y-44599619D01*
X31681523Y-44523428D01*
X31643428Y-44371047D01*
X31643428Y-44256761D01*
X31681523Y-44104380D01*
X31719619Y-44028190D01*
X31795809Y-43952000D01*
X31910095Y-43913904D01*
X31986285Y-43913904D01*
X32100571Y-43952000D01*
X32138666Y-43990095D01*
X32824380Y-44180571D02*
X32824380Y-44713904D01*
X32633904Y-43875809D02*
X32443428Y-44447238D01*
X32938666Y-44447238D01*
%TO.C,C3*%
X32011666Y-33461714D02*
X31973571Y-33499809D01*
X31859285Y-33537904D01*
X31783095Y-33537904D01*
X31668809Y-33499809D01*
X31592619Y-33423619D01*
X31554523Y-33347428D01*
X31516428Y-33195047D01*
X31516428Y-33080761D01*
X31554523Y-32928380D01*
X31592619Y-32852190D01*
X31668809Y-32776000D01*
X31783095Y-32737904D01*
X31859285Y-32737904D01*
X31973571Y-32776000D01*
X32011666Y-32814095D01*
X32278333Y-32737904D02*
X32773571Y-32737904D01*
X32506904Y-33042666D01*
X32621190Y-33042666D01*
X32697380Y-33080761D01*
X32735476Y-33118857D01*
X32773571Y-33195047D01*
X32773571Y-33385523D01*
X32735476Y-33461714D01*
X32697380Y-33499809D01*
X32621190Y-33537904D01*
X32392619Y-33537904D01*
X32316428Y-33499809D01*
X32278333Y-33461714D01*
%TO.C,R1*%
X51410666Y-71097904D02*
X51144000Y-70716952D01*
X50953523Y-71097904D02*
X50953523Y-70297904D01*
X51258285Y-70297904D01*
X51334476Y-70336000D01*
X51372571Y-70374095D01*
X51410666Y-70450285D01*
X51410666Y-70564571D01*
X51372571Y-70640761D01*
X51334476Y-70678857D01*
X51258285Y-70716952D01*
X50953523Y-70716952D01*
X52172571Y-71097904D02*
X51715428Y-71097904D01*
X51944000Y-71097904D02*
X51944000Y-70297904D01*
X51867809Y-70412190D01*
X51791619Y-70488380D01*
X51715428Y-70526476D01*
%TO.C,C1*%
X18837000Y-39105285D02*
X18808428Y-39133857D01*
X18722714Y-39162428D01*
X18665571Y-39162428D01*
X18579857Y-39133857D01*
X18522714Y-39076714D01*
X18494142Y-39019571D01*
X18465571Y-38905285D01*
X18465571Y-38819571D01*
X18494142Y-38705285D01*
X18522714Y-38648142D01*
X18579857Y-38591000D01*
X18665571Y-38562428D01*
X18722714Y-38562428D01*
X18808428Y-38591000D01*
X18837000Y-38619571D01*
X19408428Y-39162428D02*
X19065571Y-39162428D01*
X19237000Y-39162428D02*
X19237000Y-38562428D01*
X19179857Y-38648142D01*
X19122714Y-38705285D01*
X19065571Y-38733857D01*
%TO.C,D1*%
X52477523Y-62969904D02*
X52477523Y-62169904D01*
X52668000Y-62169904D01*
X52782285Y-62208000D01*
X52858476Y-62284190D01*
X52896571Y-62360380D01*
X52934666Y-62512761D01*
X52934666Y-62627047D01*
X52896571Y-62779428D01*
X52858476Y-62855619D01*
X52782285Y-62931809D01*
X52668000Y-62969904D01*
X52477523Y-62969904D01*
X53696571Y-62969904D02*
X53239428Y-62969904D01*
X53468000Y-62969904D02*
X53468000Y-62169904D01*
X53391809Y-62284190D01*
X53315619Y-62360380D01*
X53239428Y-62398476D01*
%TO.C,C1*%
X44205000Y-74379285D02*
X44176428Y-74407857D01*
X44090714Y-74436428D01*
X44033571Y-74436428D01*
X43947857Y-74407857D01*
X43890714Y-74350714D01*
X43862142Y-74293571D01*
X43833571Y-74179285D01*
X43833571Y-74093571D01*
X43862142Y-73979285D01*
X43890714Y-73922142D01*
X43947857Y-73865000D01*
X44033571Y-73836428D01*
X44090714Y-73836428D01*
X44176428Y-73865000D01*
X44205000Y-73893571D01*
X44776428Y-74436428D02*
X44433571Y-74436428D01*
X44605000Y-74436428D02*
X44605000Y-73836428D01*
X44547857Y-73922142D01*
X44490714Y-73979285D01*
X44433571Y-74007857D01*
%TO.C,D2*%
X20632523Y-64747904D02*
X20632523Y-63947904D01*
X20823000Y-63947904D01*
X20937285Y-63986000D01*
X21013476Y-64062190D01*
X21051571Y-64138380D01*
X21089666Y-64290761D01*
X21089666Y-64405047D01*
X21051571Y-64557428D01*
X21013476Y-64633619D01*
X20937285Y-64709809D01*
X20823000Y-64747904D01*
X20632523Y-64747904D01*
X21394428Y-64024095D02*
X21432523Y-63986000D01*
X21508714Y-63947904D01*
X21699190Y-63947904D01*
X21775380Y-63986000D01*
X21813476Y-64024095D01*
X21851571Y-64100285D01*
X21851571Y-64176476D01*
X21813476Y-64290761D01*
X21356333Y-64747904D01*
X21851571Y-64747904D01*
%TO.C,C5*%
X25661666Y-28381714D02*
X25623571Y-28419809D01*
X25509285Y-28457904D01*
X25433095Y-28457904D01*
X25318809Y-28419809D01*
X25242619Y-28343619D01*
X25204523Y-28267428D01*
X25166428Y-28115047D01*
X25166428Y-28000761D01*
X25204523Y-27848380D01*
X25242619Y-27772190D01*
X25318809Y-27696000D01*
X25433095Y-27657904D01*
X25509285Y-27657904D01*
X25623571Y-27696000D01*
X25661666Y-27734095D01*
X26385476Y-27657904D02*
X26004523Y-27657904D01*
X25966428Y-28038857D01*
X26004523Y-28000761D01*
X26080714Y-27962666D01*
X26271190Y-27962666D01*
X26347380Y-28000761D01*
X26385476Y-28038857D01*
X26423571Y-28115047D01*
X26423571Y-28305523D01*
X26385476Y-28381714D01*
X26347380Y-28419809D01*
X26271190Y-28457904D01*
X26080714Y-28457904D01*
X26004523Y-28419809D01*
X25966428Y-28381714D01*
X76397666Y-63655714D02*
X76359571Y-63693809D01*
X76245285Y-63731904D01*
X76169095Y-63731904D01*
X76054809Y-63693809D01*
X75978619Y-63617619D01*
X75940523Y-63541428D01*
X75902428Y-63389047D01*
X75902428Y-63274761D01*
X75940523Y-63122380D01*
X75978619Y-63046190D01*
X76054809Y-62970000D01*
X76169095Y-62931904D01*
X76245285Y-62931904D01*
X76359571Y-62970000D01*
X76397666Y-63008095D01*
X77121476Y-62931904D02*
X76740523Y-62931904D01*
X76702428Y-63312857D01*
X76740523Y-63274761D01*
X76816714Y-63236666D01*
X77007190Y-63236666D01*
X77083380Y-63274761D01*
X77121476Y-63312857D01*
X77159571Y-63389047D01*
X77159571Y-63579523D01*
X77121476Y-63655714D01*
X77083380Y-63693809D01*
X77007190Y-63731904D01*
X76816714Y-63731904D01*
X76740523Y-63693809D01*
X76702428Y-63655714D01*
%TO.C,C3*%
X57379666Y-68735714D02*
X57341571Y-68773809D01*
X57227285Y-68811904D01*
X57151095Y-68811904D01*
X57036809Y-68773809D01*
X56960619Y-68697619D01*
X56922523Y-68621428D01*
X56884428Y-68469047D01*
X56884428Y-68354761D01*
X56922523Y-68202380D01*
X56960619Y-68126190D01*
X57036809Y-68050000D01*
X57151095Y-68011904D01*
X57227285Y-68011904D01*
X57341571Y-68050000D01*
X57379666Y-68088095D01*
X57646333Y-68011904D02*
X58141571Y-68011904D01*
X57874904Y-68316666D01*
X57989190Y-68316666D01*
X58065380Y-68354761D01*
X58103476Y-68392857D01*
X58141571Y-68469047D01*
X58141571Y-68659523D01*
X58103476Y-68735714D01*
X58065380Y-68773809D01*
X57989190Y-68811904D01*
X57760619Y-68811904D01*
X57684428Y-68773809D01*
X57646333Y-68735714D01*
%TO.C,U1*%
X28459776Y-32483904D02*
X28459776Y-33131523D01*
X28497871Y-33207714D01*
X28535966Y-33245809D01*
X28612157Y-33283904D01*
X28764538Y-33283904D01*
X28840728Y-33245809D01*
X28878823Y-33207714D01*
X28916919Y-33131523D01*
X28916919Y-32483904D01*
X29716919Y-33283904D02*
X29259776Y-33283904D01*
X29488347Y-33283904D02*
X29488347Y-32483904D01*
X29412157Y-32598190D01*
X29335966Y-32674380D01*
X29259776Y-32712476D01*
%TO.C,U2*%
X25804476Y-78552904D02*
X25804476Y-79200523D01*
X25842571Y-79276714D01*
X25880666Y-79314809D01*
X25956857Y-79352904D01*
X26109238Y-79352904D01*
X26185428Y-79314809D01*
X26223523Y-79276714D01*
X26261619Y-79200523D01*
X26261619Y-78552904D01*
X26604476Y-78629095D02*
X26642571Y-78591000D01*
X26718761Y-78552904D01*
X26909238Y-78552904D01*
X26985428Y-78591000D01*
X27023523Y-78629095D01*
X27061619Y-78705285D01*
X27061619Y-78781476D01*
X27023523Y-78895761D01*
X26566380Y-79352904D01*
X27061619Y-79352904D01*
%TO.C,D2*%
X71368523Y-64747904D02*
X71368523Y-63947904D01*
X71559000Y-63947904D01*
X71673285Y-63986000D01*
X71749476Y-64062190D01*
X71787571Y-64138380D01*
X71825666Y-64290761D01*
X71825666Y-64405047D01*
X71787571Y-64557428D01*
X71749476Y-64633619D01*
X71673285Y-64709809D01*
X71559000Y-64747904D01*
X71368523Y-64747904D01*
X72130428Y-64024095D02*
X72168523Y-63986000D01*
X72244714Y-63947904D01*
X72435190Y-63947904D01*
X72511380Y-63986000D01*
X72549476Y-64024095D01*
X72587571Y-64100285D01*
X72587571Y-64176476D01*
X72549476Y-64290761D01*
X72092333Y-64747904D01*
X72587571Y-64747904D01*
%TO.C,C3*%
X57379666Y-33461714D02*
X57341571Y-33499809D01*
X57227285Y-33537904D01*
X57151095Y-33537904D01*
X57036809Y-33499809D01*
X56960619Y-33423619D01*
X56922523Y-33347428D01*
X56884428Y-33195047D01*
X56884428Y-33080761D01*
X56922523Y-32928380D01*
X56960619Y-32852190D01*
X57036809Y-32776000D01*
X57151095Y-32737904D01*
X57227285Y-32737904D01*
X57341571Y-32776000D01*
X57379666Y-32814095D01*
X57646333Y-32737904D02*
X58141571Y-32737904D01*
X57874904Y-33042666D01*
X57989190Y-33042666D01*
X58065380Y-33080761D01*
X58103476Y-33118857D01*
X58141571Y-33195047D01*
X58141571Y-33385523D01*
X58103476Y-33461714D01*
X58065380Y-33499809D01*
X57989190Y-33537904D01*
X57760619Y-33537904D01*
X57684428Y-33499809D01*
X57646333Y-33461714D01*
%TO.C,U1*%
X53827776Y-67757904D02*
X53827776Y-68405523D01*
X53865871Y-68481714D01*
X53903966Y-68519809D01*
X53980157Y-68557904D01*
X54132538Y-68557904D01*
X54208728Y-68519809D01*
X54246823Y-68481714D01*
X54284919Y-68405523D01*
X54284919Y-67757904D01*
X55084919Y-68557904D02*
X54627776Y-68557904D01*
X54856347Y-68557904D02*
X54856347Y-67757904D01*
X54780157Y-67872190D01*
X54703966Y-67948380D01*
X54627776Y-67986476D01*
%TO.C,C4*%
X32138666Y-79911714D02*
X32100571Y-79949809D01*
X31986285Y-79987904D01*
X31910095Y-79987904D01*
X31795809Y-79949809D01*
X31719619Y-79873619D01*
X31681523Y-79797428D01*
X31643428Y-79645047D01*
X31643428Y-79530761D01*
X31681523Y-79378380D01*
X31719619Y-79302190D01*
X31795809Y-79226000D01*
X31910095Y-79187904D01*
X31986285Y-79187904D01*
X32100571Y-79226000D01*
X32138666Y-79264095D01*
X32824380Y-79454571D02*
X32824380Y-79987904D01*
X32633904Y-79149809D02*
X32443428Y-79721238D01*
X32938666Y-79721238D01*
%TO.C,R2*%
X25296666Y-49184304D02*
X25030000Y-48803352D01*
X24839523Y-49184304D02*
X24839523Y-48384304D01*
X25144285Y-48384304D01*
X25220476Y-48422400D01*
X25258571Y-48460495D01*
X25296666Y-48536685D01*
X25296666Y-48650971D01*
X25258571Y-48727161D01*
X25220476Y-48765257D01*
X25144285Y-48803352D01*
X24839523Y-48803352D01*
X25601428Y-48460495D02*
X25639523Y-48422400D01*
X25715714Y-48384304D01*
X25906190Y-48384304D01*
X25982380Y-48422400D01*
X26020476Y-48460495D01*
X26058571Y-48536685D01*
X26058571Y-48612876D01*
X26020476Y-48727161D01*
X25563333Y-49184304D01*
X26058571Y-49184304D01*
%TO.C,C4*%
X57506666Y-44637714D02*
X57468571Y-44675809D01*
X57354285Y-44713904D01*
X57278095Y-44713904D01*
X57163809Y-44675809D01*
X57087619Y-44599619D01*
X57049523Y-44523428D01*
X57011428Y-44371047D01*
X57011428Y-44256761D01*
X57049523Y-44104380D01*
X57087619Y-44028190D01*
X57163809Y-43952000D01*
X57278095Y-43913904D01*
X57354285Y-43913904D01*
X57468571Y-43952000D01*
X57506666Y-43990095D01*
X58192380Y-44180571D02*
X58192380Y-44713904D01*
X58001904Y-43875809D02*
X57811428Y-44447238D01*
X58306666Y-44447238D01*
%TO.C,C5*%
X51029666Y-63655714D02*
X50991571Y-63693809D01*
X50877285Y-63731904D01*
X50801095Y-63731904D01*
X50686809Y-63693809D01*
X50610619Y-63617619D01*
X50572523Y-63541428D01*
X50534428Y-63389047D01*
X50534428Y-63274761D01*
X50572523Y-63122380D01*
X50610619Y-63046190D01*
X50686809Y-62970000D01*
X50801095Y-62931904D01*
X50877285Y-62931904D01*
X50991571Y-62970000D01*
X51029666Y-63008095D01*
X51753476Y-62931904D02*
X51372523Y-62931904D01*
X51334428Y-63312857D01*
X51372523Y-63274761D01*
X51448714Y-63236666D01*
X51639190Y-63236666D01*
X51715380Y-63274761D01*
X51753476Y-63312857D01*
X51791571Y-63389047D01*
X51791571Y-63579523D01*
X51753476Y-63655714D01*
X51715380Y-63693809D01*
X51639190Y-63731904D01*
X51448714Y-63731904D01*
X51372523Y-63693809D01*
X51334428Y-63655714D01*
%TO.C,R2*%
X76032666Y-84458304D02*
X75766000Y-84077352D01*
X75575523Y-84458304D02*
X75575523Y-83658304D01*
X75880285Y-83658304D01*
X75956476Y-83696400D01*
X75994571Y-83734495D01*
X76032666Y-83810685D01*
X76032666Y-83924971D01*
X75994571Y-84001161D01*
X75956476Y-84039257D01*
X75880285Y-84077352D01*
X75575523Y-84077352D01*
X76337428Y-83734495D02*
X76375523Y-83696400D01*
X76451714Y-83658304D01*
X76642190Y-83658304D01*
X76718380Y-83696400D01*
X76756476Y-83734495D01*
X76794571Y-83810685D01*
X76794571Y-83886876D01*
X76756476Y-84001161D01*
X76299333Y-84458304D01*
X76794571Y-84458304D01*
%TO.C,C2*%
X46237000Y-39105285D02*
X46208428Y-39133857D01*
X46122714Y-39162428D01*
X46065571Y-39162428D01*
X45979857Y-39133857D01*
X45922714Y-39076714D01*
X45894142Y-39019571D01*
X45865571Y-38905285D01*
X45865571Y-38819571D01*
X45894142Y-38705285D01*
X45922714Y-38648142D01*
X45979857Y-38591000D01*
X46065571Y-38562428D01*
X46122714Y-38562428D01*
X46208428Y-38591000D01*
X46237000Y-38619571D01*
X46465571Y-38619571D02*
X46494142Y-38591000D01*
X46551285Y-38562428D01*
X46694142Y-38562428D01*
X46751285Y-38591000D01*
X46779857Y-38619571D01*
X46808428Y-38676714D01*
X46808428Y-38733857D01*
X46779857Y-38819571D01*
X46437000Y-39162428D01*
X46808428Y-39162428D01*
%TO.C,D3*%
X21267523Y-31124904D02*
X21267523Y-30324904D01*
X21458000Y-30324904D01*
X21572285Y-30363000D01*
X21648476Y-30439190D01*
X21686571Y-30515380D01*
X21724666Y-30667761D01*
X21724666Y-30782047D01*
X21686571Y-30934428D01*
X21648476Y-31010619D01*
X21572285Y-31086809D01*
X21458000Y-31124904D01*
X21267523Y-31124904D01*
X21991333Y-30324904D02*
X22486571Y-30324904D01*
X22219904Y-30629666D01*
X22334190Y-30629666D01*
X22410380Y-30667761D01*
X22448476Y-30705857D01*
X22486571Y-30782047D01*
X22486571Y-30972523D01*
X22448476Y-31048714D01*
X22410380Y-31086809D01*
X22334190Y-31124904D01*
X22105619Y-31124904D01*
X22029428Y-31086809D01*
X21991333Y-31048714D01*
%TO.C,JP1*%
X75560533Y-81219904D02*
X75560533Y-81791333D01*
X75522438Y-81905619D01*
X75446247Y-81981809D01*
X75331961Y-82019904D01*
X75255771Y-82019904D01*
X75941485Y-82019904D02*
X75941485Y-81219904D01*
X76246247Y-81219904D01*
X76322438Y-81258000D01*
X76360533Y-81296095D01*
X76398628Y-81372285D01*
X76398628Y-81486571D01*
X76360533Y-81562761D01*
X76322438Y-81600857D01*
X76246247Y-81638952D01*
X75941485Y-81638952D01*
X77160533Y-82019904D02*
X76703390Y-82019904D01*
X76931961Y-82019904D02*
X76931961Y-81219904D01*
X76855771Y-81334190D01*
X76779580Y-81410380D01*
X76703390Y-81448476D01*
%TO.C,U1*%
X79195776Y-67757904D02*
X79195776Y-68405523D01*
X79233871Y-68481714D01*
X79271966Y-68519809D01*
X79348157Y-68557904D01*
X79500538Y-68557904D01*
X79576728Y-68519809D01*
X79614823Y-68481714D01*
X79652919Y-68405523D01*
X79652919Y-67757904D01*
X80452919Y-68557904D02*
X79995776Y-68557904D01*
X80224347Y-68557904D02*
X80224347Y-67757904D01*
X80148157Y-67872190D01*
X80071966Y-67948380D01*
X79995776Y-67986476D01*
%TO.C,R1*%
X76778666Y-71097904D02*
X76512000Y-70716952D01*
X76321523Y-71097904D02*
X76321523Y-70297904D01*
X76626285Y-70297904D01*
X76702476Y-70336000D01*
X76740571Y-70374095D01*
X76778666Y-70450285D01*
X76778666Y-70564571D01*
X76740571Y-70640761D01*
X76702476Y-70678857D01*
X76626285Y-70716952D01*
X76321523Y-70716952D01*
X77540571Y-71097904D02*
X77083428Y-71097904D01*
X77312000Y-71097904D02*
X77312000Y-70297904D01*
X77235809Y-70412190D01*
X77159619Y-70488380D01*
X77083428Y-70526476D01*
%TO.C,U2*%
X51172476Y-78552904D02*
X51172476Y-79200523D01*
X51210571Y-79276714D01*
X51248666Y-79314809D01*
X51324857Y-79352904D01*
X51477238Y-79352904D01*
X51553428Y-79314809D01*
X51591523Y-79276714D01*
X51629619Y-79200523D01*
X51629619Y-78552904D01*
X51972476Y-78629095D02*
X52010571Y-78591000D01*
X52086761Y-78552904D01*
X52277238Y-78552904D01*
X52353428Y-78591000D01*
X52391523Y-78629095D01*
X52429619Y-78705285D01*
X52429619Y-78781476D01*
X52391523Y-78895761D01*
X51934380Y-79352904D01*
X52429619Y-79352904D01*
X25804476Y-43278904D02*
X25804476Y-43926523D01*
X25842571Y-44002714D01*
X25880666Y-44040809D01*
X25956857Y-44078904D01*
X26109238Y-44078904D01*
X26185428Y-44040809D01*
X26223523Y-44002714D01*
X26261619Y-43926523D01*
X26261619Y-43278904D01*
X26604476Y-43355095D02*
X26642571Y-43317000D01*
X26718761Y-43278904D01*
X26909238Y-43278904D01*
X26985428Y-43317000D01*
X27023523Y-43355095D01*
X27061619Y-43431285D01*
X27061619Y-43507476D01*
X27023523Y-43621761D01*
X26566380Y-44078904D01*
X27061619Y-44078904D01*
%TO.C,R2*%
X25296666Y-84458304D02*
X25030000Y-84077352D01*
X24839523Y-84458304D02*
X24839523Y-83658304D01*
X25144285Y-83658304D01*
X25220476Y-83696400D01*
X25258571Y-83734495D01*
X25296666Y-83810685D01*
X25296666Y-83924971D01*
X25258571Y-84001161D01*
X25220476Y-84039257D01*
X25144285Y-84077352D01*
X24839523Y-84077352D01*
X25601428Y-83734495D02*
X25639523Y-83696400D01*
X25715714Y-83658304D01*
X25906190Y-83658304D01*
X25982380Y-83696400D01*
X26020476Y-83734495D01*
X26058571Y-83810685D01*
X26058571Y-83886876D01*
X26020476Y-84001161D01*
X25563333Y-84458304D01*
X26058571Y-84458304D01*
%TO.C,C4*%
X82874666Y-79911714D02*
X82836571Y-79949809D01*
X82722285Y-79987904D01*
X82646095Y-79987904D01*
X82531809Y-79949809D01*
X82455619Y-79873619D01*
X82417523Y-79797428D01*
X82379428Y-79645047D01*
X82379428Y-79530761D01*
X82417523Y-79378380D01*
X82455619Y-79302190D01*
X82531809Y-79226000D01*
X82646095Y-79187904D01*
X82722285Y-79187904D01*
X82836571Y-79226000D01*
X82874666Y-79264095D01*
X83560380Y-79454571D02*
X83560380Y-79987904D01*
X83369904Y-79149809D02*
X83179428Y-79721238D01*
X83674666Y-79721238D01*
%TO.C,R2*%
X50664666Y-84458304D02*
X50398000Y-84077352D01*
X50207523Y-84458304D02*
X50207523Y-83658304D01*
X50512285Y-83658304D01*
X50588476Y-83696400D01*
X50626571Y-83734495D01*
X50664666Y-83810685D01*
X50664666Y-83924971D01*
X50626571Y-84001161D01*
X50588476Y-84039257D01*
X50512285Y-84077352D01*
X50207523Y-84077352D01*
X50969428Y-83734495D02*
X51007523Y-83696400D01*
X51083714Y-83658304D01*
X51274190Y-83658304D01*
X51350380Y-83696400D01*
X51388476Y-83734495D01*
X51426571Y-83810685D01*
X51426571Y-83886876D01*
X51388476Y-84001161D01*
X50931333Y-84458304D01*
X51426571Y-84458304D01*
%TO.C,U2*%
X51172476Y-43278904D02*
X51172476Y-43926523D01*
X51210571Y-44002714D01*
X51248666Y-44040809D01*
X51324857Y-44078904D01*
X51477238Y-44078904D01*
X51553428Y-44040809D01*
X51591523Y-44002714D01*
X51629619Y-43926523D01*
X51629619Y-43278904D01*
X51972476Y-43355095D02*
X52010571Y-43317000D01*
X52086761Y-43278904D01*
X52277238Y-43278904D01*
X52353428Y-43317000D01*
X52391523Y-43355095D01*
X52429619Y-43431285D01*
X52429619Y-43507476D01*
X52391523Y-43621761D01*
X51934380Y-44078904D01*
X52429619Y-44078904D01*
%TO.C,JP1*%
X24824533Y-81219904D02*
X24824533Y-81791333D01*
X24786438Y-81905619D01*
X24710247Y-81981809D01*
X24595961Y-82019904D01*
X24519771Y-82019904D01*
X25205485Y-82019904D02*
X25205485Y-81219904D01*
X25510247Y-81219904D01*
X25586438Y-81258000D01*
X25624533Y-81296095D01*
X25662628Y-81372285D01*
X25662628Y-81486571D01*
X25624533Y-81562761D01*
X25586438Y-81600857D01*
X25510247Y-81638952D01*
X25205485Y-81638952D01*
X26424533Y-82019904D02*
X25967390Y-82019904D01*
X26195961Y-82019904D02*
X26195961Y-81219904D01*
X26119771Y-81334190D01*
X26043580Y-81410380D01*
X25967390Y-81448476D01*
%TO.C,D1*%
X27109523Y-27695904D02*
X27109523Y-26895904D01*
X27300000Y-26895904D01*
X27414285Y-26934000D01*
X27490476Y-27010190D01*
X27528571Y-27086380D01*
X27566666Y-27238761D01*
X27566666Y-27353047D01*
X27528571Y-27505428D01*
X27490476Y-27581619D01*
X27414285Y-27657809D01*
X27300000Y-27695904D01*
X27109523Y-27695904D01*
X28328571Y-27695904D02*
X27871428Y-27695904D01*
X28100000Y-27695904D02*
X28100000Y-26895904D01*
X28023809Y-27010190D01*
X27947619Y-27086380D01*
X27871428Y-27124476D01*
%TO.C,D2*%
X20632523Y-29473904D02*
X20632523Y-28673904D01*
X20823000Y-28673904D01*
X20937285Y-28712000D01*
X21013476Y-28788190D01*
X21051571Y-28864380D01*
X21089666Y-29016761D01*
X21089666Y-29131047D01*
X21051571Y-29283428D01*
X21013476Y-29359619D01*
X20937285Y-29435809D01*
X20823000Y-29473904D01*
X20632523Y-29473904D01*
X21394428Y-28750095D02*
X21432523Y-28712000D01*
X21508714Y-28673904D01*
X21699190Y-28673904D01*
X21775380Y-28712000D01*
X21813476Y-28750095D01*
X21851571Y-28826285D01*
X21851571Y-28902476D01*
X21813476Y-29016761D01*
X21356333Y-29473904D01*
X21851571Y-29473904D01*
%TO.C,JP1*%
X24824533Y-45945904D02*
X24824533Y-46517333D01*
X24786438Y-46631619D01*
X24710247Y-46707809D01*
X24595961Y-46745904D01*
X24519771Y-46745904D01*
X25205485Y-46745904D02*
X25205485Y-45945904D01*
X25510247Y-45945904D01*
X25586438Y-45984000D01*
X25624533Y-46022095D01*
X25662628Y-46098285D01*
X25662628Y-46212571D01*
X25624533Y-46288761D01*
X25586438Y-46326857D01*
X25510247Y-46364952D01*
X25205485Y-46364952D01*
X26424533Y-46745904D02*
X25967390Y-46745904D01*
X26195961Y-46745904D02*
X26195961Y-45945904D01*
X26119771Y-46060190D01*
X26043580Y-46136380D01*
X25967390Y-46174476D01*
%TO.C,R1*%
X26042666Y-35823904D02*
X25776000Y-35442952D01*
X25585523Y-35823904D02*
X25585523Y-35023904D01*
X25890285Y-35023904D01*
X25966476Y-35062000D01*
X26004571Y-35100095D01*
X26042666Y-35176285D01*
X26042666Y-35290571D01*
X26004571Y-35366761D01*
X25966476Y-35404857D01*
X25890285Y-35442952D01*
X25585523Y-35442952D01*
X26804571Y-35823904D02*
X26347428Y-35823904D01*
X26576000Y-35823904D02*
X26576000Y-35023904D01*
X26499809Y-35138190D01*
X26423619Y-35214380D01*
X26347428Y-35252476D01*
%TO.C,D4*%
X24823523Y-86591904D02*
X24823523Y-85791904D01*
X25014000Y-85791904D01*
X25128285Y-85830000D01*
X25204476Y-85906190D01*
X25242571Y-85982380D01*
X25280666Y-86134761D01*
X25280666Y-86249047D01*
X25242571Y-86401428D01*
X25204476Y-86477619D01*
X25128285Y-86553809D01*
X25014000Y-86591904D01*
X24823523Y-86591904D01*
X25966380Y-86058571D02*
X25966380Y-86591904D01*
X25775904Y-85753809D02*
X25585428Y-86325238D01*
X26080666Y-86325238D01*
%TO.C,C4*%
X57506666Y-79911714D02*
X57468571Y-79949809D01*
X57354285Y-79987904D01*
X57278095Y-79987904D01*
X57163809Y-79949809D01*
X57087619Y-79873619D01*
X57049523Y-79797428D01*
X57011428Y-79645047D01*
X57011428Y-79530761D01*
X57049523Y-79378380D01*
X57087619Y-79302190D01*
X57163809Y-79226000D01*
X57278095Y-79187904D01*
X57354285Y-79187904D01*
X57468571Y-79226000D01*
X57506666Y-79264095D01*
X58192380Y-79454571D02*
X58192380Y-79987904D01*
X58001904Y-79149809D02*
X57811428Y-79721238D01*
X58306666Y-79721238D01*
%TO.C,C3*%
X82747666Y-68735714D02*
X82709571Y-68773809D01*
X82595285Y-68811904D01*
X82519095Y-68811904D01*
X82404809Y-68773809D01*
X82328619Y-68697619D01*
X82290523Y-68621428D01*
X82252428Y-68469047D01*
X82252428Y-68354761D01*
X82290523Y-68202380D01*
X82328619Y-68126190D01*
X82404809Y-68050000D01*
X82519095Y-68011904D01*
X82595285Y-68011904D01*
X82709571Y-68050000D01*
X82747666Y-68088095D01*
X83014333Y-68011904D02*
X83509571Y-68011904D01*
X83242904Y-68316666D01*
X83357190Y-68316666D01*
X83433380Y-68354761D01*
X83471476Y-68392857D01*
X83509571Y-68469047D01*
X83509571Y-68659523D01*
X83471476Y-68735714D01*
X83433380Y-68773809D01*
X83357190Y-68811904D01*
X83128619Y-68811904D01*
X83052428Y-68773809D01*
X83014333Y-68735714D01*
%TO.C,C2*%
X46237000Y-74379285D02*
X46208428Y-74407857D01*
X46122714Y-74436428D01*
X46065571Y-74436428D01*
X45979857Y-74407857D01*
X45922714Y-74350714D01*
X45894142Y-74293571D01*
X45865571Y-74179285D01*
X45865571Y-74093571D01*
X45894142Y-73979285D01*
X45922714Y-73922142D01*
X45979857Y-73865000D01*
X46065571Y-73836428D01*
X46122714Y-73836428D01*
X46208428Y-73865000D01*
X46237000Y-73893571D01*
X46465571Y-73893571D02*
X46494142Y-73865000D01*
X46551285Y-73836428D01*
X46694142Y-73836428D01*
X46751285Y-73865000D01*
X46779857Y-73893571D01*
X46808428Y-73950714D01*
X46808428Y-74007857D01*
X46779857Y-74093571D01*
X46437000Y-74436428D01*
X46808428Y-74436428D01*
%TO.C,D1*%
X27109523Y-62969904D02*
X27109523Y-62169904D01*
X27300000Y-62169904D01*
X27414285Y-62208000D01*
X27490476Y-62284190D01*
X27528571Y-62360380D01*
X27566666Y-62512761D01*
X27566666Y-62627047D01*
X27528571Y-62779428D01*
X27490476Y-62855619D01*
X27414285Y-62931809D01*
X27300000Y-62969904D01*
X27109523Y-62969904D01*
X28328571Y-62969904D02*
X27871428Y-62969904D01*
X28100000Y-62969904D02*
X28100000Y-62169904D01*
X28023809Y-62284190D01*
X27947619Y-62360380D01*
X27871428Y-62398476D01*
%TO.C,C1*%
X44205000Y-39105285D02*
X44176428Y-39133857D01*
X44090714Y-39162428D01*
X44033571Y-39162428D01*
X43947857Y-39133857D01*
X43890714Y-39076714D01*
X43862142Y-39019571D01*
X43833571Y-38905285D01*
X43833571Y-38819571D01*
X43862142Y-38705285D01*
X43890714Y-38648142D01*
X43947857Y-38591000D01*
X44033571Y-38562428D01*
X44090714Y-38562428D01*
X44176428Y-38591000D01*
X44205000Y-38619571D01*
X44776428Y-39162428D02*
X44433571Y-39162428D01*
X44605000Y-39162428D02*
X44605000Y-38562428D01*
X44547857Y-38648142D01*
X44490714Y-38705285D01*
X44433571Y-38733857D01*
%TO.C,D3*%
X21267523Y-66398904D02*
X21267523Y-65598904D01*
X21458000Y-65598904D01*
X21572285Y-65637000D01*
X21648476Y-65713190D01*
X21686571Y-65789380D01*
X21724666Y-65941761D01*
X21724666Y-66056047D01*
X21686571Y-66208428D01*
X21648476Y-66284619D01*
X21572285Y-66360809D01*
X21458000Y-66398904D01*
X21267523Y-66398904D01*
X21991333Y-65598904D02*
X22486571Y-65598904D01*
X22219904Y-65903666D01*
X22334190Y-65903666D01*
X22410380Y-65941761D01*
X22448476Y-65979857D01*
X22486571Y-66056047D01*
X22486571Y-66246523D01*
X22448476Y-66322714D01*
X22410380Y-66360809D01*
X22334190Y-66398904D01*
X22105619Y-66398904D01*
X22029428Y-66360809D01*
X21991333Y-66322714D01*
%TO.C,U1*%
X53827776Y-32483904D02*
X53827776Y-33131523D01*
X53865871Y-33207714D01*
X53903966Y-33245809D01*
X53980157Y-33283904D01*
X54132538Y-33283904D01*
X54208728Y-33245809D01*
X54246823Y-33207714D01*
X54284919Y-33131523D01*
X54284919Y-32483904D01*
X55084919Y-33283904D02*
X54627776Y-33283904D01*
X54856347Y-33283904D02*
X54856347Y-32483904D01*
X54780157Y-32598190D01*
X54703966Y-32674380D01*
X54627776Y-32712476D01*
%TO.C,D4*%
X50191523Y-51317904D02*
X50191523Y-50517904D01*
X50382000Y-50517904D01*
X50496285Y-50556000D01*
X50572476Y-50632190D01*
X50610571Y-50708380D01*
X50648666Y-50860761D01*
X50648666Y-50975047D01*
X50610571Y-51127428D01*
X50572476Y-51203619D01*
X50496285Y-51279809D01*
X50382000Y-51317904D01*
X50191523Y-51317904D01*
X51334380Y-50784571D02*
X51334380Y-51317904D01*
X51143904Y-50479809D02*
X50953428Y-51051238D01*
X51448666Y-51051238D01*
%TO.C,JP1*%
X50192533Y-81219904D02*
X50192533Y-81791333D01*
X50154438Y-81905619D01*
X50078247Y-81981809D01*
X49963961Y-82019904D01*
X49887771Y-82019904D01*
X50573485Y-82019904D02*
X50573485Y-81219904D01*
X50878247Y-81219904D01*
X50954438Y-81258000D01*
X50992533Y-81296095D01*
X51030628Y-81372285D01*
X51030628Y-81486571D01*
X50992533Y-81562761D01*
X50954438Y-81600857D01*
X50878247Y-81638952D01*
X50573485Y-81638952D01*
X51792533Y-82019904D02*
X51335390Y-82019904D01*
X51563961Y-82019904D02*
X51563961Y-81219904D01*
X51487771Y-81334190D01*
X51411580Y-81410380D01*
X51335390Y-81448476D01*
%TO.C,C2*%
X20869000Y-74379285D02*
X20840428Y-74407857D01*
X20754714Y-74436428D01*
X20697571Y-74436428D01*
X20611857Y-74407857D01*
X20554714Y-74350714D01*
X20526142Y-74293571D01*
X20497571Y-74179285D01*
X20497571Y-74093571D01*
X20526142Y-73979285D01*
X20554714Y-73922142D01*
X20611857Y-73865000D01*
X20697571Y-73836428D01*
X20754714Y-73836428D01*
X20840428Y-73865000D01*
X20869000Y-73893571D01*
X21097571Y-73893571D02*
X21126142Y-73865000D01*
X21183285Y-73836428D01*
X21326142Y-73836428D01*
X21383285Y-73865000D01*
X21411857Y-73893571D01*
X21440428Y-73950714D01*
X21440428Y-74007857D01*
X21411857Y-74093571D01*
X21069000Y-74436428D01*
X21440428Y-74436428D01*
%TO.C,D3*%
X46635523Y-66398904D02*
X46635523Y-65598904D01*
X46826000Y-65598904D01*
X46940285Y-65637000D01*
X47016476Y-65713190D01*
X47054571Y-65789380D01*
X47092666Y-65941761D01*
X47092666Y-66056047D01*
X47054571Y-66208428D01*
X47016476Y-66284619D01*
X46940285Y-66360809D01*
X46826000Y-66398904D01*
X46635523Y-66398904D01*
X47359333Y-65598904D02*
X47854571Y-65598904D01*
X47587904Y-65903666D01*
X47702190Y-65903666D01*
X47778380Y-65941761D01*
X47816476Y-65979857D01*
X47854571Y-66056047D01*
X47854571Y-66246523D01*
X47816476Y-66322714D01*
X47778380Y-66360809D01*
X47702190Y-66398904D01*
X47473619Y-66398904D01*
X47397428Y-66360809D01*
X47359333Y-66322714D01*
%TO.C,C5*%
X51029666Y-28381714D02*
X50991571Y-28419809D01*
X50877285Y-28457904D01*
X50801095Y-28457904D01*
X50686809Y-28419809D01*
X50610619Y-28343619D01*
X50572523Y-28267428D01*
X50534428Y-28115047D01*
X50534428Y-28000761D01*
X50572523Y-27848380D01*
X50610619Y-27772190D01*
X50686809Y-27696000D01*
X50801095Y-27657904D01*
X50877285Y-27657904D01*
X50991571Y-27696000D01*
X51029666Y-27734095D01*
X51753476Y-27657904D02*
X51372523Y-27657904D01*
X51334428Y-28038857D01*
X51372523Y-28000761D01*
X51448714Y-27962666D01*
X51639190Y-27962666D01*
X51715380Y-28000761D01*
X51753476Y-28038857D01*
X51791571Y-28115047D01*
X51791571Y-28305523D01*
X51753476Y-28381714D01*
X51715380Y-28419809D01*
X51639190Y-28457904D01*
X51448714Y-28457904D01*
X51372523Y-28419809D01*
X51334428Y-28381714D01*
%TO.C,D2*%
X46000523Y-64747904D02*
X46000523Y-63947904D01*
X46191000Y-63947904D01*
X46305285Y-63986000D01*
X46381476Y-64062190D01*
X46419571Y-64138380D01*
X46457666Y-64290761D01*
X46457666Y-64405047D01*
X46419571Y-64557428D01*
X46381476Y-64633619D01*
X46305285Y-64709809D01*
X46191000Y-64747904D01*
X46000523Y-64747904D01*
X46762428Y-64024095D02*
X46800523Y-63986000D01*
X46876714Y-63947904D01*
X47067190Y-63947904D01*
X47143380Y-63986000D01*
X47181476Y-64024095D01*
X47219571Y-64100285D01*
X47219571Y-64176476D01*
X47181476Y-64290761D01*
X46724333Y-64747904D01*
X47219571Y-64747904D01*
%TO.C,D3*%
X72003523Y-66398904D02*
X72003523Y-65598904D01*
X72194000Y-65598904D01*
X72308285Y-65637000D01*
X72384476Y-65713190D01*
X72422571Y-65789380D01*
X72460666Y-65941761D01*
X72460666Y-66056047D01*
X72422571Y-66208428D01*
X72384476Y-66284619D01*
X72308285Y-66360809D01*
X72194000Y-66398904D01*
X72003523Y-66398904D01*
X72727333Y-65598904D02*
X73222571Y-65598904D01*
X72955904Y-65903666D01*
X73070190Y-65903666D01*
X73146380Y-65941761D01*
X73184476Y-65979857D01*
X73222571Y-66056047D01*
X73222571Y-66246523D01*
X73184476Y-66322714D01*
X73146380Y-66360809D01*
X73070190Y-66398904D01*
X72841619Y-66398904D01*
X72765428Y-66360809D01*
X72727333Y-66322714D01*
%TO.C,D2*%
X46000523Y-29473904D02*
X46000523Y-28673904D01*
X46191000Y-28673904D01*
X46305285Y-28712000D01*
X46381476Y-28788190D01*
X46419571Y-28864380D01*
X46457666Y-29016761D01*
X46457666Y-29131047D01*
X46419571Y-29283428D01*
X46381476Y-29359619D01*
X46305285Y-29435809D01*
X46191000Y-29473904D01*
X46000523Y-29473904D01*
X46762428Y-28750095D02*
X46800523Y-28712000D01*
X46876714Y-28673904D01*
X47067190Y-28673904D01*
X47143380Y-28712000D01*
X47181476Y-28750095D01*
X47219571Y-28826285D01*
X47219571Y-28902476D01*
X47181476Y-29016761D01*
X46724333Y-29473904D01*
X47219571Y-29473904D01*
%TO.C,C2*%
X20869000Y-39105285D02*
X20840428Y-39133857D01*
X20754714Y-39162428D01*
X20697571Y-39162428D01*
X20611857Y-39133857D01*
X20554714Y-39076714D01*
X20526142Y-39019571D01*
X20497571Y-38905285D01*
X20497571Y-38819571D01*
X20526142Y-38705285D01*
X20554714Y-38648142D01*
X20611857Y-38591000D01*
X20697571Y-38562428D01*
X20754714Y-38562428D01*
X20840428Y-38591000D01*
X20869000Y-38619571D01*
X21097571Y-38619571D02*
X21126142Y-38591000D01*
X21183285Y-38562428D01*
X21326142Y-38562428D01*
X21383285Y-38591000D01*
X21411857Y-38619571D01*
X21440428Y-38676714D01*
X21440428Y-38733857D01*
X21411857Y-38819571D01*
X21069000Y-39162428D01*
X21440428Y-39162428D01*
%TO.C,C5*%
X25661666Y-63655714D02*
X25623571Y-63693809D01*
X25509285Y-63731904D01*
X25433095Y-63731904D01*
X25318809Y-63693809D01*
X25242619Y-63617619D01*
X25204523Y-63541428D01*
X25166428Y-63389047D01*
X25166428Y-63274761D01*
X25204523Y-63122380D01*
X25242619Y-63046190D01*
X25318809Y-62970000D01*
X25433095Y-62931904D01*
X25509285Y-62931904D01*
X25623571Y-62970000D01*
X25661666Y-63008095D01*
X26385476Y-62931904D02*
X26004523Y-62931904D01*
X25966428Y-63312857D01*
X26004523Y-63274761D01*
X26080714Y-63236666D01*
X26271190Y-63236666D01*
X26347380Y-63274761D01*
X26385476Y-63312857D01*
X26423571Y-63389047D01*
X26423571Y-63579523D01*
X26385476Y-63655714D01*
X26347380Y-63693809D01*
X26271190Y-63731904D01*
X26080714Y-63731904D01*
X26004523Y-63693809D01*
X25966428Y-63655714D01*
%TO.C,R1*%
X26042666Y-71097904D02*
X25776000Y-70716952D01*
X25585523Y-71097904D02*
X25585523Y-70297904D01*
X25890285Y-70297904D01*
X25966476Y-70336000D01*
X26004571Y-70374095D01*
X26042666Y-70450285D01*
X26042666Y-70564571D01*
X26004571Y-70640761D01*
X25966476Y-70678857D01*
X25890285Y-70716952D01*
X25585523Y-70716952D01*
X26804571Y-71097904D02*
X26347428Y-71097904D01*
X26576000Y-71097904D02*
X26576000Y-70297904D01*
X26499809Y-70412190D01*
X26423619Y-70488380D01*
X26347428Y-70526476D01*
%TO.C,D1*%
X52477523Y-27695904D02*
X52477523Y-26895904D01*
X52668000Y-26895904D01*
X52782285Y-26934000D01*
X52858476Y-27010190D01*
X52896571Y-27086380D01*
X52934666Y-27238761D01*
X52934666Y-27353047D01*
X52896571Y-27505428D01*
X52858476Y-27581619D01*
X52782285Y-27657809D01*
X52668000Y-27695904D01*
X52477523Y-27695904D01*
X53696571Y-27695904D02*
X53239428Y-27695904D01*
X53468000Y-27695904D02*
X53468000Y-26895904D01*
X53391809Y-27010190D01*
X53315619Y-27086380D01*
X53239428Y-27124476D01*
%TO.C,C2*%
X71605000Y-74379285D02*
X71576428Y-74407857D01*
X71490714Y-74436428D01*
X71433571Y-74436428D01*
X71347857Y-74407857D01*
X71290714Y-74350714D01*
X71262142Y-74293571D01*
X71233571Y-74179285D01*
X71233571Y-74093571D01*
X71262142Y-73979285D01*
X71290714Y-73922142D01*
X71347857Y-73865000D01*
X71433571Y-73836428D01*
X71490714Y-73836428D01*
X71576428Y-73865000D01*
X71605000Y-73893571D01*
X71833571Y-73893571D02*
X71862142Y-73865000D01*
X71919285Y-73836428D01*
X72062142Y-73836428D01*
X72119285Y-73865000D01*
X72147857Y-73893571D01*
X72176428Y-73950714D01*
X72176428Y-74007857D01*
X72147857Y-74093571D01*
X71805000Y-74436428D01*
X72176428Y-74436428D01*
%TO.C,JP1*%
X50192533Y-45945904D02*
X50192533Y-46517333D01*
X50154438Y-46631619D01*
X50078247Y-46707809D01*
X49963961Y-46745904D01*
X49887771Y-46745904D01*
X50573485Y-46745904D02*
X50573485Y-45945904D01*
X50878247Y-45945904D01*
X50954438Y-45984000D01*
X50992533Y-46022095D01*
X51030628Y-46098285D01*
X51030628Y-46212571D01*
X50992533Y-46288761D01*
X50954438Y-46326857D01*
X50878247Y-46364952D01*
X50573485Y-46364952D01*
X51792533Y-46745904D02*
X51335390Y-46745904D01*
X51563961Y-46745904D02*
X51563961Y-45945904D01*
X51487771Y-46060190D01*
X51411580Y-46136380D01*
X51335390Y-46174476D01*
%TO.C,R1*%
X51410666Y-35823904D02*
X51144000Y-35442952D01*
X50953523Y-35823904D02*
X50953523Y-35023904D01*
X51258285Y-35023904D01*
X51334476Y-35062000D01*
X51372571Y-35100095D01*
X51410666Y-35176285D01*
X51410666Y-35290571D01*
X51372571Y-35366761D01*
X51334476Y-35404857D01*
X51258285Y-35442952D01*
X50953523Y-35442952D01*
X52172571Y-35823904D02*
X51715428Y-35823904D01*
X51944000Y-35823904D02*
X51944000Y-35023904D01*
X51867809Y-35138190D01*
X51791619Y-35214380D01*
X51715428Y-35252476D01*
%TO.C,C1*%
X69573000Y-74379285D02*
X69544428Y-74407857D01*
X69458714Y-74436428D01*
X69401571Y-74436428D01*
X69315857Y-74407857D01*
X69258714Y-74350714D01*
X69230142Y-74293571D01*
X69201571Y-74179285D01*
X69201571Y-74093571D01*
X69230142Y-73979285D01*
X69258714Y-73922142D01*
X69315857Y-73865000D01*
X69401571Y-73836428D01*
X69458714Y-73836428D01*
X69544428Y-73865000D01*
X69573000Y-73893571D01*
X70144428Y-74436428D02*
X69801571Y-74436428D01*
X69973000Y-74436428D02*
X69973000Y-73836428D01*
X69915857Y-73922142D01*
X69858714Y-73979285D01*
X69801571Y-74007857D01*
%TO.C,R2*%
X50664666Y-49184304D02*
X50398000Y-48803352D01*
X50207523Y-49184304D02*
X50207523Y-48384304D01*
X50512285Y-48384304D01*
X50588476Y-48422400D01*
X50626571Y-48460495D01*
X50664666Y-48536685D01*
X50664666Y-48650971D01*
X50626571Y-48727161D01*
X50588476Y-48765257D01*
X50512285Y-48803352D01*
X50207523Y-48803352D01*
X50969428Y-48460495D02*
X51007523Y-48422400D01*
X51083714Y-48384304D01*
X51274190Y-48384304D01*
X51350380Y-48422400D01*
X51388476Y-48460495D01*
X51426571Y-48536685D01*
X51426571Y-48612876D01*
X51388476Y-48727161D01*
X50931333Y-49184304D01*
X51426571Y-49184304D01*
%TO.C,D3*%
X46635523Y-31124904D02*
X46635523Y-30324904D01*
X46826000Y-30324904D01*
X46940285Y-30363000D01*
X47016476Y-30439190D01*
X47054571Y-30515380D01*
X47092666Y-30667761D01*
X47092666Y-30782047D01*
X47054571Y-30934428D01*
X47016476Y-31010619D01*
X46940285Y-31086809D01*
X46826000Y-31124904D01*
X46635523Y-31124904D01*
X47359333Y-30324904D02*
X47854571Y-30324904D01*
X47587904Y-30629666D01*
X47702190Y-30629666D01*
X47778380Y-30667761D01*
X47816476Y-30705857D01*
X47854571Y-30782047D01*
X47854571Y-30972523D01*
X47816476Y-31048714D01*
X47778380Y-31086809D01*
X47702190Y-31124904D01*
X47473619Y-31124904D01*
X47397428Y-31086809D01*
X47359333Y-31048714D01*
%TO.C,D4*%
X75559523Y-86591904D02*
X75559523Y-85791904D01*
X75750000Y-85791904D01*
X75864285Y-85830000D01*
X75940476Y-85906190D01*
X75978571Y-85982380D01*
X76016666Y-86134761D01*
X76016666Y-86249047D01*
X75978571Y-86401428D01*
X75940476Y-86477619D01*
X75864285Y-86553809D01*
X75750000Y-86591904D01*
X75559523Y-86591904D01*
X76702380Y-86058571D02*
X76702380Y-86591904D01*
X76511904Y-85753809D02*
X76321428Y-86325238D01*
X76816666Y-86325238D01*
%TO.C,U1*%
X28459776Y-67757904D02*
X28459776Y-68405523D01*
X28497871Y-68481714D01*
X28535966Y-68519809D01*
X28612157Y-68557904D01*
X28764538Y-68557904D01*
X28840728Y-68519809D01*
X28878823Y-68481714D01*
X28916919Y-68405523D01*
X28916919Y-67757904D01*
X29716919Y-68557904D02*
X29259776Y-68557904D01*
X29488347Y-68557904D02*
X29488347Y-67757904D01*
X29412157Y-67872190D01*
X29335966Y-67948380D01*
X29259776Y-67986476D01*
%TO.C,D4*%
X24823523Y-51317904D02*
X24823523Y-50517904D01*
X25014000Y-50517904D01*
X25128285Y-50556000D01*
X25204476Y-50632190D01*
X25242571Y-50708380D01*
X25280666Y-50860761D01*
X25280666Y-50975047D01*
X25242571Y-51127428D01*
X25204476Y-51203619D01*
X25128285Y-51279809D01*
X25014000Y-51317904D01*
X24823523Y-51317904D01*
X25966380Y-50784571D02*
X25966380Y-51317904D01*
X25775904Y-50479809D02*
X25585428Y-51051238D01*
X26080666Y-51051238D01*
%TO.C,D1*%
X77845523Y-62969904D02*
X77845523Y-62169904D01*
X78036000Y-62169904D01*
X78150285Y-62208000D01*
X78226476Y-62284190D01*
X78264571Y-62360380D01*
X78302666Y-62512761D01*
X78302666Y-62627047D01*
X78264571Y-62779428D01*
X78226476Y-62855619D01*
X78150285Y-62931809D01*
X78036000Y-62969904D01*
X77845523Y-62969904D01*
X79064571Y-62969904D02*
X78607428Y-62969904D01*
X78836000Y-62969904D02*
X78836000Y-62169904D01*
X78759809Y-62284190D01*
X78683619Y-62360380D01*
X78607428Y-62398476D01*
%TO.C,C1*%
X18837000Y-74379285D02*
X18808428Y-74407857D01*
X18722714Y-74436428D01*
X18665571Y-74436428D01*
X18579857Y-74407857D01*
X18522714Y-74350714D01*
X18494142Y-74293571D01*
X18465571Y-74179285D01*
X18465571Y-74093571D01*
X18494142Y-73979285D01*
X18522714Y-73922142D01*
X18579857Y-73865000D01*
X18665571Y-73836428D01*
X18722714Y-73836428D01*
X18808428Y-73865000D01*
X18837000Y-73893571D01*
X19408428Y-74436428D02*
X19065571Y-74436428D01*
X19237000Y-74436428D02*
X19237000Y-73836428D01*
X19179857Y-73922142D01*
X19122714Y-73979285D01*
X19065571Y-74007857D01*
%TO.C,D4*%
X50191523Y-86591904D02*
X50191523Y-85791904D01*
X50382000Y-85791904D01*
X50496285Y-85830000D01*
X50572476Y-85906190D01*
X50610571Y-85982380D01*
X50648666Y-86134761D01*
X50648666Y-86249047D01*
X50610571Y-86401428D01*
X50572476Y-86477619D01*
X50496285Y-86553809D01*
X50382000Y-86591904D01*
X50191523Y-86591904D01*
X51334380Y-86058571D02*
X51334380Y-86591904D01*
X51143904Y-85753809D02*
X50953428Y-86325238D01*
X51448666Y-86325238D01*
%TO.C,U2*%
X76540476Y-78552904D02*
X76540476Y-79200523D01*
X76578571Y-79276714D01*
X76616666Y-79314809D01*
X76692857Y-79352904D01*
X76845238Y-79352904D01*
X76921428Y-79314809D01*
X76959523Y-79276714D01*
X76997619Y-79200523D01*
X76997619Y-78552904D01*
X77340476Y-78629095D02*
X77378571Y-78591000D01*
X77454761Y-78552904D01*
X77645238Y-78552904D01*
X77721428Y-78591000D01*
X77759523Y-78629095D01*
X77797619Y-78705285D01*
X77797619Y-78781476D01*
X77759523Y-78895761D01*
X77302380Y-79352904D01*
X77797619Y-79352904D01*
D13*
%TO.C,J2*%
X83830000Y-60128000D02*
X83830000Y-57468000D01*
X73610000Y-60128000D02*
X83830000Y-60128000D01*
X71010000Y-60128000D02*
X71010000Y-58798000D01*
X72340000Y-60128000D02*
X71010000Y-60128000D01*
X73610000Y-60128000D02*
X73610000Y-57468000D01*
X73610000Y-57468000D02*
X83830000Y-57468000D01*
%TO.C,C3*%
X33030100Y-65535848D02*
X33030100Y-66058352D01*
X31560100Y-65535848D02*
X31560100Y-66058352D01*
%TO.C,C4*%
X29887752Y-45087000D02*
X29365248Y-45087000D01*
X29887752Y-43617000D02*
X29365248Y-43617000D01*
%TO.C,C3*%
X31560100Y-30261848D02*
X31560100Y-30784352D01*
X33030100Y-30261848D02*
X33030100Y-30784352D01*
%TO.C,R1*%
X51787064Y-68604000D02*
X51332936Y-68604000D01*
X51787064Y-70074000D02*
X51332936Y-70074000D01*
%TO.C,C1*%
X19672000Y-38629748D02*
X19672000Y-39152252D01*
X18202000Y-38629748D02*
X18202000Y-39152252D01*
%TO.C,D1*%
X53992000Y-61608000D02*
X57892000Y-61608000D01*
X53992000Y-61608000D02*
X53992000Y-63608000D01*
X53992000Y-63608000D02*
X57892000Y-63608000D01*
%TO.C,J2*%
X58462000Y-60128000D02*
X58462000Y-57468000D01*
X45642000Y-60128000D02*
X45642000Y-58798000D01*
X46972000Y-60128000D02*
X45642000Y-60128000D01*
X48242000Y-60128000D02*
X48242000Y-57468000D01*
X48242000Y-57468000D02*
X58462000Y-57468000D01*
X48242000Y-60128000D02*
X58462000Y-60128000D01*
%TO.C,C1*%
X43570000Y-73903748D02*
X43570000Y-74426252D01*
X45040000Y-73903748D02*
X45040000Y-74426252D01*
%TO.C,D2*%
X20521600Y-61608000D02*
X20521600Y-63608000D01*
X20521600Y-63608000D02*
X24371600Y-63608000D01*
X20521600Y-61608000D02*
X24371600Y-61608000D01*
%TO.C,C5*%
X25083100Y-30261848D02*
X25083100Y-30784352D01*
X26553100Y-30261848D02*
X26553100Y-30784352D01*
X75819100Y-65535848D02*
X75819100Y-66058352D01*
X77289100Y-65535848D02*
X77289100Y-66058352D01*
%TO.C,C3*%
X58398100Y-65535848D02*
X58398100Y-66058352D01*
X56928100Y-65535848D02*
X56928100Y-66058352D01*
%TO.C,U1*%
X29071600Y-32043600D02*
X30746600Y-32043600D01*
X29071600Y-28923600D02*
X29721600Y-28923600D01*
X29071600Y-32043600D02*
X28421600Y-32043600D01*
X29071600Y-28923600D02*
X28421600Y-28923600D01*
%TO.C,U2*%
X26414000Y-71415000D02*
X28614000Y-71415000D01*
X26414000Y-78185000D02*
X28614000Y-78185000D01*
X26414000Y-71415000D02*
X22814000Y-71415000D01*
X26414000Y-78185000D02*
X24214000Y-78185000D01*
%TO.C,D2*%
X71257600Y-61608000D02*
X75107600Y-61608000D01*
X71257600Y-63608000D02*
X75107600Y-63608000D01*
X71257600Y-61608000D02*
X71257600Y-63608000D01*
%TO.C,C3*%
X56928100Y-30261848D02*
X56928100Y-30784352D01*
X58398100Y-30261848D02*
X58398100Y-30784352D01*
%TO.C,SW1*%
X27758000Y-51084000D02*
X28248000Y-51574000D01*
X27758000Y-48184000D02*
X28248000Y-47694000D01*
X31518000Y-52354000D02*
X29438000Y-52354000D01*
X33198000Y-51084000D02*
X32708000Y-51574000D01*
X31518000Y-46914000D02*
X29438000Y-46914000D01*
X27758000Y-51084000D02*
X27758000Y-48184000D01*
X33198000Y-48184000D02*
X32708000Y-47694000D01*
X33198000Y-51084000D02*
X33198000Y-48184000D01*
%TO.C,U1*%
X54439600Y-64197600D02*
X53789600Y-64197600D01*
X54439600Y-64197600D02*
X55089600Y-64197600D01*
X54439600Y-67317600D02*
X53789600Y-67317600D01*
X54439600Y-67317600D02*
X56114600Y-67317600D01*
%TO.C,C4*%
X29887752Y-78891000D02*
X29365248Y-78891000D01*
X29887752Y-80361000D02*
X29365248Y-80361000D01*
%TO.C,J2*%
X22874000Y-60128000D02*
X22874000Y-57468000D01*
X21604000Y-60128000D02*
X20274000Y-60128000D01*
X33094000Y-60128000D02*
X33094000Y-57468000D01*
X22874000Y-60128000D02*
X33094000Y-60128000D01*
X22874000Y-57468000D02*
X33094000Y-57468000D01*
X20274000Y-60128000D02*
X20274000Y-58798000D01*
X46972000Y-24854000D02*
X45642000Y-24854000D01*
X45642000Y-24854000D02*
X45642000Y-23524000D01*
X48242000Y-24854000D02*
X58462000Y-24854000D01*
X48242000Y-24854000D02*
X48242000Y-22194000D01*
X48242000Y-22194000D02*
X58462000Y-22194000D01*
X58462000Y-24854000D02*
X58462000Y-22194000D01*
%TO.C,R2*%
X22662936Y-48087400D02*
X23117064Y-48087400D01*
X22662936Y-49557400D02*
X23117064Y-49557400D01*
%TO.C,C4*%
X55255752Y-45087000D02*
X54733248Y-45087000D01*
X55255752Y-43617000D02*
X54733248Y-43617000D01*
%TO.C,C5*%
X50451100Y-65535848D02*
X50451100Y-66058352D01*
X51921100Y-65535848D02*
X51921100Y-66058352D01*
%TO.C,SW1*%
X33198000Y-86358000D02*
X33198000Y-83458000D01*
X27758000Y-83458000D02*
X28248000Y-82968000D01*
X33198000Y-83458000D02*
X32708000Y-82968000D01*
X27758000Y-86358000D02*
X27758000Y-83458000D01*
X27758000Y-86358000D02*
X28248000Y-86848000D01*
X31518000Y-87628000D02*
X29438000Y-87628000D01*
X33198000Y-86358000D02*
X32708000Y-86848000D01*
X31518000Y-82188000D02*
X29438000Y-82188000D01*
%TO.C,R2*%
X73398936Y-83361400D02*
X73853064Y-83361400D01*
X73398936Y-84831400D02*
X73853064Y-84831400D01*
%TO.C,C2*%
X45602000Y-38629748D02*
X45602000Y-39152252D01*
X47072000Y-38629748D02*
X47072000Y-39152252D01*
%TO.C,D3*%
X22699100Y-32395600D02*
X24619100Y-32395600D01*
X22699100Y-29535600D02*
X22699100Y-32395600D01*
X24619100Y-32395600D02*
X24619100Y-29535600D01*
%TO.C,JP1*%
X72271200Y-81958000D02*
X72271200Y-81358000D01*
X74371200Y-82658000D02*
X72971200Y-82658000D01*
X72971200Y-80658000D02*
X74371200Y-80658000D01*
X75071200Y-81358000D02*
X75071200Y-81958000D01*
X72271200Y-81958000D02*
G75*
G03*
X72971200Y-82658000I699999J-1D01*
G01*
X74371200Y-82658000D02*
G75*
G03*
X75071200Y-81958000I0J700000D01*
G01*
X75071200Y-81358000D02*
G75*
G03*
X74371200Y-80658000I-700000J0D01*
G01*
X72971200Y-80658000D02*
G75*
G03*
X72271200Y-81358000I-1J-699999D01*
G01*
%TO.C,U1*%
X79807600Y-64197600D02*
X79157600Y-64197600D01*
X79807600Y-64197600D02*
X80457600Y-64197600D01*
X79807600Y-67317600D02*
X79157600Y-67317600D01*
X79807600Y-67317600D02*
X81482600Y-67317600D01*
%TO.C,SW1*%
X56886000Y-52354000D02*
X54806000Y-52354000D01*
X53126000Y-48184000D02*
X53616000Y-47694000D01*
X58566000Y-51084000D02*
X58076000Y-51574000D01*
X53126000Y-51084000D02*
X53616000Y-51574000D01*
X58566000Y-51084000D02*
X58566000Y-48184000D01*
X53126000Y-51084000D02*
X53126000Y-48184000D01*
X56886000Y-46914000D02*
X54806000Y-46914000D01*
X58566000Y-48184000D02*
X58076000Y-47694000D01*
%TO.C,R1*%
X77155064Y-70074000D02*
X76700936Y-70074000D01*
X77155064Y-68604000D02*
X76700936Y-68604000D01*
%TO.C,U2*%
X51782000Y-78185000D02*
X53982000Y-78185000D01*
X51782000Y-71415000D02*
X48182000Y-71415000D01*
X51782000Y-71415000D02*
X53982000Y-71415000D01*
X51782000Y-78185000D02*
X49582000Y-78185000D01*
X26414000Y-42911000D02*
X28614000Y-42911000D01*
X26414000Y-42911000D02*
X24214000Y-42911000D01*
X26414000Y-36141000D02*
X22814000Y-36141000D01*
X26414000Y-36141000D02*
X28614000Y-36141000D01*
%TO.C,R2*%
X22662936Y-84831400D02*
X23117064Y-84831400D01*
X22662936Y-83361400D02*
X23117064Y-83361400D01*
%TO.C,C4*%
X80623752Y-78891000D02*
X80101248Y-78891000D01*
X80623752Y-80361000D02*
X80101248Y-80361000D01*
%TO.C,R2*%
X48030936Y-83361400D02*
X48485064Y-83361400D01*
X48030936Y-84831400D02*
X48485064Y-84831400D01*
%TO.C,U2*%
X51782000Y-36141000D02*
X53982000Y-36141000D01*
X51782000Y-42911000D02*
X49582000Y-42911000D01*
X51782000Y-36141000D02*
X48182000Y-36141000D01*
X51782000Y-42911000D02*
X53982000Y-42911000D01*
%TO.C,JP1*%
X22235200Y-80658000D02*
X23635200Y-80658000D01*
X21535200Y-81958000D02*
X21535200Y-81358000D01*
X24335200Y-81358000D02*
X24335200Y-81958000D01*
X23635200Y-82658000D02*
X22235200Y-82658000D01*
X21535200Y-81958000D02*
G75*
G03*
X22235200Y-82658000I699999J-1D01*
G01*
X24335200Y-81358000D02*
G75*
G03*
X23635200Y-80658000I-700000J0D01*
G01*
X22235200Y-80658000D02*
G75*
G03*
X21535200Y-81358000I-1J-699999D01*
G01*
X23635200Y-82658000D02*
G75*
G03*
X24335200Y-81958000I0J700000D01*
G01*
%TO.C,D1*%
X28624000Y-26334000D02*
X32524000Y-26334000D01*
X28624000Y-28334000D02*
X32524000Y-28334000D01*
X28624000Y-26334000D02*
X28624000Y-28334000D01*
%TO.C,SW1*%
X83934000Y-83458000D02*
X83444000Y-82968000D01*
X78494000Y-86358000D02*
X78494000Y-83458000D01*
X83934000Y-86358000D02*
X83444000Y-86848000D01*
X78494000Y-86358000D02*
X78984000Y-86848000D01*
X82254000Y-87628000D02*
X80174000Y-87628000D01*
X82254000Y-82188000D02*
X80174000Y-82188000D01*
X78494000Y-83458000D02*
X78984000Y-82968000D01*
X83934000Y-86358000D02*
X83934000Y-83458000D01*
%TO.C,D2*%
X20521600Y-28334000D02*
X24371600Y-28334000D01*
X20521600Y-26334000D02*
X20521600Y-28334000D01*
X20521600Y-26334000D02*
X24371600Y-26334000D01*
%TO.C,JP1*%
X24335200Y-46084000D02*
X24335200Y-46684000D01*
X23635200Y-47384000D02*
X22235200Y-47384000D01*
X21535200Y-46684000D02*
X21535200Y-46084000D01*
X22235200Y-45384000D02*
X23635200Y-45384000D01*
X21535200Y-46684000D02*
G75*
G03*
X22235200Y-47384000I699999J-1D01*
G01*
X23635200Y-47384000D02*
G75*
G03*
X24335200Y-46684000I0J700000D01*
G01*
X22235200Y-45384000D02*
G75*
G03*
X21535200Y-46084000I-1J-699999D01*
G01*
X24335200Y-46084000D02*
G75*
G03*
X23635200Y-45384000I-700000J0D01*
G01*
%TO.C,R1*%
X26419064Y-33330000D02*
X25964936Y-33330000D01*
X26419064Y-34800000D02*
X25964936Y-34800000D01*
%TO.C,D4*%
X23849000Y-85270000D02*
X20989000Y-85270000D01*
X20989000Y-87190000D02*
X23849000Y-87190000D01*
X20989000Y-85270000D02*
X20989000Y-87190000D01*
%TO.C,C4*%
X55255752Y-78891000D02*
X54733248Y-78891000D01*
X55255752Y-80361000D02*
X54733248Y-80361000D01*
%TO.C,C3*%
X83766100Y-65535848D02*
X83766100Y-66058352D01*
X82296100Y-65535848D02*
X82296100Y-66058352D01*
%TO.C,C2*%
X45602000Y-73903748D02*
X45602000Y-74426252D01*
X47072000Y-73903748D02*
X47072000Y-74426252D01*
%TO.C,D1*%
X28624000Y-61608000D02*
X28624000Y-63608000D01*
X28624000Y-61608000D02*
X32524000Y-61608000D01*
X28624000Y-63608000D02*
X32524000Y-63608000D01*
%TO.C,C1*%
X45040000Y-38629748D02*
X45040000Y-39152252D01*
X43570000Y-38629748D02*
X43570000Y-39152252D01*
%TO.C,D3*%
X22699100Y-67669600D02*
X24619100Y-67669600D01*
X24619100Y-67669600D02*
X24619100Y-64809600D01*
X22699100Y-64809600D02*
X22699100Y-67669600D01*
%TO.C,U1*%
X54439600Y-28923600D02*
X55089600Y-28923600D01*
X54439600Y-32043600D02*
X56114600Y-32043600D01*
X54439600Y-32043600D02*
X53789600Y-32043600D01*
X54439600Y-28923600D02*
X53789600Y-28923600D01*
%TO.C,D4*%
X49217000Y-49996000D02*
X46357000Y-49996000D01*
X46357000Y-51916000D02*
X49217000Y-51916000D01*
X46357000Y-49996000D02*
X46357000Y-51916000D01*
%TO.C,JP1*%
X47603200Y-80658000D02*
X49003200Y-80658000D01*
X46903200Y-81958000D02*
X46903200Y-81358000D01*
X49703200Y-81358000D02*
X49703200Y-81958000D01*
X49003200Y-82658000D02*
X47603200Y-82658000D01*
X49703200Y-81358000D02*
G75*
G03*
X49003200Y-80658000I-700000J0D01*
G01*
X49003200Y-82658000D02*
G75*
G03*
X49703200Y-81958000I0J700000D01*
G01*
X46903200Y-81958000D02*
G75*
G03*
X47603200Y-82658000I699999J-1D01*
G01*
X47603200Y-80658000D02*
G75*
G03*
X46903200Y-81358000I-1J-699999D01*
G01*
%TO.C,C2*%
X20234000Y-73903748D02*
X20234000Y-74426252D01*
X21704000Y-73903748D02*
X21704000Y-74426252D01*
%TO.C,D3*%
X48067100Y-67669600D02*
X49987100Y-67669600D01*
X48067100Y-64809600D02*
X48067100Y-67669600D01*
X49987100Y-67669600D02*
X49987100Y-64809600D01*
%TO.C,C5*%
X51921100Y-30261848D02*
X51921100Y-30784352D01*
X50451100Y-30261848D02*
X50451100Y-30784352D01*
%TO.C,D2*%
X45889600Y-61608000D02*
X49739600Y-61608000D01*
X45889600Y-61608000D02*
X45889600Y-63608000D01*
X45889600Y-63608000D02*
X49739600Y-63608000D01*
%TO.C,D3*%
X73435100Y-67669600D02*
X75355100Y-67669600D01*
X73435100Y-64809600D02*
X73435100Y-67669600D01*
X75355100Y-67669600D02*
X75355100Y-64809600D01*
%TO.C,SW1*%
X58566000Y-83458000D02*
X58076000Y-82968000D01*
X53126000Y-86358000D02*
X53126000Y-83458000D01*
X53126000Y-86358000D02*
X53616000Y-86848000D01*
X58566000Y-86358000D02*
X58076000Y-86848000D01*
X53126000Y-83458000D02*
X53616000Y-82968000D01*
X56886000Y-87628000D02*
X54806000Y-87628000D01*
X56886000Y-82188000D02*
X54806000Y-82188000D01*
X58566000Y-86358000D02*
X58566000Y-83458000D01*
%TO.C,D2*%
X45889600Y-26334000D02*
X45889600Y-28334000D01*
X45889600Y-26334000D02*
X49739600Y-26334000D01*
X45889600Y-28334000D02*
X49739600Y-28334000D01*
%TO.C,C2*%
X21704000Y-38629748D02*
X21704000Y-39152252D01*
X20234000Y-38629748D02*
X20234000Y-39152252D01*
%TO.C,J2*%
X33094000Y-24854000D02*
X33094000Y-22194000D01*
X22874000Y-22194000D02*
X33094000Y-22194000D01*
X20274000Y-24854000D02*
X20274000Y-23524000D01*
X22874000Y-24854000D02*
X22874000Y-22194000D01*
X21604000Y-24854000D02*
X20274000Y-24854000D01*
X22874000Y-24854000D02*
X33094000Y-24854000D01*
%TO.C,C5*%
X25083100Y-65535848D02*
X25083100Y-66058352D01*
X26553100Y-65535848D02*
X26553100Y-66058352D01*
%TO.C,R1*%
X26419064Y-68604000D02*
X25964936Y-68604000D01*
X26419064Y-70074000D02*
X25964936Y-70074000D01*
%TO.C,D1*%
X53992000Y-26334000D02*
X57892000Y-26334000D01*
X53992000Y-28334000D02*
X57892000Y-28334000D01*
X53992000Y-26334000D02*
X53992000Y-28334000D01*
%TO.C,C2*%
X70970000Y-73903748D02*
X70970000Y-74426252D01*
X72440000Y-73903748D02*
X72440000Y-74426252D01*
%TO.C,JP1*%
X47603200Y-45384000D02*
X49003200Y-45384000D01*
X46903200Y-46684000D02*
X46903200Y-46084000D01*
X49703200Y-46084000D02*
X49703200Y-46684000D01*
X49003200Y-47384000D02*
X47603200Y-47384000D01*
X49703200Y-46084000D02*
G75*
G03*
X49003200Y-45384000I-700000J0D01*
G01*
X49003200Y-47384000D02*
G75*
G03*
X49703200Y-46684000I0J700000D01*
G01*
X46903200Y-46684000D02*
G75*
G03*
X47603200Y-47384000I699999J-1D01*
G01*
X47603200Y-45384000D02*
G75*
G03*
X46903200Y-46084000I-1J-699999D01*
G01*
%TO.C,R1*%
X51787064Y-34800000D02*
X51332936Y-34800000D01*
X51787064Y-33330000D02*
X51332936Y-33330000D01*
%TO.C,C1*%
X68938000Y-73903748D02*
X68938000Y-74426252D01*
X70408000Y-73903748D02*
X70408000Y-74426252D01*
%TO.C,R2*%
X48030936Y-49557400D02*
X48485064Y-49557400D01*
X48030936Y-48087400D02*
X48485064Y-48087400D01*
%TO.C,D3*%
X48067100Y-29535600D02*
X48067100Y-32395600D01*
X48067100Y-32395600D02*
X49987100Y-32395600D01*
X49987100Y-32395600D02*
X49987100Y-29535600D01*
%TO.C,D4*%
X71725000Y-87190000D02*
X74585000Y-87190000D01*
X74585000Y-85270000D02*
X71725000Y-85270000D01*
X71725000Y-85270000D02*
X71725000Y-87190000D01*
%TO.C,U1*%
X29071600Y-64197600D02*
X28421600Y-64197600D01*
X29071600Y-64197600D02*
X29721600Y-64197600D01*
X29071600Y-67317600D02*
X28421600Y-67317600D01*
X29071600Y-67317600D02*
X30746600Y-67317600D01*
%TO.C,D4*%
X23849000Y-49996000D02*
X20989000Y-49996000D01*
X20989000Y-51916000D02*
X23849000Y-51916000D01*
X20989000Y-49996000D02*
X20989000Y-51916000D01*
%TO.C,D1*%
X79360000Y-61608000D02*
X79360000Y-63608000D01*
X79360000Y-63608000D02*
X83260000Y-63608000D01*
X79360000Y-61608000D02*
X83260000Y-61608000D01*
%TO.C,C1*%
X19672000Y-73903748D02*
X19672000Y-74426252D01*
X18202000Y-73903748D02*
X18202000Y-74426252D01*
%TO.C,D4*%
X46357000Y-87190000D02*
X49217000Y-87190000D01*
X46357000Y-85270000D02*
X46357000Y-87190000D01*
X49217000Y-85270000D02*
X46357000Y-85270000D01*
%TO.C,U2*%
X77150000Y-71415000D02*
X79350000Y-71415000D01*
X77150000Y-78185000D02*
X74950000Y-78185000D01*
X77150000Y-78185000D02*
X79350000Y-78185000D01*
X77150000Y-71415000D02*
X73550000Y-71415000D01*
%TD*%
M02*
