%TF.GenerationSoftware,KiCad,Pcbnew,(6.0.8)*%
%TF.CreationDate,2022-11-08T11:05:07+01:00*%
%TF.ProjectId,STM32G030F6P6,53544d33-3247-4303-9330-463650362e6b,2.0*%
%TF.SameCoordinates,Original*%
%TF.FileFunction,Paste,Top*%
%TF.FilePolarity,Positive*%
%FSLAX46Y46*%
G04 Gerber Fmt 4.6, Leading zero omitted, Abs format (unit mm)*
G04 Created by KiCad (PCBNEW (6.0.8)) date 2022-11-08 11:05:07*
%MOMM*%
%LPD*%
G01*
G04 APERTURE LIST*
G04 Aperture macros list*
%AMRoundRect*
0 Rectangle with rounded corners*
0 $1 Rounding radius*
0 $2 $3 $4 $5 $6 $7 $8 $9 X,Y pos of 4 corners*
0 Add a 4 corners polygon primitive as box body*
4,1,4,$2,$3,$4,$5,$6,$7,$8,$9,$2,$3,0*
0 Add four circle primitives for the rounded corners*
1,1,$1+$1,$2,$3*
1,1,$1+$1,$4,$5*
1,1,$1+$1,$6,$7*
1,1,$1+$1,$8,$9*
0 Add four rect primitives between the rounded corners*
20,1,$1+$1,$2,$3,$4,$5,0*
20,1,$1+$1,$4,$5,$6,$7,0*
20,1,$1+$1,$6,$7,$8,$9,0*
20,1,$1+$1,$8,$9,$2,$3,0*%
G04 Aperture macros list end*
%ADD10RoundRect,0.250000X-0.475000X0.337500X-0.475000X-0.337500X0.475000X-0.337500X0.475000X0.337500X0*%
%ADD11RoundRect,0.250000X0.337500X0.475000X-0.337500X0.475000X-0.337500X-0.475000X0.337500X-0.475000X0*%
%ADD12RoundRect,0.250000X0.350000X0.450000X-0.350000X0.450000X-0.350000X-0.450000X0.350000X-0.450000X0*%
%ADD13R,0.900000X1.200000*%
%ADD14R,1.100000X1.100000*%
%ADD15RoundRect,0.150000X0.587500X0.150000X-0.587500X0.150000X-0.587500X-0.150000X0.587500X-0.150000X0*%
%ADD16RoundRect,0.100000X-0.637500X-0.100000X0.637500X-0.100000X0.637500X0.100000X-0.637500X0.100000X0*%
%ADD17R,1.100000X1.800000*%
%ADD18RoundRect,0.250000X-0.350000X-0.450000X0.350000X-0.450000X0.350000X0.450000X-0.350000X0.450000X0*%
%ADD19RoundRect,0.250000X0.450000X-0.325000X0.450000X0.325000X-0.450000X0.325000X-0.450000X-0.325000X0*%
%ADD20RoundRect,0.250000X-0.325000X-0.450000X0.325000X-0.450000X0.325000X0.450000X-0.325000X0.450000X0*%
G04 APERTURE END LIST*
D10*
%TO.C,C3*%
X32295100Y-64759600D03*
X32295100Y-66834600D03*
%TD*%
D11*
%TO.C,C4*%
X30664000Y-44352000D03*
X28589000Y-44352000D03*
%TD*%
D10*
%TO.C,C3*%
X32295100Y-29485600D03*
X32295100Y-31560600D03*
%TD*%
D12*
%TO.C,R1*%
X52560000Y-69339000D03*
X50560000Y-69339000D03*
%TD*%
D10*
%TO.C,C1*%
X18937000Y-37853500D03*
X18937000Y-39928500D03*
%TD*%
D13*
%TO.C,D1*%
X54592000Y-62608000D03*
X57892000Y-62608000D03*
%TD*%
D10*
%TO.C,C1*%
X44305000Y-73127500D03*
X44305000Y-75202500D03*
%TD*%
D14*
%TO.C,D2*%
X21321600Y-62608000D03*
X24121600Y-62608000D03*
%TD*%
D10*
%TO.C,C5*%
X25818100Y-29485600D03*
X25818100Y-31560600D03*
%TD*%
%TO.C,C5*%
X76554100Y-64759600D03*
X76554100Y-66834600D03*
%TD*%
%TO.C,C3*%
X57663100Y-64759600D03*
X57663100Y-66834600D03*
%TD*%
D15*
%TO.C,U1*%
X30009100Y-31433600D03*
X30009100Y-29533600D03*
X28134100Y-30483600D03*
%TD*%
D16*
%TO.C,U2*%
X23551500Y-71875000D03*
X23551500Y-72525000D03*
X23551500Y-73175000D03*
X23551500Y-73825000D03*
X23551500Y-74475000D03*
X23551500Y-75125000D03*
X23551500Y-75775000D03*
X23551500Y-76425000D03*
X23551500Y-77075000D03*
X23551500Y-77725000D03*
X29276500Y-77725000D03*
X29276500Y-77075000D03*
X29276500Y-76425000D03*
X29276500Y-75775000D03*
X29276500Y-75125000D03*
X29276500Y-74475000D03*
X29276500Y-73825000D03*
X29276500Y-73175000D03*
X29276500Y-72525000D03*
X29276500Y-71875000D03*
%TD*%
D14*
%TO.C,D2*%
X72057600Y-62608000D03*
X74857600Y-62608000D03*
%TD*%
D10*
%TO.C,C3*%
X57663100Y-29485600D03*
X57663100Y-31560600D03*
%TD*%
D17*
%TO.C,SW1*%
X28628000Y-46534000D03*
X28628000Y-52734000D03*
X32328000Y-46534000D03*
X32328000Y-52734000D03*
%TD*%
D15*
%TO.C,U1*%
X55377100Y-66707600D03*
X55377100Y-64807600D03*
X53502100Y-65757600D03*
%TD*%
D11*
%TO.C,C4*%
X30664000Y-79626000D03*
X28589000Y-79626000D03*
%TD*%
D18*
%TO.C,R2*%
X21890000Y-48822400D03*
X23890000Y-48822400D03*
%TD*%
D11*
%TO.C,C4*%
X56032000Y-44352000D03*
X53957000Y-44352000D03*
%TD*%
D10*
%TO.C,C5*%
X51186100Y-64759600D03*
X51186100Y-66834600D03*
%TD*%
D17*
%TO.C,SW1*%
X28628000Y-81808000D03*
X28628000Y-88008000D03*
X32328000Y-81808000D03*
X32328000Y-88008000D03*
%TD*%
D18*
%TO.C,R2*%
X72626000Y-84096400D03*
X74626000Y-84096400D03*
%TD*%
D10*
%TO.C,C2*%
X46337000Y-37853500D03*
X46337000Y-39928500D03*
%TD*%
D19*
%TO.C,D3*%
X23659100Y-31560600D03*
X23659100Y-29510600D03*
%TD*%
D15*
%TO.C,U1*%
X80745100Y-66707600D03*
X80745100Y-64807600D03*
X78870100Y-65757600D03*
%TD*%
D17*
%TO.C,SW1*%
X53996000Y-46534000D03*
X53996000Y-52734000D03*
X57696000Y-46534000D03*
X57696000Y-52734000D03*
%TD*%
D12*
%TO.C,R1*%
X77928000Y-69339000D03*
X75928000Y-69339000D03*
%TD*%
D16*
%TO.C,U2*%
X48919500Y-71875000D03*
X48919500Y-72525000D03*
X48919500Y-73175000D03*
X48919500Y-73825000D03*
X48919500Y-74475000D03*
X48919500Y-75125000D03*
X48919500Y-75775000D03*
X48919500Y-76425000D03*
X48919500Y-77075000D03*
X48919500Y-77725000D03*
X54644500Y-77725000D03*
X54644500Y-77075000D03*
X54644500Y-76425000D03*
X54644500Y-75775000D03*
X54644500Y-75125000D03*
X54644500Y-74475000D03*
X54644500Y-73825000D03*
X54644500Y-73175000D03*
X54644500Y-72525000D03*
X54644500Y-71875000D03*
%TD*%
%TO.C,U2*%
X23551500Y-36601000D03*
X23551500Y-37251000D03*
X23551500Y-37901000D03*
X23551500Y-38551000D03*
X23551500Y-39201000D03*
X23551500Y-39851000D03*
X23551500Y-40501000D03*
X23551500Y-41151000D03*
X23551500Y-41801000D03*
X23551500Y-42451000D03*
X29276500Y-42451000D03*
X29276500Y-41801000D03*
X29276500Y-41151000D03*
X29276500Y-40501000D03*
X29276500Y-39851000D03*
X29276500Y-39201000D03*
X29276500Y-38551000D03*
X29276500Y-37901000D03*
X29276500Y-37251000D03*
X29276500Y-36601000D03*
%TD*%
D18*
%TO.C,R2*%
X21890000Y-84096400D03*
X23890000Y-84096400D03*
%TD*%
D11*
%TO.C,C4*%
X81400000Y-79626000D03*
X79325000Y-79626000D03*
%TD*%
D18*
%TO.C,R2*%
X47258000Y-84096400D03*
X49258000Y-84096400D03*
%TD*%
D16*
%TO.C,U2*%
X48919500Y-36601000D03*
X48919500Y-37251000D03*
X48919500Y-37901000D03*
X48919500Y-38551000D03*
X48919500Y-39201000D03*
X48919500Y-39851000D03*
X48919500Y-40501000D03*
X48919500Y-41151000D03*
X48919500Y-41801000D03*
X48919500Y-42451000D03*
X54644500Y-42451000D03*
X54644500Y-41801000D03*
X54644500Y-41151000D03*
X54644500Y-40501000D03*
X54644500Y-39851000D03*
X54644500Y-39201000D03*
X54644500Y-38551000D03*
X54644500Y-37901000D03*
X54644500Y-37251000D03*
X54644500Y-36601000D03*
%TD*%
D13*
%TO.C,D1*%
X29224000Y-27334000D03*
X32524000Y-27334000D03*
%TD*%
D17*
%TO.C,SW1*%
X79364000Y-81808000D03*
X79364000Y-88008000D03*
X83064000Y-88008000D03*
X83064000Y-81808000D03*
%TD*%
D14*
%TO.C,D2*%
X21321600Y-27334000D03*
X24121600Y-27334000D03*
%TD*%
D12*
%TO.C,R1*%
X27192000Y-34065000D03*
X25192000Y-34065000D03*
%TD*%
D20*
%TO.C,D4*%
X21824000Y-86230000D03*
X23874000Y-86230000D03*
%TD*%
D11*
%TO.C,C4*%
X56032000Y-79626000D03*
X53957000Y-79626000D03*
%TD*%
D10*
%TO.C,C3*%
X83031100Y-64759600D03*
X83031100Y-66834600D03*
%TD*%
%TO.C,C2*%
X46337000Y-73127500D03*
X46337000Y-75202500D03*
%TD*%
D13*
%TO.C,D1*%
X29224000Y-62608000D03*
X32524000Y-62608000D03*
%TD*%
D10*
%TO.C,C1*%
X44305000Y-37853500D03*
X44305000Y-39928500D03*
%TD*%
D19*
%TO.C,D3*%
X23659100Y-66834600D03*
X23659100Y-64784600D03*
%TD*%
D15*
%TO.C,U1*%
X55377100Y-31433600D03*
X55377100Y-29533600D03*
X53502100Y-30483600D03*
%TD*%
D20*
%TO.C,D4*%
X47192000Y-50956000D03*
X49242000Y-50956000D03*
%TD*%
D10*
%TO.C,C2*%
X20969000Y-73127500D03*
X20969000Y-75202500D03*
%TD*%
D19*
%TO.C,D3*%
X49027100Y-66834600D03*
X49027100Y-64784600D03*
%TD*%
D10*
%TO.C,C5*%
X51186100Y-29485600D03*
X51186100Y-31560600D03*
%TD*%
D14*
%TO.C,D2*%
X46689600Y-62608000D03*
X49489600Y-62608000D03*
%TD*%
D19*
%TO.C,D3*%
X74395100Y-66834600D03*
X74395100Y-64784600D03*
%TD*%
D17*
%TO.C,SW1*%
X53996000Y-81808000D03*
X53996000Y-88008000D03*
X57696000Y-88008000D03*
X57696000Y-81808000D03*
%TD*%
D14*
%TO.C,D2*%
X46689600Y-27334000D03*
X49489600Y-27334000D03*
%TD*%
D10*
%TO.C,C2*%
X20969000Y-37853500D03*
X20969000Y-39928500D03*
%TD*%
%TO.C,C5*%
X25818100Y-64759600D03*
X25818100Y-66834600D03*
%TD*%
D12*
%TO.C,R1*%
X27192000Y-69339000D03*
X25192000Y-69339000D03*
%TD*%
D13*
%TO.C,D1*%
X54592000Y-27334000D03*
X57892000Y-27334000D03*
%TD*%
D10*
%TO.C,C2*%
X71705000Y-73127500D03*
X71705000Y-75202500D03*
%TD*%
D12*
%TO.C,R1*%
X52560000Y-34065000D03*
X50560000Y-34065000D03*
%TD*%
D10*
%TO.C,C1*%
X69673000Y-73127500D03*
X69673000Y-75202500D03*
%TD*%
D18*
%TO.C,R2*%
X47258000Y-48822400D03*
X49258000Y-48822400D03*
%TD*%
D19*
%TO.C,D3*%
X49027100Y-31560600D03*
X49027100Y-29510600D03*
%TD*%
D20*
%TO.C,D4*%
X72560000Y-86230000D03*
X74610000Y-86230000D03*
%TD*%
D15*
%TO.C,U1*%
X30009100Y-66707600D03*
X30009100Y-64807600D03*
X28134100Y-65757600D03*
%TD*%
D20*
%TO.C,D4*%
X21824000Y-50956000D03*
X23874000Y-50956000D03*
%TD*%
D13*
%TO.C,D1*%
X79960000Y-62608000D03*
X83260000Y-62608000D03*
%TD*%
D10*
%TO.C,C1*%
X18937000Y-73127500D03*
X18937000Y-75202500D03*
%TD*%
D20*
%TO.C,D4*%
X47192000Y-86230000D03*
X49242000Y-86230000D03*
%TD*%
D16*
%TO.C,U2*%
X74287500Y-71875000D03*
X74287500Y-72525000D03*
X74287500Y-73175000D03*
X74287500Y-73825000D03*
X74287500Y-74475000D03*
X74287500Y-75125000D03*
X74287500Y-75775000D03*
X74287500Y-76425000D03*
X74287500Y-77075000D03*
X74287500Y-77725000D03*
X80012500Y-77725000D03*
X80012500Y-77075000D03*
X80012500Y-76425000D03*
X80012500Y-75775000D03*
X80012500Y-75125000D03*
X80012500Y-74475000D03*
X80012500Y-73825000D03*
X80012500Y-73175000D03*
X80012500Y-72525000D03*
X80012500Y-71875000D03*
%TD*%
M02*
