M48
; DRILL file {KiCad (6.0.8)} date Tue Mar 28 10:40:51 2023
; FORMAT={-:-/ absolute / inch / decimal}
; #@! TF.CreationDate,2023-03-28T10:40:51+02:00
; #@! TF.GenerationSoftware,Kicad,Pcbnew,(6.0.8)
; #@! TF.FileFunction,Plated,1,2,PTH
FMAT,2
INCH
; #@! TA.AperFunction,Plated,PTH,ViaDrill
T1C0.0079
; #@! TA.AperFunction,Plated,PTH,ComponentDrill
T2C0.0236
; #@! TA.AperFunction,Plated,PTH,ComponentDrill
T3C0.0394
%
G90
G05
T1
X4.412Y-3.1517
X4.412Y-4.8505
X4.416Y-2.7297
X4.416Y-4.4285
X4.464Y-2.1547
X4.464Y-2.3897
X4.464Y-3.8535
X4.464Y-4.0885
X4.494Y-3.6147
X4.494Y-5.3135
X4.5135Y-3.0007
X4.5135Y-4.6995
X4.5248Y-2.8485
X4.5248Y-4.5472
X4.532Y-3.4557
X4.532Y-5.1545
X4.5344Y-2.9577
X4.5344Y-4.6565
X4.5778Y-3.0915
X4.5778Y-4.7902
X4.578Y-2.7237
X4.578Y-3.2257
X4.578Y-4.4225
X4.578Y-4.9245
X4.58Y-2.5357
X4.58Y-4.2345
X4.584Y-3.3517
X4.584Y-3.4557
X4.584Y-5.0505
X4.584Y-5.1545
X4.598Y-2.6577
X4.598Y-4.3565
X4.612Y-3.0697
X4.612Y-4.7685
X4.616Y-3.3447
X4.616Y-5.0435
X4.6614Y-3.0204
X4.6614Y-4.7191
X4.664Y-3.1057
X4.664Y-4.8045
X4.67Y-2.7237
X4.67Y-4.4225
X4.678Y-2.6717
X4.678Y-4.3705
X4.7Y-2.5577
X4.7Y-4.2565
X4.7058Y-3.0023
X4.7058Y-4.7011
X4.728Y-3.029
X4.728Y-4.7278
X4.745Y-2.2901
X4.745Y-3.9888
X4.752Y-2.4537
X4.752Y-4.1525
X4.762Y-3.4404
X4.762Y-5.1391
X4.762Y-3.3337
X4.762Y-5.0325
X4.764Y-2.4997
X4.764Y-3.1057
X4.764Y-4.1985
X4.764Y-4.8045
X4.804Y-2.3897
X4.804Y-4.0885
X4.8045Y-2.9748
X4.8045Y-4.6735
X4.81Y-3.029
X4.81Y-4.7278
X4.814Y-3.5277
X4.814Y-5.2265
X4.819Y-2.1297
X4.819Y-3.8285
X4.8224Y-2.9495
X4.8224Y-4.6483
X4.824Y-2.2847
X4.824Y-3.9835
X4.832Y-2.7697
X4.832Y-4.4685
X4.8476Y-2.6351
X4.8476Y-4.3339
X4.863Y-2.2899
X4.863Y-3.9886
X4.864Y-2.9437
X4.864Y-3.1057
X4.864Y-4.6425
X4.864Y-4.8045
X4.872Y-2.4397
X4.872Y-4.1385
X4.888Y-2.8197
X4.888Y-4.5185
X4.9234Y-2.9492
X4.9234Y-4.648
X4.94Y-2.6917
X4.94Y-4.3905
X4.964Y-3.1057
X4.964Y-4.8045
X4.98Y-3.3997
X4.98Y-5.0985
X5.0118Y-3.4697
X5.0118Y-5.1685
X5.0119Y-3.3344
X5.0119Y-5.0332
X5.036Y-3.1237
X5.036Y-4.8225
X5.059Y-3.1477
X5.059Y-4.8465
X5.0832Y-3.4397
X5.0832Y-5.1385
X5.094Y-3.6697
X5.094Y-5.3685
X5.104Y-2.7347
X5.104Y-4.4335
X5.164Y-2.1497
X5.164Y-2.3097
X5.164Y-3.8485
X5.164Y-4.0085
X5.204Y-3.5747
X5.204Y-5.2735
X5.209Y-3.1297
X5.209Y-4.8285
X5.3508Y-3.1517
X5.3508Y-4.8505
X5.3548Y-2.7297
X5.3548Y-4.4285
X5.4028Y-2.1547
X5.4028Y-2.3897
X5.4028Y-3.8535
X5.4028Y-4.0885
X5.4328Y-3.6147
X5.4328Y-5.3135
X5.4523Y-3.0007
X5.4523Y-4.6995
X5.4635Y-2.8485
X5.4635Y-4.5472
X5.4708Y-3.4557
X5.4708Y-5.1545
X5.4731Y-2.9577
X5.4731Y-4.6565
X5.5165Y-3.0915
X5.5165Y-4.7902
X5.5168Y-2.7237
X5.5168Y-3.2257
X5.5168Y-4.4225
X5.5168Y-4.9245
X5.5188Y-2.5357
X5.5188Y-4.2345
X5.5228Y-3.3517
X5.5228Y-3.4557
X5.5228Y-5.0505
X5.5228Y-5.1545
X5.5368Y-2.6577
X5.5368Y-4.3565
X5.5508Y-3.0697
X5.5508Y-4.7685
X5.5548Y-3.3447
X5.5548Y-5.0435
X5.6001Y-3.0204
X5.6001Y-4.7191
X5.6028Y-3.1057
X5.6028Y-4.8045
X5.6088Y-2.7237
X5.6088Y-4.4225
X5.6168Y-2.6717
X5.6168Y-4.3705
X5.6388Y-2.5577
X5.6388Y-4.2565
X5.6446Y-3.0023
X5.6446Y-4.7011
X5.6668Y-3.029
X5.6668Y-4.7278
X5.6838Y-2.2901
X5.6838Y-3.9888
X5.6908Y-2.4537
X5.6908Y-4.1525
X5.7007Y-3.4404
X5.7007Y-5.1391
X5.7008Y-3.3337
X5.7008Y-5.0325
X5.7028Y-2.4997
X5.7028Y-3.1057
X5.7028Y-4.1985
X5.7028Y-4.8045
X5.7428Y-2.3897
X5.7428Y-4.0885
X5.7432Y-2.9748
X5.7432Y-4.6735
X5.7488Y-3.029
X5.7488Y-4.7278
X5.7528Y-3.5277
X5.7528Y-5.2265
X5.7578Y-2.1297
X5.7578Y-3.8285
X5.7611Y-2.9495
X5.7611Y-4.6483
X5.7628Y-2.2847
X5.7628Y-3.9835
X5.7708Y-2.7697
X5.7708Y-4.4685
X5.7864Y-2.6351
X5.7864Y-4.3339
X5.8017Y-2.2899
X5.8017Y-3.9886
X5.8028Y-2.9437
X5.8028Y-3.1057
X5.8028Y-4.6425
X5.8028Y-4.8045
X5.8108Y-2.4397
X5.8108Y-4.1385
X5.8268Y-2.8197
X5.8268Y-4.5185
X5.8621Y-2.9492
X5.8621Y-4.648
X5.8788Y-2.6917
X5.8788Y-4.3905
X5.9028Y-3.1057
X5.9028Y-4.8045
X5.9188Y-3.3997
X5.9188Y-5.0985
X5.9506Y-3.4697
X5.9506Y-5.1685
X5.9506Y-3.3344
X5.9506Y-5.0332
X5.9748Y-3.1237
X5.9748Y-4.8225
X5.9978Y-3.1477
X5.9978Y-4.8465
X6.0219Y-3.4397
X6.0219Y-5.1385
X6.0328Y-3.6697
X6.0328Y-5.3685
X6.0428Y-2.7347
X6.0428Y-4.4335
X6.1028Y-2.1497
X6.1028Y-2.3097
X6.1028Y-3.8485
X6.1028Y-4.0085
X6.1428Y-3.5747
X6.1428Y-5.2735
X6.1478Y-3.1297
X6.1478Y-4.8285
X6.2895Y-4.8505
X6.2935Y-4.4285
X6.3415Y-3.8535
X6.3415Y-4.0885
X6.3715Y-5.3135
X6.391Y-4.6995
X6.4022Y-4.5472
X6.4095Y-5.1545
X6.4119Y-4.6565
X6.4552Y-4.7902
X6.4555Y-4.4225
X6.4555Y-4.9245
X6.4575Y-4.2345
X6.4615Y-5.0505
X6.4615Y-5.1545
X6.4755Y-4.3565
X6.4895Y-4.7685
X6.4935Y-5.0435
X6.5388Y-4.7191
X6.5415Y-4.8045
X6.5475Y-4.4225
X6.5555Y-4.3705
X6.5775Y-4.2565
X6.5833Y-4.7011
X6.6055Y-4.7278
X6.6225Y-3.9888
X6.6295Y-4.1525
X6.6395Y-5.1391
X6.6395Y-5.0325
X6.6415Y-4.1985
X6.6415Y-4.8045
X6.6815Y-4.0885
X6.6819Y-4.6735
X6.6875Y-4.7278
X6.6915Y-5.2265
X6.6965Y-3.8285
X6.6999Y-4.6483
X6.7015Y-3.9835
X6.7095Y-4.4685
X6.7251Y-4.3339
X6.7405Y-3.9886
X6.7415Y-4.6425
X6.7415Y-4.8045
X6.7495Y-4.1385
X6.7655Y-4.5185
X6.8009Y-4.648
X6.8175Y-4.3905
X6.8415Y-4.8045
X6.8575Y-5.0985
X6.8893Y-5.1685
X6.8893Y-5.0332
X6.9135Y-4.8225
X6.9365Y-4.8465
X6.9607Y-5.1385
X6.9715Y-5.3685
X6.9815Y-4.4335
X7.0415Y-3.8485
X7.0415Y-4.0085
X7.0815Y-5.2735
X7.0865Y-4.8285
T3
X4.464Y-2.4797
X4.464Y-2.5797
X4.464Y-2.6797
X4.464Y-2.7797
X4.464Y-2.8797
X4.464Y-2.9797
X4.464Y-3.0797
X4.464Y-3.1797
X4.464Y-3.2797
X4.464Y-3.3797
X4.464Y-3.4797
X4.464Y-4.1785
X4.464Y-4.2785
X4.464Y-4.3785
X4.464Y-4.4785
X4.464Y-4.5785
X4.464Y-4.6785
X4.464Y-4.7785
X4.464Y-4.8785
X4.464Y-4.9785
X4.464Y-5.0785
X4.464Y-5.1785
X4.8536Y-3.631
X4.8536Y-5.3297
X4.9536Y-3.631
X4.9536Y-5.3297
X5.0536Y-3.631
X5.0536Y-5.3297
X5.1536Y-3.631
X5.1536Y-5.3297
X5.164Y-2.3797
X5.164Y-2.4797
X5.164Y-2.5797
X5.164Y-2.6797
X5.164Y-2.7797
X5.164Y-2.8797
X5.164Y-2.9797
X5.164Y-3.0797
X5.164Y-3.1797
X5.164Y-3.2797
X5.164Y-3.3797
X5.164Y-3.4797
X5.164Y-4.0785
X5.164Y-4.1785
X5.164Y-4.2785
X5.164Y-4.3785
X5.164Y-4.4785
X5.164Y-4.5785
X5.164Y-4.6785
X5.164Y-4.7785
X5.164Y-4.8785
X5.164Y-4.9785
X5.164Y-5.0785
X5.164Y-5.1785
X5.4028Y-2.4797
X5.4028Y-2.5797
X5.4028Y-2.6797
X5.4028Y-2.7797
X5.4028Y-2.8797
X5.4028Y-2.9797
X5.4028Y-3.0797
X5.4028Y-3.1797
X5.4028Y-3.2797
X5.4028Y-3.3797
X5.4028Y-3.4797
X5.4028Y-4.1785
X5.4028Y-4.2785
X5.4028Y-4.3785
X5.4028Y-4.4785
X5.4028Y-4.5785
X5.4028Y-4.6785
X5.4028Y-4.7785
X5.4028Y-4.8785
X5.4028Y-4.9785
X5.4028Y-5.0785
X5.4028Y-5.1785
X5.7924Y-3.631
X5.7924Y-5.3297
X5.8924Y-3.631
X5.8924Y-5.3297
X5.9924Y-3.631
X5.9924Y-5.3297
X6.0924Y-3.631
X6.0924Y-5.3297
X6.1028Y-2.3797
X6.1028Y-2.4797
X6.1028Y-2.5797
X6.1028Y-2.6797
X6.1028Y-2.7797
X6.1028Y-2.8797
X6.1028Y-2.9797
X6.1028Y-3.0797
X6.1028Y-3.1797
X6.1028Y-3.2797
X6.1028Y-3.3797
X6.1028Y-3.4797
X6.1028Y-4.0785
X6.1028Y-4.1785
X6.1028Y-4.2785
X6.1028Y-4.3785
X6.1028Y-4.4785
X6.1028Y-4.5785
X6.1028Y-4.6785
X6.1028Y-4.7785
X6.1028Y-4.8785
X6.1028Y-4.9785
X6.1028Y-5.0785
X6.1028Y-5.1785
X6.3415Y-4.1785
X6.3415Y-4.2785
X6.3415Y-4.3785
X6.3415Y-4.4785
X6.3415Y-4.5785
X6.3415Y-4.6785
X6.3415Y-4.7785
X6.3415Y-4.8785
X6.3415Y-4.9785
X6.3415Y-5.0785
X6.3415Y-5.1785
X6.7311Y-5.3297
X6.8311Y-5.3297
X6.9311Y-5.3297
X7.0311Y-5.3297
X7.0415Y-4.0785
X7.0415Y-4.1785
X7.0415Y-4.2785
X7.0415Y-4.3785
X7.0415Y-4.4785
X7.0415Y-4.5785
X7.0415Y-4.6785
X7.0415Y-4.7785
X7.0415Y-4.8785
X7.0415Y-4.9785
X7.0415Y-5.0785
X7.0415Y-5.1785
T2
G00X4.6437Y-2.1363
M15
G01X4.6437Y-2.1678
M16
G05
G00X4.6437Y-2.295
M15
G01X4.6437Y-2.3383
M16
G05
G00X4.6437Y-3.8351
M15
G01X4.6437Y-3.8666
M16
G05
G00X4.6437Y-3.9937
M15
G01X4.6437Y-4.037
M16
G05
G00X4.9839Y-2.1363
M15
G01X4.9839Y-2.1678
M16
G05
G00X4.9839Y-2.295
M15
G01X4.9839Y-2.3383
M16
G05
G00X4.9839Y-3.8351
M15
G01X4.9839Y-3.8666
M16
G05
G00X4.9839Y-3.9937
M15
G01X4.9839Y-4.037
M16
G05
G00X5.5825Y-2.1363
M15
G01X5.5825Y-2.1678
M16
G05
G00X5.5825Y-2.295
M15
G01X5.5825Y-2.3383
M16
G05
G00X5.5825Y-3.8351
M15
G01X5.5825Y-3.8666
M16
G05
G00X5.5825Y-3.9937
M15
G01X5.5825Y-4.037
M16
G05
G00X5.9226Y-2.1363
M15
G01X5.9226Y-2.1678
M16
G05
G00X5.9226Y-2.295
M15
G01X5.9226Y-2.3383
M16
G05
G00X5.9226Y-3.8351
M15
G01X5.9226Y-3.8666
M16
G05
G00X5.9226Y-3.9937
M15
G01X5.9226Y-4.037
M16
G05
G00X6.5212Y-3.8351
M15
G01X6.5212Y-3.8666
M16
G05
G00X6.5212Y-3.9937
M15
G01X6.5212Y-4.037
M16
G05
G00X6.8614Y-3.8351
M15
G01X6.8614Y-3.8666
M16
G05
G00X6.8614Y-3.9937
M15
G01X6.8614Y-4.037
M16
G05
T0
M30
