%TF.GenerationSoftware,KiCad,Pcbnew,(6.0.8)*%
%TF.CreationDate,2023-03-28T10:40:47+02:00*%
%TF.ProjectId,Floppy Board v3.0,466c6f70-7079-4204-926f-617264207633,3.0*%
%TF.SameCoordinates,Original*%
%TF.FileFunction,Soldermask,Top*%
%TF.FilePolarity,Negative*%
%FSLAX46Y46*%
G04 Gerber Fmt 4.6, Leading zero omitted, Abs format (unit mm)*
G04 Created by KiCad (PCBNEW (6.0.8)) date 2023-03-28 10:40:47*
%MOMM*%
%LPD*%
G01*
G04 APERTURE LIST*
G04 Aperture macros list*
%AMRoundRect*
0 Rectangle with rounded corners*
0 $1 Rounding radius*
0 $2 $3 $4 $5 $6 $7 $8 $9 X,Y pos of 4 corners*
0 Add a 4 corners polygon primitive as box body*
4,1,4,$2,$3,$4,$5,$6,$7,$8,$9,$2,$3,0*
0 Add four circle primitives for the rounded corners*
1,1,$1+$1,$2,$3*
1,1,$1+$1,$4,$5*
1,1,$1+$1,$6,$7*
1,1,$1+$1,$8,$9*
0 Add four rect primitives between the rounded corners*
20,1,$1+$1,$2,$3,$4,$5,0*
20,1,$1+$1,$4,$5,$6,$7,0*
20,1,$1+$1,$6,$7,$8,$9,0*
20,1,$1+$1,$8,$9,$2,$3,0*%
G04 Aperture macros list end*
%ADD10R,0.600000X1.150000*%
%ADD11R,0.300000X1.150000*%
%ADD12O,1.000000X2.100000*%
%ADD13O,1.000000X1.800000*%
%ADD14C,0.500000*%
%ADD15R,1.700000X1.700000*%
%ADD16O,1.700000X1.700000*%
%ADD17RoundRect,0.250000X0.450000X-0.325000X0.450000X0.325000X-0.450000X0.325000X-0.450000X-0.325000X0*%
%ADD18RoundRect,0.250001X-0.624999X0.462499X-0.624999X-0.462499X0.624999X-0.462499X0.624999X0.462499X0*%
%ADD19RoundRect,0.250000X-0.475000X0.337500X-0.475000X-0.337500X0.475000X-0.337500X0.475000X0.337500X0*%
%ADD20R,1.100000X1.800000*%
%ADD21RoundRect,0.250000X-0.337500X-0.475000X0.337500X-0.475000X0.337500X0.475000X-0.337500X0.475000X0*%
%ADD22RoundRect,0.150000X-0.587500X-0.150000X0.587500X-0.150000X0.587500X0.150000X-0.587500X0.150000X0*%
%ADD23RoundRect,0.100000X-0.637500X-0.100000X0.637500X-0.100000X0.637500X0.100000X-0.637500X0.100000X0*%
G04 APERTURE END LIST*
D10*
%TO.C,J18*%
X149315159Y-102565500D03*
X148515159Y-102565500D03*
D11*
X147865159Y-102565500D03*
X147365159Y-102565500D03*
X146865159Y-102565500D03*
X146365159Y-102565500D03*
X145865159Y-102565500D03*
X145365159Y-102565500D03*
X144865159Y-102565500D03*
X144365159Y-102565500D03*
D10*
X143715159Y-102565500D03*
X142915159Y-102565500D03*
D12*
X141795159Y-101990500D03*
D13*
X150435159Y-97810500D03*
X141795159Y-97810500D03*
D12*
X150435159Y-101990500D03*
%TD*%
D14*
%TO.C,mouse-bite-2mm-slot*%
X134948159Y-66255000D03*
X134948159Y-67005000D03*
X133448159Y-67755000D03*
X133448159Y-67005000D03*
X134948159Y-67755000D03*
X133448159Y-66255000D03*
%TD*%
%TO.C,mouse-bite-2mm-slot*%
X134948159Y-79255000D03*
X134948159Y-80005000D03*
X133448159Y-80755000D03*
X133448159Y-80005000D03*
X134948159Y-80755000D03*
X133448159Y-79255000D03*
%TD*%
%TO.C,mouse-bite-2mm-slot*%
X158792159Y-109403000D03*
X158792159Y-110153000D03*
X157292159Y-110903000D03*
X157292159Y-110153000D03*
X158792159Y-110903000D03*
X157292159Y-109403000D03*
%TD*%
%TO.C,mouse-bite-2mm-slot*%
X158792159Y-122403000D03*
X158792159Y-123153000D03*
X157292159Y-123903000D03*
X157292159Y-123153000D03*
X158792159Y-123903000D03*
X157292159Y-122403000D03*
%TD*%
%TO.C,mouse-bite-2mm-slot*%
X134948159Y-109403000D03*
X134948159Y-110153000D03*
X133448159Y-110903000D03*
X133448159Y-110153000D03*
X134948159Y-110903000D03*
X133448159Y-109403000D03*
%TD*%
%TO.C,mouse-bite-2mm-slot*%
X133448159Y-122403000D03*
X134948159Y-123903000D03*
X133448159Y-123153000D03*
X133448159Y-123903000D03*
X134948159Y-123153000D03*
X134948159Y-122403000D03*
%TD*%
%TO.C,mouse-bite-2mm-slot*%
X170604159Y-138903000D03*
X169854159Y-138903000D03*
X169104159Y-137403000D03*
X169854159Y-137403000D03*
X169104159Y-138903000D03*
X170604159Y-137403000D03*
%TD*%
%TO.C,mouse-bite-2mm-slot*%
X147104159Y-138903000D03*
X146354159Y-138903000D03*
X145604159Y-137403000D03*
X146354159Y-137403000D03*
X145604159Y-138903000D03*
X147104159Y-137403000D03*
%TD*%
%TO.C,mouse-bite-2mm-slot*%
X123104159Y-138903000D03*
X122354159Y-138903000D03*
X121604159Y-137403000D03*
X122354159Y-137403000D03*
X121604159Y-138903000D03*
X123104159Y-137403000D03*
%TD*%
%TO.C,mouse-bite-2mm-slot*%
X147104159Y-52607000D03*
X146354159Y-52607000D03*
X145604159Y-51107000D03*
X146354159Y-51107000D03*
X145604159Y-52607000D03*
X147104159Y-51107000D03*
%TD*%
%TO.C,mouse-bite-2mm-slot*%
X123104159Y-52607000D03*
X122354159Y-52607000D03*
X121604159Y-51107000D03*
X122354159Y-51107000D03*
X121604159Y-52607000D03*
X123104159Y-51107000D03*
%TD*%
%TO.C,mouse-bite-2mm-slot*%
X147104159Y-95755000D03*
X146354159Y-95755000D03*
X145604159Y-94255000D03*
X146354159Y-94255000D03*
X145604159Y-95755000D03*
X147104159Y-94255000D03*
%TD*%
%TO.C,mouse-bite-2mm-slot*%
X123104159Y-95755000D03*
X122354159Y-95755000D03*
X121604159Y-94255000D03*
X122354159Y-94255000D03*
X121604159Y-95755000D03*
X123104159Y-94255000D03*
%TD*%
D15*
%TO.C,J23*%
X161074159Y-106133000D03*
D16*
X161074159Y-108673000D03*
X161074159Y-111213000D03*
X161074159Y-113753000D03*
X161074159Y-116293000D03*
X161074159Y-118833000D03*
X161074159Y-121373000D03*
X161074159Y-123913000D03*
X161074159Y-126453000D03*
X161074159Y-128993000D03*
X161074159Y-131533000D03*
%TD*%
D17*
%TO.C,D40*%
X171234159Y-123033000D03*
X171234159Y-120983000D03*
%TD*%
D10*
%TO.C,J22*%
X173159159Y-102565500D03*
X172359159Y-102565500D03*
D11*
X171709159Y-102565500D03*
X171209159Y-102565500D03*
X170709159Y-102565500D03*
X170209159Y-102565500D03*
X169709159Y-102565500D03*
X169209159Y-102565500D03*
X168709159Y-102565500D03*
X168209159Y-102565500D03*
D10*
X167559159Y-102565500D03*
X166759159Y-102565500D03*
D12*
X165639159Y-101990500D03*
D13*
X174279159Y-97810500D03*
X165639159Y-97810500D03*
D12*
X174279159Y-101990500D03*
%TD*%
D18*
%TO.C,F6*%
X165442959Y-106067900D03*
X165442959Y-109042900D03*
%TD*%
D19*
%TO.C,C55*%
X174917159Y-109159500D03*
X174917159Y-111234500D03*
%TD*%
D17*
%TO.C,D37*%
X166154159Y-123033000D03*
X166154159Y-120983000D03*
%TD*%
D20*
%TO.C,SW12*%
X164939159Y-132728000D03*
X164939159Y-126528000D03*
X168639159Y-132728000D03*
X168639159Y-126528000D03*
%TD*%
D15*
%TO.C,J21*%
X178590159Y-135375000D03*
D16*
X176050159Y-135375000D03*
X173510159Y-135375000D03*
X170970159Y-135375000D03*
%TD*%
D21*
%TO.C,C57*%
X172736659Y-105117000D03*
X174811659Y-105117000D03*
%TD*%
D15*
%TO.C,J24*%
X178854159Y-131533000D03*
D16*
X178854159Y-128993000D03*
X178854159Y-126453000D03*
X178854159Y-123913000D03*
X178854159Y-121373000D03*
X178854159Y-118833000D03*
X178854159Y-116293000D03*
X178854159Y-113753000D03*
X178854159Y-111213000D03*
X178854159Y-108673000D03*
X178854159Y-106133000D03*
X178854159Y-103593000D03*
%TD*%
D22*
%TO.C,U23*%
X170804659Y-109247000D03*
X170804659Y-111147000D03*
X172679659Y-110197000D03*
%TD*%
D21*
%TO.C,C58*%
X172736659Y-107149000D03*
X174811659Y-107149000D03*
%TD*%
D17*
%TO.C,D38*%
X173774159Y-123033000D03*
X173774159Y-120983000D03*
%TD*%
D23*
%TO.C,U21*%
X168371659Y-112860000D03*
X168371659Y-113510000D03*
X168371659Y-114160000D03*
X168371659Y-114810000D03*
X168371659Y-115460000D03*
X168371659Y-116110000D03*
X168371659Y-116760000D03*
X168371659Y-117410000D03*
X168371659Y-118060000D03*
X168371659Y-118710000D03*
X174096659Y-118710000D03*
X174096659Y-118060000D03*
X174096659Y-117410000D03*
X174096659Y-116760000D03*
X174096659Y-116110000D03*
X174096659Y-115460000D03*
X174096659Y-114810000D03*
X174096659Y-114160000D03*
X174096659Y-113510000D03*
X174096659Y-112860000D03*
%TD*%
D19*
%TO.C,C51*%
X163995159Y-114112500D03*
X163995159Y-116187500D03*
%TD*%
%TO.C,C52*%
X166027159Y-114112500D03*
X166027159Y-116187500D03*
%TD*%
D20*
%TO.C,SW11*%
X171289159Y-132728000D03*
X171289159Y-126528000D03*
X174989159Y-132728000D03*
X174989159Y-126528000D03*
%TD*%
D17*
%TO.C,D41*%
X168694159Y-123033000D03*
X168694159Y-120983000D03*
%TD*%
D15*
%TO.C,J19*%
X137230159Y-106133000D03*
D16*
X137230159Y-108673000D03*
X137230159Y-111213000D03*
X137230159Y-113753000D03*
X137230159Y-116293000D03*
X137230159Y-118833000D03*
X137230159Y-121373000D03*
X137230159Y-123913000D03*
X137230159Y-126453000D03*
X137230159Y-128993000D03*
X137230159Y-131533000D03*
%TD*%
D17*
%TO.C,D33*%
X147390159Y-123033000D03*
X147390159Y-120983000D03*
%TD*%
D18*
%TO.C,F5*%
X141598959Y-106067900D03*
X141598959Y-109042900D03*
%TD*%
D19*
%TO.C,C45*%
X151073159Y-109159500D03*
X151073159Y-111234500D03*
%TD*%
D17*
%TO.C,D30*%
X142310159Y-123033000D03*
X142310159Y-120983000D03*
%TD*%
D20*
%TO.C,SW10*%
X141095159Y-132728000D03*
X141095159Y-126528000D03*
X144795159Y-132728000D03*
X144795159Y-126528000D03*
%TD*%
D15*
%TO.C,J17*%
X154746159Y-135375000D03*
D16*
X152206159Y-135375000D03*
X149666159Y-135375000D03*
X147126159Y-135375000D03*
%TD*%
D21*
%TO.C,C47*%
X148892659Y-105117000D03*
X150967659Y-105117000D03*
%TD*%
D15*
%TO.C,J20*%
X155010159Y-131533000D03*
D16*
X155010159Y-128993000D03*
X155010159Y-126453000D03*
X155010159Y-123913000D03*
X155010159Y-121373000D03*
X155010159Y-118833000D03*
X155010159Y-116293000D03*
X155010159Y-113753000D03*
X155010159Y-111213000D03*
X155010159Y-108673000D03*
X155010159Y-106133000D03*
X155010159Y-103593000D03*
%TD*%
D22*
%TO.C,U19*%
X146960659Y-109247000D03*
X146960659Y-111147000D03*
X148835659Y-110197000D03*
%TD*%
D21*
%TO.C,C48*%
X148892659Y-107149000D03*
X150967659Y-107149000D03*
%TD*%
D17*
%TO.C,D31*%
X149930159Y-123033000D03*
X149930159Y-120983000D03*
%TD*%
D23*
%TO.C,U17*%
X144527659Y-112860000D03*
X144527659Y-113510000D03*
X144527659Y-114160000D03*
X144527659Y-114810000D03*
X144527659Y-115460000D03*
X144527659Y-116110000D03*
X144527659Y-116760000D03*
X144527659Y-117410000D03*
X144527659Y-118060000D03*
X144527659Y-118710000D03*
X150252659Y-118710000D03*
X150252659Y-118060000D03*
X150252659Y-117410000D03*
X150252659Y-116760000D03*
X150252659Y-116110000D03*
X150252659Y-115460000D03*
X150252659Y-114810000D03*
X150252659Y-114160000D03*
X150252659Y-113510000D03*
X150252659Y-112860000D03*
%TD*%
D19*
%TO.C,C41*%
X140151159Y-114112500D03*
X140151159Y-116187500D03*
%TD*%
%TO.C,C42*%
X142183159Y-114112500D03*
X142183159Y-116187500D03*
%TD*%
D20*
%TO.C,SW9*%
X147445159Y-132728000D03*
X147445159Y-126528000D03*
X151145159Y-132728000D03*
X151145159Y-126528000D03*
%TD*%
D17*
%TO.C,D34*%
X144850159Y-123033000D03*
X144850159Y-120983000D03*
%TD*%
D15*
%TO.C,J15*%
X113386159Y-106133000D03*
D16*
X113386159Y-108673000D03*
X113386159Y-111213000D03*
X113386159Y-113753000D03*
X113386159Y-116293000D03*
X113386159Y-118833000D03*
X113386159Y-121373000D03*
X113386159Y-123913000D03*
X113386159Y-126453000D03*
X113386159Y-128993000D03*
X113386159Y-131533000D03*
%TD*%
D17*
%TO.C,D26*%
X123546159Y-123033000D03*
X123546159Y-120983000D03*
%TD*%
D10*
%TO.C,J14*%
X125471159Y-102565500D03*
X124671159Y-102565500D03*
D11*
X124021159Y-102565500D03*
X123521159Y-102565500D03*
X123021159Y-102565500D03*
X122521159Y-102565500D03*
X122021159Y-102565500D03*
X121521159Y-102565500D03*
X121021159Y-102565500D03*
X120521159Y-102565500D03*
D10*
X119871159Y-102565500D03*
X119071159Y-102565500D03*
D12*
X117951159Y-101990500D03*
D13*
X126591159Y-97810500D03*
X117951159Y-97810500D03*
D12*
X126591159Y-101990500D03*
%TD*%
D18*
%TO.C,F4*%
X117754959Y-106067900D03*
X117754959Y-109042900D03*
%TD*%
D19*
%TO.C,C35*%
X127229159Y-109159500D03*
X127229159Y-111234500D03*
%TD*%
D17*
%TO.C,D23*%
X118466159Y-123033000D03*
X118466159Y-120983000D03*
%TD*%
D20*
%TO.C,SW8*%
X117251159Y-132728000D03*
X117251159Y-126528000D03*
X120951159Y-132728000D03*
X120951159Y-126528000D03*
%TD*%
D15*
%TO.C,J13*%
X130902159Y-135375000D03*
D16*
X128362159Y-135375000D03*
X125822159Y-135375000D03*
X123282159Y-135375000D03*
%TD*%
D21*
%TO.C,C37*%
X125048659Y-105117000D03*
X127123659Y-105117000D03*
%TD*%
D15*
%TO.C,J16*%
X131166159Y-131533000D03*
D16*
X131166159Y-128993000D03*
X131166159Y-126453000D03*
X131166159Y-123913000D03*
X131166159Y-121373000D03*
X131166159Y-118833000D03*
X131166159Y-116293000D03*
X131166159Y-113753000D03*
X131166159Y-111213000D03*
X131166159Y-108673000D03*
X131166159Y-106133000D03*
X131166159Y-103593000D03*
%TD*%
D22*
%TO.C,U15*%
X123116659Y-109247000D03*
X123116659Y-111147000D03*
X124991659Y-110197000D03*
%TD*%
D21*
%TO.C,C38*%
X125048659Y-107149000D03*
X127123659Y-107149000D03*
%TD*%
D17*
%TO.C,D24*%
X126086159Y-123033000D03*
X126086159Y-120983000D03*
%TD*%
D23*
%TO.C,U13*%
X120683659Y-112860000D03*
X120683659Y-113510000D03*
X120683659Y-114160000D03*
X120683659Y-114810000D03*
X120683659Y-115460000D03*
X120683659Y-116110000D03*
X120683659Y-116760000D03*
X120683659Y-117410000D03*
X120683659Y-118060000D03*
X120683659Y-118710000D03*
X126408659Y-118710000D03*
X126408659Y-118060000D03*
X126408659Y-117410000D03*
X126408659Y-116760000D03*
X126408659Y-116110000D03*
X126408659Y-115460000D03*
X126408659Y-114810000D03*
X126408659Y-114160000D03*
X126408659Y-113510000D03*
X126408659Y-112860000D03*
%TD*%
D19*
%TO.C,C31*%
X116307159Y-114112500D03*
X116307159Y-116187500D03*
%TD*%
%TO.C,C32*%
X118339159Y-114112500D03*
X118339159Y-116187500D03*
%TD*%
D20*
%TO.C,SW7*%
X123601159Y-132728000D03*
X123601159Y-126528000D03*
X127301159Y-132728000D03*
X127301159Y-126528000D03*
%TD*%
D17*
%TO.C,D27*%
X121006159Y-123033000D03*
X121006159Y-120983000D03*
%TD*%
D15*
%TO.C,J7*%
X137230159Y-62985000D03*
D16*
X137230159Y-65525000D03*
X137230159Y-68065000D03*
X137230159Y-70605000D03*
X137230159Y-73145000D03*
X137230159Y-75685000D03*
X137230159Y-78225000D03*
X137230159Y-80765000D03*
X137230159Y-83305000D03*
X137230159Y-85845000D03*
X137230159Y-88385000D03*
%TD*%
D17*
%TO.C,D12*%
X147390159Y-79885000D03*
X147390159Y-77835000D03*
%TD*%
D10*
%TO.C,J6*%
X149315159Y-59417500D03*
X148515159Y-59417500D03*
D11*
X147865159Y-59417500D03*
X147365159Y-59417500D03*
X146865159Y-59417500D03*
X146365159Y-59417500D03*
X145865159Y-59417500D03*
X145365159Y-59417500D03*
X144865159Y-59417500D03*
X144365159Y-59417500D03*
D10*
X143715159Y-59417500D03*
X142915159Y-59417500D03*
D12*
X141795159Y-58842500D03*
D13*
X150435159Y-54662500D03*
X141795159Y-54662500D03*
D12*
X150435159Y-58842500D03*
%TD*%
D18*
%TO.C,F2*%
X141598959Y-62919900D03*
X141598959Y-65894900D03*
%TD*%
D19*
%TO.C,C15*%
X151073159Y-66011500D03*
X151073159Y-68086500D03*
%TD*%
D17*
%TO.C,D9*%
X142310159Y-79885000D03*
X142310159Y-77835000D03*
%TD*%
D20*
%TO.C,SW4*%
X141095159Y-89580000D03*
X141095159Y-83380000D03*
X144795159Y-89580000D03*
X144795159Y-83380000D03*
%TD*%
D15*
%TO.C,J5*%
X154746159Y-92227000D03*
D16*
X152206159Y-92227000D03*
X149666159Y-92227000D03*
X147126159Y-92227000D03*
%TD*%
D21*
%TO.C,C17*%
X148892659Y-61969000D03*
X150967659Y-61969000D03*
%TD*%
D15*
%TO.C,J8*%
X155010159Y-88385000D03*
D16*
X155010159Y-85845000D03*
X155010159Y-83305000D03*
X155010159Y-80765000D03*
X155010159Y-78225000D03*
X155010159Y-75685000D03*
X155010159Y-73145000D03*
X155010159Y-70605000D03*
X155010159Y-68065000D03*
X155010159Y-65525000D03*
X155010159Y-62985000D03*
X155010159Y-60445000D03*
%TD*%
D22*
%TO.C,U7*%
X146960659Y-66099000D03*
X146960659Y-67999000D03*
X148835659Y-67049000D03*
%TD*%
D21*
%TO.C,C18*%
X148892659Y-64001000D03*
X150967659Y-64001000D03*
%TD*%
D17*
%TO.C,D10*%
X149930159Y-79885000D03*
X149930159Y-77835000D03*
%TD*%
D23*
%TO.C,U5*%
X144527659Y-69712000D03*
X144527659Y-70362000D03*
X144527659Y-71012000D03*
X144527659Y-71662000D03*
X144527659Y-72312000D03*
X144527659Y-72962000D03*
X144527659Y-73612000D03*
X144527659Y-74262000D03*
X144527659Y-74912000D03*
X144527659Y-75562000D03*
X150252659Y-75562000D03*
X150252659Y-74912000D03*
X150252659Y-74262000D03*
X150252659Y-73612000D03*
X150252659Y-72962000D03*
X150252659Y-72312000D03*
X150252659Y-71662000D03*
X150252659Y-71012000D03*
X150252659Y-70362000D03*
X150252659Y-69712000D03*
%TD*%
D19*
%TO.C,C11*%
X140151159Y-70964500D03*
X140151159Y-73039500D03*
%TD*%
%TO.C,C12*%
X142183159Y-70964500D03*
X142183159Y-73039500D03*
%TD*%
D20*
%TO.C,SW3*%
X147445159Y-89580000D03*
X147445159Y-83380000D03*
X151145159Y-89580000D03*
X151145159Y-83380000D03*
%TD*%
D17*
%TO.C,D13*%
X144850159Y-79885000D03*
X144850159Y-77835000D03*
%TD*%
%TO.C,D6*%
X121006159Y-79885000D03*
X121006159Y-77835000D03*
%TD*%
D19*
%TO.C,C1*%
X116307159Y-70964500D03*
X116307159Y-73039500D03*
%TD*%
D23*
%TO.C,U1*%
X120683659Y-69712000D03*
X120683659Y-70362000D03*
X120683659Y-71012000D03*
X120683659Y-71662000D03*
X120683659Y-72312000D03*
X120683659Y-72962000D03*
X120683659Y-73612000D03*
X120683659Y-74262000D03*
X120683659Y-74912000D03*
X120683659Y-75562000D03*
X126408659Y-75562000D03*
X126408659Y-74912000D03*
X126408659Y-74262000D03*
X126408659Y-73612000D03*
X126408659Y-72962000D03*
X126408659Y-72312000D03*
X126408659Y-71662000D03*
X126408659Y-71012000D03*
X126408659Y-70362000D03*
X126408659Y-69712000D03*
%TD*%
D17*
%TO.C,D3*%
X126086159Y-79885000D03*
X126086159Y-77835000D03*
%TD*%
D21*
%TO.C,C8*%
X125048659Y-64001000D03*
X127123659Y-64001000D03*
%TD*%
D20*
%TO.C,SW1*%
X123601159Y-89580000D03*
X123601159Y-83380000D03*
X127301159Y-89580000D03*
X127301159Y-83380000D03*
%TD*%
D19*
%TO.C,C2*%
X118339159Y-70964500D03*
X118339159Y-73039500D03*
%TD*%
D20*
%TO.C,SW2*%
X117251159Y-89580000D03*
X117251159Y-83380000D03*
X120951159Y-89580000D03*
X120951159Y-83380000D03*
%TD*%
D19*
%TO.C,C5*%
X127229159Y-66011500D03*
X127229159Y-68086500D03*
%TD*%
D21*
%TO.C,C7*%
X125048659Y-61969000D03*
X127123659Y-61969000D03*
%TD*%
D17*
%TO.C,D2*%
X118466159Y-79885000D03*
X118466159Y-77835000D03*
%TD*%
D22*
%TO.C,U3*%
X123116659Y-66099000D03*
X123116659Y-67999000D03*
X124991659Y-67049000D03*
%TD*%
D17*
%TO.C,D5*%
X123546159Y-79885000D03*
X123546159Y-77835000D03*
%TD*%
D10*
%TO.C,J2*%
X125471159Y-59417500D03*
X124671159Y-59417500D03*
D11*
X124021159Y-59417500D03*
X123521159Y-59417500D03*
X123021159Y-59417500D03*
X122521159Y-59417500D03*
X122021159Y-59417500D03*
X121521159Y-59417500D03*
X121021159Y-59417500D03*
X120521159Y-59417500D03*
D10*
X119871159Y-59417500D03*
X119071159Y-59417500D03*
D12*
X117951159Y-58842500D03*
D13*
X126591159Y-54662500D03*
X117951159Y-54662500D03*
D12*
X126591159Y-58842500D03*
%TD*%
D15*
%TO.C,J1*%
X130902159Y-92227000D03*
D16*
X128362159Y-92227000D03*
X125822159Y-92227000D03*
X123282159Y-92227000D03*
%TD*%
D18*
%TO.C,F1*%
X117754959Y-62919900D03*
X117754959Y-65894900D03*
%TD*%
D15*
%TO.C,J4*%
X131166159Y-88385000D03*
D16*
X131166159Y-85845000D03*
X131166159Y-83305000D03*
X131166159Y-80765000D03*
X131166159Y-78225000D03*
X131166159Y-75685000D03*
X131166159Y-73145000D03*
X131166159Y-70605000D03*
X131166159Y-68065000D03*
X131166159Y-65525000D03*
X131166159Y-62985000D03*
X131166159Y-60445000D03*
%TD*%
D15*
%TO.C,J3*%
X113386159Y-62985000D03*
D16*
X113386159Y-65525000D03*
X113386159Y-68065000D03*
X113386159Y-70605000D03*
X113386159Y-73145000D03*
X113386159Y-75685000D03*
X113386159Y-78225000D03*
X113386159Y-80765000D03*
X113386159Y-83305000D03*
X113386159Y-85845000D03*
X113386159Y-88385000D03*
%TD*%
M02*
