M48
; DRILL file {KiCad (6.0.8)} date Tue Mar 28 10:40:51 2023
; FORMAT={-:-/ absolute / inch / decimal}
; #@! TF.CreationDate,2023-03-28T10:40:51+02:00
; #@! TF.GenerationSoftware,Kicad,Pcbnew,(6.0.8)
; #@! TF.FileFunction,NonPlated,1,2,NPTH
FMAT,2
INCH
; #@! TA.AperFunction,NonPlated,NPTH,ComponentDrill
T1C0.0197
%
G90
G05
T1
X4.7876Y-2.0121
X4.7876Y-2.0711
X4.7876Y-3.7108
X4.7876Y-3.7699
X4.7876Y-5.4096
X4.7876Y-5.4686
X4.8171Y-2.0121
X4.8171Y-2.0711
X4.8171Y-3.7108
X4.8171Y-3.7699
X4.8171Y-5.4096
X4.8171Y-5.4686
X4.8466Y-2.0121
X4.8466Y-2.0711
X4.8466Y-3.7108
X4.8466Y-3.7699
X4.8466Y-5.4096
X4.8466Y-5.4686
X5.2539Y-2.6085
X5.2539Y-2.638
X5.2539Y-2.6675
X5.2539Y-3.1203
X5.2539Y-3.1498
X5.2539Y-3.1793
X5.2539Y-4.3072
X5.2539Y-4.3367
X5.2539Y-4.3663
X5.2539Y-4.819
X5.2539Y-4.8485
X5.2539Y-4.8781
X5.3129Y-2.6085
X5.3129Y-2.638
X5.3129Y-2.6675
X5.3129Y-3.1203
X5.3129Y-3.1498
X5.3129Y-3.1793
X5.3129Y-4.3072
X5.3129Y-4.3367
X5.3129Y-4.3663
X5.3129Y-4.819
X5.3129Y-4.8485
X5.3129Y-4.8781
X5.7324Y-2.0121
X5.7324Y-2.0711
X5.7324Y-3.7108
X5.7324Y-3.7699
X5.7324Y-5.4096
X5.7324Y-5.4686
X5.762Y-2.0121
X5.762Y-2.0711
X5.762Y-3.7108
X5.762Y-3.7699
X5.762Y-5.4096
X5.762Y-5.4686
X5.7915Y-2.0121
X5.7915Y-2.0711
X5.7915Y-3.7108
X5.7915Y-3.7699
X5.7915Y-5.4096
X5.7915Y-5.4686
X6.1926Y-4.3072
X6.1926Y-4.3367
X6.1926Y-4.3663
X6.1926Y-4.819
X6.1926Y-4.8485
X6.1926Y-4.8781
X6.2517Y-4.3072
X6.2517Y-4.3367
X6.2517Y-4.3663
X6.2517Y-4.819
X6.2517Y-4.8485
X6.2517Y-4.8781
X6.6576Y-5.4096
X6.6576Y-5.4686
X6.6872Y-5.4096
X6.6872Y-5.4686
X6.7167Y-5.4096
X6.7167Y-5.4686
T0
M30
