%TF.GenerationSoftware,KiCad,Pcbnew,(6.0.8)*%
%TF.CreationDate,2023-03-28T10:40:47+02:00*%
%TF.ProjectId,Floppy Board v3.0,466c6f70-7079-4204-926f-617264207633,3.0*%
%TF.SameCoordinates,Original*%
%TF.FileFunction,Soldermask,Bot*%
%TF.FilePolarity,Negative*%
%FSLAX46Y46*%
G04 Gerber Fmt 4.6, Leading zero omitted, Abs format (unit mm)*
G04 Created by KiCad (PCBNEW (6.0.8)) date 2023-03-28 10:40:47*
%MOMM*%
%LPD*%
G01*
G04 APERTURE LIST*
G04 Aperture macros list*
%AMRoundRect*
0 Rectangle with rounded corners*
0 $1 Rounding radius*
0 $2 $3 $4 $5 $6 $7 $8 $9 X,Y pos of 4 corners*
0 Add a 4 corners polygon primitive as box body*
4,1,4,$2,$3,$4,$5,$6,$7,$8,$9,$2,$3,0*
0 Add four circle primitives for the rounded corners*
1,1,$1+$1,$2,$3*
1,1,$1+$1,$4,$5*
1,1,$1+$1,$6,$7*
1,1,$1+$1,$8,$9*
0 Add four rect primitives between the rounded corners*
20,1,$1+$1,$2,$3,$4,$5,0*
20,1,$1+$1,$4,$5,$6,$7,0*
20,1,$1+$1,$6,$7,$8,$9,0*
20,1,$1+$1,$8,$9,$2,$3,0*%
G04 Aperture macros list end*
%ADD10O,1.000000X2.100000*%
%ADD11O,1.000000X1.800000*%
%ADD12C,0.500000*%
%ADD13RoundRect,0.250000X0.450000X-0.350000X0.450000X0.350000X-0.450000X0.350000X-0.450000X-0.350000X0*%
%ADD14RoundRect,0.250000X0.337500X0.475000X-0.337500X0.475000X-0.337500X-0.475000X0.337500X-0.475000X0*%
%ADD15RoundRect,0.135000X0.135000X0.185000X-0.135000X0.185000X-0.135000X-0.185000X0.135000X-0.185000X0*%
%ADD16R,1.200000X0.900000*%
%ADD17R,1.700000X1.700000*%
%ADD18O,1.700000X1.700000*%
%ADD19RoundRect,0.250000X-0.337500X-0.475000X0.337500X-0.475000X0.337500X0.475000X-0.337500X0.475000X0*%
%ADD20RoundRect,0.250000X0.475000X-0.337500X0.475000X0.337500X-0.475000X0.337500X-0.475000X-0.337500X0*%
%ADD21RoundRect,0.135000X-0.135000X-0.185000X0.135000X-0.185000X0.135000X0.185000X-0.135000X0.185000X0*%
%ADD22RoundRect,0.250000X-0.450000X0.350000X-0.450000X-0.350000X0.450000X-0.350000X0.450000X0.350000X0*%
%ADD23R,0.900000X1.200000*%
%ADD24R,1.100000X1.100000*%
%ADD25RoundRect,0.150000X-0.150000X0.675000X-0.150000X-0.675000X0.150000X-0.675000X0.150000X0.675000X0*%
%ADD26RoundRect,0.250000X0.350000X0.450000X-0.350000X0.450000X-0.350000X-0.450000X0.350000X-0.450000X0*%
%ADD27RoundRect,0.150000X-0.675000X-0.150000X0.675000X-0.150000X0.675000X0.150000X-0.675000X0.150000X0*%
G04 APERTURE END LIST*
D10*
%TO.C,J18*%
X141795159Y-101990500D03*
D11*
X150435159Y-97810500D03*
X141795159Y-97810500D03*
D10*
X150435159Y-101990500D03*
%TD*%
D12*
%TO.C,mouse-bite-2mm-slot*%
X134948159Y-66255000D03*
X134948159Y-67005000D03*
X133448159Y-67755000D03*
X133448159Y-67005000D03*
X134948159Y-67755000D03*
X133448159Y-66255000D03*
%TD*%
%TO.C,mouse-bite-2mm-slot*%
X134948159Y-79255000D03*
X134948159Y-80005000D03*
X133448159Y-80755000D03*
X133448159Y-80005000D03*
X134948159Y-80755000D03*
X133448159Y-79255000D03*
%TD*%
%TO.C,mouse-bite-2mm-slot*%
X158792159Y-109403000D03*
X158792159Y-110153000D03*
X157292159Y-110903000D03*
X157292159Y-110153000D03*
X158792159Y-110903000D03*
X157292159Y-109403000D03*
%TD*%
%TO.C,mouse-bite-2mm-slot*%
X158792159Y-122403000D03*
X158792159Y-123153000D03*
X157292159Y-123903000D03*
X157292159Y-123153000D03*
X158792159Y-123903000D03*
X157292159Y-122403000D03*
%TD*%
%TO.C,mouse-bite-2mm-slot*%
X134948159Y-109403000D03*
X134948159Y-110153000D03*
X133448159Y-110903000D03*
X133448159Y-110153000D03*
X134948159Y-110903000D03*
X133448159Y-109403000D03*
%TD*%
%TO.C,mouse-bite-2mm-slot*%
X133448159Y-122403000D03*
X134948159Y-123903000D03*
X133448159Y-123153000D03*
X133448159Y-123903000D03*
X134948159Y-123153000D03*
X134948159Y-122403000D03*
%TD*%
%TO.C,mouse-bite-2mm-slot*%
X170604159Y-138903000D03*
X169854159Y-138903000D03*
X169104159Y-137403000D03*
X169854159Y-137403000D03*
X169104159Y-138903000D03*
X170604159Y-137403000D03*
%TD*%
%TO.C,mouse-bite-2mm-slot*%
X147104159Y-138903000D03*
X146354159Y-138903000D03*
X145604159Y-137403000D03*
X146354159Y-137403000D03*
X145604159Y-138903000D03*
X147104159Y-137403000D03*
%TD*%
%TO.C,mouse-bite-2mm-slot*%
X123104159Y-138903000D03*
X122354159Y-138903000D03*
X121604159Y-137403000D03*
X122354159Y-137403000D03*
X121604159Y-138903000D03*
X123104159Y-137403000D03*
%TD*%
%TO.C,mouse-bite-2mm-slot*%
X147104159Y-52607000D03*
X146354159Y-52607000D03*
X145604159Y-51107000D03*
X146354159Y-51107000D03*
X145604159Y-52607000D03*
X147104159Y-51107000D03*
%TD*%
%TO.C,mouse-bite-2mm-slot*%
X123104159Y-52607000D03*
X122354159Y-52607000D03*
X121604159Y-51107000D03*
X122354159Y-51107000D03*
X121604159Y-52607000D03*
X123104159Y-51107000D03*
%TD*%
%TO.C,mouse-bite-2mm-slot*%
X147104159Y-95755000D03*
X146354159Y-95755000D03*
X145604159Y-94255000D03*
X146354159Y-94255000D03*
X145604159Y-95755000D03*
X147104159Y-94255000D03*
%TD*%
%TO.C,mouse-bite-2mm-slot*%
X123104159Y-95755000D03*
X122354159Y-95755000D03*
X121604159Y-94255000D03*
X122354159Y-94255000D03*
X121604159Y-95755000D03*
X123104159Y-94255000D03*
%TD*%
D13*
%TO.C,R38*%
X173672559Y-121085600D03*
X173672559Y-119085600D03*
%TD*%
D14*
%TO.C,C54*%
X167648859Y-124878200D03*
X165573859Y-124878200D03*
%TD*%
D15*
%TO.C,JP16*%
X169966159Y-123151000D03*
X168946159Y-123151000D03*
%TD*%
D16*
%TO.C,D42*%
X168541759Y-104330600D03*
X168541759Y-107630600D03*
%TD*%
D13*
%TO.C,R41*%
X163614159Y-102069000D03*
X163614159Y-100069000D03*
%TD*%
D17*
%TO.C,J23*%
X161074159Y-106133000D03*
D18*
X161074159Y-108673000D03*
X161074159Y-111213000D03*
X161074159Y-113753000D03*
X161074159Y-116293000D03*
X161074159Y-118833000D03*
X161074159Y-121373000D03*
X161074159Y-123913000D03*
X161074159Y-126453000D03*
X161074159Y-128993000D03*
X161074159Y-131533000D03*
%TD*%
D13*
%TO.C,R37*%
X166052559Y-121085600D03*
X166052559Y-119085600D03*
%TD*%
D14*
%TO.C,C53*%
X174202059Y-124878200D03*
X172127059Y-124878200D03*
%TD*%
D19*
%TO.C,C56*%
X173092259Y-108165000D03*
X175167259Y-108165000D03*
%TD*%
D13*
%TO.C,R39*%
X171132559Y-121085600D03*
X171132559Y-119085600D03*
%TD*%
D20*
%TO.C,C59*%
X166154159Y-116720900D03*
X166154159Y-114645900D03*
%TD*%
D21*
%TO.C,JP18*%
X170216159Y-131939400D03*
X171236159Y-131939400D03*
%TD*%
D20*
%TO.C,C60*%
X173672559Y-116720900D03*
X173672559Y-114645900D03*
%TD*%
D22*
%TO.C,R42*%
X176314159Y-100037000D03*
X176314159Y-102037000D03*
%TD*%
D23*
%TO.C,D36*%
X173014159Y-105625000D03*
X176314159Y-105625000D03*
%TD*%
D24*
%TO.C,D39*%
X163738159Y-106133000D03*
X166538159Y-106133000D03*
%TD*%
D10*
%TO.C,J22*%
X165639159Y-101990500D03*
D11*
X174279159Y-97810500D03*
X165639159Y-97810500D03*
D10*
X174279159Y-101990500D03*
%TD*%
D17*
%TO.C,J21*%
X178590159Y-135375000D03*
D18*
X176050159Y-135375000D03*
X173510159Y-135375000D03*
X170970159Y-135375000D03*
%TD*%
D25*
%TO.C,U24*%
X168059159Y-111331200D03*
X169329159Y-111331200D03*
X170599159Y-111331200D03*
X171869159Y-111331200D03*
X171869159Y-116581200D03*
X170599159Y-116581200D03*
X169329159Y-116581200D03*
X168059159Y-116581200D03*
%TD*%
D26*
%TO.C,R36*%
X167357359Y-132498200D03*
X165357359Y-132498200D03*
%TD*%
D22*
%TO.C,R40*%
X168592559Y-119085600D03*
X168592559Y-121085600D03*
%TD*%
D15*
%TO.C,JP17*%
X169966159Y-124167000D03*
X168946159Y-124167000D03*
%TD*%
D17*
%TO.C,J24*%
X178854159Y-131533000D03*
D18*
X178854159Y-128993000D03*
X178854159Y-126453000D03*
X178854159Y-123913000D03*
X178854159Y-121373000D03*
X178854159Y-118833000D03*
X178854159Y-116293000D03*
X178854159Y-113753000D03*
X178854159Y-111213000D03*
X178854159Y-108673000D03*
X178854159Y-106133000D03*
X178854159Y-103593000D03*
%TD*%
D27*
%TO.C,U22*%
X167237559Y-130542400D03*
X167237559Y-129272400D03*
X167237559Y-128002400D03*
X167237559Y-126732400D03*
X172487559Y-126732400D03*
X172487559Y-128002400D03*
X172487559Y-129272400D03*
X172487559Y-130542400D03*
%TD*%
D13*
%TO.C,R31*%
X149828559Y-121085600D03*
X149828559Y-119085600D03*
%TD*%
D14*
%TO.C,C44*%
X143804859Y-124878200D03*
X141729859Y-124878200D03*
%TD*%
D15*
%TO.C,JP13*%
X146122159Y-123151000D03*
X145102159Y-123151000D03*
%TD*%
D16*
%TO.C,D35*%
X144697759Y-104330600D03*
X144697759Y-107630600D03*
%TD*%
D13*
%TO.C,R34*%
X139770159Y-102069000D03*
X139770159Y-100069000D03*
%TD*%
D17*
%TO.C,J19*%
X137230159Y-106133000D03*
D18*
X137230159Y-108673000D03*
X137230159Y-111213000D03*
X137230159Y-113753000D03*
X137230159Y-116293000D03*
X137230159Y-118833000D03*
X137230159Y-121373000D03*
X137230159Y-123913000D03*
X137230159Y-126453000D03*
X137230159Y-128993000D03*
X137230159Y-131533000D03*
%TD*%
D13*
%TO.C,R30*%
X142208559Y-121085600D03*
X142208559Y-119085600D03*
%TD*%
D14*
%TO.C,C43*%
X150358059Y-124878200D03*
X148283059Y-124878200D03*
%TD*%
D19*
%TO.C,C46*%
X149248259Y-108165000D03*
X151323259Y-108165000D03*
%TD*%
D13*
%TO.C,R32*%
X147288559Y-121085600D03*
X147288559Y-119085600D03*
%TD*%
D20*
%TO.C,C49*%
X142310159Y-116720900D03*
X142310159Y-114645900D03*
%TD*%
D21*
%TO.C,JP15*%
X146372159Y-131939400D03*
X147392159Y-131939400D03*
%TD*%
D20*
%TO.C,C50*%
X149828559Y-116720900D03*
X149828559Y-114645900D03*
%TD*%
D22*
%TO.C,R35*%
X152470159Y-100037000D03*
X152470159Y-102037000D03*
%TD*%
D23*
%TO.C,D29*%
X149170159Y-105625000D03*
X152470159Y-105625000D03*
%TD*%
D24*
%TO.C,D32*%
X139894159Y-106133000D03*
X142694159Y-106133000D03*
%TD*%
D17*
%TO.C,J17*%
X154746159Y-135375000D03*
D18*
X152206159Y-135375000D03*
X149666159Y-135375000D03*
X147126159Y-135375000D03*
%TD*%
D25*
%TO.C,U20*%
X144215159Y-111331200D03*
X145485159Y-111331200D03*
X146755159Y-111331200D03*
X148025159Y-111331200D03*
X148025159Y-116581200D03*
X146755159Y-116581200D03*
X145485159Y-116581200D03*
X144215159Y-116581200D03*
%TD*%
D26*
%TO.C,R29*%
X143513359Y-132498200D03*
X141513359Y-132498200D03*
%TD*%
D22*
%TO.C,R33*%
X144748559Y-119085600D03*
X144748559Y-121085600D03*
%TD*%
D15*
%TO.C,JP14*%
X146122159Y-124167000D03*
X145102159Y-124167000D03*
%TD*%
D17*
%TO.C,J20*%
X155010159Y-131533000D03*
D18*
X155010159Y-128993000D03*
X155010159Y-126453000D03*
X155010159Y-123913000D03*
X155010159Y-121373000D03*
X155010159Y-118833000D03*
X155010159Y-116293000D03*
X155010159Y-113753000D03*
X155010159Y-111213000D03*
X155010159Y-108673000D03*
X155010159Y-106133000D03*
X155010159Y-103593000D03*
%TD*%
D27*
%TO.C,U18*%
X143393559Y-130542400D03*
X143393559Y-129272400D03*
X143393559Y-128002400D03*
X143393559Y-126732400D03*
X148643559Y-126732400D03*
X148643559Y-128002400D03*
X148643559Y-129272400D03*
X148643559Y-130542400D03*
%TD*%
D13*
%TO.C,R24*%
X125984559Y-121085600D03*
X125984559Y-119085600D03*
%TD*%
D14*
%TO.C,C34*%
X119960859Y-124878200D03*
X117885859Y-124878200D03*
%TD*%
D15*
%TO.C,JP10*%
X122278159Y-123151000D03*
X121258159Y-123151000D03*
%TD*%
D16*
%TO.C,D28*%
X120853759Y-104330600D03*
X120853759Y-107630600D03*
%TD*%
D13*
%TO.C,R27*%
X115926159Y-102069000D03*
X115926159Y-100069000D03*
%TD*%
D17*
%TO.C,J15*%
X113386159Y-106133000D03*
D18*
X113386159Y-108673000D03*
X113386159Y-111213000D03*
X113386159Y-113753000D03*
X113386159Y-116293000D03*
X113386159Y-118833000D03*
X113386159Y-121373000D03*
X113386159Y-123913000D03*
X113386159Y-126453000D03*
X113386159Y-128993000D03*
X113386159Y-131533000D03*
%TD*%
D13*
%TO.C,R23*%
X118364559Y-121085600D03*
X118364559Y-119085600D03*
%TD*%
D14*
%TO.C,C33*%
X126514059Y-124878200D03*
X124439059Y-124878200D03*
%TD*%
D19*
%TO.C,C36*%
X125404259Y-108165000D03*
X127479259Y-108165000D03*
%TD*%
D13*
%TO.C,R25*%
X123444559Y-121085600D03*
X123444559Y-119085600D03*
%TD*%
D20*
%TO.C,C39*%
X118466159Y-116720900D03*
X118466159Y-114645900D03*
%TD*%
D21*
%TO.C,JP12*%
X122528159Y-131939400D03*
X123548159Y-131939400D03*
%TD*%
D20*
%TO.C,C40*%
X125984559Y-116720900D03*
X125984559Y-114645900D03*
%TD*%
D22*
%TO.C,R28*%
X128626159Y-100037000D03*
X128626159Y-102037000D03*
%TD*%
D23*
%TO.C,D22*%
X125326159Y-105625000D03*
X128626159Y-105625000D03*
%TD*%
D24*
%TO.C,D25*%
X116050159Y-106133000D03*
X118850159Y-106133000D03*
%TD*%
D10*
%TO.C,J14*%
X117951159Y-101990500D03*
D11*
X126591159Y-97810500D03*
X117951159Y-97810500D03*
D10*
X126591159Y-101990500D03*
%TD*%
D17*
%TO.C,J13*%
X130902159Y-135375000D03*
D18*
X128362159Y-135375000D03*
X125822159Y-135375000D03*
X123282159Y-135375000D03*
%TD*%
D25*
%TO.C,U16*%
X120371159Y-111331200D03*
X121641159Y-111331200D03*
X122911159Y-111331200D03*
X124181159Y-111331200D03*
X124181159Y-116581200D03*
X122911159Y-116581200D03*
X121641159Y-116581200D03*
X120371159Y-116581200D03*
%TD*%
D26*
%TO.C,R22*%
X119669359Y-132498200D03*
X117669359Y-132498200D03*
%TD*%
D22*
%TO.C,R26*%
X120904559Y-119085600D03*
X120904559Y-121085600D03*
%TD*%
D15*
%TO.C,JP11*%
X122278159Y-124167000D03*
X121258159Y-124167000D03*
%TD*%
D17*
%TO.C,J16*%
X131166159Y-131533000D03*
D18*
X131166159Y-128993000D03*
X131166159Y-126453000D03*
X131166159Y-123913000D03*
X131166159Y-121373000D03*
X131166159Y-118833000D03*
X131166159Y-116293000D03*
X131166159Y-113753000D03*
X131166159Y-111213000D03*
X131166159Y-108673000D03*
X131166159Y-106133000D03*
X131166159Y-103593000D03*
%TD*%
D27*
%TO.C,U14*%
X119549559Y-130542400D03*
X119549559Y-129272400D03*
X119549559Y-128002400D03*
X119549559Y-126732400D03*
X124799559Y-126732400D03*
X124799559Y-128002400D03*
X124799559Y-129272400D03*
X124799559Y-130542400D03*
%TD*%
D13*
%TO.C,R10*%
X149828559Y-77937600D03*
X149828559Y-75937600D03*
%TD*%
D14*
%TO.C,C14*%
X143804859Y-81730200D03*
X141729859Y-81730200D03*
%TD*%
D15*
%TO.C,JP4*%
X146122159Y-80003000D03*
X145102159Y-80003000D03*
%TD*%
D16*
%TO.C,D14*%
X144697759Y-61182600D03*
X144697759Y-64482600D03*
%TD*%
D13*
%TO.C,R13*%
X139770159Y-58921000D03*
X139770159Y-56921000D03*
%TD*%
D17*
%TO.C,J7*%
X137230159Y-62985000D03*
D18*
X137230159Y-65525000D03*
X137230159Y-68065000D03*
X137230159Y-70605000D03*
X137230159Y-73145000D03*
X137230159Y-75685000D03*
X137230159Y-78225000D03*
X137230159Y-80765000D03*
X137230159Y-83305000D03*
X137230159Y-85845000D03*
X137230159Y-88385000D03*
%TD*%
D13*
%TO.C,R9*%
X142208559Y-77937600D03*
X142208559Y-75937600D03*
%TD*%
D14*
%TO.C,C13*%
X150358059Y-81730200D03*
X148283059Y-81730200D03*
%TD*%
D19*
%TO.C,C16*%
X149248259Y-65017000D03*
X151323259Y-65017000D03*
%TD*%
D13*
%TO.C,R11*%
X147288559Y-77937600D03*
X147288559Y-75937600D03*
%TD*%
D20*
%TO.C,C19*%
X142310159Y-73572900D03*
X142310159Y-71497900D03*
%TD*%
D21*
%TO.C,JP6*%
X146372159Y-88791400D03*
X147392159Y-88791400D03*
%TD*%
D20*
%TO.C,C20*%
X149828559Y-73572900D03*
X149828559Y-71497900D03*
%TD*%
D22*
%TO.C,R14*%
X152470159Y-56889000D03*
X152470159Y-58889000D03*
%TD*%
D23*
%TO.C,D8*%
X149170159Y-62477000D03*
X152470159Y-62477000D03*
%TD*%
D24*
%TO.C,D11*%
X139894159Y-62985000D03*
X142694159Y-62985000D03*
%TD*%
D10*
%TO.C,J6*%
X141795159Y-58842500D03*
D11*
X150435159Y-54662500D03*
X141795159Y-54662500D03*
D10*
X150435159Y-58842500D03*
%TD*%
D17*
%TO.C,J5*%
X154746159Y-92227000D03*
D18*
X152206159Y-92227000D03*
X149666159Y-92227000D03*
X147126159Y-92227000D03*
%TD*%
D25*
%TO.C,U8*%
X144215159Y-68183200D03*
X145485159Y-68183200D03*
X146755159Y-68183200D03*
X148025159Y-68183200D03*
X148025159Y-73433200D03*
X146755159Y-73433200D03*
X145485159Y-73433200D03*
X144215159Y-73433200D03*
%TD*%
D26*
%TO.C,R8*%
X143513359Y-89350200D03*
X141513359Y-89350200D03*
%TD*%
D22*
%TO.C,R12*%
X144748559Y-75937600D03*
X144748559Y-77937600D03*
%TD*%
D15*
%TO.C,JP5*%
X146122159Y-81019000D03*
X145102159Y-81019000D03*
%TD*%
D17*
%TO.C,J8*%
X155010159Y-88385000D03*
D18*
X155010159Y-85845000D03*
X155010159Y-83305000D03*
X155010159Y-80765000D03*
X155010159Y-78225000D03*
X155010159Y-75685000D03*
X155010159Y-73145000D03*
X155010159Y-70605000D03*
X155010159Y-68065000D03*
X155010159Y-65525000D03*
X155010159Y-62985000D03*
X155010159Y-60445000D03*
%TD*%
D27*
%TO.C,U6*%
X143393559Y-87394400D03*
X143393559Y-86124400D03*
X143393559Y-84854400D03*
X143393559Y-83584400D03*
X148643559Y-83584400D03*
X148643559Y-84854400D03*
X148643559Y-86124400D03*
X148643559Y-87394400D03*
%TD*%
D10*
%TO.C,J2*%
X117951159Y-58842500D03*
D11*
X126591159Y-54662500D03*
X117951159Y-54662500D03*
D10*
X126591159Y-58842500D03*
%TD*%
D17*
%TO.C,J1*%
X130902159Y-92227000D03*
D18*
X128362159Y-92227000D03*
X125822159Y-92227000D03*
X123282159Y-92227000D03*
%TD*%
D17*
%TO.C,J4*%
X131166159Y-88385000D03*
D18*
X131166159Y-85845000D03*
X131166159Y-83305000D03*
X131166159Y-80765000D03*
X131166159Y-78225000D03*
X131166159Y-75685000D03*
X131166159Y-73145000D03*
X131166159Y-70605000D03*
X131166159Y-68065000D03*
X131166159Y-65525000D03*
X131166159Y-62985000D03*
X131166159Y-60445000D03*
%TD*%
D24*
%TO.C,D4*%
X116050159Y-62985000D03*
X118850159Y-62985000D03*
%TD*%
D15*
%TO.C,JP2*%
X122278159Y-81019000D03*
X121258159Y-81019000D03*
%TD*%
D21*
%TO.C,JP3*%
X122528159Y-88791400D03*
X123548159Y-88791400D03*
%TD*%
D22*
%TO.C,R7*%
X128626159Y-56889000D03*
X128626159Y-58889000D03*
%TD*%
D23*
%TO.C,D1*%
X125326159Y-62477000D03*
X128626159Y-62477000D03*
%TD*%
D20*
%TO.C,C10*%
X125984559Y-73572900D03*
X125984559Y-71497900D03*
%TD*%
%TO.C,C9*%
X118466159Y-73572900D03*
X118466159Y-71497900D03*
%TD*%
D27*
%TO.C,U2*%
X119549559Y-87394400D03*
X119549559Y-86124400D03*
X119549559Y-84854400D03*
X119549559Y-83584400D03*
X124799559Y-83584400D03*
X124799559Y-84854400D03*
X124799559Y-86124400D03*
X124799559Y-87394400D03*
%TD*%
D22*
%TO.C,R5*%
X120904559Y-75937600D03*
X120904559Y-77937600D03*
%TD*%
D26*
%TO.C,R1*%
X119669359Y-89350200D03*
X117669359Y-89350200D03*
%TD*%
D25*
%TO.C,U4*%
X120371159Y-68183200D03*
X121641159Y-68183200D03*
X122911159Y-68183200D03*
X124181159Y-68183200D03*
X124181159Y-73433200D03*
X122911159Y-73433200D03*
X121641159Y-73433200D03*
X120371159Y-73433200D03*
%TD*%
D14*
%TO.C,C3*%
X126514059Y-81730200D03*
X124439059Y-81730200D03*
%TD*%
D13*
%TO.C,R6*%
X115926159Y-58921000D03*
X115926159Y-56921000D03*
%TD*%
D19*
%TO.C,C6*%
X125404259Y-65017000D03*
X127479259Y-65017000D03*
%TD*%
D13*
%TO.C,R2*%
X118364559Y-77937600D03*
X118364559Y-75937600D03*
%TD*%
D17*
%TO.C,J3*%
X113386159Y-62985000D03*
D18*
X113386159Y-65525000D03*
X113386159Y-68065000D03*
X113386159Y-70605000D03*
X113386159Y-73145000D03*
X113386159Y-75685000D03*
X113386159Y-78225000D03*
X113386159Y-80765000D03*
X113386159Y-83305000D03*
X113386159Y-85845000D03*
X113386159Y-88385000D03*
%TD*%
D13*
%TO.C,R4*%
X123444559Y-77937600D03*
X123444559Y-75937600D03*
%TD*%
D16*
%TO.C,D7*%
X120853759Y-61182600D03*
X120853759Y-64482600D03*
%TD*%
D15*
%TO.C,JP1*%
X122278159Y-80003000D03*
X121258159Y-80003000D03*
%TD*%
D14*
%TO.C,C4*%
X119960859Y-81730200D03*
X117885859Y-81730200D03*
%TD*%
D13*
%TO.C,R3*%
X125984559Y-77937600D03*
X125984559Y-75937600D03*
%TD*%
M02*
